<?xml version='1.0' encoding='utf-8'?>
<mlt title="Anonymous Submission" version="6.4.1" root="/home/nicolas/Documents/Projets Musique/Barons Freaks/COURTS METRAGES - MAIN/COURTS METRAGES/EpisodeIII" producer="main bin" LC_NUMERIC="fr_FR.UTF-8">
 <profile width="1024" frame_rate_den="1" height="576" display_aspect_num="16" display_aspect_den="9" frame_rate_num="25" colorspace="601" sample_aspect_den="1" description="1024x576 16:9 PAL" progressive="1" sample_aspect_num="1"/>
 <producer id="1" title="Anonymous Submission" out="466" in="0">
  <property name="length">00:00:18:17</property>
  <property name="eof">pause</property>
  <property name="resource">DSC_7840.MOV</property>
  <property name="meta.media.nb_streams">2</property>
  <property name="meta.media.0.stream.type">video</property>
  <property name="meta.media.0.stream.frame_rate">25</property>
  <property name="meta.media.0.stream.sample_aspect_ratio">0</property>
  <property name="meta.media.0.codec.width">1280</property>
  <property name="meta.media.0.codec.height">720</property>
  <property name="meta.media.0.codec.rotate">0</property>
  <property name="meta.media.0.codec.frame_rate">25</property>
  <property name="meta.media.0.codec.pix_fmt">yuvj420p</property>
  <property name="meta.media.0.codec.sample_aspect_ratio">1</property>
  <property name="meta.media.0.codec.colorspace">601</property>
  <property name="meta.media.0.codec.color_trc">4</property>
  <property name="meta.media.0.codec.name">h264</property>
  <property name="meta.media.0.codec.long_name">H.264 / AVC / MPEG-4 AVC / MPEG-4 part 10</property>
  <property name="meta.media.0.codec.bit_rate">10733527</property>
  <property name="meta.attr.0.stream.creation_time.markup">2016-11-11T15:36:54.000000Z</property>
  <property name="meta.attr.0.stream.language.markup">eng</property>
  <property name="meta.media.1.stream.type">audio</property>
  <property name="meta.media.1.codec.sample_fmt">s16</property>
  <property name="meta.media.1.codec.sample_rate">24000</property>
  <property name="meta.media.1.codec.channels">1</property>
  <property name="meta.media.1.codec.name">pcm_s16le</property>
  <property name="meta.media.1.codec.long_name">PCM signed 16-bit little-endian</property>
  <property name="meta.media.1.codec.bit_rate">384000</property>
  <property name="meta.attr.1.stream.creation_time.markup">2016-11-11T15:36:54.000000Z</property>
  <property name="meta.attr.1.stream.language.markup">eng</property>
  <property name="meta.attr.major_brand.markup">qt  </property>
  <property name="meta.attr.minor_version.markup">537331968</property>
  <property name="meta.attr.compatible_brands.markup">qt  niko</property>
  <property name="meta.attr.creation_time.markup">2016-11-11T15:36:54.000000Z</property>
  <property name="seekable">1</property>
  <property name="meta.media.sample_aspect_num">1</property>
  <property name="meta.media.sample_aspect_den">1</property>
  <property name="aspect_ratio">1</property>
  <property name="audio_index">1</property>
  <property name="video_index">0</property>
  <property name="mute_on_pause">1</property>
  <property name="mlt_service">avformat</property>
  <property name="meta.media.frame_rate_num">25</property>
  <property name="meta.media.frame_rate_den">1</property>
  <property name="meta.media.colorspace">601</property>
  <property name="meta.media.width">1280</property>
  <property name="meta.media.height">720</property>
  <property name="meta.media.top_field_first">0</property>
  <property name="meta.media.progressive">1</property>
  <property name="kdenlive:file_hash">d664c1310f5ed8a956d4e61c8eb8182e</property>
  <property name="kdenlive:file_size">25972070</property>
  <property name="kdenlive:clipname">DSC_7840.MOV</property>
  <property name="meta.media.color_trc">4</property>
  <property name="global_feed">1</property>
 </producer>
 <producer id="3" title="Anonymous Submission" out="217" in="0">
  <property name="length">00:00:08:18</property>
  <property name="eof">pause</property>
  <property name="resource">DSC_7842.MOV</property>
  <property name="meta.media.nb_streams">2</property>
  <property name="meta.media.0.stream.type">video</property>
  <property name="meta.media.0.stream.frame_rate">25</property>
  <property name="meta.media.0.stream.sample_aspect_ratio">0</property>
  <property name="meta.media.0.codec.width">1280</property>
  <property name="meta.media.0.codec.height">720</property>
  <property name="meta.media.0.codec.rotate">0</property>
  <property name="meta.media.0.codec.frame_rate">25</property>
  <property name="meta.media.0.codec.pix_fmt">yuvj420p</property>
  <property name="meta.media.0.codec.sample_aspect_ratio">1</property>
  <property name="meta.media.0.codec.colorspace">601</property>
  <property name="meta.media.0.codec.color_trc">4</property>
  <property name="meta.media.0.codec.name">h264</property>
  <property name="meta.media.0.codec.long_name">H.264 / AVC / MPEG-4 AVC / MPEG-4 part 10</property>
  <property name="meta.media.0.codec.bit_rate">10602002</property>
  <property name="meta.attr.0.stream.creation_time.markup">2016-11-11T15:38:39.000000Z</property>
  <property name="meta.attr.0.stream.language.markup">eng</property>
  <property name="meta.media.1.stream.type">audio</property>
  <property name="meta.media.1.codec.sample_fmt">s16</property>
  <property name="meta.media.1.codec.sample_rate">24000</property>
  <property name="meta.media.1.codec.channels">1</property>
  <property name="meta.media.1.codec.name">pcm_s16le</property>
  <property name="meta.media.1.codec.long_name">PCM signed 16-bit little-endian</property>
  <property name="meta.media.1.codec.bit_rate">384000</property>
  <property name="meta.attr.1.stream.creation_time.markup">2016-11-11T15:38:39.000000Z</property>
  <property name="meta.attr.1.stream.language.markup">eng</property>
  <property name="meta.attr.major_brand.markup">qt  </property>
  <property name="meta.attr.minor_version.markup">537331968</property>
  <property name="meta.attr.compatible_brands.markup">qt  niko</property>
  <property name="meta.attr.creation_time.markup">2016-11-11T15:38:39.000000Z</property>
  <property name="seekable">1</property>
  <property name="meta.media.sample_aspect_num">1</property>
  <property name="meta.media.sample_aspect_den">1</property>
  <property name="aspect_ratio">1</property>
  <property name="audio_index">1</property>
  <property name="video_index">0</property>
  <property name="mute_on_pause">1</property>
  <property name="mlt_service">avformat</property>
  <property name="meta.media.frame_rate_num">25</property>
  <property name="meta.media.frame_rate_den">1</property>
  <property name="meta.media.colorspace">601</property>
  <property name="meta.media.width">1280</property>
  <property name="meta.media.height">720</property>
  <property name="meta.media.top_field_first">0</property>
  <property name="meta.media.progressive">1</property>
  <property name="kdenlive:file_hash">d2e6d0dac8795fa27043c036f553e6f0</property>
  <property name="kdenlive:file_size">11985653</property>
  <property name="kdenlive:clipname">DSC_7842.MOV</property>
  <property name="global_feed">1</property>
  <property name="meta.media.color_trc">4</property>
 </producer>
 <producer id="2" title="Anonymous Submission" out="643" in="0">
  <property name="length">00:00:25:19</property>
  <property name="eof">pause</property>
  <property name="resource">DSC_7841.MOV</property>
  <property name="meta.media.nb_streams">2</property>
  <property name="meta.media.0.stream.type">video</property>
  <property name="meta.media.0.stream.frame_rate">25</property>
  <property name="meta.media.0.stream.sample_aspect_ratio">0</property>
  <property name="meta.media.0.codec.width">1280</property>
  <property name="meta.media.0.codec.height">720</property>
  <property name="meta.media.0.codec.rotate">0</property>
  <property name="meta.media.0.codec.frame_rate">25</property>
  <property name="meta.media.0.codec.pix_fmt">yuvj420p</property>
  <property name="meta.media.0.codec.sample_aspect_ratio">1</property>
  <property name="meta.media.0.codec.colorspace">601</property>
  <property name="meta.media.0.codec.color_trc">4</property>
  <property name="meta.media.0.codec.name">h264</property>
  <property name="meta.media.0.codec.long_name">H.264 / AVC / MPEG-4 AVC / MPEG-4 part 10</property>
  <property name="meta.media.0.codec.bit_rate">11260860</property>
  <property name="meta.attr.0.stream.creation_time.markup">2016-11-11T15:37:33.000000Z</property>
  <property name="meta.attr.0.stream.language.markup">eng</property>
  <property name="meta.media.1.stream.type">audio</property>
  <property name="meta.media.1.codec.sample_fmt">s16</property>
  <property name="meta.media.1.codec.sample_rate">24000</property>
  <property name="meta.media.1.codec.channels">1</property>
  <property name="meta.media.1.codec.name">pcm_s16le</property>
  <property name="meta.media.1.codec.long_name">PCM signed 16-bit little-endian</property>
  <property name="meta.media.1.codec.bit_rate">384000</property>
  <property name="meta.attr.1.stream.creation_time.markup">2016-11-11T15:37:33.000000Z</property>
  <property name="meta.attr.1.stream.language.markup">eng</property>
  <property name="meta.attr.major_brand.markup">qt  </property>
  <property name="meta.attr.minor_version.markup">537331968</property>
  <property name="meta.attr.compatible_brands.markup">qt  niko</property>
  <property name="meta.attr.creation_time.markup">2016-11-11T15:37:33.000000Z</property>
  <property name="seekable">1</property>
  <property name="meta.media.sample_aspect_num">1</property>
  <property name="meta.media.sample_aspect_den">1</property>
  <property name="aspect_ratio">1</property>
  <property name="audio_index">1</property>
  <property name="video_index">0</property>
  <property name="mute_on_pause">1</property>
  <property name="mlt_service">avformat</property>
  <property name="meta.media.frame_rate_num">25</property>
  <property name="meta.media.frame_rate_den">1</property>
  <property name="meta.media.colorspace">601</property>
  <property name="meta.media.width">1280</property>
  <property name="meta.media.height">720</property>
  <property name="meta.media.top_field_first">0</property>
  <property name="meta.media.progressive">1</property>
  <property name="kdenlive:file_hash">ce39b8bf922eab6493818dc74535c4c2</property>
  <property name="kdenlive:file_size">37505284</property>
  <property name="kdenlive:clipname">DSC_7841.MOV</property>
  <property name="global_feed">1</property>
  <property name="meta.media.color_trc">4</property>
 </producer>
 <producer id="4" title="Anonymous Submission" out="650" in="0">
  <property name="length">651</property>
  <property name="eof">pause</property>
  <property name="resource">/home/nicolas/Documents/Projets Musique/Barons Freaks/COURTS METRAGES - MAIN/COURTS METRAGES/4_diaphragmes.png</property>
  <property name="ttl">25</property>
  <property name="aspect_ratio">1</property>
  <property name="progressive">1</property>
  <property name="seekable">1</property>
  <property name="loop">1</property>
  <property name="meta.media.width">1280</property>
  <property name="meta.media.height">720</property>
  <property name="mlt_service">pixbuf</property>
  <property name="kdenlive:file_hash">937f15be320a493057ada64399152060</property>
  <property name="kdenlive:file_size">13990</property>
  <property name="kdenlive:clipname">4_diaphragmes.png</property>
  <property name="kdenlive:duration">651</property>
  <property name="global_feed">1</property>
 </producer>
 <producer id="6" out="124" in="0">
  <property name="length">125</property>
  <property name="eof">pause</property>
  <property name="resource">0x000000ff</property>
  <property name="aspect_ratio">1</property>
  <property name="mlt_service">color</property>
  <property name="kdenlive:clipname">Color Clip</property>
  <property name="kdenlive:folderid">-1</property>
  <property name="kdenlive:duration">125</property>
  <property name="kdenlive:file_hash">9196813120dc5c505072516b15baf414</property>
 </producer>
 <producer id="7" out="124" in="0">
  <property name="length">125</property>
  <property name="eof">pause</property>
  <property name="resource">0xffffffff</property>
  <property name="aspect_ratio">1</property>
  <property name="mlt_service">color</property>
  <property name="kdenlive:clipname">Color Clip</property>
  <property name="kdenlive:folderid">-1</property>
  <property name="kdenlive:duration">125</property>
  <property name="kdenlive:file_hash">039b56a692cd66eefeea44a17539e5a2</property>
 </producer>
 <producer id="9" title="Anonymous Submission" out="215" in="0">
  <property name="length">00:00:08:16</property>
  <property name="eof">pause</property>
  <property name="resource">/home/nicolas/.cache/kdenlive/proxy/c9fd48ae2cc1055d0a04b688538d95df.mpg</property>
  <property name="meta.media.nb_streams">2</property>
  <property name="meta.media.0.stream.type">video</property>
  <property name="meta.media.0.stream.frame_rate">25</property>
  <property name="meta.media.0.stream.sample_aspect_ratio">0</property>
  <property name="meta.media.0.codec.width">640</property>
  <property name="meta.media.0.codec.height">360</property>
  <property name="meta.media.0.codec.rotate">0</property>
  <property name="meta.media.0.codec.frame_rate">25</property>
  <property name="meta.media.0.codec.pix_fmt">yuv420p</property>
  <property name="meta.media.0.codec.sample_aspect_ratio">1</property>
  <property name="meta.media.0.codec.colorspace">601</property>
  <property name="meta.media.0.codec.color_trc">6</property>
  <property name="meta.media.0.codec.name">mpeg2video</property>
  <property name="meta.media.0.codec.long_name">MPEG-2 video</property>
  <property name="meta.media.0.codec.bit_rate">0</property>
  <property name="meta.media.1.stream.type">audio</property>
  <property name="meta.media.1.codec.sample_fmt">s16p</property>
  <property name="meta.media.1.codec.sample_rate">48000</property>
  <property name="meta.media.1.codec.channels">2</property>
  <property name="meta.media.1.codec.name">mp2</property>
  <property name="meta.media.1.codec.long_name">MP2 (MPEG audio layer 2)</property>
  <property name="meta.media.1.codec.bit_rate">128000</property>
  <property name="seekable">1</property>
  <property name="meta.media.sample_aspect_num">1</property>
  <property name="meta.media.sample_aspect_den">1</property>
  <property name="aspect_ratio">1</property>
  <property name="audio_index">1</property>
  <property name="video_index">0</property>
  <property name="mute_on_pause">1</property>
  <property name="mlt_service">avformat</property>
  <property name="global_feed">1</property>
  <property name="xml">was here</property>
  <property name="kdenlive:folderid">-1</property>
  <property name="kdenlive:file_size">3555</property>
  <property name="kdenlive:file_hash">c9fd48ae2cc1055d0a04b688538d95df</property>
  <property name="kdenlive:proxy">/home/nicolas/.cache/kdenlive/proxy/c9fd48ae2cc1055d0a04b688538d95df.mpg</property>
  <property name="proxy_out">215</property>
  <property name="kdenlive:originalurl">DSC_7842.MOV.mlt</property>
  <property name="kdenlive:clipname">DSC_7842.MOV.mltt</property>
  <property name="meta.media.frame_rate_num">25</property>
  <property name="meta.media.frame_rate_den">1</property>
  <property name="meta.media.colorspace">601</property>
  <property name="meta.media.color_trc">6</property>
  <property name="meta.media.width">640</property>
  <property name="meta.media.height">360</property>
  <property name="meta.media.top_field_first">0</property>
  <property name="meta.media.progressive">0</property>
 </producer>
 <playlist id="main bin">
  <property name="kdenlive:documentnotes"/>
  <property name="kdenlive:clipgroups"/>
  <property name="kdenlive:customeffects"/>
  <property name="kdenlive:docproperties.version">0.95</property>
  <property name="kdenlive:docproperties.projectfolder">/home/nicolas/Documents/Projets Musique/Barons Freaks/COURTS METRAGES - MAIN/COURTS METRAGES/EpisodeIII</property>
  <property name="kdenlive:docproperties.documentid">1498212098548</property>
  <property name="kdenlive:docproperties.audiotargettrack">-1</property>
  <property name="kdenlive:docproperties.decimalPoint">,</property>
  <property name="kdenlive:docproperties.dirtypreviewchunks"/>
  <property name="kdenlive:docproperties.disablepreview">0</property>
  <property name="kdenlive:docproperties.enableproxy">1</property>
  <property name="kdenlive:docproperties.generateimageproxy">1</property>
  <property name="kdenlive:docproperties.generateproxy">1</property>
  <property name="kdenlive:docproperties.kdenliveversion">16.12.2</property>
  <property name="kdenlive:docproperties.position">669</property>
  <property name="kdenlive:docproperties.previewchunks"/>
  <property name="kdenlive:docproperties.previewextension"/>
  <property name="kdenlive:docproperties.previewparameters"/>
  <property name="kdenlive:docproperties.profile">square_pal_wide</property>
  <property name="kdenlive:docproperties.proxyextension">mpg</property>
  <property name="kdenlive:docproperties.proxyimageminsize">2000</property>
  <property name="kdenlive:docproperties.proxyminsize">1000</property>
  <property name="kdenlive:docproperties.proxyparams">-vf scale=640:-1 -g 5 -qscale 6 -ab 128k -vcodec mpeg2video -acodec mp2</property>
  <property name="kdenlive:docproperties.verticalzoom">1</property>
  <property name="kdenlive:docproperties.videotargettrack">-1</property>
  <property name="kdenlive:docproperties.zonein">590</property>
  <property name="kdenlive:docproperties.zoneout">708</property>
  <property name="kdenlive:docproperties.zoom">5</property>
  <property name="kdenlive:docproperties.renderaudioquality">192</property>
  <property name="kdenlive:docproperties.rendercategory">Generic (HD for web, mobile devices...)</property>
  <property name="kdenlive:docproperties.renderendguide">-1</property>
  <property name="kdenlive:docproperties.renderexportaudio">0</property>
  <property name="kdenlive:docproperties.renderguide">0</property>
  <property name="kdenlive:docproperties.renderplay">0</property>
  <property name="kdenlive:docproperties.renderprofile">MP4 - the dominating format (H264/AAC)</property>
  <property name="kdenlive:docproperties.renderquality">15</property>
  <property name="kdenlive:docproperties.renderratio">1</property>
  <property name="kdenlive:docproperties.renderrescale">0</property>
  <property name="kdenlive:docproperties.renderrescaleheight">180</property>
  <property name="kdenlive:docproperties.renderrescalewidth">320</property>
  <property name="kdenlive:docproperties.renderscanning">0</property>
  <property name="kdenlive:docproperties.renderspeed">2</property>
  <property name="kdenlive:docproperties.renderstartguide">-1</property>
  <property name="kdenlive:docproperties.rendertcoverlay">0</property>
  <property name="kdenlive:docproperties.rendertctype">0</property>
  <property name="kdenlive:docproperties.rendertwopass">0</property>
  <property name="kdenlive:docproperties.renderurl">/home/nicolas/Tutti.mp4</property>
  <property name="kdenlive:docproperties.renderzone">1</property>
  <property name="xml_retain">1</property>
  <entry out="466" producer="1" in="0"/>
  <entry out="217" producer="3" in="0"/>
  <entry out="643" producer="2" in="0"/>
  <entry out="124" producer="4" in="0"/>
  <entry out="124" producer="6" in="0"/>
  <entry out="124" producer="7" in="0"/>
  <entry out="215" producer="9" in="0"/>
 </playlist>
 <producer id="black" out="500" in="0">
  <property name="length">15000</property>
  <property name="eof">pause</property>
  <property name="resource">black</property>
  <property name="aspect_ratio">0</property>
  <property name="mlt_service">colour</property>
  <property name="set.test_audio">0</property>
 </producer>
 <playlist id="black_track">
  <entry out="708" producer="black" in="0"/>
 </playlist>
 <playlist id="playlist1">
  <property name="kdenlive:audio_track">1</property>
  <property name="kdenlive:track_name">Audio 2</property>
 </playlist>
 <playlist id="playlist2">
  <property name="kdenlive:audio_track">1</property>
  <property name="kdenlive:track_name">Audio 1</property>
 </playlist>
 <producer id="1_playlist0" title="Anonymous Submission" out="466" in="0">
  <property name="length">467</property>
  <property name="eof">pause</property>
  <property name="resource">DSC_7840.MOV</property>
  <property name="meta.media.nb_streams">2</property>
  <property name="meta.media.0.stream.type">video</property>
  <property name="meta.media.0.stream.frame_rate">25</property>
  <property name="meta.media.0.stream.sample_aspect_ratio">0</property>
  <property name="meta.media.0.codec.width">1280</property>
  <property name="meta.media.0.codec.height">720</property>
  <property name="meta.media.0.codec.rotate">0</property>
  <property name="meta.media.0.codec.frame_rate">25</property>
  <property name="meta.media.0.codec.pix_fmt">yuvj420p</property>
  <property name="meta.media.0.codec.sample_aspect_ratio">1</property>
  <property name="meta.media.0.codec.colorspace">601</property>
  <property name="meta.media.0.codec.color_trc">4</property>
  <property name="meta.media.0.codec.name">h264</property>
  <property name="meta.media.0.codec.long_name">H.264 / AVC / MPEG-4 AVC / MPEG-4 part 10</property>
  <property name="meta.media.0.codec.bit_rate">10733527</property>
  <property name="meta.attr.0.stream.creation_time.markup">2016-11-11T15:36:54.000000Z</property>
  <property name="meta.attr.0.stream.language.markup">eng</property>
  <property name="meta.media.1.stream.type">audio</property>
  <property name="meta.media.1.codec.sample_fmt">s16</property>
  <property name="meta.media.1.codec.sample_rate">24000</property>
  <property name="meta.media.1.codec.channels">1</property>
  <property name="meta.media.1.codec.name">pcm_s16le</property>
  <property name="meta.media.1.codec.long_name">PCM signed 16-bit little-endian</property>
  <property name="meta.media.1.codec.bit_rate">384000</property>
  <property name="meta.attr.1.stream.creation_time.markup">2016-11-11T15:36:54.000000Z</property>
  <property name="meta.attr.1.stream.language.markup">eng</property>
  <property name="meta.attr.major_brand.markup">qt  </property>
  <property name="meta.attr.minor_version.markup">537331968</property>
  <property name="meta.attr.compatible_brands.markup">qt  niko</property>
  <property name="meta.attr.creation_time.markup">2016-11-11T15:36:54.000000Z</property>
  <property name="seekable">1</property>
  <property name="meta.media.sample_aspect_num">1</property>
  <property name="meta.media.sample_aspect_den">1</property>
  <property name="aspect_ratio">1</property>
  <property name="audio_index">1</property>
  <property name="video_index">0</property>
  <property name="mute_on_pause">1</property>
  <property name="mlt_service">avformat</property>
  <property name="meta.media.frame_rate_num">25</property>
  <property name="meta.media.frame_rate_den">1</property>
  <property name="meta.media.colorspace">601</property>
  <property name="meta.media.width">1280</property>
  <property name="meta.media.height">720</property>
  <property name="meta.media.top_field_first">0</property>
  <property name="meta.media.progressive">1</property>
  <property name="meta.media.color_trc">4</property>
  <property name="global_feed">1</property>
 </producer>
 <producer id="3_playlist0" title="Anonymous Submission" out="217" in="0">
  <property name="length">218</property>
  <property name="eof">pause</property>
  <property name="resource">DSC_7842.MOV</property>
  <property name="meta.media.nb_streams">2</property>
  <property name="meta.media.0.stream.type">video</property>
  <property name="meta.media.0.stream.frame_rate">25</property>
  <property name="meta.media.0.stream.sample_aspect_ratio">0</property>
  <property name="meta.media.0.codec.width">1280</property>
  <property name="meta.media.0.codec.height">720</property>
  <property name="meta.media.0.codec.rotate">0</property>
  <property name="meta.media.0.codec.frame_rate">25</property>
  <property name="meta.media.0.codec.pix_fmt">yuvj420p</property>
  <property name="meta.media.0.codec.sample_aspect_ratio">1</property>
  <property name="meta.media.0.codec.colorspace">601</property>
  <property name="meta.media.0.codec.color_trc">4</property>
  <property name="meta.media.0.codec.name">h264</property>
  <property name="meta.media.0.codec.long_name">H.264 / AVC / MPEG-4 AVC / MPEG-4 part 10</property>
  <property name="meta.media.0.codec.bit_rate">10602002</property>
  <property name="meta.attr.0.stream.creation_time.markup">2016-11-11T15:38:39.000000Z</property>
  <property name="meta.attr.0.stream.language.markup">eng</property>
  <property name="meta.media.1.stream.type">audio</property>
  <property name="meta.media.1.codec.sample_fmt">s16</property>
  <property name="meta.media.1.codec.sample_rate">24000</property>
  <property name="meta.media.1.codec.channels">1</property>
  <property name="meta.media.1.codec.name">pcm_s16le</property>
  <property name="meta.media.1.codec.long_name">PCM signed 16-bit little-endian</property>
  <property name="meta.media.1.codec.bit_rate">384000</property>
  <property name="meta.attr.1.stream.creation_time.markup">2016-11-11T15:38:39.000000Z</property>
  <property name="meta.attr.1.stream.language.markup">eng</property>
  <property name="meta.attr.major_brand.markup">qt  </property>
  <property name="meta.attr.minor_version.markup">537331968</property>
  <property name="meta.attr.compatible_brands.markup">qt  niko</property>
  <property name="meta.attr.creation_time.markup">2016-11-11T15:38:39.000000Z</property>
  <property name="seekable">1</property>
  <property name="meta.media.sample_aspect_num">1</property>
  <property name="meta.media.sample_aspect_den">1</property>
  <property name="aspect_ratio">1</property>
  <property name="audio_index">1</property>
  <property name="video_index">0</property>
  <property name="mute_on_pause">1</property>
  <property name="mlt_service">avformat</property>
  <property name="global_feed">1</property>
  <property name="xml">was here</property>
  <property name="meta.media.frame_rate_num">25</property>
  <property name="meta.media.frame_rate_den">1</property>
  <property name="meta.media.colorspace">601</property>
  <property name="meta.media.color_trc">4</property>
  <property name="meta.media.width">1280</property>
  <property name="meta.media.height">720</property>
  <property name="meta.media.top_field_first">0</property>
  <property name="meta.media.progressive">1</property>
 </producer>
 <playlist id="playlist0">
  <property name="kdenlive:track_name">Video 5</property>
  <entry out="381" producer="1_playlist0" in="343">
   <filter id="frei0r.scale0tilt">
    <property name="version">0,1</property>
    <property name="mlt_service">frei0r.scale0tilt</property>
    <property name="track">0</property>
    <property name="kdenlive_id">frei0r.scale0tilt</property>
    <property name="tag">frei0r.scale0tilt</property>
    <property name="kdenlive_ix">1</property>
    <property name="Clip left">0</property>
    <property name="Clip right">0</property>
    <property name="Clip top">0</property>
    <property name="Clip bottom">0</property>
    <property name="Scale X">0,4</property>
    <property name="Scale Y">0,4</property>
    <property name="Tilt X">0,643555</property>
    <property name="Tilt Y">0,769097</property>
    <property name="kdenlive_info"/>
   </filter>
  </entry>
  <entry out="363" producer="1_playlist0" in="343">
   <filter id="filter0">
    <property name="version">0,1</property>
    <property name="mlt_service">frei0r.scale0tilt</property>
    <property name="track">0</property>
    <property name="kdenlive_id">frei0r.scale0tilt</property>
    <property name="tag">frei0r.scale0tilt</property>
    <property name="kdenlive_ix">1</property>
    <property name="kdenlive_info"/>
    <property name="Clip left">0</property>
    <property name="Clip right">0</property>
    <property name="Clip top">0</property>
    <property name="Clip bottom">0</property>
    <property name="Scale X">0,4</property>
    <property name="Scale Y">0,4</property>
    <property name="Tilt X">0,643555</property>
    <property name="Tilt Y">0,769097</property>
   </filter>
  </entry>
  <blank length="218"/>
  <entry out="381" producer="1_playlist0" in="343">
   <filter id="filter1">
    <property name="version">0,1</property>
    <property name="mlt_service">frei0r.scale0tilt</property>
    <property name="kdenlive_id">frei0r.scale0tilt</property>
    <property name="tag">frei0r.scale0tilt</property>
    <property name="kdenlive_ix">1</property>
    <property name="kdenlive_info"/>
    <property name="disable"/>
    <property name="Clip left">0,213867</property>
    <property name="Clip right">0</property>
    <property name="Clip top">0</property>
    <property name="Clip bottom">0</property>
    <property name="Scale X">0,4</property>
    <property name="Scale Y">0,4</property>
    <property name="Tilt X">0,643555</property>
    <property name="Tilt Y">0,767361</property>
   </filter>
   <filter id="frei0r.nervous">
    <property name="version">3,1</property>
    <property name="mlt_service">frei0r.nervous</property>
    <property name="kdenlive_id">frei0r.nervous</property>
    <property name="tag">frei0r.nervous</property>
    <property name="kdenlive_ix">2</property>
   </filter>
  </entry>
  <entry out="363" producer="1_playlist0" in="343">
   <filter id="filter2">
    <property name="version">0,1</property>
    <property name="mlt_service">frei0r.scale0tilt</property>
    <property name="kdenlive_id">frei0r.scale0tilt</property>
    <property name="tag">frei0r.scale0tilt</property>
    <property name="kdenlive_ix">1</property>
    <property name="kdenlive_info"/>
    <property name="disable"/>
    <property name="Clip left">0,230469</property>
    <property name="Clip right">0</property>
    <property name="Clip top">0</property>
    <property name="Clip bottom">0</property>
    <property name="Scale X">0,4</property>
    <property name="Scale Y">0,4</property>
    <property name="Tilt X">0,643555</property>
    <property name="Tilt Y">0,767361</property>
   </filter>
   <filter id="filter3">
    <property name="version">3,1</property>
    <property name="mlt_service">frei0r.nervous</property>
    <property name="kdenlive_id">frei0r.nervous</property>
    <property name="tag">frei0r.nervous</property>
    <property name="kdenlive_ix">2</property>
   </filter>
  </entry>
  <blank length="252"/>
  <entry out="69" producer="6" in="21"/>
  <entry out="78" producer="3_playlist0" in="67">
   <filter id="filter4">
    <property name="version">0,1</property>
    <property name="mlt_service">frei0r.scale0tilt</property>
    <property name="kdenlive_id">frei0r.scale0tilt</property>
    <property name="tag">frei0r.scale0tilt</property>
    <property name="kdenlive_ix">1</property>
    <property name="kdenlive_info"/>
    <property name="disable"/>
    <property name="Clip left">0</property>
    <property name="Clip right">0,212891</property>
    <property name="Clip top">0</property>
    <property name="Clip bottom">0</property>
    <property name="Scale X">0,34</property>
    <property name="Scale Y">0,34</property>
    <property name="Tilt X">0,474609</property>
    <property name="Tilt Y">0,765625</property>
   </filter>
  </entry>
  <entry out="43" producer="3_playlist0" in="19">
   <filter id="filter6">
    <property name="version">0,1</property>
    <property name="mlt_service">frei0r.scale0tilt</property>
    <property name="kdenlive_id">frei0r.scale0tilt</property>
    <property name="tag">frei0r.scale0tilt</property>
    <property name="kdenlive_ix">1</property>
    <property name="kdenlive_info"/>
    <property name="disable"/>
    <property name="Clip left">0</property>
    <property name="Clip right">0,212891</property>
    <property name="Clip top">0</property>
    <property name="Clip bottom">0</property>
    <property name="Scale X">0,34</property>
    <property name="Scale Y">0,34</property>
    <property name="Tilt X">0,474609</property>
    <property name="Tilt Y">0,765625</property>
   </filter>
  </entry>
  <entry out="50" producer="3_playlist0" in="19">
   <filter id="filter5">
    <property name="version">0,1</property>
    <property name="mlt_service">frei0r.scale0tilt</property>
    <property name="kdenlive_id">frei0r.scale0tilt</property>
    <property name="tag">frei0r.scale0tilt</property>
    <property name="kdenlive_ix">1</property>
    <property name="kdenlive_info"/>
    <property name="disable"/>
    <property name="Clip left">0</property>
    <property name="Clip right">0,212891</property>
    <property name="Clip top">0</property>
    <property name="Clip bottom">0</property>
    <property name="Scale X">0,34</property>
    <property name="Scale Y">0,34</property>
    <property name="Tilt X">0,474609</property>
    <property name="Tilt Y">0,765625</property>
   </filter>
  </entry>
 </playlist>
 <producer id="3_playlist3" title="Anonymous Submission" out="217" in="0">
  <property name="length">218</property>
  <property name="eof">pause</property>
  <property name="resource">DSC_7842.MOV</property>
  <property name="meta.media.nb_streams">2</property>
  <property name="meta.media.0.stream.type">video</property>
  <property name="meta.media.0.stream.frame_rate">25</property>
  <property name="meta.media.0.stream.sample_aspect_ratio">0</property>
  <property name="meta.media.0.codec.width">1280</property>
  <property name="meta.media.0.codec.height">720</property>
  <property name="meta.media.0.codec.rotate">0</property>
  <property name="meta.media.0.codec.frame_rate">25</property>
  <property name="meta.media.0.codec.pix_fmt">yuvj420p</property>
  <property name="meta.media.0.codec.sample_aspect_ratio">1</property>
  <property name="meta.media.0.codec.colorspace">601</property>
  <property name="meta.media.0.codec.color_trc">4</property>
  <property name="meta.media.0.codec.name">h264</property>
  <property name="meta.media.0.codec.long_name">H.264 / AVC / MPEG-4 AVC / MPEG-4 part 10</property>
  <property name="meta.media.0.codec.bit_rate">10602002</property>
  <property name="meta.attr.0.stream.creation_time.markup">2016-11-11T15:38:39.000000Z</property>
  <property name="meta.attr.0.stream.language.markup">eng</property>
  <property name="meta.media.1.stream.type">audio</property>
  <property name="meta.media.1.codec.sample_fmt">s16</property>
  <property name="meta.media.1.codec.sample_rate">24000</property>
  <property name="meta.media.1.codec.channels">1</property>
  <property name="meta.media.1.codec.name">pcm_s16le</property>
  <property name="meta.media.1.codec.long_name">PCM signed 16-bit little-endian</property>
  <property name="meta.media.1.codec.bit_rate">384000</property>
  <property name="meta.attr.1.stream.creation_time.markup">2016-11-11T15:38:39.000000Z</property>
  <property name="meta.attr.1.stream.language.markup">eng</property>
  <property name="meta.attr.major_brand.markup">qt  </property>
  <property name="meta.attr.minor_version.markup">537331968</property>
  <property name="meta.attr.compatible_brands.markup">qt  niko</property>
  <property name="meta.attr.creation_time.markup">2016-11-11T15:38:39.000000Z</property>
  <property name="seekable">1</property>
  <property name="meta.media.sample_aspect_num">1</property>
  <property name="meta.media.sample_aspect_den">1</property>
  <property name="aspect_ratio">1</property>
  <property name="audio_index">1</property>
  <property name="video_index">0</property>
  <property name="mute_on_pause">1</property>
  <property name="mlt_service">avformat</property>
  <property name="meta.media.frame_rate_num">25</property>
  <property name="meta.media.frame_rate_den">1</property>
  <property name="meta.media.colorspace">601</property>
  <property name="meta.media.width">1280</property>
  <property name="meta.media.height">720</property>
  <property name="meta.media.top_field_first">0</property>
  <property name="meta.media.progressive">1</property>
  <property name="meta.media.color_trc">4</property>
  <property name="global_feed">1</property>
 </producer>
 <producer id="2_playlist3" title="Anonymous Submission" out="643" in="0">
  <property name="length">644</property>
  <property name="eof">pause</property>
  <property name="resource">DSC_7841.MOV</property>
  <property name="meta.media.nb_streams">2</property>
  <property name="meta.media.0.stream.type">video</property>
  <property name="meta.media.0.stream.frame_rate">25</property>
  <property name="meta.media.0.stream.sample_aspect_ratio">0</property>
  <property name="meta.media.0.codec.width">1280</property>
  <property name="meta.media.0.codec.height">720</property>
  <property name="meta.media.0.codec.rotate">0</property>
  <property name="meta.media.0.codec.frame_rate">25</property>
  <property name="meta.media.0.codec.pix_fmt">yuvj420p</property>
  <property name="meta.media.0.codec.sample_aspect_ratio">1</property>
  <property name="meta.media.0.codec.colorspace">601</property>
  <property name="meta.media.0.codec.color_trc">4</property>
  <property name="meta.media.0.codec.name">h264</property>
  <property name="meta.media.0.codec.long_name">H.264 / AVC / MPEG-4 AVC / MPEG-4 part 10</property>
  <property name="meta.media.0.codec.bit_rate">11260860</property>
  <property name="meta.attr.0.stream.creation_time.markup">2016-11-11T15:37:33.000000Z</property>
  <property name="meta.attr.0.stream.language.markup">eng</property>
  <property name="meta.media.1.stream.type">audio</property>
  <property name="meta.media.1.codec.sample_fmt">s16</property>
  <property name="meta.media.1.codec.sample_rate">24000</property>
  <property name="meta.media.1.codec.channels">1</property>
  <property name="meta.media.1.codec.name">pcm_s16le</property>
  <property name="meta.media.1.codec.long_name">PCM signed 16-bit little-endian</property>
  <property name="meta.media.1.codec.bit_rate">384000</property>
  <property name="meta.attr.1.stream.creation_time.markup">2016-11-11T15:37:33.000000Z</property>
  <property name="meta.attr.1.stream.language.markup">eng</property>
  <property name="meta.attr.major_brand.markup">qt  </property>
  <property name="meta.attr.minor_version.markup">537331968</property>
  <property name="meta.attr.compatible_brands.markup">qt  niko</property>
  <property name="meta.attr.creation_time.markup">2016-11-11T15:37:33.000000Z</property>
  <property name="seekable">1</property>
  <property name="meta.media.sample_aspect_num">1</property>
  <property name="meta.media.sample_aspect_den">1</property>
  <property name="aspect_ratio">1</property>
  <property name="audio_index">1</property>
  <property name="video_index">0</property>
  <property name="mute_on_pause">1</property>
  <property name="mlt_service">avformat</property>
  <property name="global_feed">1</property>
  <property name="xml">was here</property>
  <property name="meta.media.frame_rate_num">25</property>
  <property name="meta.media.frame_rate_den">1</property>
  <property name="meta.media.colorspace">601</property>
  <property name="meta.media.color_trc">4</property>
  <property name="meta.media.width">1280</property>
  <property name="meta.media.height">720</property>
  <property name="meta.media.top_field_first">0</property>
  <property name="meta.media.progressive">1</property>
 </producer>
 <playlist id="playlist3">
  <property name="kdenlive:track_name">Video 4</property>
  <entry out="78" producer="3_playlist3" in="19">
   <filter id="filter8">
    <property name="version">0,1</property>
    <property name="mlt_service">frei0r.scale0tilt</property>
    <property name="track">0</property>
    <property name="kdenlive_id">frei0r.scale0tilt</property>
    <property name="tag">frei0r.scale0tilt</property>
    <property name="kdenlive_ix">1</property>
    <property name="Clip left">0</property>
    <property name="Clip right">0,212891</property>
    <property name="Clip top">0</property>
    <property name="Clip bottom">0</property>
    <property name="Scale X">0,34</property>
    <property name="Scale Y">0,34</property>
    <property name="Tilt X">0,474609</property>
    <property name="Tilt Y">0,765625</property>
    <property name="kdenlive_info"/>
   </filter>
  </entry>
  <blank length="438"/>
  <entry out="78" producer="3_playlist3" in="19">
   <filter id="filter9">
    <property name="version">0,1</property>
    <property name="mlt_service">frei0r.scale0tilt</property>
    <property name="kdenlive_id">frei0r.scale0tilt</property>
    <property name="tag">frei0r.scale0tilt</property>
    <property name="kdenlive_ix">1</property>
    <property name="kdenlive_info"/>
    <property name="disable"/>
    <property name="Clip left">0</property>
    <property name="Clip right">0,212891</property>
    <property name="Clip top">0</property>
    <property name="Clip bottom">0</property>
    <property name="Scale X">0,34</property>
    <property name="Scale Y">0,34</property>
    <property name="Tilt X">0,474609</property>
    <property name="Tilt Y">0,765625</property>
   </filter>
   <filter id="filter10">
    <property name="version">3,1</property>
    <property name="mlt_service">frei0r.nervous</property>
    <property name="kdenlive_id">frei0r.nervous</property>
    <property name="tag">frei0r.nervous</property>
    <property name="kdenlive_ix">2</property>
   </filter>
  </entry>
  <blank length="33"/>
  <entry out="32" producer="6" in="0"/>
  <entry out="365" producer="2_playlist3" in="339">
   <filter id="filter11">
    <property name="version">0,1</property>
    <property name="mlt_service">frei0r.scale0tilt</property>
    <property name="kdenlive_id">frei0r.scale0tilt</property>
    <property name="tag">frei0r.scale0tilt</property>
    <property name="kdenlive_ix">1</property>
    <property name="kdenlive_info"/>
    <property name="disable"/>
    <property name="Clip left">0,268555</property>
    <property name="Clip right">0</property>
    <property name="Clip top">0</property>
    <property name="Clip bottom">0,317708</property>
    <property name="Scale X">0,35</property>
    <property name="Scale Y">0,35</property>
    <property name="Tilt X">0,658203</property>
    <property name="Tilt Y">0,5</property>
   </filter>
  </entry>
  <entry out="365" producer="2_playlist3" in="336">
   <filter id="filter13">
    <property name="version">0,1</property>
    <property name="mlt_service">frei0r.scale0tilt</property>
    <property name="kdenlive_id">frei0r.scale0tilt</property>
    <property name="tag">frei0r.scale0tilt</property>
    <property name="kdenlive_ix">1</property>
    <property name="kdenlive_info"/>
    <property name="disable"/>
    <property name="Clip left">0,268555</property>
    <property name="Clip right">0</property>
    <property name="Clip top">0</property>
    <property name="Clip bottom">0,317708</property>
    <property name="Scale X">0,35</property>
    <property name="Scale Y">0,35</property>
    <property name="Tilt X">0,658203</property>
    <property name="Tilt Y">0,5</property>
   </filter>
  </entry>
  <entry out="362" producer="2_playlist3" in="336">
   <filter id="filter7">
    <property name="version">0,1</property>
    <property name="mlt_service">frei0r.scale0tilt</property>
    <property name="kdenlive_id">frei0r.scale0tilt</property>
    <property name="tag">frei0r.scale0tilt</property>
    <property name="kdenlive_ix">1</property>
    <property name="kdenlive_info"/>
    <property name="disable"/>
    <property name="Clip left">0,268555</property>
    <property name="Clip right">0</property>
    <property name="Clip top">0</property>
    <property name="Clip bottom">0,317708</property>
    <property name="Scale X">0,35</property>
    <property name="Scale Y">0,35</property>
    <property name="Tilt X">0,658203</property>
    <property name="Tilt Y">0,5</property>
   </filter>
  </entry>
 </playlist>
 <producer id="2_playlist4" title="Anonymous Submission" out="643" in="0">
  <property name="length">644</property>
  <property name="eof">pause</property>
  <property name="resource">DSC_7841.MOV</property>
  <property name="meta.media.nb_streams">2</property>
  <property name="meta.media.0.stream.type">video</property>
  <property name="meta.media.0.stream.frame_rate">25</property>
  <property name="meta.media.0.stream.sample_aspect_ratio">0</property>
  <property name="meta.media.0.codec.width">1280</property>
  <property name="meta.media.0.codec.height">720</property>
  <property name="meta.media.0.codec.rotate">0</property>
  <property name="meta.media.0.codec.frame_rate">25</property>
  <property name="meta.media.0.codec.pix_fmt">yuvj420p</property>
  <property name="meta.media.0.codec.sample_aspect_ratio">1</property>
  <property name="meta.media.0.codec.colorspace">601</property>
  <property name="meta.media.0.codec.color_trc">4</property>
  <property name="meta.media.0.codec.name">h264</property>
  <property name="meta.media.0.codec.long_name">H.264 / AVC / MPEG-4 AVC / MPEG-4 part 10</property>
  <property name="meta.media.0.codec.bit_rate">11260860</property>
  <property name="meta.attr.0.stream.creation_time.markup">2016-11-11T15:37:33.000000Z</property>
  <property name="meta.attr.0.stream.language.markup">eng</property>
  <property name="meta.media.1.stream.type">audio</property>
  <property name="meta.media.1.codec.sample_fmt">s16</property>
  <property name="meta.media.1.codec.sample_rate">24000</property>
  <property name="meta.media.1.codec.channels">1</property>
  <property name="meta.media.1.codec.name">pcm_s16le</property>
  <property name="meta.media.1.codec.long_name">PCM signed 16-bit little-endian</property>
  <property name="meta.media.1.codec.bit_rate">384000</property>
  <property name="meta.attr.1.stream.creation_time.markup">2016-11-11T15:37:33.000000Z</property>
  <property name="meta.attr.1.stream.language.markup">eng</property>
  <property name="meta.attr.major_brand.markup">qt  </property>
  <property name="meta.attr.minor_version.markup">537331968</property>
  <property name="meta.attr.compatible_brands.markup">qt  niko</property>
  <property name="meta.attr.creation_time.markup">2016-11-11T15:37:33.000000Z</property>
  <property name="seekable">1</property>
  <property name="meta.media.sample_aspect_num">1</property>
  <property name="meta.media.sample_aspect_den">1</property>
  <property name="aspect_ratio">1</property>
  <property name="audio_index">1</property>
  <property name="video_index">0</property>
  <property name="mute_on_pause">1</property>
  <property name="mlt_service">avformat</property>
  <property name="meta.media.frame_rate_num">25</property>
  <property name="meta.media.frame_rate_den">1</property>
  <property name="meta.media.colorspace">601</property>
  <property name="meta.media.width">1280</property>
  <property name="meta.media.height">720</property>
  <property name="meta.media.top_field_first">0</property>
  <property name="meta.media.progressive">1</property>
  <property name="meta.media.color_trc">4</property>
  <property name="global_feed">1</property>
 </producer>
 <producer id="1_playlist4" title="Anonymous Submission" out="466" in="0">
  <property name="length">467</property>
  <property name="eof">pause</property>
  <property name="resource">DSC_7840.MOV</property>
  <property name="meta.media.nb_streams">2</property>
  <property name="meta.media.0.stream.type">video</property>
  <property name="meta.media.0.stream.frame_rate">25</property>
  <property name="meta.media.0.stream.sample_aspect_ratio">0</property>
  <property name="meta.media.0.codec.width">1280</property>
  <property name="meta.media.0.codec.height">720</property>
  <property name="meta.media.0.codec.rotate">0</property>
  <property name="meta.media.0.codec.frame_rate">25</property>
  <property name="meta.media.0.codec.pix_fmt">yuvj420p</property>
  <property name="meta.media.0.codec.sample_aspect_ratio">1</property>
  <property name="meta.media.0.codec.colorspace">601</property>
  <property name="meta.media.0.codec.color_trc">4</property>
  <property name="meta.media.0.codec.name">h264</property>
  <property name="meta.media.0.codec.long_name">H.264 / AVC / MPEG-4 AVC / MPEG-4 part 10</property>
  <property name="meta.media.0.codec.bit_rate">10733527</property>
  <property name="meta.attr.0.stream.creation_time.markup">2016-11-11T15:36:54.000000Z</property>
  <property name="meta.attr.0.stream.language.markup">eng</property>
  <property name="meta.media.1.stream.type">audio</property>
  <property name="meta.media.1.codec.sample_fmt">s16</property>
  <property name="meta.media.1.codec.sample_rate">24000</property>
  <property name="meta.media.1.codec.channels">1</property>
  <property name="meta.media.1.codec.name">pcm_s16le</property>
  <property name="meta.media.1.codec.long_name">PCM signed 16-bit little-endian</property>
  <property name="meta.media.1.codec.bit_rate">384000</property>
  <property name="meta.attr.1.stream.creation_time.markup">2016-11-11T15:36:54.000000Z</property>
  <property name="meta.attr.1.stream.language.markup">eng</property>
  <property name="meta.attr.major_brand.markup">qt  </property>
  <property name="meta.attr.minor_version.markup">537331968</property>
  <property name="meta.attr.compatible_brands.markup">qt  niko</property>
  <property name="meta.attr.creation_time.markup">2016-11-11T15:36:54.000000Z</property>
  <property name="seekable">1</property>
  <property name="meta.media.sample_aspect_num">1</property>
  <property name="meta.media.sample_aspect_den">1</property>
  <property name="aspect_ratio">1</property>
  <property name="audio_index">1</property>
  <property name="video_index">0</property>
  <property name="mute_on_pause">1</property>
  <property name="mlt_service">avformat</property>
  <property name="global_feed">1</property>
  <property name="xml">was here</property>
  <property name="meta.media.frame_rate_num">25</property>
  <property name="meta.media.frame_rate_den">1</property>
  <property name="meta.media.colorspace">601</property>
  <property name="meta.media.color_trc">4</property>
  <property name="meta.media.width">1280</property>
  <property name="meta.media.height">720</property>
  <property name="meta.media.top_field_first">0</property>
  <property name="meta.media.progressive">1</property>
 </producer>
 <playlist id="playlist4">
  <property name="kdenlive:track_name">Video 3</property>
  <entry out="365" producer="2_playlist4" in="336">
   <filter id="filter15">
    <property name="version">0,1</property>
    <property name="mlt_service">frei0r.scale0tilt</property>
    <property name="track">0</property>
    <property name="kdenlive_id">frei0r.scale0tilt</property>
    <property name="tag">frei0r.scale0tilt</property>
    <property name="kdenlive_ix">1</property>
    <property name="Clip left">0,268555</property>
    <property name="Clip right">0</property>
    <property name="Clip top">0</property>
    <property name="Clip bottom">0,317708</property>
    <property name="Scale X">0,35</property>
    <property name="Scale Y">0,35</property>
    <property name="Tilt X">0,658203</property>
    <property name="Tilt Y">0,5</property>
    <property name="kdenlive_info"/>
   </filter>
  </entry>
  <entry out="365" producer="2_playlist4" in="336">
   <filter id="filter16">
    <property name="version">0,1</property>
    <property name="mlt_service">frei0r.scale0tilt</property>
    <property name="track">0</property>
    <property name="kdenlive_id">frei0r.scale0tilt</property>
    <property name="tag">frei0r.scale0tilt</property>
    <property name="kdenlive_ix">1</property>
    <property name="kdenlive_info"/>
    <property name="Clip left">0,268555</property>
    <property name="Clip right">0</property>
    <property name="Clip top">0</property>
    <property name="Clip bottom">0,317708</property>
    <property name="Scale X">0,35</property>
    <property name="Scale Y">0,35</property>
    <property name="Tilt X">0,658203</property>
    <property name="Tilt Y">0,5</property>
   </filter>
  </entry>
  <blank length="341"/>
  <entry out="365" producer="2_playlist4" in="336">
   <filter id="filter17">
    <property name="version">0,1</property>
    <property name="mlt_service">frei0r.scale0tilt</property>
    <property name="kdenlive_id">frei0r.scale0tilt</property>
    <property name="tag">frei0r.scale0tilt</property>
    <property name="kdenlive_ix">1</property>
    <property name="kdenlive_info"/>
    <property name="disable"/>
    <property name="Clip left">0,268555</property>
    <property name="Clip right">0</property>
    <property name="Clip top">0</property>
    <property name="Clip bottom">0,317708</property>
    <property name="Scale X">0,35</property>
    <property name="Scale Y">0,35</property>
    <property name="Tilt X">0,658203</property>
    <property name="Tilt Y">0,5</property>
   </filter>
   <filter id="filter18">
    <property name="version">3,1</property>
    <property name="mlt_service">frei0r.nervous</property>
    <property name="kdenlive_id">frei0r.nervous</property>
    <property name="tag">frei0r.nervous</property>
    <property name="kdenlive_ix">2</property>
   </filter>
  </entry>
  <entry out="365" producer="2_playlist4" in="336">
   <filter id="filter19">
    <property name="version">0,1</property>
    <property name="mlt_service">frei0r.scale0tilt</property>
    <property name="kdenlive_id">frei0r.scale0tilt</property>
    <property name="tag">frei0r.scale0tilt</property>
    <property name="kdenlive_ix">1</property>
    <property name="kdenlive_info"/>
    <property name="disable"/>
    <property name="Clip left">0,268555</property>
    <property name="Clip right">0</property>
    <property name="Clip top">0</property>
    <property name="Clip bottom">0,317708</property>
    <property name="Scale X">0,35</property>
    <property name="Scale Y">0,35</property>
    <property name="Tilt X">0,658203</property>
    <property name="Tilt Y">0,5</property>
   </filter>
   <filter id="filter20">
    <property name="version">3,1</property>
    <property name="mlt_service">frei0r.nervous</property>
    <property name="kdenlive_id">frei0r.nervous</property>
    <property name="tag">frei0r.nervous</property>
    <property name="kdenlive_ix">2</property>
   </filter>
  </entry>
  <blank length="130"/>
  <entry out="18" producer="6" in="0"/>
  <entry out="381" producer="1_playlist4" in="341">
   <filter id="filter21">
    <property name="version">0,1</property>
    <property name="mlt_service">frei0r.scale0tilt</property>
    <property name="kdenlive_id">frei0r.scale0tilt</property>
    <property name="tag">frei0r.scale0tilt</property>
    <property name="kdenlive_ix">1</property>
    <property name="kdenlive_info"/>
    <property name="disable"/>
    <property name="Clip left">0,258789</property>
    <property name="Clip right">0</property>
    <property name="Clip top">0</property>
    <property name="Clip bottom">0</property>
    <property name="Scale X">0,4</property>
    <property name="Scale Y">0,4</property>
    <property name="Tilt X">0,643555</property>
    <property name="Tilt Y">0,767361</property>
   </filter>
  </entry>
  <entry out="372" producer="1_playlist4" in="343">
   <filter id="filter23">
    <property name="version">0,1</property>
    <property name="mlt_service">frei0r.scale0tilt</property>
    <property name="kdenlive_id">frei0r.scale0tilt</property>
    <property name="tag">frei0r.scale0tilt</property>
    <property name="kdenlive_ix">1</property>
    <property name="kdenlive_info"/>
    <property name="disable"/>
    <property name="Clip left">0,258789</property>
    <property name="Clip right">0</property>
    <property name="Clip top">0</property>
    <property name="Clip bottom">0</property>
    <property name="Scale X">0,4</property>
    <property name="Scale Y">0,4</property>
    <property name="Tilt X">0,643555</property>
    <property name="Tilt Y">0,767361</property>
   </filter>
  </entry>
  <entry out="369" producer="1_playlist4" in="343">
   <filter id="filter12">
    <property name="version">0,1</property>
    <property name="mlt_service">frei0r.scale0tilt</property>
    <property name="kdenlive_id">frei0r.scale0tilt</property>
    <property name="tag">frei0r.scale0tilt</property>
    <property name="kdenlive_ix">1</property>
    <property name="kdenlive_info"/>
    <property name="disable"/>
    <property name="Clip left">0,258789</property>
    <property name="Clip right">0</property>
    <property name="Clip top">0</property>
    <property name="Clip bottom">0</property>
    <property name="Scale X">0,4</property>
    <property name="Scale Y">0,4</property>
    <property name="Tilt X">0,643555</property>
    <property name="Tilt Y">0,767361</property>
   </filter>
  </entry>
 </playlist>
 <producer id="1_playlist5" out="466" in="0">
  <property name="length">467</property>
  <property name="eof">pause</property>
  <property name="resource">DSC_7840.MOV</property>
  <property name="meta.media.nb_streams">2</property>
  <property name="meta.media.0.stream.type">video</property>
  <property name="meta.media.0.stream.frame_rate">25</property>
  <property name="meta.media.0.stream.sample_aspect_ratio">0</property>
  <property name="meta.media.0.codec.width">1280</property>
  <property name="meta.media.0.codec.height">720</property>
  <property name="meta.media.0.codec.rotate">0</property>
  <property name="meta.media.0.codec.frame_rate">25</property>
  <property name="meta.media.0.codec.pix_fmt">yuvj420p</property>
  <property name="meta.media.0.codec.sample_aspect_ratio">1</property>
  <property name="meta.media.0.codec.colorspace">601</property>
  <property name="meta.media.0.codec.color_trc">4</property>
  <property name="meta.media.0.codec.name">h264</property>
  <property name="meta.media.0.codec.long_name">H.264 / AVC / MPEG-4 AVC / MPEG-4 part 10</property>
  <property name="meta.media.0.codec.bit_rate">10733527</property>
  <property name="meta.attr.0.stream.creation_time.markup">2016-11-11T15:36:54.000000Z</property>
  <property name="meta.attr.0.stream.language.markup">eng</property>
  <property name="meta.media.1.stream.type">audio</property>
  <property name="meta.media.1.codec.sample_fmt">s16</property>
  <property name="meta.media.1.codec.sample_rate">24000</property>
  <property name="meta.media.1.codec.channels">1</property>
  <property name="meta.media.1.codec.name">pcm_s16le</property>
  <property name="meta.media.1.codec.long_name">PCM signed 16-bit little-endian</property>
  <property name="meta.media.1.codec.bit_rate">384000</property>
  <property name="meta.attr.1.stream.creation_time.markup">2016-11-11T15:36:54.000000Z</property>
  <property name="meta.attr.1.stream.language.markup">eng</property>
  <property name="meta.attr.major_brand.markup">qt  </property>
  <property name="meta.attr.minor_version.markup">537331968</property>
  <property name="meta.attr.compatible_brands.markup">qt  niko</property>
  <property name="meta.attr.creation_time.markup">2016-11-11T15:36:54.000000Z</property>
  <property name="seekable">1</property>
  <property name="meta.media.sample_aspect_num">1</property>
  <property name="meta.media.sample_aspect_den">1</property>
  <property name="aspect_ratio">1</property>
  <property name="audio_index">1</property>
  <property name="video_index">0</property>
  <property name="mute_on_pause">1</property>
  <property name="mlt_service">avformat</property>
  <property name="meta.media.frame_rate_num">25</property>
  <property name="meta.media.frame_rate_den">1</property>
  <property name="meta.media.colorspace">601</property>
  <property name="meta.media.width">1280</property>
  <property name="meta.media.height">720</property>
  <property name="meta.media.top_field_first">0</property>
  <property name="meta.media.progressive">1</property>
  <property name="meta.media.color_trc">4</property>
 </producer>
 <playlist id="playlist5">
  <property name="kdenlive:track_name">Video 2</property>
  <entry out="235" producer="1_playlist5" in="176">
   <filter id="filter25">
    <property name="version">0,1</property>
    <property name="mlt_service">frei0r.scale0tilt</property>
    <property name="track">0</property>
    <property name="kdenlive_id">frei0r.scale0tilt</property>
    <property name="tag">frei0r.scale0tilt</property>
    <property name="kdenlive_ix">1</property>
    <property name="Clip left">0</property>
    <property name="Clip right">0,364258</property>
    <property name="Clip top">0</property>
    <property name="Clip bottom">0,402778</property>
    <property name="Scale X">0,4</property>
    <property name="Scale Y">0,4</property>
    <property name="Tilt X">0,482422</property>
    <property name="Tilt Y">0,505208</property>
    <property name="kdenlive_info"/>
   </filter>
  </entry>
  <blank length="104"/>
  <entry out="235" producer="1_playlist5" in="176">
   <filter id="filter26">
    <property name="version">0,1</property>
    <property name="mlt_service">frei0r.scale0tilt</property>
    <property name="kdenlive_id">frei0r.scale0tilt</property>
    <property name="tag">frei0r.scale0tilt</property>
    <property name="kdenlive_ix">1</property>
    <property name="kdenlive_info"/>
    <property name="disable"/>
    <property name="Clip left">0</property>
    <property name="Clip right">0,364258</property>
    <property name="Clip top">0</property>
    <property name="Clip bottom">0,402778</property>
    <property name="Scale X">0,4</property>
    <property name="Scale Y">0,4</property>
    <property name="Tilt X">0,482422</property>
    <property name="Tilt Y">0,505208</property>
   </filter>
   <filter id="filter27">
    <property name="version">3,1</property>
    <property name="mlt_service">frei0r.nervous</property>
    <property name="kdenlive_id">frei0r.nervous</property>
    <property name="tag">frei0r.nervous</property>
    <property name="kdenlive_ix">2</property>
    <property name="disable">0</property>
   </filter>
   <filter id="chroma">
    <property name="key">0x0f6f91ff</property>
    <property name="variance">0,133</property>
    <property name="mlt_service">chroma</property>
    <property name="kdenlive_id">chroma</property>
    <property name="tag">chroma</property>
    <property name="kdenlive_ix">3</property>
    <property name="kdenlive_info"/>
    <property name="disable">1</property>
   </filter>
   <filter id="greyscale">
    <property name="mlt_service">greyscale</property>
    <property name="kdenlive_id">greyscale</property>
    <property name="tag">greyscale</property>
    <property name="kdenlive_ix">4</property>
   </filter>
  </entry>
  <blank length="367"/>
  <entry out="235" producer="1_playlist5" in="176">
   <filter id="filter28">
    <property name="version">0,1</property>
    <property name="mlt_service">frei0r.scale0tilt</property>
    <property name="kdenlive_id">frei0r.scale0tilt</property>
    <property name="tag">frei0r.scale0tilt</property>
    <property name="kdenlive_ix">1</property>
    <property name="kdenlive_info"/>
    <property name="disable"/>
    <property name="Clip left">0</property>
    <property name="Clip right">0,364258</property>
    <property name="Clip top">0</property>
    <property name="Clip bottom">0,402778</property>
    <property name="Scale X">0,4</property>
    <property name="Scale Y">0,4</property>
    <property name="Tilt X">0,482422</property>
    <property name="Tilt Y">0,505208</property>
   </filter>
  </entry>
  <entry out="232" producer="1_playlist5" in="176">
   <filter id="filter30">
    <property name="version">0,1</property>
    <property name="mlt_service">frei0r.scale0tilt</property>
    <property name="kdenlive_id">frei0r.scale0tilt</property>
    <property name="tag">frei0r.scale0tilt</property>
    <property name="kdenlive_ix">1</property>
    <property name="kdenlive_info"/>
    <property name="disable"/>
    <property name="Clip left">0</property>
    <property name="Clip right">0,364258</property>
    <property name="Clip top">0</property>
    <property name="Clip bottom">0,402778</property>
    <property name="Scale X">0,4</property>
    <property name="Scale Y">0,4</property>
    <property name="Tilt X">0,482422</property>
    <property name="Tilt Y">0,505208</property>
   </filter>
  </entry>
 </playlist>
 <playlist id="playlist6">
  <property name="kdenlive:track_name">Video 1</property>
  <entry out="59" producer="4" in="0"/>
  <blank length="104"/>
  <entry out="59" producer="4" in="0"/>
  <blank length="54"/>
  <entry out="59" producer="4" in="0"/>
  <blank length="63"/>
  <entry out="59" producer="4" in="0"/>
  <blank length="37"/>
  <entry out="59" producer="4" in="0"/>
  <blank length="33"/>
  <entry out="116" producer="4" in="0"/>
 </playlist>
 <tractor id="maintractor" title="Anonymous Submission" global_feed="1" out="708" in="0">
  <property name="meta.volume">1</property>
  <track producer="black_track"/>
  <track producer="playlist1" hide="video"/>
  <track producer="playlist2" hide="video"/>
  <track producer="playlist0" hide="audio"/>
  <track producer="playlist3" hide="audio"/>
  <track producer="playlist4" hide="audio"/>
  <track producer="playlist5" hide="audio"/>
  <track producer="playlist6" hide="audio"/>
  <transition id="transition0">
   <property name="a_track">1</property>
   <property name="b_track">2</property>
   <property name="mlt_service">mix</property>
   <property name="always_active">1</property>
   <property name="combine">1</property>
   <property name="internal_added">237</property>
  </transition>
  <transition id="transition1">
   <property name="a_track">1</property>
   <property name="b_track">3</property>
   <property name="mlt_service">mix</property>
   <property name="always_active">1</property>
   <property name="combine">1</property>
   <property name="internal_added">237</property>
  </transition>
  <transition id="transition2">
   <property name="a_track">1</property>
   <property name="b_track">4</property>
   <property name="mlt_service">mix</property>
   <property name="always_active">1</property>
   <property name="combine">1</property>
   <property name="internal_added">237</property>
  </transition>
  <transition id="transition3">
   <property name="a_track">1</property>
   <property name="b_track">5</property>
   <property name="mlt_service">mix</property>
   <property name="always_active">1</property>
   <property name="combine">1</property>
   <property name="internal_added">237</property>
  </transition>
  <transition id="transition4">
   <property name="a_track">1</property>
   <property name="b_track">6</property>
   <property name="mlt_service">mix</property>
   <property name="always_active">1</property>
   <property name="internal_added">237</property>
   <property name="combine">1</property>
  </transition>
  <transition id="transition5">
   <property name="a_track">1</property>
   <property name="b_track">7</property>
   <property name="mlt_service">mix</property>
   <property name="always_active">1</property>
   <property name="internal_added">237</property>
   <property name="combine">1</property>
  </transition>
  <transition id="transition6" out="223" in="164">
   <property name="a_track">6</property>
   <property name="b_track">7</property>
   <property name="version">0,2</property>
   <property name="mlt_service">frei0r.alphain</property>
   <property name="automatic">1</property>
   <property name="force_track">1</property>
  </transition>
  <transition id="transition7" out="59" in="-1">
   <property name="a_track">5</property>
   <property name="b_track">6</property>
   <property name="factory">loader</property>
   <property name="resource"/>
   <property name="mlt_service">region</property>
   <property name="automatic">1</property>
   <property name="kdenlive_id">region</property>
   <property name="force_track">1</property>
   <property name="composite.aligned">1</property>
   <property name="composite.deinterlace">0</property>
   <property name="composite.distort">0</property>
   <property name="composite.fill">1</property>
   <property name="composite.geometry">0%/0%:100%x100%:100</property>
   <property name="composite.luma_invert">0</property>
   <property name="composite.operator">over</property>
   <property name="composite.progressive">1</property>
   <property name="composite.softness">0</property>
   <property name="composite.luma"/>
  </transition>
  <transition id="transition8" out="707" in="591">
   <property name="a_track">5</property>
   <property name="b_track">6</property>
   <property name="factory">loader</property>
   <property name="resource"/>
   <property name="mlt_service">region</property>
   <property name="automatic">1</property>
   <property name="kdenlive_id">region</property>
   <property name="force_track">1</property>
   <property name="composite.aligned">1</property>
   <property name="composite.deinterlace">0</property>
   <property name="composite.distort">0</property>
   <property name="composite.fill">1</property>
   <property name="composite.geometry">0%/0%:100%x100%:100</property>
   <property name="composite.luma_invert">0</property>
   <property name="composite.operator">over</property>
   <property name="composite.progressive">1</property>
   <property name="composite.softness">0</property>
   <property name="composite.luma"/>
  </transition>
  <transition id="transition9" out="460" in="401">
   <property name="a_track">5</property>
   <property name="b_track">7</property>
   <property name="version">0,2</property>
   <property name="mlt_service">frei0r.alphain</property>
   <property name="automatic">1</property>
   <property name="force_track">1</property>
  </transition>
  <transition id="transition10" out="59">
   <property name="a_track">4</property>
   <property name="b_track">5</property>
   <property name="factory">loader</property>
   <property name="resource">/home/nicolas/rectangle</property>
   <property name="mlt_service">region</property>
   <property name="automatic">1</property>
   <property name="kdenlive_id">region</property>
   <property name="force_track">1</property>
   <property name="composite.aligned">1</property>
   <property name="composite.deinterlace">0</property>
   <property name="composite.distort">0</property>
   <property name="composite.fill">1</property>
   <property name="composite.geometry">0%/0%:100%x100%:100</property>
   <property name="composite.luma_invert">0</property>
   <property name="composite.operator">over</property>
   <property name="composite.progressive">1</property>
   <property name="composite.softness">0</property>
   <property name="composite.luma"/>
  </transition>
  <transition id="transition11" out="707" in="590">
   <property name="a_track">4</property>
   <property name="b_track">5</property>
   <property name="factory">loader</property>
   <property name="resource">/home/nicolas/rectangle</property>
   <property name="mlt_service">region</property>
   <property name="automatic">1</property>
   <property name="kdenlive_id">region</property>
   <property name="force_track">1</property>
   <property name="composite.aligned">1</property>
   <property name="composite.deinterlace">0</property>
   <property name="composite.distort">0</property>
   <property name="composite.fill">1</property>
   <property name="composite.geometry">0%/0%:100%x100%:100</property>
   <property name="composite.luma_invert">0</property>
   <property name="composite.operator">over</property>
   <property name="composite.progressive">1</property>
   <property name="composite.softness">0</property>
   <property name="composite.luma"/>
  </transition>
  <transition id="transition12" out="557" in="498">
   <property name="a_track">4</property>
   <property name="b_track">7</property>
   <property name="version">0,2</property>
   <property name="mlt_service">frei0r.alphain</property>
   <property name="automatic">1</property>
   <property name="force_track">1</property>
  </transition>
  <transition id="transition13" out="59">
   <property name="a_track">3</property>
   <property name="b_track">4</property>
   <property name="factory">loader</property>
   <property name="resource"/>
   <property name="mlt_service">region</property>
   <property name="automatic">1</property>
   <property name="kdenlive_id">region</property>
   <property name="force_track">1</property>
   <property name="composite.aligned">1</property>
   <property name="composite.deinterlace">0</property>
   <property name="composite.distort">0</property>
   <property name="composite.fill">1</property>
   <property name="composite.geometry">0%/0%:100%x100%:100</property>
   <property name="composite.luma_invert">0</property>
   <property name="composite.operator">over</property>
   <property name="composite.progressive">1</property>
   <property name="composite.softness">0</property>
   <property name="composite.luma"/>
  </transition>
  <transition id="transition14" out="707" in="590">
   <property name="a_track">3</property>
   <property name="b_track">4</property>
   <property name="factory">loader</property>
   <property name="resource"/>
   <property name="mlt_service">region</property>
   <property name="automatic">1</property>
   <property name="kdenlive_id">region</property>
   <property name="force_track">1</property>
   <property name="composite.aligned">1</property>
   <property name="composite.deinterlace">0</property>
   <property name="composite.distort">0</property>
   <property name="composite.fill">1</property>
   <property name="composite.geometry">0%/0%:100%x100%:100</property>
   <property name="composite.luma_invert">0</property>
   <property name="composite.operator">over</property>
   <property name="composite.progressive">1</property>
   <property name="composite.softness">0</property>
   <property name="composite.luma"/>
  </transition>
  <transition id="transition15" out="59">
   <property name="a_track">3</property>
   <property name="b_track">7</property>
   <property name="version">0,1</property>
   <property name="mlt_service">frei0r.alphain</property>
   <property name="automatic">1</property>
   <property name="force_track">1</property>
  </transition>
  <transition id="transition16" out="337" in="278">
   <property name="a_track">3</property>
   <property name="b_track">7</property>
   <property name="version">0,2</property>
   <property name="mlt_service">frei0r.alphain</property>
   <property name="automatic">1</property>
   <property name="force_track">1</property>
  </transition>
  <transition id="transition17" out="707" in="590">
   <property name="a_track">3</property>
   <property name="b_track">7</property>
   <property name="version">0,2</property>
   <property name="mlt_service">frei0r.alphain</property>
   <property name="automatic">1</property>
   <property name="force_track">1</property>
  </transition>
 </tractor>
</mlt>
