<?xml version='1.0' encoding='utf-8'?>
<mlt title="Anonymous Submission" version="0.9.2" root="/home/nicolas" LC_NUMERIC="fr_FR.UTF-8">
 <profile width="1280" display_aspect_den="9" colorspace="709" frame_rate_den="1" description="HD 720p 25 fps" height="720" display_aspect_num="16" frame_rate_num="25" progressive="1" sample_aspect_num="1" sample_aspect_den="1"/>
 <producer in="0" out="61739" id="black">
  <property name="mlt_type">producer</property>
  <property name="length">61740</property>
  <property name="eof">pause</property>
  <property name="resource">black</property>
  <property name="aspect_ratio">0</property>
  <property name="mlt_service">colour</property>
 </producer>
 <playlist id="black_track">
  <entry in="0" out="24375" producer="black"/>
 </playlist>
 <playlist id="playlist1"/>
 <playlist id="playlist2"/>
 <playlist id="playlist0"/>
 <producer in="0" out="720" id="80">
  <property name="mlt_type">producer</property>
  <property name="length">721</property>
  <property name="eof">pause</property>
  <property name="resource">Documents/Projets Musique/Barons Freaks/COURTS METRAGES - MAIN/COURTS METRAGES/anim pr√©sentation/anim_01/.all.png</property>
  <property name="ttl">1</property>
  <property name="aspect_ratio">1</property>
  <property name="progressive">1</property>
  <property name="seekable">1</property>
  <property name="loop">1</property>
  <property name="meta.media.width">1080</property>
  <property name="meta.media.height">607</property>
  <property name="mlt_service">pixbuf</property>
 </producer>
 <producer in="0" out="457" id="slowmotion:10_2:0,75">
  <property name="mlt_type">producer</property>
  <property name="length">458</property>
  <property name="eof">pause</property>
  <property name="resource">Documents/Projets Musique/Barons Freaks/COURTS METRAGES - MAIN/COURTS METRAGES/EpisodeIII/DSC_0023.MOV?0,75</property>
  <property name="aspect_ratio">1</property>
  <property name="mlt_service">framebuffer</property>
  <property name="strobe">1</property>
 </producer>
 <playlist id="playlist3">
  <entry in="0" out="326" producer="80">
   <filter out="13" id="fade_from_black">
    <property name="track">0</property>
    <property name="start">0</property>
    <property name="mlt_type">filter</property>
    <property name="mlt_service">brightness</property>
    <property name="kdenlive_id">fade_from_black</property>
    <property name="tag">brightness</property>
    <property name="kdenlive_ix">1</property>
    <property name="end">1</property>
    <property name="kdenlive_info"/>
   </filter>
   <filter in="310" out="326" id="fade_to_black">
    <property name="track">0</property>
    <property name="start">1</property>
    <property name="mlt_type">filter</property>
    <property name="mlt_service">brightness</property>
    <property name="kdenlive_id">fade_to_black</property>
    <property name="tag">brightness</property>
    <property name="kdenlive_ix">2</property>
    <property name="end">0</property>
    <property name="kdenlive_info"/>
   </filter>
   <filter id="frei0r.scale0tilt">
    <property name="track">0</property>
    <property name="version">0,1</property>
    <property name="mlt_type">filter</property>
    <property name="mlt_service">frei0r.scale0tilt</property>
    <property name="kdenlive_id">frei0r.scale0tilt</property>
    <property name="tag">frei0r.scale0tilt</property>
    <property name="kdenlive_ix">3</property>
    <property name="Clip left">0</property>
    <property name="Clip right">0</property>
    <property name="Clip top">0</property>
    <property name="Clip bottom">0</property>
    <property name="Scale X">0,5</property>
    <property name="Scale Y">0,5</property>
    <property name="Tilt X">0,516406</property>
    <property name="Tilt Y">0,5</property>
    <property name="kdenlive_info">0/-1/</property>
   </filter>
  </entry>
  <blank length="16524"/>
  <entry in="324" out="371" producer="slowmotion:10_2:0,75">
   <filter id="filter4">
    <property name="track">0</property>
    <property name="version">0,1</property>
    <property name="mlt_type">filter</property>
    <property name="mlt_service">frei0r.scale0tilt</property>
    <property name="kdenlive_id">frei0r.scale0tilt</property>
    <property name="tag">frei0r.scale0tilt</property>
    <property name="kdenlive_ix">1</property>
    <property name="Clip left">0</property>
    <property name="Clip right">0</property>
    <property name="Clip top">0</property>
    <property name="Clip bottom">0</property>
    <property name="Scale X">0,5</property>
    <property name="Scale Y">0,5</property>
    <property name="Tilt X">0,379688</property>
    <property name="Tilt Y">0,529167</property>
    <property name="kdenlive_info"/>
    <property name="disable">0</property>
   </filter>
  </entry>
 </playlist>
 <producer in="0" out="124" id="81">
  <property name="mlt_type">producer</property>
  <property name="length">125</property>
  <property name="eof">pause</property>
  <property name="resource">Documents/Projets Musique/Barons Freaks/COURTS METRAGES - MAIN/COURTS METRAGES/EpisodeIII/panneaux/titre1.png</property>
  <property name="ttl">25</property>
  <property name="aspect_ratio">1</property>
  <property name="progressive">1</property>
  <property name="seekable">1</property>
  <property name="loop">1</property>
  <property name="meta.media.width">1053</property>
  <property name="meta.media.height">745</property>
  <property name="mlt_service">pixbuf</property>
 </producer>
 <producer in="0" out="124" id="82">
  <property name="mlt_type">producer</property>
  <property name="length">125</property>
  <property name="eof">pause</property>
  <property name="resource">Documents/Projets Musique/Barons Freaks/COURTS METRAGES - MAIN/COURTS METRAGES/EpisodeIII/panneaux/titre ep3.png</property>
  <property name="ttl">25</property>
  <property name="aspect_ratio">1</property>
  <property name="progressive">1</property>
  <property name="seekable">1</property>
  <property name="loop">1</property>
  <property name="meta.media.width">1053</property>
  <property name="meta.media.height">745</property>
  <property name="mlt_service">pixbuf</property>
 </producer>
 <producer in="0" out="170" id="72">
  <property name="mlt_type">producer</property>
  <property name="length">171</property>
  <property name="eof">pause</property>
  <property name="resource">Documents/Projets Musique/Barons Freaks/COURTS METRAGES - MAIN/COURTS METRAGES/EpisodeIII/panneaux/alors que les barons enflamment le public.png</property>
  <property name="ttl">25</property>
  <property name="aspect_ratio">1</property>
  <property name="progressive">1</property>
  <property name="seekable">1</property>
  <property name="loop">1</property>
  <property name="meta.media.width">1280</property>
  <property name="meta.media.height">720</property>
  <property name="mlt_service">pixbuf</property>
 </producer>
 <producer in="0" out="2761" id="56_1">
  <property name="mlt_type">producer</property>
  <property name="length">2762</property>
  <property name="eof">pause</property>
  <property name="resource">Documents/Projets Musique/Barons Freaks/COURTS METRAGES - MAIN/COURTS METRAGES/EpisodeIII/DSC_0004.MOV</property>
  <property name="meta.media.nb_streams">2</property>
  <property name="meta.media.0.stream.type">video</property>
  <property name="meta.media.0.stream.frame_rate">25</property>
  <property name="meta.media.0.stream.sample_aspect_ratio">0</property>
  <property name="meta.media.0.codec.width">1280</property>
  <property name="meta.media.0.codec.height">720</property>
  <property name="meta.media.0.codec.frame_rate">25</property>
  <property name="meta.media.0.codec.pix_fmt">yuvj420p</property>
  <property name="meta.media.0.codec.sample_aspect_ratio">1</property>
  <property name="meta.media.0.codec.colorspace">601</property>
  <property name="meta.media.0.codec.name">h264</property>
  <property name="meta.media.0.codec.long_name">H.264 / AVC / MPEG-4 AVC / MPEG-4 part 10</property>
  <property name="meta.media.0.codec.bit_rate">10171758</property>
  <property name="meta.attr.0.stream.creation_time.markup">2017-02-10 13:32:39</property>
  <property name="meta.attr.0.stream.language.markup">eng</property>
  <property name="meta.media.1.stream.type">audio</property>
  <property name="meta.media.1.codec.sample_fmt">s16</property>
  <property name="meta.media.1.codec.sample_rate">24000</property>
  <property name="meta.media.1.codec.channels">1</property>
  <property name="meta.media.1.codec.name">pcm_s16le</property>
  <property name="meta.media.1.codec.long_name">PCM signed 16-bit little-endian</property>
  <property name="meta.media.1.codec.bit_rate">0</property>
  <property name="meta.attr.1.stream.creation_time.markup">2017-02-10 13:32:39</property>
  <property name="meta.attr.1.stream.language.markup">eng</property>
  <property name="meta.attr.major_brand.markup">qt  </property>
  <property name="meta.attr.minor_version.markup">537331968</property>
  <property name="meta.attr.compatible_brands.markup">qt  niko</property>
  <property name="meta.attr.creation_time.markup">2017-02-10 13:32:39</property>
  <property name="seekable">1</property>
  <property name="meta.media.sample_aspect_num">1</property>
  <property name="meta.media.sample_aspect_den">1</property>
  <property name="aspect_ratio">1</property>
  <property name="audio_index">1</property>
  <property name="video_index">0</property>
  <property name="mlt_service">avformat</property>
  <property name="meta.media.frame_rate_num">25</property>
  <property name="meta.media.frame_rate_den">1</property>
  <property name="meta.media.colorspace">601</property>
  <property name="meta.media.width">1280</property>
  <property name="meta.media.height">720</property>
  <property name="meta.media.top_field_first">0</property>
  <property name="meta.media.progressive">1</property>
 </producer>
 <producer in="0" out="124" id="59">
  <property name="mlt_type">producer</property>
  <property name="length">125</property>
  <property name="eof">pause</property>
  <property name="resource">Documents/Projets Musique/Barons Freaks/COURTS METRAGES - MAIN/COURTS METRAGES/EpisodeIII/panneaux/Au fait il va falloir penser √† payer votre loyer.png</property>
  <property name="ttl">25</property>
  <property name="aspect_ratio">1</property>
  <property name="progressive">1</property>
  <property name="seekable">1</property>
  <property name="loop">1</property>
  <property name="meta.media.width">1280</property>
  <property name="meta.media.height">720</property>
  <property name="mlt_service">pixbuf</property>
 </producer>
 <producer in="0" out="292" id="57_1">
  <property name="mlt_type">producer</property>
  <property name="length">293</property>
  <property name="eof">pause</property>
  <property name="resource">Documents/Projets Musique/Barons Freaks/COURTS METRAGES - MAIN/COURTS METRAGES/EpisodeIII/DSC_0006.MOV</property>
  <property name="meta.media.nb_streams">2</property>
  <property name="meta.media.0.stream.type">video</property>
  <property name="meta.media.0.stream.frame_rate">25</property>
  <property name="meta.media.0.stream.sample_aspect_ratio">0</property>
  <property name="meta.media.0.codec.width">1280</property>
  <property name="meta.media.0.codec.height">720</property>
  <property name="meta.media.0.codec.frame_rate">25</property>
  <property name="meta.media.0.codec.pix_fmt">yuvj420p</property>
  <property name="meta.media.0.codec.sample_aspect_ratio">1</property>
  <property name="meta.media.0.codec.colorspace">601</property>
  <property name="meta.media.0.codec.name">h264</property>
  <property name="meta.media.0.codec.long_name">H.264 / AVC / MPEG-4 AVC / MPEG-4 part 10</property>
  <property name="meta.media.0.codec.bit_rate">10297497</property>
  <property name="meta.attr.0.stream.creation_time.markup">2017-02-10 13:36:42</property>
  <property name="meta.attr.0.stream.language.markup">eng</property>
  <property name="meta.media.1.stream.type">audio</property>
  <property name="meta.media.1.codec.sample_fmt">s16</property>
  <property name="meta.media.1.codec.sample_rate">24000</property>
  <property name="meta.media.1.codec.channels">1</property>
  <property name="meta.media.1.codec.name">pcm_s16le</property>
  <property name="meta.media.1.codec.long_name">PCM signed 16-bit little-endian</property>
  <property name="meta.media.1.codec.bit_rate">0</property>
  <property name="meta.attr.1.stream.creation_time.markup">2017-02-10 13:36:42</property>
  <property name="meta.attr.1.stream.language.markup">eng</property>
  <property name="meta.attr.major_brand.markup">qt  </property>
  <property name="meta.attr.minor_version.markup">537331968</property>
  <property name="meta.attr.compatible_brands.markup">qt  niko</property>
  <property name="meta.attr.creation_time.markup">2017-02-10 13:36:42</property>
  <property name="seekable">1</property>
  <property name="meta.media.sample_aspect_num">1</property>
  <property name="meta.media.sample_aspect_den">1</property>
  <property name="aspect_ratio">1</property>
  <property name="audio_index">1</property>
  <property name="video_index">0</property>
  <property name="mlt_service">avformat</property>
  <property name="meta.media.frame_rate_num">25</property>
  <property name="meta.media.frame_rate_den">1</property>
  <property name="meta.media.colorspace">601</property>
  <property name="meta.media.width">1280</property>
  <property name="meta.media.height">720</property>
  <property name="meta.media.top_field_first">0</property>
  <property name="meta.media.progressive">1</property>
 </producer>
 <producer in="0" out="124" id="62">
  <property name="mlt_type">producer</property>
  <property name="length">125</property>
  <property name="eof">pause</property>
  <property name="resource">Documents/Projets Musique/Barons Freaks/COURTS METRAGES - MAIN/COURTS METRAGES/EpisodeIII/panneaux/vous n'avez pas d'argent.png</property>
  <property name="ttl">25</property>
  <property name="aspect_ratio">1</property>
  <property name="progressive">1</property>
  <property name="seekable">1</property>
  <property name="loop">1</property>
  <property name="meta.media.width">1280</property>
  <property name="meta.media.height">720</property>
  <property name="mlt_service">pixbuf</property>
 </producer>
 <producer in="0" out="124" id="61">
  <property name="mlt_type">producer</property>
  <property name="length">125</property>
  <property name="eof">pause</property>
  <property name="resource">Documents/Projets Musique/Barons Freaks/COURTS METRAGES - MAIN/COURTS METRAGES/EpisodeIII/panneaux/il faut que vous trouviez un travail.png</property>
  <property name="ttl">25</property>
  <property name="aspect_ratio">1</property>
  <property name="progressive">1</property>
  <property name="seekable">1</property>
  <property name="loop">1</property>
  <property name="meta.media.width">1280</property>
  <property name="meta.media.height">720</property>
  <property name="mlt_service">pixbuf</property>
 </producer>
 <producer in="0" out="124" id="60">
  <property name="mlt_type">producer</property>
  <property name="length">125</property>
  <property name="eof">pause</property>
  <property name="resource">Documents/Projets Musique/Barons Freaks/COURTS METRAGES - MAIN/COURTS METRAGES/EpisodeIII/panneaux/allez √† cette adresse.png</property>
  <property name="ttl">25</property>
  <property name="aspect_ratio">1</property>
  <property name="progressive">1</property>
  <property name="seekable">1</property>
  <property name="loop">1</property>
  <property name="meta.media.width">1280</property>
  <property name="meta.media.height">720</property>
  <property name="mlt_service">pixbuf</property>
 </producer>
 <producer in="0" out="304" id="58_1">
  <property name="mlt_type">producer</property>
  <property name="length">305</property>
  <property name="eof">pause</property>
  <property name="resource">Documents/Projets Musique/Barons Freaks/COURTS METRAGES - MAIN/COURTS METRAGES/EpisodeIII/Sources/Videos/stevo-jobs/DSC_0037.MOV</property>
  <property name="meta.media.nb_streams">2</property>
  <property name="meta.media.0.stream.type">video</property>
  <property name="meta.media.0.stream.frame_rate">25</property>
  <property name="meta.media.0.stream.sample_aspect_ratio">0</property>
  <property name="meta.media.0.codec.width">1280</property>
  <property name="meta.media.0.codec.height">720</property>
  <property name="meta.media.0.codec.frame_rate">25</property>
  <property name="meta.media.0.codec.pix_fmt">yuvj420p</property>
  <property name="meta.media.0.codec.sample_aspect_ratio">1</property>
  <property name="meta.media.0.codec.colorspace">601</property>
  <property name="meta.media.0.codec.name">h264</property>
  <property name="meta.media.0.codec.long_name">H.264 / AVC / MPEG-4 AVC / MPEG-4 part 10</property>
  <property name="meta.media.0.codec.bit_rate">11099990</property>
  <property name="meta.attr.0.stream.creation_time.markup">2016-11-24 15:32:09</property>
  <property name="meta.attr.0.stream.language.markup">eng</property>
  <property name="meta.media.1.stream.type">audio</property>
  <property name="meta.media.1.codec.sample_fmt">s16</property>
  <property name="meta.media.1.codec.sample_rate">24000</property>
  <property name="meta.media.1.codec.channels">1</property>
  <property name="meta.media.1.codec.name">pcm_s16le</property>
  <property name="meta.media.1.codec.long_name">PCM signed 16-bit little-endian</property>
  <property name="meta.media.1.codec.bit_rate">0</property>
  <property name="meta.attr.1.stream.creation_time.markup">2016-11-24 15:32:09</property>
  <property name="meta.attr.1.stream.language.markup">eng</property>
  <property name="meta.attr.major_brand.markup">qt  </property>
  <property name="meta.attr.minor_version.markup">537331968</property>
  <property name="meta.attr.compatible_brands.markup">qt  niko</property>
  <property name="meta.attr.creation_time.markup">2016-11-24 15:32:09</property>
  <property name="seekable">1</property>
  <property name="meta.media.sample_aspect_num">1</property>
  <property name="meta.media.sample_aspect_den">1</property>
  <property name="aspect_ratio">1</property>
  <property name="audio_index">1</property>
  <property name="video_index">0</property>
  <property name="mlt_service">avformat</property>
  <property name="meta.media.frame_rate_num">25</property>
  <property name="meta.media.frame_rate_den">1</property>
  <property name="meta.media.colorspace">601</property>
  <property name="meta.media.width">1280</property>
  <property name="meta.media.height">720</property>
  <property name="meta.media.top_field_first">0</property>
  <property name="meta.media.progressive">1</property>
 </producer>
 <producer in="0" out="589" id="slowmotion:43:1,1">
  <property name="mlt_type">producer</property>
  <property name="length">590</property>
  <property name="eof">pause</property>
  <property name="resource">Documents/Projets Musique/Barons Freaks/COURTS METRAGES - MAIN/COURTS METRAGES/EpisodeIII/Sources/Videos/stevo-jobs/hall.mp4?1,1</property>
  <property name="aspect_ratio">1</property>
  <property name="mlt_service">framebuffer</property>
 </producer>
 <producer in="0" out="574" id="slowmotion:44:1,2">
  <property name="mlt_type">producer</property>
  <property name="length">575</property>
  <property name="eof">pause</property>
  <property name="resource">Documents/Projets Musique/Barons Freaks/COURTS METRAGES - MAIN/COURTS METRAGES/EpisodeIII/Sources/Videos/stevo-jobs/entree.mp4?1,2</property>
  <property name="aspect_ratio">1</property>
  <property name="mlt_service">framebuffer</property>
  <property name="strobe">1</property>
 </producer>
 <producer in="0" out="637" id="45_1">
  <property name="mlt_type">producer</property>
  <property name="length">638</property>
  <property name="eof">pause</property>
  <property name="resource">Documents/Projets Musique/Barons Freaks/COURTS METRAGES - MAIN/COURTS METRAGES/EpisodeIII/Sources/Videos/stevo-jobs/DSC_0014.MOV</property>
  <property name="meta.media.nb_streams">2</property>
  <property name="meta.media.0.stream.type">video</property>
  <property name="meta.media.0.stream.frame_rate">25</property>
  <property name="meta.media.0.stream.sample_aspect_ratio">0</property>
  <property name="meta.media.0.codec.width">1280</property>
  <property name="meta.media.0.codec.height">720</property>
  <property name="meta.media.0.codec.frame_rate">25</property>
  <property name="meta.media.0.codec.pix_fmt">yuvj420p</property>
  <property name="meta.media.0.codec.sample_aspect_ratio">1</property>
  <property name="meta.media.0.codec.colorspace">601</property>
  <property name="meta.media.0.codec.name">h264</property>
  <property name="meta.media.0.codec.long_name">H.264 / AVC / MPEG-4 AVC / MPEG-4 part 10</property>
  <property name="meta.media.0.codec.bit_rate">10702049</property>
  <property name="meta.attr.0.stream.creation_time.markup">2016-11-24 14:51:53</property>
  <property name="meta.attr.0.stream.language.markup">eng</property>
  <property name="meta.media.1.stream.type">audio</property>
  <property name="meta.media.1.codec.sample_fmt">s16</property>
  <property name="meta.media.1.codec.sample_rate">24000</property>
  <property name="meta.media.1.codec.channels">1</property>
  <property name="meta.media.1.codec.name">pcm_s16le</property>
  <property name="meta.media.1.codec.long_name">PCM signed 16-bit little-endian</property>
  <property name="meta.media.1.codec.bit_rate">0</property>
  <property name="meta.attr.1.stream.creation_time.markup">2016-11-24 14:51:53</property>
  <property name="meta.attr.1.stream.language.markup">eng</property>
  <property name="meta.attr.major_brand.markup">qt  </property>
  <property name="meta.attr.minor_version.markup">537331968</property>
  <property name="meta.attr.compatible_brands.markup">qt  niko</property>
  <property name="meta.attr.creation_time.markup">2016-11-24 14:51:53</property>
  <property name="seekable">1</property>
  <property name="meta.media.sample_aspect_num">1</property>
  <property name="meta.media.sample_aspect_den">1</property>
  <property name="aspect_ratio">1</property>
  <property name="audio_index">1</property>
  <property name="video_index">0</property>
  <property name="mlt_service">avformat</property>
  <property name="meta.media.frame_rate_num">25</property>
  <property name="meta.media.frame_rate_den">1</property>
  <property name="meta.media.colorspace">601</property>
  <property name="meta.media.width">1280</property>
  <property name="meta.media.height">720</property>
  <property name="meta.media.top_field_first">0</property>
  <property name="meta.media.progressive">1</property>
 </producer>
 <producer in="0" out="10810" id="42_1">
  <property name="mlt_type">producer</property>
  <property name="length">10811</property>
  <property name="eof">pause</property>
  <property name="resource">Documents/Projets Musique/Barons Freaks/COURTS METRAGES - MAIN/COURTS METRAGES/EpisodeIII/Sources/Videos/stevo-jobs/DSC_0010.MOV</property>
  <property name="meta.media.nb_streams">2</property>
  <property name="meta.media.0.stream.type">video</property>
  <property name="meta.media.0.stream.frame_rate">25</property>
  <property name="meta.media.0.stream.sample_aspect_ratio">0</property>
  <property name="meta.media.0.codec.width">1280</property>
  <property name="meta.media.0.codec.height">720</property>
  <property name="meta.media.0.codec.frame_rate">25</property>
  <property name="meta.media.0.codec.pix_fmt">yuvj420p</property>
  <property name="meta.media.0.codec.sample_aspect_ratio">1</property>
  <property name="meta.media.0.codec.colorspace">601</property>
  <property name="meta.media.0.codec.name">h264</property>
  <property name="meta.media.0.codec.long_name">H.264 / AVC / MPEG-4 AVC / MPEG-4 part 10</property>
  <property name="meta.media.0.codec.bit_rate">10159649</property>
  <property name="meta.attr.0.stream.creation_time.markup">2016-11-24 13:10:30</property>
  <property name="meta.attr.0.stream.language.markup">eng</property>
  <property name="meta.media.1.stream.type">audio</property>
  <property name="meta.media.1.codec.sample_fmt">s16</property>
  <property name="meta.media.1.codec.sample_rate">24000</property>
  <property name="meta.media.1.codec.channels">1</property>
  <property name="meta.media.1.codec.name">pcm_s16le</property>
  <property name="meta.media.1.codec.long_name">PCM signed 16-bit little-endian</property>
  <property name="meta.media.1.codec.bit_rate">0</property>
  <property name="meta.attr.1.stream.creation_time.markup">2016-11-24 13:10:30</property>
  <property name="meta.attr.1.stream.language.markup">eng</property>
  <property name="meta.attr.major_brand.markup">qt  </property>
  <property name="meta.attr.minor_version.markup">537331968</property>
  <property name="meta.attr.compatible_brands.markup">qt  niko</property>
  <property name="meta.attr.creation_time.markup">2016-11-24 13:10:30</property>
  <property name="seekable">1</property>
  <property name="meta.media.sample_aspect_num">1</property>
  <property name="meta.media.sample_aspect_den">1</property>
  <property name="aspect_ratio">1</property>
  <property name="audio_index">1</property>
  <property name="video_index">0</property>
  <property name="mlt_service">avformat</property>
  <property name="meta.media.frame_rate_num">25</property>
  <property name="meta.media.frame_rate_den">1</property>
  <property name="meta.media.colorspace">601</property>
  <property name="meta.media.width">1280</property>
  <property name="meta.media.height">720</property>
  <property name="meta.media.top_field_first">0</property>
  <property name="meta.media.progressive">1</property>
 </producer>
 <producer in="0" out="334" id="46_1">
  <property name="mlt_type">producer</property>
  <property name="length">335</property>
  <property name="eof">pause</property>
  <property name="resource">Documents/Projets Musique/Barons Freaks/COURTS METRAGES - MAIN/COURTS METRAGES/EpisodeIII/Sources/Videos/stevo-jobs/DSC_0016.MOV</property>
  <property name="meta.media.nb_streams">2</property>
  <property name="meta.media.0.stream.type">video</property>
  <property name="meta.media.0.stream.frame_rate">25</property>
  <property name="meta.media.0.stream.sample_aspect_ratio">0</property>
  <property name="meta.media.0.codec.width">1280</property>
  <property name="meta.media.0.codec.height">720</property>
  <property name="meta.media.0.codec.frame_rate">25</property>
  <property name="meta.media.0.codec.pix_fmt">yuvj420p</property>
  <property name="meta.media.0.codec.sample_aspect_ratio">1</property>
  <property name="meta.media.0.codec.colorspace">601</property>
  <property name="meta.media.0.codec.name">h264</property>
  <property name="meta.media.0.codec.long_name">H.264 / AVC / MPEG-4 AVC / MPEG-4 part 10</property>
  <property name="meta.media.0.codec.bit_rate">10431108</property>
  <property name="meta.attr.0.stream.creation_time.markup">2016-11-24 14:53:02</property>
  <property name="meta.attr.0.stream.language.markup">eng</property>
  <property name="meta.media.1.stream.type">audio</property>
  <property name="meta.media.1.codec.sample_fmt">s16</property>
  <property name="meta.media.1.codec.sample_rate">24000</property>
  <property name="meta.media.1.codec.channels">1</property>
  <property name="meta.media.1.codec.name">pcm_s16le</property>
  <property name="meta.media.1.codec.long_name">PCM signed 16-bit little-endian</property>
  <property name="meta.media.1.codec.bit_rate">0</property>
  <property name="meta.attr.1.stream.creation_time.markup">2016-11-24 14:53:02</property>
  <property name="meta.attr.1.stream.language.markup">eng</property>
  <property name="meta.attr.major_brand.markup">qt  </property>
  <property name="meta.attr.minor_version.markup">537331968</property>
  <property name="meta.attr.compatible_brands.markup">qt  niko</property>
  <property name="meta.attr.creation_time.markup">2016-11-24 14:53:02</property>
  <property name="seekable">1</property>
  <property name="meta.media.sample_aspect_num">1</property>
  <property name="meta.media.sample_aspect_den">1</property>
  <property name="aspect_ratio">1</property>
  <property name="audio_index">1</property>
  <property name="video_index">0</property>
  <property name="mlt_service">avformat</property>
  <property name="meta.media.frame_rate_num">25</property>
  <property name="meta.media.frame_rate_den">1</property>
  <property name="meta.media.colorspace">601</property>
  <property name="meta.media.width">1280</property>
  <property name="meta.media.height">720</property>
  <property name="meta.media.top_field_first">0</property>
  <property name="meta.media.progressive">1</property>
 </producer>
 <producer in="0" out="124" id="69">
  <property name="mlt_type">producer</property>
  <property name="length">125</property>
  <property name="eof">pause</property>
  <property name="resource">Documents/Projets Musique/Barons Freaks/COURTS METRAGES - MAIN/COURTS METRAGES/EpisodeIII/panneaux/bien s√ªr j'ai s√ªrement l'emploi qu'il vous faut.png</property>
  <property name="ttl">25</property>
  <property name="aspect_ratio">1</property>
  <property name="progressive">1</property>
  <property name="seekable">1</property>
  <property name="loop">1</property>
  <property name="meta.media.width">1280</property>
  <property name="meta.media.height">720</property>
  <property name="mlt_service">pixbuf</property>
 </producer>
 <producer in="0" out="205" id="47_1">
  <property name="mlt_type">producer</property>
  <property name="length">206</property>
  <property name="eof">pause</property>
  <property name="resource">Documents/Projets Musique/Barons Freaks/COURTS METRAGES - MAIN/COURTS METRAGES/EpisodeIII/Sources/Videos/stevo-jobs/DSC_0028.MOV</property>
  <property name="meta.media.nb_streams">2</property>
  <property name="meta.media.0.stream.type">video</property>
  <property name="meta.media.0.stream.frame_rate">25</property>
  <property name="meta.media.0.stream.sample_aspect_ratio">0</property>
  <property name="meta.media.0.codec.width">1280</property>
  <property name="meta.media.0.codec.height">720</property>
  <property name="meta.media.0.codec.frame_rate">25</property>
  <property name="meta.media.0.codec.pix_fmt">yuvj420p</property>
  <property name="meta.media.0.codec.sample_aspect_ratio">1</property>
  <property name="meta.media.0.codec.colorspace">601</property>
  <property name="meta.media.0.codec.name">h264</property>
  <property name="meta.media.0.codec.long_name">H.264 / AVC / MPEG-4 AVC / MPEG-4 part 10</property>
  <property name="meta.media.0.codec.bit_rate">10386906</property>
  <property name="meta.attr.0.stream.creation_time.markup">2016-11-24 15:17:44</property>
  <property name="meta.attr.0.stream.language.markup">eng</property>
  <property name="meta.media.1.stream.type">audio</property>
  <property name="meta.media.1.codec.sample_fmt">s16</property>
  <property name="meta.media.1.codec.sample_rate">24000</property>
  <property name="meta.media.1.codec.channels">1</property>
  <property name="meta.media.1.codec.name">pcm_s16le</property>
  <property name="meta.media.1.codec.long_name">PCM signed 16-bit little-endian</property>
  <property name="meta.media.1.codec.bit_rate">0</property>
  <property name="meta.attr.1.stream.creation_time.markup">2016-11-24 15:17:44</property>
  <property name="meta.attr.1.stream.language.markup">eng</property>
  <property name="meta.attr.major_brand.markup">qt  </property>
  <property name="meta.attr.minor_version.markup">537331968</property>
  <property name="meta.attr.compatible_brands.markup">qt  niko</property>
  <property name="meta.attr.creation_time.markup">2016-11-24 15:17:44</property>
  <property name="seekable">1</property>
  <property name="meta.media.sample_aspect_num">1</property>
  <property name="meta.media.sample_aspect_den">1</property>
  <property name="aspect_ratio">1</property>
  <property name="audio_index">1</property>
  <property name="video_index">0</property>
  <property name="mlt_service">avformat</property>
  <property name="meta.media.frame_rate_num">25</property>
  <property name="meta.media.frame_rate_den">1</property>
  <property name="meta.media.colorspace">601</property>
  <property name="meta.media.width">1280</property>
  <property name="meta.media.height">720</property>
  <property name="meta.media.top_field_first">0</property>
  <property name="meta.media.progressive">1</property>
 </producer>
 <producer in="0" out="2839" id="49_1">
  <property name="mlt_type">producer</property>
  <property name="length">2840</property>
  <property name="eof">pause</property>
  <property name="resource">Documents/Projets Musique/Barons Freaks/COURTS METRAGES - MAIN/COURTS METRAGES/EpisodeIII/Sources/Videos/stevo-jobs/DSC_0022.MOV</property>
  <property name="meta.media.nb_streams">2</property>
  <property name="meta.media.0.stream.type">video</property>
  <property name="meta.media.0.stream.frame_rate">25</property>
  <property name="meta.media.0.stream.sample_aspect_ratio">0</property>
  <property name="meta.media.0.codec.width">1280</property>
  <property name="meta.media.0.codec.height">720</property>
  <property name="meta.media.0.codec.frame_rate">25</property>
  <property name="meta.media.0.codec.pix_fmt">yuvj420p</property>
  <property name="meta.media.0.codec.sample_aspect_ratio">1</property>
  <property name="meta.media.0.codec.colorspace">601</property>
  <property name="meta.media.0.codec.name">h264</property>
  <property name="meta.media.0.codec.long_name">H.264 / AVC / MPEG-4 AVC / MPEG-4 part 10</property>
  <property name="meta.media.0.codec.bit_rate">10831997</property>
  <property name="meta.attr.0.stream.creation_time.markup">2016-11-24 15:06:48</property>
  <property name="meta.attr.0.stream.language.markup">eng</property>
  <property name="meta.media.1.stream.type">audio</property>
  <property name="meta.media.1.codec.sample_fmt">s16</property>
  <property name="meta.media.1.codec.sample_rate">24000</property>
  <property name="meta.media.1.codec.channels">1</property>
  <property name="meta.media.1.codec.name">pcm_s16le</property>
  <property name="meta.media.1.codec.long_name">PCM signed 16-bit little-endian</property>
  <property name="meta.media.1.codec.bit_rate">0</property>
  <property name="meta.attr.1.stream.creation_time.markup">2016-11-24 15:06:48</property>
  <property name="meta.attr.1.stream.language.markup">eng</property>
  <property name="meta.attr.major_brand.markup">qt  </property>
  <property name="meta.attr.minor_version.markup">537331968</property>
  <property name="meta.attr.compatible_brands.markup">qt  niko</property>
  <property name="meta.attr.creation_time.markup">2016-11-24 15:06:48</property>
  <property name="seekable">1</property>
  <property name="meta.media.sample_aspect_num">1</property>
  <property name="meta.media.sample_aspect_den">1</property>
  <property name="aspect_ratio">1</property>
  <property name="audio_index">1</property>
  <property name="video_index">0</property>
  <property name="mlt_service">avformat</property>
  <property name="meta.media.frame_rate_num">25</property>
  <property name="meta.media.frame_rate_den">1</property>
  <property name="meta.media.colorspace">601</property>
  <property name="meta.media.width">1280</property>
  <property name="meta.media.height">720</property>
  <property name="meta.media.top_field_first">0</property>
  <property name="meta.media.progressive">1</property>
 </producer>
 <producer in="0" out="9399" id="slowmotion:42_1:1,15">
  <property name="mlt_type">producer</property>
  <property name="length">9400</property>
  <property name="eof">pause</property>
  <property name="resource">Documents/Projets Musique/Barons Freaks/COURTS METRAGES - MAIN/COURTS METRAGES/EpisodeIII/Sources/Videos/stevo-jobs/DSC_0010.MOV?1,15</property>
  <property name="aspect_ratio">1</property>
  <property name="mlt_service">framebuffer</property>
 </producer>
 <producer in="0" out="124" id="74">
  <property name="mlt_type">producer</property>
  <property name="length">125</property>
  <property name="eof">pause</property>
  <property name="resource">Documents/Projets Musique/Barons Freaks/COURTS METRAGES - MAIN/COURTS METRAGES/EpisodeIII/panneaux/vous appr√©ciez s√ªrement le bon air du large.png</property>
  <property name="ttl">25</property>
  <property name="aspect_ratio">1</property>
  <property name="progressive">1</property>
  <property name="seekable">1</property>
  <property name="loop">1</property>
  <property name="meta.media.width">1280</property>
  <property name="meta.media.height">720</property>
  <property name="mlt_service">pixbuf</property>
 </producer>
 <producer in="0" out="5308" id="slowmotion:48_1:1,1">
  <property name="mlt_type">producer</property>
  <property name="length">5309</property>
  <property name="eof">pause</property>
  <property name="resource">Documents/Projets Musique/Barons Freaks/COURTS METRAGES - MAIN/COURTS METRAGES/EpisodeIII/Sources/Videos/stevo-jobs/DSC_0020.MOV?1,1</property>
  <property name="aspect_ratio">1</property>
  <property name="mlt_service">framebuffer</property>
 </producer>
 <producer in="0" out="124" id="66">
  <property name="mlt_type">producer</property>
  <property name="length">125</property>
  <property name="eof">pause</property>
  <property name="resource">Documents/Projets Musique/Barons Freaks/COURTS METRAGES - MAIN/COURTS METRAGES/EpisodeIII/panneaux/nous ne pouvons pas accepter n'importe quel travail.png</property>
  <property name="ttl">25</property>
  <property name="aspect_ratio">1</property>
  <property name="progressive">1</property>
  <property name="seekable">1</property>
  <property name="loop">1</property>
  <property name="meta.media.width">1280</property>
  <property name="meta.media.height">720</property>
  <property name="mlt_service">pixbuf</property>
 </producer>
 <producer in="0" out="1264" id="50_1">
  <property name="mlt_type">producer</property>
  <property name="length">1265</property>
  <property name="eof">pause</property>
  <property name="resource">Documents/Projets Musique/Barons Freaks/COURTS METRAGES - MAIN/COURTS METRAGES/EpisodeIII/Sources/Videos/stevo-jobs/DSC_0025.MOV</property>
  <property name="meta.media.nb_streams">2</property>
  <property name="meta.media.0.stream.type">video</property>
  <property name="meta.media.0.stream.frame_rate">25</property>
  <property name="meta.media.0.stream.sample_aspect_ratio">0</property>
  <property name="meta.media.0.codec.width">1280</property>
  <property name="meta.media.0.codec.height">720</property>
  <property name="meta.media.0.codec.frame_rate">25</property>
  <property name="meta.media.0.codec.pix_fmt">yuvj420p</property>
  <property name="meta.media.0.codec.sample_aspect_ratio">1</property>
  <property name="meta.media.0.codec.colorspace">601</property>
  <property name="meta.media.0.codec.name">h264</property>
  <property name="meta.media.0.codec.long_name">H.264 / AVC / MPEG-4 AVC / MPEG-4 part 10</property>
  <property name="meta.media.0.codec.bit_rate">11065875</property>
  <property name="meta.attr.0.stream.creation_time.markup">2016-11-24 15:14:37</property>
  <property name="meta.attr.0.stream.language.markup">eng</property>
  <property name="meta.media.1.stream.type">audio</property>
  <property name="meta.media.1.codec.sample_fmt">s16</property>
  <property name="meta.media.1.codec.sample_rate">24000</property>
  <property name="meta.media.1.codec.channels">1</property>
  <property name="meta.media.1.codec.name">pcm_s16le</property>
  <property name="meta.media.1.codec.long_name">PCM signed 16-bit little-endian</property>
  <property name="meta.media.1.codec.bit_rate">0</property>
  <property name="meta.attr.1.stream.creation_time.markup">2016-11-24 15:14:37</property>
  <property name="meta.attr.1.stream.language.markup">eng</property>
  <property name="meta.attr.major_brand.markup">qt  </property>
  <property name="meta.attr.minor_version.markup">537331968</property>
  <property name="meta.attr.compatible_brands.markup">qt  niko</property>
  <property name="meta.attr.creation_time.markup">2016-11-24 15:14:37</property>
  <property name="seekable">1</property>
  <property name="meta.media.sample_aspect_num">1</property>
  <property name="meta.media.sample_aspect_den">1</property>
  <property name="aspect_ratio">1</property>
  <property name="audio_index">1</property>
  <property name="video_index">0</property>
  <property name="mlt_service">avformat</property>
  <property name="meta.media.frame_rate_num">25</property>
  <property name="meta.media.frame_rate_den">1</property>
  <property name="meta.media.colorspace">601</property>
  <property name="meta.media.width">1280</property>
  <property name="meta.media.height">720</property>
  <property name="meta.media.top_field_first">0</property>
  <property name="meta.media.progressive">1</property>
 </producer>
 <producer in="0" out="370" id="51_1">
  <property name="mlt_type">producer</property>
  <property name="length">371</property>
  <property name="eof">pause</property>
  <property name="resource">Documents/Projets Musique/Barons Freaks/COURTS METRAGES - MAIN/COURTS METRAGES/EpisodeIII/Sources/Videos/stevo-jobs/DSC_0038.MOV</property>
  <property name="meta.media.nb_streams">2</property>
  <property name="meta.media.0.stream.type">video</property>
  <property name="meta.media.0.stream.frame_rate">25</property>
  <property name="meta.media.0.stream.sample_aspect_ratio">0</property>
  <property name="meta.media.0.codec.width">1280</property>
  <property name="meta.media.0.codec.height">720</property>
  <property name="meta.media.0.codec.frame_rate">25</property>
  <property name="meta.media.0.codec.pix_fmt">yuvj420p</property>
  <property name="meta.media.0.codec.sample_aspect_ratio">1</property>
  <property name="meta.media.0.codec.colorspace">601</property>
  <property name="meta.media.0.codec.name">h264</property>
  <property name="meta.media.0.codec.long_name">H.264 / AVC / MPEG-4 AVC / MPEG-4 part 10</property>
  <property name="meta.media.0.codec.bit_rate">10714197</property>
  <property name="meta.attr.0.stream.creation_time.markup">2016-11-24 15:39:39</property>
  <property name="meta.attr.0.stream.language.markup">eng</property>
  <property name="meta.media.1.stream.type">audio</property>
  <property name="meta.media.1.codec.sample_fmt">s16</property>
  <property name="meta.media.1.codec.sample_rate">24000</property>
  <property name="meta.media.1.codec.channels">1</property>
  <property name="meta.media.1.codec.name">pcm_s16le</property>
  <property name="meta.media.1.codec.long_name">PCM signed 16-bit little-endian</property>
  <property name="meta.media.1.codec.bit_rate">0</property>
  <property name="meta.attr.1.stream.creation_time.markup">2016-11-24 15:39:39</property>
  <property name="meta.attr.1.stream.language.markup">eng</property>
  <property name="meta.attr.major_brand.markup">qt  </property>
  <property name="meta.attr.minor_version.markup">537331968</property>
  <property name="meta.attr.compatible_brands.markup">qt  niko</property>
  <property name="meta.attr.creation_time.markup">2016-11-24 15:39:39</property>
  <property name="seekable">1</property>
  <property name="meta.media.sample_aspect_num">1</property>
  <property name="meta.media.sample_aspect_den">1</property>
  <property name="aspect_ratio">1</property>
  <property name="audio_index">1</property>
  <property name="video_index">0</property>
  <property name="mlt_service">avformat</property>
  <property name="meta.media.frame_rate_num">25</property>
  <property name="meta.media.frame_rate_den">1</property>
  <property name="meta.media.colorspace">601</property>
  <property name="meta.media.width">1280</property>
  <property name="meta.media.height">720</property>
  <property name="meta.media.top_field_first">0</property>
  <property name="meta.media.progressive">1</property>
 </producer>
 <producer in="0" out="124" id="67">
  <property name="mlt_type">producer</property>
  <property name="length">125</property>
  <property name="eof">pause</property>
  <property name="resource">Documents/Projets Musique/Barons Freaks/COURTS METRAGES - MAIN/COURTS METRAGES/EpisodeIII/panneaux/il ne nous reste plus que quelques formalit√©s.png</property>
  <property name="ttl">25</property>
  <property name="aspect_ratio">1</property>
  <property name="progressive">1</property>
  <property name="seekable">1</property>
  <property name="loop">1</property>
  <property name="meta.media.width">1280</property>
  <property name="meta.media.height">720</property>
  <property name="mlt_service">pixbuf</property>
 </producer>
 <producer in="0" out="2155" id="53_1">
  <property name="mlt_type">producer</property>
  <property name="length">2156</property>
  <property name="eof">pause</property>
  <property name="resource">Documents/Projets Musique/Barons Freaks/COURTS METRAGES - MAIN/COURTS METRAGES/EpisodeIII/Sources/Videos/stevo-jobs/DSC_0017.MOV</property>
  <property name="meta.media.nb_streams">2</property>
  <property name="meta.media.0.stream.type">video</property>
  <property name="meta.media.0.stream.frame_rate">25</property>
  <property name="meta.media.0.stream.sample_aspect_ratio">0</property>
  <property name="meta.media.0.codec.width">1280</property>
  <property name="meta.media.0.codec.height">720</property>
  <property name="meta.media.0.codec.frame_rate">25</property>
  <property name="meta.media.0.codec.pix_fmt">yuvj420p</property>
  <property name="meta.media.0.codec.sample_aspect_ratio">1</property>
  <property name="meta.media.0.codec.colorspace">601</property>
  <property name="meta.media.0.codec.name">h264</property>
  <property name="meta.media.0.codec.long_name">H.264 / AVC / MPEG-4 AVC / MPEG-4 part 10</property>
  <property name="meta.media.0.codec.bit_rate">10661020</property>
  <property name="meta.attr.0.stream.creation_time.markup">2016-11-24 14:55:22</property>
  <property name="meta.attr.0.stream.language.markup">eng</property>
  <property name="meta.media.1.stream.type">audio</property>
  <property name="meta.media.1.codec.sample_fmt">s16</property>
  <property name="meta.media.1.codec.sample_rate">24000</property>
  <property name="meta.media.1.codec.channels">1</property>
  <property name="meta.media.1.codec.name">pcm_s16le</property>
  <property name="meta.media.1.codec.long_name">PCM signed 16-bit little-endian</property>
  <property name="meta.media.1.codec.bit_rate">0</property>
  <property name="meta.attr.1.stream.creation_time.markup">2016-11-24 14:55:22</property>
  <property name="meta.attr.1.stream.language.markup">eng</property>
  <property name="meta.attr.major_brand.markup">qt  </property>
  <property name="meta.attr.minor_version.markup">537331968</property>
  <property name="meta.attr.compatible_brands.markup">qt  niko</property>
  <property name="meta.attr.creation_time.markup">2016-11-24 14:55:22</property>
  <property name="seekable">1</property>
  <property name="meta.media.sample_aspect_num">1</property>
  <property name="meta.media.sample_aspect_den">1</property>
  <property name="aspect_ratio">1</property>
  <property name="audio_index">1</property>
  <property name="video_index">0</property>
  <property name="mlt_service">avformat</property>
  <property name="meta.media.frame_rate_num">25</property>
  <property name="meta.media.frame_rate_den">1</property>
  <property name="meta.media.colorspace">601</property>
  <property name="meta.media.width">1280</property>
  <property name="meta.media.height">720</property>
  <property name="meta.media.top_field_first">0</property>
  <property name="meta.media.progressive">1</property>
 </producer>
 <producer in="0" out="9827" id="slowmotion:42_1:1,1">
  <property name="mlt_type">producer</property>
  <property name="length">9828</property>
  <property name="eof">pause</property>
  <property name="resource">Documents/Projets Musique/Barons Freaks/COURTS METRAGES - MAIN/COURTS METRAGES/EpisodeIII/Sources/Videos/stevo-jobs/DSC_0010.MOV?1,1</property>
  <property name="aspect_ratio">1</property>
  <property name="mlt_service">framebuffer</property>
 </producer>
 <producer in="0" out="1657" id="slowmotion:53_1:1,3">
  <property name="mlt_type">producer</property>
  <property name="length">1658</property>
  <property name="eof">pause</property>
  <property name="resource">Documents/Projets Musique/Barons Freaks/COURTS METRAGES - MAIN/COURTS METRAGES/EpisodeIII/Sources/Videos/stevo-jobs/DSC_0017.MOV?1,3</property>
  <property name="aspect_ratio">1</property>
  <property name="mlt_service">framebuffer</property>
  <property name="strobe">1</property>
 </producer>
 <producer in="0" out="256" id="54_1">
  <property name="mlt_type">producer</property>
  <property name="length">257</property>
  <property name="eof">pause</property>
  <property name="resource">Documents/Projets Musique/Barons Freaks/COURTS METRAGES - MAIN/COURTS METRAGES/EpisodeIII/Sources/Videos/stevo-jobs/DSC_0036.MOV</property>
  <property name="meta.media.nb_streams">2</property>
  <property name="meta.media.0.stream.type">video</property>
  <property name="meta.media.0.stream.frame_rate">25</property>
  <property name="meta.media.0.stream.sample_aspect_ratio">0</property>
  <property name="meta.media.0.codec.width">1280</property>
  <property name="meta.media.0.codec.height">720</property>
  <property name="meta.media.0.codec.frame_rate">25</property>
  <property name="meta.media.0.codec.pix_fmt">yuvj420p</property>
  <property name="meta.media.0.codec.sample_aspect_ratio">1</property>
  <property name="meta.media.0.codec.colorspace">601</property>
  <property name="meta.media.0.codec.name">h264</property>
  <property name="meta.media.0.codec.long_name">H.264 / AVC / MPEG-4 AVC / MPEG-4 part 10</property>
  <property name="meta.media.0.codec.bit_rate">10935344</property>
  <property name="meta.attr.0.stream.creation_time.markup">2016-11-24 15:29:20</property>
  <property name="meta.attr.0.stream.language.markup">eng</property>
  <property name="meta.media.1.stream.type">audio</property>
  <property name="meta.media.1.codec.sample_fmt">s16</property>
  <property name="meta.media.1.codec.sample_rate">24000</property>
  <property name="meta.media.1.codec.channels">1</property>
  <property name="meta.media.1.codec.name">pcm_s16le</property>
  <property name="meta.media.1.codec.long_name">PCM signed 16-bit little-endian</property>
  <property name="meta.media.1.codec.bit_rate">0</property>
  <property name="meta.attr.1.stream.creation_time.markup">2016-11-24 15:29:20</property>
  <property name="meta.attr.1.stream.language.markup">eng</property>
  <property name="meta.attr.major_brand.markup">qt  </property>
  <property name="meta.attr.minor_version.markup">537331968</property>
  <property name="meta.attr.compatible_brands.markup">qt  niko</property>
  <property name="meta.attr.creation_time.markup">2016-11-24 15:29:20</property>
  <property name="seekable">1</property>
  <property name="meta.media.sample_aspect_num">1</property>
  <property name="meta.media.sample_aspect_den">1</property>
  <property name="aspect_ratio">1</property>
  <property name="audio_index">1</property>
  <property name="video_index">0</property>
  <property name="mlt_service">avformat</property>
  <property name="meta.media.frame_rate_num">25</property>
  <property name="meta.media.frame_rate_den">1</property>
  <property name="meta.media.colorspace">601</property>
  <property name="meta.media.width">1280</property>
  <property name="meta.media.height">720</property>
  <property name="meta.media.top_field_first">0</property>
  <property name="meta.media.progressive">1</property>
 </producer>
 <producer in="0" out="124" id="68">
  <property name="mlt_type">producer</property>
  <property name="length">125</property>
  <property name="eof">pause</property>
  <property name="resource">Documents/Projets Musique/Barons Freaks/COURTS METRAGES - MAIN/COURTS METRAGES/EpisodeIII/panneaux/si vous voulez bien signer le contrat.png</property>
  <property name="ttl">25</property>
  <property name="aspect_ratio">1</property>
  <property name="progressive">1</property>
  <property name="seekable">1</property>
  <property name="loop">1</property>
  <property name="meta.media.width">1280</property>
  <property name="meta.media.height">720</property>
  <property name="mlt_service">pixbuf</property>
 </producer>
 <producer in="0" out="2482" id="55_1">
  <property name="mlt_type">producer</property>
  <property name="length">2483</property>
  <property name="eof">pause</property>
  <property name="resource">Documents/Projets Musique/Barons Freaks/COURTS METRAGES - MAIN/COURTS METRAGES/EpisodeIII/Sources/Videos/stevo-jobs/DSC_0030.MOV</property>
  <property name="meta.media.nb_streams">2</property>
  <property name="meta.media.0.stream.type">video</property>
  <property name="meta.media.0.stream.frame_rate">25</property>
  <property name="meta.media.0.stream.sample_aspect_ratio">0</property>
  <property name="meta.media.0.codec.width">1280</property>
  <property name="meta.media.0.codec.height">720</property>
  <property name="meta.media.0.codec.frame_rate">25</property>
  <property name="meta.media.0.codec.pix_fmt">yuvj420p</property>
  <property name="meta.media.0.codec.sample_aspect_ratio">1</property>
  <property name="meta.media.0.codec.colorspace">601</property>
  <property name="meta.media.0.codec.name">h264</property>
  <property name="meta.media.0.codec.long_name">H.264 / AVC / MPEG-4 AVC / MPEG-4 part 10</property>
  <property name="meta.media.0.codec.bit_rate">10825770</property>
  <property name="meta.attr.0.stream.creation_time.markup">2016-11-24 15:20:19</property>
  <property name="meta.attr.0.stream.language.markup">eng</property>
  <property name="meta.media.1.stream.type">audio</property>
  <property name="meta.media.1.codec.sample_fmt">s16</property>
  <property name="meta.media.1.codec.sample_rate">24000</property>
  <property name="meta.media.1.codec.channels">1</property>
  <property name="meta.media.1.codec.name">pcm_s16le</property>
  <property name="meta.media.1.codec.long_name">PCM signed 16-bit little-endian</property>
  <property name="meta.media.1.codec.bit_rate">0</property>
  <property name="meta.attr.1.stream.creation_time.markup">2016-11-24 15:20:19</property>
  <property name="meta.attr.1.stream.language.markup">eng</property>
  <property name="meta.attr.major_brand.markup">qt  </property>
  <property name="meta.attr.minor_version.markup">537331968</property>
  <property name="meta.attr.compatible_brands.markup">qt  niko</property>
  <property name="meta.attr.creation_time.markup">2016-11-24 15:20:19</property>
  <property name="seekable">1</property>
  <property name="meta.media.sample_aspect_num">1</property>
  <property name="meta.media.sample_aspect_den">1</property>
  <property name="aspect_ratio">1</property>
  <property name="audio_index">1</property>
  <property name="video_index">0</property>
  <property name="mlt_service">avformat</property>
  <property name="meta.media.frame_rate_num">25</property>
  <property name="meta.media.frame_rate_den">1</property>
  <property name="meta.media.colorspace">601</property>
  <property name="meta.media.width">1280</property>
  <property name="meta.media.height">720</property>
  <property name="meta.media.top_field_first">0</property>
  <property name="meta.media.progressive">1</property>
 </producer>
 <producer in="0" out="1083" id="84_1">
  <property name="mlt_type">producer</property>
  <property name="length">1084</property>
  <property name="eof">pause</property>
  <property name="resource">Documents/Projets Musique/Barons Freaks/COURTS METRAGES - MAIN/COURTS METRAGES/EpisodeIII/Sources/Videos/Damien 2/DSC_0006.MOV</property>
  <property name="meta.media.nb_streams">2</property>
  <property name="meta.media.0.stream.type">video</property>
  <property name="meta.media.0.stream.frame_rate">23,976</property>
  <property name="meta.media.0.stream.sample_aspect_ratio">0</property>
  <property name="meta.media.0.codec.width">1920</property>
  <property name="meta.media.0.codec.height">1080</property>
  <property name="meta.media.0.codec.frame_rate">23,976</property>
  <property name="meta.media.0.codec.pix_fmt">yuvj420p</property>
  <property name="meta.media.0.codec.sample_aspect_ratio">1</property>
  <property name="meta.media.0.codec.colorspace">601</property>
  <property name="meta.media.0.codec.name">h264</property>
  <property name="meta.media.0.codec.long_name">H.264 / AVC / MPEG-4 AVC / MPEG-4 part 10</property>
  <property name="meta.media.0.codec.bit_rate">19980434</property>
  <property name="meta.attr.0.stream.creation_time.markup">2017-05-04 19:51:57</property>
  <property name="meta.attr.0.stream.language.markup">eng</property>
  <property name="meta.media.1.stream.type">audio</property>
  <property name="meta.media.1.codec.sample_fmt">s16</property>
  <property name="meta.media.1.codec.sample_rate">24000</property>
  <property name="meta.media.1.codec.channels">1</property>
  <property name="meta.media.1.codec.name">pcm_s16le</property>
  <property name="meta.media.1.codec.long_name">PCM signed 16-bit little-endian</property>
  <property name="meta.media.1.codec.bit_rate">0</property>
  <property name="meta.attr.1.stream.creation_time.markup">2017-05-04 19:51:57</property>
  <property name="meta.attr.1.stream.language.markup">eng</property>
  <property name="meta.attr.major_brand.markup">qt  </property>
  <property name="meta.attr.minor_version.markup">537331968</property>
  <property name="meta.attr.compatible_brands.markup">qt  niko</property>
  <property name="meta.attr.creation_time.markup">2017-05-04 19:51:57</property>
  <property name="seekable">1</property>
  <property name="meta.media.sample_aspect_num">1</property>
  <property name="meta.media.sample_aspect_den">1</property>
  <property name="aspect_ratio">1</property>
  <property name="audio_index">1</property>
  <property name="video_index">0</property>
  <property name="mlt_service">avformat</property>
  <property name="meta.media.frame_rate_num">24000</property>
  <property name="meta.media.frame_rate_den">1001</property>
  <property name="meta.media.colorspace">601</property>
  <property name="meta.media.width">1920</property>
  <property name="meta.media.height">1080</property>
  <property name="meta.media.top_field_first">0</property>
  <property name="meta.media.progressive">1</property>
 </producer>
 <producer in="0" out="213" id="85_1">
  <property name="mlt_type">producer</property>
  <property name="length">214</property>
  <property name="eof">pause</property>
  <property name="resource">Documents/Projets Musique/Barons Freaks/COURTS METRAGES - MAIN/COURTS METRAGES/EpisodeIII/Sources/Videos/Damien 2/DSC_0013.MOV</property>
  <property name="meta.media.nb_streams">2</property>
  <property name="meta.media.0.stream.type">video</property>
  <property name="meta.media.0.stream.frame_rate">23,976</property>
  <property name="meta.media.0.stream.sample_aspect_ratio">0</property>
  <property name="meta.media.0.codec.width">1920</property>
  <property name="meta.media.0.codec.height">1080</property>
  <property name="meta.media.0.codec.frame_rate">23,976</property>
  <property name="meta.media.0.codec.pix_fmt">yuvj420p</property>
  <property name="meta.media.0.codec.sample_aspect_ratio">1</property>
  <property name="meta.media.0.codec.colorspace">601</property>
  <property name="meta.media.0.codec.name">h264</property>
  <property name="meta.media.0.codec.long_name">H.264 / AVC / MPEG-4 AVC / MPEG-4 part 10</property>
  <property name="meta.media.0.codec.bit_rate">20226381</property>
  <property name="meta.attr.0.stream.creation_time.markup">2017-05-04 20:03:41</property>
  <property name="meta.attr.0.stream.language.markup">eng</property>
  <property name="meta.media.1.stream.type">audio</property>
  <property name="meta.media.1.codec.sample_fmt">s16</property>
  <property name="meta.media.1.codec.sample_rate">24000</property>
  <property name="meta.media.1.codec.channels">1</property>
  <property name="meta.media.1.codec.name">pcm_s16le</property>
  <property name="meta.media.1.codec.long_name">PCM signed 16-bit little-endian</property>
  <property name="meta.media.1.codec.bit_rate">0</property>
  <property name="meta.attr.1.stream.creation_time.markup">2017-05-04 20:03:41</property>
  <property name="meta.attr.1.stream.language.markup">eng</property>
  <property name="meta.attr.major_brand.markup">qt  </property>
  <property name="meta.attr.minor_version.markup">537331968</property>
  <property name="meta.attr.compatible_brands.markup">qt  niko</property>
  <property name="meta.attr.creation_time.markup">2017-05-04 20:03:41</property>
  <property name="seekable">1</property>
  <property name="meta.media.sample_aspect_num">1</property>
  <property name="meta.media.sample_aspect_den">1</property>
  <property name="aspect_ratio">1</property>
  <property name="audio_index">1</property>
  <property name="video_index">0</property>
  <property name="mlt_service">avformat</property>
  <property name="meta.media.frame_rate_num">24000</property>
  <property name="meta.media.frame_rate_den">1001</property>
  <property name="meta.media.colorspace">601</property>
  <property name="meta.media.width">1920</property>
  <property name="meta.media.height">1080</property>
  <property name="meta.media.top_field_first">0</property>
  <property name="meta.media.progressive">1</property>
 </producer>
 <producer in="0" out="751" id="5_1">
  <property name="mlt_type">producer</property>
  <property name="length">752</property>
  <property name="eof">pause</property>
  <property name="resource">Documents/Projets Musique/Barons Freaks/COURTS METRAGES - MAIN/COURTS METRAGES/EpisodeIII/DSC_0022.MOV</property>
  <property name="meta.media.nb_streams">2</property>
  <property name="meta.media.0.stream.type">video</property>
  <property name="meta.media.0.stream.frame_rate">25</property>
  <property name="meta.media.0.stream.sample_aspect_ratio">0</property>
  <property name="meta.media.0.codec.width">1280</property>
  <property name="meta.media.0.codec.height">720</property>
  <property name="meta.media.0.codec.frame_rate">25</property>
  <property name="meta.media.0.codec.pix_fmt">yuvj420p</property>
  <property name="meta.media.0.codec.sample_aspect_ratio">1</property>
  <property name="meta.media.0.codec.colorspace">601</property>
  <property name="meta.media.0.codec.name">h264</property>
  <property name="meta.media.0.codec.long_name">H.264 / AVC / MPEG-4 AVC / MPEG-4 part 10</property>
  <property name="meta.media.0.codec.bit_rate">10933041</property>
  <property name="meta.attr.0.stream.creation_time.markup">2016-11-11 10:45:39</property>
  <property name="meta.attr.0.stream.language.markup">eng</property>
  <property name="meta.media.1.stream.type">audio</property>
  <property name="meta.media.1.codec.sample_fmt">s16</property>
  <property name="meta.media.1.codec.sample_rate">24000</property>
  <property name="meta.media.1.codec.channels">1</property>
  <property name="meta.media.1.codec.name">pcm_s16le</property>
  <property name="meta.media.1.codec.long_name">PCM signed 16-bit little-endian</property>
  <property name="meta.media.1.codec.bit_rate">0</property>
  <property name="meta.attr.1.stream.creation_time.markup">2016-11-11 10:45:39</property>
  <property name="meta.attr.1.stream.language.markup">eng</property>
  <property name="meta.attr.major_brand.markup">qt  </property>
  <property name="meta.attr.minor_version.markup">537331968</property>
  <property name="meta.attr.compatible_brands.markup">qt  niko</property>
  <property name="meta.attr.creation_time.markup">2016-11-11 10:45:39</property>
  <property name="seekable">1</property>
  <property name="meta.media.sample_aspect_num">1</property>
  <property name="meta.media.sample_aspect_den">1</property>
  <property name="aspect_ratio">1</property>
  <property name="audio_index">1</property>
  <property name="video_index">0</property>
  <property name="mlt_service">avformat</property>
  <property name="meta.media.frame_rate_num">25</property>
  <property name="meta.media.frame_rate_den">1</property>
  <property name="meta.media.colorspace">601</property>
  <property name="meta.media.width">1280</property>
  <property name="meta.media.height">720</property>
  <property name="meta.media.top_field_first">0</property>
  <property name="meta.media.progressive">1</property>
 </producer>
 <producer in="0" out="2158" id="4_1">
  <property name="mlt_type">producer</property>
  <property name="length">2159</property>
  <property name="eof">pause</property>
  <property name="resource">Documents/Projets Musique/Barons Freaks/COURTS METRAGES - MAIN/COURTS METRAGES/EpisodeIII/DSC_0017.MOV</property>
  <property name="meta.media.nb_streams">2</property>
  <property name="meta.media.0.stream.type">video</property>
  <property name="meta.media.0.stream.frame_rate">25</property>
  <property name="meta.media.0.stream.sample_aspect_ratio">0</property>
  <property name="meta.media.0.codec.width">1280</property>
  <property name="meta.media.0.codec.height">720</property>
  <property name="meta.media.0.codec.frame_rate">25</property>
  <property name="meta.media.0.codec.pix_fmt">yuvj420p</property>
  <property name="meta.media.0.codec.sample_aspect_ratio">1</property>
  <property name="meta.media.0.codec.colorspace">601</property>
  <property name="meta.media.0.codec.name">h264</property>
  <property name="meta.media.0.codec.long_name">H.264 / AVC / MPEG-4 AVC / MPEG-4 part 10</property>
  <property name="meta.media.0.codec.bit_rate">10861388</property>
  <property name="meta.attr.0.stream.creation_time.markup">2016-11-11 10:30:57</property>
  <property name="meta.attr.0.stream.language.markup">eng</property>
  <property name="meta.media.1.stream.type">audio</property>
  <property name="meta.media.1.codec.sample_fmt">s16</property>
  <property name="meta.media.1.codec.sample_rate">24000</property>
  <property name="meta.media.1.codec.channels">1</property>
  <property name="meta.media.1.codec.name">pcm_s16le</property>
  <property name="meta.media.1.codec.long_name">PCM signed 16-bit little-endian</property>
  <property name="meta.media.1.codec.bit_rate">0</property>
  <property name="meta.attr.1.stream.creation_time.markup">2016-11-11 10:30:57</property>
  <property name="meta.attr.1.stream.language.markup">eng</property>
  <property name="meta.attr.major_brand.markup">qt  </property>
  <property name="meta.attr.minor_version.markup">537331968</property>
  <property name="meta.attr.compatible_brands.markup">qt  niko</property>
  <property name="meta.attr.creation_time.markup">2016-11-11 10:30:57</property>
  <property name="seekable">1</property>
  <property name="meta.media.sample_aspect_num">1</property>
  <property name="meta.media.sample_aspect_den">1</property>
  <property name="aspect_ratio">1</property>
  <property name="audio_index">1</property>
  <property name="video_index">0</property>
  <property name="mlt_service">avformat</property>
  <property name="meta.media.frame_rate_num">25</property>
  <property name="meta.media.frame_rate_den">1</property>
  <property name="meta.media.colorspace">601</property>
  <property name="meta.media.width">1280</property>
  <property name="meta.media.height">720</property>
  <property name="meta.media.top_field_first">0</property>
  <property name="meta.media.progressive">1</property>
 </producer>
 <producer in="0" out="433" id="6_1">
  <property name="mlt_type">producer</property>
  <property name="length">434</property>
  <property name="eof">pause</property>
  <property name="resource">Documents/Projets Musique/Barons Freaks/COURTS METRAGES - MAIN/COURTS METRAGES/EpisodeIII/jumeaux-entree.mp4</property>
  <property name="meta.media.nb_streams">2</property>
  <property name="meta.media.0.stream.type">video</property>
  <property name="meta.media.0.stream.frame_rate">25</property>
  <property name="meta.media.0.stream.sample_aspect_ratio">0</property>
  <property name="meta.media.0.codec.width">1280</property>
  <property name="meta.media.0.codec.height">720</property>
  <property name="meta.media.0.codec.frame_rate">25</property>
  <property name="meta.media.0.codec.pix_fmt">yuv420p</property>
  <property name="meta.media.0.codec.sample_aspect_ratio">1</property>
  <property name="meta.media.0.codec.colorspace">709</property>
  <property name="meta.media.0.codec.name">mpeg4</property>
  <property name="meta.media.0.codec.long_name">MPEG-4 part 2</property>
  <property name="meta.media.0.codec.bit_rate">9384318</property>
  <property name="meta.media.1.stream.type">audio</property>
  <property name="meta.media.1.codec.sample_fmt">s16p</property>
  <property name="meta.media.1.codec.sample_rate">44100</property>
  <property name="meta.media.1.codec.channels">2</property>
  <property name="meta.media.1.codec.name">mp3</property>
  <property name="meta.media.1.codec.long_name">MP3 (MPEG audio layer 3)</property>
  <property name="meta.media.1.codec.bit_rate">127999</property>
  <property name="meta.attr.major_brand.markup">isom</property>
  <property name="meta.attr.minor_version.markup">512</property>
  <property name="meta.attr.compatible_brands.markup">isomiso2mp41</property>
  <property name="meta.attr.encoder.markup">Lavf53.21.1</property>
  <property name="seekable">1</property>
  <property name="meta.media.sample_aspect_num">1</property>
  <property name="meta.media.sample_aspect_den">1</property>
  <property name="aspect_ratio">1</property>
  <property name="audio_index">1</property>
  <property name="video_index">0</property>
  <property name="mlt_service">avformat</property>
  <property name="meta.media.frame_rate_num">25</property>
  <property name="meta.media.frame_rate_den">1</property>
  <property name="meta.media.colorspace">709</property>
  <property name="meta.media.width">1280</property>
  <property name="meta.media.height">720</property>
  <property name="meta.media.top_field_first">0</property>
  <property name="meta.media.progressive">1</property>
 </producer>
 <producer in="0" out="268" id="8_1">
  <property name="mlt_type">producer</property>
  <property name="length">269</property>
  <property name="eof">pause</property>
  <property name="resource">Documents/Projets Musique/Barons Freaks/COURTS METRAGES - MAIN/COURTS METRAGES/EpisodeIII/DSC_0046.MOV</property>
  <property name="meta.media.nb_streams">2</property>
  <property name="meta.media.0.stream.type">video</property>
  <property name="meta.media.0.stream.frame_rate">25</property>
  <property name="meta.media.0.stream.sample_aspect_ratio">0</property>
  <property name="meta.media.0.codec.width">1280</property>
  <property name="meta.media.0.codec.height">720</property>
  <property name="meta.media.0.codec.frame_rate">25</property>
  <property name="meta.media.0.codec.pix_fmt">yuvj420p</property>
  <property name="meta.media.0.codec.sample_aspect_ratio">1</property>
  <property name="meta.media.0.codec.colorspace">601</property>
  <property name="meta.media.0.codec.name">h264</property>
  <property name="meta.media.0.codec.long_name">H.264 / AVC / MPEG-4 AVC / MPEG-4 part 10</property>
  <property name="meta.media.0.codec.bit_rate">10847074</property>
  <property name="meta.attr.0.stream.creation_time.markup">2016-11-11 11:33:40</property>
  <property name="meta.attr.0.stream.language.markup">eng</property>
  <property name="meta.media.1.stream.type">audio</property>
  <property name="meta.media.1.codec.sample_fmt">s16</property>
  <property name="meta.media.1.codec.sample_rate">24000</property>
  <property name="meta.media.1.codec.channels">1</property>
  <property name="meta.media.1.codec.name">pcm_s16le</property>
  <property name="meta.media.1.codec.long_name">PCM signed 16-bit little-endian</property>
  <property name="meta.media.1.codec.bit_rate">0</property>
  <property name="meta.attr.1.stream.creation_time.markup">2016-11-11 11:33:40</property>
  <property name="meta.attr.1.stream.language.markup">eng</property>
  <property name="meta.attr.major_brand.markup">qt  </property>
  <property name="meta.attr.minor_version.markup">537331968</property>
  <property name="meta.attr.compatible_brands.markup">qt  niko</property>
  <property name="meta.attr.creation_time.markup">2016-11-11 11:33:40</property>
  <property name="seekable">1</property>
  <property name="meta.media.sample_aspect_num">1</property>
  <property name="meta.media.sample_aspect_den">1</property>
  <property name="aspect_ratio">1</property>
  <property name="audio_index">1</property>
  <property name="video_index">0</property>
  <property name="mlt_service">avformat</property>
  <property name="meta.media.frame_rate_num">25</property>
  <property name="meta.media.frame_rate_den">1</property>
  <property name="meta.media.colorspace">601</property>
  <property name="meta.media.width">1280</property>
  <property name="meta.media.height">720</property>
  <property name="meta.media.top_field_first">0</property>
  <property name="meta.media.progressive">1</property>
 </producer>
 <producer in="0" out="274" id="7_1">
  <property name="mlt_type">producer</property>
  <property name="length">275</property>
  <property name="eof">pause</property>
  <property name="resource">Documents/Projets Musique/Barons Freaks/COURTS METRAGES - MAIN/COURTS METRAGES/EpisodeIII/DSC_0037.MOV</property>
  <property name="meta.media.nb_streams">2</property>
  <property name="meta.media.0.stream.type">video</property>
  <property name="meta.media.0.stream.frame_rate">25</property>
  <property name="meta.media.0.stream.sample_aspect_ratio">0</property>
  <property name="meta.media.0.codec.width">1280</property>
  <property name="meta.media.0.codec.height">720</property>
  <property name="meta.media.0.codec.frame_rate">25</property>
  <property name="meta.media.0.codec.pix_fmt">yuvj420p</property>
  <property name="meta.media.0.codec.sample_aspect_ratio">1</property>
  <property name="meta.media.0.codec.colorspace">601</property>
  <property name="meta.media.0.codec.name">h264</property>
  <property name="meta.media.0.codec.long_name">H.264 / AVC / MPEG-4 AVC / MPEG-4 part 10</property>
  <property name="meta.media.0.codec.bit_rate">10577649</property>
  <property name="meta.attr.0.stream.creation_time.markup">2016-11-11 11:26:58</property>
  <property name="meta.attr.0.stream.language.markup">eng</property>
  <property name="meta.media.1.stream.type">audio</property>
  <property name="meta.media.1.codec.sample_fmt">s16</property>
  <property name="meta.media.1.codec.sample_rate">24000</property>
  <property name="meta.media.1.codec.channels">1</property>
  <property name="meta.media.1.codec.name">pcm_s16le</property>
  <property name="meta.media.1.codec.long_name">PCM signed 16-bit little-endian</property>
  <property name="meta.media.1.codec.bit_rate">0</property>
  <property name="meta.attr.1.stream.creation_time.markup">2016-11-11 11:26:58</property>
  <property name="meta.attr.1.stream.language.markup">eng</property>
  <property name="meta.attr.major_brand.markup">qt  </property>
  <property name="meta.attr.minor_version.markup">537331968</property>
  <property name="meta.attr.compatible_brands.markup">qt  niko</property>
  <property name="meta.attr.creation_time.markup">2016-11-11 11:26:58</property>
  <property name="seekable">1</property>
  <property name="meta.media.sample_aspect_num">1</property>
  <property name="meta.media.sample_aspect_den">1</property>
  <property name="aspect_ratio">1</property>
  <property name="audio_index">1</property>
  <property name="video_index">0</property>
  <property name="mlt_service">avformat</property>
  <property name="meta.media.frame_rate_num">25</property>
  <property name="meta.media.frame_rate_den">1</property>
  <property name="meta.media.colorspace">601</property>
  <property name="meta.media.width">1280</property>
  <property name="meta.media.height">720</property>
  <property name="meta.media.top_field_first">0</property>
  <property name="meta.media.progressive">1</property>
 </producer>
 <producer in="0" out="370" id="9">
  <property name="mlt_type">producer</property>
  <property name="length">371</property>
  <property name="eof">pause</property>
  <property name="resource">Documents/Projets Musique/Barons Freaks/COURTS METRAGES - MAIN/COURTS METRAGES/EpisodeIII/jumeaux_02.mp4</property>
  <property name="meta.media.nb_streams">1</property>
  <property name="meta.media.0.stream.type">video</property>
  <property name="meta.media.0.stream.frame_rate">50</property>
  <property name="meta.media.0.stream.sample_aspect_ratio">0</property>
  <property name="meta.media.0.codec.width">1280</property>
  <property name="meta.media.0.codec.height">720</property>
  <property name="meta.media.0.codec.frame_rate">50</property>
  <property name="meta.media.0.codec.pix_fmt">yuv420p</property>
  <property name="meta.media.0.codec.sample_aspect_ratio">1</property>
  <property name="meta.media.0.codec.colorspace">709</property>
  <property name="meta.media.0.codec.name">h264</property>
  <property name="meta.media.0.codec.long_name">H.264 / AVC / MPEG-4 AVC / MPEG-4 part 10</property>
  <property name="meta.media.0.codec.bit_rate">3353025</property>
  <property name="meta.attr.major_brand.markup">isom</property>
  <property name="meta.attr.minor_version.markup">512</property>
  <property name="meta.attr.compatible_brands.markup">isomiso2avc1mp41</property>
  <property name="meta.attr.encoder.markup">Lavf56.1.0</property>
  <property name="seekable">1</property>
  <property name="meta.media.sample_aspect_num">1</property>
  <property name="meta.media.sample_aspect_den">1</property>
  <property name="aspect_ratio">1</property>
  <property name="audio_index">-1</property>
  <property name="video_index">0</property>
  <property name="mlt_service">avformat</property>
  <property name="meta.media.frame_rate_num">50</property>
  <property name="meta.media.frame_rate_den">1</property>
  <property name="meta.media.colorspace">709</property>
  <property name="meta.media.width">1280</property>
  <property name="meta.media.height">720</property>
  <property name="meta.media.top_field_first">0</property>
  <property name="meta.media.progressive">1</property>
 </producer>
 <producer in="0" out="538" id="11_1">
  <property name="mlt_type">producer</property>
  <property name="length">539</property>
  <property name="eof">pause</property>
  <property name="resource">Documents/Projets Musique/Barons Freaks/COURTS METRAGES - MAIN/COURTS METRAGES/EpisodeIII/DSC_0029.MOV</property>
  <property name="meta.media.nb_streams">2</property>
  <property name="meta.media.0.stream.type">video</property>
  <property name="meta.media.0.stream.frame_rate">25</property>
  <property name="meta.media.0.stream.sample_aspect_ratio">0</property>
  <property name="meta.media.0.codec.width">1280</property>
  <property name="meta.media.0.codec.height">720</property>
  <property name="meta.media.0.codec.frame_rate">25</property>
  <property name="meta.media.0.codec.pix_fmt">yuvj420p</property>
  <property name="meta.media.0.codec.sample_aspect_ratio">1</property>
  <property name="meta.media.0.codec.colorspace">601</property>
  <property name="meta.media.0.codec.name">h264</property>
  <property name="meta.media.0.codec.long_name">H.264 / AVC / MPEG-4 AVC / MPEG-4 part 10</property>
  <property name="meta.media.0.codec.bit_rate">10792967</property>
  <property name="meta.attr.0.stream.creation_time.markup">2016-11-11 11:07:45</property>
  <property name="meta.attr.0.stream.language.markup">eng</property>
  <property name="meta.media.1.stream.type">audio</property>
  <property name="meta.media.1.codec.sample_fmt">s16</property>
  <property name="meta.media.1.codec.sample_rate">24000</property>
  <property name="meta.media.1.codec.channels">1</property>
  <property name="meta.media.1.codec.name">pcm_s16le</property>
  <property name="meta.media.1.codec.long_name">PCM signed 16-bit little-endian</property>
  <property name="meta.media.1.codec.bit_rate">0</property>
  <property name="meta.attr.1.stream.creation_time.markup">2016-11-11 11:07:45</property>
  <property name="meta.attr.1.stream.language.markup">eng</property>
  <property name="meta.attr.major_brand.markup">qt  </property>
  <property name="meta.attr.minor_version.markup">537331968</property>
  <property name="meta.attr.compatible_brands.markup">qt  niko</property>
  <property name="meta.attr.creation_time.markup">2016-11-11 11:07:45</property>
  <property name="seekable">1</property>
  <property name="meta.media.sample_aspect_num">1</property>
  <property name="meta.media.sample_aspect_den">1</property>
  <property name="aspect_ratio">1</property>
  <property name="audio_index">1</property>
  <property name="video_index">0</property>
  <property name="mlt_service">avformat</property>
  <property name="meta.media.frame_rate_num">25</property>
  <property name="meta.media.frame_rate_den">1</property>
  <property name="meta.media.colorspace">601</property>
  <property name="meta.media.width">1280</property>
  <property name="meta.media.height">720</property>
  <property name="meta.media.top_field_first">0</property>
  <property name="meta.media.progressive">1</property>
 </producer>
 <producer in="0" out="131" id="14">
  <property name="mlt_type">producer</property>
  <property name="length">132</property>
  <property name="eof">pause</property>
  <property name="resource">Documents/Projets Musique/Barons Freaks/COURTS METRAGES - MAIN/COURTS METRAGES/Diaphragme2.png</property>
  <property name="ttl">25</property>
  <property name="aspect_ratio">1</property>
  <property name="progressive">1</property>
  <property name="seekable">1</property>
  <property name="loop">1</property>
  <property name="meta.media.width">2560</property>
  <property name="meta.media.height">1440</property>
  <property name="mlt_service">pixbuf</property>
 </producer>
 <producer in="0" out="487" id="15_1">
  <property name="mlt_type">producer</property>
  <property name="length">488</property>
  <property name="eof">pause</property>
  <property name="resource">Documents/Projets Musique/Barons Freaks/COURTS METRAGES - MAIN/COURTS METRAGES/EpisodeIII/jumeaux_03.mp4</property>
  <property name="meta.media.nb_streams">2</property>
  <property name="meta.media.0.stream.type">video</property>
  <property name="meta.media.0.stream.frame_rate">25</property>
  <property name="meta.media.0.stream.sample_aspect_ratio">1</property>
  <property name="meta.media.0.codec.width">1920</property>
  <property name="meta.media.0.codec.height">1080</property>
  <property name="meta.media.0.codec.frame_rate">25</property>
  <property name="meta.media.0.codec.pix_fmt">yuv420p</property>
  <property name="meta.media.0.codec.sample_aspect_ratio">1</property>
  <property name="meta.media.0.codec.colorspace">709</property>
  <property name="meta.media.0.codec.name">h264</property>
  <property name="meta.media.0.codec.long_name">H.264 / AVC / MPEG-4 AVC / MPEG-4 part 10</property>
  <property name="meta.media.0.codec.bit_rate">3098632</property>
  <property name="meta.media.1.stream.type">audio</property>
  <property name="meta.media.1.codec.sample_fmt">fltp</property>
  <property name="meta.media.1.codec.sample_rate">48000</property>
  <property name="meta.media.1.codec.channels">2</property>
  <property name="meta.media.1.codec.name">aac</property>
  <property name="meta.media.1.codec.long_name">AAC (Advanced Audio Coding)</property>
  <property name="meta.media.1.codec.bit_rate">2277</property>
  <property name="meta.attr.major_brand.markup">isom</property>
  <property name="meta.attr.minor_version.markup">512</property>
  <property name="meta.attr.compatible_brands.markup">isomiso2avc1mp41</property>
  <property name="meta.attr.encoder.markup">Lavf57.56.100</property>
  <property name="seekable">1</property>
  <property name="meta.media.sample_aspect_num">1</property>
  <property name="meta.media.sample_aspect_den">1</property>
  <property name="aspect_ratio">1</property>
  <property name="audio_index">1</property>
  <property name="video_index">0</property>
  <property name="mlt_service">avformat</property>
  <property name="meta.media.frame_rate_num">25</property>
  <property name="meta.media.frame_rate_den">1</property>
  <property name="meta.media.colorspace">709</property>
  <property name="meta.media.width">1920</property>
  <property name="meta.media.height">1080</property>
  <property name="meta.media.top_field_first">0</property>
  <property name="meta.media.progressive">1</property>
 </producer>
 <producer in="0" out="555" id="slowmotion:16:1,2">
  <property name="mlt_type">producer</property>
  <property name="length">556</property>
  <property name="eof">pause</property>
  <property name="resource">Documents/Projets Musique/Barons Freaks/COURTS METRAGES - MAIN/COURTS METRAGES/EpisodeIII/jumeaux_04.mp4?1,2</property>
  <property name="aspect_ratio">1</property>
  <property name="mlt_service">framebuffer</property>
  <property name="strobe">1</property>
 </producer>
 <producer in="0" out="6076" id="17_1">
  <property name="mlt_type">producer</property>
  <property name="length">6077</property>
  <property name="eof">pause</property>
  <property name="resource">Documents/Projets Musique/Barons Freaks/COURTS METRAGES - MAIN/COURTS METRAGES/EpisodeIII/DSC_7831.MOV</property>
  <property name="meta.media.nb_streams">2</property>
  <property name="meta.media.0.stream.type">video</property>
  <property name="meta.media.0.stream.frame_rate">25</property>
  <property name="meta.media.0.stream.sample_aspect_ratio">0</property>
  <property name="meta.media.0.codec.width">1280</property>
  <property name="meta.media.0.codec.height">720</property>
  <property name="meta.media.0.codec.frame_rate">25</property>
  <property name="meta.media.0.codec.pix_fmt">yuvj420p</property>
  <property name="meta.media.0.codec.sample_aspect_ratio">1</property>
  <property name="meta.media.0.codec.colorspace">601</property>
  <property name="meta.media.0.codec.name">h264</property>
  <property name="meta.media.0.codec.long_name">H.264 / AVC / MPEG-4 AVC / MPEG-4 part 10</property>
  <property name="meta.media.0.codec.bit_rate">10534178</property>
  <property name="meta.attr.0.stream.creation_time.markup">2016-11-11 15:04:40</property>
  <property name="meta.attr.0.stream.language.markup">eng</property>
  <property name="meta.media.1.stream.type">audio</property>
  <property name="meta.media.1.codec.sample_fmt">s16</property>
  <property name="meta.media.1.codec.sample_rate">24000</property>
  <property name="meta.media.1.codec.channels">1</property>
  <property name="meta.media.1.codec.name">pcm_s16le</property>
  <property name="meta.media.1.codec.long_name">PCM signed 16-bit little-endian</property>
  <property name="meta.media.1.codec.bit_rate">0</property>
  <property name="meta.attr.1.stream.creation_time.markup">2016-11-11 15:04:40</property>
  <property name="meta.attr.1.stream.language.markup">eng</property>
  <property name="meta.attr.major_brand.markup">qt  </property>
  <property name="meta.attr.minor_version.markup">537331968</property>
  <property name="meta.attr.compatible_brands.markup">qt  niko</property>
  <property name="meta.attr.creation_time.markup">2016-11-11 15:04:40</property>
  <property name="seekable">1</property>
  <property name="meta.media.sample_aspect_num">1</property>
  <property name="meta.media.sample_aspect_den">1</property>
  <property name="aspect_ratio">1</property>
  <property name="audio_index">1</property>
  <property name="video_index">0</property>
  <property name="mlt_service">avformat</property>
  <property name="meta.media.frame_rate_num">25</property>
  <property name="meta.media.frame_rate_den">1</property>
  <property name="meta.media.colorspace">601</property>
  <property name="meta.media.width">1280</property>
  <property name="meta.media.height">720</property>
  <property name="meta.media.top_field_first">0</property>
  <property name="meta.media.progressive">1</property>
 </producer>
 <producer in="0" out="5714" id="24">
  <property name="mlt_type">producer</property>
  <property name="length">5715</property>
  <property name="eof">pause</property>
  <property name="resource">Documents/Projets Musique/Barons Freaks/COURTS METRAGES - MAIN/COURTS METRAGES/EpisodeIII/MVI_7828.MOV</property>
  <property name="meta.media.nb_streams">1</property>
  <property name="meta.media.0.stream.type">video</property>
  <property name="meta.media.0.stream.frame_rate">50</property>
  <property name="meta.media.0.stream.sample_aspect_ratio">0</property>
  <property name="meta.media.0.codec.width">1280</property>
  <property name="meta.media.0.codec.height">720</property>
  <property name="meta.media.0.codec.frame_rate">inf</property>
  <property name="meta.media.0.codec.pix_fmt">yuvj420p</property>
  <property name="meta.media.0.codec.sample_aspect_ratio">0</property>
  <property name="meta.media.0.codec.colorspace">601</property>
  <property name="meta.media.0.codec.name">h264</property>
  <property name="meta.media.0.codec.long_name">H.264 / AVC / MPEG-4 AVC / MPEG-4 part 10</property>
  <property name="meta.media.0.codec.bit_rate">45838884</property>
  <property name="meta.attr.0.stream.creation_time.markup">2016-11-11 16:13:26</property>
  <property name="meta.attr.0.stream.language.markup">eng</property>
  <property name="meta.attr.major_brand.markup">qt  </property>
  <property name="meta.attr.minor_version.markup">537331968</property>
  <property name="meta.attr.compatible_brands.markup">qt  CAEP</property>
  <property name="meta.attr.creation_time.markup">2016-11-11 16:13:26</property>
  <property name="seekable">1</property>
  <property name="meta.media.sample_aspect_num">1</property>
  <property name="meta.media.sample_aspect_den">1</property>
  <property name="aspect_ratio">1</property>
  <property name="audio_index">-1</property>
  <property name="video_index">0</property>
  <property name="mlt_service">avformat</property>
  <property name="meta.media.frame_rate_num">50</property>
  <property name="meta.media.frame_rate_den">1</property>
  <property name="meta.media.colorspace">601</property>
  <property name="meta.media.width">1280</property>
  <property name="meta.media.height">720</property>
  <property name="meta.media.top_field_first">0</property>
  <property name="meta.media.progressive">1</property>
 </producer>
 <producer in="0" out="641" id="18_1">
  <property name="mlt_type">producer</property>
  <property name="length">642</property>
  <property name="eof">pause</property>
  <property name="resource">Documents/Projets Musique/Barons Freaks/COURTS METRAGES - MAIN/COURTS METRAGES/EpisodeIII/jumeaux_05.mp4</property>
  <property name="meta.media.nb_streams">2</property>
  <property name="meta.media.0.stream.type">video</property>
  <property name="meta.media.0.stream.frame_rate">25</property>
  <property name="meta.media.0.stream.sample_aspect_ratio">1</property>
  <property name="meta.media.0.codec.width">1920</property>
  <property name="meta.media.0.codec.height">1080</property>
  <property name="meta.media.0.codec.frame_rate">25</property>
  <property name="meta.media.0.codec.pix_fmt">yuv420p</property>
  <property name="meta.media.0.codec.sample_aspect_ratio">1</property>
  <property name="meta.media.0.codec.colorspace">709</property>
  <property name="meta.media.0.codec.name">h264</property>
  <property name="meta.media.0.codec.long_name">H.264 / AVC / MPEG-4 AVC / MPEG-4 part 10</property>
  <property name="meta.media.0.codec.bit_rate">3196057</property>
  <property name="meta.media.1.stream.type">audio</property>
  <property name="meta.media.1.codec.sample_fmt">fltp</property>
  <property name="meta.media.1.codec.sample_rate">48000</property>
  <property name="meta.media.1.codec.channels">2</property>
  <property name="meta.media.1.codec.name">aac</property>
  <property name="meta.media.1.codec.long_name">AAC (Advanced Audio Coding)</property>
  <property name="meta.media.1.codec.bit_rate">2276</property>
  <property name="meta.attr.major_brand.markup">isom</property>
  <property name="meta.attr.minor_version.markup">512</property>
  <property name="meta.attr.compatible_brands.markup">isomiso2avc1mp41</property>
  <property name="meta.attr.encoder.markup">Lavf57.56.100</property>
  <property name="seekable">1</property>
  <property name="meta.media.sample_aspect_num">1</property>
  <property name="meta.media.sample_aspect_den">1</property>
  <property name="aspect_ratio">1</property>
  <property name="audio_index">1</property>
  <property name="video_index">0</property>
  <property name="mlt_service">avformat</property>
  <property name="meta.media.frame_rate_num">25</property>
  <property name="meta.media.frame_rate_den">1</property>
  <property name="meta.media.colorspace">709</property>
  <property name="meta.media.width">1920</property>
  <property name="meta.media.height">1080</property>
  <property name="meta.media.top_field_first">0</property>
  <property name="meta.media.progressive">1</property>
 </producer>
 <producer in="0" out="492" id="slowmotion:18_1:1,3">
  <property name="mlt_type">producer</property>
  <property name="length">493</property>
  <property name="eof">pause</property>
  <property name="resource">Documents/Projets Musique/Barons Freaks/COURTS METRAGES - MAIN/COURTS METRAGES/EpisodeIII/jumeaux_05.mp4?1,3</property>
  <property name="aspect_ratio">1</property>
  <property name="mlt_service">framebuffer</property>
  <property name="strobe">1</property>
 </producer>
 <producer in="0" out="2581" id="20_1">
  <property name="mlt_type">producer</property>
  <property name="length">2582</property>
  <property name="eof">pause</property>
  <property name="resource">Documents/Projets Musique/Barons Freaks/COURTS METRAGES - MAIN/COURTS METRAGES/EpisodeIII/DSC_7861.MOV</property>
  <property name="meta.media.nb_streams">2</property>
  <property name="meta.media.0.stream.type">video</property>
  <property name="meta.media.0.stream.frame_rate">25</property>
  <property name="meta.media.0.stream.sample_aspect_ratio">0</property>
  <property name="meta.media.0.codec.width">1280</property>
  <property name="meta.media.0.codec.height">720</property>
  <property name="meta.media.0.codec.frame_rate">25</property>
  <property name="meta.media.0.codec.pix_fmt">yuvj420p</property>
  <property name="meta.media.0.codec.sample_aspect_ratio">1</property>
  <property name="meta.media.0.codec.colorspace">601</property>
  <property name="meta.media.0.codec.name">h264</property>
  <property name="meta.media.0.codec.long_name">H.264 / AVC / MPEG-4 AVC / MPEG-4 part 10</property>
  <property name="meta.media.0.codec.bit_rate">10882488</property>
  <property name="meta.attr.0.stream.creation_time.markup">2016-11-11 16:59:45</property>
  <property name="meta.attr.0.stream.language.markup">eng</property>
  <property name="meta.media.1.stream.type">audio</property>
  <property name="meta.media.1.codec.sample_fmt">s16</property>
  <property name="meta.media.1.codec.sample_rate">24000</property>
  <property name="meta.media.1.codec.channels">1</property>
  <property name="meta.media.1.codec.name">pcm_s16le</property>
  <property name="meta.media.1.codec.long_name">PCM signed 16-bit little-endian</property>
  <property name="meta.media.1.codec.bit_rate">0</property>
  <property name="meta.attr.1.stream.creation_time.markup">2016-11-11 16:59:45</property>
  <property name="meta.attr.1.stream.language.markup">eng</property>
  <property name="meta.attr.major_brand.markup">qt  </property>
  <property name="meta.attr.minor_version.markup">537331968</property>
  <property name="meta.attr.compatible_brands.markup">qt  niko</property>
  <property name="meta.attr.creation_time.markup">2016-11-11 16:59:45</property>
  <property name="seekable">1</property>
  <property name="meta.media.sample_aspect_num">1</property>
  <property name="meta.media.sample_aspect_den">1</property>
  <property name="aspect_ratio">1</property>
  <property name="audio_index">1</property>
  <property name="video_index">0</property>
  <property name="mlt_service">avformat</property>
  <property name="meta.media.frame_rate_num">25</property>
  <property name="meta.media.frame_rate_den">1</property>
  <property name="meta.media.colorspace">601</property>
  <property name="meta.media.width">1280</property>
  <property name="meta.media.height">720</property>
  <property name="meta.media.top_field_first">0</property>
  <property name="meta.media.progressive">1</property>
 </producer>
 <producer in="0" out="1247" id="19">
  <property name="mlt_type">producer</property>
  <property name="length">1248</property>
  <property name="eof">pause</property>
  <property name="resource">Documents/Projets Musique/Barons Freaks/COURTS METRAGES - MAIN/COURTS METRAGES/EpisodeIII/MVI_7824.MOV</property>
  <property name="meta.media.nb_streams">1</property>
  <property name="meta.media.0.stream.type">video</property>
  <property name="meta.media.0.stream.frame_rate">50</property>
  <property name="meta.media.0.stream.sample_aspect_ratio">0</property>
  <property name="meta.media.0.codec.width">1280</property>
  <property name="meta.media.0.codec.height">720</property>
  <property name="meta.media.0.codec.frame_rate">inf</property>
  <property name="meta.media.0.codec.pix_fmt">yuvj420p</property>
  <property name="meta.media.0.codec.sample_aspect_ratio">0</property>
  <property name="meta.media.0.codec.colorspace">601</property>
  <property name="meta.media.0.codec.name">h264</property>
  <property name="meta.media.0.codec.long_name">H.264 / AVC / MPEG-4 AVC / MPEG-4 part 10</property>
  <property name="meta.media.0.codec.bit_rate">46025895</property>
  <property name="meta.attr.0.stream.creation_time.markup">2016-11-11 15:52:54</property>
  <property name="meta.attr.0.stream.language.markup">eng</property>
  <property name="meta.attr.major_brand.markup">qt  </property>
  <property name="meta.attr.minor_version.markup">537331968</property>
  <property name="meta.attr.compatible_brands.markup">qt  CAEP</property>
  <property name="meta.attr.creation_time.markup">2016-11-11 15:52:54</property>
  <property name="seekable">1</property>
  <property name="meta.media.sample_aspect_num">1</property>
  <property name="meta.media.sample_aspect_den">1</property>
  <property name="aspect_ratio">1</property>
  <property name="audio_index">-1</property>
  <property name="video_index">0</property>
  <property name="mlt_service">avformat</property>
  <property name="meta.media.frame_rate_num">50</property>
  <property name="meta.media.frame_rate_den">1</property>
  <property name="meta.media.colorspace">601</property>
  <property name="meta.media.width">1280</property>
  <property name="meta.media.height">720</property>
  <property name="meta.media.top_field_first">0</property>
  <property name="meta.media.progressive">1</property>
 </producer>
 <producer in="0" out="763" id="22_1">
  <property name="mlt_type">producer</property>
  <property name="length">764</property>
  <property name="eof">pause</property>
  <property name="resource">Documents/Projets Musique/Barons Freaks/COURTS METRAGES - MAIN/COURTS METRAGES/EpisodeIII/DSC_7855.MOV</property>
  <property name="meta.media.nb_streams">2</property>
  <property name="meta.media.0.stream.type">video</property>
  <property name="meta.media.0.stream.frame_rate">25</property>
  <property name="meta.media.0.stream.sample_aspect_ratio">0</property>
  <property name="meta.media.0.codec.width">1280</property>
  <property name="meta.media.0.codec.height">720</property>
  <property name="meta.media.0.codec.frame_rate">25</property>
  <property name="meta.media.0.codec.pix_fmt">yuvj420p</property>
  <property name="meta.media.0.codec.sample_aspect_ratio">1</property>
  <property name="meta.media.0.codec.colorspace">601</property>
  <property name="meta.media.0.codec.name">h264</property>
  <property name="meta.media.0.codec.long_name">H.264 / AVC / MPEG-4 AVC / MPEG-4 part 10</property>
  <property name="meta.media.0.codec.bit_rate">10906625</property>
  <property name="meta.attr.0.stream.creation_time.markup">2016-11-11 16:22:39</property>
  <property name="meta.attr.0.stream.language.markup">eng</property>
  <property name="meta.media.1.stream.type">audio</property>
  <property name="meta.media.1.codec.sample_fmt">s16</property>
  <property name="meta.media.1.codec.sample_rate">24000</property>
  <property name="meta.media.1.codec.channels">1</property>
  <property name="meta.media.1.codec.name">pcm_s16le</property>
  <property name="meta.media.1.codec.long_name">PCM signed 16-bit little-endian</property>
  <property name="meta.media.1.codec.bit_rate">0</property>
  <property name="meta.attr.1.stream.creation_time.markup">2016-11-11 16:22:39</property>
  <property name="meta.attr.1.stream.language.markup">eng</property>
  <property name="meta.attr.major_brand.markup">qt  </property>
  <property name="meta.attr.minor_version.markup">537331968</property>
  <property name="meta.attr.compatible_brands.markup">qt  niko</property>
  <property name="meta.attr.creation_time.markup">2016-11-11 16:22:39</property>
  <property name="seekable">1</property>
  <property name="meta.media.sample_aspect_num">1</property>
  <property name="meta.media.sample_aspect_den">1</property>
  <property name="aspect_ratio">1</property>
  <property name="audio_index">1</property>
  <property name="video_index">0</property>
  <property name="mlt_service">avformat</property>
  <property name="meta.media.frame_rate_num">25</property>
  <property name="meta.media.frame_rate_den">1</property>
  <property name="meta.media.colorspace">601</property>
  <property name="meta.media.width">1280</property>
  <property name="meta.media.height">720</property>
  <property name="meta.media.top_field_first">0</property>
  <property name="meta.media.progressive">1</property>
 </producer>
 <producer in="0" out="3864" id="21">
  <property name="mlt_type">producer</property>
  <property name="length">3865</property>
  <property name="eof">pause</property>
  <property name="resource">Documents/Projets Musique/Barons Freaks/COURTS METRAGES - MAIN/COURTS METRAGES/EpisodeIII/MVI_7826.MOV</property>
  <property name="meta.media.nb_streams">1</property>
  <property name="meta.media.0.stream.type">video</property>
  <property name="meta.media.0.stream.frame_rate">50</property>
  <property name="meta.media.0.stream.sample_aspect_ratio">0</property>
  <property name="meta.media.0.codec.width">1280</property>
  <property name="meta.media.0.codec.height">720</property>
  <property name="meta.media.0.codec.frame_rate">inf</property>
  <property name="meta.media.0.codec.pix_fmt">yuvj420p</property>
  <property name="meta.media.0.codec.sample_aspect_ratio">0</property>
  <property name="meta.media.0.codec.colorspace">601</property>
  <property name="meta.media.0.codec.name">h264</property>
  <property name="meta.media.0.codec.long_name">H.264 / AVC / MPEG-4 AVC / MPEG-4 part 10</property>
  <property name="meta.media.0.codec.bit_rate">45938862</property>
  <property name="meta.attr.0.stream.creation_time.markup">2016-11-11 16:03:56</property>
  <property name="meta.attr.0.stream.language.markup">eng</property>
  <property name="meta.attr.major_brand.markup">qt  </property>
  <property name="meta.attr.minor_version.markup">537331968</property>
  <property name="meta.attr.compatible_brands.markup">qt  CAEP</property>
  <property name="meta.attr.creation_time.markup">2016-11-11 16:03:56</property>
  <property name="seekable">1</property>
  <property name="meta.media.sample_aspect_num">1</property>
  <property name="meta.media.sample_aspect_den">1</property>
  <property name="aspect_ratio">1</property>
  <property name="audio_index">-1</property>
  <property name="video_index">0</property>
  <property name="mlt_service">avformat</property>
  <property name="meta.media.frame_rate_num">50</property>
  <property name="meta.media.frame_rate_den">1</property>
  <property name="meta.media.colorspace">601</property>
  <property name="meta.media.width">1280</property>
  <property name="meta.media.height">720</property>
  <property name="meta.media.top_field_first">0</property>
  <property name="meta.media.progressive">1</property>
 </producer>
 <producer in="0" out="1022" id="23">
  <property name="mlt_type">producer</property>
  <property name="length">1023</property>
  <property name="eof">pause</property>
  <property name="resource">Documents/Projets Musique/Barons Freaks/COURTS METRAGES - MAIN/COURTS METRAGES/EpisodeIII/MVI_7827.MOV</property>
  <property name="meta.media.nb_streams">1</property>
  <property name="meta.media.0.stream.type">video</property>
  <property name="meta.media.0.stream.frame_rate">50</property>
  <property name="meta.media.0.stream.sample_aspect_ratio">0</property>
  <property name="meta.media.0.codec.width">1280</property>
  <property name="meta.media.0.codec.height">720</property>
  <property name="meta.media.0.codec.frame_rate">inf</property>
  <property name="meta.media.0.codec.pix_fmt">yuvj420p</property>
  <property name="meta.media.0.codec.sample_aspect_ratio">0</property>
  <property name="meta.media.0.codec.colorspace">601</property>
  <property name="meta.media.0.codec.name">h264</property>
  <property name="meta.media.0.codec.long_name">H.264 / AVC / MPEG-4 AVC / MPEG-4 part 10</property>
  <property name="meta.media.0.codec.bit_rate">45792311</property>
  <property name="meta.attr.0.stream.creation_time.markup">2016-11-11 16:08:38</property>
  <property name="meta.attr.0.stream.language.markup">eng</property>
  <property name="meta.attr.major_brand.markup">qt  </property>
  <property name="meta.attr.minor_version.markup">537331968</property>
  <property name="meta.attr.compatible_brands.markup">qt  CAEP</property>
  <property name="meta.attr.creation_time.markup">2016-11-11 16:08:38</property>
  <property name="seekable">1</property>
  <property name="meta.media.sample_aspect_num">1</property>
  <property name="meta.media.sample_aspect_den">1</property>
  <property name="aspect_ratio">1</property>
  <property name="audio_index">-1</property>
  <property name="video_index">0</property>
  <property name="mlt_service">avformat</property>
  <property name="meta.media.frame_rate_num">50</property>
  <property name="meta.media.frame_rate_den">1</property>
  <property name="meta.media.colorspace">601</property>
  <property name="meta.media.width">1280</property>
  <property name="meta.media.height">720</property>
  <property name="meta.media.top_field_first">0</property>
  <property name="meta.media.progressive">1</property>
 </producer>
 <producer in="0" out="3349" id="28_1">
  <property name="mlt_type">producer</property>
  <property name="length">3350</property>
  <property name="eof">pause</property>
  <property name="resource">Documents/Projets Musique/Barons Freaks/COURTS METRAGES - MAIN/poubelle_a_rush/EpIII_coiffure/DSC_7846.MOV</property>
  <property name="meta.media.nb_streams">2</property>
  <property name="meta.media.0.stream.type">video</property>
  <property name="meta.media.0.stream.frame_rate">25</property>
  <property name="meta.media.0.stream.sample_aspect_ratio">0</property>
  <property name="meta.media.0.codec.width">1280</property>
  <property name="meta.media.0.codec.height">720</property>
  <property name="meta.media.0.codec.frame_rate">25</property>
  <property name="meta.media.0.codec.pix_fmt">yuvj420p</property>
  <property name="meta.media.0.codec.sample_aspect_ratio">1</property>
  <property name="meta.media.0.codec.colorspace">601</property>
  <property name="meta.media.0.codec.name">h264</property>
  <property name="meta.media.0.codec.long_name">H.264 / AVC / MPEG-4 AVC / MPEG-4 part 10</property>
  <property name="meta.media.0.codec.bit_rate">10682609</property>
  <property name="meta.attr.0.stream.creation_time.markup">2016-11-11 15:57:17</property>
  <property name="meta.attr.0.stream.language.markup">eng</property>
  <property name="meta.media.1.stream.type">audio</property>
  <property name="meta.media.1.codec.sample_fmt">s16</property>
  <property name="meta.media.1.codec.sample_rate">24000</property>
  <property name="meta.media.1.codec.channels">1</property>
  <property name="meta.media.1.codec.name">pcm_s16le</property>
  <property name="meta.media.1.codec.long_name">PCM signed 16-bit little-endian</property>
  <property name="meta.media.1.codec.bit_rate">0</property>
  <property name="meta.attr.1.stream.creation_time.markup">2016-11-11 15:57:17</property>
  <property name="meta.attr.1.stream.language.markup">eng</property>
  <property name="meta.attr.major_brand.markup">qt  </property>
  <property name="meta.attr.minor_version.markup">537331968</property>
  <property name="meta.attr.compatible_brands.markup">qt  niko</property>
  <property name="meta.attr.creation_time.markup">2016-11-11 15:57:17</property>
  <property name="seekable">1</property>
  <property name="meta.media.sample_aspect_num">1</property>
  <property name="meta.media.sample_aspect_den">1</property>
  <property name="aspect_ratio">1</property>
  <property name="audio_index">1</property>
  <property name="video_index">0</property>
  <property name="mlt_service">avformat</property>
  <property name="meta.media.frame_rate_num">25</property>
  <property name="meta.media.frame_rate_den">1</property>
  <property name="meta.media.colorspace">601</property>
  <property name="meta.media.width">1280</property>
  <property name="meta.media.height">720</property>
  <property name="meta.media.top_field_first">0</property>
  <property name="meta.media.progressive">1</property>
 </producer>
 <producer in="0" out="1192" id="29_1">
  <property name="mlt_type">producer</property>
  <property name="length">1193</property>
  <property name="eof">pause</property>
  <property name="resource">Documents/Projets Musique/Barons Freaks/COURTS METRAGES - MAIN/poubelle_a_rush/EpIII_coiffure/DSC_7843.MOV</property>
  <property name="meta.media.nb_streams">2</property>
  <property name="meta.media.0.stream.type">video</property>
  <property name="meta.media.0.stream.frame_rate">25</property>
  <property name="meta.media.0.stream.sample_aspect_ratio">0</property>
  <property name="meta.media.0.codec.width">1280</property>
  <property name="meta.media.0.codec.height">720</property>
  <property name="meta.media.0.codec.frame_rate">25</property>
  <property name="meta.media.0.codec.pix_fmt">yuvj420p</property>
  <property name="meta.media.0.codec.sample_aspect_ratio">1</property>
  <property name="meta.media.0.codec.colorspace">601</property>
  <property name="meta.media.0.codec.name">h264</property>
  <property name="meta.media.0.codec.long_name">H.264 / AVC / MPEG-4 AVC / MPEG-4 part 10</property>
  <property name="meta.media.0.codec.bit_rate">10993306</property>
  <property name="meta.attr.0.stream.creation_time.markup">2016-11-11 15:47:33</property>
  <property name="meta.attr.0.stream.language.markup">eng</property>
  <property name="meta.media.1.stream.type">audio</property>
  <property name="meta.media.1.codec.sample_fmt">s16</property>
  <property name="meta.media.1.codec.sample_rate">24000</property>
  <property name="meta.media.1.codec.channels">1</property>
  <property name="meta.media.1.codec.name">pcm_s16le</property>
  <property name="meta.media.1.codec.long_name">PCM signed 16-bit little-endian</property>
  <property name="meta.media.1.codec.bit_rate">0</property>
  <property name="meta.attr.1.stream.creation_time.markup">2016-11-11 15:47:33</property>
  <property name="meta.attr.1.stream.language.markup">eng</property>
  <property name="meta.attr.major_brand.markup">qt  </property>
  <property name="meta.attr.minor_version.markup">537331968</property>
  <property name="meta.attr.compatible_brands.markup">qt  niko</property>
  <property name="meta.attr.creation_time.markup">2016-11-11 15:47:33</property>
  <property name="seekable">1</property>
  <property name="meta.media.sample_aspect_num">1</property>
  <property name="meta.media.sample_aspect_den">1</property>
  <property name="aspect_ratio">1</property>
  <property name="audio_index">1</property>
  <property name="video_index">0</property>
  <property name="mlt_service">avformat</property>
  <property name="meta.media.frame_rate_num">25</property>
  <property name="meta.media.frame_rate_den">1</property>
  <property name="meta.media.colorspace">601</property>
  <property name="meta.media.width">1280</property>
  <property name="meta.media.height">720</property>
  <property name="meta.media.top_field_first">0</property>
  <property name="meta.media.progressive">1</property>
 </producer>
 <producer in="0" out="277" id="30_1">
  <property name="mlt_type">producer</property>
  <property name="length">278</property>
  <property name="eof">pause</property>
  <property name="resource">Documents/Projets Musique/Barons Freaks/COURTS METRAGES - MAIN/COURTS METRAGES/EpisodeIII/DSC_7863.MOV</property>
  <property name="meta.media.nb_streams">2</property>
  <property name="meta.media.0.stream.type">video</property>
  <property name="meta.media.0.stream.frame_rate">25</property>
  <property name="meta.media.0.stream.sample_aspect_ratio">0</property>
  <property name="meta.media.0.codec.width">1280</property>
  <property name="meta.media.0.codec.height">720</property>
  <property name="meta.media.0.codec.frame_rate">25</property>
  <property name="meta.media.0.codec.pix_fmt">yuvj420p</property>
  <property name="meta.media.0.codec.sample_aspect_ratio">1</property>
  <property name="meta.media.0.codec.colorspace">601</property>
  <property name="meta.media.0.codec.name">h264</property>
  <property name="meta.media.0.codec.long_name">H.264 / AVC / MPEG-4 AVC / MPEG-4 part 10</property>
  <property name="meta.media.0.codec.bit_rate">10249086</property>
  <property name="meta.attr.0.stream.creation_time.markup">2016-11-11 17:04:20</property>
  <property name="meta.attr.0.stream.language.markup">eng</property>
  <property name="meta.media.1.stream.type">audio</property>
  <property name="meta.media.1.codec.sample_fmt">s16</property>
  <property name="meta.media.1.codec.sample_rate">24000</property>
  <property name="meta.media.1.codec.channels">1</property>
  <property name="meta.media.1.codec.name">pcm_s16le</property>
  <property name="meta.media.1.codec.long_name">PCM signed 16-bit little-endian</property>
  <property name="meta.media.1.codec.bit_rate">0</property>
  <property name="meta.attr.1.stream.creation_time.markup">2016-11-11 17:04:20</property>
  <property name="meta.attr.1.stream.language.markup">eng</property>
  <property name="meta.attr.major_brand.markup">qt  </property>
  <property name="meta.attr.minor_version.markup">537331968</property>
  <property name="meta.attr.compatible_brands.markup">qt  niko</property>
  <property name="meta.attr.creation_time.markup">2016-11-11 17:04:20</property>
  <property name="seekable">1</property>
  <property name="meta.media.sample_aspect_num">1</property>
  <property name="meta.media.sample_aspect_den">1</property>
  <property name="aspect_ratio">1</property>
  <property name="audio_index">1</property>
  <property name="video_index">0</property>
  <property name="mlt_service">avformat</property>
  <property name="meta.media.frame_rate_num">25</property>
  <property name="meta.media.frame_rate_den">1</property>
  <property name="meta.media.colorspace">601</property>
  <property name="meta.media.width">1280</property>
  <property name="meta.media.height">720</property>
  <property name="meta.media.top_field_first">0</property>
  <property name="meta.media.progressive">1</property>
 </producer>
 <producer in="0" out="730" id="25_1">
  <property name="mlt_type">producer</property>
  <property name="length">731</property>
  <property name="eof">pause</property>
  <property name="resource">Documents/Projets Musique/Barons Freaks/COURTS METRAGES - MAIN/COURTS METRAGES/EpisodeIII/DSC_7849.MOV</property>
  <property name="meta.media.nb_streams">2</property>
  <property name="meta.media.0.stream.type">video</property>
  <property name="meta.media.0.stream.frame_rate">25</property>
  <property name="meta.media.0.stream.sample_aspect_ratio">0</property>
  <property name="meta.media.0.codec.width">1280</property>
  <property name="meta.media.0.codec.height">720</property>
  <property name="meta.media.0.codec.frame_rate">25</property>
  <property name="meta.media.0.codec.pix_fmt">yuvj420p</property>
  <property name="meta.media.0.codec.sample_aspect_ratio">1</property>
  <property name="meta.media.0.codec.colorspace">601</property>
  <property name="meta.media.0.codec.name">h264</property>
  <property name="meta.media.0.codec.long_name">H.264 / AVC / MPEG-4 AVC / MPEG-4 part 10</property>
  <property name="meta.media.0.codec.bit_rate">11126119</property>
  <property name="meta.attr.0.stream.creation_time.markup">2016-11-11 16:05:06</property>
  <property name="meta.attr.0.stream.language.markup">eng</property>
  <property name="meta.media.1.stream.type">audio</property>
  <property name="meta.media.1.codec.sample_fmt">s16</property>
  <property name="meta.media.1.codec.sample_rate">24000</property>
  <property name="meta.media.1.codec.channels">1</property>
  <property name="meta.media.1.codec.name">pcm_s16le</property>
  <property name="meta.media.1.codec.long_name">PCM signed 16-bit little-endian</property>
  <property name="meta.media.1.codec.bit_rate">0</property>
  <property name="meta.attr.1.stream.creation_time.markup">2016-11-11 16:05:06</property>
  <property name="meta.attr.1.stream.language.markup">eng</property>
  <property name="meta.attr.major_brand.markup">qt  </property>
  <property name="meta.attr.minor_version.markup">537331968</property>
  <property name="meta.attr.compatible_brands.markup">qt  niko</property>
  <property name="meta.attr.creation_time.markup">2016-11-11 16:05:06</property>
  <property name="seekable">1</property>
  <property name="meta.media.sample_aspect_num">1</property>
  <property name="meta.media.sample_aspect_den">1</property>
  <property name="aspect_ratio">1</property>
  <property name="audio_index">1</property>
  <property name="video_index">0</property>
  <property name="mlt_service">avformat</property>
  <property name="meta.media.frame_rate_num">25</property>
  <property name="meta.media.frame_rate_den">1</property>
  <property name="meta.media.colorspace">601</property>
  <property name="meta.media.width">1280</property>
  <property name="meta.media.height">720</property>
  <property name="meta.media.top_field_first">0</property>
  <property name="meta.media.progressive">1</property>
 </producer>
 <producer in="0" out="1270" id="31_1">
  <property name="mlt_type">producer</property>
  <property name="length">1271</property>
  <property name="eof">pause</property>
  <property name="resource">Documents/Projets Musique/Barons Freaks/COURTS METRAGES - MAIN/COURTS METRAGES/EpisodeIII/DSC_7859.MOV</property>
  <property name="meta.media.nb_streams">2</property>
  <property name="meta.media.0.stream.type">video</property>
  <property name="meta.media.0.stream.frame_rate">25</property>
  <property name="meta.media.0.stream.sample_aspect_ratio">0</property>
  <property name="meta.media.0.codec.width">1280</property>
  <property name="meta.media.0.codec.height">720</property>
  <property name="meta.media.0.codec.frame_rate">25</property>
  <property name="meta.media.0.codec.pix_fmt">yuvj420p</property>
  <property name="meta.media.0.codec.sample_aspect_ratio">1</property>
  <property name="meta.media.0.codec.colorspace">601</property>
  <property name="meta.media.0.codec.name">h264</property>
  <property name="meta.media.0.codec.long_name">H.264 / AVC / MPEG-4 AVC / MPEG-4 part 10</property>
  <property name="meta.media.0.codec.bit_rate">10979900</property>
  <property name="meta.attr.0.stream.creation_time.markup">2016-11-11 16:42:36</property>
  <property name="meta.attr.0.stream.language.markup">eng</property>
  <property name="meta.media.1.stream.type">audio</property>
  <property name="meta.media.1.codec.sample_fmt">s16</property>
  <property name="meta.media.1.codec.sample_rate">24000</property>
  <property name="meta.media.1.codec.channels">1</property>
  <property name="meta.media.1.codec.name">pcm_s16le</property>
  <property name="meta.media.1.codec.long_name">PCM signed 16-bit little-endian</property>
  <property name="meta.media.1.codec.bit_rate">0</property>
  <property name="meta.attr.1.stream.creation_time.markup">2016-11-11 16:42:36</property>
  <property name="meta.attr.1.stream.language.markup">eng</property>
  <property name="meta.attr.major_brand.markup">qt  </property>
  <property name="meta.attr.minor_version.markup">537331968</property>
  <property name="meta.attr.compatible_brands.markup">qt  niko</property>
  <property name="meta.attr.creation_time.markup">2016-11-11 16:42:36</property>
  <property name="seekable">1</property>
  <property name="meta.media.sample_aspect_num">1</property>
  <property name="meta.media.sample_aspect_den">1</property>
  <property name="aspect_ratio">1</property>
  <property name="audio_index">1</property>
  <property name="video_index">0</property>
  <property name="mlt_service">avformat</property>
  <property name="meta.media.frame_rate_num">25</property>
  <property name="meta.media.frame_rate_den">1</property>
  <property name="meta.media.colorspace">601</property>
  <property name="meta.media.width">1280</property>
  <property name="meta.media.height">720</property>
  <property name="meta.media.top_field_first">0</property>
  <property name="meta.media.progressive">1</property>
 </producer>
 <producer in="0" out="408" id="slowmotion:38:2">
  <property name="mlt_type">producer</property>
  <property name="length">409</property>
  <property name="eof">pause</property>
  <property name="resource">Documents/Projets Musique/Barons Freaks/COURTS METRAGES - MAIN/COURTS METRAGES/EpisodeIII/DSC_7836.MOV?2</property>
  <property name="aspect_ratio">1</property>
  <property name="mlt_service">framebuffer</property>
  <property name="strobe">1</property>
 </producer>
 <producer in="0" out="723" id="83_1">
  <property name="mlt_type">producer</property>
  <property name="length">724</property>
  <property name="eof">pause</property>
  <property name="resource">Documents/Projets Musique/Barons Freaks/COURTS METRAGES - MAIN/COURTS METRAGES/EpisodeIII/Sources/Videos/Damien 2/DSC_0009.MOV</property>
  <property name="meta.media.nb_streams">2</property>
  <property name="meta.media.0.stream.type">video</property>
  <property name="meta.media.0.stream.frame_rate">23,976</property>
  <property name="meta.media.0.stream.sample_aspect_ratio">0</property>
  <property name="meta.media.0.codec.width">1920</property>
  <property name="meta.media.0.codec.height">1080</property>
  <property name="meta.media.0.codec.frame_rate">23,976</property>
  <property name="meta.media.0.codec.pix_fmt">yuvj420p</property>
  <property name="meta.media.0.codec.sample_aspect_ratio">1</property>
  <property name="meta.media.0.codec.colorspace">601</property>
  <property name="meta.media.0.codec.name">h264</property>
  <property name="meta.media.0.codec.long_name">H.264 / AVC / MPEG-4 AVC / MPEG-4 part 10</property>
  <property name="meta.media.0.codec.bit_rate">20271444</property>
  <property name="meta.attr.0.stream.creation_time.markup">2017-05-04 19:57:12</property>
  <property name="meta.attr.0.stream.language.markup">eng</property>
  <property name="meta.media.1.stream.type">audio</property>
  <property name="meta.media.1.codec.sample_fmt">s16</property>
  <property name="meta.media.1.codec.sample_rate">24000</property>
  <property name="meta.media.1.codec.channels">1</property>
  <property name="meta.media.1.codec.name">pcm_s16le</property>
  <property name="meta.media.1.codec.long_name">PCM signed 16-bit little-endian</property>
  <property name="meta.media.1.codec.bit_rate">0</property>
  <property name="meta.attr.1.stream.creation_time.markup">2017-05-04 19:57:12</property>
  <property name="meta.attr.1.stream.language.markup">eng</property>
  <property name="meta.attr.major_brand.markup">qt  </property>
  <property name="meta.attr.minor_version.markup">537331968</property>
  <property name="meta.attr.compatible_brands.markup">qt  niko</property>
  <property name="meta.attr.creation_time.markup">2017-05-04 19:57:12</property>
  <property name="seekable">1</property>
  <property name="meta.media.sample_aspect_num">1</property>
  <property name="meta.media.sample_aspect_den">1</property>
  <property name="aspect_ratio">1</property>
  <property name="audio_index">1</property>
  <property name="video_index">0</property>
  <property name="mlt_service">avformat</property>
  <property name="meta.media.frame_rate_num">24000</property>
  <property name="meta.media.frame_rate_den">1001</property>
  <property name="meta.media.colorspace">601</property>
  <property name="meta.media.width">1920</property>
  <property name="meta.media.height">1080</property>
  <property name="meta.media.top_field_first">0</property>
  <property name="meta.media.progressive">1</property>
 </producer>
 <producer in="0" out="181" id="75">
  <property name="mlt_type">producer</property>
  <property name="length">182</property>
  <property name="eof">pause</property>
  <property name="resource">Documents/Projets Musique/Barons Freaks/COURTS METRAGES - MAIN/COURTS METRAGES/EpisodeIII/panneaux/revenez je n'ai pas eu le temps de vous payer.png</property>
  <property name="ttl">25</property>
  <property name="aspect_ratio">1</property>
  <property name="progressive">1</property>
  <property name="seekable">1</property>
  <property name="loop">1</property>
  <property name="meta.media.width">1280</property>
  <property name="meta.media.height">720</property>
  <property name="mlt_service">pixbuf</property>
 </producer>
 <playlist id="playlist4">
  <blank length="105"/>
  <entry in="0" out="96" producer="81">
   <filter out="22" id="filter0">
    <property name="track">0</property>
    <property name="start">0</property>
    <property name="mlt_type">filter</property>
    <property name="mlt_service">brightness</property>
    <property name="kdenlive_id">fade_from_black</property>
    <property name="tag">brightness</property>
    <property name="kdenlive_ix">1</property>
    <property name="end">1</property>
   </filter>
   <filter id="filter1">
    <property name="track">0</property>
    <property name="version">0,1</property>
    <property name="mlt_type">filter</property>
    <property name="mlt_service">frei0r.scale0tilt</property>
    <property name="kdenlive_id">frei0r.scale0tilt</property>
    <property name="tag">frei0r.scale0tilt</property>
    <property name="kdenlive_ix">2</property>
    <property name="Clip left">0</property>
    <property name="Clip right">0</property>
    <property name="Clip top">0</property>
    <property name="Clip bottom">0</property>
    <property name="Scale X">0,5</property>
    <property name="Scale Y">0,5</property>
    <property name="Tilt X">0,516406</property>
    <property name="Tilt Y">0,5</property>
   </filter>
  </entry>
  <entry in="0" out="124" producer="82">
   <filter id="filter2">
    <property name="track">0</property>
    <property name="version">0,1</property>
    <property name="mlt_type">filter</property>
    <property name="mlt_service">frei0r.scale0tilt</property>
    <property name="kdenlive_id">frei0r.scale0tilt</property>
    <property name="tag">frei0r.scale0tilt</property>
    <property name="kdenlive_ix">1</property>
    <property name="Clip left">0</property>
    <property name="Clip right">0</property>
    <property name="Clip top">0</property>
    <property name="Clip bottom">0</property>
    <property name="Scale X">0,5</property>
    <property name="Scale Y">0,5</property>
    <property name="Tilt X">0,516406</property>
    <property name="Tilt Y">0,5</property>
   </filter>
   <filter in="95" out="124" id="filter3">
    <property name="track">0</property>
    <property name="start">1</property>
    <property name="mlt_type">filter</property>
    <property name="mlt_service">brightness</property>
    <property name="kdenlive_id">fade_to_black</property>
    <property name="tag">brightness</property>
    <property name="kdenlive_ix">2</property>
    <property name="end">0</property>
   </filter>
  </entry>
  <blank length="27"/>
  <entry in="0" out="170" producer="72"/>
  <entry in="122" out="734" producer="56_1">
   <filter in="122" out="222" id="filter5">
    <property name="track">0</property>
    <property name="start">0</property>
    <property name="mlt_type">filter</property>
    <property name="mlt_service">brightness</property>
    <property name="kdenlive_id">fade_from_black</property>
    <property name="tag">brightness</property>
    <property name="kdenlive_ix">1</property>
    <property name="end">1</property>
    <property name="kdenlive_info"/>
   </filter>
   <filter id="filter6">
    <property name="track">0</property>
    <property name="version">0,1</property>
    <property name="mlt_type">filter</property>
    <property name="mlt_service">frei0r.scale0tilt</property>
    <property name="kdenlive_id">frei0r.scale0tilt</property>
    <property name="tag">frei0r.scale0tilt</property>
    <property name="kdenlive_ix">2</property>
    <property name="Clip left">0</property>
    <property name="Clip right">0</property>
    <property name="Clip top">0</property>
    <property name="Clip bottom">0</property>
    <property name="Scale X">0,5</property>
    <property name="Scale Y">0,5</property>
    <property name="Tilt X">0,45</property>
    <property name="Tilt Y">0,5</property>
    <property name="kdenlive_info"/>
   </filter>
  </entry>
  <entry in="0" out="83" producer="59"/>
  <entry in="735" out="1675" producer="56_1">
   <filter id="filter7">
    <property name="track">0</property>
    <property name="version">0,1</property>
    <property name="mlt_type">filter</property>
    <property name="mlt_service">frei0r.scale0tilt</property>
    <property name="kdenlive_id">frei0r.scale0tilt</property>
    <property name="tag">frei0r.scale0tilt</property>
    <property name="kdenlive_ix">1</property>
    <property name="Clip left">0</property>
    <property name="Clip right">0</property>
    <property name="Clip top">0</property>
    <property name="Clip bottom">0</property>
    <property name="Scale X">0,5</property>
    <property name="Scale Y">0,5</property>
    <property name="Tilt X">0,45</property>
    <property name="Tilt Y">0,5</property>
    <property name="kdenlive_info"/>
   </filter>
  </entry>
  <entry in="0" out="57" producer="57_1"/>
  <entry in="1676" out="1913" producer="56_1">
   <filter in="2631" out="2694" id="filter8">
    <property name="track">0</property>
    <property name="start">1</property>
    <property name="mlt_type">filter</property>
    <property name="mlt_service">brightness</property>
    <property name="kdenlive_id">fade_to_black</property>
    <property name="tag">brightness</property>
    <property name="kdenlive_ix">1</property>
    <property name="end">0</property>
   </filter>
   <filter id="filter9">
    <property name="track">0</property>
    <property name="version">0,1</property>
    <property name="mlt_type">filter</property>
    <property name="mlt_service">frei0r.scale0tilt</property>
    <property name="kdenlive_id">frei0r.scale0tilt</property>
    <property name="tag">frei0r.scale0tilt</property>
    <property name="kdenlive_ix">2</property>
    <property name="Clip left">0</property>
    <property name="Clip right">0</property>
    <property name="Clip top">0</property>
    <property name="Clip bottom">0</property>
    <property name="Scale X">0,5</property>
    <property name="Scale Y">0,5</property>
    <property name="Tilt X">0,45</property>
    <property name="Tilt Y">0,5</property>
    <property name="kdenlive_info"/>
   </filter>
  </entry>
  <entry in="0" out="53" producer="62"/>
  <entry in="0" out="124" producer="61"/>
  <entry in="1914" out="2212" producer="56_1">
   <filter in="2631" out="2694" id="filter10">
    <property name="track">0</property>
    <property name="start">1</property>
    <property name="mlt_type">filter</property>
    <property name="mlt_service">brightness</property>
    <property name="kdenlive_id">fade_to_black</property>
    <property name="tag">brightness</property>
    <property name="kdenlive_ix">1</property>
    <property name="end">0</property>
   </filter>
   <filter id="filter11">
    <property name="track">0</property>
    <property name="version">0,1</property>
    <property name="mlt_type">filter</property>
    <property name="mlt_service">frei0r.scale0tilt</property>
    <property name="kdenlive_id">frei0r.scale0tilt</property>
    <property name="tag">frei0r.scale0tilt</property>
    <property name="kdenlive_ix">2</property>
    <property name="Clip left">0</property>
    <property name="Clip right">0</property>
    <property name="Clip top">0</property>
    <property name="Clip bottom">0</property>
    <property name="Scale X">0,5</property>
    <property name="Scale Y">0,5</property>
    <property name="Tilt X">0,45</property>
    <property name="Tilt Y">0,5</property>
    <property name="kdenlive_info"/>
   </filter>
  </entry>
  <entry in="0" out="76" producer="60"/>
  <entry in="2213" out="2582" producer="56_1">
   <filter in="2631" out="2694" id="filter12">
    <property name="track">0</property>
    <property name="start">1</property>
    <property name="mlt_type">filter</property>
    <property name="mlt_service">brightness</property>
    <property name="kdenlive_id">fade_to_black</property>
    <property name="tag">brightness</property>
    <property name="kdenlive_ix">1</property>
    <property name="end">0</property>
   </filter>
   <filter id="filter13">
    <property name="track">0</property>
    <property name="version">0,1</property>
    <property name="mlt_type">filter</property>
    <property name="mlt_service">frei0r.scale0tilt</property>
    <property name="kdenlive_id">frei0r.scale0tilt</property>
    <property name="tag">frei0r.scale0tilt</property>
    <property name="kdenlive_ix">2</property>
    <property name="Clip left">0</property>
    <property name="Clip right">0</property>
    <property name="Clip top">0</property>
    <property name="Clip bottom">0</property>
    <property name="Scale X">0,5</property>
    <property name="Scale Y">0,5</property>
    <property name="Tilt X">0,45</property>
    <property name="Tilt Y">0,5</property>
    <property name="kdenlive_info"/>
   </filter>
  </entry>
  <entry in="2583" out="2694" producer="56_1">
   <filter in="2631" out="2694" id="filter14">
    <property name="track">0</property>
    <property name="start">1</property>
    <property name="mlt_type">filter</property>
    <property name="mlt_service">brightness</property>
    <property name="kdenlive_id">fade_to_black</property>
    <property name="tag">brightness</property>
    <property name="kdenlive_ix">1</property>
    <property name="end">0</property>
   </filter>
   <filter id="filter15">
    <property name="track">0</property>
    <property name="version">0,1</property>
    <property name="mlt_type">filter</property>
    <property name="mlt_service">frei0r.scale0tilt</property>
    <property name="kdenlive_id">frei0r.scale0tilt</property>
    <property name="tag">frei0r.scale0tilt</property>
    <property name="kdenlive_ix">2</property>
    <property name="Clip left">0</property>
    <property name="Clip right">0</property>
    <property name="Clip top">0</property>
    <property name="Clip bottom">0</property>
    <property name="Scale X">0,5</property>
    <property name="Scale Y">0,5</property>
    <property name="Tilt X">0,45</property>
    <property name="Tilt Y">0,5</property>
    <property name="kdenlive_info"/>
   </filter>
  </entry>
  <blank length="20"/>
  <entry in="0" out="140" producer="58_1">
   <filter out="89" id="filter16">
    <property name="track">0</property>
    <property name="start">0</property>
    <property name="mlt_type">filter</property>
    <property name="mlt_service">brightness</property>
    <property name="kdenlive_id">fade_from_black</property>
    <property name="tag">brightness</property>
    <property name="kdenlive_ix">1</property>
    <property name="end">1</property>
   </filter>
   <filter id="filter17">
    <property name="track">0</property>
    <property name="version">0,1</property>
    <property name="mlt_type">filter</property>
    <property name="mlt_service">frei0r.scale0tilt</property>
    <property name="kdenlive_id">frei0r.scale0tilt</property>
    <property name="tag">frei0r.scale0tilt</property>
    <property name="kdenlive_ix">2</property>
    <property name="Clip left">0</property>
    <property name="Clip right">0</property>
    <property name="Clip top">0</property>
    <property name="Clip bottom">0</property>
    <property name="Scale X">0,5</property>
    <property name="Scale Y">0,5</property>
    <property name="Tilt X">0,522656</property>
    <property name="Tilt Y">0,5</property>
    <property name="kdenlive_info"/>
   </filter>
  </entry>
  <entry in="57" out="589" producer="slowmotion:43:1,1"/>
  <entry in="145" out="573" producer="slowmotion:44:1,2">
   <filter id="filter18">
    <property name="track">0</property>
    <property name="version">0,1</property>
    <property name="mlt_type">filter</property>
    <property name="mlt_service">frei0r.scale0tilt</property>
    <property name="kdenlive_id">frei0r.scale0tilt</property>
    <property name="tag">frei0r.scale0tilt</property>
    <property name="kdenlive_ix">1</property>
    <property name="Clip left">0</property>
    <property name="Clip right">0</property>
    <property name="Clip top">0</property>
    <property name="Clip bottom">0</property>
    <property name="Scale X">0,5</property>
    <property name="Scale Y">0,5</property>
    <property name="Tilt X">0,442188</property>
    <property name="Tilt Y">0,5</property>
    <property name="kdenlive_info"/>
   </filter>
   <filter in="541" out="573" id="filter19">
    <property name="track">0</property>
    <property name="start">1</property>
    <property name="mlt_type">filter</property>
    <property name="mlt_service">brightness</property>
    <property name="kdenlive_id">fade_to_black</property>
    <property name="tag">brightness</property>
    <property name="kdenlive_ix">2</property>
    <property name="end">0</property>
    <property name="kdenlive_info"/>
   </filter>
  </entry>
  <entry in="148" out="235" producer="45_1">
   <filter in="148" out="170" id="filter20">
    <property name="track">0</property>
    <property name="start">0</property>
    <property name="mlt_type">filter</property>
    <property name="mlt_service">brightness</property>
    <property name="kdenlive_id">fade_from_black</property>
    <property name="tag">brightness</property>
    <property name="kdenlive_ix">1</property>
    <property name="end">1</property>
    <property name="kdenlive_info"/>
   </filter>
  </entry>
  <entry in="276" out="388" producer="42_1"/>
  <entry in="395" out="468" producer="45_1"/>
  <entry in="434" out="867" producer="42_1"/>
  <entry in="60" out="186" producer="46_1"/>
  <entry in="0" out="81" producer="69"/>
  <entry in="187" out="276" producer="46_1"/>
  <entry in="1040" out="1418" producer="42_1"/>
  <entry in="70" out="149" producer="47_1"/>
  <entry in="1545" out="1842" producer="42_1"/>
  <entry in="2582" out="2629" producer="49_1"/>
  <entry in="1606" out="2117" producer="slowmotion:42_1:1,15"/>
  <entry in="0" out="94" producer="74"/>
  <entry in="2058" out="2103" producer="49_1"/>
  <entry in="2118" out="2458" producer="slowmotion:42_1:1,15"/>
  <entry in="2620" out="3295" producer="slowmotion:42_1:1,15"/>
  <entry in="3012" out="3397" producer="slowmotion:48_1:1,1"/>
  <entry in="4132" out="4599" producer="slowmotion:42_1:1,15"/>
  <entry in="865" out="960" producer="49_1"/>
  <entry in="4760" out="4819" producer="slowmotion:42_1:1,15"/>
  <entry in="0" out="97" producer="66"/>
  <entry in="6093" out="6343" producer="slowmotion:42_1:1,15"/>
  <entry in="323" out="419" producer="50_1"/>
  <entry in="7349" out="7676" producer="42_1"/>
  <entry in="48" out="99" producer="51_1"/>
  <entry in="6666" out="7075" producer="slowmotion:42_1:1,15"/>
  <entry in="0" out="124" producer="67"/>
  <entry in="7076" out="7166" producer="slowmotion:42_1:1,15"/>
  <entry in="403" out="446" producer="53_1"/>
  <entry in="7516" out="7645" producer="slowmotion:42_1:1,1"/>
  <entry in="718" out="805" producer="53_1"/>
  <entry in="808" out="879" producer="53_1"/>
  <entry in="8557" out="8695" producer="42_1"/>
  <entry in="809" out="843" producer="slowmotion:53_1:1,3"/>
  <entry in="846" out="862" producer="slowmotion:53_1:1,3"/>
  <entry in="865" out="923" producer="slowmotion:53_1:1,3"/>
  <entry in="8895" out="8975" producer="42_1"/>
  <entry in="1202" out="1257" producer="53_1"/>
  <entry in="85" out="157" producer="54_1"/>
  <entry in="159" out="159" producer="54_1"/>
  <entry in="161" out="180" producer="54_1"/>
  <entry in="8225" out="8485" producer="slowmotion:42_1:1,1"/>
  <entry in="0" out="71" producer="68"/>
  <entry in="2154" out="2242" producer="55_1"/>
  <entry in="8539" out="9213" producer="slowmotion:42_1:1,1">
   <filter in="10108" out="10135" id="filter21">
    <property name="track">0</property>
    <property name="start">1</property>
    <property name="mlt_type">filter</property>
    <property name="mlt_service">brightness</property>
    <property name="kdenlive_id">fade_to_black</property>
    <property name="tag">brightness</property>
    <property name="kdenlive_ix">1</property>
    <property name="end">0</property>
   </filter>
  </entry>
  <blank length="18"/>
  <entry in="210" out="437" producer="84_1">
   <filter in="210" out="240" id="filter22">
    <property name="track">0</property>
    <property name="start">0</property>
    <property name="mlt_type">filter</property>
    <property name="mlt_service">brightness</property>
    <property name="kdenlive_id">fade_from_black</property>
    <property name="tag">brightness</property>
    <property name="kdenlive_ix">1</property>
    <property name="end">1</property>
    <property name="kdenlive_info"/>
   </filter>
  </entry>
  <entry in="94" out="173" producer="85_1"/>
  <entry in="438" out="948" producer="84_1"/>
  <entry in="0" out="731" producer="5_1">
   <filter out="30" id="filter24">
    <property name="track">0</property>
    <property name="start">0</property>
    <property name="mlt_type">filter</property>
    <property name="mlt_service">brightness</property>
    <property name="kdenlive_id">fade_from_black</property>
    <property name="tag">brightness</property>
    <property name="kdenlive_ix">1</property>
    <property name="end">1</property>
   </filter>
  </entry>
  <entry in="133" out="1981" producer="4_1"/>
  <entry in="0" out="279" producer="6_1"/>
  <entry in="195" out="230" producer="8_1"/>
  <entry in="267" out="310" producer="6_1"/>
  <entry in="171" out="202" producer="7_1"/>
  <entry in="323" out="403" producer="6_1">
   <filter in="390" out="403" id="filter25">
    <property name="track">0</property>
    <property name="start">1</property>
    <property name="mlt_type">filter</property>
    <property name="mlt_service">brightness</property>
    <property name="kdenlive_id">fade_to_black</property>
    <property name="tag">brightness</property>
    <property name="kdenlive_ix">1</property>
    <property name="end">0</property>
    <property name="kdenlive_info"/>
   </filter>
  </entry>
  <entry in="154" out="370" producer="9">
   <filter in="154" out="175" id="filter26">
    <property name="track">0</property>
    <property name="start">0</property>
    <property name="mlt_type">filter</property>
    <property name="mlt_service">brightness</property>
    <property name="kdenlive_id">fade_from_black</property>
    <property name="tag">brightness</property>
    <property name="kdenlive_ix">1</property>
    <property name="end">1</property>
    <property name="kdenlive_info"/>
   </filter>
  </entry>
  <entry in="63" out="329" producer="11_1">
   <filter id="filter27">
    <property name="track">0</property>
    <property name="version">0,1</property>
    <property name="mlt_type">filter</property>
    <property name="mlt_service">frei0r.scale0tilt</property>
    <property name="kdenlive_id">frei0r.scale0tilt</property>
    <property name="tag">frei0r.scale0tilt</property>
    <property name="kdenlive_ix">1</property>
    <property name="Clip left">0</property>
    <property name="Clip right">0</property>
    <property name="Clip top">0</property>
    <property name="Clip bottom">0</property>
    <property name="Scale X">0,5</property>
    <property name="Scale Y">0,5</property>
    <property name="Tilt X">0,439844</property>
    <property name="Tilt Y">0,5</property>
    <property name="kdenlive_info"/>
   </filter>
  </entry>
  <entry in="0" out="48" producer="14">
   <filter id="filter28">
    <property name="track">0</property>
    <property name="version">0,1</property>
    <property name="mlt_type">filter</property>
    <property name="mlt_service">frei0r.scale0tilt</property>
    <property name="kdenlive_id">frei0r.scale0tilt</property>
    <property name="tag">frei0r.scale0tilt</property>
    <property name="kdenlive_ix">1</property>
    <property name="Clip left">0</property>
    <property name="Clip right">0</property>
    <property name="Clip top">0</property>
    <property name="Clip bottom">0</property>
    <property name="Scale X">0,55</property>
    <property name="Scale Y">0,55</property>
    <property name="Tilt X">0,489844</property>
    <property name="Tilt Y">0,370833</property>
    <property name="kdenlive_info"/>
    <property name="disable">0</property>
   </filter>
  </entry>
  <entry in="65" out="388" producer="15_1"/>
  <entry in="406" out="501" producer="11_1">
   <filter id="filter29">
    <property name="track">0</property>
    <property name="version">0,1</property>
    <property name="mlt_type">filter</property>
    <property name="mlt_service">frei0r.scale0tilt</property>
    <property name="kdenlive_id">frei0r.scale0tilt</property>
    <property name="tag">frei0r.scale0tilt</property>
    <property name="kdenlive_ix">1</property>
    <property name="kdenlive_info"/>
    <property name="Clip left">0</property>
    <property name="Clip right">0</property>
    <property name="Clip top">0</property>
    <property name="Clip bottom">0</property>
    <property name="Scale X">0,5</property>
    <property name="Scale Y">0,5</property>
    <property name="Tilt X">0,439844</property>
    <property name="Tilt Y">0,5</property>
   </filter>
  </entry>
  <entry in="142" out="496" producer="slowmotion:16:1,2">
   <filter in="475" out="496" id="filter30">
    <property name="track">0</property>
    <property name="start">1</property>
    <property name="mlt_type">filter</property>
    <property name="mlt_service">brightness</property>
    <property name="kdenlive_id">fade_to_black</property>
    <property name="tag">brightness</property>
    <property name="kdenlive_ix">1</property>
    <property name="end">0</property>
   </filter>
  </entry>
  <blank length="4"/>
  <entry in="604" out="1200" producer="17_1">
   <filter in="604" out="623" id="filter31">
    <property name="track">0</property>
    <property name="start">0</property>
    <property name="mlt_type">filter</property>
    <property name="mlt_service">brightness</property>
    <property name="kdenlive_id">fade_from_black</property>
    <property name="tag">brightness</property>
    <property name="kdenlive_ix">1</property>
    <property name="end">1</property>
   </filter>
   <filter in="1181" out="1201" id="filter32">
    <property name="track">0</property>
    <property name="start">1</property>
    <property name="mlt_type">filter</property>
    <property name="mlt_service">brightness</property>
    <property name="kdenlive_id">fade_to_black</property>
    <property name="tag">brightness</property>
    <property name="kdenlive_ix">2</property>
    <property name="end">0</property>
    <property name="kdenlive_info"/>
   </filter>
  </entry>
  <entry in="113" out="497" producer="24">
   <filter in="488" out="497" id="filter33">
    <property name="track">0</property>
    <property name="start">1</property>
    <property name="mlt_type">filter</property>
    <property name="mlt_service">brightness</property>
    <property name="kdenlive_id">fade_to_black</property>
    <property name="tag">brightness</property>
    <property name="kdenlive_ix">1</property>
    <property name="end">0</property>
   </filter>
  </entry>
  <entry in="28" out="305" producer="18_1">
   <filter in="28" out="38" id="filter34">
    <property name="track">0</property>
    <property name="start">0</property>
    <property name="mlt_type">filter</property>
    <property name="mlt_service">brightness</property>
    <property name="kdenlive_id">fade_from_black</property>
    <property name="tag">brightness</property>
    <property name="kdenlive_ix">1</property>
    <property name="end">1</property>
    <property name="kdenlive_info"/>
   </filter>
   <filter in="502" out="550" id="filter35">
    <property name="track">0</property>
    <property name="start">1</property>
    <property name="mlt_type">filter</property>
    <property name="mlt_service">brightness</property>
    <property name="kdenlive_id">fade_to_black</property>
    <property name="tag">brightness</property>
    <property name="kdenlive_ix">2</property>
    <property name="end">0</property>
    <property name="kdenlive_info"/>
   </filter>
  </entry>
  <entry in="235" out="311" producer="slowmotion:18_1:1,3">
   <filter in="502" out="550" id="filter36">
    <property name="track">0</property>
    <property name="start">1</property>
    <property name="mlt_type">filter</property>
    <property name="mlt_service">brightness</property>
    <property name="kdenlive_id">fade_to_black</property>
    <property name="tag">brightness</property>
    <property name="kdenlive_ix">1</property>
    <property name="end">0</property>
    <property name="kdenlive_info"/>
   </filter>
  </entry>
  <blank length="1"/>
  <entry in="410" out="549" producer="18_1"/>
  <blank length="12"/>
  <entry in="1355" out="1466" producer="20_1">
   <filter in="1355" out="1366" id="filter37">
    <property name="track">0</property>
    <property name="start">0</property>
    <property name="mlt_type">filter</property>
    <property name="mlt_service">brightness</property>
    <property name="kdenlive_id">fade_from_black</property>
    <property name="tag">brightness</property>
    <property name="kdenlive_ix">1</property>
    <property name="end">1</property>
   </filter>
  </entry>
  <entry in="1548" out="2033" producer="17_1"/>
  <entry in="586" out="696" producer="19"/>
  <entry in="1264" out="1536" producer="17_1"/>
  <entry in="568" out="736" producer="19"/>
  <entry in="0" out="104" producer="22_1"/>
  <entry in="612" out="738" producer="21"/>
  <entry in="0" out="104" producer="22_1"/>
  <entry in="1433" out="1496" producer="21"/>
  <entry in="0" out="66" producer="22_1"/>
  <entry in="2781" out="2882" producer="21"/>
  <entry in="202" out="352" producer="22_1"/>
  <entry in="606" out="670" producer="23"/>
  <entry in="415" out="502" producer="22_1"/>
  <entry in="4882" out="4901" producer="24"/>
  <entry in="467" out="713" producer="22_1">
   <filter in="690" out="713" id="filter38">
    <property name="track">0</property>
    <property name="start">1</property>
    <property name="mlt_type">filter</property>
    <property name="mlt_service">brightness</property>
    <property name="kdenlive_id">fade_to_black</property>
    <property name="tag">brightness</property>
    <property name="kdenlive_ix">1</property>
    <property name="end">0</property>
   </filter>
  </entry>
  <blank length="7"/>
  <entry in="2350" out="3109" producer="17_1">
   <filter id="filter39">
    <property name="track">0</property>
    <property name="version">0,1</property>
    <property name="mlt_type">filter</property>
    <property name="mlt_service">frei0r.scale0tilt</property>
    <property name="kdenlive_id">frei0r.scale0tilt</property>
    <property name="tag">frei0r.scale0tilt</property>
    <property name="kdenlive_ix">1</property>
    <property name="Clip left">0</property>
    <property name="Clip right">0</property>
    <property name="Clip top">0</property>
    <property name="Clip bottom">0</property>
    <property name="Scale X">0,5</property>
    <property name="Scale Y">0,5</property>
    <property name="Tilt X">0,439844</property>
    <property name="Tilt Y">0,5</property>
    <property name="kdenlive_info"/>
   </filter>
   <filter in="3040" out="3109" id="filter40">
    <property name="track">0</property>
    <property name="start">1</property>
    <property name="mlt_type">filter</property>
    <property name="mlt_service">brightness</property>
    <property name="kdenlive_id">fade_to_black</property>
    <property name="tag">brightness</property>
    <property name="kdenlive_ix">2</property>
    <property name="end">0</property>
   </filter>
   <filter in="2350" out="2360" id="filter41">
    <property name="track">0</property>
    <property name="start">0</property>
    <property name="mlt_type">filter</property>
    <property name="mlt_service">brightness</property>
    <property name="kdenlive_id">fade_from_black</property>
    <property name="tag">brightness</property>
    <property name="kdenlive_ix">3</property>
    <property name="end">1</property>
   </filter>
  </entry>
  <blank length="5"/>
  <entry in="209" out="467" producer="28_1">
   <filter in="209" out="256" id="filter42">
    <property name="track">0</property>
    <property name="start">0</property>
    <property name="mlt_type">filter</property>
    <property name="mlt_service">brightness</property>
    <property name="kdenlive_id">fade_from_black</property>
    <property name="tag">brightness</property>
    <property name="kdenlive_ix">1</property>
    <property name="end">1</property>
   </filter>
  </entry>
  <blank length="11"/>
  <entry in="575" out="824" producer="29_1"/>
  <entry in="0" out="54" producer="30_1"/>
  <entry in="175" out="298" producer="25_1"/>
  <entry in="228" out="1052" producer="31_1"/>
  <entry in="41" out="93" producer="slowmotion:38:2"/>
  <entry in="108" out="132" producer="slowmotion:38:2"/>
  <entry in="155" out="186" producer="slowmotion:38:2"/>
  <entry in="199" out="219" producer="slowmotion:38:2"/>
  <entry in="235" out="255" producer="slowmotion:38:2"/>
  <entry in="270" out="286" producer="slowmotion:38:2"/>
  <entry in="357" out="407" producer="slowmotion:38:2"/>
  <entry in="244" out="460" producer="83_1"/>
  <entry in="0" out="181" producer="75">
   <filter in="110" out="181" id="filter44">
    <property name="track">0</property>
    <property name="start">1</property>
    <property name="mlt_type">filter</property>
    <property name="mlt_service">brightness</property>
    <property name="kdenlive_id">fade_to_black</property>
    <property name="tag">brightness</property>
    <property name="kdenlive_ix">1</property>
    <property name="end">0</property>
   </filter>
  </entry>
 </playlist>
 <producer in="0" out="9681" id="64">
  <property name="mlt_type">producer</property>
  <property name="length">9682</property>
  <property name="eof">pause</property>
  <property name="resource">Documents/Projets Musique/Barons Freaks/COURTS METRAGES - MAIN/COURTS METRAGES/Crop4tiers2.png</property>
  <property name="ttl">25</property>
  <property name="aspect_ratio">1</property>
  <property name="progressive">1</property>
  <property name="seekable">1</property>
  <property name="loop">1</property>
  <property name="meta.media.width">1280</property>
  <property name="meta.media.height">720</property>
  <property name="mlt_service">pixbuf</property>
 </producer>
 <producer in="0" out="139" id="63">
  <property name="mlt_type">producer</property>
  <property name="length">140</property>
  <property name="eof">pause</property>
  <property name="resource">Documents/Projets Musique/Barons Freaks/COURTS METRAGES - MAIN/COURTS METRAGES/Diaphragme_grand.png</property>
  <property name="ttl">25</property>
  <property name="aspect_ratio">1</property>
  <property name="progressive">1</property>
  <property name="seekable">1</property>
  <property name="loop">1</property>
  <property name="meta.media.width">4000</property>
  <property name="meta.media.height">2500</property>
  <property name="mlt_service">pixbuf</property>
 </producer>
 <producer in="0" out="16599" id="2">
  <property name="mlt_type">producer</property>
  <property name="length">16600</property>
  <property name="eof">pause</property>
  <property name="resource">Documents/Projets Musique/Barons Freaks/COURTS METRAGES - MAIN/COURTS METRAGES/Crop4tiers.png</property>
  <property name="ttl">25</property>
  <property name="aspect_ratio">1</property>
  <property name="progressive">1</property>
  <property name="seekable">1</property>
  <property name="loop">1</property>
  <property name="meta.media.width">1280</property>
  <property name="meta.media.height">720</property>
  <property name="mlt_service">pixbuf</property>
 </producer>
 <playlist id="playlist5">
  <blank length="354"/>
  <entry in="1013" out="4042" producer="64"/>
  <entry in="0" out="111" producer="63">
   <filter id="filter46">
    <property name="track">0</property>
    <property name="version">0,1</property>
    <property name="mlt_type">filter</property>
    <property name="mlt_service">frei0r.scale0tilt</property>
    <property name="kdenlive_id">frei0r.scale0tilt</property>
    <property name="tag">frei0r.scale0tilt</property>
    <property name="kdenlive_ix">1</property>
    <property name="Clip left">0</property>
    <property name="Clip right">0</property>
    <property name="Clip top">0</property>
    <property name="Clip bottom">0</property>
    <property name="Scale X">1</property>
    <property name="Scale Y">1</property>
    <property name="Tilt X">0,399219</property>
    <property name="Tilt Y">0,173611</property>
    <property name="kdenlive_info"/>
   </filter>
   <filter in="65" out="111" id="filter47">
    <property name="track">0</property>
    <property name="start">1</property>
    <property name="mlt_type">filter</property>
    <property name="mlt_service">brightness</property>
    <property name="kdenlive_id">fade_to_black</property>
    <property name="tag">brightness</property>
    <property name="kdenlive_ix">2</property>
    <property name="end">0</property>
    <property name="kdenlive_info"/>
   </filter>
  </entry>
  <entry in="577" out="8309" producer="64"/>
  <entry in="0" out="55" producer="63">
   <filter id="filter48">
    <property name="track">0</property>
    <property name="version">0,1</property>
    <property name="mlt_type">filter</property>
    <property name="mlt_service">frei0r.scale0tilt</property>
    <property name="kdenlive_id">frei0r.scale0tilt</property>
    <property name="tag">frei0r.scale0tilt</property>
    <property name="kdenlive_ix">1</property>
    <property name="Clip left">0</property>
    <property name="Clip right">0</property>
    <property name="Clip top">0</property>
    <property name="Clip bottom">0</property>
    <property name="Scale X">1,1</property>
    <property name="Scale Y">1,1</property>
    <property name="Tilt X">0,210938</property>
    <property name="Tilt Y">0,141667</property>
    <property name="kdenlive_info"/>
    <property name="disable">0</property>
   </filter>
  </entry>
  <entry in="7" out="1197" producer="64"/>
  <entry in="194" out="4568" producer="64"/>
  <blank length="48"/>
  <entry in="25" out="6882" producer="64"/>
  <entry in="0" out="618" producer="2"/>
 </playlist>
 <tractor title="Anonymous Submission" global_feed="1" in="0" out="24375" id="maintractor">
  <property name="meta.volume">1</property>
  <track producer="black_track"/>
  <track hide="video" producer="playlist1"/>
  <track hide="video" producer="playlist2"/>
  <track producer="playlist0"/>
  <track producer="playlist3"/>
  <track hide="audio" producer="playlist4"/>
  <track producer="playlist5"/>
  <transition id="transition0">
   <property name="a_track">1</property>
   <property name="b_track">2</property>
   <property name="mlt_type">transition</property>
   <property name="mlt_service">mix</property>
   <property name="always_active">1</property>
   <property name="combine">1</property>
   <property name="internal_added">237</property>
  </transition>
  <transition id="transition1">
   <property name="a_track">1</property>
   <property name="b_track">3</property>
   <property name="mlt_type">transition</property>
   <property name="mlt_service">mix</property>
   <property name="always_active">1</property>
   <property name="combine">1</property>
   <property name="internal_added">237</property>
  </transition>
  <transition id="transition2">
   <property name="a_track">1</property>
   <property name="b_track">4</property>
   <property name="mlt_type">transition</property>
   <property name="mlt_service">mix</property>
   <property name="always_active">1</property>
   <property name="combine">1</property>
   <property name="internal_added">237</property>
  </transition>
  <transition id="transition3">
   <property name="a_track">1</property>
   <property name="b_track">5</property>
   <property name="mlt_type">transition</property>
   <property name="mlt_service">mix</property>
   <property name="always_active">1</property>
   <property name="combine">1</property>
   <property name="internal_added">237</property>
  </transition>
  <transition id="transition4">
   <property name="a_track">1</property>
   <property name="b_track">6</property>
   <property name="mlt_type">transition</property>
   <property name="mlt_service">mix</property>
   <property name="always_active">1</property>
   <property name="internal_added">237</property>
   <property name="combine">1</property>
  </transition>
  <transition in="3384" out="3495" id="transition11">
   <property name="a_track">5</property>
   <property name="b_track">6</property>
   <property name="start">0/0:100%x100%</property>
   <property name="factory">loader</property>
   <property name="aligned">1</property>
   <property name="progressive">1</property>
   <property name="mlt_type">transition</property>
   <property name="mlt_service">composite</property>
   <property name="automatic">1</property>
   <property name="kdenlive_id">composite</property>
   <property name="force_track">1</property>
   <property name="deinterlace">0</property>
   <property name="distort">0</property>
   <property name="fill">1</property>
   <property name="geometry">-3680/-1140:6400x3600:100;29=0/0:1280x720:100;111=0/0:1280x720:100</property>
   <property name="luma_invert">0</property>
   <property name="operator">over</property>
   <property name="softness">0</property>
   <property name="luma"/>
  </transition>
  <transition in="3496" out="11228" id="transition5">
   <property name="a_track">5</property>
   <property name="b_track">6</property>
   <property name="distort">0</property>
   <property name="geometry">0/0:100%x100%:100%</property>
   <property name="mlt_type">transition</property>
   <property name="mlt_service">affine</property>
   <property name="automatic">1</property>
   <property name="force_track">1</property>
   <property name="keyed">1</property>
   <property name="rotate_x">0</property>
   <property name="rotate_y">0</property>
   <property name="rotate_z">0</property>
   <property name="shear_x">0</property>
   <property name="shear_y">0</property>
   <property name="shear_z">0</property>
  </transition>
  <transition in="354" out="3383" id="transition6">
   <property name="a_track">5</property>
   <property name="b_track">6</property>
   <property name="distort">0</property>
   <property name="geometry">0/0:100%x100%:100%</property>
   <property name="mlt_type">transition</property>
   <property name="mlt_service">affine</property>
   <property name="automatic">1</property>
   <property name="force_track">1</property>
   <property name="keyed">1</property>
   <property name="rotate_x">0</property>
   <property name="rotate_y">0</property>
   <property name="rotate_z">0</property>
   <property name="shear_x">0</property>
   <property name="shear_y">0</property>
   <property name="shear_z">0</property>
  </transition>
  <transition in="16899" out="23756" id="transition9">
   <property name="a_track">5</property>
   <property name="b_track">6</property>
   <property name="distort">0</property>
   <property name="geometry">0/0:100%x100%:100%</property>
   <property name="mlt_type">transition</property>
   <property name="mlt_service">affine</property>
   <property name="automatic">1</property>
   <property name="force_track">0</property>
   <property name="keyed">1</property>
   <property name="rotate_x">0</property>
   <property name="rotate_y">0</property>
   <property name="rotate_z">0</property>
   <property name="shear_x">0</property>
   <property name="shear_y">0</property>
   <property name="shear_z">0</property>
  </transition>
  <transition in="23757" out="24375" id="transition10">
   <property name="a_track">5</property>
   <property name="b_track">6</property>
   <property name="distort">0</property>
   <property name="geometry">0/0:100%x100%:100%</property>
   <property name="mlt_type">transition</property>
   <property name="mlt_service">affine</property>
   <property name="automatic">1</property>
   <property name="force_track">0</property>
   <property name="keyed">1</property>
   <property name="rotate_x">0</property>
   <property name="rotate_y">0</property>
   <property name="rotate_z">0</property>
   <property name="shear_x">0</property>
   <property name="shear_y">0</property>
   <property name="shear_z">0</property>
  </transition>
  <transition in="11229" out="11284" id="transition12">
   <property name="a_track">5</property>
   <property name="b_track">6</property>
   <property name="version">0,9</property>
   <property name="mlt_type">transition</property>
   <property name="mlt_service">frei0r.cairoaffineblend</property>
   <property name="automatic">1</property>
   <property name="force_track">1</property>
   <property name="0">0,4</property>
   <property name="1">0,4</property>
   <property name="2">0,2</property>
   <property name="3">0,2</property>
   <property name="4">0</property>
   <property name="5">1</property>
   <property name="6">normal</property>
   <property name="7">0</property>
   <property name="8">0</property>
  </transition>
  <transition in="11285" out="12475" id="transition13">
   <property name="a_track">5</property>
   <property name="b_track">6</property>
   <property name="distort">0</property>
   <property name="geometry">0/0:100%x100%:100%</property>
   <property name="mlt_type">transition</property>
   <property name="mlt_service">affine</property>
   <property name="automatic">1</property>
   <property name="force_track">0</property>
   <property name="keyed">1</property>
   <property name="rotate_x">0</property>
   <property name="rotate_y">0</property>
   <property name="rotate_z">0</property>
   <property name="shear_x">0</property>
   <property name="shear_y">0</property>
   <property name="shear_z">0</property>
  </transition>
  <transition in="12476" out="16850" id="transition8">
   <property name="a_track">5</property>
   <property name="b_track">6</property>
   <property name="distort">0</property>
   <property name="geometry">0/0:100%x100%:100%</property>
   <property name="mlt_type">transition</property>
   <property name="mlt_service">affine</property>
   <property name="automatic">1</property>
   <property name="force_track">0</property>
   <property name="keyed">1</property>
   <property name="rotate_x">0</property>
   <property name="rotate_y">0</property>
   <property name="rotate_z">0</property>
   <property name="shear_x">0</property>
   <property name="shear_y">0</property>
   <property name="shear_z">0</property>
  </transition>
  <transition in="16851" out="16899" id="transition15">
   <property name="a_track">4</property>
   <property name="b_track">5</property>
   <property name="version">0,1</property>
   <property name="mlt_type">transition</property>
   <property name="mlt_service">frei0r.alphain</property>
   <property name="automatic">1</property>
   <property name="force_track">1</property>
  </transition>
  <transition in="105" out="326" id="transition7">
   <property name="a_track">4</property>
   <property name="b_track">5</property>
   <property name="distort">0</property>
   <property name="geometry">0/0:100%x100%:100%</property>
   <property name="mlt_type">transition</property>
   <property name="mlt_service">affine</property>
   <property name="automatic">1</property>
   <property name="force_track">0</property>
   <property name="keyed">1</property>
   <property name="rotate_x">0</property>
   <property name="rotate_y">0</property>
   <property name="rotate_z">0</property>
   <property name="shear_x">0</property>
   <property name="shear_y">0</property>
   <property name="shear_z">0</property>
  </transition>
 </tractor>
 <kdenlivedoc profile="atsc_720p_25" kdenliveversion="0.9.10" version="0,88" projectfolder="/home/nicolas/kdenlive">
  <customeffects/>
  <documentproperties documentid="1484580927973" renderaudiobitrate="160" renderdestination="" renderrescalewidth="1080" proxyextension="ts" generateproxy="0" proxyimageminsize="2000" rendertctype="0" verticalzoom="1" renderprofile="H.264/AAC High Profile" renderrescaleheight="607" zonein="2759" renderrescale="0" renderscanning="0" renderurl="/home/nicolas/Bureau/test betd.mp4" rendertwopass="0" renderplay="0" position="24375" proxyminsize="1000" renderstartguide="-1" zoom="11" rendercategory="MP4" renderratio="1" zoneout="3193" renderbitrate="20" renderzone="1" renderendguide="-1" renderexportaudio="0" proxyparams="-f mpegts -acodec libmp3lame -ac 2 -ab 128k -ar 48000 -vcodec mpeg2video -g 5 -deinterlace -s 480x270 -vb 400k" enableproxy="0" generateimageproxy="0" renderguide="0" rendertcoverlay="0"/>
  <documentmetadata/>
  <documentnotes>&lt;!DOCTYPE HTML PUBLIC "-//W3C//DTD HTML 4.0//EN" "http://www.w3.org/TR/REC-html40/strict.dtd">
&lt;html>&lt;head>&lt;meta name="qrichtext" content="1" />&lt;style type="text/css">
p, li { white-space: pre-wrap; }
&lt;/style>&lt;/head>&lt;body style=" font-family:'DejaVu Sans'; font-size:8pt; font-weight:400; font-style:normal;">
&lt;p style="-qt-paragraph-type:empty; margin-top:0px; margin-bottom:0px; margin-left:0px; margin-right:0px; -qt-block-indent:0; text-indent:0px;">&lt;br />&lt;/p>&lt;/body>&lt;/html></documentnotes>
  <profileinfo width="1280" display_aspect_den="9" frame_rate_den="1" description="HD 720p 25 fps" height="720" frame_rate_num="25" display_aspect_num="16" progressive="1" sample_aspect_num="1" sample_aspect_den="1"/>
  <tracksinfo>
   <trackinfo blind="1" mute="0" locked="0" trackname="Audio 2" type="audio"/>
   <trackinfo blind="1" mute="0" locked="0" trackname="Audio 1" type="audio"/>
   <trackinfo blind="0" mute="0" locked="0" trackname="Video 4"/>
   <trackinfo blind="0" mute="0" locked="0" trackname="Video 3"/>
   <trackinfo blind="0" mute="1" locked="0" trackname="Video 2"/>
   <trackinfo blind="0" mute="0" locked="0" trackname="Video    1"/>
  </tracksinfo>
  <folder id="1" name="Coiffure"/>
  <folder id="2" name="Masques"/>
  <folder opened="1" id="3" name="Cartons"/>
  <kdenlive_producer audio_max="0" id="2" default_video="0" analysisdata="" name="Crop4tiers.png" in="0" thumbnail="100" transparency="1" resource="/home/nicolas/Documents/Projets Musique/Barons Freaks/COURTS METRAGES - MAIN/COURTS METRAGES/Crop4tiers.png" default_audio="0" duration="125" groupid="2" file_hash="04581b16f1e0fc33991f53390ac72937" aspect_ratio="1,000000" channels="0" frequency="0" out="125" video_max="0" progressive="0" groupname="Masques" type="5" frame_size="1280x720" file_size="5410"/>
  <kdenlive_producer audio_max="1" id="4" pix_fmt="yuvj420p" default_video="0" fps="25,000000" analysisdata="" name="DSC_0017.MOV" colorspace="601" videocodec="H.264 / AVC / MPEG-4 AVC / MPEG-4 part 10" resource="/home/nicolas/Documents/Projets Musique/Barons Freaks/COURTS METRAGES - MAIN/COURTS METRAGES/EpisodeIII/DSC_0017.MOV" default_audio="1" audiocodec="PCM signed 16-bit little-endian" duration="2159" groupid="1" file_hash="08f32d6f30bc4c57fbc0ddb09638bdc5" aspect_ratio="1,000000" channels="1" frequency="24000" video_max="0" progressive="1" groupname="Coiffure" type="3" frame_size="1280x720" file_size="121420231">
   <metaproperty tool="" name="meta.attr.0.stream.creation_time">2016-11-11 10:30:57</metaproperty>
   <metaproperty tool="" name="meta.attr.0.stream.language">eng</metaproperty>
   <metaproperty tool="" name="meta.attr.1.stream.creation_time">2016-11-11 10:30:57</metaproperty>
   <metaproperty tool="" name="meta.attr.1.stream.language">eng</metaproperty>
   <metaproperty tool="" name="meta.attr.compatible_brands">qt  niko</metaproperty>
   <metaproperty tool="" name="meta.attr.creation_time">2016-11-11 10:30:57</metaproperty>
   <metaproperty tool="" name="meta.attr.major_brand">qt  </metaproperty>
   <metaproperty tool="" name="meta.attr.minor_version">537331968</metaproperty>
  </kdenlive_producer>
  <kdenlive_producer audio_max="1" id="5" pix_fmt="yuvj420p" default_video="0" fps="25,000000" analysisdata="" name="DSC_0022.MOV" colorspace="601" videocodec="H.264 / AVC / MPEG-4 AVC / MPEG-4 part 10" resource="/home/nicolas/Documents/Projets Musique/Barons Freaks/COURTS METRAGES - MAIN/COURTS METRAGES/EpisodeIII/DSC_0022.MOV" default_audio="1" audiocodec="PCM signed 16-bit little-endian" duration="752" groupid="1" file_hash="f8fda64adb7b49c9681a6dfba3e27140" aspect_ratio="1,000000" channels="1" frequency="24000" video_max="0" progressive="1" groupname="Coiffure" type="3" frame_size="1280x720" file_size="42563360">
   <metaproperty tool="" name="meta.attr.0.stream.creation_time">2016-11-11 10:45:39</metaproperty>
   <metaproperty tool="" name="meta.attr.0.stream.language">eng</metaproperty>
   <metaproperty tool="" name="meta.attr.1.stream.creation_time">2016-11-11 10:45:39</metaproperty>
   <metaproperty tool="" name="meta.attr.1.stream.language">eng</metaproperty>
   <metaproperty tool="" name="meta.attr.compatible_brands">qt  niko</metaproperty>
   <metaproperty tool="" name="meta.attr.creation_time">2016-11-11 10:45:39</metaproperty>
   <metaproperty tool="" name="meta.attr.major_brand">qt  </metaproperty>
   <metaproperty tool="" name="meta.attr.minor_version">537331968</metaproperty>
  </kdenlive_producer>
  <kdenlive_producer audio_max="1" id="6" pix_fmt="yuv420p" default_video="0" fps="25,000000" analysisdata="" name="jumeaux-entree.mp4" colorspace="709" videocodec="MPEG-4 part 2" resource="/home/nicolas/Documents/Projets Musique/Barons Freaks/COURTS METRAGES - MAIN/COURTS METRAGES/EpisodeIII/jumeaux-entree.mp4" default_audio="1" audiocodec="MP3 (MPEG audio layer 3)" duration="434" groupid="1" file_hash="459abf47d8e291bcc7a45bf7c78d463b" aspect_ratio="1,000000" channels="2" frequency="44100" video_max="0" progressive="1" groupname="Coiffure" type="3" frame_size="1280x720" file_size="20558689">
   <metaproperty tool="" name="meta.attr.compatible_brands">isomiso2mp41</metaproperty>
   <metaproperty tool="" name="meta.attr.encoder">Lavf53.21.1</metaproperty>
   <metaproperty tool="" name="meta.attr.major_brand">isom</metaproperty>
   <metaproperty tool="" name="meta.attr.minor_version">512</metaproperty>
  </kdenlive_producer>
  <kdenlive_producer audio_max="1" id="7" pix_fmt="yuvj420p" default_video="0" fps="25,000000" analysisdata="" name="DSC_0037.MOV" colorspace="601" videocodec="H.264 / AVC / MPEG-4 AVC / MPEG-4 part 10" resource="/home/nicolas/Documents/Projets Musique/Barons Freaks/COURTS METRAGES - MAIN/COURTS METRAGES/EpisodeIII/DSC_0037.MOV" default_audio="1" audiocodec="PCM signed 16-bit little-endian" duration="275" groupid="1" file_hash="a24b203d4a859a3ed11445154d61d614" aspect_ratio="1,000000" channels="1" frequency="24000" video_max="0" progressive="1" groupname="Coiffure" type="3" frame_size="1280x720" file_size="15078244">
   <metaproperty tool="" name="meta.attr.0.stream.creation_time">2016-11-11 11:26:58</metaproperty>
   <metaproperty tool="" name="meta.attr.0.stream.language">eng</metaproperty>
   <metaproperty tool="" name="meta.attr.1.stream.creation_time">2016-11-11 11:26:58</metaproperty>
   <metaproperty tool="" name="meta.attr.1.stream.language">eng</metaproperty>
   <metaproperty tool="" name="meta.attr.compatible_brands">qt  niko</metaproperty>
   <metaproperty tool="" name="meta.attr.creation_time">2016-11-11 11:26:58</metaproperty>
   <metaproperty tool="" name="meta.attr.major_brand">qt  </metaproperty>
   <metaproperty tool="" name="meta.attr.minor_version">537331968</metaproperty>
  </kdenlive_producer>
  <kdenlive_producer audio_max="1" id="8" pix_fmt="yuvj420p" default_video="0" fps="25,000000" analysisdata="" name="DSC_0046.MOV" colorspace="601" videocodec="H.264 / AVC / MPEG-4 AVC / MPEG-4 part 10" resource="/home/nicolas/Documents/Projets Musique/Barons Freaks/COURTS METRAGES - MAIN/COURTS METRAGES/EpisodeIII/DSC_0046.MOV" default_audio="1" audiocodec="PCM signed 16-bit little-endian" duration="269" groupid="1" file_hash="ee4ad5df9d6966e4e39c134fe05fa217" aspect_ratio="1,000000" channels="1" frequency="24000" video_max="0" progressive="1" groupname="Coiffure" type="3" frame_size="1280x720" file_size="15109924">
   <metaproperty tool="" name="meta.attr.0.stream.creation_time">2016-11-11 11:33:40</metaproperty>
   <metaproperty tool="" name="meta.attr.0.stream.language">eng</metaproperty>
   <metaproperty tool="" name="meta.attr.1.stream.creation_time">2016-11-11 11:33:40</metaproperty>
   <metaproperty tool="" name="meta.attr.1.stream.language">eng</metaproperty>
   <metaproperty tool="" name="meta.attr.compatible_brands">qt  niko</metaproperty>
   <metaproperty tool="" name="meta.attr.creation_time">2016-11-11 11:33:40</metaproperty>
   <metaproperty tool="" name="meta.attr.major_brand">qt  </metaproperty>
   <metaproperty tool="" name="meta.attr.minor_version">537331968</metaproperty>
  </kdenlive_producer>
  <kdenlive_producer audio_max="0" id="9" pix_fmt="yuv420p" default_video="0" fps="50" analysisdata="" name="jumeaux_02.mp4" videocodecid="h264" colorspace="709" videocodec="H.264 / AVC / MPEG-4 AVC / MPEG-4 part 10" resource="/home/nicolas/Documents/Projets Musique/Barons Freaks/COURTS METRAGES - MAIN/COURTS METRAGES/EpisodeIII/jumeaux_02.mp4" default_audio="-1" duration="371" groupid="1" file_hash="1d868aa6bc40db288221abbf81a0d5da" aspect_ratio="1" video_max="0" progressive="1" groupname="Coiffure" type="2" frame_size="1280x720" file_size="6232603">
   <metaproperty tool="" name="meta.attr.compatible_brands">isomiso2avc1mp41</metaproperty>
   <metaproperty tool="" name="meta.attr.encoder">Lavf56.1.0</metaproperty>
   <metaproperty tool="" name="meta.attr.major_brand">isom</metaproperty>
   <metaproperty tool="" name="meta.attr.minor_version">512</metaproperty>
  </kdenlive_producer>
  <kdenlive_producer audio_max="1" id="10" pix_fmt="yuvj420p" default_video="0" fps="25" analysisdata="" name="DSC_0023.MOV" videocodecid="h264" colorspace="601" videocodec="H.264 / AVC / MPEG-4 AVC / MPEG-4 part 10" resource="/home/nicolas/Documents/Projets Musique/Barons Freaks/COURTS METRAGES - MAIN/COURTS METRAGES/EpisodeIII/DSC_0023.MOV" default_audio="1" audiocodec="PCM signed 16-bit little-endian" duration="344" groupid="1" file_hash="f3845f7a95cbbe9a0e059f3d1c7bded0" aspect_ratio="1" channels="1" frequency="24000" video_max="0" progressive="1" groupname="Coiffure" type="3" frame_size="1280x720" file_size="19888397">
   <metaproperty tool="" name="meta.attr.0.stream.creation_time">2016-11-11 11:00:04</metaproperty>
   <metaproperty tool="" name="meta.attr.0.stream.language">eng</metaproperty>
   <metaproperty tool="" name="meta.attr.1.stream.creation_time">2016-11-11 11:00:04</metaproperty>
   <metaproperty tool="" name="meta.attr.1.stream.language">eng</metaproperty>
   <metaproperty tool="" name="meta.attr.compatible_brands">qt  niko</metaproperty>
   <metaproperty tool="" name="meta.attr.creation_time">2016-11-11 11:00:04</metaproperty>
   <metaproperty tool="" name="meta.attr.major_brand">qt  </metaproperty>
   <metaproperty tool="" name="meta.attr.minor_version">537331968</metaproperty>
  </kdenlive_producer>
  <kdenlive_producer audio_max="1" id="11" pix_fmt="yuvj420p" default_video="0" fps="25" analysisdata="" name="DSC_0029.MOV" videocodecid="h264" colorspace="601" videocodec="H.264 / AVC / MPEG-4 AVC / MPEG-4 part 10" resource="/home/nicolas/Documents/Projets Musique/Barons Freaks/COURTS METRAGES - MAIN/COURTS METRAGES/EpisodeIII/DSC_0029.MOV" default_audio="1" audiocodec="PCM signed 16-bit little-endian" duration="539" groupid="1" file_hash="14254b992d6844d64e127f2c19d7011a" aspect_ratio="1" channels="1" frequency="24000" video_max="0" progressive="1" groupname="Coiffure" type="3" frame_size="1280x720" file_size="30131189">
   <metaproperty tool="" name="meta.attr.0.stream.creation_time">2016-11-11 11:07:45</metaproperty>
   <metaproperty tool="" name="meta.attr.0.stream.language">eng</metaproperty>
   <metaproperty tool="" name="meta.attr.1.stream.creation_time">2016-11-11 11:07:45</metaproperty>
   <metaproperty tool="" name="meta.attr.1.stream.language">eng</metaproperty>
   <metaproperty tool="" name="meta.attr.compatible_brands">qt  niko</metaproperty>
   <metaproperty tool="" name="meta.attr.creation_time">2016-11-11 11:07:45</metaproperty>
   <metaproperty tool="" name="meta.attr.major_brand">qt  </metaproperty>
   <metaproperty tool="" name="meta.attr.minor_version">537331968</metaproperty>
  </kdenlive_producer>
  <kdenlive_producer duration="125" frame_size="2560x1440" thumbnail="100" in="0" analysisdata="" file_size="60810" groupid="2" aspect_ratio="1" out="124" groupname="Masques" file_hash="fecacce1f220c495d1367009b2259bb9" type="5" id="12" name="Diaphragme.png" resource="/home/nicolas/Documents/Projets Musique/Barons Freaks/COURTS METRAGES - MAIN/COURTS METRAGES/Diaphragme.png"/>
  <kdenlive_producer duration="125" frame_size="2560x1440" thumbnail="100" in="0" analysisdata="" file_size="46533" groupid="2" aspect_ratio="1" out="124" groupname="Masques" file_hash="5e07bfaf57fb3e14f66fa7ff01b073a9" type="5" id="14" name="Diaphragme2.png" resource="/home/nicolas/Documents/Projets Musique/Barons Freaks/COURTS METRAGES - MAIN/COURTS METRAGES/Diaphragme2.png"/>
  <kdenlive_producer audio_max="1" id="15" pix_fmt="yuv420p" default_video="0" fps="25" analysisdata="" name="jumeaux_03.mp4" videocodecid="h264" colorspace="709" videocodec="H.264 / AVC / MPEG-4 AVC / MPEG-4 part 10" resource="/home/nicolas/Documents/Projets Musique/Barons Freaks/COURTS METRAGES - MAIN/COURTS METRAGES/EpisodeIII/jumeaux_03.mp4" default_audio="1" audiocodec="AAC (Advanced Audio Coding)" duration="488" groupid="1" file_hash="8c1f728a4b92a53642450596724fbb6f" aspect_ratio="1" channels="2" frequency="48000" video_max="0" progressive="1" groupname="Coiffure" type="3" frame_size="1920x1080" file_size="7582429">
   <metaproperty tool="" name="meta.attr.compatible_brands">isomiso2avc1mp41</metaproperty>
   <metaproperty tool="" name="meta.attr.encoder">Lavf57.56.100</metaproperty>
   <metaproperty tool="" name="meta.attr.major_brand">isom</metaproperty>
   <metaproperty tool="" name="meta.attr.minor_version">512</metaproperty>
  </kdenlive_producer>
  <kdenlive_producer audio_max="1" id="16" pix_fmt="yuv420p" default_video="0" fps="25" analysisdata="" name="jumeaux_04.mp4" videocodecid="h264" colorspace="709" videocodec="H.264 / AVC / MPEG-4 AVC / MPEG-4 part 10" resource="/home/nicolas/Documents/Projets Musique/Barons Freaks/COURTS METRAGES - MAIN/COURTS METRAGES/EpisodeIII/jumeaux_04.mp4" default_audio="1" audiocodec="AAC (Advanced Audio Coding)" duration="668" groupid="1" file_hash="5e6a3d4b2369750be14b58931b6c2dcd" aspect_ratio="1" channels="2" frequency="48000" video_max="0" progressive="1" groupname="Coiffure" type="3" frame_size="1920x1080" file_size="11697357">
   <metaproperty tool="" name="meta.attr.compatible_brands">isomiso2avc1mp41</metaproperty>
   <metaproperty tool="" name="meta.attr.encoder">Lavf57.56.100</metaproperty>
   <metaproperty tool="" name="meta.attr.major_brand">isom</metaproperty>
   <metaproperty tool="" name="meta.attr.minor_version">512</metaproperty>
  </kdenlive_producer>
  <kdenlive_producer audio_max="1" id="17" pix_fmt="yuvj420p" default_video="0" fps="25" analysisdata="" name="DSC_7831.MOV" videocodecid="h264" colorspace="601" videocodec="H.264 / AVC / MPEG-4 AVC / MPEG-4 part 10" resource="/home/nicolas/Documents/Projets Musique/Barons Freaks/COURTS METRAGES - MAIN/COURTS METRAGES/EpisodeIII/DSC_7831.MOV" default_audio="1" audiocodec="PCM signed 16-bit little-endian" duration="6077" groupid="1" file_hash="c4a348326c2880777ca2f21701fafc85" aspect_ratio="1" channels="1" frequency="24000" video_max="0" progressive="1" groupname="Coiffure" type="3" frame_size="1280x720" file_size="331814322">
   <metaproperty tool="" name="meta.attr.0.stream.creation_time">2016-11-11 15:04:40</metaproperty>
   <metaproperty tool="" name="meta.attr.0.stream.language">eng</metaproperty>
   <metaproperty tool="" name="meta.attr.1.stream.creation_time">2016-11-11 15:04:40</metaproperty>
   <metaproperty tool="" name="meta.attr.1.stream.language">eng</metaproperty>
   <metaproperty tool="" name="meta.attr.compatible_brands">qt  niko</metaproperty>
   <metaproperty tool="" name="meta.attr.creation_time">2016-11-11 15:04:40</metaproperty>
   <metaproperty tool="" name="meta.attr.major_brand">qt  </metaproperty>
   <metaproperty tool="" name="meta.attr.minor_version">537331968</metaproperty>
  </kdenlive_producer>
  <kdenlive_producer audio_max="1" id="18" pix_fmt="yuv420p" default_video="0" fps="25" analysisdata="" name="jumeaux_05.mp4" videocodecid="h264" colorspace="709" videocodec="H.264 / AVC / MPEG-4 AVC / MPEG-4 part 10" resource="/home/nicolas/Documents/Projets Musique/Barons Freaks/COURTS METRAGES - MAIN/COURTS METRAGES/EpisodeIII/jumeaux_05.mp4" default_audio="1" audiocodec="AAC (Advanced Audio Coding)" duration="642" groupid="1" file_hash="5fc0e01f3c814b08d2b0facc7cef6429" aspect_ratio="1" channels="2" frequency="48000" video_max="0" progressive="1" groupname="Coiffure" type="3" frame_size="1920x1080" file_size="10287557">
   <metaproperty tool="" name="meta.attr.compatible_brands">isomiso2avc1mp41</metaproperty>
   <metaproperty tool="" name="meta.attr.encoder">Lavf57.56.100</metaproperty>
   <metaproperty tool="" name="meta.attr.major_brand">isom</metaproperty>
   <metaproperty tool="" name="meta.attr.minor_version">512</metaproperty>
  </kdenlive_producer>
  <kdenlive_producer audio_max="0" id="19" pix_fmt="yuvj420p" default_video="0" fps="50" analysisdata="" name="MVI_7824.MOV" videocodecid="h264" colorspace="601" videocodec="H.264 / AVC / MPEG-4 AVC / MPEG-4 part 10" resource="/home/nicolas/Documents/Projets Musique/Barons Freaks/COURTS METRAGES - MAIN/COURTS METRAGES/EpisodeIII/MVI_7824.MOV" default_audio="-1" duration="1248" groupid="1" file_hash="8bebc0dff3af064e9e31bf53837ab198" aspect_ratio="1" video_max="0" progressive="1" groupname="Coiffure" type="2" frame_size="1280x720" file_size="287348339">
   <metaproperty tool="" name="meta.attr.0.stream.creation_time">2016-11-11 15:52:54</metaproperty>
   <metaproperty tool="" name="meta.attr.0.stream.language">eng</metaproperty>
   <metaproperty tool="" name="meta.attr.compatible_brands">qt  CAEP</metaproperty>
   <metaproperty tool="" name="meta.attr.creation_time">2016-11-11 15:52:54</metaproperty>
   <metaproperty tool="" name="meta.attr.major_brand">qt  </metaproperty>
   <metaproperty tool="" name="meta.attr.minor_version">537331968</metaproperty>
  </kdenlive_producer>
  <kdenlive_producer audio_max="1" id="20" pix_fmt="yuvj420p" default_video="0" fps="25" analysisdata="" name="DSC_7861.MOV" videocodecid="h264" colorspace="601" videocodec="H.264 / AVC / MPEG-4 AVC / MPEG-4 part 10" resource="/home/nicolas/Documents/Projets Musique/Barons Freaks/COURTS METRAGES - MAIN/COURTS METRAGES/EpisodeIII/DSC_7861.MOV" default_audio="1" audiocodec="PCM signed 16-bit little-endian" duration="2582" groupid="1" file_hash="5a4f30af2b0825973ed3be232adf976a" aspect_ratio="1" channels="1" frequency="24000" video_max="0" progressive="1" groupname="Coiffure" type="3" frame_size="1280x720" file_size="145476281">
   <metaproperty tool="" name="meta.attr.0.stream.creation_time">2016-11-11 16:59:45</metaproperty>
   <metaproperty tool="" name="meta.attr.0.stream.language">eng</metaproperty>
   <metaproperty tool="" name="meta.attr.1.stream.creation_time">2016-11-11 16:59:45</metaproperty>
   <metaproperty tool="" name="meta.attr.1.stream.language">eng</metaproperty>
   <metaproperty tool="" name="meta.attr.compatible_brands">qt  niko</metaproperty>
   <metaproperty tool="" name="meta.attr.creation_time">2016-11-11 16:59:45</metaproperty>
   <metaproperty tool="" name="meta.attr.major_brand">qt  </metaproperty>
   <metaproperty tool="" name="meta.attr.minor_version">537331968</metaproperty>
  </kdenlive_producer>
  <kdenlive_producer audio_max="0" id="21" pix_fmt="yuvj420p" default_video="0" fps="50" analysisdata="" name="MVI_7826.MOV" videocodecid="h264" colorspace="601" videocodec="H.264 / AVC / MPEG-4 AVC / MPEG-4 part 10" resource="/home/nicolas/Documents/Projets Musique/Barons Freaks/COURTS METRAGES - MAIN/COURTS METRAGES/EpisodeIII/MVI_7826.MOV" default_audio="-1" duration="3865" groupid="1" file_hash="e19330dd5b9e9f988cc6bc9056ea4a0c" aspect_ratio="1" video_max="0" progressive="1" groupname="Coiffure" type="2" frame_size="1280x720" file_size="887979611">
   <metaproperty tool="" name="meta.attr.0.stream.creation_time">2016-11-11 16:03:56</metaproperty>
   <metaproperty tool="" name="meta.attr.0.stream.language">eng</metaproperty>
   <metaproperty tool="" name="meta.attr.compatible_brands">qt  CAEP</metaproperty>
   <metaproperty tool="" name="meta.attr.creation_time">2016-11-11 16:03:56</metaproperty>
   <metaproperty tool="" name="meta.attr.major_brand">qt  </metaproperty>
   <metaproperty tool="" name="meta.attr.minor_version">537331968</metaproperty>
  </kdenlive_producer>
  <kdenlive_producer audio_max="1" id="22" pix_fmt="yuvj420p" default_video="0" fps="25" analysisdata="" name="DSC_7855.MOV" videocodecid="h264" colorspace="601" videocodec="H.264 / AVC / MPEG-4 AVC / MPEG-4 part 10" resource="/home/nicolas/Documents/Projets Musique/Barons Freaks/COURTS METRAGES - MAIN/COURTS METRAGES/EpisodeIII/DSC_7855.MOV" default_audio="1" audiocodec="PCM signed 16-bit little-endian" duration="764" groupid="1" file_hash="eabcbe08f368bcb784355d496f3742f4" aspect_ratio="1" channels="1" frequency="24000" video_max="0" progressive="1" groupname="Coiffure" type="3" frame_size="1280x720" file_size="43135787">
   <metaproperty tool="" name="meta.attr.0.stream.creation_time">2016-11-11 16:22:39</metaproperty>
   <metaproperty tool="" name="meta.attr.0.stream.language">eng</metaproperty>
   <metaproperty tool="" name="meta.attr.1.stream.creation_time">2016-11-11 16:22:39</metaproperty>
   <metaproperty tool="" name="meta.attr.1.stream.language">eng</metaproperty>
   <metaproperty tool="" name="meta.attr.compatible_brands">qt  niko</metaproperty>
   <metaproperty tool="" name="meta.attr.creation_time">2016-11-11 16:22:39</metaproperty>
   <metaproperty tool="" name="meta.attr.major_brand">qt  </metaproperty>
   <metaproperty tool="" name="meta.attr.minor_version">537331968</metaproperty>
  </kdenlive_producer>
  <kdenlive_producer audio_max="0" id="23" pix_fmt="yuvj420p" default_video="0" fps="50" analysisdata="" name="MVI_7827.MOV" videocodecid="h264" colorspace="601" videocodec="H.264 / AVC / MPEG-4 AVC / MPEG-4 part 10" resource="/home/nicolas/Documents/Projets Musique/Barons Freaks/COURTS METRAGES - MAIN/COURTS METRAGES/EpisodeIII/MVI_7827.MOV" default_audio="-1" duration="1023" groupid="1" file_hash="4a8cd617a651ad4af408a7cb8f605e4b" aspect_ratio="1" video_max="0" progressive="1" groupname="Coiffure" type="2" frame_size="1280x720" file_size="234368287">
   <metaproperty tool="" name="meta.attr.0.stream.creation_time">2016-11-11 16:08:38</metaproperty>
   <metaproperty tool="" name="meta.attr.0.stream.language">eng</metaproperty>
   <metaproperty tool="" name="meta.attr.compatible_brands">qt  CAEP</metaproperty>
   <metaproperty tool="" name="meta.attr.creation_time">2016-11-11 16:08:38</metaproperty>
   <metaproperty tool="" name="meta.attr.major_brand">qt  </metaproperty>
   <metaproperty tool="" name="meta.attr.minor_version">537331968</metaproperty>
  </kdenlive_producer>
  <kdenlive_producer audio_max="0" id="24" pix_fmt="yuvj420p" default_video="0" fps="50" analysisdata="" name="MVI_7828.MOV" videocodecid="h264" colorspace="601" videocodec="H.264 / AVC / MPEG-4 AVC / MPEG-4 part 10" resource="/home/nicolas/Documents/Projets Musique/Barons Freaks/COURTS METRAGES - MAIN/COURTS METRAGES/EpisodeIII/MVI_7828.MOV" default_audio="-1" duration="5715" groupid="1" file_hash="89ee988f2317fc8b3afdf64352d0ff53" aspect_ratio="1" video_max="0" progressive="1" groupname="Coiffure" type="2" frame_size="1280x720" file_size="1309987987">
   <metaproperty tool="" name="meta.attr.0.stream.creation_time">2016-11-11 16:13:26</metaproperty>
   <metaproperty tool="" name="meta.attr.0.stream.language">eng</metaproperty>
   <metaproperty tool="" name="meta.attr.compatible_brands">qt  CAEP</metaproperty>
   <metaproperty tool="" name="meta.attr.creation_time">2016-11-11 16:13:26</metaproperty>
   <metaproperty tool="" name="meta.attr.major_brand">qt  </metaproperty>
   <metaproperty tool="" name="meta.attr.minor_version">537331968</metaproperty>
  </kdenlive_producer>
  <kdenlive_producer audio_max="1" id="25" pix_fmt="yuvj420p" default_video="0" fps="25" analysisdata="" name="DSC_7849.MOV" videocodecid="h264" colorspace="601" videocodec="H.264 / AVC / MPEG-4 AVC / MPEG-4 part 10" resource="/home/nicolas/Documents/Projets Musique/Barons Freaks/COURTS METRAGES - MAIN/COURTS METRAGES/EpisodeIII/DSC_7849.MOV" default_audio="1" audiocodec="PCM signed 16-bit little-endian" duration="731" groupid="1" file_hash="cb385117837d0fbca022e154cee9a326" aspect_ratio="1" channels="1" frequency="24000" video_max="0" progressive="1" groupname="Coiffure" type="3" frame_size="1280x720" file_size="42072838">
   <metaproperty tool="" name="meta.attr.0.stream.creation_time">2016-11-11 16:05:06</metaproperty>
   <metaproperty tool="" name="meta.attr.0.stream.language">eng</metaproperty>
   <metaproperty tool="" name="meta.attr.1.stream.creation_time">2016-11-11 16:05:06</metaproperty>
   <metaproperty tool="" name="meta.attr.1.stream.language">eng</metaproperty>
   <metaproperty tool="" name="meta.attr.compatible_brands">qt  niko</metaproperty>
   <metaproperty tool="" name="meta.attr.creation_time">2016-11-11 16:05:06</metaproperty>
   <metaproperty tool="" name="meta.attr.major_brand">qt  </metaproperty>
   <metaproperty tool="" name="meta.attr.minor_version">537331968</metaproperty>
  </kdenlive_producer>
  <kdenlive_producer audio_max="1" id="26" pix_fmt="yuvj420p" default_video="0" fps="25" analysisdata="" name="DSC_7845.MOV" videocodecid="h264" colorspace="601" videocodec="H.264 / AVC / MPEG-4 AVC / MPEG-4 part 10" resource="/home/nicolas/Documents/Projets Musique/Barons Freaks/COURTS METRAGES - MAIN/COURTS METRAGES/EpisodeIII/DSC_7845.MOV" default_audio="1" audiocodec="PCM signed 16-bit little-endian" duration="1373" groupid="1" file_hash="c6320ccaab0dada37026c0f407c7cb92" aspect_ratio="1" channels="1" frequency="24000" video_max="0" progressive="1" groupname="Coiffure" type="3" frame_size="1280x720" file_size="78452800">
   <metaproperty tool="" name="meta.attr.0.stream.creation_time">2016-11-11 15:55:25</metaproperty>
   <metaproperty tool="" name="meta.attr.0.stream.language">eng</metaproperty>
   <metaproperty tool="" name="meta.attr.1.stream.creation_time">2016-11-11 15:55:25</metaproperty>
   <metaproperty tool="" name="meta.attr.1.stream.language">eng</metaproperty>
   <metaproperty tool="" name="meta.attr.compatible_brands">qt  niko</metaproperty>
   <metaproperty tool="" name="meta.attr.creation_time">2016-11-11 15:55:25</metaproperty>
   <metaproperty tool="" name="meta.attr.major_brand">qt  </metaproperty>
   <metaproperty tool="" name="meta.attr.minor_version">537331968</metaproperty>
  </kdenlive_producer>
  <kdenlive_producer audio_max="1" id="28" pix_fmt="yuvj420p" default_video="0" fps="25" analysisdata="" name="DSC_7846.MOV" videocodecid="h264" colorspace="601" videocodec="H.264 / AVC / MPEG-4 AVC / MPEG-4 part 10" resource="/home/nicolas/Documents/Projets Musique/Barons Freaks/COURTS METRAGES - MAIN/poubelle_a_rush/EpIII_coiffure/DSC_7846.MOV" default_audio="1" audiocodec="PCM signed 16-bit little-endian" duration="3350" groupid="1" file_hash="27422b32cc8dc0f0f70b30bffcc9caf5" aspect_ratio="1" channels="1" frequency="24000" video_max="0" progressive="1" groupname="Coiffure" type="3" frame_size="1280x720" file_size="185401426">
   <metaproperty tool="" name="meta.attr.0.stream.creation_time">2016-11-11 15:57:17</metaproperty>
   <metaproperty tool="" name="meta.attr.0.stream.language">eng</metaproperty>
   <metaproperty tool="" name="meta.attr.1.stream.creation_time">2016-11-11 15:57:17</metaproperty>
   <metaproperty tool="" name="meta.attr.1.stream.language">eng</metaproperty>
   <metaproperty tool="" name="meta.attr.compatible_brands">qt  niko</metaproperty>
   <metaproperty tool="" name="meta.attr.creation_time">2016-11-11 15:57:17</metaproperty>
   <metaproperty tool="" name="meta.attr.major_brand">qt  </metaproperty>
   <metaproperty tool="" name="meta.attr.minor_version">537331968</metaproperty>
  </kdenlive_producer>
  <kdenlive_producer audio_max="1" id="29" pix_fmt="yuvj420p" default_video="0" fps="25" analysisdata="" name="DSC_7843.MOV" videocodecid="h264" colorspace="601" videocodec="H.264 / AVC / MPEG-4 AVC / MPEG-4 part 10" resource="/home/nicolas/Documents/Projets Musique/Barons Freaks/COURTS METRAGES - MAIN/poubelle_a_rush/EpIII_coiffure/DSC_7843.MOV" default_audio="1" audiocodec="PCM signed 16-bit little-endian" duration="1193" groupid="1" file_hash="c7fb3f32bbdade340adc39e02c25800a" aspect_ratio="1" channels="1" frequency="24000" video_max="0" progressive="1" groupname="Coiffure" type="3" frame_size="1280x720" file_size="67878683">
   <metaproperty tool="" name="meta.attr.0.stream.creation_time">2016-11-11 15:47:33</metaproperty>
   <metaproperty tool="" name="meta.attr.0.stream.language">eng</metaproperty>
   <metaproperty tool="" name="meta.attr.1.stream.creation_time">2016-11-11 15:47:33</metaproperty>
   <metaproperty tool="" name="meta.attr.1.stream.language">eng</metaproperty>
   <metaproperty tool="" name="meta.attr.compatible_brands">qt  niko</metaproperty>
   <metaproperty tool="" name="meta.attr.creation_time">2016-11-11 15:47:33</metaproperty>
   <metaproperty tool="" name="meta.attr.major_brand">qt  </metaproperty>
   <metaproperty tool="" name="meta.attr.minor_version">537331968</metaproperty>
  </kdenlive_producer>
  <kdenlive_producer audio_max="1" id="30" pix_fmt="yuvj420p" default_video="0" fps="25" analysisdata="" name="DSC_7863.MOV" videocodecid="h264" colorspace="601" videocodec="H.264 / AVC / MPEG-4 AVC / MPEG-4 part 10" resource="/home/nicolas/Documents/Projets Musique/Barons Freaks/COURTS METRAGES - MAIN/COURTS METRAGES/EpisodeIII/DSC_7863.MOV" default_audio="1" audiocodec="PCM signed 16-bit little-endian" duration="278" groupid="1" file_hash="785d3209b5ea950bb627ed6b1c349a97" aspect_ratio="1" channels="1" frequency="24000" video_max="0" progressive="1" groupname="Coiffure" type="3" frame_size="1280x720" file_size="14783702">
   <metaproperty tool="" name="meta.attr.0.stream.creation_time">2016-11-11 17:04:20</metaproperty>
   <metaproperty tool="" name="meta.attr.0.stream.language">eng</metaproperty>
   <metaproperty tool="" name="meta.attr.1.stream.creation_time">2016-11-11 17:04:20</metaproperty>
   <metaproperty tool="" name="meta.attr.1.stream.language">eng</metaproperty>
   <metaproperty tool="" name="meta.attr.compatible_brands">qt  niko</metaproperty>
   <metaproperty tool="" name="meta.attr.creation_time">2016-11-11 17:04:20</metaproperty>
   <metaproperty tool="" name="meta.attr.major_brand">qt  </metaproperty>
   <metaproperty tool="" name="meta.attr.minor_version">537331968</metaproperty>
  </kdenlive_producer>
  <kdenlive_producer audio_max="1" id="31" pix_fmt="yuvj420p" default_video="0" fps="25" analysisdata="" name="DSC_7859.MOV" videocodecid="h264" colorspace="601" videocodec="H.264 / AVC / MPEG-4 AVC / MPEG-4 part 10" resource="/home/nicolas/Documents/Projets Musique/Barons Freaks/COURTS METRAGES - MAIN/COURTS METRAGES/EpisodeIII/DSC_7859.MOV" default_audio="1" audiocodec="PCM signed 16-bit little-endian" duration="1271" groupid="1" file_hash="c052a766e86b9cab29deabc91cc0a122" aspect_ratio="1" channels="1" frequency="24000" video_max="0" progressive="1" groupname="Coiffure" type="3" frame_size="1280x720" file_size="72230902">
   <metaproperty tool="" name="meta.attr.0.stream.creation_time">2016-11-11 16:42:36</metaproperty>
   <metaproperty tool="" name="meta.attr.0.stream.language">eng</metaproperty>
   <metaproperty tool="" name="meta.attr.1.stream.creation_time">2016-11-11 16:42:36</metaproperty>
   <metaproperty tool="" name="meta.attr.1.stream.language">eng</metaproperty>
   <metaproperty tool="" name="meta.attr.compatible_brands">qt  niko</metaproperty>
   <metaproperty tool="" name="meta.attr.creation_time">2016-11-11 16:42:36</metaproperty>
   <metaproperty tool="" name="meta.attr.major_brand">qt  </metaproperty>
   <metaproperty tool="" name="meta.attr.minor_version">537331968</metaproperty>
  </kdenlive_producer>
  <kdenlive_producer audio_max="1" id="32" pix_fmt="yuvj420p" default_video="0" fps="25" analysisdata="" name="DSC_7840.MOV" videocodecid="h264" colorspace="601" videocodec="H.264 / AVC / MPEG-4 AVC / MPEG-4 part 10" resource="/home/nicolas/Documents/Projets Musique/Barons Freaks/COURTS METRAGES - MAIN/COURTS METRAGES/EpisodeIII/DSC_7840.MOV" default_audio="1" audiocodec="PCM signed 16-bit little-endian" duration="467" groupid="1" file_hash="d664c1310f5ed8a956d4e61c8eb8182e" aspect_ratio="1" channels="1" frequency="24000" video_max="0" progressive="1" groupname="Coiffure" type="3" frame_size="1280x720" file_size="25972070">
   <metaproperty tool="" name="meta.attr.0.stream.creation_time">2016-11-11 15:36:54</metaproperty>
   <metaproperty tool="" name="meta.attr.0.stream.language">eng</metaproperty>
   <metaproperty tool="" name="meta.attr.1.stream.creation_time">2016-11-11 15:36:54</metaproperty>
   <metaproperty tool="" name="meta.attr.1.stream.language">eng</metaproperty>
   <metaproperty tool="" name="meta.attr.compatible_brands">qt  niko</metaproperty>
   <metaproperty tool="" name="meta.attr.creation_time">2016-11-11 15:36:54</metaproperty>
   <metaproperty tool="" name="meta.attr.major_brand">qt  </metaproperty>
   <metaproperty tool="" name="meta.attr.minor_version">537331968</metaproperty>
  </kdenlive_producer>
  <kdenlive_producer audio_max="1" id="33" pix_fmt="yuvj420p" default_video="0" fps="25" analysisdata="" name="DSC_7841.MOV" videocodecid="h264" colorspace="601" videocodec="H.264 / AVC / MPEG-4 AVC / MPEG-4 part 10" resource="/home/nicolas/Documents/Projets Musique/Barons Freaks/COURTS METRAGES - MAIN/COURTS METRAGES/EpisodeIII/DSC_7841.MOV" default_audio="1" audiocodec="PCM signed 16-bit little-endian" duration="644" groupid="1" file_hash="ce39b8bf922eab6493818dc74535c4c2" aspect_ratio="1" channels="1" frequency="24000" video_max="0" progressive="1" groupname="Coiffure" type="3" frame_size="1280x720" file_size="37505284">
   <metaproperty tool="" name="meta.attr.0.stream.creation_time">2016-11-11 15:37:33</metaproperty>
   <metaproperty tool="" name="meta.attr.0.stream.language">eng</metaproperty>
   <metaproperty tool="" name="meta.attr.1.stream.creation_time">2016-11-11 15:37:33</metaproperty>
   <metaproperty tool="" name="meta.attr.1.stream.language">eng</metaproperty>
   <metaproperty tool="" name="meta.attr.compatible_brands">qt  niko</metaproperty>
   <metaproperty tool="" name="meta.attr.creation_time">2016-11-11 15:37:33</metaproperty>
   <metaproperty tool="" name="meta.attr.major_brand">qt  </metaproperty>
   <metaproperty tool="" name="meta.attr.minor_version">537331968</metaproperty>
  </kdenlive_producer>
  <kdenlive_producer audio_max="1" id="34" pix_fmt="yuvj420p" default_video="0" fps="25" analysisdata="" name="DSC_7842.MOV" videocodecid="h264" colorspace="601" videocodec="H.264 / AVC / MPEG-4 AVC / MPEG-4 part 10" resource="/home/nicolas/Documents/Projets Musique/Barons Freaks/COURTS METRAGES - MAIN/COURTS METRAGES/EpisodeIII/DSC_7842.MOV" default_audio="1" audiocodec="PCM signed 16-bit little-endian" duration="218" groupid="1" file_hash="d2e6d0dac8795fa27043c036f553e6f0" aspect_ratio="1" channels="1" frequency="24000" video_max="0" progressive="1" groupname="Coiffure" type="3" frame_size="1280x720" file_size="11985653">
   <metaproperty tool="" name="meta.attr.0.stream.creation_time">2016-11-11 15:38:39</metaproperty>
   <metaproperty tool="" name="meta.attr.0.stream.language">eng</metaproperty>
   <metaproperty tool="" name="meta.attr.1.stream.creation_time">2016-11-11 15:38:39</metaproperty>
   <metaproperty tool="" name="meta.attr.1.stream.language">eng</metaproperty>
   <metaproperty tool="" name="meta.attr.compatible_brands">qt  niko</metaproperty>
   <metaproperty tool="" name="meta.attr.creation_time">2016-11-11 15:38:39</metaproperty>
   <metaproperty tool="" name="meta.attr.major_brand">qt  </metaproperty>
   <metaproperty tool="" name="meta.attr.minor_version">537331968</metaproperty>
  </kdenlive_producer>
  <kdenlive_producer duration="125" frame_size="1280x720" in="0" analysisdata="" file_size="13990" groupid="2" aspect_ratio="1" out="124" groupname="Masques" file_hash="937f15be320a493057ada64399152060" type="5" id="36" name="4_diaphragmes.png" resource="/home/nicolas/Documents/Projets Musique/Barons Freaks/COURTS METRAGES - MAIN/COURTS METRAGES/4_diaphragmes.png"/>
  <kdenlive_producer audio_max="1" id="37" pix_fmt="yuv420p" default_video="0" fps="25" analysisdata="" name="4-diaphragmes.mp4" videocodecid="h264" colorspace="601" videocodec="H.264 / AVC / MPEG-4 AVC / MPEG-4 part 10" resource="/home/nicolas/Documents/Projets Musique/Barons Freaks/COURTS METRAGES - MAIN/COURTS METRAGES/EpisodeIII/4-diaphragmes.mp4" default_audio="1" audiocodec="AAC (Advanced Audio Coding)" duration="60" groupid="1" file_hash="93af074882b70449419dd42ef017a93e" aspect_ratio="1" channels="2" frequency="48000" video_max="0" progressive="1" groupname="Coiffure" type="3" frame_size="1024x576" file_size="730816">
   <metaproperty tool="" name="meta.attr.compatible_brands">isomiso2avc1mp41</metaproperty>
   <metaproperty tool="" name="meta.attr.encoder">Lavf56.1.0</metaproperty>
   <metaproperty tool="" name="meta.attr.major_brand">isom</metaproperty>
   <metaproperty tool="" name="meta.attr.minor_version">512</metaproperty>
  </kdenlive_producer>
  <kdenlive_producer audio_max="1" id="38" pix_fmt="yuvj420p" default_video="0" fps="25" analysisdata="" name="DSC_7836.MOV" videocodecid="h264" colorspace="601" videocodec="H.264 / AVC / MPEG-4 AVC / MPEG-4 part 10" resource="/home/nicolas/Documents/Projets Musique/Barons Freaks/COURTS METRAGES - MAIN/COURTS METRAGES/EpisodeIII/DSC_7836.MOV" default_audio="1" audiocodec="PCM signed 16-bit little-endian" duration="818" groupid="1" file_hash="cfadb74877a7190c44e60ea9d429c4ea" aspect_ratio="1" channels="1" frequency="24000" video_max="0" progressive="1" groupname="Coiffure" type="3" frame_size="1280x720" file_size="45853965">
   <metaproperty tool="" name="meta.attr.0.stream.creation_time">2016-11-11 15:27:22</metaproperty>
   <metaproperty tool="" name="meta.attr.0.stream.language">eng</metaproperty>
   <metaproperty tool="" name="meta.attr.1.stream.creation_time">2016-11-11 15:27:22</metaproperty>
   <metaproperty tool="" name="meta.attr.1.stream.language">eng</metaproperty>
   <metaproperty tool="" name="meta.attr.compatible_brands">qt  niko</metaproperty>
   <metaproperty tool="" name="meta.attr.creation_time">2016-11-11 15:27:22</metaproperty>
   <metaproperty tool="" name="meta.attr.major_brand">qt  </metaproperty>
   <metaproperty tool="" name="meta.attr.minor_version">537331968</metaproperty>
  </kdenlive_producer>
  <kdenlive_producer audio_max="0" id="39" pix_fmt="yuvj420p" default_video="0" fps="23,976" analysisdata="" name="DSC_0014.MOV" videocodecid="h264" colorspace="601" videocodec="H.264 / AVC / MPEG-4 AVC / MPEG-4 part 10" resource="/home/nicolas/Documents/Projets Musique/Barons Freaks/COURTS METRAGES - MAIN/COURTS METRAGES/EpisodeIII/DSC_0014.MOV" default_audio="-1" duration="1401" groupid="1" file_hash="1b241c365c4ef6a00169e0d48810ff99" aspect_ratio="1" video_max="0" progressive="1" groupname="Coiffure" type="2" frame_size="1920x1080" file_size="131738771">
   <metaproperty tool="" name="meta.attr.0.stream.creation_time">2017-03-12 19:25:00</metaproperty>
   <metaproperty tool="" name="meta.attr.0.stream.language">eng</metaproperty>
   <metaproperty tool="" name="meta.attr.compatible_brands">qt  niko</metaproperty>
   <metaproperty tool="" name="meta.attr.creation_time">2017-03-12 19:25:00</metaproperty>
   <metaproperty tool="" name="meta.attr.major_brand">qt  </metaproperty>
   <metaproperty tool="" name="meta.attr.minor_version">537331968</metaproperty>
  </kdenlive_producer>
  <kdenlive_producer audio_max="0" id="40" pix_fmt="yuvj420p" default_video="0" fps="23,976" analysisdata="" name="DSC_0016.MOV" videocodecid="h264" colorspace="601" videocodec="H.264 / AVC / MPEG-4 AVC / MPEG-4 part 10" resource="/home/nicolas/Documents/Projets Musique/Barons Freaks/COURTS METRAGES - MAIN/COURTS METRAGES/EpisodeIII/DSC_0016.MOV" default_audio="-1" duration="197" groupid="1" file_hash="e47072a8bca459341220d8aa80217d26" aspect_ratio="1" video_max="0" progressive="1" groupname="Coiffure" type="2" frame_size="1920x1080" file_size="20602181">
   <metaproperty tool="" name="meta.attr.0.stream.creation_time">2017-03-12 19:27:19</metaproperty>
   <metaproperty tool="" name="meta.attr.0.stream.language">eng</metaproperty>
   <metaproperty tool="" name="meta.attr.compatible_brands">qt  niko</metaproperty>
   <metaproperty tool="" name="meta.attr.creation_time">2017-03-12 19:27:19</metaproperty>
   <metaproperty tool="" name="meta.attr.major_brand">qt  </metaproperty>
   <metaproperty tool="" name="meta.attr.minor_version">537331968</metaproperty>
  </kdenlive_producer>
  <kdenlive_producer audio_max="0" id="41" pix_fmt="yuvj420p" default_video="0" fps="23,976" analysisdata="" name="DSC_0019.MOV" videocodecid="h264" colorspace="601" videocodec="H.264 / AVC / MPEG-4 AVC / MPEG-4 part 10" resource="/home/nicolas/Documents/Projets Musique/Barons Freaks/COURTS METRAGES - MAIN/COURTS METRAGES/EpisodeIII/DSC_0019.MOV" default_audio="-1" duration="741" groupid="1" file_hash="200423f267513c21006649caadb6ebc8" aspect_ratio="1" video_max="0" progressive="1" groupname="Coiffure" type="2" frame_size="1920x1080" file_size="71924804">
   <metaproperty tool="" name="meta.attr.0.stream.creation_time">2017-03-12 19:31:26</metaproperty>
   <metaproperty tool="" name="meta.attr.0.stream.language">eng</metaproperty>
   <metaproperty tool="" name="meta.attr.compatible_brands">qt  niko</metaproperty>
   <metaproperty tool="" name="meta.attr.creation_time">2017-03-12 19:31:26</metaproperty>
   <metaproperty tool="" name="meta.attr.major_brand">qt  </metaproperty>
   <metaproperty tool="" name="meta.attr.minor_version">537331968</metaproperty>
  </kdenlive_producer>
  <kdenlive_producer audio_max="1" id="42" pix_fmt="yuvj420p" default_video="0" fps="25" analysisdata="" name="DSC_0010.MOV" videocodecid="h264" colorspace="601" videocodec="H.264 / AVC / MPEG-4 AVC / MPEG-4 part 10" resource="/home/nicolas/Documents/Projets Musique/Barons Freaks/COURTS METRAGES - MAIN/COURTS METRAGES/EpisodeIII/Sources/Videos/stevo-jobs/DSC_0010.MOV" default_audio="1" audiocodec="PCM signed 16-bit little-endian" duration="10811" file_hash="c407f562c89e92a1fead14120e1a6c55" aspect_ratio="1" channels="1" frequency="24000" video_max="0" progressive="1" type="3" frame_size="1280x720" file_size="570060006">
   <metaproperty tool="" name="meta.attr.0.stream.creation_time">2016-11-24 13:10:30</metaproperty>
   <metaproperty tool="" name="meta.attr.0.stream.language">eng</metaproperty>
   <metaproperty tool="" name="meta.attr.1.stream.creation_time">2016-11-24 13:10:30</metaproperty>
   <metaproperty tool="" name="meta.attr.1.stream.language">eng</metaproperty>
   <metaproperty tool="" name="meta.attr.compatible_brands">qt  niko</metaproperty>
   <metaproperty tool="" name="meta.attr.creation_time">2016-11-24 13:10:30</metaproperty>
   <metaproperty tool="" name="meta.attr.major_brand">qt  </metaproperty>
   <metaproperty tool="" name="meta.attr.minor_version">537331968</metaproperty>
  </kdenlive_producer>
  <kdenlive_producer audio_max="1" id="43" pix_fmt="yuv420p" default_video="0" fps="25" analysisdata="" name="hall.mp4" videocodecid="h264" colorspace="709" videocodec="H.264 / AVC / MPEG-4 AVC / MPEG-4 part 10" resource="/home/nicolas/Documents/Projets Musique/Barons Freaks/COURTS METRAGES - MAIN/COURTS METRAGES/EpisodeIII/Sources/Videos/stevo-jobs/hall.mp4" default_audio="1" audiocodec="AAC (Advanced Audio Coding)" duration="649" groupid="1" file_hash="a37fe733046437c51231e268a3352443" aspect_ratio="1" channels="2" frequency="48000" video_max="0" progressive="1" groupname="Coiffure" type="3" frame_size="1280x720" file_size="6784083">
   <metaproperty tool="" name="meta.attr.compatible_brands">isomiso2avc1mp41</metaproperty>
   <metaproperty tool="" name="meta.attr.encoder">Lavf56.1.0</metaproperty>
   <metaproperty tool="" name="meta.attr.major_brand">isom</metaproperty>
   <metaproperty tool="" name="meta.attr.minor_version">512</metaproperty>
  </kdenlive_producer>
  <kdenlive_producer audio_max="1" id="44" pix_fmt="yuv420p" default_video="0" fps="25" analysisdata="" name="entree.mp4" videocodecid="h264" colorspace="709" videocodec="H.264 / AVC / MPEG-4 AVC / MPEG-4 part 10" resource="/home/nicolas/Documents/Projets Musique/Barons Freaks/COURTS METRAGES - MAIN/COURTS METRAGES/EpisodeIII/Sources/Videos/stevo-jobs/entree.mp4" default_audio="1" audiocodec="AAC (Advanced Audio Coding)" duration="690" groupid="1" file_hash="90ce7e3f2fad59437cf04830e83f0b22" aspect_ratio="1" channels="2" frequency="48000" video_max="0" progressive="1" groupname="Coiffure" type="3" frame_size="1280x720" file_size="6606796">
   <metaproperty tool="" name="meta.attr.compatible_brands">isomiso2avc1mp41</metaproperty>
   <metaproperty tool="" name="meta.attr.encoder">Lavf56.1.0</metaproperty>
   <metaproperty tool="" name="meta.attr.major_brand">isom</metaproperty>
   <metaproperty tool="" name="meta.attr.minor_version">512</metaproperty>
  </kdenlive_producer>
  <kdenlive_producer audio_max="1" id="45" pix_fmt="yuvj420p" default_video="0" fps="25" analysisdata="" name="DSC_0014.MOV" videocodecid="h264" colorspace="601" videocodec="H.264 / AVC / MPEG-4 AVC / MPEG-4 part 10" resource="/home/nicolas/Documents/Projets Musique/Barons Freaks/COURTS METRAGES - MAIN/COURTS METRAGES/EpisodeIII/Sources/Videos/stevo-jobs/DSC_0014.MOV" default_audio="1" audiocodec="PCM signed 16-bit little-endian" duration="638" groupid="1" file_hash="f2c88cf9c83a9563215750fde6a832b1" aspect_ratio="1" channels="1" frequency="24000" video_max="0" progressive="1" groupname="Coiffure" type="3" frame_size="1280x720" file_size="35377951">
   <metaproperty tool="" name="meta.attr.0.stream.creation_time">2016-11-24 14:51:53</metaproperty>
   <metaproperty tool="" name="meta.attr.0.stream.language">eng</metaproperty>
   <metaproperty tool="" name="meta.attr.1.stream.creation_time">2016-11-24 14:51:53</metaproperty>
   <metaproperty tool="" name="meta.attr.1.stream.language">eng</metaproperty>
   <metaproperty tool="" name="meta.attr.compatible_brands">qt  niko</metaproperty>
   <metaproperty tool="" name="meta.attr.creation_time">2016-11-24 14:51:53</metaproperty>
   <metaproperty tool="" name="meta.attr.major_brand">qt  </metaproperty>
   <metaproperty tool="" name="meta.attr.minor_version">537331968</metaproperty>
  </kdenlive_producer>
  <kdenlive_producer audio_max="1" id="46" pix_fmt="yuvj420p" default_video="0" fps="25" analysisdata="" name="DSC_0016.MOV" videocodecid="h264" colorspace="601" videocodec="H.264 / AVC / MPEG-4 AVC / MPEG-4 part 10" resource="/home/nicolas/Documents/Projets Musique/Barons Freaks/COURTS METRAGES - MAIN/COURTS METRAGES/EpisodeIII/Sources/Videos/stevo-jobs/DSC_0016.MOV" default_audio="1" audiocodec="PCM signed 16-bit little-endian" duration="335" file_hash="e8c25e1d7b3c66bcfee4d5321aeb5be1" aspect_ratio="1" channels="1" frequency="24000" video_max="0" progressive="1" type="3" frame_size="1280x720" file_size="18128185">
   <metaproperty tool="" name="meta.attr.0.stream.creation_time">2016-11-24 14:53:02</metaproperty>
   <metaproperty tool="" name="meta.attr.0.stream.language">eng</metaproperty>
   <metaproperty tool="" name="meta.attr.1.stream.creation_time">2016-11-24 14:53:02</metaproperty>
   <metaproperty tool="" name="meta.attr.1.stream.language">eng</metaproperty>
   <metaproperty tool="" name="meta.attr.compatible_brands">qt  niko</metaproperty>
   <metaproperty tool="" name="meta.attr.creation_time">2016-11-24 14:53:02</metaproperty>
   <metaproperty tool="" name="meta.attr.major_brand">qt  </metaproperty>
   <metaproperty tool="" name="meta.attr.minor_version">537331968</metaproperty>
  </kdenlive_producer>
  <kdenlive_producer audio_max="1" id="47" pix_fmt="yuvj420p" default_video="0" fps="25" analysisdata="" name="DSC_0028.MOV" videocodecid="h264" colorspace="601" videocodec="H.264 / AVC / MPEG-4 AVC / MPEG-4 part 10" resource="/home/nicolas/Documents/Projets Musique/Barons Freaks/COURTS METRAGES - MAIN/COURTS METRAGES/EpisodeIII/Sources/Videos/stevo-jobs/DSC_0028.MOV" default_audio="1" audiocodec="PCM signed 16-bit little-endian" duration="206" file_hash="759e30f45dc0575e067587bf0e882f6b" aspect_ratio="1" channels="1" frequency="24000" video_max="0" progressive="1" type="3" frame_size="1280x720" file_size="11102919">
   <metaproperty tool="" name="meta.attr.0.stream.creation_time">2016-11-24 15:17:44</metaproperty>
   <metaproperty tool="" name="meta.attr.0.stream.language">eng</metaproperty>
   <metaproperty tool="" name="meta.attr.1.stream.creation_time">2016-11-24 15:17:44</metaproperty>
   <metaproperty tool="" name="meta.attr.1.stream.language">eng</metaproperty>
   <metaproperty tool="" name="meta.attr.compatible_brands">qt  niko</metaproperty>
   <metaproperty tool="" name="meta.attr.creation_time">2016-11-24 15:17:44</metaproperty>
   <metaproperty tool="" name="meta.attr.major_brand">qt  </metaproperty>
   <metaproperty tool="" name="meta.attr.minor_version">537331968</metaproperty>
  </kdenlive_producer>
  <kdenlive_producer audio_max="1" id="48" pix_fmt="yuvj420p" default_video="0" fps="25" analysisdata="" name="DSC_0020.MOV" videocodecid="h264" colorspace="601" videocodec="H.264 / AVC / MPEG-4 AVC / MPEG-4 part 10" resource="/home/nicolas/Documents/Projets Musique/Barons Freaks/COURTS METRAGES - MAIN/COURTS METRAGES/EpisodeIII/Sources/Videos/stevo-jobs/DSC_0020.MOV" default_audio="1" audiocodec="PCM signed 16-bit little-endian" duration="5840" file_hash="11cfb082b3f18028a5aa2d1965012a5e" aspect_ratio="1" channels="1" frequency="24000" video_max="0" progressive="1" type="3" frame_size="1280x720" file_size="315272073">
   <metaproperty tool="" name="meta.attr.0.stream.creation_time">2016-11-24 15:00:53</metaproperty>
   <metaproperty tool="" name="meta.attr.0.stream.language">eng</metaproperty>
   <metaproperty tool="" name="meta.attr.1.stream.creation_time">2016-11-24 15:00:53</metaproperty>
   <metaproperty tool="" name="meta.attr.1.stream.language">eng</metaproperty>
   <metaproperty tool="" name="meta.attr.compatible_brands">qt  niko</metaproperty>
   <metaproperty tool="" name="meta.attr.creation_time">2016-11-24 15:00:53</metaproperty>
   <metaproperty tool="" name="meta.attr.major_brand">qt  </metaproperty>
   <metaproperty tool="" name="meta.attr.minor_version">537331968</metaproperty>
  </kdenlive_producer>
  <kdenlive_producer audio_max="1" id="49" pix_fmt="yuvj420p" default_video="0" fps="25" analysisdata="" name="DSC_0022.MOV" videocodecid="h264" colorspace="601" videocodec="H.264 / AVC / MPEG-4 AVC / MPEG-4 part 10" resource="/home/nicolas/Documents/Projets Musique/Barons Freaks/COURTS METRAGES - MAIN/COURTS METRAGES/EpisodeIII/Sources/Videos/stevo-jobs/DSC_0022.MOV" default_audio="1" audiocodec="PCM signed 16-bit little-endian" duration="2840" file_hash="57d7dc319ac27474134e3d9081972222" aspect_ratio="1" channels="1" frequency="24000" video_max="0" progressive="1" type="3" frame_size="1280x720" file_size="159293146">
   <metaproperty tool="" name="meta.attr.0.stream.creation_time">2016-11-24 15:06:48</metaproperty>
   <metaproperty tool="" name="meta.attr.0.stream.language">eng</metaproperty>
   <metaproperty tool="" name="meta.attr.1.stream.creation_time">2016-11-24 15:06:48</metaproperty>
   <metaproperty tool="" name="meta.attr.1.stream.language">eng</metaproperty>
   <metaproperty tool="" name="meta.attr.compatible_brands">qt  niko</metaproperty>
   <metaproperty tool="" name="meta.attr.creation_time">2016-11-24 15:06:48</metaproperty>
   <metaproperty tool="" name="meta.attr.major_brand">qt  </metaproperty>
   <metaproperty tool="" name="meta.attr.minor_version">537331968</metaproperty>
  </kdenlive_producer>
  <kdenlive_producer audio_max="1" id="50" pix_fmt="yuvj420p" default_video="0" fps="25" analysisdata="" name="DSC_0025.MOV" videocodecid="h264" colorspace="601" videocodec="H.264 / AVC / MPEG-4 AVC / MPEG-4 part 10" resource="/home/nicolas/Documents/Projets Musique/Barons Freaks/COURTS METRAGES - MAIN/COURTS METRAGES/EpisodeIII/Sources/Videos/stevo-jobs/DSC_0025.MOV" default_audio="1" audiocodec="PCM signed 16-bit little-endian" duration="1265" file_hash="cae2e382cf90f0eee68a51726f5d5274" aspect_ratio="1" channels="1" frequency="24000" video_max="0" progressive="1" type="3" frame_size="1280x720" file_size="72428793">
   <metaproperty tool="" name="meta.attr.0.stream.creation_time">2016-11-24 15:14:37</metaproperty>
   <metaproperty tool="" name="meta.attr.0.stream.language">eng</metaproperty>
   <metaproperty tool="" name="meta.attr.1.stream.creation_time">2016-11-24 15:14:37</metaproperty>
   <metaproperty tool="" name="meta.attr.1.stream.language">eng</metaproperty>
   <metaproperty tool="" name="meta.attr.compatible_brands">qt  niko</metaproperty>
   <metaproperty tool="" name="meta.attr.creation_time">2016-11-24 15:14:37</metaproperty>
   <metaproperty tool="" name="meta.attr.major_brand">qt  </metaproperty>
   <metaproperty tool="" name="meta.attr.minor_version">537331968</metaproperty>
  </kdenlive_producer>
  <kdenlive_producer audio_max="1" id="51" pix_fmt="yuvj420p" default_video="0" fps="25" analysisdata="" name="DSC_0038.MOV" videocodecid="h264" colorspace="601" videocodec="H.264 / AVC / MPEG-4 AVC / MPEG-4 part 10" resource="/home/nicolas/Documents/Projets Musique/Barons Freaks/COURTS METRAGES - MAIN/COURTS METRAGES/EpisodeIII/Sources/Videos/stevo-jobs/DSC_0038.MOV" default_audio="1" audiocodec="PCM signed 16-bit little-endian" duration="371" file_hash="d13e999831e5e496f47fdc29a74d0b0b" aspect_ratio="1" channels="1" frequency="24000" video_max="0" progressive="1" type="3" frame_size="1280x720" file_size="20594634">
   <metaproperty tool="" name="meta.attr.0.stream.creation_time">2016-11-24 15:39:39</metaproperty>
   <metaproperty tool="" name="meta.attr.0.stream.language">eng</metaproperty>
   <metaproperty tool="" name="meta.attr.1.stream.creation_time">2016-11-24 15:39:39</metaproperty>
   <metaproperty tool="" name="meta.attr.1.stream.language">eng</metaproperty>
   <metaproperty tool="" name="meta.attr.compatible_brands">qt  niko</metaproperty>
   <metaproperty tool="" name="meta.attr.creation_time">2016-11-24 15:39:39</metaproperty>
   <metaproperty tool="" name="meta.attr.major_brand">qt  </metaproperty>
   <metaproperty tool="" name="meta.attr.minor_version">537331968</metaproperty>
  </kdenlive_producer>
  <kdenlive_producer audio_max="1" id="52" pix_fmt="yuvj420p" default_video="0" fps="25" analysisdata="" name="DSC_0029.MOV" videocodecid="h264" colorspace="601" videocodec="H.264 / AVC / MPEG-4 AVC / MPEG-4 part 10" resource="/home/nicolas/Documents/Projets Musique/Barons Freaks/COURTS METRAGES - MAIN/COURTS METRAGES/EpisodeIII/Sources/Videos/stevo-jobs/DSC_0029.MOV" default_audio="1" audiocodec="PCM signed 16-bit little-endian" duration="863" file_hash="806ff39c48167203e56c66f7ffbfe956" aspect_ratio="1" channels="1" frequency="24000" video_max="0" progressive="1" type="3" frame_size="1280x720" file_size="46471155">
   <metaproperty tool="" name="meta.attr.0.stream.creation_time">2016-11-24 15:18:52</metaproperty>
   <metaproperty tool="" name="meta.attr.0.stream.language">eng</metaproperty>
   <metaproperty tool="" name="meta.attr.1.stream.creation_time">2016-11-24 15:18:52</metaproperty>
   <metaproperty tool="" name="meta.attr.1.stream.language">eng</metaproperty>
   <metaproperty tool="" name="meta.attr.compatible_brands">qt  niko</metaproperty>
   <metaproperty tool="" name="meta.attr.creation_time">2016-11-24 15:18:52</metaproperty>
   <metaproperty tool="" name="meta.attr.major_brand">qt  </metaproperty>
   <metaproperty tool="" name="meta.attr.minor_version">537331968</metaproperty>
  </kdenlive_producer>
  <kdenlive_producer audio_max="1" id="53" pix_fmt="yuvj420p" default_video="0" fps="25" analysisdata="" name="DSC_0017.MOV" videocodecid="h264" colorspace="601" videocodec="H.264 / AVC / MPEG-4 AVC / MPEG-4 part 10" resource="/home/nicolas/Documents/Projets Musique/Barons Freaks/COURTS METRAGES - MAIN/COURTS METRAGES/EpisodeIII/Sources/Videos/stevo-jobs/DSC_0017.MOV" default_audio="1" audiocodec="PCM signed 16-bit little-endian" duration="2156" file_hash="2be0ca443f41f9872f2eaf13c780fc00" aspect_ratio="1" channels="1" frequency="24000" video_max="0" progressive="1" type="3" frame_size="1280x720" file_size="119093809">
   <metaproperty tool="" name="meta.attr.0.stream.creation_time">2016-11-24 14:55:22</metaproperty>
   <metaproperty tool="" name="meta.attr.0.stream.language">eng</metaproperty>
   <metaproperty tool="" name="meta.attr.1.stream.creation_time">2016-11-24 14:55:22</metaproperty>
   <metaproperty tool="" name="meta.attr.1.stream.language">eng</metaproperty>
   <metaproperty tool="" name="meta.attr.compatible_brands">qt  niko</metaproperty>
   <metaproperty tool="" name="meta.attr.creation_time">2016-11-24 14:55:22</metaproperty>
   <metaproperty tool="" name="meta.attr.major_brand">qt  </metaproperty>
   <metaproperty tool="" name="meta.attr.minor_version">537331968</metaproperty>
  </kdenlive_producer>
  <kdenlive_producer audio_max="1" id="54" pix_fmt="yuvj420p" default_video="0" fps="25" analysisdata="" name="DSC_0036.MOV" videocodecid="h264" colorspace="601" videocodec="H.264 / AVC / MPEG-4 AVC / MPEG-4 part 10" resource="/home/nicolas/Documents/Projets Musique/Barons Freaks/COURTS METRAGES - MAIN/COURTS METRAGES/EpisodeIII/Sources/Videos/stevo-jobs/DSC_0036.MOV" default_audio="1" audiocodec="PCM signed 16-bit little-endian" duration="257" file_hash="d601637fc1f314d184127133802dc200" aspect_ratio="1" channels="1" frequency="24000" video_max="0" progressive="1" type="3" frame_size="1280x720" file_size="14550005">
   <metaproperty tool="" name="meta.attr.0.stream.creation_time">2016-11-24 15:29:20</metaproperty>
   <metaproperty tool="" name="meta.attr.0.stream.language">eng</metaproperty>
   <metaproperty tool="" name="meta.attr.1.stream.creation_time">2016-11-24 15:29:20</metaproperty>
   <metaproperty tool="" name="meta.attr.1.stream.language">eng</metaproperty>
   <metaproperty tool="" name="meta.attr.compatible_brands">qt  niko</metaproperty>
   <metaproperty tool="" name="meta.attr.creation_time">2016-11-24 15:29:20</metaproperty>
   <metaproperty tool="" name="meta.attr.major_brand">qt  </metaproperty>
   <metaproperty tool="" name="meta.attr.minor_version">537331968</metaproperty>
  </kdenlive_producer>
  <kdenlive_producer audio_max="1" id="55" pix_fmt="yuvj420p" default_video="0" fps="25" analysisdata="" name="DSC_0030.MOV" videocodecid="h264" colorspace="601" videocodec="H.264 / AVC / MPEG-4 AVC / MPEG-4 part 10" resource="/home/nicolas/Documents/Projets Musique/Barons Freaks/COURTS METRAGES - MAIN/COURTS METRAGES/EpisodeIII/Sources/Videos/stevo-jobs/DSC_0030.MOV" default_audio="1" audiocodec="PCM signed 16-bit little-endian" duration="2483" file_hash="927fa929393b476fcbd9df50ba0ab354" aspect_ratio="1" channels="1" frequency="24000" video_max="0" progressive="1" type="3" frame_size="1280x720" file_size="139197002">
   <metaproperty tool="" name="meta.attr.0.stream.creation_time">2016-11-24 15:20:19</metaproperty>
   <metaproperty tool="" name="meta.attr.0.stream.language">eng</metaproperty>
   <metaproperty tool="" name="meta.attr.1.stream.creation_time">2016-11-24 15:20:19</metaproperty>
   <metaproperty tool="" name="meta.attr.1.stream.language">eng</metaproperty>
   <metaproperty tool="" name="meta.attr.compatible_brands">qt  niko</metaproperty>
   <metaproperty tool="" name="meta.attr.creation_time">2016-11-24 15:20:19</metaproperty>
   <metaproperty tool="" name="meta.attr.major_brand">qt  </metaproperty>
   <metaproperty tool="" name="meta.attr.minor_version">537331968</metaproperty>
  </kdenlive_producer>
  <kdenlive_producer audio_max="1" id="56" pix_fmt="yuvj420p" default_video="0" fps="25" analysisdata="" name="DSC_0004.MOV" videocodecid="h264" colorspace="601" videocodec="H.264 / AVC / MPEG-4 AVC / MPEG-4 part 10" resource="/home/nicolas/Documents/Projets Musique/Barons Freaks/COURTS METRAGES - MAIN/COURTS METRAGES/EpisodeIII/DSC_0004.MOV" default_audio="1" audiocodec="PCM signed 16-bit little-endian" duration="2762" file_hash="c1a428911c7856304841290547b992ee" aspect_ratio="1" channels="1" frequency="24000" video_max="0" progressive="1" type="3" frame_size="1280x720" file_size="145812856">
   <metaproperty tool="" name="meta.attr.0.stream.creation_time">2017-02-10 13:32:39</metaproperty>
   <metaproperty tool="" name="meta.attr.0.stream.language">eng</metaproperty>
   <metaproperty tool="" name="meta.attr.1.stream.creation_time">2017-02-10 13:32:39</metaproperty>
   <metaproperty tool="" name="meta.attr.1.stream.language">eng</metaproperty>
   <metaproperty tool="" name="meta.attr.compatible_brands">qt  niko</metaproperty>
   <metaproperty tool="" name="meta.attr.creation_time">2017-02-10 13:32:39</metaproperty>
   <metaproperty tool="" name="meta.attr.major_brand">qt  </metaproperty>
   <metaproperty tool="" name="meta.attr.minor_version">537331968</metaproperty>
  </kdenlive_producer>
  <kdenlive_producer audio_max="1" id="57" pix_fmt="yuvj420p" default_video="0" fps="25" analysisdata="" name="DSC_0006.MOV" videocodecid="h264" colorspace="601" videocodec="H.264 / AVC / MPEG-4 AVC / MPEG-4 part 10" resource="/home/nicolas/Documents/Projets Musique/Barons Freaks/COURTS METRAGES - MAIN/COURTS METRAGES/EpisodeIII/DSC_0006.MOV" default_audio="1" audiocodec="PCM signed 16-bit little-endian" duration="293" file_hash="2242da04284f049903ed089bd6341237" aspect_ratio="1" channels="1" frequency="24000" video_max="0" progressive="1" type="3" frame_size="1280x720" file_size="15657972">
   <metaproperty tool="" name="meta.attr.0.stream.creation_time">2017-02-10 13:36:42</metaproperty>
   <metaproperty tool="" name="meta.attr.0.stream.language">eng</metaproperty>
   <metaproperty tool="" name="meta.attr.1.stream.creation_time">2017-02-10 13:36:42</metaproperty>
   <metaproperty tool="" name="meta.attr.1.stream.language">eng</metaproperty>
   <metaproperty tool="" name="meta.attr.compatible_brands">qt  niko</metaproperty>
   <metaproperty tool="" name="meta.attr.creation_time">2017-02-10 13:36:42</metaproperty>
   <metaproperty tool="" name="meta.attr.major_brand">qt  </metaproperty>
   <metaproperty tool="" name="meta.attr.minor_version">537331968</metaproperty>
  </kdenlive_producer>
  <kdenlive_producer audio_max="1" id="58" pix_fmt="yuvj420p" default_video="0" fps="25" analysisdata="" name="DSC_0037.MOV" videocodecid="h264" colorspace="601" videocodec="H.264 / AVC / MPEG-4 AVC / MPEG-4 part 10" resource="/home/nicolas/Documents/Projets Musique/Barons Freaks/COURTS METRAGES - MAIN/COURTS METRAGES/EpisodeIII/Sources/Videos/stevo-jobs/DSC_0037.MOV" default_audio="1" audiocodec="PCM signed 16-bit little-endian" duration="305" file_hash="9914f14c58fa7ccb24461838adedf866" aspect_ratio="1" channels="1" frequency="24000" video_max="0" progressive="1" type="3" frame_size="1280x720" file_size="17517827">
   <metaproperty tool="" name="meta.attr.0.stream.creation_time">2016-11-24 15:32:09</metaproperty>
   <metaproperty tool="" name="meta.attr.0.stream.language">eng</metaproperty>
   <metaproperty tool="" name="meta.attr.1.stream.creation_time">2016-11-24 15:32:09</metaproperty>
   <metaproperty tool="" name="meta.attr.1.stream.language">eng</metaproperty>
   <metaproperty tool="" name="meta.attr.compatible_brands">qt  niko</metaproperty>
   <metaproperty tool="" name="meta.attr.creation_time">2016-11-24 15:32:09</metaproperty>
   <metaproperty tool="" name="meta.attr.major_brand">qt  </metaproperty>
   <metaproperty tool="" name="meta.attr.minor_version">537331968</metaproperty>
  </kdenlive_producer>
  <kdenlive_producer duration="125" frame_size="1280x720" in="0" analysisdata="" file_size="605249" groupid="1" aspect_ratio="1" out="124" groupname="Coiffure" file_hash="2389b96bd6b2a5d740dc6b03c1c6ad1e" type="5" id="59" name="Au fait il va falloir penser √† payer votre loyer.png" resource="/home/nicolas/Documents/Projets Musique/Barons Freaks/COURTS METRAGES - MAIN/COURTS METRAGES/EpisodeIII/panneaux/Au fait il va falloir penser √† payer votre loyer.png"/>
  <kdenlive_producer duration="125" frame_size="1280x720" in="0" analysisdata="" file_size="604779" groupid="1" aspect_ratio="1" out="124" groupname="Coiffure" file_hash="66b1e72108de29db998642fd2f0cfd61" type="5" id="60" name="allez √† cette adresse.png" resource="/home/nicolas/Documents/Projets Musique/Barons Freaks/COURTS METRAGES - MAIN/COURTS METRAGES/EpisodeIII/panneaux/allez √† cette adresse.png"/>
  <kdenlive_producer duration="125" frame_size="1280x720" in="0" analysisdata="" file_size="618675" groupid="1" aspect_ratio="1" out="124" groupname="Coiffure" file_hash="81fc4f09116c535439a192f97836b6ad" type="5" id="61" name="il faut que vous trouviez un travail.png" resource="/home/nicolas/Documents/Projets Musique/Barons Freaks/COURTS METRAGES - MAIN/COURTS METRAGES/EpisodeIII/panneaux/il faut que vous trouviez un travail.png"/>
  <kdenlive_producer duration="125" frame_size="1280x720" in="0" analysisdata="" file_size="598586" groupid="1" aspect_ratio="1" out="124" groupname="Coiffure" file_hash="003c3a73943eabc0a618c7ef1a296061" type="5" id="62" name="vous n'avez pas d'argent.png" resource="/home/nicolas/Documents/Projets Musique/Barons Freaks/COURTS METRAGES - MAIN/COURTS METRAGES/EpisodeIII/panneaux/vous n'avez pas d'argent.png"/>
  <kdenlive_producer duration="125" frame_size="4000x2500" in="0" analysisdata="" file_size="89095" groupid="2" aspect_ratio="1" out="124" groupname="Masques" file_hash="391795586ad5aae7923f3e55d8f131d7" type="5" id="63" name="Diaphragme_grand.png" resource="/home/nicolas/Documents/Projets Musique/Barons Freaks/COURTS METRAGES - MAIN/COURTS METRAGES/Diaphragme_grand.png"/>
  <kdenlive_producer duration="125" frame_size="1280x720" in="0" analysisdata="" file_size="12458" groupid="2" aspect_ratio="1" out="124" groupname="Masques" file_hash="c5469d8d3c8d79a067c6c0541da25e27" type="5" id="64" name="Crop4tiers2.png" resource="/home/nicolas/Documents/Projets Musique/Barons Freaks/COURTS METRAGES - MAIN/COURTS METRAGES/Crop4tiers2.png"/>
  <kdenlive_producer duration="125" frame_size="1280x720" in="0" analysisdata="" file_size="614482" groupid="3" aspect_ratio="1" out="124" groupname="Cartons" file_hash="53b129be271ae007b1a1ff2a3becec4f" type="5" id="66" name="nous ne pouvons pas accepter n'importe quel travail.png" resource="/home/nicolas/Documents/Projets Musique/Barons Freaks/COURTS METRAGES - MAIN/COURTS METRAGES/EpisodeIII/panneaux/nous ne pouvons pas accepter n'importe quel travail.png"/>
  <kdenlive_producer duration="125" frame_size="1280x720" in="0" analysisdata="" file_size="612537" groupid="3" aspect_ratio="1" out="124" groupname="Cartons" file_hash="2bc42dbefcfc5a9a38ad92f2b33ff5f9" type="5" id="67" name="il ne nous reste plus que quelques formalit√©s.png" resource="/home/nicolas/Documents/Projets Musique/Barons Freaks/COURTS METRAGES - MAIN/COURTS METRAGES/EpisodeIII/panneaux/il ne nous reste plus que quelques formalit√©s.png"/>
  <kdenlive_producer duration="125" frame_size="1280x720" in="0" analysisdata="" file_size="605107" groupid="3" aspect_ratio="1" out="124" groupname="Cartons" file_hash="d22c176b9e59040f2629e4f16c91c48d" type="5" id="68" name="si vous voulez bien signer le contrat.png" resource="/home/nicolas/Documents/Projets Musique/Barons Freaks/COURTS METRAGES - MAIN/COURTS METRAGES/EpisodeIII/panneaux/si vous voulez bien signer le contrat.png"/>
  <kdenlive_producer duration="125" frame_size="1280x720" in="0" analysisdata="" file_size="603292" groupid="3" aspect_ratio="1" out="124" groupname="Cartons" file_hash="b2417142f76024d884edfa0212a1875b" type="5" id="69" name="bien s√ªr j'ai s√ªrement l'emploi qu'il vous faut.png" resource="/home/nicolas/Documents/Projets Musique/Barons Freaks/COURTS METRAGES - MAIN/COURTS METRAGES/EpisodeIII/panneaux/bien s√ªr j'ai s√ªrement l'emploi qu'il vous faut.png"/>
  <kdenlive_producer duration="125" frame_size="1053x745" in="0" analysisdata="" file_size="261390" groupid="3" aspect_ratio="1" out="124" groupname="Cartons" file_hash="b5bf553ff47ddade7ace0b08cd218965" type="5" id="70" name="pr√©sentation.png" resource="/home/nicolas/Documents/Projets Musique/Barons Freaks/COURTS METRAGES - MAIN/COURTS METRAGES/pr√©sentation.png"/>
  <kdenlive_producer duration="125" frame_size="1280x720" in="0" analysisdata="" file_size="621531" groupid="3" aspect_ratio="1" out="124" groupname="Cartons" file_hash="906ed01420c2854e1f6e95334c91a463" type="5" id="72" name="alors que les barons enflamment le public.png" resource="/home/nicolas/Documents/Projets Musique/Barons Freaks/COURTS METRAGES - MAIN/COURTS METRAGES/EpisodeIII/panneaux/alors que les barons enflamment le public.png"/>
  <kdenlive_producer audio_max="1" id="73" pix_fmt="yuv420p" default_video="0" fps="29,97" analysisdata="" name="Old Film Countdown.mp4" videocodecid="h264" colorspace="709" videocodec="H.264 / AVC / MPEG-4 AVC / MPEG-4 part 10" resource="/home/nicolas/Documents/Projets Musique/Barons Freaks/COURTS METRAGES - MAIN/COURTS METRAGES/Old Film Countdown.mp4" default_audio="1" audiocodec="AAC (Advanced Audio Coding)" duration="355" file_hash="62fd31276bfe4e680fcbc1a3df02b487" aspect_ratio="1" channels="2" frequency="44100" video_max="0" progressive="1" type="3" frame_size="1164x720" file_size="3960642">
   <metaproperty tool="" name="meta.attr.0.stream.creation_time">2017-03-21 22:25:40</metaproperty>
   <metaproperty tool="" name="meta.attr.1.stream.creation_time">2017-03-21 22:25:40</metaproperty>
   <metaproperty tool="" name="meta.attr.compatible_brands">isommp42</metaproperty>
   <metaproperty tool="" name="meta.attr.creation_time">2017-03-21 22:25:40</metaproperty>
   <metaproperty tool="" name="meta.attr.major_brand">mp42</metaproperty>
   <metaproperty tool="" name="meta.attr.minor_version">0</metaproperty>
  </kdenlive_producer>
  <kdenlive_producer duration="125" frame_size="1280x720" in="0" analysisdata="" file_size="606045" groupid="3" aspect_ratio="1" out="124" groupname="Cartons" file_hash="f24279a851d55fdd534de5f17dc1b7ac" type="5" id="74" name="vous appr√©ciez s√ªrement le bon air du large.png" resource="/home/nicolas/Documents/Projets Musique/Barons Freaks/COURTS METRAGES - MAIN/COURTS METRAGES/EpisodeIII/panneaux/vous appr√©ciez s√ªrement le bon air du large.png"/>
  <kdenlive_producer duration="125" frame_size="1280x720" in="0" analysisdata="" file_size="607780" groupid="3" aspect_ratio="1" out="124" groupname="Cartons" file_hash="7393bde04a29d3fead6d4473b5020a4a" type="5" id="75" name="revenez je n'ai pas eu le temps de vous payer.png" resource="/home/nicolas/Documents/Projets Musique/Barons Freaks/COURTS METRAGES - MAIN/COURTS METRAGES/EpisodeIII/panneaux/revenez je n'ai pas eu le temps de vous payer.png"/>
  <kdenlive_producer duration="125" frame_size="1053x745" in="0" analysisdata="" file_size="269594" groupid="3" aspect_ratio="1" out="124" groupname="Cartons" file_hash="a057526110648ff7d473f08541580983" type="5" id="76" name="fin.png" resource="/home/nicolas/Documents/Projets Musique/Barons Freaks/COURTS METRAGES - MAIN/COURTS METRAGES/fin.png"/>
  <kdenlive_producer id="80" analysisdata="" name="Clip diaporama" softness="0" crop="0" in="0" resource="/home/nicolas/Documents/Projets Musique/Barons Freaks/COURTS METRAGES - MAIN/COURTS METRAGES/anim pr√©sentation/anim_01/.all.png" luma_duration="00:00:01:00" duration="721" groupid="3" ttl="1" aspect_ratio="1" out="720" fade="0" groupname="Cartons" type="7" loop="0" frame_size="1080x607"/>
  <kdenlive_producer duration="125" frame_size="1053x745" thumbnail="100" in="0" analysisdata="" file_size="33674" groupid="3" aspect_ratio="1" out="124" groupname="Cartons" file_hash="5aaa65dfcba42927daa190fa363c785d" type="5" id="81" name="titre1.png" resource="/home/nicolas/Documents/Projets Musique/Barons Freaks/COURTS METRAGES - MAIN/COURTS METRAGES/EpisodeIII/panneaux/titre1.png"/>
  <kdenlive_producer duration="125" frame_size="1053x745" thumbnail="100" in="0" analysisdata="" file_size="29209" groupid="3" aspect_ratio="1" out="124" groupname="Cartons" file_hash="3c94f9adda89cb27a0154e8c9bccb25a" type="5" id="82" name="titre ep3.png" resource="/home/nicolas/Documents/Projets Musique/Barons Freaks/COURTS METRAGES - MAIN/COURTS METRAGES/EpisodeIII/panneaux/titre ep3.png"/>
  <kdenlive_producer audio_max="1" id="83" pix_fmt="yuvj420p" default_video="0" fps="23,976" analysisdata="" name="DSC_0009.MOV" videocodecid="h264" colorspace="601" videocodec="H.264 / AVC / MPEG-4 AVC / MPEG-4 part 10" resource="/home/nicolas/Documents/Projets Musique/Barons Freaks/COURTS METRAGES - MAIN/COURTS METRAGES/EpisodeIII/Sources/Videos/Damien 2/DSC_0009.MOV" default_audio="1" audiocodec="PCM signed 16-bit little-endian" duration="724" groupid="1" file_hash="a860e154982cd75e5e0eac5c0a1fe303" aspect_ratio="1" channels="1" frequency="24000" video_max="0" progressive="1" groupname="Coiffure" type="3" frame_size="1920x1080" file_size="74894099">
   <metaproperty tool="" name="meta.attr.0.stream.creation_time">2017-05-04 19:57:12</metaproperty>
   <metaproperty tool="" name="meta.attr.0.stream.language">eng</metaproperty>
   <metaproperty tool="" name="meta.attr.1.stream.creation_time">2017-05-04 19:57:12</metaproperty>
   <metaproperty tool="" name="meta.attr.1.stream.language">eng</metaproperty>
   <metaproperty tool="" name="meta.attr.compatible_brands">qt  niko</metaproperty>
   <metaproperty tool="" name="meta.attr.creation_time">2017-05-04 19:57:12</metaproperty>
   <metaproperty tool="" name="meta.attr.major_brand">qt  </metaproperty>
   <metaproperty tool="" name="meta.attr.minor_version">537331968</metaproperty>
  </kdenlive_producer>
  <kdenlive_producer audio_max="1" id="84" pix_fmt="yuvj420p" default_video="0" fps="23,976" analysisdata="" name="DSC_0006.MOV" videocodecid="h264" colorspace="601" videocodec="H.264 / AVC / MPEG-4 AVC / MPEG-4 part 10" resource="/home/nicolas/Documents/Projets Musique/Barons Freaks/COURTS METRAGES - MAIN/COURTS METRAGES/EpisodeIII/Sources/Videos/Damien 2/DSC_0006.MOV" default_audio="1" audiocodec="PCM signed 16-bit little-endian" duration="1084" groupid="1" file_hash="0fa192dcee401d29003be0f2f86ec5c8" aspect_ratio="1" channels="1" frequency="24000" video_max="0" progressive="1" groupname="Coiffure" type="3" frame_size="1920x1080" file_size="110473988">
   <metaproperty tool="" name="meta.attr.0.stream.creation_time">2017-05-04 19:51:57</metaproperty>
   <metaproperty tool="" name="meta.attr.0.stream.language">eng</metaproperty>
   <metaproperty tool="" name="meta.attr.1.stream.creation_time">2017-05-04 19:51:57</metaproperty>
   <metaproperty tool="" name="meta.attr.1.stream.language">eng</metaproperty>
   <metaproperty tool="" name="meta.attr.compatible_brands">qt  niko</metaproperty>
   <metaproperty tool="" name="meta.attr.creation_time">2017-05-04 19:51:57</metaproperty>
   <metaproperty tool="" name="meta.attr.major_brand">qt  </metaproperty>
   <metaproperty tool="" name="meta.attr.minor_version">537331968</metaproperty>
  </kdenlive_producer>
  <kdenlive_producer audio_max="1" id="85" pix_fmt="yuvj420p" default_video="0" fps="23,976" analysisdata="" name="DSC_0013.MOV" videocodecid="h264" colorspace="601" videocodec="H.264 / AVC / MPEG-4 AVC / MPEG-4 part 10" resource="/home/nicolas/Documents/Projets Musique/Barons Freaks/COURTS METRAGES - MAIN/COURTS METRAGES/EpisodeIII/Sources/Videos/Damien 2/DSC_0013.MOV" default_audio="1" audiocodec="PCM signed 16-bit little-endian" duration="214" groupid="1" file_hash="382f0a10a01e2c607368bc8877eb3a5f" aspect_ratio="1" channels="1" frequency="24000" video_max="0" progressive="1" groupname="Coiffure" type="3" frame_size="1920x1080" file_size="22174359">
   <metaproperty tool="" name="meta.attr.0.stream.creation_time">2017-05-04 20:03:41</metaproperty>
   <metaproperty tool="" name="meta.attr.0.stream.language">eng</metaproperty>
   <metaproperty tool="" name="meta.attr.1.stream.creation_time">2017-05-04 20:03:41</metaproperty>
   <metaproperty tool="" name="meta.attr.1.stream.language">eng</metaproperty>
   <metaproperty tool="" name="meta.attr.compatible_brands">qt  niko</metaproperty>
   <metaproperty tool="" name="meta.attr.creation_time">2017-05-04 20:03:41</metaproperty>
   <metaproperty tool="" name="meta.attr.major_brand">qt  </metaproperty>
   <metaproperty tool="" name="meta.attr.minor_version">537331968</metaproperty>
  </kdenlive_producer>
  <kdenlive_producer duration="125" transparency="1" frame_size="1280x720" in="0" analysisdata="" groupid="3" aspect_ratio="0" out="124" xmldata="&lt;kdenlivetitle width=&quot;1280&quot; duration=&quot;125&quot; height=&quot;720&quot; out=&quot;125&quot; LC_NUMERIC=&quot;fr_FR.UTF-8&quot;>&#xa; &lt;item z-index=&quot;0&quot; type=&quot;QGraphicsTextItem&quot;>&#xa;  &lt;position x=&quot;449&quot; y=&quot;275&quot;>&#xa;   &lt;transform>1,0,0,0,1,0,0,0,1&lt;/transform>&#xa;  &lt;/position>&#xa;  &lt;content font-color=&quot;253,253,253,255&quot; font-outline-color=&quot;0,0,0,255&quot; font-pixel-size=&quot;75&quot; font-italic=&quot;0&quot; font-underline=&quot;0&quot; font-weight=&quot;50&quot; font=&quot;Cabbagetown&quot; font-outline=&quot;1,1&quot;>Fin&lt;/content>&#xa; &lt;/item>&#xa; &lt;startviewport rect=&quot;0,0,1280,720&quot;/>&#xa; &lt;endviewport rect=&quot;0,0,1280,720&quot;/>&#xa; &lt;background color=&quot;0,0,0,125&quot;/>&#xa;&lt;/kdenlivetitle>&#xa;" groupname="Cartons" type="6" id="86" name="Clip titre"/>
  <markers/>
  <groups/>
 </kdenlivedoc>
</mlt>
