<?xml version='1.0' encoding='utf-8'?>
<mlt title="Anonymous Submission" version="0.9.2" root="/home/nicolas" LC_NUMERIC="fr_FR.UTF-8">
 <profile width="1280" display_aspect_den="9" colorspace="709" frame_rate_den="1" description="HD 720p 25 fps" height="720" display_aspect_num="16" frame_rate_num="25" progressive="1" sample_aspect_num="1" sample_aspect_den="1"/>
 <producer in="0" out="500" id="black">
  <property name="mlt_type">producer</property>
  <property name="length">15000</property>
  <property name="eof">pause</property>
  <property name="resource">black</property>
  <property name="aspect_ratio">0</property>
  <property name="mlt_service">colour</property>
 </producer>
 <playlist id="black_track">
  <entry in="0" out="866" producer="black"/>
 </playlist>
 <playlist id="playlist1"/>
 <playlist id="playlist2"/>
 <playlist id="playlist0"/>
 <producer in="0" out="577" id="3">
  <property name="mlt_type">producer</property>
  <property name="length">578</property>
  <property name="eof">pause</property>
  <property name="resource">Documents/Projets Musique/Barons Freaks/COURTS METRAGES - MAIN/COURTS METRAGES/EpisodeIII/stevo-jobs/crème anti-âge/moondog.jpg</property>
  <property name="ttl">25</property>
  <property name="aspect_ratio">1</property>
  <property name="progressive">1</property>
  <property name="seekable">1</property>
  <property name="loop">1</property>
  <property name="meta.media.width">500</property>
  <property name="meta.media.height">501</property>
  <property name="mlt_service">pixbuf</property>
 </producer>
 <producer in="0" out="604" id="4">
  <property name="mlt_type">producer</property>
  <property name="length">605</property>
  <property name="eof">pause</property>
  <property name="resource">Documents/Projets Musique/Barons Freaks/COURTS METRAGES - MAIN/COURTS METRAGES/EpisodeIII/stevo-jobs/crème anti-âge/cadum.jpg</property>
  <property name="ttl">25</property>
  <property name="aspect_ratio">1</property>
  <property name="progressive">1</property>
  <property name="seekable">1</property>
  <property name="loop">1</property>
  <property name="meta.media.width">600</property>
  <property name="meta.media.height">600</property>
  <property name="mlt_service">pixbuf</property>
 </producer>
 <producer in="0" out="124" id="10">
  <property name="mlt_type">producer</property>
  <property name="length">125</property>
  <property name="eof">pause</property>
  <property name="resource">Documents/Projets Musique/Barons Freaks/COURTS METRAGES - MAIN/COURTS METRAGES/EpisodeIII/stevo-jobs/crème anti-âge/king-kong.jpg</property>
  <property name="ttl">25</property>
  <property name="aspect_ratio">1</property>
  <property name="progressive">1</property>
  <property name="seekable">1</property>
  <property name="loop">1</property>
  <property name="meta.media.width">1400</property>
  <property name="meta.media.height">1117</property>
  <property name="mlt_service">pixbuf</property>
 </producer>
 <producer in="0" out="124" id="12">
  <property name="mlt_type">producer</property>
  <property name="length">125</property>
  <property name="eof">pause</property>
  <property name="resource">Documents/Projets Musique/Barons Freaks/COURTS METRAGES - MAIN/COURTS METRAGES/EpisodeIII/stevo-jobs/crème anti-âge/kiki.jpg</property>
  <property name="ttl">25</property>
  <property name="aspect_ratio">1</property>
  <property name="progressive">1</property>
  <property name="seekable">1</property>
  <property name="loop">1</property>
  <property name="meta.media.width">720</property>
  <property name="meta.media.height">500</property>
  <property name="mlt_service">pixbuf</property>
 </producer>
 <producer in="0" out="124" id="13">
  <property name="mlt_type">producer</property>
  <property name="length">125</property>
  <property name="eof">pause</property>
  <property name="resource">Documents/Projets Musique/Barons Freaks/COURTS METRAGES - MAIN/COURTS METRAGES/EpisodeIII/stevo-jobs/crème anti-âge/chateau lugubre.jpg</property>
  <property name="ttl">25</property>
  <property name="aspect_ratio">1</property>
  <property name="progressive">1</property>
  <property name="seekable">1</property>
  <property name="loop">1</property>
  <property name="meta.media.width">736</property>
  <property name="meta.media.height">444</property>
  <property name="mlt_service">pixbuf</property>
 </producer>
 <producer in="0" out="124" id="14">
  <property name="mlt_type">producer</property>
  <property name="length">125</property>
  <property name="eof">pause</property>
  <property name="resource">Documents/Projets Musique/Barons Freaks/COURTS METRAGES - MAIN/COURTS METRAGES/EpisodeIII/stevo-jobs/crème anti-âge/disneyland-paris.jpg</property>
  <property name="ttl">25</property>
  <property name="aspect_ratio">1</property>
  <property name="progressive">1</property>
  <property name="seekable">1</property>
  <property name="loop">1</property>
  <property name="meta.media.width">3456</property>
  <property name="meta.media.height">2436</property>
  <property name="mlt_service">pixbuf</property>
 </producer>
 <producer in="0" out="124" id="15">
  <property name="mlt_type">producer</property>
  <property name="length">125</property>
  <property name="eof">pause</property>
  <property name="resource">Documents/Projets Musique/Barons Freaks/COURTS METRAGES - MAIN/COURTS METRAGES/EpisodeIII/stevo-jobs/crème anti-âge/gandalf.jpg</property>
  <property name="ttl">25</property>
  <property name="aspect_ratio">1</property>
  <property name="progressive">1</property>
  <property name="seekable">1</property>
  <property name="loop">1</property>
  <property name="meta.media.width">1422</property>
  <property name="meta.media.height">976</property>
  <property name="mlt_service">pixbuf</property>
 </producer>
 <producer in="0" out="124" id="16">
  <property name="mlt_type">producer</property>
  <property name="length">125</property>
  <property name="eof">pause</property>
  <property name="resource">Documents/Projets Musique/Barons Freaks/COURTS METRAGES - MAIN/COURTS METRAGES/EpisodeIII/stevo-jobs/crème anti-âge/harry potter.jpg</property>
  <property name="ttl">25</property>
  <property name="aspect_ratio">1</property>
  <property name="progressive">1</property>
  <property name="seekable">1</property>
  <property name="loop">1</property>
  <property name="meta.media.width">1024</property>
  <property name="meta.media.height">768</property>
  <property name="mlt_service">pixbuf</property>
 </producer>
 <playlist id="playlist3">
  <entry in="0" out="300" producer="3">
   <filter id="frei0r.scale0tilt">
    <property name="track">0</property>
    <property name="version">0,1</property>
    <property name="mlt_type">filter</property>
    <property name="mlt_service">frei0r.scale0tilt</property>
    <property name="kdenlive_id">frei0r.scale0tilt</property>
    <property name="tag">frei0r.scale0tilt</property>
    <property name="kdenlive_ix">1</property>
    <property name="Clip left">0</property>
    <property name="Clip right">0</property>
    <property name="Clip top">0</property>
    <property name="Clip bottom">0</property>
    <property name="Scale X">0,3</property>
    <property name="Scale Y">0,3</property>
    <property name="Tilt X">0,530469</property>
    <property name="Tilt Y">0,627778</property>
    <property name="kdenlive_info"/>
   </filter>
   <filter in="285" out="300" id="fade_to_black">
    <property name="track">0</property>
    <property name="start">1</property>
    <property name="mlt_type">filter</property>
    <property name="mlt_service">brightness</property>
    <property name="kdenlive_id">fade_to_black</property>
    <property name="tag">brightness</property>
    <property name="kdenlive_ix">2</property>
    <property name="end">0</property>
    <property name="kdenlive_info"/>
   </filter>
  </entry>
  <entry in="0" out="101" producer="4">
   <filter out="9" id="fade_from_black">
    <property name="track">0</property>
    <property name="start">0</property>
    <property name="mlt_type">filter</property>
    <property name="mlt_service">brightness</property>
    <property name="kdenlive_id">fade_from_black</property>
    <property name="tag">brightness</property>
    <property name="kdenlive_ix">1</property>
    <property name="end">1</property>
    <property name="kdenlive_info">1/-1/</property>
   </filter>
   <filter id="filter0">
    <property name="track">0</property>
    <property name="version">0,1</property>
    <property name="mlt_type">filter</property>
    <property name="mlt_service">frei0r.scale0tilt</property>
    <property name="kdenlive_id">frei0r.scale0tilt</property>
    <property name="tag">frei0r.scale0tilt</property>
    <property name="kdenlive_ix">2</property>
    <property name="Clip left">0</property>
    <property name="Clip right">0</property>
    <property name="Clip top">0</property>
    <property name="Clip bottom">0</property>
    <property name="Scale X">0,3</property>
    <property name="Scale Y">0,3</property>
    <property name="Tilt X">0,530469</property>
    <property name="Tilt Y">0,643056</property>
    <property name="kdenlive_info">1/-1/</property>
   </filter>
   <filter id="chroma">
    <property name="track">0</property>
    <property name="key">0x372e3cff</property>
    <property name="variance">0,94</property>
    <property name="mlt_type">filter</property>
    <property name="mlt_service">chroma</property>
    <property name="kdenlive_id">chroma</property>
    <property name="tag">chroma</property>
    <property name="kdenlive_ix">3</property>
    <property name="disable">0</property>
    <property name="kdenlive_info"/>
   </filter>
  </entry>
  <blank length="34"/>
  <entry in="2" out="18" producer="10">
   <filter in="15" out="18" id="filter1">
    <property name="track">0</property>
    <property name="start">1</property>
    <property name="mlt_type">filter</property>
    <property name="mlt_service">brightness</property>
    <property name="kdenlive_id">fade_to_black</property>
    <property name="tag">brightness</property>
    <property name="kdenlive_ix">1</property>
    <property name="end">0</property>
   </filter>
  </entry>
  <entry in="0" out="19" producer="12">
   <filter out="3" id="filter2">
    <property name="track">0</property>
    <property name="start">0</property>
    <property name="mlt_type">filter</property>
    <property name="mlt_service">brightness</property>
    <property name="kdenlive_id">fade_from_black</property>
    <property name="tag">brightness</property>
    <property name="kdenlive_ix">1</property>
    <property name="end">1</property>
   </filter>
   <filter id="filter3">
    <property name="track">0</property>
    <property name="version">0,1</property>
    <property name="mlt_type">filter</property>
    <property name="mlt_service">frei0r.scale0tilt</property>
    <property name="kdenlive_id">frei0r.scale0tilt</property>
    <property name="tag">frei0r.scale0tilt</property>
    <property name="kdenlive_ix">2</property>
    <property name="Clip left">0</property>
    <property name="Clip right">0</property>
    <property name="Clip top">0</property>
    <property name="Clip bottom">0</property>
    <property name="Scale X">0,6</property>
    <property name="Scale Y">0,6</property>
    <property name="Tilt X">0,446875</property>
    <property name="Tilt Y">0,4625</property>
    <property name="kdenlive_info"/>
   </filter>
   <filter in="17" out="19" id="filter4">
    <property name="track">0</property>
    <property name="start">1</property>
    <property name="mlt_type">filter</property>
    <property name="mlt_service">brightness</property>
    <property name="kdenlive_id">fade_to_black</property>
    <property name="tag">brightness</property>
    <property name="kdenlive_ix">3</property>
    <property name="end">0</property>
   </filter>
  </entry>
  <entry in="0" out="16" producer="13">
   <filter id="filter5">
    <property name="track">0</property>
    <property name="version">0,1</property>
    <property name="mlt_type">filter</property>
    <property name="mlt_service">frei0r.scale0tilt</property>
    <property name="kdenlive_id">frei0r.scale0tilt</property>
    <property name="tag">frei0r.scale0tilt</property>
    <property name="kdenlive_ix">1</property>
    <property name="Clip left">0</property>
    <property name="Clip right">0</property>
    <property name="Clip top">0</property>
    <property name="Clip bottom">0</property>
    <property name="Scale X">0,6</property>
    <property name="Scale Y">0,6</property>
    <property name="Tilt X">0,5</property>
    <property name="Tilt Y">0,447222</property>
    <property name="kdenlive_info"/>
   </filter>
   <filter out="2" id="filter6">
    <property name="track">0</property>
    <property name="start">0</property>
    <property name="mlt_type">filter</property>
    <property name="mlt_service">brightness</property>
    <property name="kdenlive_id">fade_from_black</property>
    <property name="tag">brightness</property>
    <property name="kdenlive_ix">2</property>
    <property name="end">1</property>
   </filter>
  </entry>
  <entry in="0" out="20" producer="14"/>
  <entry in="0" out="16" producer="15">
   <filter in="14" out="16" id="filter7">
    <property name="track">0</property>
    <property name="start">1</property>
    <property name="mlt_type">filter</property>
    <property name="mlt_service">brightness</property>
    <property name="kdenlive_id">fade_to_black</property>
    <property name="tag">brightness</property>
    <property name="kdenlive_ix">1</property>
    <property name="end">0</property>
   </filter>
  </entry>
  <entry in="2" out="22" producer="16">
   <filter in="2" out="4" id="filter8">
    <property name="track">0</property>
    <property name="start">0</property>
    <property name="mlt_type">filter</property>
    <property name="mlt_service">brightness</property>
    <property name="kdenlive_id">fade_from_black</property>
    <property name="tag">brightness</property>
    <property name="kdenlive_ix">1</property>
    <property name="end">1</property>
   </filter>
   <filter id="filter9">
    <property name="track">0</property>
    <property name="version">0,1</property>
    <property name="mlt_type">filter</property>
    <property name="mlt_service">frei0r.scale0tilt</property>
    <property name="kdenlive_id">frei0r.scale0tilt</property>
    <property name="tag">frei0r.scale0tilt</property>
    <property name="kdenlive_ix">2</property>
    <property name="Clip left">0</property>
    <property name="Clip right">0</property>
    <property name="Clip top">0</property>
    <property name="Clip bottom">0</property>
    <property name="Scale X">0,5</property>
    <property name="Scale Y">0,5</property>
    <property name="Tilt X">0,502344</property>
    <property name="Tilt Y">0,497222</property>
    <property name="kdenlive_info"/>
   </filter>
  </entry>
 </playlist>
 <producer in="0" out="108" id="8">
  <property name="mlt_type">producer</property>
  <property name="length">109</property>
  <property name="eof">pause</property>
  <property name="resource">Documents/Projets Musique/Barons Freaks/COURTS METRAGES - MAIN/COURTS METRAGES/EpisodeIII/stevo-jobs/crème anti-âge/étoiles/.all.png</property>
  <property name="ttl">3</property>
  <property name="aspect_ratio">1</property>
  <property name="progressive">1</property>
  <property name="seekable">1</property>
  <property name="loop">1</property>
  <property name="meta.media.width">500</property>
  <property name="meta.media.height">500</property>
  <property name="mlt_service">pixbuf</property>
 </producer>
 <playlist id="playlist4">
  <blank length="287"/>
  <entry in="0" out="28" producer="8">
   <filter id="filter10">
    <property name="track">0</property>
    <property name="version">0,1</property>
    <property name="mlt_type">filter</property>
    <property name="mlt_service">frei0r.scale0tilt</property>
    <property name="kdenlive_id">frei0r.scale0tilt</property>
    <property name="tag">frei0r.scale0tilt</property>
    <property name="kdenlive_ix">1</property>
    <property name="Clip left">0</property>
    <property name="Clip right">0</property>
    <property name="Clip top">0</property>
    <property name="Clip bottom">0</property>
    <property name="Scale X">0,5</property>
    <property name="Scale Y">0,5</property>
    <property name="Tilt X">0,416406</property>
    <property name="Tilt Y">0,527778</property>
    <property name="kdenlive_info">1/-1/</property>
   </filter>
  </entry>
  <blank length="130"/>
  <entry in="0" out="16" producer="8">
   <filter id="filter11">
    <property name="track">0</property>
    <property name="version">0,1</property>
    <property name="mlt_type">filter</property>
    <property name="mlt_service">frei0r.scale0tilt</property>
    <property name="kdenlive_id">frei0r.scale0tilt</property>
    <property name="tag">frei0r.scale0tilt</property>
    <property name="kdenlive_ix">1</property>
    <property name="kdenlive_info">0/-1/</property>
    <property name="Clip left">0</property>
    <property name="Clip right">0</property>
    <property name="Clip top">0</property>
    <property name="Clip bottom">0</property>
    <property name="Scale X">0,8</property>
    <property name="Scale Y">0,8</property>
    <property name="Tilt X">0,348438</property>
    <property name="Tilt Y">0,444444</property>
   </filter>
   <filter in="12" out="16" id="filter12">
    <property name="track">0</property>
    <property name="start">1</property>
    <property name="mlt_type">filter</property>
    <property name="mlt_service">brightness</property>
    <property name="kdenlive_id">fade_to_black</property>
    <property name="tag">brightness</property>
    <property name="kdenlive_ix">2</property>
    <property name="end">0</property>
    <property name="kdenlive_info"/>
   </filter>
   <filter out="5" id="filter13">
    <property name="track">0</property>
    <property name="start">0</property>
    <property name="mlt_type">filter</property>
    <property name="mlt_service">brightness</property>
    <property name="kdenlive_id">fade_from_black</property>
    <property name="tag">brightness</property>
    <property name="kdenlive_ix">3</property>
    <property name="end">1</property>
    <property name="kdenlive_info"/>
   </filter>
  </entry>
  <blank length="21"/>
  <entry in="0" out="16" producer="8">
   <filter id="filter14">
    <property name="track">0</property>
    <property name="version">0,1</property>
    <property name="mlt_type">filter</property>
    <property name="mlt_service">frei0r.scale0tilt</property>
    <property name="kdenlive_id">frei0r.scale0tilt</property>
    <property name="tag">frei0r.scale0tilt</property>
    <property name="kdenlive_ix">1</property>
    <property name="kdenlive_info">0/-1/</property>
    <property name="Clip left">0</property>
    <property name="Clip right">0</property>
    <property name="Clip top">0</property>
    <property name="Clip bottom">0</property>
    <property name="Scale X">0,8</property>
    <property name="Scale Y">0,8</property>
    <property name="Tilt X">0,348438</property>
    <property name="Tilt Y">0,444444</property>
   </filter>
   <filter in="12" out="16" id="filter15">
    <property name="track">0</property>
    <property name="start">1</property>
    <property name="mlt_type">filter</property>
    <property name="mlt_service">brightness</property>
    <property name="kdenlive_id">fade_to_black</property>
    <property name="tag">brightness</property>
    <property name="kdenlive_ix">2</property>
    <property name="kdenlive_info"/>
    <property name="end">0</property>
   </filter>
   <filter out="5" id="filter16">
    <property name="track">0</property>
    <property name="start">0</property>
    <property name="mlt_type">filter</property>
    <property name="mlt_service">brightness</property>
    <property name="kdenlive_id">fade_from_black</property>
    <property name="tag">brightness</property>
    <property name="kdenlive_ix">3</property>
    <property name="kdenlive_info"/>
    <property name="end">1</property>
   </filter>
  </entry>
  <blank length="18"/>
  <entry in="0" out="16" producer="8">
   <filter id="filter17">
    <property name="track">0</property>
    <property name="version">0,1</property>
    <property name="mlt_type">filter</property>
    <property name="mlt_service">frei0r.scale0tilt</property>
    <property name="kdenlive_id">frei0r.scale0tilt</property>
    <property name="tag">frei0r.scale0tilt</property>
    <property name="kdenlive_ix">1</property>
    <property name="kdenlive_info">0/-1/</property>
    <property name="Clip left">0</property>
    <property name="Clip right">0</property>
    <property name="Clip top">0</property>
    <property name="Clip bottom">0</property>
    <property name="Scale X">0,8</property>
    <property name="Scale Y">0,8</property>
    <property name="Tilt X">0,348438</property>
    <property name="Tilt Y">0,444444</property>
   </filter>
   <filter in="12" out="16" id="filter18">
    <property name="track">0</property>
    <property name="start">1</property>
    <property name="mlt_type">filter</property>
    <property name="mlt_service">brightness</property>
    <property name="kdenlive_id">fade_to_black</property>
    <property name="tag">brightness</property>
    <property name="kdenlive_ix">2</property>
    <property name="kdenlive_info"/>
    <property name="end">0</property>
   </filter>
   <filter out="5" id="filter19">
    <property name="track">0</property>
    <property name="start">0</property>
    <property name="mlt_type">filter</property>
    <property name="mlt_service">brightness</property>
    <property name="kdenlive_id">fade_from_black</property>
    <property name="tag">brightness</property>
    <property name="kdenlive_ix">3</property>
    <property name="kdenlive_info"/>
    <property name="end">1</property>
   </filter>
  </entry>
 </playlist>
 <producer in="0" out="577" id="1_2">
  <property name="mlt_type">producer</property>
  <property name="length">578</property>
  <property name="eof">pause</property>
  <property name="resource">Documents/Projets Musique/Barons Freaks/COURTS METRAGES - MAIN/COURTS METRAGES/EpisodeIII/stevo-jobs/crème anti-âge/DSC_0055.MOV</property>
  <property name="meta.media.nb_streams">2</property>
  <property name="meta.media.0.stream.type">video</property>
  <property name="meta.media.0.stream.frame_rate">25</property>
  <property name="meta.media.0.stream.sample_aspect_ratio">0</property>
  <property name="meta.media.0.codec.width">1280</property>
  <property name="meta.media.0.codec.height">720</property>
  <property name="meta.media.0.codec.frame_rate">25</property>
  <property name="meta.media.0.codec.pix_fmt">yuvj420p</property>
  <property name="meta.media.0.codec.sample_aspect_ratio">1</property>
  <property name="meta.media.0.codec.colorspace">601</property>
  <property name="meta.media.0.codec.name">h264</property>
  <property name="meta.media.0.codec.long_name">H.264 / AVC / MPEG-4 AVC / MPEG-4 part 10</property>
  <property name="meta.media.0.codec.bit_rate">10822283</property>
  <property name="meta.attr.0.stream.creation_time.markup">2016-11-24 16:57:35</property>
  <property name="meta.attr.0.stream.language.markup">eng</property>
  <property name="meta.media.1.stream.type">audio</property>
  <property name="meta.media.1.codec.sample_fmt">s16</property>
  <property name="meta.media.1.codec.sample_rate">24000</property>
  <property name="meta.media.1.codec.channels">1</property>
  <property name="meta.media.1.codec.name">pcm_s16le</property>
  <property name="meta.media.1.codec.long_name">PCM signed 16-bit little-endian</property>
  <property name="meta.media.1.codec.bit_rate">0</property>
  <property name="meta.attr.1.stream.creation_time.markup">2016-11-24 16:57:35</property>
  <property name="meta.attr.1.stream.language.markup">eng</property>
  <property name="meta.attr.major_brand.markup">qt  </property>
  <property name="meta.attr.minor_version.markup">537331968</property>
  <property name="meta.attr.compatible_brands.markup">qt  niko</property>
  <property name="meta.attr.creation_time.markup">2016-11-24 16:57:35</property>
  <property name="seekable">1</property>
  <property name="meta.media.sample_aspect_num">1</property>
  <property name="meta.media.sample_aspect_den">1</property>
  <property name="aspect_ratio">1</property>
  <property name="audio_index">1</property>
  <property name="video_index">0</property>
  <property name="mlt_service">avformat</property>
  <property name="meta.media.frame_rate_num">25</property>
  <property name="meta.media.frame_rate_den">1</property>
  <property name="meta.media.colorspace">601</property>
  <property name="meta.media.width">1280</property>
  <property name="meta.media.height">720</property>
  <property name="meta.media.top_field_first">0</property>
  <property name="meta.media.progressive">1</property>
 </producer>
 <producer in="0" out="574" id="9_2">
  <property name="mlt_type">producer</property>
  <property name="length">575</property>
  <property name="eof">pause</property>
  <property name="resource">Documents/Projets Musique/Barons Freaks/COURTS METRAGES - MAIN/COURTS METRAGES/EpisodeIII/stevo-jobs/crème anti-âge/DSC_0056.MOV</property>
  <property name="meta.media.nb_streams">2</property>
  <property name="meta.media.0.stream.type">video</property>
  <property name="meta.media.0.stream.frame_rate">25</property>
  <property name="meta.media.0.stream.sample_aspect_ratio">0</property>
  <property name="meta.media.0.codec.width">1280</property>
  <property name="meta.media.0.codec.height">720</property>
  <property name="meta.media.0.codec.frame_rate">25</property>
  <property name="meta.media.0.codec.pix_fmt">yuvj420p</property>
  <property name="meta.media.0.codec.sample_aspect_ratio">1</property>
  <property name="meta.media.0.codec.colorspace">601</property>
  <property name="meta.media.0.codec.name">h264</property>
  <property name="meta.media.0.codec.long_name">H.264 / AVC / MPEG-4 AVC / MPEG-4 part 10</property>
  <property name="meta.media.0.codec.bit_rate">10977883</property>
  <property name="meta.attr.0.stream.creation_time.markup">2016-11-24 17:02:37</property>
  <property name="meta.attr.0.stream.language.markup">eng</property>
  <property name="meta.media.1.stream.type">audio</property>
  <property name="meta.media.1.codec.sample_fmt">s16</property>
  <property name="meta.media.1.codec.sample_rate">24000</property>
  <property name="meta.media.1.codec.channels">1</property>
  <property name="meta.media.1.codec.name">pcm_s16le</property>
  <property name="meta.media.1.codec.long_name">PCM signed 16-bit little-endian</property>
  <property name="meta.media.1.codec.bit_rate">0</property>
  <property name="meta.attr.1.stream.creation_time.markup">2016-11-24 17:02:37</property>
  <property name="meta.attr.1.stream.language.markup">eng</property>
  <property name="meta.attr.major_brand.markup">qt  </property>
  <property name="meta.attr.minor_version.markup">537331968</property>
  <property name="meta.attr.compatible_brands.markup">qt  niko</property>
  <property name="meta.attr.creation_time.markup">2016-11-24 17:02:37</property>
  <property name="seekable">1</property>
  <property name="meta.media.sample_aspect_num">1</property>
  <property name="meta.media.sample_aspect_den">1</property>
  <property name="aspect_ratio">1</property>
  <property name="audio_index">1</property>
  <property name="video_index">0</property>
  <property name="mlt_service">avformat</property>
  <property name="meta.media.frame_rate_num">25</property>
  <property name="meta.media.frame_rate_den">1</property>
  <property name="meta.media.colorspace">601</property>
  <property name="meta.media.width">1280</property>
  <property name="meta.media.height">720</property>
  <property name="meta.media.top_field_first">0</property>
  <property name="meta.media.progressive">1</property>
 </producer>
 <playlist id="playlist5">
  <entry in="0" out="402" producer="1_2">
   <filter id="filter20">
    <property name="track">0</property>
    <property name="key">0x67658eff</property>
    <property name="variance">0,06</property>
    <property name="mlt_type">filter</property>
    <property name="mlt_service">chroma</property>
    <property name="kdenlive_id">chroma</property>
    <property name="tag">chroma</property>
    <property name="kdenlive_ix">1</property>
    <property name="disable">0</property>
    <property name="kdenlive_info"/>
   </filter>
  </entry>
  <entry in="348" out="380" producer="9_2"/>
  <blank length="10"/>
  <entry in="288" out="307" producer="1_2">
   <filter id="filter21">
    <property name="track">0</property>
    <property name="version">0,1</property>
    <property name="mlt_type">filter</property>
    <property name="mlt_service">frei0r.scale0tilt</property>
    <property name="kdenlive_id">frei0r.scale0tilt</property>
    <property name="tag">frei0r.scale0tilt</property>
    <property name="kdenlive_ix">1</property>
    <property name="Clip left">0,199219</property>
    <property name="Clip right">0</property>
    <property name="Clip top">0</property>
    <property name="Clip bottom">0</property>
    <property name="Scale X">1,5</property>
    <property name="Scale Y">1,5</property>
    <property name="Tilt X">0,2875</property>
    <property name="Tilt Y">0,177778</property>
    <property name="kdenlive_info">0/-1/</property>
   </filter>
   <filter id="filter22">
    <property name="track">0</property>
    <property name="key">0x6a6c92ff</property>
    <property name="variance">0,07</property>
    <property name="mlt_type">filter</property>
    <property name="mlt_service">chroma</property>
    <property name="kdenlive_id">chroma</property>
    <property name="tag">chroma</property>
    <property name="kdenlive_ix">2</property>
    <property name="disable">0</property>
    <property name="kdenlive_info">0/-1/</property>
   </filter>
  </entry>
  <blank length="18"/>
  <entry in="288" out="307" producer="1_2">
   <filter id="filter23">
    <property name="track">0</property>
    <property name="version">0,1</property>
    <property name="mlt_type">filter</property>
    <property name="mlt_service">frei0r.scale0tilt</property>
    <property name="kdenlive_id">frei0r.scale0tilt</property>
    <property name="tag">frei0r.scale0tilt</property>
    <property name="kdenlive_ix">1</property>
    <property name="kdenlive_info">0/-1/</property>
    <property name="Clip left">0,199219</property>
    <property name="Clip right">0</property>
    <property name="Clip top">0</property>
    <property name="Clip bottom">0</property>
    <property name="Scale X">1,5</property>
    <property name="Scale Y">1,5</property>
    <property name="Tilt X">0,2875</property>
    <property name="Tilt Y">0,177778</property>
   </filter>
   <filter id="filter24">
    <property name="track">0</property>
    <property name="key">0x6a6c92ff</property>
    <property name="variance">0,07</property>
    <property name="mlt_type">filter</property>
    <property name="mlt_service">chroma</property>
    <property name="kdenlive_id">chroma</property>
    <property name="tag">chroma</property>
    <property name="kdenlive_ix">2</property>
    <property name="kdenlive_info">0/-1/</property>
    <property name="disable">0</property>
   </filter>
  </entry>
  <blank length="15"/>
  <entry in="288" out="307" producer="1_2">
   <filter id="filter25">
    <property name="track">0</property>
    <property name="version">0,1</property>
    <property name="mlt_type">filter</property>
    <property name="mlt_service">frei0r.scale0tilt</property>
    <property name="kdenlive_id">frei0r.scale0tilt</property>
    <property name="tag">frei0r.scale0tilt</property>
    <property name="kdenlive_ix">1</property>
    <property name="kdenlive_info">0/-1/</property>
    <property name="Clip left">0,199219</property>
    <property name="Clip right">0</property>
    <property name="Clip top">0</property>
    <property name="Clip bottom">0</property>
    <property name="Scale X">1,5</property>
    <property name="Scale Y">1,5</property>
    <property name="Tilt X">0,2875</property>
    <property name="Tilt Y">0,177778</property>
   </filter>
   <filter id="filter26">
    <property name="track">0</property>
    <property name="key">0x6a6c92ff</property>
    <property name="variance">0,07</property>
    <property name="mlt_type">filter</property>
    <property name="mlt_service">chroma</property>
    <property name="kdenlive_id">chroma</property>
    <property name="tag">chroma</property>
    <property name="kdenlive_ix">2</property>
    <property name="kdenlive_info">0/-1/</property>
    <property name="disable">0</property>
   </filter>
  </entry>
  <blank length="11"/>
  <entry in="348" out="380" producer="9_2"/>
 </playlist>
 <playlist id="playlist6"/>
 <producer in="0" out="577" id="2">
  <property name="mlt_type">producer</property>
  <property name="length">578</property>
  <property name="eof">pause</property>
  <property name="resource">Documents/Projets Musique/Barons Freaks/COURTS METRAGES - MAIN/COURTS METRAGES/Crop4tiers.png</property>
  <property name="ttl">25</property>
  <property name="aspect_ratio">1</property>
  <property name="progressive">1</property>
  <property name="seekable">1</property>
  <property name="loop">1</property>
  <property name="meta.media.width">1280</property>
  <property name="meta.media.height">720</property>
  <property name="mlt_service">pixbuf</property>
 </producer>
 <playlist id="playlist7">
  <entry in="0" out="435" producer="2"/>
  <entry in="7" out="437" producer="2"/>
 </playlist>
 <tractor title="Anonymous Submission" global_feed="1" in="0" out="866" id="maintractor">
  <property name="meta.volume">1</property>
  <track producer="black_track"/>
  <track hide="video" producer="playlist1"/>
  <track hide="video" producer="playlist2"/>
  <track producer="playlist0"/>
  <track hide="audio" producer="playlist3"/>
  <track hide="audio" producer="playlist4"/>
  <track hide="audio" producer="playlist5"/>
  <track producer="playlist6"/>
  <track producer="playlist7"/>
  <transition id="transition0">
   <property name="a_track">1</property>
   <property name="b_track">2</property>
   <property name="mlt_type">transition</property>
   <property name="mlt_service">mix</property>
   <property name="always_active">1</property>
   <property name="combine">1</property>
   <property name="internal_added">237</property>
  </transition>
  <transition id="transition1">
   <property name="a_track">1</property>
   <property name="b_track">3</property>
   <property name="mlt_type">transition</property>
   <property name="mlt_service">mix</property>
   <property name="always_active">1</property>
   <property name="combine">1</property>
   <property name="internal_added">237</property>
  </transition>
  <transition id="transition2">
   <property name="a_track">1</property>
   <property name="b_track">4</property>
   <property name="mlt_type">transition</property>
   <property name="mlt_service">mix</property>
   <property name="always_active">1</property>
   <property name="combine">1</property>
   <property name="internal_added">237</property>
  </transition>
  <transition id="transition3">
   <property name="a_track">1</property>
   <property name="b_track">5</property>
   <property name="mlt_type">transition</property>
   <property name="mlt_service">mix</property>
   <property name="always_active">1</property>
   <property name="combine">1</property>
   <property name="internal_added">237</property>
  </transition>
  <transition id="transition4">
   <property name="a_track">1</property>
   <property name="b_track">6</property>
   <property name="mlt_type">transition</property>
   <property name="mlt_service">mix</property>
   <property name="always_active">1</property>
   <property name="internal_added">237</property>
   <property name="combine">1</property>
  </transition>
  <transition id="transition5">
   <property name="a_track">1</property>
   <property name="b_track">7</property>
   <property name="mlt_type">transition</property>
   <property name="mlt_service">mix</property>
   <property name="always_active">1</property>
   <property name="internal_added">237</property>
   <property name="combine">1</property>
  </transition>
  <transition id="transition6">
   <property name="a_track">1</property>
   <property name="b_track">8</property>
   <property name="mlt_type">transition</property>
   <property name="mlt_service">mix</property>
   <property name="always_active">1</property>
   <property name="internal_added">237</property>
   <property name="combine">1</property>
  </transition>
  <transition out="435" id="transition7">
   <property name="a_track">6</property>
   <property name="b_track">8</property>
   <property name="start">0/0:100%x100%</property>
   <property name="factory">loader</property>
   <property name="aligned">1</property>
   <property name="progressive">1</property>
   <property name="mlt_type">transition</property>
   <property name="mlt_service">composite</property>
   <property name="automatic">1</property>
   <property name="kdenlive_id">composite</property>
   <property name="force_track">1</property>
   <property name="deinterlace">0</property>
   <property name="distort">0</property>
   <property name="fill">1</property>
   <property name="geometry">0%/0%:100%x100%:100</property>
   <property name="luma_invert">0</property>
   <property name="operator">over</property>
   <property name="softness">0</property>
   <property name="luma"/>
  </transition>
  <transition in="287" out="315" id="transition8">
   <property name="a_track">4</property>
   <property name="b_track">5</property>
   <property name="version">0,1</property>
   <property name="mlt_type">transition</property>
   <property name="mlt_service">frei0r.addition_alpha</property>
   <property name="automatic">1</property>
   <property name="force_track">1</property>
  </transition>
  <transition in="446" out="462" id="transition9">
   <property name="a_track">4</property>
   <property name="b_track">5</property>
   <property name="version">0,1</property>
   <property name="mlt_type">transition</property>
   <property name="mlt_service">frei0r.addition_alpha</property>
   <property name="automatic">1</property>
   <property name="force_track">1</property>
  </transition>
  <transition in="484" out="500" id="transition10">
   <property name="a_track">4</property>
   <property name="b_track">5</property>
   <property name="version">0,1</property>
   <property name="mlt_type">transition</property>
   <property name="mlt_service">frei0r.addition_alpha</property>
   <property name="automatic">1</property>
   <property name="force_track">1</property>
  </transition>
  <transition in="519" out="535" id="transition11">
   <property name="a_track">4</property>
   <property name="b_track">5</property>
   <property name="version">0,1</property>
   <property name="mlt_type">transition</property>
   <property name="mlt_service">frei0r.addition_alpha</property>
   <property name="automatic">1</property>
   <property name="force_track">1</property>
  </transition>
  <transition out="402" id="transition12">
   <property name="a_track">4</property>
   <property name="b_track">6</property>
   <property name="start">0/0:100%x100%</property>
   <property name="factory">loader</property>
   <property name="aligned">1</property>
   <property name="progressive">1</property>
   <property name="mlt_type">transition</property>
   <property name="mlt_service">composite</property>
   <property name="automatic">1</property>
   <property name="kdenlive_id">composite</property>
   <property name="force_track">1</property>
   <property name="deinterlace">0</property>
   <property name="distort">0</property>
   <property name="fill">1</property>
   <property name="geometry">0%/0%:100%x100%:100</property>
   <property name="luma_invert">0</property>
   <property name="operator">over</property>
   <property name="softness">0</property>
  </transition>
  <transition in="446" out="465" id="transition13">
   <property name="a_track">4</property>
   <property name="b_track">6</property>
   <property name="start">0/0:100%x100%</property>
   <property name="factory">loader</property>
   <property name="aligned">1</property>
   <property name="progressive">1</property>
   <property name="mlt_type">transition</property>
   <property name="mlt_service">composite</property>
   <property name="automatic">1</property>
   <property name="kdenlive_id">composite</property>
   <property name="force_track">1</property>
   <property name="deinterlace">0</property>
   <property name="distort">0</property>
   <property name="fill">1</property>
   <property name="geometry">0%/0%:100%x100%:100</property>
   <property name="luma_invert">0</property>
   <property name="operator">over</property>
   <property name="softness">0</property>
  </transition>
  <transition in="484" out="503" id="transition14">
   <property name="a_track">4</property>
   <property name="b_track">6</property>
   <property name="start">0/0:100%x100%</property>
   <property name="factory">loader</property>
   <property name="aligned">1</property>
   <property name="progressive">1</property>
   <property name="mlt_type">transition</property>
   <property name="mlt_service">composite</property>
   <property name="automatic">1</property>
   <property name="kdenlive_id">composite</property>
   <property name="force_track">1</property>
   <property name="deinterlace">0</property>
   <property name="distort">0</property>
   <property name="fill">1</property>
   <property name="geometry">0%/0%:100%x100%:100</property>
   <property name="luma_invert">0</property>
   <property name="operator">over</property>
   <property name="softness">0</property>
  </transition>
  <transition in="519" out="538" id="transition15">
   <property name="a_track">4</property>
   <property name="b_track">6</property>
   <property name="start">0/0:100%x100%</property>
   <property name="factory">loader</property>
   <property name="aligned">1</property>
   <property name="progressive">1</property>
   <property name="mlt_type">transition</property>
   <property name="mlt_service">composite</property>
   <property name="automatic">1</property>
   <property name="kdenlive_id">composite</property>
   <property name="force_track">1</property>
   <property name="deinterlace">0</property>
   <property name="distort">0</property>
   <property name="fill">1</property>
   <property name="geometry">0%/0%:100%x100%:100</property>
   <property name="luma_invert">0</property>
   <property name="operator">over</property>
   <property name="softness">0</property>
  </transition>
  <transition in="436" out="866" id="transition16">
   <property name="a_track">4</property>
   <property name="b_track">8</property>
   <property name="start">0/0:100%x100%</property>
   <property name="factory">loader</property>
   <property name="aligned">1</property>
   <property name="progressive">1</property>
   <property name="mlt_type">transition</property>
   <property name="mlt_service">composite</property>
   <property name="automatic">1</property>
   <property name="kdenlive_id">composite</property>
   <property name="force_track">1</property>
   <property name="deinterlace">0</property>
   <property name="distort">0</property>
   <property name="fill">1</property>
   <property name="geometry">0%/0%:100%x100%:100</property>
   <property name="luma_invert">0</property>
   <property name="operator">over</property>
   <property name="softness">0</property>
  </transition>
 </tractor>
 <kdenlivedoc profile="atsc_720p_25" kdenliveversion="0.9.10" version="0,88" projectfolder="/home/nicolas/kdenlive">
  <customeffects/>
  <documentproperties proxyimageminsize="2000" zonein="452" enableproxy="0" zoneout="485" generateproxy="0" zoom="4" verticalzoom="1" proxyextension="ts" position="603" documentid="1486043175202" generateimageproxy="0" proxyminsize="1000" proxyparams="-f mpegts -acodec libmp3lame -ac 2 -ab 128k -ar 48000 -vcodec mpeg2video -g 5 -deinterlace -s 480x270 -vb 400k"/>
  <documentmetadata/>
  <documentnotes>&lt;!DOCTYPE HTML PUBLIC "-//W3C//DTD HTML 4.0//EN" "http://www.w3.org/TR/REC-html40/strict.dtd">
&lt;html>&lt;head>&lt;meta name="qrichtext" content="1" />&lt;style type="text/css">
p, li { white-space: pre-wrap; }
&lt;/style>&lt;/head>&lt;body style=" font-family:'DejaVu Sans'; font-size:8pt; font-weight:400; font-style:normal;">
&lt;p style="-qt-paragraph-type:empty; margin-top:0px; margin-bottom:0px; margin-left:0px; margin-right:0px; -qt-block-indent:0; text-indent:0px;">&lt;br />&lt;/p>&lt;/body>&lt;/html></documentnotes>
  <profileinfo width="1280" display_aspect_den="9" frame_rate_den="1" description="HD 720p 25 fps" height="720" frame_rate_num="25" display_aspect_num="16" progressive="1" sample_aspect_num="1" sample_aspect_den="1"/>
  <tracksinfo>
   <trackinfo blind="1" mute="0" locked="0" trackname="Audio 2" type="audio"/>
   <trackinfo blind="1" mute="0" locked="0" trackname="Audio 1" type="audio"/>
   <trackinfo blind="0" mute="0" locked="0" trackname="Video 6"/>
   <trackinfo blind="0" mute="1" locked="0" trackname="Video 5"/>
   <trackinfo blind="0" mute="1" locked="0" trackname="Video 4"/>
   <trackinfo blind="0" mute="1" locked="0" trackname="Video 3"/>
   <trackinfo blind="0" mute="0" locked="0" trackname="Video 2"/>
   <trackinfo blind="0" mute="0" locked="0" trackname="Video 1"/>
  </tracksinfo>
  <kdenlive_producer audio_max="1" id="1" pix_fmt="yuvj420p" default_video="0" fps="25" analysisdata="" name="DSC_0055.MOV" videocodecid="h264" colorspace="601" videocodec="H.264 / AVC / MPEG-4 AVC / MPEG-4 part 10" resource="/home/nicolas/Documents/Projets Musique/Barons Freaks/COURTS METRAGES - MAIN/COURTS METRAGES/EpisodeIII/stevo-jobs/crème anti-âge/DSC_0055.MOV" default_audio="1" audiocodec="PCM signed 16-bit little-endian" duration="578" file_hash="303d428608202cae5f41bfddd7639510" aspect_ratio="1" channels="1" frequency="24000" video_max="0" progressive="1" type="3" frame_size="1280x720" file_size="32388879">
   <metaproperty tool="" name="meta.attr.0.stream.creation_time">2016-11-24 16:57:35</metaproperty>
   <metaproperty tool="" name="meta.attr.0.stream.language">eng</metaproperty>
   <metaproperty tool="" name="meta.attr.1.stream.creation_time">2016-11-24 16:57:35</metaproperty>
   <metaproperty tool="" name="meta.attr.1.stream.language">eng</metaproperty>
   <metaproperty tool="" name="meta.attr.compatible_brands">qt  niko</metaproperty>
   <metaproperty tool="" name="meta.attr.creation_time">2016-11-24 16:57:35</metaproperty>
   <metaproperty tool="" name="meta.attr.major_brand">qt  </metaproperty>
   <metaproperty tool="" name="meta.attr.minor_version">537331968</metaproperty>
  </kdenlive_producer>
  <kdenlive_producer duration="125" frame_size="1280x720" in="0" analysisdata="" file_size="5410" aspect_ratio="1" out="124" file_hash="04581b16f1e0fc33991f53390ac72937" type="5" id="2" name="Crop4tiers.png" resource="/home/nicolas/Documents/Projets Musique/Barons Freaks/COURTS METRAGES - MAIN/COURTS METRAGES/Crop4tiers.png"/>
  <kdenlive_producer duration="125" frame_size="500x501" in="0" analysisdata="" file_size="57545" aspect_ratio="1" out="124" file_hash="6bcc6754b5a7416b32ea984e9a4c2c73" type="5" id="3" name="moondog.jpg" resource="/home/nicolas/Documents/Projets Musique/Barons Freaks/COURTS METRAGES - MAIN/COURTS METRAGES/EpisodeIII/stevo-jobs/crème anti-âge/moondog.jpg">
   <metaproperty tool="KDE Metadata" name="meta.attr.contentCreated">1155332034</metaproperty>
   <metaproperty tool="KDE Metadata" name="meta.attr.contentSize">57545</metaproperty>
   <metaproperty tool="KDE Metadata" name="meta.attr.fileName">moondog.jpg</metaproperty>
   <metaproperty tool="KDE Metadata" name="meta.attr.height">501</metaproperty>
   <metaproperty tool="KDE Metadata" name="meta.attr.isPartOf"></metaproperty>
   <metaproperty tool="KDE Metadata" name="meta.attr.lastModified">1486043724</metaproperty>
   <metaproperty tool="KDE Metadata" name="meta.attr.mimeType">image/jpeg</metaproperty>
   <metaproperty tool="KDE Metadata" name="meta.attr.type">http://www.semanticdesktop.org/ontologies/2007/05/10/nexif#Photo</metaproperty>
   <metaproperty tool="KDE Metadata" name="meta.attr.url">/home/nicolas/Documents/Projets Musique/Barons Freaks/COURTS METRAGES - MAIN/COURTS METRAGES/EpisodeIII/stevo-jobs/crème anti-âge/moondog.jpg</metaproperty>
   <metaproperty tool="KDE Metadata" name="meta.attr.width">500</metaproperty>
  </kdenlive_producer>
  <kdenlive_producer duration="125" frame_size="600x600" in="0" analysisdata="" file_size="64949" aspect_ratio="1" out="124" file_hash="9933ba6382e1bdf82eeb4070bea7d8ab" type="5" id="4" name="cadum.jpg" resource="/home/nicolas/Documents/Projets Musique/Barons Freaks/COURTS METRAGES - MAIN/COURTS METRAGES/EpisodeIII/stevo-jobs/crème anti-âge/cadum.jpg">
   <metaproperty tool="KDE Metadata" name="meta.attr.comment">CREATOR: gd-jpeg v1.0 (using IJG JPEG v62), quality = 85
</metaproperty>
   <metaproperty tool="KDE Metadata" name="meta.attr.contentSize">64949</metaproperty>
   <metaproperty tool="KDE Metadata" name="meta.attr.fileName">cadum.jpg</metaproperty>
   <metaproperty tool="KDE Metadata" name="meta.attr.height">600</metaproperty>
   <metaproperty tool="KDE Metadata" name="meta.attr.isPartOf"></metaproperty>
   <metaproperty tool="KDE Metadata" name="meta.attr.lastModified">1486043753</metaproperty>
   <metaproperty tool="KDE Metadata" name="meta.attr.mimeType">image/jpeg</metaproperty>
   <metaproperty tool="KDE Metadata" name="meta.attr.type">http://www.semanticdesktop.org/ontologies/2007/03/22/nfo#RasterImage</metaproperty>
   <metaproperty tool="KDE Metadata" name="meta.attr.url">/home/nicolas/Documents/Projets Musique/Barons Freaks/COURTS METRAGES - MAIN/COURTS METRAGES/EpisodeIII/stevo-jobs/crème anti-âge/cadum.jpg</metaproperty>
   <metaproperty tool="KDE Metadata" name="meta.attr.width">600</metaproperty>
  </kdenlive_producer>
  <kdenlive_producer duration="125" frame_size="500x500" in="0" analysisdata="" file_size="1360149" aspect_ratio="1" out="124" file_hash="fe0437ac01285b05552664303cbf713a" type="5" id="5" name="tumblr_oaoio6sN671vsjcxvo1_500.gif" resource="/home/nicolas/Documents/Projets Musique/Barons Freaks/COURTS METRAGES - MAIN/COURTS METRAGES/EpisodeIII/stevo-jobs/crème anti-âge/tumblr_oaoio6sN671vsjcxvo1_500.gif"/>
  <kdenlive_producer duration="109" frame_size="500x500" loop="1" in="0" analysisdata="" ttl="3" aspect_ratio="1" length="30" out="29" softness="0" luma_duration="00:00:01:00" type="7" id="8" fade="0" name="Clip diaporama" crop="0" resource="/home/nicolas/Documents/Projets Musique/Barons Freaks/COURTS METRAGES - MAIN/COURTS METRAGES/EpisodeIII/stevo-jobs/crème anti-âge/étoiles/.all.png"/>
  <kdenlive_producer audio_max="1" id="9" pix_fmt="yuvj420p" default_video="0" fps="25" analysisdata="" name="DSC_0056.MOV" videocodecid="h264" colorspace="601" videocodec="H.264 / AVC / MPEG-4 AVC / MPEG-4 part 10" resource="/home/nicolas/Documents/Projets Musique/Barons Freaks/COURTS METRAGES - MAIN/COURTS METRAGES/EpisodeIII/stevo-jobs/crème anti-âge/DSC_0056.MOV" default_audio="1" audiocodec="PCM signed 16-bit little-endian" duration="575" file_hash="62cb3ca4c01df4eb965ec4f97d592156" aspect_ratio="1" channels="1" frequency="24000" video_max="0" progressive="1" type="3" frame_size="1280x720" file_size="32665413">
   <metaproperty tool="" name="meta.attr.0.stream.creation_time">2016-11-24 17:02:37</metaproperty>
   <metaproperty tool="" name="meta.attr.0.stream.language">eng</metaproperty>
   <metaproperty tool="" name="meta.attr.1.stream.creation_time">2016-11-24 17:02:37</metaproperty>
   <metaproperty tool="" name="meta.attr.1.stream.language">eng</metaproperty>
   <metaproperty tool="" name="meta.attr.compatible_brands">qt  niko</metaproperty>
   <metaproperty tool="" name="meta.attr.creation_time">2016-11-24 17:02:37</metaproperty>
   <metaproperty tool="" name="meta.attr.major_brand">qt  </metaproperty>
   <metaproperty tool="" name="meta.attr.minor_version">537331968</metaproperty>
  </kdenlive_producer>
  <kdenlive_producer duration="125" frame_size="1400x1117" in="0" analysisdata="" file_size="348254" aspect_ratio="1" out="124" file_hash="5717c5c73958f49c1d5b976dc07ce884" type="5" id="10" name="king-kong.jpg" resource="/home/nicolas/Documents/Projets Musique/Barons Freaks/COURTS METRAGES - MAIN/COURTS METRAGES/EpisodeIII/stevo-jobs/crème anti-âge/king-kong.jpg">
   <metaproperty tool="KDE Metadata" name="meta.attr.contentSize">65536</metaproperty>
   <metaproperty tool="KDE Metadata" name="meta.attr.fileName">king-kong.jpg</metaproperty>
   <metaproperty tool="KDE Metadata" name="meta.attr.height">1117</metaproperty>
   <metaproperty tool="KDE Metadata" name="meta.attr.isPartOf"></metaproperty>
   <metaproperty tool="KDE Metadata" name="meta.attr.lastModified">1486044153</metaproperty>
   <metaproperty tool="KDE Metadata" name="meta.attr.mimeType">image/jpeg</metaproperty>
   <metaproperty tool="KDE Metadata" name="meta.attr.type">http://www.semanticdesktop.org/ontologies/2007/03/22/nfo#RasterImage</metaproperty>
   <metaproperty tool="KDE Metadata" name="meta.attr.url">/home/nicolas/Documents/Projets Musique/Barons Freaks/COURTS METRAGES - MAIN/COURTS METRAGES/EpisodeIII/stevo-jobs/crème anti-âge/king-kong.jpg</metaproperty>
   <metaproperty tool="KDE Metadata" name="meta.attr.width">1400</metaproperty>
  </kdenlive_producer>
  <kdenlive_producer duration="125" frame_size="720x500" in="0" analysisdata="" file_size="77925" aspect_ratio="1" out="124" file_hash="97d3f7c1ba264ce1fe5e61c03eb814e6" type="5" id="12" name="kiki.jpg" resource="/home/nicolas/Documents/Projets Musique/Barons Freaks/COURTS METRAGES - MAIN/COURTS METRAGES/EpisodeIII/stevo-jobs/crème anti-âge/kiki.jpg">
   <metaproperty tool="KDE Metadata" name="meta.attr.contentCreated">1317069624</metaproperty>
   <metaproperty tool="KDE Metadata" name="meta.attr.contentSize">65536</metaproperty>
   <metaproperty tool="KDE Metadata" name="meta.attr.fileName">kiki.jpg</metaproperty>
   <metaproperty tool="KDE Metadata" name="meta.attr.height">500</metaproperty>
   <metaproperty tool="KDE Metadata" name="meta.attr.isPartOf"></metaproperty>
   <metaproperty tool="KDE Metadata" name="meta.attr.lastModified">1486048569</metaproperty>
   <metaproperty tool="KDE Metadata" name="meta.attr.mimeType">image/jpeg</metaproperty>
   <metaproperty tool="KDE Metadata" name="meta.attr.orientation">1</metaproperty>
   <metaproperty tool="KDE Metadata" name="meta.attr.type">http://www.semanticdesktop.org/ontologies/2007/05/10/nexif#Photo</metaproperty>
   <metaproperty tool="KDE Metadata" name="meta.attr.url">/home/nicolas/Documents/Projets Musique/Barons Freaks/COURTS METRAGES - MAIN/COURTS METRAGES/EpisodeIII/stevo-jobs/crème anti-âge/kiki.jpg</metaproperty>
   <metaproperty tool="KDE Metadata" name="meta.attr.width">720</metaproperty>
  </kdenlive_producer>
  <kdenlive_producer duration="125" frame_size="736x444" in="0" analysisdata="" file_size="42502" aspect_ratio="1" out="124" file_hash="5330f5b3691f27bca5ce57ba13933d62" type="5" id="13" name="chateau lugubre.jpg" resource="/home/nicolas/Documents/Projets Musique/Barons Freaks/COURTS METRAGES - MAIN/COURTS METRAGES/EpisodeIII/stevo-jobs/crème anti-âge/chateau lugubre.jpg">
   <metaproperty tool="KDE Metadata" name="meta.attr.contentSize">42502</metaproperty>
   <metaproperty tool="KDE Metadata" name="meta.attr.fileName">chateau lugubre.jpg</metaproperty>
   <metaproperty tool="KDE Metadata" name="meta.attr.height">444</metaproperty>
   <metaproperty tool="KDE Metadata" name="meta.attr.isPartOf"></metaproperty>
   <metaproperty tool="KDE Metadata" name="meta.attr.lastModified">1486044099</metaproperty>
   <metaproperty tool="KDE Metadata" name="meta.attr.mimeType">image/jpeg</metaproperty>
   <metaproperty tool="KDE Metadata" name="meta.attr.type">http://www.semanticdesktop.org/ontologies/2007/03/22/nfo#RasterImage</metaproperty>
   <metaproperty tool="KDE Metadata" name="meta.attr.url">/home/nicolas/Documents/Projets Musique/Barons Freaks/COURTS METRAGES - MAIN/COURTS METRAGES/EpisodeIII/stevo-jobs/crème anti-âge/chateau lugubre.jpg</metaproperty>
   <metaproperty tool="KDE Metadata" name="meta.attr.width">736</metaproperty>
  </kdenlive_producer>
  <kdenlive_producer duration="125" frame_size="3456x2436" in="0" analysisdata="" file_size="1174879" aspect_ratio="1" out="124" file_hash="e237df5204f4e02272b8e65373a163e5" type="5" id="14" name="disneyland-paris.jpg" resource="/home/nicolas/Documents/Projets Musique/Barons Freaks/COURTS METRAGES - MAIN/COURTS METRAGES/EpisodeIII/stevo-jobs/crème anti-âge/disneyland-paris.jpg">
   <metaproperty tool="KDE Metadata" name="meta.attr.contentCreated">1137946727</metaproperty>
   <metaproperty tool="KDE Metadata" name="meta.attr.contentSize">65536</metaproperty>
   <metaproperty tool="KDE Metadata" name="meta.attr.fileName">disneyland-paris.jpg</metaproperty>
   <metaproperty tool="KDE Metadata" name="meta.attr.height">2436</metaproperty>
   <metaproperty tool="KDE Metadata" name="meta.attr.isPartOf"></metaproperty>
   <metaproperty tool="KDE Metadata" name="meta.attr.lastModified">1486044126</metaproperty>
   <metaproperty tool="KDE Metadata" name="meta.attr.mimeType">image/jpeg</metaproperty>
   <metaproperty tool="KDE Metadata" name="meta.attr.orientation">1</metaproperty>
   <metaproperty tool="KDE Metadata" name="meta.attr.type">http://www.semanticdesktop.org/ontologies/2007/05/10/nexif#Photo</metaproperty>
   <metaproperty tool="KDE Metadata" name="meta.attr.url">/home/nicolas/Documents/Projets Musique/Barons Freaks/COURTS METRAGES - MAIN/COURTS METRAGES/EpisodeIII/stevo-jobs/crème anti-âge/disneyland-paris.jpg</metaproperty>
   <metaproperty tool="KDE Metadata" name="meta.attr.width">3456</metaproperty>
  </kdenlive_producer>
  <kdenlive_producer duration="50" frame_size="1422x976" in="0" analysisdata="" file_size="418932" aspect_ratio="1" out="49" file_hash="8476b487c4c15a017a1996b7bc5da225" type="5" id="15" name="gandalf.jpg" resource="/home/nicolas/Documents/Projets Musique/Barons Freaks/COURTS METRAGES - MAIN/COURTS METRAGES/EpisodeIII/stevo-jobs/crème anti-âge/gandalf.jpg">
   <metaproperty tool="KDE Metadata" name="meta.attr.contentSize">65536</metaproperty>
   <metaproperty tool="KDE Metadata" name="meta.attr.fileName">gandalf.jpg</metaproperty>
   <metaproperty tool="KDE Metadata" name="meta.attr.height">976</metaproperty>
   <metaproperty tool="KDE Metadata" name="meta.attr.isPartOf"></metaproperty>
   <metaproperty tool="KDE Metadata" name="meta.attr.lastModified">1486043825</metaproperty>
   <metaproperty tool="KDE Metadata" name="meta.attr.mimeType">image/jpeg</metaproperty>
   <metaproperty tool="KDE Metadata" name="meta.attr.type">http://www.semanticdesktop.org/ontologies/2007/03/22/nfo#RasterImage</metaproperty>
   <metaproperty tool="KDE Metadata" name="meta.attr.url">/home/nicolas/Documents/Projets Musique/Barons Freaks/COURTS METRAGES - MAIN/COURTS METRAGES/EpisodeIII/stevo-jobs/crème anti-âge/gandalf.jpg</metaproperty>
   <metaproperty tool="KDE Metadata" name="meta.attr.width">1422</metaproperty>
  </kdenlive_producer>
  <kdenlive_producer duration="50" frame_size="1024x768" in="0" analysisdata="" file_size="68476" aspect_ratio="1" out="49" file_hash="7c14cc7de0243cc221aaca16f06a9eb5" type="5" id="16" name="harry potter.jpg" resource="/home/nicolas/Documents/Projets Musique/Barons Freaks/COURTS METRAGES - MAIN/COURTS METRAGES/EpisodeIII/stevo-jobs/crème anti-âge/harry potter.jpg">
   <metaproperty tool="KDE Metadata" name="meta.attr.comment">CREATOR: gd-jpeg v1.0 (using IJG JPEG v80), quality = 75
</metaproperty>
   <metaproperty tool="KDE Metadata" name="meta.attr.contentSize">65536</metaproperty>
   <metaproperty tool="KDE Metadata" name="meta.attr.fileName">harry potter.jpg</metaproperty>
   <metaproperty tool="KDE Metadata" name="meta.attr.height">768</metaproperty>
   <metaproperty tool="KDE Metadata" name="meta.attr.isPartOf"></metaproperty>
   <metaproperty tool="KDE Metadata" name="meta.attr.lastModified">1486043915</metaproperty>
   <metaproperty tool="KDE Metadata" name="meta.attr.mimeType">image/jpeg</metaproperty>
   <metaproperty tool="KDE Metadata" name="meta.attr.type">http://www.semanticdesktop.org/ontologies/2007/03/22/nfo#RasterImage</metaproperty>
   <metaproperty tool="KDE Metadata" name="meta.attr.url">/home/nicolas/Documents/Projets Musique/Barons Freaks/COURTS METRAGES - MAIN/COURTS METRAGES/EpisodeIII/stevo-jobs/crème anti-âge/harry potter.jpg</metaproperty>
   <metaproperty tool="KDE Metadata" name="meta.attr.width">1024</metaproperty>
  </kdenlive_producer>
  <markers/>
  <groups/>
 </kdenlivedoc>
</mlt>
