<?xml version='1.0' encoding='utf-8'?>
<mlt title="Anonymous Submission" version="6.4.1" root="/home/nicolas/Documents/Projets Musique/Barons Freaks/COURTS METRAGES - MAIN/COURTS METRAGES/EpisodeV/télé achat" producer="main bin" LC_NUMERIC="fr_FR.UTF-8">
 <profile width="1280" frame_rate_den="1" height="720" display_aspect_num="16" display_aspect_den="9" frame_rate_num="25" colorspace="709" sample_aspect_den="1" description="HD 720p 25 fps" progressive="1" sample_aspect_num="1"/>
 <producer id="2" title="Anonymous Submission" out="577" in="0">
  <property name="length">578</property>
  <property name="eof">pause</property>
  <property name="resource">/home/nicolas/Documents/Projets Musique/Barons Freaks/COURTS METRAGES - MAIN/COURTS METRAGES/Crop4tiers.png</property>
  <property name="ttl">25</property>
  <property name="aspect_ratio">1</property>
  <property name="progressive">1</property>
  <property name="seekable">1</property>
  <property name="loop">1</property>
  <property name="meta.media.width">1280</property>
  <property name="meta.media.height">720</property>
  <property name="mlt_service">pixbuf</property>
  <property name="kdenlive:file_hash">04581b16f1e0fc33991f53390ac72937</property>
  <property name="kdenlive:file_size">5410</property>
  <property name="kdenlive:clipname">Crop4tiers.png</property>
  <property name="kdenlive:duration">578</property>
  <property name="global_feed">1</property>
 </producer>
 <producer id="3" title="Anonymous Submission" out="621" in="0">
  <property name="length">00:00:24:22</property>
  <property name="eof">pause</property>
  <property name="resource">/home/nicolas/.cache/kdenlive/proxy/f2ef34bb1a7b911cbaed51721c49ad7f.mpg</property>
  <property name="meta.media.nb_streams">2</property>
  <property name="meta.media.0.stream.type">video</property>
  <property name="meta.media.0.stream.frame_rate">25</property>
  <property name="meta.media.0.stream.sample_aspect_ratio">0</property>
  <property name="meta.media.0.codec.width">640</property>
  <property name="meta.media.0.codec.height">360</property>
  <property name="meta.media.0.codec.rotate">0</property>
  <property name="meta.media.0.codec.frame_rate">25</property>
  <property name="meta.media.0.codec.pix_fmt">yuv420p</property>
  <property name="meta.media.0.codec.sample_aspect_ratio">1</property>
  <property name="meta.media.0.codec.colorspace">601</property>
  <property name="meta.media.0.codec.name">mpeg2video</property>
  <property name="meta.media.0.codec.long_name">MPEG-2 video</property>
  <property name="meta.media.0.codec.bit_rate">0</property>
  <property name="meta.media.1.stream.type">audio</property>
  <property name="meta.media.1.codec.sample_fmt">s16p</property>
  <property name="meta.media.1.codec.sample_rate">48000</property>
  <property name="meta.media.1.codec.channels">2</property>
  <property name="meta.media.1.codec.name">mp2</property>
  <property name="meta.media.1.codec.long_name">MP2 (MPEG audio layer 2)</property>
  <property name="meta.media.1.codec.bit_rate">128000</property>
  <property name="seekable">1</property>
  <property name="meta.media.sample_aspect_num">1</property>
  <property name="meta.media.sample_aspect_den">1</property>
  <property name="aspect_ratio">1</property>
  <property name="audio_index">1</property>
  <property name="video_index">0</property>
  <property name="mute_on_pause">1</property>
  <property name="mlt_service">avformat</property>
  <property name="meta.media.0.codec.color_trc">1</property>
  <property name="meta.attr.0.stream.handler_name.markup">VideoHandler</property>
  <property name="meta.attr.1.stream.handler_name.markup">SoundHandler</property>
  <property name="meta.attr.major_brand.markup">isom</property>
  <property name="meta.attr.minor_version.markup">512</property>
  <property name="meta.attr.compatible_brands.markup">isomiso2avc1mp41</property>
  <property name="meta.attr.encoder.markup">Lavf57.56.101</property>
  <property name="meta.media.frame_rate_num">25</property>
  <property name="meta.media.frame_rate_den">1</property>
  <property name="meta.media.colorspace">601</property>
  <property name="meta.media.color_trc">2</property>
  <property name="meta.media.width">640</property>
  <property name="meta.media.height">360</property>
  <property name="meta.media.top_field_first">0</property>
  <property name="meta.media.progressive">1</property>
  <property name="kdenlive:file_size">14228664</property>
  <property name="kdenlive:file_hash">f2ef34bb1a7b911cbaed51721c49ad7f</property>
  <property name="kdenlive:proxy">/home/nicolas/.cache/kdenlive/proxy/f2ef34bb1a7b911cbaed51721c49ad7f.mpg</property>
  <property name="proxy_out">621</property>
  <property name="kdenlive:originalurl">crème anti-âge/render creme anti age.mp4</property>
  <property name="global_feed">1</property>
  <property name="kdenlive:meta.media.nb_streams">2</property>
  <property name="kdenlive:meta.media.0.stream.type">video</property>
  <property name="kdenlive:meta.media.0.stream.frame_rate">25</property>
  <property name="kdenlive:meta.media.0.stream.sample_aspect_ratio">1</property>
  <property name="kdenlive:meta.media.0.codec.width">1280</property>
  <property name="kdenlive:meta.media.0.codec.height">720</property>
  <property name="kdenlive:meta.media.0.codec.rotate">0</property>
  <property name="kdenlive:meta.media.0.codec.frame_rate">25</property>
  <property name="kdenlive:meta.media.0.codec.pix_fmt">yuv420p</property>
  <property name="kdenlive:meta.media.0.codec.sample_aspect_ratio">1</property>
  <property name="kdenlive:meta.media.0.codec.colorspace">709</property>
  <property name="kdenlive:meta.media.0.codec.color_trc">1</property>
  <property name="kdenlive:meta.media.0.codec.name">h264</property>
  <property name="kdenlive:meta.media.0.codec.long_name">H.264 / AVC / MPEG-4 AVC / MPEG-4 part 10</property>
  <property name="kdenlive:meta.media.0.codec.bit_rate">4573761</property>
  <property name="kdenlive:meta.attr.0.stream.handler_name.markup">VideoHandler</property>
  <property name="kdenlive:meta.media.1.stream.type">audio</property>
  <property name="kdenlive:meta.media.1.codec.sample_fmt">fltp</property>
  <property name="kdenlive:meta.media.1.codec.sample_rate">48000</property>
  <property name="kdenlive:meta.media.1.codec.channels">2</property>
  <property name="kdenlive:meta.media.1.codec.name">aac</property>
  <property name="kdenlive:meta.media.1.codec.long_name">AAC (Advanced Audio Coding)</property>
  <property name="kdenlive:meta.media.1.codec.bit_rate">2277</property>
  <property name="kdenlive:meta.attr.1.stream.handler_name.markup">SoundHandler</property>
  <property name="kdenlive:meta.attr.major_brand.markup">isom</property>
  <property name="kdenlive:meta.attr.minor_version.markup">512</property>
  <property name="kdenlive:meta.attr.compatible_brands.markup">isomiso2avc1mp41</property>
  <property name="kdenlive:meta.attr.encoder.markup">Lavf57.56.101</property>
  <property name="kdenlive:meta.media.sample_aspect_num">1</property>
  <property name="kdenlive:meta.media.sample_aspect_den">1</property>
  <property name="kdenlive:meta.media.frame_rate_num">25</property>
  <property name="kdenlive:meta.media.frame_rate_den">1</property>
  <property name="kdenlive:meta.media.colorspace">709</property>
  <property name="kdenlive:meta.media.color_trc">1</property>
  <property name="kdenlive:meta.media.width">1280</property>
  <property name="kdenlive:meta.media.height">720</property>
  <property name="kdenlive:meta.media.top_field_first">0</property>
  <property name="kdenlive:meta.media.progressive">1</property>
 </producer>
 <producer id="5" out="621" in="0">
  <property name="length">622</property>
  <property name="eof">pause</property>
  <property name="resource">0xffffffff</property>
  <property name="aspect_ratio">1</property>
  <property name="mlt_service">color</property>
  <property name="kdenlive:clipname">Color Clip</property>
  <property name="kdenlive:folderid">-1</property>
  <property name="kdenlive:duration">125</property>
  <property name="kdenlive:file_hash">039b56a692cd66eefeea44a17539e5a2</property>
 </producer>
 <producer id="4" title="Anonymous Submission" out="361" in="0">
  <property name="length">362</property>
  <property name="eof">pause</property>
  <property name="resource">/home/nicolas/Documents/Projets Musique/Barons Freaks/COURTS METRAGES - MAIN/COURTS METRAGES/EpisodeV/logoSteve-O.png</property>
  <property name="ttl">25</property>
  <property name="aspect_ratio">1</property>
  <property name="progressive">1</property>
  <property name="seekable">1</property>
  <property name="loop">1</property>
  <property name="meta.media.width">1540</property>
  <property name="meta.media.height">374</property>
  <property name="mlt_service">pixbuf</property>
  <property name="kdenlive:duration">125</property>
  <property name="kdenlive:file_size">50929</property>
  <property name="kdenlive:file_hash">160dda5a29948e9fae5abd6a69f21089</property>
  <property name="global_feed">1</property>
 </producer>
 <producer id="6" title="Anonymous Submission" out="621" in="0">
  <property name="length">622</property>
  <property name="eof">pause</property>
  <property name="resource">anim steve-o/.all.png</property>
  <property name="ttl">1</property>
  <property name="aspect_ratio">1</property>
  <property name="progressive">1</property>
  <property name="seekable">1</property>
  <property name="loop">0</property>
  <property name="meta.media.width">720</property>
  <property name="meta.media.height">405</property>
  <property name="mlt_service">pixbuf</property>
  <property name="animation"/>
  <property name="crop">0</property>
  <property name="fade">0</property>
  <property name="kdenlive:clipname">Slideshow Clip</property>
  <property name="kdenlive:folderid">-1</property>
  <property name="luma_duration">25</property>
  <property name="luma_file"/>
  <property name="softness">0</property>
  <property name="kdenlive:duration">289</property>
  <property name="kdenlive:file_hash">8c01493913504e0b11158ee8d41b5589</property>
  <property name="global_feed">1</property>
 </producer>
 <playlist id="main bin">
  <property name="kdenlive:documentnotes"/>
  <property name="kdenlive:clipgroups"/>
  <property name="kdenlive:customeffects"/>
  <property name="kdenlive:docproperties.version">0.95</property>
  <property name="kdenlive:docproperties.projectfolder">/home/nicolas/kdenlive</property>
  <property name="kdenlive:docproperties.documentid">1506000076337</property>
  <property name="kdenlive:docproperties.audiotargettrack">-1</property>
  <property name="kdenlive:docproperties.decimalPoint">,</property>
  <property name="kdenlive:docproperties.dirtypreviewchunks"/>
  <property name="kdenlive:docproperties.disablepreview">0</property>
  <property name="kdenlive:docproperties.enableproxy">1</property>
  <property name="kdenlive:docproperties.generateimageproxy">1</property>
  <property name="kdenlive:docproperties.generateproxy">1</property>
  <property name="kdenlive:docproperties.kdenliveversion">16.12.2</property>
  <property name="kdenlive:docproperties.position">222</property>
  <property name="kdenlive:docproperties.previewchunks"/>
  <property name="kdenlive:docproperties.previewextension"/>
  <property name="kdenlive:docproperties.previewparameters"/>
  <property name="kdenlive:docproperties.profile">atsc_720p_25</property>
  <property name="kdenlive:docproperties.proxyextension">mpg</property>
  <property name="kdenlive:docproperties.proxyimageminsize">2000</property>
  <property name="kdenlive:docproperties.proxyminsize">1000</property>
  <property name="kdenlive:docproperties.proxyparams">-vf scale=640:-1 -g 5 -qscale 6 -ab 128k -vcodec mpeg2video -acodec mp2</property>
  <property name="kdenlive:docproperties.verticalzoom">0</property>
  <property name="kdenlive:docproperties.videotargettrack">-1</property>
  <property name="kdenlive:docproperties.zonein">0</property>
  <property name="kdenlive:docproperties.zoneout">100</property>
  <property name="kdenlive:docproperties.zoom">6</property>
  <property name="kdenlive:docproperties.renderaudioquality">192</property>
  <property name="kdenlive:docproperties.rendercategory">Generic (HD for web, mobile devices...)</property>
  <property name="kdenlive:docproperties.renderendguide">-1</property>
  <property name="kdenlive:docproperties.renderexportaudio">0</property>
  <property name="kdenlive:docproperties.renderguide">0</property>
  <property name="kdenlive:docproperties.renderplay">0</property>
  <property name="kdenlive:docproperties.renderprofile">MP4 - the dominating format (H264/AAC)</property>
  <property name="kdenlive:docproperties.renderquality">15</property>
  <property name="kdenlive:docproperties.renderratio">1</property>
  <property name="kdenlive:docproperties.renderrescale">0</property>
  <property name="kdenlive:docproperties.renderrescaleheight">180</property>
  <property name="kdenlive:docproperties.renderrescalewidth">320</property>
  <property name="kdenlive:docproperties.renderscanning">0</property>
  <property name="kdenlive:docproperties.renderspeed">2</property>
  <property name="kdenlive:docproperties.renderstartguide">-1</property>
  <property name="kdenlive:docproperties.rendertcoverlay">0</property>
  <property name="kdenlive:docproperties.rendertctype">0</property>
  <property name="kdenlive:docproperties.rendertwopass">0</property>
  <property name="kdenlive:docproperties.renderurl">/home/nicolas/Documents/render creme anti age.mp4</property>
  <property name="kdenlive:docproperties.renderzone">0</property>
  <property name="xml_retain">1</property>
  <blank length="108"/>
  <entry out="124" producer="2" in="0"/>
  <entry out="621" producer="3" in="0"/>
  <entry out="124" producer="5" in="0"/>
  <entry out="124" producer="4" in="0"/>
  <entry out="288" producer="6" in="0"/>
 </playlist>
 <producer id="black" out="500" in="0">
  <property name="length">15000</property>
  <property name="eof">pause</property>
  <property name="resource">black</property>
  <property name="aspect_ratio">0</property>
  <property name="mlt_service">colour</property>
  <property name="set.test_audio">0</property>
 </producer>
 <playlist id="black_track">
  <entry out="622" producer="black" in="0"/>
 </playlist>
 <playlist id="playlist1">
  <property name="kdenlive:audio_track">1</property>
  <property name="kdenlive:track_name">Audio 2</property>
 </playlist>
 <playlist id="playlist2">
  <property name="kdenlive:audio_track">1</property>
  <property name="kdenlive:track_name">Audio 1</property>
 </playlist>
 <producer id="3_playlist0" title="Anonymous Submission" out="621" in="0">
  <property name="length">00:00:24:22</property>
  <property name="eof">pause</property>
  <property name="resource">/home/nicolas/.cache/kdenlive/proxy/f2ef34bb1a7b911cbaed51721c49ad7f.mpg</property>
  <property name="meta.media.nb_streams">2</property>
  <property name="meta.media.0.stream.type">video</property>
  <property name="meta.media.0.stream.frame_rate">25</property>
  <property name="meta.media.0.stream.sample_aspect_ratio">0</property>
  <property name="meta.media.0.codec.width">640</property>
  <property name="meta.media.0.codec.height">360</property>
  <property name="meta.media.0.codec.rotate">0</property>
  <property name="meta.media.0.codec.frame_rate">25</property>
  <property name="meta.media.0.codec.pix_fmt">yuv420p</property>
  <property name="meta.media.0.codec.sample_aspect_ratio">1</property>
  <property name="meta.media.0.codec.colorspace">601</property>
  <property name="meta.media.0.codec.name">mpeg2video</property>
  <property name="meta.media.0.codec.long_name">MPEG-2 video</property>
  <property name="meta.media.0.codec.bit_rate">0</property>
  <property name="meta.media.1.stream.type">audio</property>
  <property name="meta.media.1.codec.sample_fmt">s16p</property>
  <property name="meta.media.1.codec.sample_rate">48000</property>
  <property name="meta.media.1.codec.channels">2</property>
  <property name="meta.media.1.codec.name">mp2</property>
  <property name="meta.media.1.codec.long_name">MP2 (MPEG audio layer 2)</property>
  <property name="meta.media.1.codec.bit_rate">128000</property>
  <property name="seekable">1</property>
  <property name="meta.media.sample_aspect_num">1</property>
  <property name="meta.media.sample_aspect_den">1</property>
  <property name="aspect_ratio">1</property>
  <property name="audio_index">1</property>
  <property name="video_index">0</property>
  <property name="mute_on_pause">1</property>
  <property name="mlt_service">avformat</property>
  <property name="kdenlive:file_size">14228664</property>
  <property name="kdenlive:file_hash">f2ef34bb1a7b911cbaed51721c49ad7f</property>
  <property name="kdenlive:proxy">/home/nicolas/.cache/kdenlive/proxy/f2ef34bb1a7b911cbaed51721c49ad7f.mpg</property>
  <property name="proxy_out">621</property>
  <property name="kdenlive:originalurl">crème anti-âge/render creme anti age.mp4</property>
  <property name="global_feed">1</property>
  <property name="kdenlive:meta.media.nb_streams">2</property>
  <property name="kdenlive:meta.media.0.stream.type">video</property>
  <property name="kdenlive:meta.media.0.stream.frame_rate">25</property>
  <property name="kdenlive:meta.media.0.stream.sample_aspect_ratio">1</property>
  <property name="kdenlive:meta.media.0.codec.width">1280</property>
  <property name="kdenlive:meta.media.0.codec.height">720</property>
  <property name="kdenlive:meta.media.0.codec.rotate">0</property>
  <property name="kdenlive:meta.media.0.codec.frame_rate">25</property>
  <property name="kdenlive:meta.media.0.codec.pix_fmt">yuv420p</property>
  <property name="kdenlive:meta.media.0.codec.sample_aspect_ratio">1</property>
  <property name="kdenlive:meta.media.0.codec.colorspace">709</property>
  <property name="kdenlive:meta.media.0.codec.color_trc">1</property>
  <property name="kdenlive:meta.media.0.codec.name">h264</property>
  <property name="kdenlive:meta.media.0.codec.long_name">H.264 / AVC / MPEG-4 AVC / MPEG-4 part 10</property>
  <property name="kdenlive:meta.media.0.codec.bit_rate">4573761</property>
  <property name="kdenlive:meta.attr.0.stream.handler_name.markup">VideoHandler</property>
  <property name="kdenlive:meta.media.1.stream.type">audio</property>
  <property name="kdenlive:meta.media.1.codec.sample_fmt">fltp</property>
  <property name="kdenlive:meta.media.1.codec.sample_rate">48000</property>
  <property name="kdenlive:meta.media.1.codec.channels">2</property>
  <property name="kdenlive:meta.media.1.codec.name">aac</property>
  <property name="kdenlive:meta.media.1.codec.long_name">AAC (Advanced Audio Coding)</property>
  <property name="kdenlive:meta.media.1.codec.bit_rate">2277</property>
  <property name="kdenlive:meta.attr.1.stream.handler_name.markup">SoundHandler</property>
  <property name="kdenlive:meta.attr.major_brand.markup">isom</property>
  <property name="kdenlive:meta.attr.minor_version.markup">512</property>
  <property name="kdenlive:meta.attr.compatible_brands.markup">isomiso2avc1mp41</property>
  <property name="kdenlive:meta.attr.encoder.markup">Lavf57.56.101</property>
  <property name="kdenlive:meta.media.sample_aspect_num">1</property>
  <property name="kdenlive:meta.media.sample_aspect_den">1</property>
  <property name="kdenlive:meta.media.frame_rate_num">25</property>
  <property name="kdenlive:meta.media.frame_rate_den">1</property>
  <property name="kdenlive:meta.media.colorspace">709</property>
  <property name="kdenlive:meta.media.color_trc">1</property>
  <property name="kdenlive:meta.media.width">1280</property>
  <property name="kdenlive:meta.media.height">720</property>
  <property name="kdenlive:meta.media.top_field_first">0</property>
  <property name="kdenlive:meta.media.progressive">1</property>
  <property name="xml">was here</property>
  <property name="meta.media.frame_rate_num">25</property>
  <property name="meta.media.frame_rate_den">1</property>
  <property name="meta.media.colorspace">601</property>
  <property name="meta.media.color_trc">2</property>
  <property name="meta.media.width">640</property>
  <property name="meta.media.height">360</property>
  <property name="meta.media.top_field_first">0</property>
  <property name="meta.media.progressive">1</property>
 </producer>
 <playlist id="playlist0">
  <property name="kdenlive:track_name">Video 6</property>
  <entry out="621" producer="3_playlist0" in="0"/>
 </playlist>
 <playlist id="playlist3">
  <property name="kdenlive:track_name">Video 5</property>
  <entry out="346" producer="5" in="0">
   <filter id="qtblend">
    <property name="mlt_service">qtblend</property>
    <property name="kdenlive_id">qtblend</property>
    <property name="tag">qtblend</property>
    <property name="kdenlive_ix">1</property>
    <property name="kdenlive_info"/>
    <property name="disable"/>
    <property name="rect">0=0 619 1280 720 1</property>
    <property name="rotation">0=0;346=0</property>
    <property name="compositing">0</property>
    <property name="distort">0</property>
   </filter>
  </entry>
  <blank length="80"/>
  <entry out="621" producer="5" in="427">
   <filter id="filter0">
    <property name="mlt_service">qtblend</property>
    <property name="kdenlive_id">qtblend</property>
    <property name="tag">qtblend</property>
    <property name="kdenlive_ix">1</property>
    <property name="kdenlive_info"/>
    <property name="disable"/>
    <property name="rect">0=0 619 1280 720 1</property>
    <property name="rotation">0=0;427=0;621=0</property>
    <property name="compositing">0</property>
    <property name="distort">0</property>
   </filter>
  </entry>
 </playlist>
 <playlist id="playlist4">
  <property name="kdenlive:track_name">Video 4</property>
  <entry out="346" producer="5" in="0">
   <filter id="filter1">
    <property name="mlt_service">qtblend</property>
    <property name="kdenlive_id">qtblend</property>
    <property name="tag">qtblend</property>
    <property name="kdenlive_ix">1</property>
    <property name="kdenlive_info"/>
    <property name="disable"/>
    <property name="rect">0=0 -619 1280 720 1</property>
    <property name="rotation">0=0;346=0</property>
    <property name="compositing">0</property>
    <property name="distort">0</property>
   </filter>
  </entry>
  <blank length="80"/>
  <entry out="621" producer="5" in="427">
   <filter id="filter2">
    <property name="mlt_service">qtblend</property>
    <property name="kdenlive_id">qtblend</property>
    <property name="tag">qtblend</property>
    <property name="kdenlive_ix">1</property>
    <property name="kdenlive_info"/>
    <property name="disable"/>
    <property name="rect">0=0 -619 1280 720 1</property>
    <property name="rotation">0=0;427=0;621=0</property>
    <property name="compositing">0</property>
    <property name="distort">0</property>
   </filter>
  </entry>
 </playlist>
 <playlist id="playlist5">
  <property name="kdenlive:track_name">Video 3</property>
  <entry out="288" producer="6" in="0"/>
  <entry out="57" producer="6" in="0"/>
  <blank length="80"/>
  <entry out="288" producer="6" in="138"/>
  <entry out="43" producer="6" in="0"/>
 </playlist>
 <playlist id="playlist6">
  <property name="kdenlive:track_name">Video 2</property>
  <entry out="360" producer="4" in="0"/>
 </playlist>
 <playlist id="playlist7">
  <property name="kdenlive:track_name">Video 1</property>
  <entry out="470" producer="2" in="11"/>
  <entry out="168" producer="2" in="7"/>
 </playlist>
 <tractor id="maintractor" title="Anonymous Submission" global_feed="1" out="622" in="0">
  <property name="meta.volume">1</property>
  <track producer="black_track"/>
  <track producer="playlist1" hide="video"/>
  <track producer="playlist2" hide="video"/>
  <track producer="playlist0"/>
  <track producer="playlist3" hide="both"/>
  <track producer="playlist4" hide="both"/>
  <track producer="playlist5" hide="both"/>
  <track producer="playlist6"/>
  <track producer="playlist7"/>
  <transition id="transition0">
   <property name="a_track">1</property>
   <property name="b_track">2</property>
   <property name="mlt_service">mix</property>
   <property name="always_active">1</property>
   <property name="combine">1</property>
   <property name="internal_added">237</property>
  </transition>
  <transition id="transition1">
   <property name="a_track">1</property>
   <property name="b_track">3</property>
   <property name="mlt_service">mix</property>
   <property name="always_active">1</property>
   <property name="combine">1</property>
   <property name="internal_added">237</property>
  </transition>
  <transition id="transition2">
   <property name="a_track">1</property>
   <property name="b_track">4</property>
   <property name="mlt_service">mix</property>
   <property name="always_active">1</property>
   <property name="combine">1</property>
   <property name="internal_added">237</property>
  </transition>
  <transition id="transition3">
   <property name="a_track">1</property>
   <property name="b_track">5</property>
   <property name="mlt_service">mix</property>
   <property name="always_active">1</property>
   <property name="combine">1</property>
   <property name="internal_added">237</property>
  </transition>
  <transition id="transition4">
   <property name="a_track">1</property>
   <property name="b_track">6</property>
   <property name="mlt_service">mix</property>
   <property name="always_active">1</property>
   <property name="internal_added">237</property>
   <property name="combine">1</property>
  </transition>
  <transition id="transition5">
   <property name="a_track">1</property>
   <property name="b_track">7</property>
   <property name="mlt_service">mix</property>
   <property name="always_active">1</property>
   <property name="internal_added">237</property>
   <property name="combine">1</property>
  </transition>
  <transition id="transition6">
   <property name="a_track">1</property>
   <property name="b_track">8</property>
   <property name="mlt_service">mix</property>
   <property name="always_active">1</property>
   <property name="internal_added">237</property>
   <property name="combine">1</property>
  </transition>
  <transition id="transition7" out="621">
   <property name="a_track">4</property>
   <property name="b_track">5</property>
   <property name="version">0,2</property>
   <property name="mlt_service">frei0r.addition_alpha</property>
   <property name="automatic">1</property>
   <property name="force_track">0</property>
  </transition>
  <transition id="transition8" out="621">
   <property name="a_track">4</property>
   <property name="b_track">6</property>
   <property name="version">0,2</property>
   <property name="mlt_service">frei0r.addition</property>
   <property name="automatic">1</property>
   <property name="force_track">1</property>
  </transition>
  <transition id="transition16" out="621" in="460">
   <property name="a_track">4</property>
   <property name="b_track">8</property>
   <property name="start">0/0:100%x100%</property>
   <property name="factory">loader</property>
   <property name="aligned">1</property>
   <property name="progressive">1</property>
   <property name="mlt_service">composite</property>
   <property name="automatic">1</property>
   <property name="kdenlive_id">composite</property>
   <property name="force_track">1</property>
   <property name="deinterlace">0</property>
   <property name="distort">0</property>
   <property name="fill">1</property>
   <property name="geometry">0%/0%:100%x100%:100</property>
   <property name="luma_invert">0</property>
   <property name="operator">over</property>
   <property name="softness">0</property>
   <property name="halign">centre</property>
   <property name="luma"/>
   <property name="valign">middle</property>
  </transition>
  <transition id="transition9" out="621">
   <property name="a_track">3</property>
   <property name="b_track">4</property>
   <property name="version">0,2</property>
   <property name="mlt_service">frei0r.addition_alpha</property>
   <property name="automatic">1</property>
   <property name="force_track">0</property>
  </transition>
  <transition id="transition10" out="360">
   <property name="a_track">3</property>
   <property name="b_track">7</property>
   <property name="distort">0</property>
   <property name="geometry">708/558:384x216:100</property>
   <property name="fill">1</property>
   <property name="mlt_service">affine</property>
   <property name="automatic">1</property>
   <property name="force_track">1</property>
   <property name="keyed">1</property>
   <property name="rotate_x">0</property>
   <property name="rotate_y">0</property>
   <property name="rotate_z">0</property>
   <property name="shear_x">0</property>
   <property name="shear_y">0</property>
   <property name="shear_z">0</property>
  </transition>
  <transition id="transition11" out="459">
   <property name="a_track">3</property>
   <property name="b_track">8</property>
   <property name="start">0/0:100%x100%</property>
   <property name="factory">loader</property>
   <property name="aligned">1</property>
   <property name="progressive">1</property>
   <property name="mlt_service">composite</property>
   <property name="automatic">1</property>
   <property name="kdenlive_id">composite</property>
   <property name="force_track">1</property>
   <property name="deinterlace">0</property>
   <property name="distort">0</property>
   <property name="fill">1</property>
   <property name="geometry">0%/0%:100%x100%:100</property>
   <property name="halign">centre</property>
   <property name="luma_invert">0</property>
   <property name="operator">over</property>
   <property name="softness">0</property>
   <property name="valign">middle</property>
  </transition>
 </tractor>
</mlt>
