<?xml version='1.0' encoding='utf-8'?>
<mlt title="Anonymous Submission" version="6.4.1" root="/home/nicolas/Documents/Projets Musique/Barons Freaks/COURTS METRAGES - MAIN/COURTS METRAGES/EpisodeV/télé achat/sèche cheveux" producer="main bin" LC_NUMERIC="fr_FR.UTF-8">
 <profile width="1280" frame_rate_den="1" height="720" display_aspect_num="16" display_aspect_den="9" frame_rate_num="25" colorspace="709" sample_aspect_den="1" description="HD 720p 25 fps" progressive="1" sample_aspect_num="1"/>
 <producer id="9" title="Anonymous Submission" out="574" in="0">
  <property name="length">00:00:23:00</property>
  <property name="eof">pause</property>
  <property name="resource">/home/nicolas/Documents/Projets Musique/Barons Freaks/COURTS METRAGES - MAIN/COURTS METRAGES/EpisodeV/télé achat/crème anti-âge/DSC_0056.MOV</property>
  <property name="meta.media.nb_streams">2</property>
  <property name="meta.media.0.stream.type">video</property>
  <property name="meta.media.0.stream.frame_rate">25</property>
  <property name="meta.media.0.stream.sample_aspect_ratio">0</property>
  <property name="meta.media.0.codec.width">1280</property>
  <property name="meta.media.0.codec.height">720</property>
  <property name="meta.media.0.codec.rotate">0</property>
  <property name="meta.media.0.codec.frame_rate">25</property>
  <property name="meta.media.0.codec.pix_fmt">yuvj420p</property>
  <property name="meta.media.0.codec.sample_aspect_ratio">1</property>
  <property name="meta.media.0.codec.colorspace">601</property>
  <property name="meta.media.0.codec.color_trc">4</property>
  <property name="meta.media.0.codec.name">h264</property>
  <property name="meta.media.0.codec.long_name">H.264 / AVC / MPEG-4 AVC / MPEG-4 part 10</property>
  <property name="meta.media.0.codec.bit_rate">10977883</property>
  <property name="meta.attr.0.stream.creation_time.markup">2016-11-24T17:02:37.000000Z</property>
  <property name="meta.attr.0.stream.language.markup">eng</property>
  <property name="meta.media.1.stream.type">audio</property>
  <property name="meta.media.1.codec.sample_fmt">s16</property>
  <property name="meta.media.1.codec.sample_rate">24000</property>
  <property name="meta.media.1.codec.channels">1</property>
  <property name="meta.media.1.codec.name">pcm_s16le</property>
  <property name="meta.media.1.codec.long_name">PCM signed 16-bit little-endian</property>
  <property name="meta.media.1.codec.bit_rate">384000</property>
  <property name="meta.attr.1.stream.creation_time.markup">2016-11-24T17:02:37.000000Z</property>
  <property name="meta.attr.1.stream.language.markup">eng</property>
  <property name="meta.attr.major_brand.markup">qt  </property>
  <property name="meta.attr.minor_version.markup">537331968</property>
  <property name="meta.attr.compatible_brands.markup">qt  niko</property>
  <property name="meta.attr.creation_time.markup">2016-11-24T17:02:37.000000Z</property>
  <property name="seekable">1</property>
  <property name="meta.media.sample_aspect_num">1</property>
  <property name="meta.media.sample_aspect_den">1</property>
  <property name="aspect_ratio">1</property>
  <property name="audio_index">1</property>
  <property name="video_index">0</property>
  <property name="mute_on_pause">1</property>
  <property name="mlt_service">avformat</property>
  <property name="meta.media.frame_rate_num">25</property>
  <property name="meta.media.frame_rate_den">1</property>
  <property name="meta.media.colorspace">601</property>
  <property name="meta.media.width">1280</property>
  <property name="meta.media.height">720</property>
  <property name="meta.media.top_field_first">0</property>
  <property name="meta.media.progressive">1</property>
  <property name="kdenlive:file_hash">62cb3ca4c01df4eb965ec4f97d592156</property>
  <property name="kdenlive:file_size">32665413</property>
  <property name="kdenlive:clipname">DSC_0056.MOV</property>
  <property name="global_feed">1</property>
  <property name="meta.media.color_trc">4</property>
 </producer>
 <producer id="2" title="Anonymous Submission" out="1482" in="0">
  <property name="length">1483</property>
  <property name="eof">pause</property>
  <property name="resource">/home/nicolas/Documents/Projets Musique/Barons Freaks/COURTS METRAGES - MAIN/COURTS METRAGES/Crop4tiers.png</property>
  <property name="ttl">25</property>
  <property name="aspect_ratio">1</property>
  <property name="progressive">1</property>
  <property name="seekable">1</property>
  <property name="loop">1</property>
  <property name="meta.media.width">1280</property>
  <property name="meta.media.height">720</property>
  <property name="mlt_service">pixbuf</property>
  <property name="kdenlive:file_hash">04581b16f1e0fc33991f53390ac72937</property>
  <property name="kdenlive:file_size">5410</property>
  <property name="kdenlive:clipname">Crop4tiers.png</property>
  <property name="kdenlive:duration">578</property>
  <property name="global_feed">1</property>
 </producer>
 <producer id="20" title="Anonymous Submission" out="572" in="0">
  <property name="length">00:00:22:23</property>
  <property name="eof">pause</property>
  <property name="resource">/home/nicolas/.cache/kdenlive/proxy/62cb3ca4c01df4eb965ec4f97d592156.mpg</property>
  <property name="meta.media.nb_streams">2</property>
  <property name="meta.media.0.stream.type">video</property>
  <property name="meta.media.0.stream.frame_rate">25</property>
  <property name="meta.media.0.stream.sample_aspect_ratio">0</property>
  <property name="meta.media.0.codec.width">640</property>
  <property name="meta.media.0.codec.height">360</property>
  <property name="meta.media.0.codec.rotate">0</property>
  <property name="meta.media.0.codec.frame_rate">25</property>
  <property name="meta.media.0.codec.pix_fmt">yuv420p</property>
  <property name="meta.media.0.codec.sample_aspect_ratio">1</property>
  <property name="meta.media.0.codec.colorspace">601</property>
  <property name="meta.media.0.codec.name">mpeg2video</property>
  <property name="meta.media.0.codec.long_name">MPEG-2 video</property>
  <property name="meta.media.0.codec.bit_rate">0</property>
  <property name="meta.media.1.stream.type">audio</property>
  <property name="meta.media.1.codec.sample_fmt">s16p</property>
  <property name="meta.media.1.codec.sample_rate">24000</property>
  <property name="meta.media.1.codec.channels">1</property>
  <property name="meta.media.1.codec.name">mp2</property>
  <property name="meta.media.1.codec.long_name">MP2 (MPEG audio layer 2)</property>
  <property name="meta.media.1.codec.bit_rate">128000</property>
  <property name="seekable">1</property>
  <property name="meta.media.sample_aspect_num">1</property>
  <property name="meta.media.sample_aspect_den">1</property>
  <property name="aspect_ratio">1</property>
  <property name="audio_index">1</property>
  <property name="video_index">0</property>
  <property name="mute_on_pause">1</property>
  <property name="mlt_service">avformat</property>
  <property name="meta.media.0.codec.color_trc">4</property>
  <property name="meta.attr.0.stream.creation_time.markup">2016-11-24T17:02:37.000000Z</property>
  <property name="meta.attr.0.stream.language.markup">eng</property>
  <property name="meta.attr.1.stream.creation_time.markup">2016-11-24T17:02:37.000000Z</property>
  <property name="meta.attr.1.stream.language.markup">eng</property>
  <property name="meta.attr.major_brand.markup">qt  </property>
  <property name="meta.attr.minor_version.markup">537331968</property>
  <property name="meta.attr.compatible_brands.markup">qt  niko</property>
  <property name="meta.attr.creation_time.markup">2016-11-24T17:02:37.000000Z</property>
  <property name="meta.media.frame_rate_num">25</property>
  <property name="meta.media.frame_rate_den">1</property>
  <property name="meta.media.colorspace">601</property>
  <property name="meta.media.color_trc">2</property>
  <property name="meta.media.width">640</property>
  <property name="meta.media.height">360</property>
  <property name="meta.media.top_field_first">0</property>
  <property name="meta.media.progressive">1</property>
  <property name="kdenlive:file_size">32665413</property>
  <property name="kdenlive:file_hash">62cb3ca4c01df4eb965ec4f97d592156</property>
  <property name="kdenlive:proxy">/home/nicolas/.cache/kdenlive/proxy/62cb3ca4c01df4eb965ec4f97d592156.mpg</property>
  <property name="proxy_out">572</property>
  <property name="kdenlive:originalurl">DSC_0056.MOV</property>
  <property name="global_feed">1</property>
  <property name="kdenlive:meta.media.nb_streams">2</property>
  <property name="kdenlive:meta.media.0.stream.type">video</property>
  <property name="kdenlive:meta.media.0.stream.frame_rate">25</property>
  <property name="kdenlive:meta.media.0.stream.sample_aspect_ratio">0</property>
  <property name="kdenlive:meta.media.0.codec.width">1280</property>
  <property name="kdenlive:meta.media.0.codec.height">720</property>
  <property name="kdenlive:meta.media.0.codec.rotate">0</property>
  <property name="kdenlive:meta.media.0.codec.frame_rate">25</property>
  <property name="kdenlive:meta.media.0.codec.pix_fmt">yuvj420p</property>
  <property name="kdenlive:meta.media.0.codec.sample_aspect_ratio">1</property>
  <property name="kdenlive:meta.media.0.codec.colorspace">601</property>
  <property name="kdenlive:meta.media.0.codec.color_trc">4</property>
  <property name="kdenlive:meta.media.0.codec.name">h264</property>
  <property name="kdenlive:meta.media.0.codec.long_name">H.264 / AVC / MPEG-4 AVC / MPEG-4 part 10</property>
  <property name="kdenlive:meta.media.0.codec.bit_rate">10977883</property>
  <property name="kdenlive:meta.attr.0.stream.creation_time.markup">2016-11-24T17:02:37.000000Z</property>
  <property name="kdenlive:meta.attr.0.stream.language.markup">eng</property>
  <property name="kdenlive:meta.media.1.stream.type">audio</property>
  <property name="kdenlive:meta.media.1.codec.sample_fmt">s16</property>
  <property name="kdenlive:meta.media.1.codec.sample_rate">24000</property>
  <property name="kdenlive:meta.media.1.codec.channels">1</property>
  <property name="kdenlive:meta.media.1.codec.name">pcm_s16le</property>
  <property name="kdenlive:meta.media.1.codec.long_name">PCM signed 16-bit little-endian</property>
  <property name="kdenlive:meta.media.1.codec.bit_rate">384000</property>
  <property name="kdenlive:meta.attr.1.stream.creation_time.markup">2016-11-24T17:02:37.000000Z</property>
  <property name="kdenlive:meta.attr.1.stream.language.markup">eng</property>
  <property name="kdenlive:meta.attr.major_brand.markup">qt  </property>
  <property name="kdenlive:meta.attr.minor_version.markup">537331968</property>
  <property name="kdenlive:meta.attr.compatible_brands.markup">qt  niko</property>
  <property name="kdenlive:meta.attr.creation_time.markup">2016-11-24T17:02:37.000000Z</property>
  <property name="kdenlive:meta.media.sample_aspect_num">1</property>
  <property name="kdenlive:meta.media.sample_aspect_den">1</property>
  <property name="kdenlive:meta.media.frame_rate_num">25</property>
  <property name="kdenlive:meta.media.frame_rate_den">1</property>
  <property name="kdenlive:meta.media.colorspace">601</property>
  <property name="kdenlive:meta.media.color_trc">4</property>
  <property name="kdenlive:meta.media.width">1280</property>
  <property name="kdenlive:meta.media.height">720</property>
  <property name="kdenlive:meta.media.top_field_first">0</property>
  <property name="kdenlive:meta.media.progressive">1</property>
 </producer>
 <producer id="22" title="Anonymous Submission" out="467" in="0">
  <property name="length">00:00:18:18</property>
  <property name="eof">pause</property>
  <property name="resource">/home/nicolas/.cache/kdenlive/proxy/b323822a219d530abb11238b31708704.mpg</property>
  <property name="meta.media.nb_streams">2</property>
  <property name="meta.media.0.stream.type">video</property>
  <property name="meta.media.0.stream.frame_rate">25</property>
  <property name="meta.media.0.stream.sample_aspect_ratio">0</property>
  <property name="meta.media.0.codec.width">640</property>
  <property name="meta.media.0.codec.height">360</property>
  <property name="meta.media.0.codec.rotate">0</property>
  <property name="meta.media.0.codec.frame_rate">25</property>
  <property name="meta.media.0.codec.pix_fmt">yuv420p</property>
  <property name="meta.media.0.codec.sample_aspect_ratio">1</property>
  <property name="meta.media.0.codec.colorspace">601</property>
  <property name="meta.media.0.codec.name">mpeg2video</property>
  <property name="meta.media.0.codec.long_name">MPEG-2 video</property>
  <property name="meta.media.0.codec.bit_rate">0</property>
  <property name="meta.media.1.stream.type">audio</property>
  <property name="meta.media.1.codec.sample_fmt">s16p</property>
  <property name="meta.media.1.codec.sample_rate">24000</property>
  <property name="meta.media.1.codec.channels">1</property>
  <property name="meta.media.1.codec.name">mp2</property>
  <property name="meta.media.1.codec.long_name">MP2 (MPEG audio layer 2)</property>
  <property name="meta.media.1.codec.bit_rate">128000</property>
  <property name="seekable">1</property>
  <property name="meta.media.sample_aspect_num">1</property>
  <property name="meta.media.sample_aspect_den">1</property>
  <property name="aspect_ratio">1</property>
  <property name="audio_index">1</property>
  <property name="video_index">0</property>
  <property name="mute_on_pause">1</property>
  <property name="mlt_service">avformat</property>
  <property name="meta.media.0.codec.color_trc">4</property>
  <property name="meta.attr.0.stream.creation_time.markup">2016-11-24T17:49:27.000000Z</property>
  <property name="meta.attr.0.stream.language.markup">eng</property>
  <property name="meta.attr.1.stream.creation_time.markup">2016-11-24T17:49:27.000000Z</property>
  <property name="meta.attr.1.stream.language.markup">eng</property>
  <property name="meta.attr.major_brand.markup">qt  </property>
  <property name="meta.attr.minor_version.markup">537331968</property>
  <property name="meta.attr.compatible_brands.markup">qt  niko</property>
  <property name="meta.attr.creation_time.markup">2016-11-24T17:49:27.000000Z</property>
  <property name="meta.media.frame_rate_num">25</property>
  <property name="meta.media.frame_rate_den">1</property>
  <property name="meta.media.colorspace">601</property>
  <property name="meta.media.color_trc">2</property>
  <property name="meta.media.width">640</property>
  <property name="meta.media.height">360</property>
  <property name="meta.media.top_field_first">0</property>
  <property name="meta.media.progressive">1</property>
  <property name="kdenlive:file_size">25829999</property>
  <property name="kdenlive:file_hash">b323822a219d530abb11238b31708704</property>
  <property name="kdenlive:proxy">/home/nicolas/.cache/kdenlive/proxy/b323822a219d530abb11238b31708704.mpg</property>
  <property name="proxy_out">467</property>
  <property name="kdenlive:originalurl">DSC_0065.MOV</property>
  <property name="global_feed">1</property>
  <property name="kdenlive:meta.media.nb_streams">2</property>
  <property name="kdenlive:meta.media.0.stream.type">video</property>
  <property name="kdenlive:meta.media.0.stream.frame_rate">25</property>
  <property name="kdenlive:meta.media.0.stream.sample_aspect_ratio">0</property>
  <property name="kdenlive:meta.media.0.codec.width">1280</property>
  <property name="kdenlive:meta.media.0.codec.height">720</property>
  <property name="kdenlive:meta.media.0.codec.rotate">0</property>
  <property name="kdenlive:meta.media.0.codec.frame_rate">25</property>
  <property name="kdenlive:meta.media.0.codec.pix_fmt">yuvj420p</property>
  <property name="kdenlive:meta.media.0.codec.sample_aspect_ratio">1</property>
  <property name="kdenlive:meta.media.0.codec.colorspace">601</property>
  <property name="kdenlive:meta.media.0.codec.color_trc">4</property>
  <property name="kdenlive:meta.media.0.codec.name">h264</property>
  <property name="kdenlive:meta.media.0.codec.long_name">H.264 / AVC / MPEG-4 AVC / MPEG-4 part 10</property>
  <property name="kdenlive:meta.media.0.codec.bit_rate">10606071</property>
  <property name="kdenlive:meta.attr.0.stream.creation_time.markup">2016-11-24T17:49:27.000000Z</property>
  <property name="kdenlive:meta.attr.0.stream.language.markup">eng</property>
  <property name="kdenlive:meta.media.1.stream.type">audio</property>
  <property name="kdenlive:meta.media.1.codec.sample_fmt">s16</property>
  <property name="kdenlive:meta.media.1.codec.sample_rate">24000</property>
  <property name="kdenlive:meta.media.1.codec.channels">1</property>
  <property name="kdenlive:meta.media.1.codec.name">pcm_s16le</property>
  <property name="kdenlive:meta.media.1.codec.long_name">PCM signed 16-bit little-endian</property>
  <property name="kdenlive:meta.media.1.codec.bit_rate">384000</property>
  <property name="kdenlive:meta.attr.1.stream.creation_time.markup">2016-11-24T17:49:27.000000Z</property>
  <property name="kdenlive:meta.attr.1.stream.language.markup">eng</property>
  <property name="kdenlive:meta.attr.major_brand.markup">qt  </property>
  <property name="kdenlive:meta.attr.minor_version.markup">537331968</property>
  <property name="kdenlive:meta.attr.compatible_brands.markup">qt  niko</property>
  <property name="kdenlive:meta.attr.creation_time.markup">2016-11-24T17:49:27.000000Z</property>
  <property name="kdenlive:meta.media.sample_aspect_num">1</property>
  <property name="kdenlive:meta.media.sample_aspect_den">1</property>
  <property name="kdenlive:meta.media.frame_rate_num">25</property>
  <property name="kdenlive:meta.media.frame_rate_den">1</property>
  <property name="kdenlive:meta.media.colorspace">601</property>
  <property name="kdenlive:meta.media.color_trc">4</property>
  <property name="kdenlive:meta.media.width">1280</property>
  <property name="kdenlive:meta.media.height">720</property>
  <property name="kdenlive:meta.media.top_field_first">0</property>
  <property name="kdenlive:meta.media.progressive">1</property>
 </producer>
 <producer id="23" title="Anonymous Submission" out="1154" in="0">
  <property name="length">00:00:46:05</property>
  <property name="eof">pause</property>
  <property name="resource">/home/nicolas/.cache/kdenlive/proxy/d7243af678402468a2986a5036e53bc6.mpg</property>
  <property name="meta.media.nb_streams">2</property>
  <property name="meta.media.0.stream.type">video</property>
  <property name="meta.media.0.stream.frame_rate">25</property>
  <property name="meta.media.0.stream.sample_aspect_ratio">0</property>
  <property name="meta.media.0.codec.width">640</property>
  <property name="meta.media.0.codec.height">360</property>
  <property name="meta.media.0.codec.rotate">0</property>
  <property name="meta.media.0.codec.frame_rate">25</property>
  <property name="meta.media.0.codec.pix_fmt">yuv420p</property>
  <property name="meta.media.0.codec.sample_aspect_ratio">1</property>
  <property name="meta.media.0.codec.colorspace">601</property>
  <property name="meta.media.0.codec.name">mpeg2video</property>
  <property name="meta.media.0.codec.long_name">MPEG-2 video</property>
  <property name="meta.media.0.codec.bit_rate">0</property>
  <property name="meta.media.1.stream.type">audio</property>
  <property name="meta.media.1.codec.sample_fmt">s16p</property>
  <property name="meta.media.1.codec.sample_rate">24000</property>
  <property name="meta.media.1.codec.channels">1</property>
  <property name="meta.media.1.codec.name">mp2</property>
  <property name="meta.media.1.codec.long_name">MP2 (MPEG audio layer 2)</property>
  <property name="meta.media.1.codec.bit_rate">128000</property>
  <property name="seekable">1</property>
  <property name="meta.media.sample_aspect_num">1</property>
  <property name="meta.media.sample_aspect_den">1</property>
  <property name="aspect_ratio">1</property>
  <property name="audio_index">1</property>
  <property name="video_index">0</property>
  <property name="mute_on_pause">1</property>
  <property name="mlt_service">avformat</property>
  <property name="meta.media.0.codec.color_trc">4</property>
  <property name="meta.attr.0.stream.creation_time.markup">2016-11-24T17:50:53.000000Z</property>
  <property name="meta.attr.0.stream.language.markup">eng</property>
  <property name="meta.attr.1.stream.creation_time.markup">2016-11-24T17:50:53.000000Z</property>
  <property name="meta.attr.1.stream.language.markup">eng</property>
  <property name="meta.attr.major_brand.markup">qt  </property>
  <property name="meta.attr.minor_version.markup">537331968</property>
  <property name="meta.attr.compatible_brands.markup">qt  niko</property>
  <property name="meta.attr.creation_time.markup">2016-11-24T17:50:53.000000Z</property>
  <property name="meta.media.frame_rate_num">25</property>
  <property name="meta.media.frame_rate_den">1</property>
  <property name="meta.media.colorspace">601</property>
  <property name="meta.media.color_trc">2</property>
  <property name="meta.media.width">640</property>
  <property name="meta.media.height">360</property>
  <property name="meta.media.top_field_first">0</property>
  <property name="meta.media.progressive">1</property>
  <property name="kdenlive:file_size">63002965</property>
  <property name="kdenlive:file_hash">d7243af678402468a2986a5036e53bc6</property>
  <property name="kdenlive:proxy">/home/nicolas/.cache/kdenlive/proxy/d7243af678402468a2986a5036e53bc6.mpg</property>
  <property name="proxy_out">1154</property>
  <property name="kdenlive:originalurl">DSC_0066.MOV</property>
  <property name="global_feed">1</property>
  <property name="kdenlive:meta.media.nb_streams">2</property>
  <property name="kdenlive:meta.media.0.stream.type">video</property>
  <property name="kdenlive:meta.media.0.stream.frame_rate">25</property>
  <property name="kdenlive:meta.media.0.stream.sample_aspect_ratio">0</property>
  <property name="kdenlive:meta.media.0.codec.width">1280</property>
  <property name="kdenlive:meta.media.0.codec.height">720</property>
  <property name="kdenlive:meta.media.0.codec.rotate">0</property>
  <property name="kdenlive:meta.media.0.codec.frame_rate">25</property>
  <property name="kdenlive:meta.media.0.codec.pix_fmt">yuvj420p</property>
  <property name="kdenlive:meta.media.0.codec.sample_aspect_ratio">1</property>
  <property name="kdenlive:meta.media.0.codec.colorspace">601</property>
  <property name="kdenlive:meta.media.0.codec.color_trc">4</property>
  <property name="kdenlive:meta.media.0.codec.name">h264</property>
  <property name="kdenlive:meta.media.0.codec.long_name">H.264 / AVC / MPEG-4 AVC / MPEG-4 part 10</property>
  <property name="kdenlive:meta.media.0.codec.bit_rate">10504988</property>
  <property name="kdenlive:meta.attr.0.stream.creation_time.markup">2016-11-24T17:50:53.000000Z</property>
  <property name="kdenlive:meta.attr.0.stream.language.markup">eng</property>
  <property name="kdenlive:meta.media.1.stream.type">audio</property>
  <property name="kdenlive:meta.media.1.codec.sample_fmt">s16</property>
  <property name="kdenlive:meta.media.1.codec.sample_rate">24000</property>
  <property name="kdenlive:meta.media.1.codec.channels">1</property>
  <property name="kdenlive:meta.media.1.codec.name">pcm_s16le</property>
  <property name="kdenlive:meta.media.1.codec.long_name">PCM signed 16-bit little-endian</property>
  <property name="kdenlive:meta.media.1.codec.bit_rate">384000</property>
  <property name="kdenlive:meta.attr.1.stream.creation_time.markup">2016-11-24T17:50:53.000000Z</property>
  <property name="kdenlive:meta.attr.1.stream.language.markup">eng</property>
  <property name="kdenlive:meta.attr.major_brand.markup">qt  </property>
  <property name="kdenlive:meta.attr.minor_version.markup">537331968</property>
  <property name="kdenlive:meta.attr.compatible_brands.markup">qt  niko</property>
  <property name="kdenlive:meta.attr.creation_time.markup">2016-11-24T17:50:53.000000Z</property>
  <property name="kdenlive:meta.media.sample_aspect_num">1</property>
  <property name="kdenlive:meta.media.sample_aspect_den">1</property>
  <property name="kdenlive:meta.media.frame_rate_num">25</property>
  <property name="kdenlive:meta.media.frame_rate_den">1</property>
  <property name="kdenlive:meta.media.colorspace">601</property>
  <property name="kdenlive:meta.media.color_trc">4</property>
  <property name="kdenlive:meta.media.width">1280</property>
  <property name="kdenlive:meta.media.height">720</property>
  <property name="kdenlive:meta.media.top_field_first">0</property>
  <property name="kdenlive:meta.media.progressive">1</property>
 </producer>
 <producer id="24" title="Anonymous Submission" out="704" in="0">
  <property name="length">00:00:28:05</property>
  <property name="eof">pause</property>
  <property name="resource">/home/nicolas/.cache/kdenlive/proxy/eafdf8483d5520246e6ccf2f5140a121.mpg</property>
  <property name="meta.media.nb_streams">2</property>
  <property name="meta.media.0.stream.type">video</property>
  <property name="meta.media.0.stream.frame_rate">25</property>
  <property name="meta.media.0.stream.sample_aspect_ratio">0</property>
  <property name="meta.media.0.codec.width">640</property>
  <property name="meta.media.0.codec.height">360</property>
  <property name="meta.media.0.codec.rotate">0</property>
  <property name="meta.media.0.codec.frame_rate">25</property>
  <property name="meta.media.0.codec.pix_fmt">yuv420p</property>
  <property name="meta.media.0.codec.sample_aspect_ratio">1</property>
  <property name="meta.media.0.codec.colorspace">601</property>
  <property name="meta.media.0.codec.name">mpeg2video</property>
  <property name="meta.media.0.codec.long_name">MPEG-2 video</property>
  <property name="meta.media.0.codec.bit_rate">0</property>
  <property name="meta.media.1.stream.type">audio</property>
  <property name="meta.media.1.codec.sample_fmt">s16p</property>
  <property name="meta.media.1.codec.sample_rate">24000</property>
  <property name="meta.media.1.codec.channels">1</property>
  <property name="meta.media.1.codec.name">mp2</property>
  <property name="meta.media.1.codec.long_name">MP2 (MPEG audio layer 2)</property>
  <property name="meta.media.1.codec.bit_rate">128000</property>
  <property name="seekable">1</property>
  <property name="meta.media.sample_aspect_num">1</property>
  <property name="meta.media.sample_aspect_den">1</property>
  <property name="aspect_ratio">1</property>
  <property name="audio_index">1</property>
  <property name="video_index">0</property>
  <property name="mute_on_pause">1</property>
  <property name="mlt_service">avformat</property>
  <property name="meta.media.0.codec.color_trc">4</property>
  <property name="meta.attr.0.stream.creation_time.markup">2016-11-24T17:54:17.000000Z</property>
  <property name="meta.attr.0.stream.language.markup">eng</property>
  <property name="meta.attr.1.stream.creation_time.markup">2016-11-24T17:54:17.000000Z</property>
  <property name="meta.attr.1.stream.language.markup">eng</property>
  <property name="meta.attr.major_brand.markup">qt  </property>
  <property name="meta.attr.minor_version.markup">537331968</property>
  <property name="meta.attr.compatible_brands.markup">qt  niko</property>
  <property name="meta.attr.creation_time.markup">2016-11-24T17:54:17.000000Z</property>
  <property name="meta.media.frame_rate_num">25</property>
  <property name="meta.media.frame_rate_den">1</property>
  <property name="meta.media.colorspace">601</property>
  <property name="meta.media.color_trc">2</property>
  <property name="meta.media.width">640</property>
  <property name="meta.media.height">360</property>
  <property name="meta.media.top_field_first">0</property>
  <property name="meta.media.progressive">1</property>
  <property name="kdenlive:file_size">37633471</property>
  <property name="kdenlive:file_hash">eafdf8483d5520246e6ccf2f5140a121</property>
  <property name="kdenlive:proxy">/home/nicolas/.cache/kdenlive/proxy/eafdf8483d5520246e6ccf2f5140a121.mpg</property>
  <property name="proxy_out">704</property>
  <property name="kdenlive:originalurl">DSC_0067.MOV</property>
  <property name="global_feed">1</property>
  <property name="kdenlive:meta.media.nb_streams">2</property>
  <property name="kdenlive:meta.media.0.stream.type">video</property>
  <property name="kdenlive:meta.media.0.stream.frame_rate">25</property>
  <property name="kdenlive:meta.media.0.stream.sample_aspect_ratio">0</property>
  <property name="kdenlive:meta.media.0.codec.width">1280</property>
  <property name="kdenlive:meta.media.0.codec.height">720</property>
  <property name="kdenlive:meta.media.0.codec.rotate">0</property>
  <property name="kdenlive:meta.media.0.codec.frame_rate">25</property>
  <property name="kdenlive:meta.media.0.codec.pix_fmt">yuvj420p</property>
  <property name="kdenlive:meta.media.0.codec.sample_aspect_ratio">1</property>
  <property name="kdenlive:meta.media.0.codec.colorspace">601</property>
  <property name="kdenlive:meta.media.0.codec.color_trc">4</property>
  <property name="kdenlive:meta.media.0.codec.name">h264</property>
  <property name="kdenlive:meta.media.0.codec.long_name">H.264 / AVC / MPEG-4 AVC / MPEG-4 part 10</property>
  <property name="kdenlive:meta.media.0.codec.bit_rate">10258874</property>
  <property name="kdenlive:meta.attr.0.stream.creation_time.markup">2016-11-24T17:54:17.000000Z</property>
  <property name="kdenlive:meta.attr.0.stream.language.markup">eng</property>
  <property name="kdenlive:meta.media.1.stream.type">audio</property>
  <property name="kdenlive:meta.media.1.codec.sample_fmt">s16</property>
  <property name="kdenlive:meta.media.1.codec.sample_rate">24000</property>
  <property name="kdenlive:meta.media.1.codec.channels">1</property>
  <property name="kdenlive:meta.media.1.codec.name">pcm_s16le</property>
  <property name="kdenlive:meta.media.1.codec.long_name">PCM signed 16-bit little-endian</property>
  <property name="kdenlive:meta.media.1.codec.bit_rate">384000</property>
  <property name="kdenlive:meta.attr.1.stream.creation_time.markup">2016-11-24T17:54:17.000000Z</property>
  <property name="kdenlive:meta.attr.1.stream.language.markup">eng</property>
  <property name="kdenlive:meta.attr.major_brand.markup">qt  </property>
  <property name="kdenlive:meta.attr.minor_version.markup">537331968</property>
  <property name="kdenlive:meta.attr.compatible_brands.markup">qt  niko</property>
  <property name="kdenlive:meta.attr.creation_time.markup">2016-11-24T17:54:17.000000Z</property>
  <property name="kdenlive:meta.media.sample_aspect_num">1</property>
  <property name="kdenlive:meta.media.sample_aspect_den">1</property>
  <property name="kdenlive:meta.media.frame_rate_num">25</property>
  <property name="kdenlive:meta.media.frame_rate_den">1</property>
  <property name="kdenlive:meta.media.colorspace">601</property>
  <property name="kdenlive:meta.media.color_trc">4</property>
  <property name="kdenlive:meta.media.width">1280</property>
  <property name="kdenlive:meta.media.height">720</property>
  <property name="kdenlive:meta.media.top_field_first">0</property>
  <property name="kdenlive:meta.media.progressive">1</property>
 </producer>
 <producer id="25" title="Anonymous Submission" out="410" in="0">
  <property name="length">00:00:16:11</property>
  <property name="eof">pause</property>
  <property name="resource">/home/nicolas/.cache/kdenlive/proxy/6c8c6657c93ccf27d55409c4a8d55a60.mpg</property>
  <property name="meta.media.nb_streams">2</property>
  <property name="meta.media.0.stream.type">video</property>
  <property name="meta.media.0.stream.frame_rate">25</property>
  <property name="meta.media.0.stream.sample_aspect_ratio">0</property>
  <property name="meta.media.0.codec.width">640</property>
  <property name="meta.media.0.codec.height">360</property>
  <property name="meta.media.0.codec.rotate">0</property>
  <property name="meta.media.0.codec.frame_rate">25</property>
  <property name="meta.media.0.codec.pix_fmt">yuv420p</property>
  <property name="meta.media.0.codec.sample_aspect_ratio">1</property>
  <property name="meta.media.0.codec.colorspace">601</property>
  <property name="meta.media.0.codec.name">mpeg2video</property>
  <property name="meta.media.0.codec.long_name">MPEG-2 video</property>
  <property name="meta.media.0.codec.bit_rate">0</property>
  <property name="meta.media.1.stream.type">audio</property>
  <property name="meta.media.1.codec.sample_fmt">s16p</property>
  <property name="meta.media.1.codec.sample_rate">24000</property>
  <property name="meta.media.1.codec.channels">1</property>
  <property name="meta.media.1.codec.name">mp2</property>
  <property name="meta.media.1.codec.long_name">MP2 (MPEG audio layer 2)</property>
  <property name="meta.media.1.codec.bit_rate">128000</property>
  <property name="seekable">1</property>
  <property name="meta.media.sample_aspect_num">1</property>
  <property name="meta.media.sample_aspect_den">1</property>
  <property name="aspect_ratio">1</property>
  <property name="audio_index">1</property>
  <property name="video_index">0</property>
  <property name="mute_on_pause">1</property>
  <property name="mlt_service">avformat</property>
  <property name="meta.media.0.codec.color_trc">4</property>
  <property name="meta.attr.0.stream.creation_time.markup">2016-11-24T17:55:16.000000Z</property>
  <property name="meta.attr.0.stream.language.markup">eng</property>
  <property name="meta.attr.1.stream.creation_time.markup">2016-11-24T17:55:16.000000Z</property>
  <property name="meta.attr.1.stream.language.markup">eng</property>
  <property name="meta.attr.major_brand.markup">qt  </property>
  <property name="meta.attr.minor_version.markup">537331968</property>
  <property name="meta.attr.compatible_brands.markup">qt  niko</property>
  <property name="meta.attr.creation_time.markup">2016-11-24T17:55:16.000000Z</property>
  <property name="meta.media.frame_rate_num">25</property>
  <property name="meta.media.frame_rate_den">1</property>
  <property name="meta.media.colorspace">601</property>
  <property name="meta.media.color_trc">2</property>
  <property name="meta.media.width">640</property>
  <property name="meta.media.height">360</property>
  <property name="meta.media.top_field_first">0</property>
  <property name="meta.media.progressive">1</property>
  <property name="kdenlive:file_size">22052921</property>
  <property name="kdenlive:file_hash">6c8c6657c93ccf27d55409c4a8d55a60</property>
  <property name="kdenlive:proxy">/home/nicolas/.cache/kdenlive/proxy/6c8c6657c93ccf27d55409c4a8d55a60.mpg</property>
  <property name="proxy_out">410</property>
  <property name="kdenlive:originalurl">DSC_0068.MOV</property>
  <property name="global_feed">1</property>
  <property name="kdenlive:meta.media.nb_streams">2</property>
  <property name="kdenlive:meta.media.0.stream.type">video</property>
  <property name="kdenlive:meta.media.0.stream.frame_rate">25</property>
  <property name="kdenlive:meta.media.0.stream.sample_aspect_ratio">0</property>
  <property name="kdenlive:meta.media.0.codec.width">1280</property>
  <property name="kdenlive:meta.media.0.codec.height">720</property>
  <property name="kdenlive:meta.media.0.codec.rotate">0</property>
  <property name="kdenlive:meta.media.0.codec.frame_rate">25</property>
  <property name="kdenlive:meta.media.0.codec.pix_fmt">yuvj420p</property>
  <property name="kdenlive:meta.media.0.codec.sample_aspect_ratio">1</property>
  <property name="kdenlive:meta.media.0.codec.colorspace">601</property>
  <property name="kdenlive:meta.media.0.codec.color_trc">4</property>
  <property name="kdenlive:meta.media.0.codec.name">h264</property>
  <property name="kdenlive:meta.media.0.codec.long_name">H.264 / AVC / MPEG-4 AVC / MPEG-4 part 10</property>
  <property name="kdenlive:meta.media.0.codec.bit_rate">10291807</property>
  <property name="kdenlive:meta.attr.0.stream.creation_time.markup">2016-11-24T17:55:16.000000Z</property>
  <property name="kdenlive:meta.attr.0.stream.language.markup">eng</property>
  <property name="kdenlive:meta.media.1.stream.type">audio</property>
  <property name="kdenlive:meta.media.1.codec.sample_fmt">s16</property>
  <property name="kdenlive:meta.media.1.codec.sample_rate">24000</property>
  <property name="kdenlive:meta.media.1.codec.channels">1</property>
  <property name="kdenlive:meta.media.1.codec.name">pcm_s16le</property>
  <property name="kdenlive:meta.media.1.codec.long_name">PCM signed 16-bit little-endian</property>
  <property name="kdenlive:meta.media.1.codec.bit_rate">384000</property>
  <property name="kdenlive:meta.attr.1.stream.creation_time.markup">2016-11-24T17:55:16.000000Z</property>
  <property name="kdenlive:meta.attr.1.stream.language.markup">eng</property>
  <property name="kdenlive:meta.attr.major_brand.markup">qt  </property>
  <property name="kdenlive:meta.attr.minor_version.markup">537331968</property>
  <property name="kdenlive:meta.attr.compatible_brands.markup">qt  niko</property>
  <property name="kdenlive:meta.attr.creation_time.markup">2016-11-24T17:55:16.000000Z</property>
  <property name="kdenlive:meta.media.sample_aspect_num">1</property>
  <property name="kdenlive:meta.media.sample_aspect_den">1</property>
  <property name="kdenlive:meta.media.frame_rate_num">25</property>
  <property name="kdenlive:meta.media.frame_rate_den">1</property>
  <property name="kdenlive:meta.media.colorspace">601</property>
  <property name="kdenlive:meta.media.color_trc">4</property>
  <property name="kdenlive:meta.media.width">1280</property>
  <property name="kdenlive:meta.media.height">720</property>
  <property name="kdenlive:meta.media.top_field_first">0</property>
  <property name="kdenlive:meta.media.progressive">1</property>
 </producer>
 <producer id="21" title="Anonymous Submission" out="3374" in="0">
  <property name="length">00:02:15:00</property>
  <property name="eof">pause</property>
  <property name="resource">/home/nicolas/.cache/kdenlive/proxy/1e304e1d18552d83e2a655fc998201b7.mpg</property>
  <property name="meta.media.nb_streams">2</property>
  <property name="meta.media.0.stream.type">video</property>
  <property name="meta.media.0.stream.frame_rate">25</property>
  <property name="meta.media.0.stream.sample_aspect_ratio">0</property>
  <property name="meta.media.0.codec.width">640</property>
  <property name="meta.media.0.codec.height">360</property>
  <property name="meta.media.0.codec.rotate">0</property>
  <property name="meta.media.0.codec.frame_rate">25</property>
  <property name="meta.media.0.codec.pix_fmt">yuv420p</property>
  <property name="meta.media.0.codec.sample_aspect_ratio">1</property>
  <property name="meta.media.0.codec.colorspace">601</property>
  <property name="meta.media.0.codec.name">mpeg2video</property>
  <property name="meta.media.0.codec.long_name">MPEG-2 video</property>
  <property name="meta.media.0.codec.bit_rate">0</property>
  <property name="meta.media.1.stream.type">audio</property>
  <property name="meta.media.1.codec.sample_fmt">s16p</property>
  <property name="meta.media.1.codec.sample_rate">24000</property>
  <property name="meta.media.1.codec.channels">1</property>
  <property name="meta.media.1.codec.name">mp2</property>
  <property name="meta.media.1.codec.long_name">MP2 (MPEG audio layer 2)</property>
  <property name="meta.media.1.codec.bit_rate">128000</property>
  <property name="seekable">1</property>
  <property name="meta.media.sample_aspect_num">1</property>
  <property name="meta.media.sample_aspect_den">1</property>
  <property name="aspect_ratio">1</property>
  <property name="audio_index">1</property>
  <property name="video_index">0</property>
  <property name="mute_on_pause">1</property>
  <property name="mlt_service">avformat</property>
  <property name="meta.media.0.codec.color_trc">4</property>
  <property name="meta.attr.0.stream.creation_time.markup">2016-11-24T17:47:02.000000Z</property>
  <property name="meta.attr.0.stream.language.markup">eng</property>
  <property name="meta.attr.1.stream.creation_time.markup">2016-11-24T17:47:02.000000Z</property>
  <property name="meta.attr.1.stream.language.markup">eng</property>
  <property name="meta.attr.major_brand.markup">qt  </property>
  <property name="meta.attr.minor_version.markup">537331968</property>
  <property name="meta.attr.compatible_brands.markup">qt  niko</property>
  <property name="meta.attr.creation_time.markup">2016-11-24T17:47:02.000000Z</property>
  <property name="meta.media.frame_rate_num">25</property>
  <property name="meta.media.frame_rate_den">1</property>
  <property name="meta.media.colorspace">601</property>
  <property name="meta.media.color_trc">2</property>
  <property name="meta.media.width">640</property>
  <property name="meta.media.height">360</property>
  <property name="meta.media.top_field_first">0</property>
  <property name="meta.media.progressive">1</property>
  <property name="kdenlive:file_size">181206408</property>
  <property name="kdenlive:file_hash">1e304e1d18552d83e2a655fc998201b7</property>
  <property name="kdenlive:proxy">/home/nicolas/.cache/kdenlive/proxy/1e304e1d18552d83e2a655fc998201b7.mpg</property>
  <property name="proxy_out">3374</property>
  <property name="kdenlive:originalurl">DSC_0064.MOV</property>
  <property name="global_feed">1</property>
  <property name="kdenlive:meta.media.nb_streams">2</property>
  <property name="kdenlive:meta.media.0.stream.type">video</property>
  <property name="kdenlive:meta.media.0.stream.frame_rate">25</property>
  <property name="kdenlive:meta.media.0.stream.sample_aspect_ratio">0</property>
  <property name="kdenlive:meta.media.0.codec.width">1280</property>
  <property name="kdenlive:meta.media.0.codec.height">720</property>
  <property name="kdenlive:meta.media.0.codec.rotate">0</property>
  <property name="kdenlive:meta.media.0.codec.frame_rate">25</property>
  <property name="kdenlive:meta.media.0.codec.pix_fmt">yuvj420p</property>
  <property name="kdenlive:meta.media.0.codec.sample_aspect_ratio">1</property>
  <property name="kdenlive:meta.media.0.codec.colorspace">601</property>
  <property name="kdenlive:meta.media.0.codec.color_trc">4</property>
  <property name="kdenlive:meta.media.0.codec.name">h264</property>
  <property name="kdenlive:meta.media.0.codec.long_name">H.264 / AVC / MPEG-4 AVC / MPEG-4 part 10</property>
  <property name="kdenlive:meta.media.0.codec.bit_rate">10345736</property>
  <property name="kdenlive:meta.attr.0.stream.creation_time.markup">2016-11-24T17:47:02.000000Z</property>
  <property name="kdenlive:meta.attr.0.stream.language.markup">eng</property>
  <property name="kdenlive:meta.media.1.stream.type">audio</property>
  <property name="kdenlive:meta.media.1.codec.sample_fmt">s16</property>
  <property name="kdenlive:meta.media.1.codec.sample_rate">24000</property>
  <property name="kdenlive:meta.media.1.codec.channels">1</property>
  <property name="kdenlive:meta.media.1.codec.name">pcm_s16le</property>
  <property name="kdenlive:meta.media.1.codec.long_name">PCM signed 16-bit little-endian</property>
  <property name="kdenlive:meta.media.1.codec.bit_rate">384000</property>
  <property name="kdenlive:meta.attr.1.stream.creation_time.markup">2016-11-24T17:47:02.000000Z</property>
  <property name="kdenlive:meta.attr.1.stream.language.markup">eng</property>
  <property name="kdenlive:meta.attr.major_brand.markup">qt  </property>
  <property name="kdenlive:meta.attr.minor_version.markup">537331968</property>
  <property name="kdenlive:meta.attr.compatible_brands.markup">qt  niko</property>
  <property name="kdenlive:meta.attr.creation_time.markup">2016-11-24T17:47:02.000000Z</property>
  <property name="kdenlive:meta.media.sample_aspect_num">1</property>
  <property name="kdenlive:meta.media.sample_aspect_den">1</property>
  <property name="kdenlive:meta.media.frame_rate_num">25</property>
  <property name="kdenlive:meta.media.frame_rate_den">1</property>
  <property name="kdenlive:meta.media.colorspace">601</property>
  <property name="kdenlive:meta.media.color_trc">4</property>
  <property name="kdenlive:meta.media.width">1280</property>
  <property name="kdenlive:meta.media.height">720</property>
  <property name="kdenlive:meta.media.top_field_first">0</property>
  <property name="kdenlive:meta.media.progressive">1</property>
 </producer>
 <producer id="26" out="304" in="0">
  <property name="length">305</property>
  <property name="eof">pause</property>
  <property name="resource">buzz chauve.png</property>
  <property name="ttl">25</property>
  <property name="aspect_ratio">1</property>
  <property name="progressive">1</property>
  <property name="seekable">1</property>
  <property name="loop">1</property>
  <property name="meta.media.width">239</property>
  <property name="meta.media.height">252</property>
  <property name="mlt_service">pixbuf</property>
  <property name="kdenlive:duration">125</property>
  <property name="kdenlive:file_size">23722</property>
  <property name="kdenlive:file_hash">37d9129607b971cf912e06b2ce111e51</property>
 </producer>
 <producer id="27" out="337" in="0">
  <property name="length">338</property>
  <property name="eof">pause</property>
  <property name="resource">0xffffffff</property>
  <property name="aspect_ratio">1</property>
  <property name="mlt_service">color</property>
  <property name="kdenlive:clipname">Color Clip</property>
  <property name="kdenlive:folderid">-1</property>
  <property name="kdenlive:duration">125</property>
  <property name="kdenlive:file_hash">039b56a692cd66eefeea44a17539e5a2</property>
 </producer>
 <producer id="29" out="210" in="0">
  <property name="length">211</property>
  <property name="eof">pause</property>
  <property name="resource">buzz.png</property>
  <property name="ttl">25</property>
  <property name="aspect_ratio">1</property>
  <property name="progressive">1</property>
  <property name="seekable">1</property>
  <property name="loop">1</property>
  <property name="meta.media.width">224</property>
  <property name="meta.media.height">170</property>
  <property name="mlt_service">pixbuf</property>
  <property name="kdenlive:duration">125</property>
  <property name="kdenlive:file_size">42658</property>
  <property name="kdenlive:file_hash">a74b8d4b8a12cfd19c3beaddc3845f2e</property>
 </producer>
 <producer id="30" title="Anonymous Submission" out="170" in="0">
  <property name="length">171</property>
  <property name="eof">pause</property>
  <property name="resource">render anim/.all.png</property>
  <property name="ttl">1</property>
  <property name="aspect_ratio">1</property>
  <property name="progressive">1</property>
  <property name="seekable">1</property>
  <property name="loop">0</property>
  <property name="meta.media.width">1280</property>
  <property name="meta.media.height">720</property>
  <property name="mlt_service">pixbuf</property>
  <property name="animation"/>
  <property name="crop">0</property>
  <property name="fade">0</property>
  <property name="kdenlive:clipname">Slideshow Clip</property>
  <property name="kdenlive:folderid">-1</property>
  <property name="luma_duration">25</property>
  <property name="luma_file"/>
  <property name="softness">0</property>
  <property name="kdenlive:duration">171</property>
  <property name="kdenlive:file_hash">dabae85b7e62f2498db11894753efbd7</property>
  <property name="global_feed">1</property>
 </producer>
 <producer id="31" out="174" in="0">
  <property name="length">175</property>
  <property name="eof">pause</property>
  <property name="resource">0xffffffff</property>
  <property name="aspect_ratio">1</property>
  <property name="mlt_service">color</property>
  <property name="kdenlive:clipname">Color Clip</property>
  <property name="kdenlive:folderid">-1</property>
  <property name="kdenlive:duration">125</property>
  <property name="kdenlive:file_hash">039b56a692cd66eefeea44a17539e5a2</property>
 </producer>
 <producer id="33" title="Anonymous Submission" out="201" in="0">
  <property name="length">202</property>
  <property name="eof">pause</property>
  <property name="resource">render spark/.all.png</property>
  <property name="ttl">1</property>
  <property name="aspect_ratio">1</property>
  <property name="progressive">1</property>
  <property name="seekable">1</property>
  <property name="loop">1</property>
  <property name="meta.media.width">390</property>
  <property name="meta.media.height">281</property>
  <property name="mlt_service">pixbuf</property>
  <property name="animation"/>
  <property name="crop">0</property>
  <property name="fade">0</property>
  <property name="kdenlive:clipname">Slideshow Clip</property>
  <property name="kdenlive:folderid">-1</property>
  <property name="luma_duration">25</property>
  <property name="luma_file"/>
  <property name="softness">0</property>
  <property name="kdenlive:duration">18</property>
  <property name="kdenlive:file_hash">bf42d7380b98228ef9d66d708f9d850b</property>
  <property name="global_feed">1</property>
 </producer>
 <producer id="34" title="Anonymous Submission" out="1236" in="0">
  <property name="length">1237</property>
  <property name="eof">pause</property>
  <property name="resource">/home/nicolas/Documents/Projets Musique/Barons Freaks/COURTS METRAGES - MAIN/COURTS METRAGES/EpisodeV/télé achat/panneau vierge détouré.png</property>
  <property name="ttl">25</property>
  <property name="aspect_ratio">1</property>
  <property name="progressive">1</property>
  <property name="seekable">1</property>
  <property name="loop">1</property>
  <property name="meta.media.width">1280</property>
  <property name="meta.media.height">800</property>
  <property name="mlt_service">pixbuf</property>
  <property name="kdenlive:duration">125</property>
  <property name="kdenlive:file_size">187710</property>
  <property name="kdenlive:file_hash">a8f795d98fa2402de6ed69f414d0e104</property>
  <property name="global_feed">1</property>
 </producer>
 <playlist id="main bin">
  <property name="kdenlive:documentnotes"/>
  <property name="kdenlive:clipgroups"/>
  <property name="kdenlive:customeffects"/>
  <property name="kdenlive:docproperties.version">0.95</property>
  <property name="kdenlive:docproperties.projectfolder">/home/nicolas/kdenlive</property>
  <property name="kdenlive:docproperties.documentid">1506000076337</property>
  <property name="kdenlive:docproperties.audiotargettrack">-1</property>
  <property name="kdenlive:docproperties.decimalPoint">,</property>
  <property name="kdenlive:docproperties.dirtypreviewchunks"/>
  <property name="kdenlive:docproperties.disablepreview">0</property>
  <property name="kdenlive:docproperties.enableproxy">1</property>
  <property name="kdenlive:docproperties.generateimageproxy">1</property>
  <property name="kdenlive:docproperties.generateproxy">1</property>
  <property name="kdenlive:docproperties.kdenliveversion">16.12.2</property>
  <property name="kdenlive:docproperties.position">1080</property>
  <property name="kdenlive:docproperties.previewchunks"/>
  <property name="kdenlive:docproperties.previewextension"/>
  <property name="kdenlive:docproperties.previewparameters"/>
  <property name="kdenlive:docproperties.profile">atsc_720p_25</property>
  <property name="kdenlive:docproperties.proxyextension">mpg</property>
  <property name="kdenlive:docproperties.proxyimageminsize">2000</property>
  <property name="kdenlive:docproperties.proxyminsize">1000</property>
  <property name="kdenlive:docproperties.proxyparams">-vf scale=640:-1 -g 5 -qscale 6 -ab 128k -vcodec mpeg2video -acodec mp2</property>
  <property name="kdenlive:docproperties.verticalzoom">0</property>
  <property name="kdenlive:docproperties.videotargettrack">-1</property>
  <property name="kdenlive:docproperties.zonein">0</property>
  <property name="kdenlive:docproperties.zoneout">100</property>
  <property name="kdenlive:docproperties.zoom">5</property>
  <property name="kdenlive:docproperties.renderaudioquality">192</property>
  <property name="kdenlive:docproperties.rendercategory">Generic (HD for web, mobile devices...)</property>
  <property name="kdenlive:docproperties.renderendguide">-1</property>
  <property name="kdenlive:docproperties.renderexportaudio">0</property>
  <property name="kdenlive:docproperties.renderguide">0</property>
  <property name="kdenlive:docproperties.renderplay">0</property>
  <property name="kdenlive:docproperties.renderprofile">MP4 - the dominating format (H264/AAC)</property>
  <property name="kdenlive:docproperties.renderquality">15</property>
  <property name="kdenlive:docproperties.renderratio">1</property>
  <property name="kdenlive:docproperties.renderrescale">0</property>
  <property name="kdenlive:docproperties.renderrescaleheight">180</property>
  <property name="kdenlive:docproperties.renderrescalewidth">320</property>
  <property name="kdenlive:docproperties.renderscanning">0</property>
  <property name="kdenlive:docproperties.renderspeed">2</property>
  <property name="kdenlive:docproperties.renderstartguide">-1</property>
  <property name="kdenlive:docproperties.rendertcoverlay">0</property>
  <property name="kdenlive:docproperties.rendertctype">0</property>
  <property name="kdenlive:docproperties.rendertwopass">0</property>
  <property name="kdenlive:docproperties.renderurl">/home/nicolas/Documents/Projets Musique/Barons Freaks/COURTS METRAGES - MAIN/COURTS METRAGES/EpisodeV/render seche cheveux.mp4</property>
  <property name="kdenlive:docproperties.renderzone">0</property>
  <property name="xml_retain">1</property>
  <blank length="108"/>
  <entry out="574" producer="9" in="0"/>
  <entry out="124" producer="2" in="0"/>
  <entry out="572" producer="20" in="0"/>
  <entry out="467" producer="22" in="0"/>
  <entry out="1154" producer="23" in="0"/>
  <entry out="704" producer="24" in="0"/>
  <entry out="410" producer="25" in="0"/>
  <entry out="3374" producer="21" in="0"/>
  <entry out="124" producer="26" in="0"/>
  <entry out="124" producer="27" in="0"/>
  <entry out="124" producer="29" in="0"/>
  <entry out="170" producer="30" in="0"/>
  <entry out="124" producer="31" in="0"/>
  <entry out="17" producer="33" in="0"/>
  <entry out="1236" producer="34" in="0"/>
 </playlist>
 <producer id="black" out="500" in="0">
  <property name="length">15000</property>
  <property name="eof">pause</property>
  <property name="resource">black</property>
  <property name="aspect_ratio">0</property>
  <property name="mlt_service">colour</property>
  <property name="set.test_audio">0</property>
 </producer>
 <playlist id="black_track">
  <entry out="1236" producer="black" in="0"/>
 </playlist>
 <producer id="23_playlist0" title="Anonymous Submission" out="1154" in="0">
  <property name="length">00:00:46:05</property>
  <property name="eof">pause</property>
  <property name="resource">/home/nicolas/.cache/kdenlive/proxy/d7243af678402468a2986a5036e53bc6.mpg</property>
  <property name="meta.media.nb_streams">2</property>
  <property name="meta.media.0.stream.type">video</property>
  <property name="meta.media.0.stream.frame_rate">25</property>
  <property name="meta.media.0.stream.sample_aspect_ratio">0</property>
  <property name="meta.media.0.codec.width">640</property>
  <property name="meta.media.0.codec.height">360</property>
  <property name="meta.media.0.codec.rotate">0</property>
  <property name="meta.media.0.codec.frame_rate">25</property>
  <property name="meta.media.0.codec.pix_fmt">yuv420p</property>
  <property name="meta.media.0.codec.sample_aspect_ratio">1</property>
  <property name="meta.media.0.codec.colorspace">601</property>
  <property name="meta.media.0.codec.name">mpeg2video</property>
  <property name="meta.media.0.codec.long_name">MPEG-2 video</property>
  <property name="meta.media.0.codec.bit_rate">0</property>
  <property name="meta.media.1.stream.type">audio</property>
  <property name="meta.media.1.codec.sample_fmt">s16p</property>
  <property name="meta.media.1.codec.sample_rate">24000</property>
  <property name="meta.media.1.codec.channels">1</property>
  <property name="meta.media.1.codec.name">mp2</property>
  <property name="meta.media.1.codec.long_name">MP2 (MPEG audio layer 2)</property>
  <property name="meta.media.1.codec.bit_rate">128000</property>
  <property name="seekable">1</property>
  <property name="meta.media.sample_aspect_num">1</property>
  <property name="meta.media.sample_aspect_den">1</property>
  <property name="aspect_ratio">1</property>
  <property name="audio_index">1</property>
  <property name="video_index">0</property>
  <property name="mute_on_pause">1</property>
  <property name="mlt_service">avformat</property>
  <property name="kdenlive:file_size">63002965</property>
  <property name="kdenlive:file_hash">d7243af678402468a2986a5036e53bc6</property>
  <property name="kdenlive:proxy">/home/nicolas/.cache/kdenlive/proxy/d7243af678402468a2986a5036e53bc6.mpg</property>
  <property name="proxy_out">1154</property>
  <property name="kdenlive:originalurl">DSC_0066.MOV</property>
  <property name="global_feed">1</property>
  <property name="kdenlive:meta.media.nb_streams">2</property>
  <property name="kdenlive:meta.media.0.stream.type">video</property>
  <property name="kdenlive:meta.media.0.stream.frame_rate">25</property>
  <property name="kdenlive:meta.media.0.stream.sample_aspect_ratio">0</property>
  <property name="kdenlive:meta.media.0.codec.width">1280</property>
  <property name="kdenlive:meta.media.0.codec.height">720</property>
  <property name="kdenlive:meta.media.0.codec.rotate">0</property>
  <property name="kdenlive:meta.media.0.codec.frame_rate">25</property>
  <property name="kdenlive:meta.media.0.codec.pix_fmt">yuvj420p</property>
  <property name="kdenlive:meta.media.0.codec.sample_aspect_ratio">1</property>
  <property name="kdenlive:meta.media.0.codec.colorspace">601</property>
  <property name="kdenlive:meta.media.0.codec.color_trc">4</property>
  <property name="kdenlive:meta.media.0.codec.name">h264</property>
  <property name="kdenlive:meta.media.0.codec.long_name">H.264 / AVC / MPEG-4 AVC / MPEG-4 part 10</property>
  <property name="kdenlive:meta.media.0.codec.bit_rate">10504988</property>
  <property name="kdenlive:meta.attr.0.stream.creation_time.markup">2016-11-24T17:50:53.000000Z</property>
  <property name="kdenlive:meta.attr.0.stream.language.markup">eng</property>
  <property name="kdenlive:meta.media.1.stream.type">audio</property>
  <property name="kdenlive:meta.media.1.codec.sample_fmt">s16</property>
  <property name="kdenlive:meta.media.1.codec.sample_rate">24000</property>
  <property name="kdenlive:meta.media.1.codec.channels">1</property>
  <property name="kdenlive:meta.media.1.codec.name">pcm_s16le</property>
  <property name="kdenlive:meta.media.1.codec.long_name">PCM signed 16-bit little-endian</property>
  <property name="kdenlive:meta.media.1.codec.bit_rate">384000</property>
  <property name="kdenlive:meta.attr.1.stream.creation_time.markup">2016-11-24T17:50:53.000000Z</property>
  <property name="kdenlive:meta.attr.1.stream.language.markup">eng</property>
  <property name="kdenlive:meta.attr.major_brand.markup">qt  </property>
  <property name="kdenlive:meta.attr.minor_version.markup">537331968</property>
  <property name="kdenlive:meta.attr.compatible_brands.markup">qt  niko</property>
  <property name="kdenlive:meta.attr.creation_time.markup">2016-11-24T17:50:53.000000Z</property>
  <property name="kdenlive:meta.media.sample_aspect_num">1</property>
  <property name="kdenlive:meta.media.sample_aspect_den">1</property>
  <property name="kdenlive:meta.media.frame_rate_num">25</property>
  <property name="kdenlive:meta.media.frame_rate_den">1</property>
  <property name="kdenlive:meta.media.colorspace">601</property>
  <property name="kdenlive:meta.media.color_trc">4</property>
  <property name="kdenlive:meta.media.width">1280</property>
  <property name="kdenlive:meta.media.height">720</property>
  <property name="kdenlive:meta.media.top_field_first">0</property>
  <property name="kdenlive:meta.media.progressive">1</property>
  <property name="xml">was here</property>
  <property name="meta.media.frame_rate_num">25</property>
  <property name="meta.media.frame_rate_den">1</property>
  <property name="meta.media.colorspace">601</property>
  <property name="meta.media.color_trc">2</property>
  <property name="meta.media.width">640</property>
  <property name="meta.media.height">360</property>
  <property name="meta.media.top_field_first">0</property>
  <property name="meta.media.progressive">1</property>
 </producer>
 <producer id="9_playlist0" title="Anonymous Submission" out="574" in="0">
  <property name="length">575</property>
  <property name="eof">pause</property>
  <property name="resource">/home/nicolas/Documents/Projets Musique/Barons Freaks/COURTS METRAGES - MAIN/COURTS METRAGES/EpisodeV/télé achat/crème anti-âge/DSC_0056.MOV</property>
  <property name="meta.media.nb_streams">2</property>
  <property name="meta.media.0.stream.type">video</property>
  <property name="meta.media.0.stream.frame_rate">25</property>
  <property name="meta.media.0.stream.sample_aspect_ratio">0</property>
  <property name="meta.media.0.codec.width">1280</property>
  <property name="meta.media.0.codec.height">720</property>
  <property name="meta.media.0.codec.rotate">0</property>
  <property name="meta.media.0.codec.frame_rate">25</property>
  <property name="meta.media.0.codec.pix_fmt">yuvj420p</property>
  <property name="meta.media.0.codec.sample_aspect_ratio">1</property>
  <property name="meta.media.0.codec.colorspace">601</property>
  <property name="meta.media.0.codec.color_trc">4</property>
  <property name="meta.media.0.codec.name">h264</property>
  <property name="meta.media.0.codec.long_name">H.264 / AVC / MPEG-4 AVC / MPEG-4 part 10</property>
  <property name="meta.media.0.codec.bit_rate">10977883</property>
  <property name="meta.attr.0.stream.creation_time.markup">2016-11-24T17:02:37.000000Z</property>
  <property name="meta.attr.0.stream.language.markup">eng</property>
  <property name="meta.media.1.stream.type">audio</property>
  <property name="meta.media.1.codec.sample_fmt">s16</property>
  <property name="meta.media.1.codec.sample_rate">24000</property>
  <property name="meta.media.1.codec.channels">1</property>
  <property name="meta.media.1.codec.name">pcm_s16le</property>
  <property name="meta.media.1.codec.long_name">PCM signed 16-bit little-endian</property>
  <property name="meta.media.1.codec.bit_rate">384000</property>
  <property name="meta.attr.1.stream.creation_time.markup">2016-11-24T17:02:37.000000Z</property>
  <property name="meta.attr.1.stream.language.markup">eng</property>
  <property name="meta.attr.major_brand.markup">qt  </property>
  <property name="meta.attr.minor_version.markup">537331968</property>
  <property name="meta.attr.compatible_brands.markup">qt  niko</property>
  <property name="meta.attr.creation_time.markup">2016-11-24T17:02:37.000000Z</property>
  <property name="seekable">1</property>
  <property name="meta.media.sample_aspect_num">1</property>
  <property name="meta.media.sample_aspect_den">1</property>
  <property name="aspect_ratio">1</property>
  <property name="audio_index">1</property>
  <property name="video_index">0</property>
  <property name="mute_on_pause">1</property>
  <property name="mlt_service">avformat</property>
  <property name="global_feed">1</property>
  <property name="xml">was here</property>
  <property name="meta.media.frame_rate_num">25</property>
  <property name="meta.media.frame_rate_den">1</property>
  <property name="meta.media.colorspace">601</property>
  <property name="meta.media.color_trc">4</property>
  <property name="meta.media.width">1280</property>
  <property name="meta.media.height">720</property>
  <property name="meta.media.top_field_first">0</property>
  <property name="meta.media.progressive">1</property>
 </producer>
 <playlist id="playlist0">
  <property name="kdenlive:track_name">Video 6</property>
  <entry out="625" producer="23_playlist0" in="0">
   <filter id="pan_zoom" out="625">
    <property name="background">colour:0x00000000</property>
    <property name="mlt_service">affine</property>
    <property name="kdenlive_id">pan_zoom</property>
    <property name="tag">affine</property>
    <property name="kdenlive_ix">1</property>
    <property name="transition.geometry">158/78:1024x576:100</property>
    <property name="transition.distort">0</property>
    <property name="kdenlive:sync_in_out">1</property>
    <property name="kdenlive_info"/>
   </filter>
  </entry>
  <entry out="171" producer="31" in="0"/>
  <entry out="1003" producer="23_playlist0" in="607">
   <filter id="filter0" out="1003" in="607">
    <property name="background">colour:0x00000000</property>
    <property name="mlt_service">affine</property>
    <property name="kdenlive_id">pan_zoom</property>
    <property name="tag">affine</property>
    <property name="kdenlive_ix">1</property>
    <property name="transition.geometry">0=158/78:1024x576:100;93=158/78:1024x576:100;143=57/78:1024x576:100</property>
    <property name="transition.distort">0</property>
    <property name="kdenlive:sync_in_out">1</property>
    <property name="kdenlive_info"/>
   </filter>
  </entry>
  <entry out="388" producer="9_playlist0" in="348"/>
 </playlist>
 <playlist id="playlist3">
  <property name="kdenlive:track_name">Video 5</property>
  <blank length="891"/>
  <entry out="303" producer="27" in="0">
   <filter id="frei0r.scale0tilt">
    <property name="version">0,1</property>
    <property name="mlt_service">frei0r.scale0tilt</property>
    <property name="kdenlive_id">frei0r.scale0tilt</property>
    <property name="tag">frei0r.scale0tilt</property>
    <property name="kdenlive_ix">1</property>
    <property name="Clip left">0,266406</property>
    <property name="Clip right">0,235156</property>
    <property name="Clip top">0</property>
    <property name="Clip bottom">0,00694444</property>
    <property name="Scale X">0,5</property>
    <property name="Scale Y">0,5</property>
    <property name="Tilt X">0,5</property>
    <property name="Tilt Y">0,5</property>
    <property name="kdenlive_info"/>
   </filter>
  </entry>
 </playlist>
 <playlist id="playlist4">
  <property name="kdenlive:track_name">Video 4</property>
  <blank length="985"/>
  <entry out="209" producer="29" in="0"/>
 </playlist>
 <playlist id="playlist5">
  <property name="kdenlive:track_name">Video 3</property>
  <blank length="626"/>
  <entry out="170" producer="30" in="0">
   <filter id="filter1" out="170">
    <property name="background">colour:0x00000000</property>
    <property name="mlt_service">affine</property>
    <property name="kdenlive_id">pan_zoom</property>
    <property name="tag">affine</property>
    <property name="kdenlive_ix">1</property>
    <property name="transition.geometry">127/51:1024x576:100</property>
    <property name="transition.distort">0</property>
    <property name="kdenlive:sync_in_out">1</property>
    <property name="kdenlive_info"/>
    <property name="disable"/>
   </filter>
  </entry>
  <blank length="94"/>
  <entry out="303" producer="26" in="0"/>
 </playlist>
 <playlist id="playlist6">
  <property name="kdenlive:track_name">Video 2</property>
  <blank length="985"/>
  <entry out="200" producer="33" in="0">
   <filter id="filter2">
    <property name="version">0,1</property>
    <property name="mlt_service">frei0r.scale0tilt</property>
    <property name="kdenlive_id">frei0r.scale0tilt</property>
    <property name="tag">frei0r.scale0tilt</property>
    <property name="kdenlive_ix">1</property>
    <property name="Clip left">0</property>
    <property name="Clip right">0,167969</property>
    <property name="Clip top">0</property>
    <property name="Clip bottom">0</property>
    <property name="Scale X">0,5</property>
    <property name="Scale Y">0,5</property>
    <property name="Tilt X">0,5</property>
    <property name="Tilt Y">0,5</property>
    <property name="kdenlive_info">1/-1/</property>
   </filter>
   <filter id="filter3" out="200">
    <property name="background">colour:0x00000000</property>
    <property name="mlt_service">affine</property>
    <property name="kdenlive_id">pan_zoom</property>
    <property name="tag">affine</property>
    <property name="kdenlive_ix">2</property>
    <property name="transition.geometry">105/97:640x360:100</property>
    <property name="transition.distort">0</property>
    <property name="kdenlive:sync_in_out">1</property>
    <property name="kdenlive_info">1/-1/</property>
    <property name="disable"/>
   </filter>
   <filter id="affinerotate">
    <property name="background">colour:0x00000000</property>
    <property name="mlt_service">affine</property>
    <property name="kdenlive_id">affinerotate</property>
    <property name="tag">affine</property>
    <property name="kdenlive_ix">3</property>
    <property name="transition.rotate_x">0=74,7</property>
    <property name="transition.rotate_y">0=0</property>
    <property name="transition.rotate_z">0=0</property>
    <property name="transition.ox">0=0</property>
    <property name="transition.oy">0=0</property>
    <property name="transition.keyed">1</property>
    <property name="transition.always_active">1</property>
    <property name="kdenlive_info">1/-1/</property>
   </filter>
   <filter id="fade_to_black" out="200" in="170">
    <property name="start">1</property>
    <property name="mlt_service">brightness</property>
    <property name="kdenlive_id">fade_to_black</property>
    <property name="tag">brightness</property>
    <property name="kdenlive_ix">4</property>
    <property name="end">0</property>
   </filter>
   <filter id="fade_from_black" out="20">
    <property name="start">0</property>
    <property name="mlt_service">brightness</property>
    <property name="kdenlive_id">fade_from_black</property>
    <property name="tag">brightness</property>
    <property name="kdenlive_ix">5</property>
    <property name="end">1</property>
   </filter>
  </entry>
 </playlist>
 <playlist id="playlist1">
  <property name="kdenlive:track_name">Video 7</property>
  <entry out="1235" producer="34" in="0"/>
 </playlist>
 <playlist id="playlist7">
  <property name="kdenlive:track_name">Video 1</property>
  <entry out="796" producer="2" in="0"/>
  <entry out="1044" producer="2" in="606"/>
 </playlist>
 <tractor id="maintractor" title="Anonymous Submission" global_feed="1" out="1236" in="0">
  <property name="meta.volume">1</property>
  <track producer="black_track"/>
  <track producer="playlist0" hide="audio"/>
  <track producer="playlist3" hide="audio"/>
  <track producer="playlist4" hide="audio"/>
  <track producer="playlist5" hide="audio"/>
  <track producer="playlist6"/>
  <track producer="playlist1"/>
  <track producer="playlist7"/>
  <transition id="transition1">
   <property name="a_track">0</property>
   <property name="b_track">1</property>
   <property name="mlt_service">mix</property>
   <property name="always_active">1</property>
   <property name="combine">1</property>
   <property name="internal_added">237</property>
  </transition>
  <transition id="transition2">
   <property name="a_track">0</property>
   <property name="b_track">2</property>
   <property name="mlt_service">mix</property>
   <property name="always_active">1</property>
   <property name="combine">1</property>
   <property name="internal_added">237</property>
  </transition>
  <transition id="transition3">
   <property name="a_track">0</property>
   <property name="b_track">3</property>
   <property name="mlt_service">mix</property>
   <property name="always_active">1</property>
   <property name="combine">1</property>
   <property name="internal_added">237</property>
  </transition>
  <transition id="transition4">
   <property name="a_track">0</property>
   <property name="b_track">4</property>
   <property name="mlt_service">mix</property>
   <property name="always_active">1</property>
   <property name="internal_added">237</property>
   <property name="combine">1</property>
  </transition>
  <transition id="transition5">
   <property name="a_track">0</property>
   <property name="b_track">5</property>
   <property name="mlt_service">mix</property>
   <property name="always_active">1</property>
   <property name="internal_added">237</property>
   <property name="combine">1</property>
  </transition>
  <transition id="transition6">
   <property name="a_track">0</property>
   <property name="b_track">7</property>
   <property name="mlt_service">mix</property>
   <property name="always_active">1</property>
   <property name="internal_added">237</property>
   <property name="combine">1</property>
  </transition>
  <transition id="transition0">
   <property name="a_track">0</property>
   <property name="b_track">1</property>
   <property name="mlt_service">mix</property>
   <property name="always_active">1</property>
   <property name="combine">1</property>
   <property name="internal_added">237</property>
  </transition>
  <transition id="transition7">
   <property name="a_track">0</property>
   <property name="b_track">2</property>
   <property name="mlt_service">mix</property>
   <property name="always_active">1</property>
   <property name="combine">1</property>
   <property name="internal_added">237</property>
  </transition>
  <transition id="transition8">
   <property name="a_track">0</property>
   <property name="b_track">3</property>
   <property name="mlt_service">mix</property>
   <property name="always_active">1</property>
   <property name="combine">1</property>
   <property name="internal_added">237</property>
  </transition>
  <transition id="transition9">
   <property name="a_track">0</property>
   <property name="b_track">4</property>
   <property name="mlt_service">mix</property>
   <property name="always_active">1</property>
   <property name="combine">1</property>
   <property name="internal_added">237</property>
  </transition>
  <transition id="transition10">
   <property name="a_track">0</property>
   <property name="b_track">5</property>
   <property name="mlt_service">mix</property>
   <property name="always_active">1</property>
   <property name="combine">1</property>
   <property name="internal_added">237</property>
  </transition>
  <transition id="transition11">
   <property name="a_track">0</property>
   <property name="b_track">6</property>
   <property name="mlt_service">mix</property>
   <property name="always_active">1</property>
   <property name="combine">1</property>
   <property name="internal_added">237</property>
  </transition>
  <transition id="transition12">
   <property name="a_track">0</property>
   <property name="b_track">7</property>
   <property name="mlt_service">mix</property>
   <property name="always_active">1</property>
   <property name="combine">1</property>
   <property name="internal_added">237</property>
  </transition>
  <transition id="transition13" out="1194" in="891">
   <property name="a_track">1</property>
   <property name="b_track">2</property>
   <property name="distort">0</property>
   <property name="geometry">0=912/34:768x432:100;54=513/34:768x432:100</property>
   <property name="fill">1</property>
   <property name="mlt_service">affine</property>
   <property name="automatic">1</property>
   <property name="force_track">1</property>
   <property name="keyed">1</property>
   <property name="rotate_x">0;54=0</property>
   <property name="rotate_y">0;54=0</property>
   <property name="rotate_z">0;54=0</property>
   <property name="shear_x">0</property>
   <property name="shear_y">0</property>
   <property name="shear_z">0</property>
  </transition>
  <transition id="transition14" out="1194" in="985">
   <property name="a_track">1</property>
   <property name="b_track">3</property>
   <property name="distort">0</property>
   <property name="geometry">0=852/237:141x79:100;157=646/48:512x288:100</property>
   <property name="fill">1</property>
   <property name="mlt_service">affine</property>
   <property name="automatic">1</property>
   <property name="force_track">1</property>
   <property name="keyed">1</property>
   <property name="rotate_x">0;157=0</property>
   <property name="rotate_y">0;157=0</property>
   <property name="rotate_z">0;157=0</property>
   <property name="shear_x">0</property>
   <property name="shear_y">0</property>
   <property name="shear_z">0</property>
  </transition>
  <transition id="transition15" out="1194" in="891">
   <property name="a_track">1</property>
   <property name="b_track">4</property>
   <property name="distort">0</property>
   <property name="geometry">0=912/34:768x432:100;54=513/34:768x432:100</property>
   <property name="fill">1</property>
   <property name="mlt_service">affine</property>
   <property name="automatic">1</property>
   <property name="force_track">1</property>
   <property name="keyed">1</property>
   <property name="rotate_x">0;54=0</property>
   <property name="rotate_y">0;54=0</property>
   <property name="rotate_z">0;54=0</property>
   <property name="shear_x">0</property>
   <property name="shear_y">0</property>
   <property name="shear_z">0</property>
  </transition>
  <transition id="transition16" out="796" in="626">
   <property name="a_track">1</property>
   <property name="b_track">4</property>
   <property name="distort">0</property>
   <property name="geometry">0/0:100%x100%:100%</property>
   <property name="fill">1</property>
   <property name="mlt_service">affine</property>
   <property name="automatic">1</property>
   <property name="force_track">1</property>
   <property name="keyed">1</property>
   <property name="rotate_x">0</property>
   <property name="rotate_y">0</property>
   <property name="rotate_z">0</property>
   <property name="shear_x">0</property>
   <property name="shear_y">0</property>
   <property name="shear_z">0</property>
  </transition>
  <transition id="transition17" out="1185" in="985">
   <property name="a_track">1</property>
   <property name="b_track">5</property>
   <property name="version">0,2</property>
   <property name="mlt_service">frei0r.addition</property>
   <property name="automatic">1</property>
   <property name="force_track">1</property>
  </transition>
  <transition id="transition18" out="1235">
   <property name="a_track">1</property>
   <property name="b_track">6</property>
   <property name="start">0/0:100%x100%</property>
   <property name="factory">loader</property>
   <property name="aligned">1</property>
   <property name="progressive">1</property>
   <property name="mlt_service">composite</property>
   <property name="automatic">1</property>
   <property name="kdenlive_id">composite</property>
   <property name="force_track">1</property>
   <property name="deinterlace">0</property>
   <property name="distort">0</property>
   <property name="fill">1</property>
   <property name="geometry">0%/0%:100%x100%:100</property>
   <property name="halign">centre</property>
   <property name="luma_invert">0</property>
   <property name="operator">over</property>
   <property name="softness">0</property>
   <property name="valign">middle</property>
  </transition>
  <transition id="transition19" out="1235" in="797">
   <property name="a_track">1</property>
   <property name="b_track">7</property>
   <property name="distort">0</property>
   <property name="geometry">0/0:100%x100%:100%</property>
   <property name="fill">1</property>
   <property name="mlt_service">affine</property>
   <property name="automatic">1</property>
   <property name="force_track">1</property>
   <property name="keyed">1</property>
   <property name="rotate_x">0</property>
   <property name="rotate_y">0</property>
   <property name="rotate_z">0</property>
   <property name="shear_x">0</property>
   <property name="shear_y">0</property>
   <property name="shear_z">0</property>
  </transition>
  <transition id="transition20" out="796">
   <property name="a_track">1</property>
   <property name="b_track">7</property>
   <property name="distort">0</property>
   <property name="geometry">0/0:100%x100%:100%</property>
   <property name="fill">1</property>
   <property name="mlt_service">affine</property>
   <property name="automatic">1</property>
   <property name="force_track">1</property>
   <property name="keyed">1</property>
   <property name="rotate_x">0</property>
   <property name="rotate_y">0</property>
   <property name="rotate_z">0</property>
   <property name="shear_x">0</property>
   <property name="shear_y">0</property>
   <property name="shear_z">0</property>
  </transition>
 </tractor>
</mlt>
