<?xml version='1.0' encoding='utf-8'?>
<mlt title="Anonymous Submission" version="6.4.1" root="/home/nicolas/Documents/Projets Musique/Barons Freaks/COURTS METRAGES - MAIN/COURTS METRAGES/EpisodeII" producer="main bin" LC_NUMERIC="fr_FR.UTF-8">
 <profile width="1280" frame_rate_den="1" height="720" display_aspect_num="16" display_aspect_den="9" frame_rate_num="25" colorspace="709" sample_aspect_den="1" description="HD 720p 25 fps" progressive="1" sample_aspect_num="1"/>
 <producer id="18" title="Anonymous Submission" out="563" in="0">
  <property name="length">00:00:22:14</property>
  <property name="eof">pause</property>
  <property name="resource">/home/nicolas/Documents/Projets Musique/Barons Freaks/COURTS METRAGES - MAIN/COURTS METRAGES/EpisodeII/scène cave/DSC_0044.MOV</property>
  <property name="seekable">1</property>
  <property name="audio_index">1</property>
  <property name="video_index">0</property>
  <property name="mute_on_pause">1</property>
  <property name="mlt_service">avformat</property>
  <property name="kdenlive:folderid">-1</property>
  <property name="kdenlive:file_size">29877132</property>
  <property name="kdenlive:file_hash">97900c39a821692f47f051488c341282</property>
  <property name="kdenlive:proxy">/home/nicolas/.cache/kdenlive/proxy/97900c39a821692f47f051488c341282.mpg</property>
  <property name="proxy_out">563</property>
  <property name="kdenlive:originalurl">scène cave/DSC_0044.MOV</property>
  <property name="global_feed">1</property>
  <property name="kdenlive:meta.media.nb_streams">2</property>
  <property name="kdenlive:meta.media.0.stream.type">video</property>
  <property name="kdenlive:meta.media.0.stream.frame_rate">25</property>
  <property name="kdenlive:meta.media.0.stream.sample_aspect_ratio">0</property>
  <property name="kdenlive:meta.media.0.codec.width">1280</property>
  <property name="kdenlive:meta.media.0.codec.height">720</property>
  <property name="kdenlive:meta.media.0.codec.rotate">0</property>
  <property name="kdenlive:meta.media.0.codec.frame_rate">25</property>
  <property name="kdenlive:meta.media.0.codec.pix_fmt">yuvj420p</property>
  <property name="kdenlive:meta.media.0.codec.sample_aspect_ratio">1</property>
  <property name="kdenlive:meta.media.0.codec.colorspace">601</property>
  <property name="kdenlive:meta.media.0.codec.color_trc">4</property>
  <property name="kdenlive:meta.media.0.codec.name">h264</property>
  <property name="kdenlive:meta.media.0.codec.long_name">H.264 / AVC / MPEG-4 AVC / MPEG-4 part 10</property>
  <property name="kdenlive:meta.media.0.codec.bit_rate">10169776</property>
  <property name="kdenlive:meta.attr.0.stream.creation_time.markup">2017-10-12T14:07:29.000000Z</property>
  <property name="kdenlive:meta.attr.0.stream.language.markup">eng</property>
  <property name="kdenlive:meta.media.1.stream.type">audio</property>
  <property name="kdenlive:meta.media.1.codec.sample_fmt">s16</property>
  <property name="kdenlive:meta.media.1.codec.sample_rate">24000</property>
  <property name="kdenlive:meta.media.1.codec.channels">1</property>
  <property name="kdenlive:meta.media.1.codec.name">pcm_s16le</property>
  <property name="kdenlive:meta.media.1.codec.long_name">PCM signed 16-bit little-endian</property>
  <property name="kdenlive:meta.media.1.codec.bit_rate">384000</property>
  <property name="kdenlive:meta.attr.1.stream.creation_time.markup">2017-10-12T14:07:29.000000Z</property>
  <property name="kdenlive:meta.attr.1.stream.language.markup">eng</property>
  <property name="kdenlive:meta.attr.major_brand.markup">qt  </property>
  <property name="kdenlive:meta.attr.minor_version.markup">537331968</property>
  <property name="kdenlive:meta.attr.compatible_brands.markup">qt  niko</property>
  <property name="kdenlive:meta.attr.creation_time.markup">2017-10-12T14:07:29.000000Z</property>
  <property name="kdenlive:meta.media.sample_aspect_num">1</property>
  <property name="kdenlive:meta.media.sample_aspect_den">1</property>
  <property name="kdenlive:meta.media.frame_rate_num">25</property>
  <property name="kdenlive:meta.media.frame_rate_den">1</property>
  <property name="kdenlive:meta.media.colorspace">601</property>
  <property name="kdenlive:meta.media.color_trc">4</property>
  <property name="kdenlive:meta.media.width">1280</property>
  <property name="kdenlive:meta.media.height">720</property>
  <property name="kdenlive:meta.media.top_field_first">0</property>
  <property name="kdenlive:meta.media.progressive">1</property>
 </producer>
 <producer id="19" title="Anonymous Submission" out="512" in="0">
  <property name="length">00:00:20:13</property>
  <property name="eof">pause</property>
  <property name="resource">/home/nicolas/Documents/Projets Musique/Barons Freaks/COURTS METRAGES - MAIN/COURTS METRAGES/EpisodeII/scène cave/DSC_0045.MOV</property>
  <property name="seekable">1</property>
  <property name="audio_index">1</property>
  <property name="video_index">0</property>
  <property name="mute_on_pause">1</property>
  <property name="mlt_service">avformat</property>
  <property name="kdenlive:folderid">-1</property>
  <property name="kdenlive:file_size">27467948</property>
  <property name="kdenlive:file_hash">1760849d6e5321df7cc6cb25d01907dc</property>
  <property name="kdenlive:proxy">/home/nicolas/.cache/kdenlive/proxy/1760849d6e5321df7cc6cb25d01907dc.mpg</property>
  <property name="proxy_out">512</property>
  <property name="kdenlive:originalurl">scène cave/DSC_0045.MOV</property>
  <property name="global_feed">1</property>
  <property name="kdenlive:meta.media.nb_streams">2</property>
  <property name="kdenlive:meta.media.0.stream.type">video</property>
  <property name="kdenlive:meta.media.0.stream.frame_rate">25</property>
  <property name="kdenlive:meta.media.0.stream.sample_aspect_ratio">0</property>
  <property name="kdenlive:meta.media.0.codec.width">1280</property>
  <property name="kdenlive:meta.media.0.codec.height">720</property>
  <property name="kdenlive:meta.media.0.codec.rotate">0</property>
  <property name="kdenlive:meta.media.0.codec.frame_rate">25</property>
  <property name="kdenlive:meta.media.0.codec.pix_fmt">yuvj420p</property>
  <property name="kdenlive:meta.media.0.codec.sample_aspect_ratio">1</property>
  <property name="kdenlive:meta.media.0.codec.colorspace">601</property>
  <property name="kdenlive:meta.media.0.codec.color_trc">4</property>
  <property name="kdenlive:meta.media.0.codec.name">h264</property>
  <property name="kdenlive:meta.media.0.codec.long_name">H.264 / AVC / MPEG-4 AVC / MPEG-4 part 10</property>
  <property name="kdenlive:meta.media.0.codec.bit_rate">10279617</property>
  <property name="kdenlive:meta.attr.0.stream.creation_time.markup">2017-10-12T14:17:42.000000Z</property>
  <property name="kdenlive:meta.attr.0.stream.language.markup">eng</property>
  <property name="kdenlive:meta.media.1.stream.type">audio</property>
  <property name="kdenlive:meta.media.1.codec.sample_fmt">s16</property>
  <property name="kdenlive:meta.media.1.codec.sample_rate">24000</property>
  <property name="kdenlive:meta.media.1.codec.channels">1</property>
  <property name="kdenlive:meta.media.1.codec.name">pcm_s16le</property>
  <property name="kdenlive:meta.media.1.codec.long_name">PCM signed 16-bit little-endian</property>
  <property name="kdenlive:meta.media.1.codec.bit_rate">384000</property>
  <property name="kdenlive:meta.attr.1.stream.creation_time.markup">2017-10-12T14:17:42.000000Z</property>
  <property name="kdenlive:meta.attr.1.stream.language.markup">eng</property>
  <property name="kdenlive:meta.attr.major_brand.markup">qt  </property>
  <property name="kdenlive:meta.attr.minor_version.markup">537331968</property>
  <property name="kdenlive:meta.attr.compatible_brands.markup">qt  niko</property>
  <property name="kdenlive:meta.attr.creation_time.markup">2017-10-12T14:17:42.000000Z</property>
  <property name="kdenlive:meta.media.sample_aspect_num">1</property>
  <property name="kdenlive:meta.media.sample_aspect_den">1</property>
  <property name="kdenlive:meta.media.frame_rate_num">25</property>
  <property name="kdenlive:meta.media.frame_rate_den">1</property>
  <property name="kdenlive:meta.media.colorspace">601</property>
  <property name="kdenlive:meta.media.color_trc">4</property>
  <property name="kdenlive:meta.media.width">1280</property>
  <property name="kdenlive:meta.media.height">720</property>
  <property name="kdenlive:meta.media.top_field_first">0</property>
  <property name="kdenlive:meta.media.progressive">1</property>
 </producer>
 <producer id="20" title="Anonymous Submission" out="743" in="0">
  <property name="length">00:00:29:19</property>
  <property name="eof">pause</property>
  <property name="resource">/home/nicolas/Documents/Projets Musique/Barons Freaks/COURTS METRAGES - MAIN/COURTS METRAGES/EpisodeII/scène cave/DSC_0046.MOV</property>
  <property name="seekable">1</property>
  <property name="audio_index">1</property>
  <property name="video_index">0</property>
  <property name="mute_on_pause">1</property>
  <property name="mlt_service">avformat</property>
  <property name="kdenlive:folderid">-1</property>
  <property name="kdenlive:file_size">39388262</property>
  <property name="kdenlive:file_hash">f0072d5ae772701dc690032d35a5f3d5</property>
  <property name="kdenlive:proxy">/home/nicolas/.cache/kdenlive/proxy/f0072d5ae772701dc690032d35a5f3d5.mpg</property>
  <property name="proxy_out">743</property>
  <property name="kdenlive:originalurl">scène cave/DSC_0046.MOV</property>
  <property name="global_feed">1</property>
  <property name="kdenlive:meta.media.nb_streams">2</property>
  <property name="kdenlive:meta.media.0.stream.type">video</property>
  <property name="kdenlive:meta.media.0.stream.frame_rate">25</property>
  <property name="kdenlive:meta.media.0.stream.sample_aspect_ratio">0</property>
  <property name="kdenlive:meta.media.0.codec.width">1280</property>
  <property name="kdenlive:meta.media.0.codec.height">720</property>
  <property name="kdenlive:meta.media.0.codec.rotate">0</property>
  <property name="kdenlive:meta.media.0.codec.frame_rate">25</property>
  <property name="kdenlive:meta.media.0.codec.pix_fmt">yuvj420p</property>
  <property name="kdenlive:meta.media.0.codec.sample_aspect_ratio">1</property>
  <property name="kdenlive:meta.media.0.codec.colorspace">601</property>
  <property name="kdenlive:meta.media.0.codec.color_trc">4</property>
  <property name="kdenlive:meta.media.0.codec.name">h264</property>
  <property name="kdenlive:meta.media.0.codec.long_name">H.264 / AVC / MPEG-4 AVC / MPEG-4 part 10</property>
  <property name="kdenlive:meta.media.0.codec.bit_rate">10172644</property>
  <property name="kdenlive:meta.attr.0.stream.creation_time.markup">2017-10-12T14:31:38.000000Z</property>
  <property name="kdenlive:meta.attr.0.stream.language.markup">eng</property>
  <property name="kdenlive:meta.media.1.stream.type">audio</property>
  <property name="kdenlive:meta.media.1.codec.sample_fmt">s16</property>
  <property name="kdenlive:meta.media.1.codec.sample_rate">24000</property>
  <property name="kdenlive:meta.media.1.codec.channels">1</property>
  <property name="kdenlive:meta.media.1.codec.name">pcm_s16le</property>
  <property name="kdenlive:meta.media.1.codec.long_name">PCM signed 16-bit little-endian</property>
  <property name="kdenlive:meta.media.1.codec.bit_rate">384000</property>
  <property name="kdenlive:meta.attr.1.stream.creation_time.markup">2017-10-12T14:31:38.000000Z</property>
  <property name="kdenlive:meta.attr.1.stream.language.markup">eng</property>
  <property name="kdenlive:meta.attr.major_brand.markup">qt  </property>
  <property name="kdenlive:meta.attr.minor_version.markup">537331968</property>
  <property name="kdenlive:meta.attr.compatible_brands.markup">qt  niko</property>
  <property name="kdenlive:meta.attr.creation_time.markup">2017-10-12T14:31:38.000000Z</property>
  <property name="kdenlive:meta.media.sample_aspect_num">1</property>
  <property name="kdenlive:meta.media.sample_aspect_den">1</property>
  <property name="kdenlive:meta.media.frame_rate_num">25</property>
  <property name="kdenlive:meta.media.frame_rate_den">1</property>
  <property name="kdenlive:meta.media.colorspace">601</property>
  <property name="kdenlive:meta.media.color_trc">4</property>
  <property name="kdenlive:meta.media.width">1280</property>
  <property name="kdenlive:meta.media.height">720</property>
  <property name="kdenlive:meta.media.top_field_first">0</property>
  <property name="kdenlive:meta.media.progressive">1</property>
 </producer>
 <producer id="21" title="Anonymous Submission" out="803" in="0">
  <property name="length">00:00:32:04</property>
  <property name="eof">pause</property>
  <property name="resource">/home/nicolas/Documents/Projets Musique/Barons Freaks/COURTS METRAGES - MAIN/COURTS METRAGES/EpisodeII/scène cave/DSC_0047.MOV</property>
  <property name="seekable">1</property>
  <property name="audio_index">1</property>
  <property name="video_index">0</property>
  <property name="mute_on_pause">1</property>
  <property name="mlt_service">avformat</property>
  <property name="kdenlive:folderid">-1</property>
  <property name="kdenlive:file_size">42567246</property>
  <property name="kdenlive:file_hash">e976dea6bc8d35e15575dee41fee2f80</property>
  <property name="kdenlive:proxy">/home/nicolas/.cache/kdenlive/proxy/e976dea6bc8d35e15575dee41fee2f80.mpg</property>
  <property name="proxy_out">803</property>
  <property name="kdenlive:originalurl">scène cave/DSC_0047.MOV</property>
  <property name="global_feed">1</property>
  <property name="kdenlive:meta.media.nb_streams">2</property>
  <property name="kdenlive:meta.media.0.stream.type">video</property>
  <property name="kdenlive:meta.media.0.stream.frame_rate">25</property>
  <property name="kdenlive:meta.media.0.stream.sample_aspect_ratio">0</property>
  <property name="kdenlive:meta.media.0.codec.width">1280</property>
  <property name="kdenlive:meta.media.0.codec.height">720</property>
  <property name="kdenlive:meta.media.0.codec.rotate">0</property>
  <property name="kdenlive:meta.media.0.codec.frame_rate">25</property>
  <property name="kdenlive:meta.media.0.codec.pix_fmt">yuvj420p</property>
  <property name="kdenlive:meta.media.0.codec.sample_aspect_ratio">1</property>
  <property name="kdenlive:meta.media.0.codec.colorspace">601</property>
  <property name="kdenlive:meta.media.0.codec.color_trc">4</property>
  <property name="kdenlive:meta.media.0.codec.name">h264</property>
  <property name="kdenlive:meta.media.0.codec.long_name">H.264 / AVC / MPEG-4 AVC / MPEG-4 part 10</property>
  <property name="kdenlive:meta.media.0.codec.bit_rate">10175643</property>
  <property name="kdenlive:meta.attr.0.stream.creation_time.markup">2017-10-12T14:34:24.000000Z</property>
  <property name="kdenlive:meta.attr.0.stream.language.markup">eng</property>
  <property name="kdenlive:meta.media.1.stream.type">audio</property>
  <property name="kdenlive:meta.media.1.codec.sample_fmt">s16</property>
  <property name="kdenlive:meta.media.1.codec.sample_rate">24000</property>
  <property name="kdenlive:meta.media.1.codec.channels">1</property>
  <property name="kdenlive:meta.media.1.codec.name">pcm_s16le</property>
  <property name="kdenlive:meta.media.1.codec.long_name">PCM signed 16-bit little-endian</property>
  <property name="kdenlive:meta.media.1.codec.bit_rate">384000</property>
  <property name="kdenlive:meta.attr.1.stream.creation_time.markup">2017-10-12T14:34:24.000000Z</property>
  <property name="kdenlive:meta.attr.1.stream.language.markup">eng</property>
  <property name="kdenlive:meta.attr.major_brand.markup">qt  </property>
  <property name="kdenlive:meta.attr.minor_version.markup">537331968</property>
  <property name="kdenlive:meta.attr.compatible_brands.markup">qt  niko</property>
  <property name="kdenlive:meta.attr.creation_time.markup">2017-10-12T14:34:24.000000Z</property>
  <property name="kdenlive:meta.media.sample_aspect_num">1</property>
  <property name="kdenlive:meta.media.sample_aspect_den">1</property>
  <property name="kdenlive:meta.media.frame_rate_num">25</property>
  <property name="kdenlive:meta.media.frame_rate_den">1</property>
  <property name="kdenlive:meta.media.colorspace">601</property>
  <property name="kdenlive:meta.media.color_trc">4</property>
  <property name="kdenlive:meta.media.width">1280</property>
  <property name="kdenlive:meta.media.height">720</property>
  <property name="kdenlive:meta.media.top_field_first">0</property>
  <property name="kdenlive:meta.media.progressive">1</property>
 </producer>
 <producer id="23" title="Anonymous Submission" out="791" in="0">
  <property name="length">00:00:31:17</property>
  <property name="eof">pause</property>
  <property name="resource">/home/nicolas/Documents/Projets Musique/Barons Freaks/COURTS METRAGES - MAIN/COURTS METRAGES/EpisodeII/scène cave/DSC_0049.MOV</property>
  <property name="seekable">1</property>
  <property name="audio_index">1</property>
  <property name="video_index">0</property>
  <property name="mute_on_pause">1</property>
  <property name="mlt_service">avformat</property>
  <property name="kdenlive:folderid">-1</property>
  <property name="kdenlive:file_size">42312481</property>
  <property name="kdenlive:file_hash">ad2dbea65a715468544d24486ce48afc</property>
  <property name="kdenlive:proxy">/home/nicolas/.cache/kdenlive/proxy/ad2dbea65a715468544d24486ce48afc.mpg</property>
  <property name="proxy_out">791</property>
  <property name="kdenlive:originalurl">scène cave/DSC_0049.MOV</property>
  <property name="global_feed">1</property>
  <property name="kdenlive:meta.media.nb_streams">2</property>
  <property name="kdenlive:meta.media.0.stream.type">video</property>
  <property name="kdenlive:meta.media.0.stream.frame_rate">25</property>
  <property name="kdenlive:meta.media.0.stream.sample_aspect_ratio">0</property>
  <property name="kdenlive:meta.media.0.codec.width">1280</property>
  <property name="kdenlive:meta.media.0.codec.height">720</property>
  <property name="kdenlive:meta.media.0.codec.rotate">0</property>
  <property name="kdenlive:meta.media.0.codec.frame_rate">25</property>
  <property name="kdenlive:meta.media.0.codec.pix_fmt">yuvj420p</property>
  <property name="kdenlive:meta.media.0.codec.sample_aspect_ratio">1</property>
  <property name="kdenlive:meta.media.0.codec.colorspace">601</property>
  <property name="kdenlive:meta.media.0.codec.color_trc">4</property>
  <property name="kdenlive:meta.media.0.codec.name">h264</property>
  <property name="kdenlive:meta.media.0.codec.long_name">H.264 / AVC / MPEG-4 AVC / MPEG-4 part 10</property>
  <property name="kdenlive:meta.media.0.codec.bit_rate">10271368</property>
  <property name="kdenlive:meta.attr.0.stream.creation_time.markup">2017-10-12T14:49:53.000000Z</property>
  <property name="kdenlive:meta.attr.0.stream.language.markup">eng</property>
  <property name="kdenlive:meta.media.1.stream.type">audio</property>
  <property name="kdenlive:meta.media.1.codec.sample_fmt">s16</property>
  <property name="kdenlive:meta.media.1.codec.sample_rate">24000</property>
  <property name="kdenlive:meta.media.1.codec.channels">1</property>
  <property name="kdenlive:meta.media.1.codec.name">pcm_s16le</property>
  <property name="kdenlive:meta.media.1.codec.long_name">PCM signed 16-bit little-endian</property>
  <property name="kdenlive:meta.media.1.codec.bit_rate">384000</property>
  <property name="kdenlive:meta.attr.1.stream.creation_time.markup">2017-10-12T14:49:53.000000Z</property>
  <property name="kdenlive:meta.attr.1.stream.language.markup">eng</property>
  <property name="kdenlive:meta.attr.major_brand.markup">qt  </property>
  <property name="kdenlive:meta.attr.minor_version.markup">537331968</property>
  <property name="kdenlive:meta.attr.compatible_brands.markup">qt  niko</property>
  <property name="kdenlive:meta.attr.creation_time.markup">2017-10-12T14:49:53.000000Z</property>
  <property name="kdenlive:meta.media.sample_aspect_num">1</property>
  <property name="kdenlive:meta.media.sample_aspect_den">1</property>
  <property name="kdenlive:meta.media.frame_rate_num">25</property>
  <property name="kdenlive:meta.media.frame_rate_den">1</property>
  <property name="kdenlive:meta.media.colorspace">601</property>
  <property name="kdenlive:meta.media.color_trc">4</property>
  <property name="kdenlive:meta.media.width">1280</property>
  <property name="kdenlive:meta.media.height">720</property>
  <property name="kdenlive:meta.media.top_field_first">0</property>
  <property name="kdenlive:meta.media.progressive">1</property>
 </producer>
 <producer id="22" title="Anonymous Submission" out="1283" in="0">
  <property name="length">00:00:51:09</property>
  <property name="eof">pause</property>
  <property name="resource">/home/nicolas/Documents/Projets Musique/Barons Freaks/COURTS METRAGES - MAIN/COURTS METRAGES/EpisodeII/scène cave/DSC_0048.MOV</property>
  <property name="seekable">1</property>
  <property name="audio_index">1</property>
  <property name="video_index">0</property>
  <property name="mute_on_pause">1</property>
  <property name="mlt_service">avformat</property>
  <property name="kdenlive:folderid">-1</property>
  <property name="kdenlive:file_size">68816149</property>
  <property name="kdenlive:file_hash">df336bc3094edf52d95247f391e0df5f</property>
  <property name="kdenlive:proxy">/home/nicolas/.cache/kdenlive/proxy/df336bc3094edf52d95247f391e0df5f.mpg</property>
  <property name="proxy_out">1283</property>
  <property name="kdenlive:originalurl">scène cave/DSC_0048.MOV</property>
  <property name="global_feed">1</property>
  <property name="kdenlive:meta.media.nb_streams">2</property>
  <property name="kdenlive:meta.media.0.stream.type">video</property>
  <property name="kdenlive:meta.media.0.stream.frame_rate">25</property>
  <property name="kdenlive:meta.media.0.stream.sample_aspect_ratio">0</property>
  <property name="kdenlive:meta.media.0.codec.width">1280</property>
  <property name="kdenlive:meta.media.0.codec.height">720</property>
  <property name="kdenlive:meta.media.0.codec.rotate">0</property>
  <property name="kdenlive:meta.media.0.codec.frame_rate">25</property>
  <property name="kdenlive:meta.media.0.codec.pix_fmt">yuvj420p</property>
  <property name="kdenlive:meta.media.0.codec.sample_aspect_ratio">1</property>
  <property name="kdenlive:meta.media.0.codec.colorspace">601</property>
  <property name="kdenlive:meta.media.0.codec.color_trc">4</property>
  <property name="kdenlive:meta.media.0.codec.name">h264</property>
  <property name="kdenlive:meta.media.0.codec.long_name">H.264 / AVC / MPEG-4 AVC / MPEG-4 part 10</property>
  <property name="kdenlive:meta.media.0.codec.bit_rate">10316050</property>
  <property name="kdenlive:meta.attr.0.stream.creation_time.markup">2017-10-12T14:48:59.000000Z</property>
  <property name="kdenlive:meta.attr.0.stream.language.markup">eng</property>
  <property name="kdenlive:meta.media.1.stream.type">audio</property>
  <property name="kdenlive:meta.media.1.codec.sample_fmt">s16</property>
  <property name="kdenlive:meta.media.1.codec.sample_rate">24000</property>
  <property name="kdenlive:meta.media.1.codec.channels">1</property>
  <property name="kdenlive:meta.media.1.codec.name">pcm_s16le</property>
  <property name="kdenlive:meta.media.1.codec.long_name">PCM signed 16-bit little-endian</property>
  <property name="kdenlive:meta.media.1.codec.bit_rate">384000</property>
  <property name="kdenlive:meta.attr.1.stream.creation_time.markup">2017-10-12T14:48:59.000000Z</property>
  <property name="kdenlive:meta.attr.1.stream.language.markup">eng</property>
  <property name="kdenlive:meta.attr.major_brand.markup">qt  </property>
  <property name="kdenlive:meta.attr.minor_version.markup">537331968</property>
  <property name="kdenlive:meta.attr.compatible_brands.markup">qt  niko</property>
  <property name="kdenlive:meta.attr.creation_time.markup">2017-10-12T14:48:59.000000Z</property>
  <property name="kdenlive:meta.media.sample_aspect_num">1</property>
  <property name="kdenlive:meta.media.sample_aspect_den">1</property>
  <property name="kdenlive:meta.media.frame_rate_num">25</property>
  <property name="kdenlive:meta.media.frame_rate_den">1</property>
  <property name="kdenlive:meta.media.colorspace">601</property>
  <property name="kdenlive:meta.media.color_trc">4</property>
  <property name="kdenlive:meta.media.width">1280</property>
  <property name="kdenlive:meta.media.height">720</property>
  <property name="kdenlive:meta.media.top_field_first">0</property>
  <property name="kdenlive:meta.media.progressive">1</property>
 </producer>
 <producer id="24" title="Anonymous Submission" out="227" in="0">
  <property name="length">00:00:09:03</property>
  <property name="eof">pause</property>
  <property name="resource">/home/nicolas/Documents/Projets Musique/Barons Freaks/COURTS METRAGES - MAIN/COURTS METRAGES/EpisodeII/scène cave/DSC_0050.MOV</property>
  <property name="seekable">1</property>
  <property name="audio_index">1</property>
  <property name="video_index">0</property>
  <property name="mute_on_pause">1</property>
  <property name="mlt_service">avformat</property>
  <property name="kdenlive:folderid">-1</property>
  <property name="kdenlive:file_size">12637433</property>
  <property name="kdenlive:file_hash">a6516722fcad71cbb5a297f8f49026a5</property>
  <property name="kdenlive:proxy">/home/nicolas/.cache/kdenlive/proxy/a6516722fcad71cbb5a297f8f49026a5.mpg</property>
  <property name="proxy_out">227</property>
  <property name="kdenlive:originalurl">scène cave/DSC_0050.MOV</property>
  <property name="global_feed">1</property>
  <property name="kdenlive:meta.media.nb_streams">2</property>
  <property name="kdenlive:meta.media.0.stream.type">video</property>
  <property name="kdenlive:meta.media.0.stream.frame_rate">25</property>
  <property name="kdenlive:meta.media.0.stream.sample_aspect_ratio">0</property>
  <property name="kdenlive:meta.media.0.codec.width">1280</property>
  <property name="kdenlive:meta.media.0.codec.height">720</property>
  <property name="kdenlive:meta.media.0.codec.rotate">0</property>
  <property name="kdenlive:meta.media.0.codec.frame_rate">25</property>
  <property name="kdenlive:meta.media.0.codec.pix_fmt">yuvj420p</property>
  <property name="kdenlive:meta.media.0.codec.sample_aspect_ratio">1</property>
  <property name="kdenlive:meta.media.0.codec.colorspace">601</property>
  <property name="kdenlive:meta.media.0.codec.color_trc">4</property>
  <property name="kdenlive:meta.media.0.codec.name">h264</property>
  <property name="kdenlive:meta.media.0.codec.long_name">H.264 / AVC / MPEG-4 AVC / MPEG-4 part 10</property>
  <property name="kdenlive:meta.media.0.codec.bit_rate">10603827</property>
  <property name="kdenlive:meta.attr.0.stream.creation_time.markup">2017-10-12T14:50:39.000000Z</property>
  <property name="kdenlive:meta.attr.0.stream.language.markup">eng</property>
  <property name="kdenlive:meta.media.1.stream.type">audio</property>
  <property name="kdenlive:meta.media.1.codec.sample_fmt">s16</property>
  <property name="kdenlive:meta.media.1.codec.sample_rate">24000</property>
  <property name="kdenlive:meta.media.1.codec.channels">1</property>
  <property name="kdenlive:meta.media.1.codec.name">pcm_s16le</property>
  <property name="kdenlive:meta.media.1.codec.long_name">PCM signed 16-bit little-endian</property>
  <property name="kdenlive:meta.media.1.codec.bit_rate">384000</property>
  <property name="kdenlive:meta.attr.1.stream.creation_time.markup">2017-10-12T14:50:39.000000Z</property>
  <property name="kdenlive:meta.attr.1.stream.language.markup">eng</property>
  <property name="kdenlive:meta.attr.major_brand.markup">qt  </property>
  <property name="kdenlive:meta.attr.minor_version.markup">537331968</property>
  <property name="kdenlive:meta.attr.compatible_brands.markup">qt  niko</property>
  <property name="kdenlive:meta.attr.creation_time.markup">2017-10-12T14:50:39.000000Z</property>
  <property name="kdenlive:meta.media.sample_aspect_num">1</property>
  <property name="kdenlive:meta.media.sample_aspect_den">1</property>
  <property name="kdenlive:meta.media.frame_rate_num">25</property>
  <property name="kdenlive:meta.media.frame_rate_den">1</property>
  <property name="kdenlive:meta.media.colorspace">601</property>
  <property name="kdenlive:meta.media.color_trc">4</property>
  <property name="kdenlive:meta.media.width">1280</property>
  <property name="kdenlive:meta.media.height">720</property>
  <property name="kdenlive:meta.media.top_field_first">0</property>
  <property name="kdenlive:meta.media.progressive">1</property>
 </producer>
 <producer id="25" title="Anonymous Submission" out="884" in="0">
  <property name="length">00:00:35:10</property>
  <property name="eof">pause</property>
  <property name="resource">/home/nicolas/Documents/Projets Musique/Barons Freaks/COURTS METRAGES - MAIN/COURTS METRAGES/EpisodeII/scène cave/DSC_0051.MOV</property>
  <property name="seekable">1</property>
  <property name="audio_index">1</property>
  <property name="video_index">0</property>
  <property name="mute_on_pause">1</property>
  <property name="mlt_service">avformat</property>
  <property name="kdenlive:folderid">-1</property>
  <property name="kdenlive:file_size">47458505</property>
  <property name="kdenlive:file_hash">f947b564b4574fca4e783edda8e26e72</property>
  <property name="kdenlive:proxy">/home/nicolas/.cache/kdenlive/proxy/f947b564b4574fca4e783edda8e26e72.mpg</property>
  <property name="proxy_out">884</property>
  <property name="kdenlive:originalurl">scène cave/DSC_0051.MOV</property>
  <property name="global_feed">1</property>
  <property name="kdenlive:meta.media.nb_streams">2</property>
  <property name="kdenlive:meta.media.0.stream.type">video</property>
  <property name="kdenlive:meta.media.0.stream.frame_rate">25</property>
  <property name="kdenlive:meta.media.0.stream.sample_aspect_ratio">0</property>
  <property name="kdenlive:meta.media.0.codec.width">1280</property>
  <property name="kdenlive:meta.media.0.codec.height">720</property>
  <property name="kdenlive:meta.media.0.codec.rotate">0</property>
  <property name="kdenlive:meta.media.0.codec.frame_rate">25</property>
  <property name="kdenlive:meta.media.0.codec.pix_fmt">yuvj420p</property>
  <property name="kdenlive:meta.media.0.codec.sample_aspect_ratio">1</property>
  <property name="kdenlive:meta.media.0.codec.colorspace">601</property>
  <property name="kdenlive:meta.media.0.codec.color_trc">4</property>
  <property name="kdenlive:meta.media.0.codec.name">h264</property>
  <property name="kdenlive:meta.media.0.codec.long_name">H.264 / AVC / MPEG-4 AVC / MPEG-4 part 10</property>
  <property name="kdenlive:meta.media.0.codec.bit_rate">10314377</property>
  <property name="kdenlive:meta.attr.0.stream.creation_time.markup">2017-10-12T14:50:53.000000Z</property>
  <property name="kdenlive:meta.attr.0.stream.language.markup">eng</property>
  <property name="kdenlive:meta.media.1.stream.type">audio</property>
  <property name="kdenlive:meta.media.1.codec.sample_fmt">s16</property>
  <property name="kdenlive:meta.media.1.codec.sample_rate">24000</property>
  <property name="kdenlive:meta.media.1.codec.channels">1</property>
  <property name="kdenlive:meta.media.1.codec.name">pcm_s16le</property>
  <property name="kdenlive:meta.media.1.codec.long_name">PCM signed 16-bit little-endian</property>
  <property name="kdenlive:meta.media.1.codec.bit_rate">384000</property>
  <property name="kdenlive:meta.attr.1.stream.creation_time.markup">2017-10-12T14:50:53.000000Z</property>
  <property name="kdenlive:meta.attr.1.stream.language.markup">eng</property>
  <property name="kdenlive:meta.attr.major_brand.markup">qt  </property>
  <property name="kdenlive:meta.attr.minor_version.markup">537331968</property>
  <property name="kdenlive:meta.attr.compatible_brands.markup">qt  niko</property>
  <property name="kdenlive:meta.attr.creation_time.markup">2017-10-12T14:50:53.000000Z</property>
  <property name="kdenlive:meta.media.sample_aspect_num">1</property>
  <property name="kdenlive:meta.media.sample_aspect_den">1</property>
  <property name="kdenlive:meta.media.frame_rate_num">25</property>
  <property name="kdenlive:meta.media.frame_rate_den">1</property>
  <property name="kdenlive:meta.media.colorspace">601</property>
  <property name="kdenlive:meta.media.color_trc">4</property>
  <property name="kdenlive:meta.media.width">1280</property>
  <property name="kdenlive:meta.media.height">720</property>
  <property name="kdenlive:meta.media.top_field_first">0</property>
  <property name="kdenlive:meta.media.progressive">1</property>
 </producer>
 <producer id="26" title="Anonymous Submission" out="827" in="0">
  <property name="length">00:00:33:03</property>
  <property name="eof">pause</property>
  <property name="resource">/home/nicolas/Documents/Projets Musique/Barons Freaks/COURTS METRAGES - MAIN/COURTS METRAGES/EpisodeII/scène cave/DSC_0052.MOV</property>
  <property name="seekable">1</property>
  <property name="audio_index">1</property>
  <property name="video_index">0</property>
  <property name="mute_on_pause">1</property>
  <property name="mlt_service">avformat</property>
  <property name="kdenlive:folderid">-1</property>
  <property name="kdenlive:file_size">44497156</property>
  <property name="kdenlive:file_hash">a366c079a418149da54768d23940463f</property>
  <property name="kdenlive:proxy">/home/nicolas/.cache/kdenlive/proxy/a366c079a418149da54768d23940463f.mpg</property>
  <property name="proxy_out">827</property>
  <property name="kdenlive:originalurl">scène cave/DSC_0052.MOV</property>
  <property name="global_feed">1</property>
  <property name="kdenlive:meta.media.nb_streams">2</property>
  <property name="kdenlive:meta.media.0.stream.type">video</property>
  <property name="kdenlive:meta.media.0.stream.frame_rate">25</property>
  <property name="kdenlive:meta.media.0.stream.sample_aspect_ratio">0</property>
  <property name="kdenlive:meta.media.0.codec.width">1280</property>
  <property name="kdenlive:meta.media.0.codec.height">720</property>
  <property name="kdenlive:meta.media.0.codec.rotate">0</property>
  <property name="kdenlive:meta.media.0.codec.frame_rate">25</property>
  <property name="kdenlive:meta.media.0.codec.pix_fmt">yuvj420p</property>
  <property name="kdenlive:meta.media.0.codec.sample_aspect_ratio">1</property>
  <property name="kdenlive:meta.media.0.codec.colorspace">601</property>
  <property name="kdenlive:meta.media.0.codec.color_trc">4</property>
  <property name="kdenlive:meta.media.0.codec.name">h264</property>
  <property name="kdenlive:meta.media.0.codec.long_name">H.264 / AVC / MPEG-4 AVC / MPEG-4 part 10</property>
  <property name="kdenlive:meta.media.0.codec.bit_rate">10336230</property>
  <property name="kdenlive:meta.attr.0.stream.creation_time.markup">2017-10-12T14:52:27.000000Z</property>
  <property name="kdenlive:meta.attr.0.stream.language.markup">eng</property>
  <property name="kdenlive:meta.media.1.stream.type">audio</property>
  <property name="kdenlive:meta.media.1.codec.sample_fmt">s16</property>
  <property name="kdenlive:meta.media.1.codec.sample_rate">24000</property>
  <property name="kdenlive:meta.media.1.codec.channels">1</property>
  <property name="kdenlive:meta.media.1.codec.name">pcm_s16le</property>
  <property name="kdenlive:meta.media.1.codec.long_name">PCM signed 16-bit little-endian</property>
  <property name="kdenlive:meta.media.1.codec.bit_rate">384000</property>
  <property name="kdenlive:meta.attr.1.stream.creation_time.markup">2017-10-12T14:52:27.000000Z</property>
  <property name="kdenlive:meta.attr.1.stream.language.markup">eng</property>
  <property name="kdenlive:meta.attr.major_brand.markup">qt  </property>
  <property name="kdenlive:meta.attr.minor_version.markup">537331968</property>
  <property name="kdenlive:meta.attr.compatible_brands.markup">qt  niko</property>
  <property name="kdenlive:meta.attr.creation_time.markup">2017-10-12T14:52:27.000000Z</property>
  <property name="kdenlive:meta.media.sample_aspect_num">1</property>
  <property name="kdenlive:meta.media.sample_aspect_den">1</property>
  <property name="kdenlive:meta.media.frame_rate_num">25</property>
  <property name="kdenlive:meta.media.frame_rate_den">1</property>
  <property name="kdenlive:meta.media.colorspace">601</property>
  <property name="kdenlive:meta.media.color_trc">4</property>
  <property name="kdenlive:meta.media.width">1280</property>
  <property name="kdenlive:meta.media.height">720</property>
  <property name="kdenlive:meta.media.top_field_first">0</property>
  <property name="kdenlive:meta.media.progressive">1</property>
 </producer>
 <producer id="27" title="Anonymous Submission" out="1421" in="0">
  <property name="length">00:00:56:22</property>
  <property name="eof">pause</property>
  <property name="resource">/home/nicolas/Documents/Projets Musique/Barons Freaks/COURTS METRAGES - MAIN/COURTS METRAGES/EpisodeII/scène cave/DSC_0053.MOV</property>
  <property name="seekable">1</property>
  <property name="audio_index">1</property>
  <property name="video_index">0</property>
  <property name="mute_on_pause">1</property>
  <property name="mlt_service">avformat</property>
  <property name="kdenlive:folderid">-1</property>
  <property name="kdenlive:file_size">76583600</property>
  <property name="kdenlive:file_hash">bafd392d6ee0c8c87edb8b902388e7ab</property>
  <property name="kdenlive:proxy">/home/nicolas/.cache/kdenlive/proxy/bafd392d6ee0c8c87edb8b902388e7ab.mpg</property>
  <property name="proxy_out">1421</property>
  <property name="kdenlive:originalurl">scène cave/DSC_0053.MOV</property>
  <property name="global_feed">1</property>
  <property name="kdenlive:meta.media.nb_streams">2</property>
  <property name="kdenlive:meta.media.0.stream.type">video</property>
  <property name="kdenlive:meta.media.0.stream.frame_rate">25</property>
  <property name="kdenlive:meta.media.0.stream.sample_aspect_ratio">0</property>
  <property name="kdenlive:meta.media.0.codec.width">1280</property>
  <property name="kdenlive:meta.media.0.codec.height">720</property>
  <property name="kdenlive:meta.media.0.codec.rotate">0</property>
  <property name="kdenlive:meta.media.0.codec.frame_rate">25</property>
  <property name="kdenlive:meta.media.0.codec.pix_fmt">yuvj420p</property>
  <property name="kdenlive:meta.media.0.codec.sample_aspect_ratio">1</property>
  <property name="kdenlive:meta.media.0.codec.colorspace">601</property>
  <property name="kdenlive:meta.media.0.codec.color_trc">4</property>
  <property name="kdenlive:meta.media.0.codec.name">h264</property>
  <property name="kdenlive:meta.media.0.codec.long_name">H.264 / AVC / MPEG-4 AVC / MPEG-4 part 10</property>
  <property name="kdenlive:meta.media.0.codec.bit_rate">10370047</property>
  <property name="kdenlive:meta.attr.0.stream.creation_time.markup">2017-10-12T14:53:18.000000Z</property>
  <property name="kdenlive:meta.attr.0.stream.language.markup">eng</property>
  <property name="kdenlive:meta.media.1.stream.type">audio</property>
  <property name="kdenlive:meta.media.1.codec.sample_fmt">s16</property>
  <property name="kdenlive:meta.media.1.codec.sample_rate">24000</property>
  <property name="kdenlive:meta.media.1.codec.channels">1</property>
  <property name="kdenlive:meta.media.1.codec.name">pcm_s16le</property>
  <property name="kdenlive:meta.media.1.codec.long_name">PCM signed 16-bit little-endian</property>
  <property name="kdenlive:meta.media.1.codec.bit_rate">384000</property>
  <property name="kdenlive:meta.attr.1.stream.creation_time.markup">2017-10-12T14:53:18.000000Z</property>
  <property name="kdenlive:meta.attr.1.stream.language.markup">eng</property>
  <property name="kdenlive:meta.attr.major_brand.markup">qt  </property>
  <property name="kdenlive:meta.attr.minor_version.markup">537331968</property>
  <property name="kdenlive:meta.attr.compatible_brands.markup">qt  niko</property>
  <property name="kdenlive:meta.attr.creation_time.markup">2017-10-12T14:53:18.000000Z</property>
  <property name="kdenlive:meta.media.sample_aspect_num">1</property>
  <property name="kdenlive:meta.media.sample_aspect_den">1</property>
  <property name="kdenlive:meta.media.frame_rate_num">25</property>
  <property name="kdenlive:meta.media.frame_rate_den">1</property>
  <property name="kdenlive:meta.media.colorspace">601</property>
  <property name="kdenlive:meta.media.color_trc">4</property>
  <property name="kdenlive:meta.media.width">1280</property>
  <property name="kdenlive:meta.media.height">720</property>
  <property name="kdenlive:meta.media.top_field_first">0</property>
  <property name="kdenlive:meta.media.progressive">1</property>
 </producer>
 <producer id="29" title="Anonymous Submission" out="116" in="0">
  <property name="length">00:00:04:17</property>
  <property name="eof">pause</property>
  <property name="resource">/home/nicolas/Documents/Projets Musique/Barons Freaks/COURTS METRAGES - MAIN/COURTS METRAGES/EpisodeII/scène cave/DSC_0055.MOV</property>
  <property name="seekable">1</property>
  <property name="audio_index">1</property>
  <property name="video_index">0</property>
  <property name="mute_on_pause">1</property>
  <property name="mlt_service">avformat</property>
  <property name="kdenlive:folderid">-1</property>
  <property name="kdenlive:file_size">6420790</property>
  <property name="kdenlive:file_hash">74b8d7ff72d4bd5efbb45556cd5a3a99</property>
  <property name="kdenlive:proxy">/home/nicolas/.cache/kdenlive/proxy/74b8d7ff72d4bd5efbb45556cd5a3a99.mpg</property>
  <property name="proxy_out">116</property>
  <property name="kdenlive:originalurl">scène cave/DSC_0055.MOV</property>
  <property name="global_feed">1</property>
  <property name="kdenlive:meta.media.nb_streams">2</property>
  <property name="kdenlive:meta.media.0.stream.type">video</property>
  <property name="kdenlive:meta.media.0.stream.frame_rate">25</property>
  <property name="kdenlive:meta.media.0.stream.sample_aspect_ratio">0</property>
  <property name="kdenlive:meta.media.0.codec.width">1280</property>
  <property name="kdenlive:meta.media.0.codec.height">720</property>
  <property name="kdenlive:meta.media.0.codec.rotate">0</property>
  <property name="kdenlive:meta.media.0.codec.frame_rate">25</property>
  <property name="kdenlive:meta.media.0.codec.pix_fmt">yuvj420p</property>
  <property name="kdenlive:meta.media.0.codec.sample_aspect_ratio">1</property>
  <property name="kdenlive:meta.media.0.codec.colorspace">601</property>
  <property name="kdenlive:meta.media.0.codec.color_trc">4</property>
  <property name="kdenlive:meta.media.0.codec.name">h264</property>
  <property name="kdenlive:meta.media.0.codec.long_name">H.264 / AVC / MPEG-4 AVC / MPEG-4 part 10</property>
  <property name="kdenlive:meta.media.0.codec.bit_rate">10396011</property>
  <property name="kdenlive:meta.attr.0.stream.creation_time.markup">2017-10-12T15:03:44.000000Z</property>
  <property name="kdenlive:meta.attr.0.stream.language.markup">eng</property>
  <property name="kdenlive:meta.media.1.stream.type">audio</property>
  <property name="kdenlive:meta.media.1.codec.sample_fmt">s16</property>
  <property name="kdenlive:meta.media.1.codec.sample_rate">24000</property>
  <property name="kdenlive:meta.media.1.codec.channels">1</property>
  <property name="kdenlive:meta.media.1.codec.name">pcm_s16le</property>
  <property name="kdenlive:meta.media.1.codec.long_name">PCM signed 16-bit little-endian</property>
  <property name="kdenlive:meta.media.1.codec.bit_rate">384000</property>
  <property name="kdenlive:meta.attr.1.stream.creation_time.markup">2017-10-12T15:03:44.000000Z</property>
  <property name="kdenlive:meta.attr.1.stream.language.markup">eng</property>
  <property name="kdenlive:meta.attr.major_brand.markup">qt  </property>
  <property name="kdenlive:meta.attr.minor_version.markup">537331968</property>
  <property name="kdenlive:meta.attr.compatible_brands.markup">qt  niko</property>
  <property name="kdenlive:meta.attr.creation_time.markup">2017-10-12T15:03:44.000000Z</property>
  <property name="kdenlive:meta.media.sample_aspect_num">1</property>
  <property name="kdenlive:meta.media.sample_aspect_den">1</property>
  <property name="kdenlive:meta.media.frame_rate_num">25</property>
  <property name="kdenlive:meta.media.frame_rate_den">1</property>
  <property name="kdenlive:meta.media.colorspace">601</property>
  <property name="kdenlive:meta.media.color_trc">4</property>
  <property name="kdenlive:meta.media.width">1280</property>
  <property name="kdenlive:meta.media.height">720</property>
  <property name="kdenlive:meta.media.top_field_first">0</property>
  <property name="kdenlive:meta.media.progressive">1</property>
 </producer>
 <producer id="28" title="Anonymous Submission" out="1685" in="0">
  <property name="length">00:01:07:11</property>
  <property name="eof">pause</property>
  <property name="resource">/home/nicolas/Documents/Projets Musique/Barons Freaks/COURTS METRAGES - MAIN/COURTS METRAGES/EpisodeII/scène cave/DSC_0054.MOV</property>
  <property name="seekable">1</property>
  <property name="audio_index">1</property>
  <property name="video_index">0</property>
  <property name="mute_on_pause">1</property>
  <property name="mlt_service">avformat</property>
  <property name="kdenlive:folderid">-1</property>
  <property name="kdenlive:file_size">90561037</property>
  <property name="kdenlive:file_hash">3a8f7a3ec0d9f6298a6a6514cef1d024</property>
  <property name="kdenlive:proxy">/home/nicolas/.cache/kdenlive/proxy/3a8f7a3ec0d9f6298a6a6514cef1d024.mpg</property>
  <property name="proxy_out">1685</property>
  <property name="kdenlive:originalurl">scène cave/DSC_0054.MOV</property>
  <property name="global_feed">1</property>
  <property name="kdenlive:meta.media.nb_streams">2</property>
  <property name="kdenlive:meta.media.0.stream.type">video</property>
  <property name="kdenlive:meta.media.0.stream.frame_rate">25</property>
  <property name="kdenlive:meta.media.0.stream.sample_aspect_ratio">0</property>
  <property name="kdenlive:meta.media.0.codec.width">1280</property>
  <property name="kdenlive:meta.media.0.codec.height">720</property>
  <property name="kdenlive:meta.media.0.codec.rotate">0</property>
  <property name="kdenlive:meta.media.0.codec.frame_rate">25</property>
  <property name="kdenlive:meta.media.0.codec.pix_fmt">yuvj420p</property>
  <property name="kdenlive:meta.media.0.codec.sample_aspect_ratio">1</property>
  <property name="kdenlive:meta.media.0.codec.colorspace">601</property>
  <property name="kdenlive:meta.media.0.codec.color_trc">4</property>
  <property name="kdenlive:meta.media.0.codec.name">h264</property>
  <property name="kdenlive:meta.media.0.codec.long_name">H.264 / AVC / MPEG-4 AVC / MPEG-4 part 10</property>
  <property name="kdenlive:meta.media.0.codec.bit_rate">10343853</property>
  <property name="kdenlive:meta.attr.0.stream.creation_time.markup">2017-10-12T14:55:06.000000Z</property>
  <property name="kdenlive:meta.attr.0.stream.language.markup">eng</property>
  <property name="kdenlive:meta.media.1.stream.type">audio</property>
  <property name="kdenlive:meta.media.1.codec.sample_fmt">s16</property>
  <property name="kdenlive:meta.media.1.codec.sample_rate">24000</property>
  <property name="kdenlive:meta.media.1.codec.channels">1</property>
  <property name="kdenlive:meta.media.1.codec.name">pcm_s16le</property>
  <property name="kdenlive:meta.media.1.codec.long_name">PCM signed 16-bit little-endian</property>
  <property name="kdenlive:meta.media.1.codec.bit_rate">384000</property>
  <property name="kdenlive:meta.attr.1.stream.creation_time.markup">2017-10-12T14:55:06.000000Z</property>
  <property name="kdenlive:meta.attr.1.stream.language.markup">eng</property>
  <property name="kdenlive:meta.attr.major_brand.markup">qt  </property>
  <property name="kdenlive:meta.attr.minor_version.markup">537331968</property>
  <property name="kdenlive:meta.attr.compatible_brands.markup">qt  niko</property>
  <property name="kdenlive:meta.attr.creation_time.markup">2017-10-12T14:55:06.000000Z</property>
  <property name="kdenlive:meta.media.sample_aspect_num">1</property>
  <property name="kdenlive:meta.media.sample_aspect_den">1</property>
  <property name="kdenlive:meta.media.frame_rate_num">25</property>
  <property name="kdenlive:meta.media.frame_rate_den">1</property>
  <property name="kdenlive:meta.media.colorspace">601</property>
  <property name="kdenlive:meta.media.color_trc">4</property>
  <property name="kdenlive:meta.media.width">1280</property>
  <property name="kdenlive:meta.media.height">720</property>
  <property name="kdenlive:meta.media.top_field_first">0</property>
  <property name="kdenlive:meta.media.progressive">1</property>
 </producer>
 <producer id="30" title="Anonymous Submission" out="248" in="0">
  <property name="length">00:00:09:24</property>
  <property name="eof">pause</property>
  <property name="resource">/home/nicolas/Documents/Projets Musique/Barons Freaks/COURTS METRAGES - MAIN/COURTS METRAGES/EpisodeII/scène cave/DSC_0056.MOV</property>
  <property name="seekable">1</property>
  <property name="audio_index">1</property>
  <property name="video_index">0</property>
  <property name="mute_on_pause">1</property>
  <property name="mlt_service">avformat</property>
  <property name="kdenlive:folderid">-1</property>
  <property name="kdenlive:file_size">13880530</property>
  <property name="kdenlive:file_hash">e4dd1c144a4f7c85c73583c031d9af3c</property>
  <property name="kdenlive:proxy">/home/nicolas/.cache/kdenlive/proxy/e4dd1c144a4f7c85c73583c031d9af3c.mpg</property>
  <property name="proxy_out">248</property>
  <property name="kdenlive:originalurl">scène cave/DSC_0056.MOV</property>
  <property name="global_feed">1</property>
  <property name="kdenlive:meta.media.nb_streams">2</property>
  <property name="kdenlive:meta.media.0.stream.type">video</property>
  <property name="kdenlive:meta.media.0.stream.frame_rate">25</property>
  <property name="kdenlive:meta.media.0.stream.sample_aspect_ratio">0</property>
  <property name="kdenlive:meta.media.0.codec.width">1280</property>
  <property name="kdenlive:meta.media.0.codec.height">720</property>
  <property name="kdenlive:meta.media.0.codec.rotate">0</property>
  <property name="kdenlive:meta.media.0.codec.frame_rate">25</property>
  <property name="kdenlive:meta.media.0.codec.pix_fmt">yuvj420p</property>
  <property name="kdenlive:meta.media.0.codec.sample_aspect_ratio">1</property>
  <property name="kdenlive:meta.media.0.codec.colorspace">601</property>
  <property name="kdenlive:meta.media.0.codec.color_trc">4</property>
  <property name="kdenlive:meta.media.0.codec.name">h264</property>
  <property name="kdenlive:meta.media.0.codec.long_name">H.264 / AVC / MPEG-4 AVC / MPEG-4 part 10</property>
  <property name="kdenlive:meta.media.0.codec.bit_rate">10671144</property>
  <property name="kdenlive:meta.attr.0.stream.creation_time.markup">2017-10-12T15:04:17.000000Z</property>
  <property name="kdenlive:meta.attr.0.stream.language.markup">eng</property>
  <property name="kdenlive:meta.media.1.stream.type">audio</property>
  <property name="kdenlive:meta.media.1.codec.sample_fmt">s16</property>
  <property name="kdenlive:meta.media.1.codec.sample_rate">24000</property>
  <property name="kdenlive:meta.media.1.codec.channels">1</property>
  <property name="kdenlive:meta.media.1.codec.name">pcm_s16le</property>
  <property name="kdenlive:meta.media.1.codec.long_name">PCM signed 16-bit little-endian</property>
  <property name="kdenlive:meta.media.1.codec.bit_rate">384000</property>
  <property name="kdenlive:meta.attr.1.stream.creation_time.markup">2017-10-12T15:04:17.000000Z</property>
  <property name="kdenlive:meta.attr.1.stream.language.markup">eng</property>
  <property name="kdenlive:meta.attr.major_brand.markup">qt  </property>
  <property name="kdenlive:meta.attr.minor_version.markup">537331968</property>
  <property name="kdenlive:meta.attr.compatible_brands.markup">qt  niko</property>
  <property name="kdenlive:meta.attr.creation_time.markup">2017-10-12T15:04:17.000000Z</property>
  <property name="kdenlive:meta.media.sample_aspect_num">1</property>
  <property name="kdenlive:meta.media.sample_aspect_den">1</property>
  <property name="kdenlive:meta.media.frame_rate_num">25</property>
  <property name="kdenlive:meta.media.frame_rate_den">1</property>
  <property name="kdenlive:meta.media.colorspace">601</property>
  <property name="kdenlive:meta.media.color_trc">4</property>
  <property name="kdenlive:meta.media.width">1280</property>
  <property name="kdenlive:meta.media.height">720</property>
  <property name="kdenlive:meta.media.top_field_first">0</property>
  <property name="kdenlive:meta.media.progressive">1</property>
 </producer>
 <producer id="32" title="Anonymous Submission" out="419" in="0">
  <property name="length">00:00:16:20</property>
  <property name="eof">pause</property>
  <property name="resource">/home/nicolas/Documents/Projets Musique/Barons Freaks/COURTS METRAGES - MAIN/COURTS METRAGES/EpisodeII/scène cave/DSC_0058.MOV</property>
  <property name="seekable">1</property>
  <property name="audio_index">1</property>
  <property name="video_index">0</property>
  <property name="mute_on_pause">1</property>
  <property name="mlt_service">avformat</property>
  <property name="kdenlive:folderid">-1</property>
  <property name="kdenlive:file_size">23272053</property>
  <property name="kdenlive:file_hash">a21e88641664f7c42d264d9ac3305954</property>
  <property name="kdenlive:proxy">/home/nicolas/.cache/kdenlive/proxy/a21e88641664f7c42d264d9ac3305954.mpg</property>
  <property name="proxy_out">419</property>
  <property name="kdenlive:originalurl">scène cave/DSC_0058.MOV</property>
  <property name="global_feed">1</property>
  <property name="kdenlive:meta.media.nb_streams">2</property>
  <property name="kdenlive:meta.media.0.stream.type">video</property>
  <property name="kdenlive:meta.media.0.stream.frame_rate">25</property>
  <property name="kdenlive:meta.media.0.stream.sample_aspect_ratio">0</property>
  <property name="kdenlive:meta.media.0.codec.width">1280</property>
  <property name="kdenlive:meta.media.0.codec.height">720</property>
  <property name="kdenlive:meta.media.0.codec.rotate">0</property>
  <property name="kdenlive:meta.media.0.codec.frame_rate">25</property>
  <property name="kdenlive:meta.media.0.codec.pix_fmt">yuvj420p</property>
  <property name="kdenlive:meta.media.0.codec.sample_aspect_ratio">1</property>
  <property name="kdenlive:meta.media.0.codec.colorspace">601</property>
  <property name="kdenlive:meta.media.0.codec.color_trc">4</property>
  <property name="kdenlive:meta.media.0.codec.name">h264</property>
  <property name="kdenlive:meta.media.0.codec.long_name">H.264 / AVC / MPEG-4 AVC / MPEG-4 part 10</property>
  <property name="kdenlive:meta.media.0.codec.bit_rate">10642290</property>
  <property name="kdenlive:meta.attr.0.stream.creation_time.markup">2017-10-12T15:06:54.000000Z</property>
  <property name="kdenlive:meta.attr.0.stream.language.markup">eng</property>
  <property name="kdenlive:meta.media.1.stream.type">audio</property>
  <property name="kdenlive:meta.media.1.codec.sample_fmt">s16</property>
  <property name="kdenlive:meta.media.1.codec.sample_rate">24000</property>
  <property name="kdenlive:meta.media.1.codec.channels">1</property>
  <property name="kdenlive:meta.media.1.codec.name">pcm_s16le</property>
  <property name="kdenlive:meta.media.1.codec.long_name">PCM signed 16-bit little-endian</property>
  <property name="kdenlive:meta.media.1.codec.bit_rate">384000</property>
  <property name="kdenlive:meta.attr.1.stream.creation_time.markup">2017-10-12T15:06:54.000000Z</property>
  <property name="kdenlive:meta.attr.1.stream.language.markup">eng</property>
  <property name="kdenlive:meta.attr.major_brand.markup">qt  </property>
  <property name="kdenlive:meta.attr.minor_version.markup">537331968</property>
  <property name="kdenlive:meta.attr.compatible_brands.markup">qt  niko</property>
  <property name="kdenlive:meta.attr.creation_time.markup">2017-10-12T15:06:54.000000Z</property>
  <property name="kdenlive:meta.media.sample_aspect_num">1</property>
  <property name="kdenlive:meta.media.sample_aspect_den">1</property>
  <property name="kdenlive:meta.media.frame_rate_num">25</property>
  <property name="kdenlive:meta.media.frame_rate_den">1</property>
  <property name="kdenlive:meta.media.colorspace">601</property>
  <property name="kdenlive:meta.media.color_trc">4</property>
  <property name="kdenlive:meta.media.width">1280</property>
  <property name="kdenlive:meta.media.height">720</property>
  <property name="kdenlive:meta.media.top_field_first">0</property>
  <property name="kdenlive:meta.media.progressive">1</property>
 </producer>
 <producer id="31" title="Anonymous Submission" out="773" in="0">
  <property name="length">00:00:30:24</property>
  <property name="eof">pause</property>
  <property name="resource">/home/nicolas/Documents/Projets Musique/Barons Freaks/COURTS METRAGES - MAIN/COURTS METRAGES/EpisodeII/scène cave/DSC_0057.MOV</property>
  <property name="seekable">1</property>
  <property name="audio_index">1</property>
  <property name="video_index">0</property>
  <property name="mute_on_pause">1</property>
  <property name="mlt_service">avformat</property>
  <property name="kdenlive:folderid">-1</property>
  <property name="kdenlive:file_size">41884972</property>
  <property name="kdenlive:file_hash">22ba54fdff06c4d213393e94d2cd01a2</property>
  <property name="kdenlive:proxy">/home/nicolas/.cache/kdenlive/proxy/22ba54fdff06c4d213393e94d2cd01a2.mpg</property>
  <property name="proxy_out">773</property>
  <property name="kdenlive:originalurl">scène cave/DSC_0057.MOV</property>
  <property name="global_feed">1</property>
  <property name="kdenlive:meta.media.nb_streams">2</property>
  <property name="kdenlive:meta.media.0.stream.type">video</property>
  <property name="kdenlive:meta.media.0.stream.frame_rate">25</property>
  <property name="kdenlive:meta.media.0.stream.sample_aspect_ratio">0</property>
  <property name="kdenlive:meta.media.0.codec.width">1280</property>
  <property name="kdenlive:meta.media.0.codec.height">720</property>
  <property name="kdenlive:meta.media.0.codec.rotate">0</property>
  <property name="kdenlive:meta.media.0.codec.frame_rate">25</property>
  <property name="kdenlive:meta.media.0.codec.pix_fmt">yuvj420p</property>
  <property name="kdenlive:meta.media.0.codec.sample_aspect_ratio">1</property>
  <property name="kdenlive:meta.media.0.codec.colorspace">601</property>
  <property name="kdenlive:meta.media.0.codec.color_trc">4</property>
  <property name="kdenlive:meta.media.0.codec.name">h264</property>
  <property name="kdenlive:meta.media.0.codec.long_name">H.264 / AVC / MPEG-4 AVC / MPEG-4 part 10</property>
  <property name="kdenlive:meta.media.0.codec.bit_rate">10407272</property>
  <property name="kdenlive:meta.attr.0.stream.creation_time.markup">2017-10-12T15:05:18.000000Z</property>
  <property name="kdenlive:meta.attr.0.stream.language.markup">eng</property>
  <property name="kdenlive:meta.media.1.stream.type">audio</property>
  <property name="kdenlive:meta.media.1.codec.sample_fmt">s16</property>
  <property name="kdenlive:meta.media.1.codec.sample_rate">24000</property>
  <property name="kdenlive:meta.media.1.codec.channels">1</property>
  <property name="kdenlive:meta.media.1.codec.name">pcm_s16le</property>
  <property name="kdenlive:meta.media.1.codec.long_name">PCM signed 16-bit little-endian</property>
  <property name="kdenlive:meta.media.1.codec.bit_rate">384000</property>
  <property name="kdenlive:meta.attr.1.stream.creation_time.markup">2017-10-12T15:05:18.000000Z</property>
  <property name="kdenlive:meta.attr.1.stream.language.markup">eng</property>
  <property name="kdenlive:meta.attr.major_brand.markup">qt  </property>
  <property name="kdenlive:meta.attr.minor_version.markup">537331968</property>
  <property name="kdenlive:meta.attr.compatible_brands.markup">qt  niko</property>
  <property name="kdenlive:meta.attr.creation_time.markup">2017-10-12T15:05:18.000000Z</property>
  <property name="kdenlive:meta.media.sample_aspect_num">1</property>
  <property name="kdenlive:meta.media.sample_aspect_den">1</property>
  <property name="kdenlive:meta.media.frame_rate_num">25</property>
  <property name="kdenlive:meta.media.frame_rate_den">1</property>
  <property name="kdenlive:meta.media.colorspace">601</property>
  <property name="kdenlive:meta.media.color_trc">4</property>
  <property name="kdenlive:meta.media.width">1280</property>
  <property name="kdenlive:meta.media.height">720</property>
  <property name="kdenlive:meta.media.top_field_first">0</property>
  <property name="kdenlive:meta.media.progressive">1</property>
 </producer>
 <producer id="33" title="Anonymous Submission" out="434" in="0">
  <property name="length">00:00:17:10</property>
  <property name="eof">pause</property>
  <property name="resource">/home/nicolas/Documents/Projets Musique/Barons Freaks/COURTS METRAGES - MAIN/COURTS METRAGES/EpisodeII/scène cave/DSC_0059.MOV</property>
  <property name="seekable">1</property>
  <property name="audio_index">1</property>
  <property name="video_index">0</property>
  <property name="mute_on_pause">1</property>
  <property name="mlt_service">avformat</property>
  <property name="kdenlive:folderid">-1</property>
  <property name="kdenlive:file_size">23947027</property>
  <property name="kdenlive:file_hash">499e27cd2b4b7e0d5f161272d7313aaf</property>
  <property name="kdenlive:proxy">/home/nicolas/.cache/kdenlive/proxy/499e27cd2b4b7e0d5f161272d7313aaf.mpg</property>
  <property name="proxy_out">434</property>
  <property name="kdenlive:originalurl">scène cave/DSC_0059.MOV</property>
  <property name="global_feed">1</property>
  <property name="kdenlive:meta.media.nb_streams">2</property>
  <property name="kdenlive:meta.media.0.stream.type">video</property>
  <property name="kdenlive:meta.media.0.stream.frame_rate">25</property>
  <property name="kdenlive:meta.media.0.stream.sample_aspect_ratio">0</property>
  <property name="kdenlive:meta.media.0.codec.width">1280</property>
  <property name="kdenlive:meta.media.0.codec.height">720</property>
  <property name="kdenlive:meta.media.0.codec.rotate">0</property>
  <property name="kdenlive:meta.media.0.codec.frame_rate">25</property>
  <property name="kdenlive:meta.media.0.codec.pix_fmt">yuvj420p</property>
  <property name="kdenlive:meta.media.0.codec.sample_aspect_ratio">1</property>
  <property name="kdenlive:meta.media.0.codec.colorspace">601</property>
  <property name="kdenlive:meta.media.0.codec.color_trc">4</property>
  <property name="kdenlive:meta.media.0.codec.name">h264</property>
  <property name="kdenlive:meta.media.0.codec.long_name">H.264 / AVC / MPEG-4 AVC / MPEG-4 part 10</property>
  <property name="kdenlive:meta.media.0.codec.bit_rate">10572027</property>
  <property name="kdenlive:meta.attr.0.stream.creation_time.markup">2017-10-12T15:07:34.000000Z</property>
  <property name="kdenlive:meta.attr.0.stream.language.markup">eng</property>
  <property name="kdenlive:meta.media.1.stream.type">audio</property>
  <property name="kdenlive:meta.media.1.codec.sample_fmt">s16</property>
  <property name="kdenlive:meta.media.1.codec.sample_rate">24000</property>
  <property name="kdenlive:meta.media.1.codec.channels">1</property>
  <property name="kdenlive:meta.media.1.codec.name">pcm_s16le</property>
  <property name="kdenlive:meta.media.1.codec.long_name">PCM signed 16-bit little-endian</property>
  <property name="kdenlive:meta.media.1.codec.bit_rate">384000</property>
  <property name="kdenlive:meta.attr.1.stream.creation_time.markup">2017-10-12T15:07:34.000000Z</property>
  <property name="kdenlive:meta.attr.1.stream.language.markup">eng</property>
  <property name="kdenlive:meta.attr.major_brand.markup">qt  </property>
  <property name="kdenlive:meta.attr.minor_version.markup">537331968</property>
  <property name="kdenlive:meta.attr.compatible_brands.markup">qt  niko</property>
  <property name="kdenlive:meta.attr.creation_time.markup">2017-10-12T15:07:34.000000Z</property>
  <property name="kdenlive:meta.media.sample_aspect_num">1</property>
  <property name="kdenlive:meta.media.sample_aspect_den">1</property>
  <property name="kdenlive:meta.media.frame_rate_num">25</property>
  <property name="kdenlive:meta.media.frame_rate_den">1</property>
  <property name="kdenlive:meta.media.colorspace">601</property>
  <property name="kdenlive:meta.media.color_trc">4</property>
  <property name="kdenlive:meta.media.width">1280</property>
  <property name="kdenlive:meta.media.height">720</property>
  <property name="kdenlive:meta.media.top_field_first">0</property>
  <property name="kdenlive:meta.media.progressive">1</property>
 </producer>
 <producer id="34" title="Anonymous Submission" out="449" in="0">
  <property name="length">00:00:18:00</property>
  <property name="eof">pause</property>
  <property name="resource">/home/nicolas/Documents/Projets Musique/Barons Freaks/COURTS METRAGES - MAIN/COURTS METRAGES/EpisodeII/scène cave/DSC_0060.MOV</property>
  <property name="seekable">1</property>
  <property name="audio_index">1</property>
  <property name="video_index">0</property>
  <property name="mute_on_pause">1</property>
  <property name="mlt_service">avformat</property>
  <property name="kdenlive:folderid">-1</property>
  <property name="kdenlive:file_size">24994681</property>
  <property name="kdenlive:file_hash">db2ba16615e6a4409b785ddb352f8547</property>
  <property name="kdenlive:proxy">/home/nicolas/.cache/kdenlive/proxy/db2ba16615e6a4409b785ddb352f8547.mpg</property>
  <property name="proxy_out">449</property>
  <property name="kdenlive:originalurl">scène cave/DSC_0060.MOV</property>
  <property name="global_feed">1</property>
  <property name="kdenlive:meta.media.nb_streams">2</property>
  <property name="kdenlive:meta.media.0.stream.type">video</property>
  <property name="kdenlive:meta.media.0.stream.frame_rate">25</property>
  <property name="kdenlive:meta.media.0.stream.sample_aspect_ratio">0</property>
  <property name="kdenlive:meta.media.0.codec.width">1280</property>
  <property name="kdenlive:meta.media.0.codec.height">720</property>
  <property name="kdenlive:meta.media.0.codec.rotate">0</property>
  <property name="kdenlive:meta.media.0.codec.frame_rate">25</property>
  <property name="kdenlive:meta.media.0.codec.pix_fmt">yuvj420p</property>
  <property name="kdenlive:meta.media.0.codec.sample_aspect_ratio">1</property>
  <property name="kdenlive:meta.media.0.codec.colorspace">601</property>
  <property name="kdenlive:meta.media.0.codec.color_trc">4</property>
  <property name="kdenlive:meta.media.0.codec.name">h264</property>
  <property name="kdenlive:meta.media.0.codec.long_name">H.264 / AVC / MPEG-4 AVC / MPEG-4 part 10</property>
  <property name="kdenlive:meta.media.0.codec.bit_rate">10672213</property>
  <property name="kdenlive:meta.attr.0.stream.creation_time.markup">2017-10-12T15:08:32.000000Z</property>
  <property name="kdenlive:meta.attr.0.stream.language.markup">eng</property>
  <property name="kdenlive:meta.media.1.stream.type">audio</property>
  <property name="kdenlive:meta.media.1.codec.sample_fmt">s16</property>
  <property name="kdenlive:meta.media.1.codec.sample_rate">24000</property>
  <property name="kdenlive:meta.media.1.codec.channels">1</property>
  <property name="kdenlive:meta.media.1.codec.name">pcm_s16le</property>
  <property name="kdenlive:meta.media.1.codec.long_name">PCM signed 16-bit little-endian</property>
  <property name="kdenlive:meta.media.1.codec.bit_rate">384000</property>
  <property name="kdenlive:meta.attr.1.stream.creation_time.markup">2017-10-12T15:08:32.000000Z</property>
  <property name="kdenlive:meta.attr.1.stream.language.markup">eng</property>
  <property name="kdenlive:meta.attr.major_brand.markup">qt  </property>
  <property name="kdenlive:meta.attr.minor_version.markup">537331968</property>
  <property name="kdenlive:meta.attr.compatible_brands.markup">qt  niko</property>
  <property name="kdenlive:meta.attr.creation_time.markup">2017-10-12T15:08:32.000000Z</property>
  <property name="kdenlive:meta.media.sample_aspect_num">1</property>
  <property name="kdenlive:meta.media.sample_aspect_den">1</property>
  <property name="kdenlive:meta.media.frame_rate_num">25</property>
  <property name="kdenlive:meta.media.frame_rate_den">1</property>
  <property name="kdenlive:meta.media.colorspace">601</property>
  <property name="kdenlive:meta.media.color_trc">4</property>
  <property name="kdenlive:meta.media.width">1280</property>
  <property name="kdenlive:meta.media.height">720</property>
  <property name="kdenlive:meta.media.top_field_first">0</property>
  <property name="kdenlive:meta.media.progressive">1</property>
 </producer>
 <producer id="35" title="Anonymous Submission" out="305" in="0">
  <property name="length">00:00:12:06</property>
  <property name="eof">pause</property>
  <property name="resource">/home/nicolas/Documents/Projets Musique/Barons Freaks/COURTS METRAGES - MAIN/COURTS METRAGES/EpisodeII/scène cave/DSC_0061.MOV</property>
  <property name="seekable">1</property>
  <property name="audio_index">1</property>
  <property name="video_index">0</property>
  <property name="mute_on_pause">1</property>
  <property name="mlt_service">avformat</property>
  <property name="kdenlive:folderid">-1</property>
  <property name="kdenlive:file_size">17146205</property>
  <property name="kdenlive:file_hash">8224797cba37a0cc721e14b491068b54</property>
  <property name="kdenlive:proxy">/home/nicolas/.cache/kdenlive/proxy/8224797cba37a0cc721e14b491068b54.mpg</property>
  <property name="proxy_out">305</property>
  <property name="kdenlive:originalurl">scène cave/DSC_0061.MOV</property>
  <property name="global_feed">1</property>
  <property name="kdenlive:meta.media.nb_streams">2</property>
  <property name="kdenlive:meta.media.0.stream.type">video</property>
  <property name="kdenlive:meta.media.0.stream.frame_rate">25</property>
  <property name="kdenlive:meta.media.0.stream.sample_aspect_ratio">0</property>
  <property name="kdenlive:meta.media.0.codec.width">1280</property>
  <property name="kdenlive:meta.media.0.codec.height">720</property>
  <property name="kdenlive:meta.media.0.codec.rotate">0</property>
  <property name="kdenlive:meta.media.0.codec.frame_rate">25</property>
  <property name="kdenlive:meta.media.0.codec.pix_fmt">yuvj420p</property>
  <property name="kdenlive:meta.media.0.codec.sample_aspect_ratio">1</property>
  <property name="kdenlive:meta.media.0.codec.colorspace">601</property>
  <property name="kdenlive:meta.media.0.codec.color_trc">4</property>
  <property name="kdenlive:meta.media.0.codec.name">h264</property>
  <property name="kdenlive:meta.media.0.codec.long_name">H.264 / AVC / MPEG-4 AVC / MPEG-4 part 10</property>
  <property name="kdenlive:meta.media.0.codec.bit_rate">10749466</property>
  <property name="kdenlive:meta.attr.0.stream.creation_time.markup">2017-10-12T15:21:37.000000Z</property>
  <property name="kdenlive:meta.attr.0.stream.language.markup">eng</property>
  <property name="kdenlive:meta.media.1.stream.type">audio</property>
  <property name="kdenlive:meta.media.1.codec.sample_fmt">s16</property>
  <property name="kdenlive:meta.media.1.codec.sample_rate">24000</property>
  <property name="kdenlive:meta.media.1.codec.channels">1</property>
  <property name="kdenlive:meta.media.1.codec.name">pcm_s16le</property>
  <property name="kdenlive:meta.media.1.codec.long_name">PCM signed 16-bit little-endian</property>
  <property name="kdenlive:meta.media.1.codec.bit_rate">384000</property>
  <property name="kdenlive:meta.attr.1.stream.creation_time.markup">2017-10-12T15:21:37.000000Z</property>
  <property name="kdenlive:meta.attr.1.stream.language.markup">eng</property>
  <property name="kdenlive:meta.attr.major_brand.markup">qt  </property>
  <property name="kdenlive:meta.attr.minor_version.markup">537331968</property>
  <property name="kdenlive:meta.attr.compatible_brands.markup">qt  niko</property>
  <property name="kdenlive:meta.attr.creation_time.markup">2017-10-12T15:21:37.000000Z</property>
  <property name="kdenlive:meta.media.sample_aspect_num">1</property>
  <property name="kdenlive:meta.media.sample_aspect_den">1</property>
  <property name="kdenlive:meta.media.frame_rate_num">25</property>
  <property name="kdenlive:meta.media.frame_rate_den">1</property>
  <property name="kdenlive:meta.media.colorspace">601</property>
  <property name="kdenlive:meta.media.color_trc">4</property>
  <property name="kdenlive:meta.media.width">1280</property>
  <property name="kdenlive:meta.media.height">720</property>
  <property name="kdenlive:meta.media.top_field_first">0</property>
  <property name="kdenlive:meta.media.progressive">1</property>
 </producer>
 <producer id="36" title="Anonymous Submission" out="542" in="0">
  <property name="length">00:00:21:18</property>
  <property name="eof">pause</property>
  <property name="resource">/home/nicolas/Documents/Projets Musique/Barons Freaks/COURTS METRAGES - MAIN/COURTS METRAGES/EpisodeII/scène cave/DSC_0062.MOV</property>
  <property name="seekable">1</property>
  <property name="audio_index">1</property>
  <property name="video_index">0</property>
  <property name="mute_on_pause">1</property>
  <property name="mlt_service">avformat</property>
  <property name="kdenlive:folderid">-1</property>
  <property name="kdenlive:file_size">31238787</property>
  <property name="kdenlive:file_hash">22fae00423bd6231f5145cb14085299c</property>
  <property name="kdenlive:proxy">/home/nicolas/.cache/kdenlive/proxy/22fae00423bd6231f5145cb14085299c.mpg</property>
  <property name="proxy_out">542</property>
  <property name="kdenlive:originalurl">scène cave/DSC_0062.MOV</property>
  <property name="global_feed">1</property>
  <property name="kdenlive:meta.media.nb_streams">2</property>
  <property name="kdenlive:meta.media.0.stream.type">video</property>
  <property name="kdenlive:meta.media.0.stream.frame_rate">25</property>
  <property name="kdenlive:meta.media.0.stream.sample_aspect_ratio">0</property>
  <property name="kdenlive:meta.media.0.codec.width">1280</property>
  <property name="kdenlive:meta.media.0.codec.height">720</property>
  <property name="kdenlive:meta.media.0.codec.rotate">0</property>
  <property name="kdenlive:meta.media.0.codec.frame_rate">25</property>
  <property name="kdenlive:meta.media.0.codec.pix_fmt">yuvj420p</property>
  <property name="kdenlive:meta.media.0.codec.sample_aspect_ratio">1</property>
  <property name="kdenlive:meta.media.0.codec.colorspace">601</property>
  <property name="kdenlive:meta.media.0.codec.color_trc">4</property>
  <property name="kdenlive:meta.media.0.codec.name">h264</property>
  <property name="kdenlive:meta.media.0.codec.long_name">H.264 / AVC / MPEG-4 AVC / MPEG-4 part 10</property>
  <property name="kdenlive:meta.media.0.codec.bit_rate">11080130</property>
  <property name="kdenlive:meta.attr.0.stream.creation_time.markup">2017-10-12T15:23:50.000000Z</property>
  <property name="kdenlive:meta.attr.0.stream.language.markup">eng</property>
  <property name="kdenlive:meta.media.1.stream.type">audio</property>
  <property name="kdenlive:meta.media.1.codec.sample_fmt">s16</property>
  <property name="kdenlive:meta.media.1.codec.sample_rate">24000</property>
  <property name="kdenlive:meta.media.1.codec.channels">1</property>
  <property name="kdenlive:meta.media.1.codec.name">pcm_s16le</property>
  <property name="kdenlive:meta.media.1.codec.long_name">PCM signed 16-bit little-endian</property>
  <property name="kdenlive:meta.media.1.codec.bit_rate">384000</property>
  <property name="kdenlive:meta.attr.1.stream.creation_time.markup">2017-10-12T15:23:50.000000Z</property>
  <property name="kdenlive:meta.attr.1.stream.language.markup">eng</property>
  <property name="kdenlive:meta.attr.major_brand.markup">qt  </property>
  <property name="kdenlive:meta.attr.minor_version.markup">537331968</property>
  <property name="kdenlive:meta.attr.compatible_brands.markup">qt  niko</property>
  <property name="kdenlive:meta.attr.creation_time.markup">2017-10-12T15:23:50.000000Z</property>
  <property name="kdenlive:meta.media.sample_aspect_num">1</property>
  <property name="kdenlive:meta.media.sample_aspect_den">1</property>
  <property name="kdenlive:meta.media.frame_rate_num">25</property>
  <property name="kdenlive:meta.media.frame_rate_den">1</property>
  <property name="kdenlive:meta.media.colorspace">601</property>
  <property name="kdenlive:meta.media.color_trc">4</property>
  <property name="kdenlive:meta.media.width">1280</property>
  <property name="kdenlive:meta.media.height">720</property>
  <property name="kdenlive:meta.media.top_field_first">0</property>
  <property name="kdenlive:meta.media.progressive">1</property>
 </producer>
 <producer id="38" title="Anonymous Submission" out="476" in="0">
  <property name="length">00:00:19:02</property>
  <property name="eof">pause</property>
  <property name="resource">/home/nicolas/Documents/Projets Musique/Barons Freaks/COURTS METRAGES - MAIN/COURTS METRAGES/EpisodeII/scène cave/DSC_0064.MOV</property>
  <property name="seekable">1</property>
  <property name="audio_index">1</property>
  <property name="video_index">0</property>
  <property name="mute_on_pause">1</property>
  <property name="mlt_service">avformat</property>
  <property name="kdenlive:folderid">-1</property>
  <property name="kdenlive:file_size">25748146</property>
  <property name="kdenlive:file_hash">3f9db6dfa9c40cca89d4bd332735ff1a</property>
  <property name="kdenlive:proxy">/home/nicolas/.cache/kdenlive/proxy/3f9db6dfa9c40cca89d4bd332735ff1a.mpg</property>
  <property name="proxy_out">476</property>
  <property name="kdenlive:originalurl">scène cave/DSC_0064.MOV</property>
  <property name="global_feed">1</property>
  <property name="kdenlive:meta.media.nb_streams">2</property>
  <property name="kdenlive:meta.media.0.stream.type">video</property>
  <property name="kdenlive:meta.media.0.stream.frame_rate">25</property>
  <property name="kdenlive:meta.media.0.stream.sample_aspect_ratio">0</property>
  <property name="kdenlive:meta.media.0.codec.width">1280</property>
  <property name="kdenlive:meta.media.0.codec.height">720</property>
  <property name="kdenlive:meta.media.0.codec.rotate">0</property>
  <property name="kdenlive:meta.media.0.codec.frame_rate">25</property>
  <property name="kdenlive:meta.media.0.codec.pix_fmt">yuvj420p</property>
  <property name="kdenlive:meta.media.0.codec.sample_aspect_ratio">1</property>
  <property name="kdenlive:meta.media.0.codec.colorspace">601</property>
  <property name="kdenlive:meta.media.0.codec.color_trc">4</property>
  <property name="kdenlive:meta.media.0.codec.name">h264</property>
  <property name="kdenlive:meta.media.0.codec.long_name">H.264 / AVC / MPEG-4 AVC / MPEG-4 part 10</property>
  <property name="kdenlive:meta.media.0.codec.bit_rate">10363967</property>
  <property name="kdenlive:meta.attr.0.stream.creation_time.markup">2017-10-12T15:30:56.000000Z</property>
  <property name="kdenlive:meta.attr.0.stream.language.markup">eng</property>
  <property name="kdenlive:meta.media.1.stream.type">audio</property>
  <property name="kdenlive:meta.media.1.codec.sample_fmt">s16</property>
  <property name="kdenlive:meta.media.1.codec.sample_rate">24000</property>
  <property name="kdenlive:meta.media.1.codec.channels">1</property>
  <property name="kdenlive:meta.media.1.codec.name">pcm_s16le</property>
  <property name="kdenlive:meta.media.1.codec.long_name">PCM signed 16-bit little-endian</property>
  <property name="kdenlive:meta.media.1.codec.bit_rate">384000</property>
  <property name="kdenlive:meta.attr.1.stream.creation_time.markup">2017-10-12T15:30:56.000000Z</property>
  <property name="kdenlive:meta.attr.1.stream.language.markup">eng</property>
  <property name="kdenlive:meta.attr.major_brand.markup">qt  </property>
  <property name="kdenlive:meta.attr.minor_version.markup">537331968</property>
  <property name="kdenlive:meta.attr.compatible_brands.markup">qt  niko</property>
  <property name="kdenlive:meta.attr.creation_time.markup">2017-10-12T15:30:56.000000Z</property>
  <property name="kdenlive:meta.media.sample_aspect_num">1</property>
  <property name="kdenlive:meta.media.sample_aspect_den">1</property>
  <property name="kdenlive:meta.media.frame_rate_num">25</property>
  <property name="kdenlive:meta.media.frame_rate_den">1</property>
  <property name="kdenlive:meta.media.colorspace">601</property>
  <property name="kdenlive:meta.media.color_trc">4</property>
  <property name="kdenlive:meta.media.width">1280</property>
  <property name="kdenlive:meta.media.height">720</property>
  <property name="kdenlive:meta.media.top_field_first">0</property>
  <property name="kdenlive:meta.media.progressive">1</property>
 </producer>
 <producer id="39" title="Anonymous Submission" out="104" in="0">
  <property name="length">00:00:04:05</property>
  <property name="eof">pause</property>
  <property name="resource">/home/nicolas/Documents/Projets Musique/Barons Freaks/COURTS METRAGES - MAIN/COURTS METRAGES/EpisodeII/scène cave/DSC_0065.MOV</property>
  <property name="seekable">1</property>
  <property name="audio_index">1</property>
  <property name="video_index">0</property>
  <property name="mute_on_pause">1</property>
  <property name="mlt_service">avformat</property>
  <property name="kdenlive:folderid">-1</property>
  <property name="kdenlive:file_size">5669336</property>
  <property name="kdenlive:file_hash">e6fd3290e6c277b93d8bc33196853e33</property>
  <property name="kdenlive:proxy">/home/nicolas/.cache/kdenlive/proxy/e6fd3290e6c277b93d8bc33196853e33.mpg</property>
  <property name="proxy_out">104</property>
  <property name="kdenlive:originalurl">scène cave/DSC_0065.MOV</property>
  <property name="global_feed">1</property>
  <property name="kdenlive:meta.media.nb_streams">2</property>
  <property name="kdenlive:meta.media.0.stream.type">video</property>
  <property name="kdenlive:meta.media.0.stream.frame_rate">25</property>
  <property name="kdenlive:meta.media.0.stream.sample_aspect_ratio">0</property>
  <property name="kdenlive:meta.media.0.codec.width">1280</property>
  <property name="kdenlive:meta.media.0.codec.height">720</property>
  <property name="kdenlive:meta.media.0.codec.rotate">0</property>
  <property name="kdenlive:meta.media.0.codec.frame_rate">25</property>
  <property name="kdenlive:meta.media.0.codec.pix_fmt">yuvj420p</property>
  <property name="kdenlive:meta.media.0.codec.sample_aspect_ratio">1</property>
  <property name="kdenlive:meta.media.0.codec.colorspace">601</property>
  <property name="kdenlive:meta.media.0.codec.color_trc">4</property>
  <property name="kdenlive:meta.media.0.codec.name">h264</property>
  <property name="kdenlive:meta.media.0.codec.long_name">H.264 / AVC / MPEG-4 AVC / MPEG-4 part 10</property>
  <property name="kdenlive:meta.media.0.codec.bit_rate">10205007</property>
  <property name="kdenlive:meta.attr.0.stream.creation_time.markup">2017-10-12T15:31:18.000000Z</property>
  <property name="kdenlive:meta.attr.0.stream.language.markup">eng</property>
  <property name="kdenlive:meta.media.1.stream.type">audio</property>
  <property name="kdenlive:meta.media.1.codec.sample_fmt">s16</property>
  <property name="kdenlive:meta.media.1.codec.sample_rate">24000</property>
  <property name="kdenlive:meta.media.1.codec.channels">1</property>
  <property name="kdenlive:meta.media.1.codec.name">pcm_s16le</property>
  <property name="kdenlive:meta.media.1.codec.long_name">PCM signed 16-bit little-endian</property>
  <property name="kdenlive:meta.media.1.codec.bit_rate">384000</property>
  <property name="kdenlive:meta.attr.1.stream.creation_time.markup">2017-10-12T15:31:18.000000Z</property>
  <property name="kdenlive:meta.attr.1.stream.language.markup">eng</property>
  <property name="kdenlive:meta.attr.major_brand.markup">qt  </property>
  <property name="kdenlive:meta.attr.minor_version.markup">537331968</property>
  <property name="kdenlive:meta.attr.compatible_brands.markup">qt  niko</property>
  <property name="kdenlive:meta.attr.creation_time.markup">2017-10-12T15:31:18.000000Z</property>
  <property name="kdenlive:meta.media.sample_aspect_num">1</property>
  <property name="kdenlive:meta.media.sample_aspect_den">1</property>
  <property name="kdenlive:meta.media.frame_rate_num">25</property>
  <property name="kdenlive:meta.media.frame_rate_den">1</property>
  <property name="kdenlive:meta.media.colorspace">601</property>
  <property name="kdenlive:meta.media.color_trc">4</property>
  <property name="kdenlive:meta.media.width">1280</property>
  <property name="kdenlive:meta.media.height">720</property>
  <property name="kdenlive:meta.media.top_field_first">0</property>
  <property name="kdenlive:meta.media.progressive">1</property>
 </producer>
 <producer id="37" title="Anonymous Submission" out="1196" in="0">
  <property name="length">00:00:47:22</property>
  <property name="eof">pause</property>
  <property name="resource">/home/nicolas/Documents/Projets Musique/Barons Freaks/COURTS METRAGES - MAIN/COURTS METRAGES/EpisodeII/scène cave/DSC_0063.MOV</property>
  <property name="seekable">1</property>
  <property name="audio_index">1</property>
  <property name="video_index">0</property>
  <property name="mute_on_pause">1</property>
  <property name="mlt_service">avformat</property>
  <property name="kdenlive:folderid">-1</property>
  <property name="kdenlive:file_size">65834210</property>
  <property name="kdenlive:file_hash">731f384e4801e1263455353c85eaaad9</property>
  <property name="kdenlive:proxy">/home/nicolas/.cache/kdenlive/proxy/731f384e4801e1263455353c85eaaad9.mpg</property>
  <property name="proxy_out">1196</property>
  <property name="kdenlive:originalurl">scène cave/DSC_0063.MOV</property>
  <property name="global_feed">1</property>
  <property name="kdenlive:meta.media.nb_streams">2</property>
  <property name="kdenlive:meta.media.0.stream.type">video</property>
  <property name="kdenlive:meta.media.0.stream.frame_rate">25</property>
  <property name="kdenlive:meta.media.0.stream.sample_aspect_ratio">0</property>
  <property name="kdenlive:meta.media.0.codec.width">1280</property>
  <property name="kdenlive:meta.media.0.codec.height">720</property>
  <property name="kdenlive:meta.media.0.codec.rotate">0</property>
  <property name="kdenlive:meta.media.0.codec.frame_rate">25</property>
  <property name="kdenlive:meta.media.0.codec.pix_fmt">yuvj420p</property>
  <property name="kdenlive:meta.media.0.codec.sample_aspect_ratio">1</property>
  <property name="kdenlive:meta.media.0.codec.colorspace">601</property>
  <property name="kdenlive:meta.media.0.codec.color_trc">4</property>
  <property name="kdenlive:meta.media.0.codec.name">h264</property>
  <property name="kdenlive:meta.media.0.codec.long_name">H.264 / AVC / MPEG-4 AVC / MPEG-4 part 10</property>
  <property name="kdenlive:meta.media.0.codec.bit_rate">10595639</property>
  <property name="kdenlive:meta.attr.0.stream.creation_time.markup">2017-10-12T15:25:29.000000Z</property>
  <property name="kdenlive:meta.attr.0.stream.language.markup">eng</property>
  <property name="kdenlive:meta.media.1.stream.type">audio</property>
  <property name="kdenlive:meta.media.1.codec.sample_fmt">s16</property>
  <property name="kdenlive:meta.media.1.codec.sample_rate">24000</property>
  <property name="kdenlive:meta.media.1.codec.channels">1</property>
  <property name="kdenlive:meta.media.1.codec.name">pcm_s16le</property>
  <property name="kdenlive:meta.media.1.codec.long_name">PCM signed 16-bit little-endian</property>
  <property name="kdenlive:meta.media.1.codec.bit_rate">384000</property>
  <property name="kdenlive:meta.attr.1.stream.creation_time.markup">2017-10-12T15:25:29.000000Z</property>
  <property name="kdenlive:meta.attr.1.stream.language.markup">eng</property>
  <property name="kdenlive:meta.attr.major_brand.markup">qt  </property>
  <property name="kdenlive:meta.attr.minor_version.markup">537331968</property>
  <property name="kdenlive:meta.attr.compatible_brands.markup">qt  niko</property>
  <property name="kdenlive:meta.attr.creation_time.markup">2017-10-12T15:25:29.000000Z</property>
  <property name="kdenlive:meta.media.sample_aspect_num">1</property>
  <property name="kdenlive:meta.media.sample_aspect_den">1</property>
  <property name="kdenlive:meta.media.frame_rate_num">25</property>
  <property name="kdenlive:meta.media.frame_rate_den">1</property>
  <property name="kdenlive:meta.media.colorspace">601</property>
  <property name="kdenlive:meta.media.color_trc">4</property>
  <property name="kdenlive:meta.media.width">1280</property>
  <property name="kdenlive:meta.media.height">720</property>
  <property name="kdenlive:meta.media.top_field_first">0</property>
  <property name="kdenlive:meta.media.progressive">1</property>
 </producer>
 <producer id="41" title="Anonymous Submission" out="302" in="0">
  <property name="length">00:00:12:03</property>
  <property name="eof">pause</property>
  <property name="resource">/home/nicolas/Documents/Projets Musique/Barons Freaks/COURTS METRAGES - MAIN/COURTS METRAGES/EpisodeII/scène cave/DSC_0079.MOV</property>
  <property name="seekable">1</property>
  <property name="audio_index">1</property>
  <property name="video_index">0</property>
  <property name="mute_on_pause">1</property>
  <property name="mlt_service">avformat</property>
  <property name="kdenlive:folderid">-1</property>
  <property name="kdenlive:file_size">17250396</property>
  <property name="kdenlive:file_hash">458febe2cfca6c8026beed79091887c5</property>
  <property name="kdenlive:proxy">/home/nicolas/.cache/kdenlive/proxy/458febe2cfca6c8026beed79091887c5.mpg</property>
  <property name="proxy_out">302</property>
  <property name="kdenlive:originalurl">scène cave/DSC_0079.MOV</property>
  <property name="global_feed">1</property>
  <property name="kdenlive:meta.media.nb_streams">2</property>
  <property name="kdenlive:meta.media.0.stream.type">video</property>
  <property name="kdenlive:meta.media.0.stream.frame_rate">25</property>
  <property name="kdenlive:meta.media.0.stream.sample_aspect_ratio">0</property>
  <property name="kdenlive:meta.media.0.codec.width">1280</property>
  <property name="kdenlive:meta.media.0.codec.height">720</property>
  <property name="kdenlive:meta.media.0.codec.rotate">0</property>
  <property name="kdenlive:meta.media.0.codec.frame_rate">25</property>
  <property name="kdenlive:meta.media.0.codec.pix_fmt">yuvj420p</property>
  <property name="kdenlive:meta.media.0.codec.sample_aspect_ratio">1</property>
  <property name="kdenlive:meta.media.0.codec.colorspace">601</property>
  <property name="kdenlive:meta.media.0.codec.color_trc">4</property>
  <property name="kdenlive:meta.media.0.codec.name">h264</property>
  <property name="kdenlive:meta.media.0.codec.long_name">H.264 / AVC / MPEG-4 AVC / MPEG-4 part 10</property>
  <property name="kdenlive:meta.media.0.codec.bit_rate">10927068</property>
  <property name="kdenlive:meta.attr.0.stream.creation_time.markup">2017-10-20T11:03:54.000000Z</property>
  <property name="kdenlive:meta.attr.0.stream.language.markup">eng</property>
  <property name="kdenlive:meta.media.1.stream.type">audio</property>
  <property name="kdenlive:meta.media.1.codec.sample_fmt">s16</property>
  <property name="kdenlive:meta.media.1.codec.sample_rate">24000</property>
  <property name="kdenlive:meta.media.1.codec.channels">1</property>
  <property name="kdenlive:meta.media.1.codec.name">pcm_s16le</property>
  <property name="kdenlive:meta.media.1.codec.long_name">PCM signed 16-bit little-endian</property>
  <property name="kdenlive:meta.media.1.codec.bit_rate">384000</property>
  <property name="kdenlive:meta.attr.1.stream.creation_time.markup">2017-10-20T11:03:54.000000Z</property>
  <property name="kdenlive:meta.attr.1.stream.language.markup">eng</property>
  <property name="kdenlive:meta.attr.major_brand.markup">qt  </property>
  <property name="kdenlive:meta.attr.minor_version.markup">537331968</property>
  <property name="kdenlive:meta.attr.compatible_brands.markup">qt  niko</property>
  <property name="kdenlive:meta.attr.creation_time.markup">2017-10-20T11:03:54.000000Z</property>
  <property name="kdenlive:meta.media.sample_aspect_num">1</property>
  <property name="kdenlive:meta.media.sample_aspect_den">1</property>
  <property name="kdenlive:meta.media.frame_rate_num">25</property>
  <property name="kdenlive:meta.media.frame_rate_den">1</property>
  <property name="kdenlive:meta.media.colorspace">601</property>
  <property name="kdenlive:meta.media.color_trc">4</property>
  <property name="kdenlive:meta.media.width">1280</property>
  <property name="kdenlive:meta.media.height">720</property>
  <property name="kdenlive:meta.media.top_field_first">0</property>
  <property name="kdenlive:meta.media.progressive">1</property>
 </producer>
 <producer id="40" title="Anonymous Submission" out="581" in="0">
  <property name="length">00:00:23:07</property>
  <property name="eof">pause</property>
  <property name="resource">/home/nicolas/Documents/Projets Musique/Barons Freaks/COURTS METRAGES - MAIN/COURTS METRAGES/EpisodeII/scène cave/DSC_0066.MOV</property>
  <property name="seekable">1</property>
  <property name="audio_index">1</property>
  <property name="video_index">0</property>
  <property name="mute_on_pause">1</property>
  <property name="mlt_service">avformat</property>
  <property name="kdenlive:folderid">-1</property>
  <property name="kdenlive:file_size">31273265</property>
  <property name="kdenlive:file_hash">44e8cee864c57a918188f49a09fe6ed9</property>
  <property name="kdenlive:proxy">/home/nicolas/.cache/kdenlive/proxy/44e8cee864c57a918188f49a09fe6ed9.mpg</property>
  <property name="proxy_out">581</property>
  <property name="kdenlive:originalurl">scène cave/DSC_0066.MOV</property>
  <property name="global_feed">1</property>
  <property name="kdenlive:meta.media.nb_streams">2</property>
  <property name="kdenlive:meta.media.0.stream.type">video</property>
  <property name="kdenlive:meta.media.0.stream.frame_rate">25</property>
  <property name="kdenlive:meta.media.0.stream.sample_aspect_ratio">0</property>
  <property name="kdenlive:meta.media.0.codec.width">1280</property>
  <property name="kdenlive:meta.media.0.codec.height">720</property>
  <property name="kdenlive:meta.media.0.codec.rotate">0</property>
  <property name="kdenlive:meta.media.0.codec.frame_rate">25</property>
  <property name="kdenlive:meta.media.0.codec.pix_fmt">yuvj420p</property>
  <property name="kdenlive:meta.media.0.codec.sample_aspect_ratio">1</property>
  <property name="kdenlive:meta.media.0.codec.colorspace">601</property>
  <property name="kdenlive:meta.media.0.codec.color_trc">4</property>
  <property name="kdenlive:meta.media.0.codec.name">h264</property>
  <property name="kdenlive:meta.media.0.codec.long_name">H.264 / AVC / MPEG-4 AVC / MPEG-4 part 10</property>
  <property name="kdenlive:meta.media.0.codec.bit_rate">10323003</property>
  <property name="kdenlive:meta.attr.0.stream.creation_time.markup">2017-10-12T15:34:44.000000Z</property>
  <property name="kdenlive:meta.attr.0.stream.language.markup">eng</property>
  <property name="kdenlive:meta.media.1.stream.type">audio</property>
  <property name="kdenlive:meta.media.1.codec.sample_fmt">s16</property>
  <property name="kdenlive:meta.media.1.codec.sample_rate">24000</property>
  <property name="kdenlive:meta.media.1.codec.channels">1</property>
  <property name="kdenlive:meta.media.1.codec.name">pcm_s16le</property>
  <property name="kdenlive:meta.media.1.codec.long_name">PCM signed 16-bit little-endian</property>
  <property name="kdenlive:meta.media.1.codec.bit_rate">384000</property>
  <property name="kdenlive:meta.attr.1.stream.creation_time.markup">2017-10-12T15:34:44.000000Z</property>
  <property name="kdenlive:meta.attr.1.stream.language.markup">eng</property>
  <property name="kdenlive:meta.attr.major_brand.markup">qt  </property>
  <property name="kdenlive:meta.attr.minor_version.markup">537331968</property>
  <property name="kdenlive:meta.attr.compatible_brands.markup">qt  niko</property>
  <property name="kdenlive:meta.attr.creation_time.markup">2017-10-12T15:34:44.000000Z</property>
  <property name="kdenlive:meta.media.sample_aspect_num">1</property>
  <property name="kdenlive:meta.media.sample_aspect_den">1</property>
  <property name="kdenlive:meta.media.frame_rate_num">25</property>
  <property name="kdenlive:meta.media.frame_rate_den">1</property>
  <property name="kdenlive:meta.media.colorspace">601</property>
  <property name="kdenlive:meta.media.color_trc">4</property>
  <property name="kdenlive:meta.media.width">1280</property>
  <property name="kdenlive:meta.media.height">720</property>
  <property name="kdenlive:meta.media.top_field_first">0</property>
  <property name="kdenlive:meta.media.progressive">1</property>
 </producer>
 <producer id="43" title="Anonymous Submission" out="989" in="0">
  <property name="length">00:00:39:15</property>
  <property name="eof">pause</property>
  <property name="resource">/home/nicolas/Documents/Projets Musique/Barons Freaks/COURTS METRAGES - MAIN/COURTS METRAGES/EpisodeII/scène cave/DSC_0081.MOV</property>
  <property name="seekable">1</property>
  <property name="audio_index">1</property>
  <property name="video_index">0</property>
  <property name="mute_on_pause">1</property>
  <property name="mlt_service">avformat</property>
  <property name="kdenlive:folderid">-1</property>
  <property name="kdenlive:file_size">53955986</property>
  <property name="kdenlive:file_hash">c9f6cffdf46e059b70de2e6eec2ee07d</property>
  <property name="kdenlive:proxy">/home/nicolas/.cache/kdenlive/proxy/c9f6cffdf46e059b70de2e6eec2ee07d.mpg</property>
  <property name="proxy_out">989</property>
  <property name="kdenlive:originalurl">scène cave/DSC_0081.MOV</property>
  <property name="global_feed">1</property>
  <property name="kdenlive:meta.media.nb_streams">2</property>
  <property name="kdenlive:meta.media.0.stream.type">video</property>
  <property name="kdenlive:meta.media.0.stream.frame_rate">25</property>
  <property name="kdenlive:meta.media.0.stream.sample_aspect_ratio">0</property>
  <property name="kdenlive:meta.media.0.codec.width">1280</property>
  <property name="kdenlive:meta.media.0.codec.height">720</property>
  <property name="kdenlive:meta.media.0.codec.rotate">0</property>
  <property name="kdenlive:meta.media.0.codec.frame_rate">25</property>
  <property name="kdenlive:meta.media.0.codec.pix_fmt">yuvj420p</property>
  <property name="kdenlive:meta.media.0.codec.sample_aspect_ratio">1</property>
  <property name="kdenlive:meta.media.0.codec.colorspace">601</property>
  <property name="kdenlive:meta.media.0.codec.color_trc">4</property>
  <property name="kdenlive:meta.media.0.codec.name">h264</property>
  <property name="kdenlive:meta.media.0.codec.long_name">H.264 / AVC / MPEG-4 AVC / MPEG-4 part 10</property>
  <property name="kdenlive:meta.media.0.codec.bit_rate">10492689</property>
  <property name="kdenlive:meta.attr.0.stream.creation_time.markup">2017-10-20T11:07:56.000000Z</property>
  <property name="kdenlive:meta.attr.0.stream.language.markup">eng</property>
  <property name="kdenlive:meta.media.1.stream.type">audio</property>
  <property name="kdenlive:meta.media.1.codec.sample_fmt">s16</property>
  <property name="kdenlive:meta.media.1.codec.sample_rate">24000</property>
  <property name="kdenlive:meta.media.1.codec.channels">1</property>
  <property name="kdenlive:meta.media.1.codec.name">pcm_s16le</property>
  <property name="kdenlive:meta.media.1.codec.long_name">PCM signed 16-bit little-endian</property>
  <property name="kdenlive:meta.media.1.codec.bit_rate">384000</property>
  <property name="kdenlive:meta.attr.1.stream.creation_time.markup">2017-10-20T11:07:56.000000Z</property>
  <property name="kdenlive:meta.attr.1.stream.language.markup">eng</property>
  <property name="kdenlive:meta.attr.major_brand.markup">qt  </property>
  <property name="kdenlive:meta.attr.minor_version.markup">537331968</property>
  <property name="kdenlive:meta.attr.compatible_brands.markup">qt  niko</property>
  <property name="kdenlive:meta.attr.creation_time.markup">2017-10-20T11:07:56.000000Z</property>
  <property name="kdenlive:meta.media.sample_aspect_num">1</property>
  <property name="kdenlive:meta.media.sample_aspect_den">1</property>
  <property name="kdenlive:meta.media.frame_rate_num">25</property>
  <property name="kdenlive:meta.media.frame_rate_den">1</property>
  <property name="kdenlive:meta.media.colorspace">601</property>
  <property name="kdenlive:meta.media.color_trc">4</property>
  <property name="kdenlive:meta.media.width">1280</property>
  <property name="kdenlive:meta.media.height">720</property>
  <property name="kdenlive:meta.media.top_field_first">0</property>
  <property name="kdenlive:meta.media.progressive">1</property>
 </producer>
 <producer id="42" title="Anonymous Submission" out="1436" in="0">
  <property name="length">00:00:57:12</property>
  <property name="eof">pause</property>
  <property name="resource">/home/nicolas/Documents/Projets Musique/Barons Freaks/COURTS METRAGES - MAIN/COURTS METRAGES/EpisodeII/scène cave/DSC_0080.MOV</property>
  <property name="seekable">1</property>
  <property name="audio_index">1</property>
  <property name="video_index">0</property>
  <property name="mute_on_pause">1</property>
  <property name="mlt_service">avformat</property>
  <property name="kdenlive:folderid">-1</property>
  <property name="kdenlive:file_size">76212736</property>
  <property name="kdenlive:file_hash">04a11ea9dfdfb14135d31f8b295f6f86</property>
  <property name="kdenlive:proxy">/home/nicolas/.cache/kdenlive/proxy/04a11ea9dfdfb14135d31f8b295f6f86.mpg</property>
  <property name="proxy_out">1436</property>
  <property name="kdenlive:originalurl">scène cave/DSC_0080.MOV</property>
  <property name="global_feed">1</property>
  <property name="kdenlive:meta.media.nb_streams">2</property>
  <property name="kdenlive:meta.media.0.stream.type">video</property>
  <property name="kdenlive:meta.media.0.stream.frame_rate">25</property>
  <property name="kdenlive:meta.media.0.stream.sample_aspect_ratio">0</property>
  <property name="kdenlive:meta.media.0.codec.width">1280</property>
  <property name="kdenlive:meta.media.0.codec.height">720</property>
  <property name="kdenlive:meta.media.0.codec.rotate">0</property>
  <property name="kdenlive:meta.media.0.codec.frame_rate">25</property>
  <property name="kdenlive:meta.media.0.codec.pix_fmt">yuvj420p</property>
  <property name="kdenlive:meta.media.0.codec.sample_aspect_ratio">1</property>
  <property name="kdenlive:meta.media.0.codec.colorspace">601</property>
  <property name="kdenlive:meta.media.0.codec.color_trc">4</property>
  <property name="kdenlive:meta.media.0.codec.name">h264</property>
  <property name="kdenlive:meta.media.0.codec.long_name">H.264 / AVC / MPEG-4 AVC / MPEG-4 part 10</property>
  <property name="kdenlive:meta.media.0.codec.bit_rate">10206314</property>
  <property name="kdenlive:meta.attr.0.stream.creation_time.markup">2017-10-20T11:06:36.000000Z</property>
  <property name="kdenlive:meta.attr.0.stream.language.markup">eng</property>
  <property name="kdenlive:meta.media.1.stream.type">audio</property>
  <property name="kdenlive:meta.media.1.codec.sample_fmt">s16</property>
  <property name="kdenlive:meta.media.1.codec.sample_rate">24000</property>
  <property name="kdenlive:meta.media.1.codec.channels">1</property>
  <property name="kdenlive:meta.media.1.codec.name">pcm_s16le</property>
  <property name="kdenlive:meta.media.1.codec.long_name">PCM signed 16-bit little-endian</property>
  <property name="kdenlive:meta.media.1.codec.bit_rate">384000</property>
  <property name="kdenlive:meta.attr.1.stream.creation_time.markup">2017-10-20T11:06:36.000000Z</property>
  <property name="kdenlive:meta.attr.1.stream.language.markup">eng</property>
  <property name="kdenlive:meta.attr.major_brand.markup">qt  </property>
  <property name="kdenlive:meta.attr.minor_version.markup">537331968</property>
  <property name="kdenlive:meta.attr.compatible_brands.markup">qt  niko</property>
  <property name="kdenlive:meta.attr.creation_time.markup">2017-10-20T11:06:36.000000Z</property>
  <property name="kdenlive:meta.media.sample_aspect_num">1</property>
  <property name="kdenlive:meta.media.sample_aspect_den">1</property>
  <property name="kdenlive:meta.media.frame_rate_num">25</property>
  <property name="kdenlive:meta.media.frame_rate_den">1</property>
  <property name="kdenlive:meta.media.colorspace">601</property>
  <property name="kdenlive:meta.media.color_trc">4</property>
  <property name="kdenlive:meta.media.width">1280</property>
  <property name="kdenlive:meta.media.height">720</property>
  <property name="kdenlive:meta.media.top_field_first">0</property>
  <property name="kdenlive:meta.media.progressive">1</property>
 </producer>
 <producer id="44" title="Anonymous Submission" out="395" in="0">
  <property name="length">00:00:15:21</property>
  <property name="eof">pause</property>
  <property name="resource">/home/nicolas/Documents/Projets Musique/Barons Freaks/COURTS METRAGES - MAIN/COURTS METRAGES/EpisodeII/scène cave/DSC_0082.MOV</property>
  <property name="seekable">1</property>
  <property name="audio_index">1</property>
  <property name="video_index">0</property>
  <property name="mute_on_pause">1</property>
  <property name="mlt_service">avformat</property>
  <property name="kdenlive:folderid">-1</property>
  <property name="kdenlive:file_size">21491706</property>
  <property name="kdenlive:file_hash">7db0ca8720755483569dab89c2c38e68</property>
  <property name="kdenlive:proxy">/home/nicolas/.cache/kdenlive/proxy/7db0ca8720755483569dab89c2c38e68.mpg</property>
  <property name="proxy_out">395</property>
  <property name="kdenlive:originalurl">scène cave/DSC_0082.MOV</property>
  <property name="global_feed">1</property>
  <property name="kdenlive:meta.media.nb_streams">2</property>
  <property name="kdenlive:meta.media.0.stream.type">video</property>
  <property name="kdenlive:meta.media.0.stream.frame_rate">25</property>
  <property name="kdenlive:meta.media.0.stream.sample_aspect_ratio">0</property>
  <property name="kdenlive:meta.media.0.codec.width">1280</property>
  <property name="kdenlive:meta.media.0.codec.height">720</property>
  <property name="kdenlive:meta.media.0.codec.rotate">0</property>
  <property name="kdenlive:meta.media.0.codec.frame_rate">25</property>
  <property name="kdenlive:meta.media.0.codec.pix_fmt">yuvj420p</property>
  <property name="kdenlive:meta.media.0.codec.sample_aspect_ratio">1</property>
  <property name="kdenlive:meta.media.0.codec.colorspace">601</property>
  <property name="kdenlive:meta.media.0.codec.color_trc">4</property>
  <property name="kdenlive:meta.media.0.codec.name">h264</property>
  <property name="kdenlive:meta.media.0.codec.long_name">H.264 / AVC / MPEG-4 AVC / MPEG-4 part 10</property>
  <property name="kdenlive:meta.media.0.codec.bit_rate">10412048</property>
  <property name="kdenlive:meta.attr.0.stream.creation_time.markup">2017-10-20T11:11:12.000000Z</property>
  <property name="kdenlive:meta.attr.0.stream.language.markup">eng</property>
  <property name="kdenlive:meta.media.1.stream.type">audio</property>
  <property name="kdenlive:meta.media.1.codec.sample_fmt">s16</property>
  <property name="kdenlive:meta.media.1.codec.sample_rate">24000</property>
  <property name="kdenlive:meta.media.1.codec.channels">1</property>
  <property name="kdenlive:meta.media.1.codec.name">pcm_s16le</property>
  <property name="kdenlive:meta.media.1.codec.long_name">PCM signed 16-bit little-endian</property>
  <property name="kdenlive:meta.media.1.codec.bit_rate">384000</property>
  <property name="kdenlive:meta.attr.1.stream.creation_time.markup">2017-10-20T11:11:12.000000Z</property>
  <property name="kdenlive:meta.attr.1.stream.language.markup">eng</property>
  <property name="kdenlive:meta.attr.major_brand.markup">qt  </property>
  <property name="kdenlive:meta.attr.minor_version.markup">537331968</property>
  <property name="kdenlive:meta.attr.compatible_brands.markup">qt  niko</property>
  <property name="kdenlive:meta.attr.creation_time.markup">2017-10-20T11:11:12.000000Z</property>
  <property name="kdenlive:meta.media.sample_aspect_num">1</property>
  <property name="kdenlive:meta.media.sample_aspect_den">1</property>
  <property name="kdenlive:meta.media.frame_rate_num">25</property>
  <property name="kdenlive:meta.media.frame_rate_den">1</property>
  <property name="kdenlive:meta.media.colorspace">601</property>
  <property name="kdenlive:meta.media.color_trc">4</property>
  <property name="kdenlive:meta.media.width">1280</property>
  <property name="kdenlive:meta.media.height">720</property>
  <property name="kdenlive:meta.media.top_field_first">0</property>
  <property name="kdenlive:meta.media.progressive">1</property>
 </producer>
 <producer id="45" title="Anonymous Submission" out="377" in="0">
  <property name="length">00:00:15:03</property>
  <property name="eof">pause</property>
  <property name="resource">/home/nicolas/Documents/Projets Musique/Barons Freaks/COURTS METRAGES - MAIN/COURTS METRAGES/EpisodeII/scène cave/DSC_0083.MOV</property>
  <property name="seekable">1</property>
  <property name="audio_index">1</property>
  <property name="video_index">0</property>
  <property name="mute_on_pause">1</property>
  <property name="mlt_service">avformat</property>
  <property name="kdenlive:folderid">-1</property>
  <property name="kdenlive:file_size">20445668</property>
  <property name="kdenlive:file_hash">6297c5b90e9b410310c7a84a63b5425f</property>
  <property name="kdenlive:proxy">/home/nicolas/.cache/kdenlive/proxy/6297c5b90e9b410310c7a84a63b5425f.mpg</property>
  <property name="proxy_out">377</property>
  <property name="kdenlive:originalurl">scène cave/DSC_0083.MOV</property>
  <property name="global_feed">1</property>
  <property name="kdenlive:meta.media.nb_streams">2</property>
  <property name="kdenlive:meta.media.0.stream.type">video</property>
  <property name="kdenlive:meta.media.0.stream.frame_rate">25</property>
  <property name="kdenlive:meta.media.0.stream.sample_aspect_ratio">0</property>
  <property name="kdenlive:meta.media.0.codec.width">1280</property>
  <property name="kdenlive:meta.media.0.codec.height">720</property>
  <property name="kdenlive:meta.media.0.codec.rotate">0</property>
  <property name="kdenlive:meta.media.0.codec.frame_rate">25</property>
  <property name="kdenlive:meta.media.0.codec.pix_fmt">yuvj420p</property>
  <property name="kdenlive:meta.media.0.codec.sample_aspect_ratio">1</property>
  <property name="kdenlive:meta.media.0.codec.colorspace">601</property>
  <property name="kdenlive:meta.media.0.codec.color_trc">4</property>
  <property name="kdenlive:meta.media.0.codec.name">h264</property>
  <property name="kdenlive:meta.media.0.codec.long_name">H.264 / AVC / MPEG-4 AVC / MPEG-4 part 10</property>
  <property name="kdenlive:meta.media.0.codec.bit_rate">10372455</property>
  <property name="kdenlive:meta.attr.0.stream.creation_time.markup">2017-10-20T11:11:38.000000Z</property>
  <property name="kdenlive:meta.attr.0.stream.language.markup">eng</property>
  <property name="kdenlive:meta.media.1.stream.type">audio</property>
  <property name="kdenlive:meta.media.1.codec.sample_fmt">s16</property>
  <property name="kdenlive:meta.media.1.codec.sample_rate">24000</property>
  <property name="kdenlive:meta.media.1.codec.channels">1</property>
  <property name="kdenlive:meta.media.1.codec.name">pcm_s16le</property>
  <property name="kdenlive:meta.media.1.codec.long_name">PCM signed 16-bit little-endian</property>
  <property name="kdenlive:meta.media.1.codec.bit_rate">384000</property>
  <property name="kdenlive:meta.attr.1.stream.creation_time.markup">2017-10-20T11:11:38.000000Z</property>
  <property name="kdenlive:meta.attr.1.stream.language.markup">eng</property>
  <property name="kdenlive:meta.attr.major_brand.markup">qt  </property>
  <property name="kdenlive:meta.attr.minor_version.markup">537331968</property>
  <property name="kdenlive:meta.attr.compatible_brands.markup">qt  niko</property>
  <property name="kdenlive:meta.attr.creation_time.markup">2017-10-20T11:11:38.000000Z</property>
  <property name="kdenlive:meta.media.sample_aspect_num">1</property>
  <property name="kdenlive:meta.media.sample_aspect_den">1</property>
  <property name="kdenlive:meta.media.frame_rate_num">25</property>
  <property name="kdenlive:meta.media.frame_rate_den">1</property>
  <property name="kdenlive:meta.media.colorspace">601</property>
  <property name="kdenlive:meta.media.color_trc">4</property>
  <property name="kdenlive:meta.media.width">1280</property>
  <property name="kdenlive:meta.media.height">720</property>
  <property name="kdenlive:meta.media.top_field_first">0</property>
  <property name="kdenlive:meta.media.progressive">1</property>
 </producer>
 <producer id="46" out="9172" in="0">
  <property name="length">9173</property>
  <property name="eof">pause</property>
  <property name="resource">/home/nicolas/Documents/Projets Musique/Barons Freaks/COURTS METRAGES - MAIN/COURTS METRAGES/Crop4tiers2.png</property>
  <property name="ttl">25</property>
  <property name="aspect_ratio">1</property>
  <property name="progressive">1</property>
  <property name="seekable">1</property>
  <property name="loop">1</property>
  <property name="meta.media.width">1280</property>
  <property name="meta.media.height">720</property>
  <property name="mlt_service">pixbuf</property>
  <property name="kdenlive:folderid">-1</property>
  <property name="kdenlive:duration">125</property>
  <property name="kdenlive:file_size">12458</property>
  <property name="kdenlive:file_hash">c5469d8d3c8d79a067c6c0541da25e27</property>
 </producer>
 <producer id="47" title="Anonymous Submission" out="124" in="0">
  <property name="length">125</property>
  <property name="eof">pause</property>
  <property name="resource">/home/nicolas/Documents/Projets Musique/Barons Freaks/COURTS METRAGES - MAIN/COURTS METRAGES/Diaphragme2.png</property>
  <property name="ttl">25</property>
  <property name="progressive">1</property>
  <property name="seekable">1</property>
  <property name="loop">1</property>
  <property name="mlt_service">pixbuf</property>
  <property name="kdenlive:folderid">-1</property>
  <property name="kdenlive:duration">125</property>
  <property name="kdenlive:file_size">46533</property>
  <property name="kdenlive:file_hash">5e07bfaf57fb3e14f66fa7ff01b073a9</property>
  <property name="kdenlive:proxy">/home/nicolas/.cache/kdenlive/proxy/5e07bfaf57fb3e14f66fa7ff01b073a9.png</property>
  <property name="proxy_out">124</property>
  <property name="kdenlive:originalurl">/home/nicolas/Documents/Projets Musique/Barons Freaks/COURTS METRAGES - MAIN/COURTS METRAGES/Diaphragme2.png</property>
  <property name="global_feed">1</property>
  <property name="kdenlive:meta.media.width">2560</property>
  <property name="kdenlive:meta.media.height">1440</property>
 </producer>
 <playlist id="main bin" autoclose="1">
  <property name="kdenlive:docproperties.audiotargettrack">-1</property>
  <property name="kdenlive:docproperties.decimalPoint">,</property>
  <property name="kdenlive:docproperties.dirtypreviewchunks"/>
  <property name="kdenlive:docproperties.disablepreview">0</property>
  <property name="kdenlive:docproperties.documentid">1510053406045</property>
  <property name="kdenlive:docproperties.enableproxy">1</property>
  <property name="kdenlive:docproperties.generateimageproxy">1</property>
  <property name="kdenlive:docproperties.generateproxy">1</property>
  <property name="kdenlive:docproperties.kdenliveversion">16.12.2</property>
  <property name="kdenlive:docproperties.position">0</property>
  <property name="kdenlive:docproperties.previewchunks"/>
  <property name="kdenlive:docproperties.previewextension"/>
  <property name="kdenlive:docproperties.previewparameters"/>
  <property name="kdenlive:docproperties.profile">atsc_720p_25</property>
  <property name="kdenlive:docproperties.proxyextension">mpg</property>
  <property name="kdenlive:docproperties.proxyimageminsize">2000</property>
  <property name="kdenlive:docproperties.proxyminsize">1000</property>
  <property name="kdenlive:docproperties.proxyparams">-vf scale=640:-1 -g 5 -qscale 6 -ab 128k -vcodec mpeg2video -acodec mp2</property>
  <property name="kdenlive:docproperties.version">0.95</property>
  <property name="kdenlive:docproperties.verticalzoom">1</property>
  <property name="kdenlive:docproperties.videotargettrack">1</property>
  <property name="kdenlive:docproperties.zonein">0</property>
  <property name="kdenlive:docproperties.zoneout">6928</property>
  <property name="kdenlive:docproperties.zoom">11</property>
  <property name="kdenlive:documentnotes"/>
  <property name="kdenlive:clipgroups"/>
  <property name="kdenlive:docproperties.renderaudioquality">160</property>
  <property name="kdenlive:docproperties.rendercategory">Generic (HD for web, mobile devices...)</property>
  <property name="kdenlive:docproperties.renderendguide">-1</property>
  <property name="kdenlive:docproperties.renderexportaudio">0</property>
  <property name="kdenlive:docproperties.renderguide">0</property>
  <property name="kdenlive:docproperties.renderplay">0</property>
  <property name="kdenlive:docproperties.renderprofile">MP4 - the dominating format (H264/AAC)</property>
  <property name="kdenlive:docproperties.renderquality">23</property>
  <property name="kdenlive:docproperties.renderratio">1</property>
  <property name="kdenlive:docproperties.renderrescale">0</property>
  <property name="kdenlive:docproperties.renderrescaleheight">180</property>
  <property name="kdenlive:docproperties.renderrescalewidth">320</property>
  <property name="kdenlive:docproperties.renderscanning">0</property>
  <property name="kdenlive:docproperties.renderspeed">2</property>
  <property name="kdenlive:docproperties.renderstartguide">-1</property>
  <property name="kdenlive:docproperties.rendertcoverlay">0</property>
  <property name="kdenlive:docproperties.rendertctype">0</property>
  <property name="kdenlive:docproperties.rendertwopass">0</property>
  <property name="kdenlive:docproperties.renderurl">/home/nicolas/Documents/Projets Musique/Barons Freaks/COURTS METRAGES - MAIN/COURTS METRAGES/2017-11-16_EpisodeII_SdB.mp4</property>
  <property name="kdenlive:docproperties.renderzone">1</property>
  <property name="xml_retain">1</property>
  <entry out="563" producer="18" in="0"/>
  <entry out="512" producer="19" in="0"/>
  <entry out="743" producer="20" in="0"/>
  <entry out="803" producer="21" in="0"/>
  <entry out="791" producer="23" in="0"/>
  <entry out="1283" producer="22" in="0"/>
  <entry out="227" producer="24" in="0"/>
  <entry out="884" producer="25" in="0"/>
  <entry out="827" producer="26" in="0"/>
  <entry out="1421" producer="27" in="0"/>
  <entry out="116" producer="29" in="0"/>
  <entry out="1685" producer="28" in="0"/>
  <entry out="248" producer="30" in="0"/>
  <entry out="419" producer="32" in="0"/>
  <entry out="773" producer="31" in="0"/>
  <entry out="434" producer="33" in="0"/>
  <entry out="449" producer="34" in="0"/>
  <entry out="305" producer="35" in="0"/>
  <entry out="542" producer="36" in="0"/>
  <entry out="476" producer="38" in="0"/>
  <entry out="104" producer="39" in="0"/>
  <entry out="1196" producer="37" in="0"/>
  <entry out="302" producer="41" in="0"/>
  <entry out="581" producer="40" in="0"/>
  <entry out="989" producer="43" in="0"/>
  <entry out="1436" producer="42" in="0"/>
  <entry out="395" producer="44" in="0"/>
  <entry out="377" producer="45" in="0"/>
  <entry out="124" producer="46" in="0"/>
  <entry out="124" producer="47" in="0"/>
 </playlist>
 <producer id="black" out="500" in="0">
  <property name="length">15000</property>
  <property name="eof">pause</property>
  <property name="resource">black</property>
  <property name="aspect_ratio">0</property>
  <property name="mlt_service">colour</property>
  <property name="set.test_audio">0</property>
 </producer>
 <playlist id="black_track" autoclose="1">
  <entry out="9172" producer="black" in="0"/>
 </playlist>
 <playlist id="playlist1" autoclose="1">
  <property name="kdenlive:track_name">Video 1</property>
 </playlist>
 <producer id="21_playlist2" title="Anonymous Submission" out="803" in="0">
  <property name="length">00:00:32:04</property>
  <property name="eof">pause</property>
  <property name="resource">/home/nicolas/Documents/Projets Musique/Barons Freaks/COURTS METRAGES - MAIN/COURTS METRAGES/EpisodeII/scène cave/DSC_0047.MOV</property>
  <property name="seekable">1</property>
  <property name="audio_index">1</property>
  <property name="video_index">0</property>
  <property name="mute_on_pause">1</property>
  <property name="mlt_service">avformat</property>
  <property name="kdenlive:folderid">-1</property>
  <property name="kdenlive:file_size">42567246</property>
  <property name="kdenlive:file_hash">e976dea6bc8d35e15575dee41fee2f80</property>
  <property name="kdenlive:proxy">/home/nicolas/.cache/kdenlive/proxy/e976dea6bc8d35e15575dee41fee2f80.mpg</property>
  <property name="proxy_out">803</property>
  <property name="kdenlive:originalurl">scène cave/DSC_0047.MOV</property>
  <property name="global_feed">1</property>
  <property name="kdenlive:meta.media.nb_streams">2</property>
  <property name="kdenlive:meta.media.0.stream.type">video</property>
  <property name="kdenlive:meta.media.0.stream.frame_rate">25</property>
  <property name="kdenlive:meta.media.0.stream.sample_aspect_ratio">0</property>
  <property name="kdenlive:meta.media.0.codec.width">1280</property>
  <property name="kdenlive:meta.media.0.codec.height">720</property>
  <property name="kdenlive:meta.media.0.codec.rotate">0</property>
  <property name="kdenlive:meta.media.0.codec.frame_rate">25</property>
  <property name="kdenlive:meta.media.0.codec.pix_fmt">yuvj420p</property>
  <property name="kdenlive:meta.media.0.codec.sample_aspect_ratio">1</property>
  <property name="kdenlive:meta.media.0.codec.colorspace">601</property>
  <property name="kdenlive:meta.media.0.codec.color_trc">4</property>
  <property name="kdenlive:meta.media.0.codec.name">h264</property>
  <property name="kdenlive:meta.media.0.codec.long_name">H.264 / AVC / MPEG-4 AVC / MPEG-4 part 10</property>
  <property name="kdenlive:meta.media.0.codec.bit_rate">10175643</property>
  <property name="kdenlive:meta.attr.0.stream.creation_time.markup">2017-10-12T14:34:24.000000Z</property>
  <property name="kdenlive:meta.attr.0.stream.language.markup">eng</property>
  <property name="kdenlive:meta.media.1.stream.type">audio</property>
  <property name="kdenlive:meta.media.1.codec.sample_fmt">s16</property>
  <property name="kdenlive:meta.media.1.codec.sample_rate">24000</property>
  <property name="kdenlive:meta.media.1.codec.channels">1</property>
  <property name="kdenlive:meta.media.1.codec.name">pcm_s16le</property>
  <property name="kdenlive:meta.media.1.codec.long_name">PCM signed 16-bit little-endian</property>
  <property name="kdenlive:meta.media.1.codec.bit_rate">384000</property>
  <property name="kdenlive:meta.attr.1.stream.creation_time.markup">2017-10-12T14:34:24.000000Z</property>
  <property name="kdenlive:meta.attr.1.stream.language.markup">eng</property>
  <property name="kdenlive:meta.attr.major_brand.markup">qt  </property>
  <property name="kdenlive:meta.attr.minor_version.markup">537331968</property>
  <property name="kdenlive:meta.attr.compatible_brands.markup">qt  niko</property>
  <property name="kdenlive:meta.attr.creation_time.markup">2017-10-12T14:34:24.000000Z</property>
  <property name="kdenlive:meta.media.sample_aspect_num">1</property>
  <property name="kdenlive:meta.media.sample_aspect_den">1</property>
  <property name="kdenlive:meta.media.frame_rate_num">25</property>
  <property name="kdenlive:meta.media.frame_rate_den">1</property>
  <property name="kdenlive:meta.media.colorspace">601</property>
  <property name="kdenlive:meta.media.color_trc">4</property>
  <property name="kdenlive:meta.media.width">1280</property>
  <property name="kdenlive:meta.media.height">720</property>
  <property name="kdenlive:meta.media.top_field_first">0</property>
  <property name="kdenlive:meta.media.progressive">1</property>
  <property name="xml">was here</property>
 </producer>
 <producer id="28_playlist2" title="Anonymous Submission" out="1685" in="0">
  <property name="length">00:01:07:11</property>
  <property name="eof">pause</property>
  <property name="resource">/home/nicolas/Documents/Projets Musique/Barons Freaks/COURTS METRAGES - MAIN/COURTS METRAGES/EpisodeII/scène cave/DSC_0054.MOV</property>
  <property name="seekable">1</property>
  <property name="audio_index">1</property>
  <property name="video_index">0</property>
  <property name="mute_on_pause">1</property>
  <property name="mlt_service">avformat</property>
  <property name="kdenlive:folderid">-1</property>
  <property name="kdenlive:file_size">90561037</property>
  <property name="kdenlive:file_hash">3a8f7a3ec0d9f6298a6a6514cef1d024</property>
  <property name="kdenlive:proxy">/home/nicolas/.cache/kdenlive/proxy/3a8f7a3ec0d9f6298a6a6514cef1d024.mpg</property>
  <property name="proxy_out">1685</property>
  <property name="kdenlive:originalurl">scène cave/DSC_0054.MOV</property>
  <property name="global_feed">1</property>
  <property name="kdenlive:meta.media.nb_streams">2</property>
  <property name="kdenlive:meta.media.0.stream.type">video</property>
  <property name="kdenlive:meta.media.0.stream.frame_rate">25</property>
  <property name="kdenlive:meta.media.0.stream.sample_aspect_ratio">0</property>
  <property name="kdenlive:meta.media.0.codec.width">1280</property>
  <property name="kdenlive:meta.media.0.codec.height">720</property>
  <property name="kdenlive:meta.media.0.codec.rotate">0</property>
  <property name="kdenlive:meta.media.0.codec.frame_rate">25</property>
  <property name="kdenlive:meta.media.0.codec.pix_fmt">yuvj420p</property>
  <property name="kdenlive:meta.media.0.codec.sample_aspect_ratio">1</property>
  <property name="kdenlive:meta.media.0.codec.colorspace">601</property>
  <property name="kdenlive:meta.media.0.codec.color_trc">4</property>
  <property name="kdenlive:meta.media.0.codec.name">h264</property>
  <property name="kdenlive:meta.media.0.codec.long_name">H.264 / AVC / MPEG-4 AVC / MPEG-4 part 10</property>
  <property name="kdenlive:meta.media.0.codec.bit_rate">10343853</property>
  <property name="kdenlive:meta.attr.0.stream.creation_time.markup">2017-10-12T14:55:06.000000Z</property>
  <property name="kdenlive:meta.attr.0.stream.language.markup">eng</property>
  <property name="kdenlive:meta.media.1.stream.type">audio</property>
  <property name="kdenlive:meta.media.1.codec.sample_fmt">s16</property>
  <property name="kdenlive:meta.media.1.codec.sample_rate">24000</property>
  <property name="kdenlive:meta.media.1.codec.channels">1</property>
  <property name="kdenlive:meta.media.1.codec.name">pcm_s16le</property>
  <property name="kdenlive:meta.media.1.codec.long_name">PCM signed 16-bit little-endian</property>
  <property name="kdenlive:meta.media.1.codec.bit_rate">384000</property>
  <property name="kdenlive:meta.attr.1.stream.creation_time.markup">2017-10-12T14:55:06.000000Z</property>
  <property name="kdenlive:meta.attr.1.stream.language.markup">eng</property>
  <property name="kdenlive:meta.attr.major_brand.markup">qt  </property>
  <property name="kdenlive:meta.attr.minor_version.markup">537331968</property>
  <property name="kdenlive:meta.attr.compatible_brands.markup">qt  niko</property>
  <property name="kdenlive:meta.attr.creation_time.markup">2017-10-12T14:55:06.000000Z</property>
  <property name="kdenlive:meta.media.sample_aspect_num">1</property>
  <property name="kdenlive:meta.media.sample_aspect_den">1</property>
  <property name="kdenlive:meta.media.frame_rate_num">25</property>
  <property name="kdenlive:meta.media.frame_rate_den">1</property>
  <property name="kdenlive:meta.media.colorspace">601</property>
  <property name="kdenlive:meta.media.color_trc">4</property>
  <property name="kdenlive:meta.media.width">1280</property>
  <property name="kdenlive:meta.media.height">720</property>
  <property name="kdenlive:meta.media.top_field_first">0</property>
  <property name="kdenlive:meta.media.progressive">1</property>
  <property name="xml">was here</property>
 </producer>
 <producer id="slowmotion:37:1,52:1:0" out="787" in="0">
  <property name="length">788</property>
  <property name="eof">pause</property>
  <property name="resource">1,52:/home/nicolas/Documents/Projets Musique/Barons Freaks/COURTS METRAGES - MAIN/COURTS METRAGES/EpisodeII/scène cave/DSC_0063.MOV</property>
  <property name="seekable">1</property>
  <property name="audio_index">1</property>
  <property name="video_index">0</property>
  <property name="mute_on_pause">1</property>
  <property name="warp_speed">1,52</property>
  <property name="warp_resource">/home/nicolas/Documents/Projets Musique/Barons Freaks/COURTS METRAGES - MAIN/COURTS METRAGES/EpisodeII/scène cave/DSC_0063.MOV</property>
  <property name="mlt_service">timewarp</property>
  <property name="kdenlive:proxy">/home/nicolas/.cache/kdenlive/proxy/731f384e4801e1263455353c85eaaad9.mpg</property>
  <property name="kdenlive:originalurl">scène cave/DSC_0063.MOV</property>
 </producer>
 <playlist id="playlist2" autoclose="1">
  <property name="kdenlive:track_name">Video 2</property>
  <blank length="1941"/>
  <entry out="686" producer="21_playlist2" in="357"/>
  <blank length="626"/>
  <entry out="1156" producer="28_playlist2" in="1059">
   <filter id="frei0r.scale0tilt">
    <property name="version">0,1</property>
    <property name="mlt_service">frei0r.scale0tilt</property>
    <property name="kdenlive_id">frei0r.scale0tilt</property>
    <property name="tag">frei0r.scale0tilt</property>
    <property name="kdenlive_ix">1</property>
    <property name="Clip left">0</property>
    <property name="Clip right">0</property>
    <property name="Clip top">0</property>
    <property name="Clip bottom">0</property>
    <property name="Scale X">0,5</property>
    <property name="Scale Y">0,5</property>
    <property name="Tilt X">0,573438</property>
    <property name="Tilt Y">0,5</property>
    <property name="kdenlive_info"/>
   </filter>
  </entry>
  <entry out="1660" producer="28_playlist2" in="1451">
   <filter id="filter0">
    <property name="version">0,1</property>
    <property name="mlt_service">frei0r.scale0tilt</property>
    <property name="kdenlive_id">frei0r.scale0tilt</property>
    <property name="tag">frei0r.scale0tilt</property>
    <property name="kdenlive_ix">1</property>
    <property name="Clip left">0</property>
    <property name="Clip right">0</property>
    <property name="Clip top">0</property>
    <property name="Clip bottom">0</property>
    <property name="Scale X">0,5</property>
    <property name="Scale Y">0,5</property>
    <property name="Tilt X">0,573438</property>
    <property name="Tilt Y">0,5</property>
    <property name="kdenlive_info"/>
   </filter>
  </entry>
  <blank length="1033"/>
  <entry out="382" producer="slowmotion:37:1,52:1:0" in="337">
   <filter id="filter1">
    <property name="version">0,1</property>
    <property name="mlt_service">frei0r.scale0tilt</property>
    <property name="kdenlive_id">frei0r.scale0tilt</property>
    <property name="tag">frei0r.scale0tilt</property>
    <property name="kdenlive_ix">1</property>
    <property name="Clip left">0</property>
    <property name="Clip right">0</property>
    <property name="Clip top">0</property>
    <property name="Clip bottom">0</property>
    <property name="Scale X">0,5</property>
    <property name="Scale Y">0,5</property>
    <property name="Tilt X">0,542969</property>
    <property name="Tilt Y">0,5</property>
    <property name="kdenlive_info"/>
   </filter>
  </entry>
 </playlist>
 <producer id="20_playlist3" title="Anonymous Submission" out="743" in="0">
  <property name="length">00:00:29:19</property>
  <property name="eof">pause</property>
  <property name="resource">/home/nicolas/Documents/Projets Musique/Barons Freaks/COURTS METRAGES - MAIN/COURTS METRAGES/EpisodeII/scène cave/DSC_0046.MOV</property>
  <property name="seekable">1</property>
  <property name="audio_index">1</property>
  <property name="video_index">0</property>
  <property name="mute_on_pause">1</property>
  <property name="mlt_service">avformat</property>
  <property name="kdenlive:folderid">-1</property>
  <property name="kdenlive:file_size">39388262</property>
  <property name="kdenlive:file_hash">f0072d5ae772701dc690032d35a5f3d5</property>
  <property name="kdenlive:proxy">/home/nicolas/.cache/kdenlive/proxy/f0072d5ae772701dc690032d35a5f3d5.mpg</property>
  <property name="proxy_out">743</property>
  <property name="kdenlive:originalurl">scène cave/DSC_0046.MOV</property>
  <property name="global_feed">1</property>
  <property name="kdenlive:meta.media.nb_streams">2</property>
  <property name="kdenlive:meta.media.0.stream.type">video</property>
  <property name="kdenlive:meta.media.0.stream.frame_rate">25</property>
  <property name="kdenlive:meta.media.0.stream.sample_aspect_ratio">0</property>
  <property name="kdenlive:meta.media.0.codec.width">1280</property>
  <property name="kdenlive:meta.media.0.codec.height">720</property>
  <property name="kdenlive:meta.media.0.codec.rotate">0</property>
  <property name="kdenlive:meta.media.0.codec.frame_rate">25</property>
  <property name="kdenlive:meta.media.0.codec.pix_fmt">yuvj420p</property>
  <property name="kdenlive:meta.media.0.codec.sample_aspect_ratio">1</property>
  <property name="kdenlive:meta.media.0.codec.colorspace">601</property>
  <property name="kdenlive:meta.media.0.codec.color_trc">4</property>
  <property name="kdenlive:meta.media.0.codec.name">h264</property>
  <property name="kdenlive:meta.media.0.codec.long_name">H.264 / AVC / MPEG-4 AVC / MPEG-4 part 10</property>
  <property name="kdenlive:meta.media.0.codec.bit_rate">10172644</property>
  <property name="kdenlive:meta.attr.0.stream.creation_time.markup">2017-10-12T14:31:38.000000Z</property>
  <property name="kdenlive:meta.attr.0.stream.language.markup">eng</property>
  <property name="kdenlive:meta.media.1.stream.type">audio</property>
  <property name="kdenlive:meta.media.1.codec.sample_fmt">s16</property>
  <property name="kdenlive:meta.media.1.codec.sample_rate">24000</property>
  <property name="kdenlive:meta.media.1.codec.channels">1</property>
  <property name="kdenlive:meta.media.1.codec.name">pcm_s16le</property>
  <property name="kdenlive:meta.media.1.codec.long_name">PCM signed 16-bit little-endian</property>
  <property name="kdenlive:meta.media.1.codec.bit_rate">384000</property>
  <property name="kdenlive:meta.attr.1.stream.creation_time.markup">2017-10-12T14:31:38.000000Z</property>
  <property name="kdenlive:meta.attr.1.stream.language.markup">eng</property>
  <property name="kdenlive:meta.attr.major_brand.markup">qt  </property>
  <property name="kdenlive:meta.attr.minor_version.markup">537331968</property>
  <property name="kdenlive:meta.attr.compatible_brands.markup">qt  niko</property>
  <property name="kdenlive:meta.attr.creation_time.markup">2017-10-12T14:31:38.000000Z</property>
  <property name="kdenlive:meta.media.sample_aspect_num">1</property>
  <property name="kdenlive:meta.media.sample_aspect_den">1</property>
  <property name="kdenlive:meta.media.frame_rate_num">25</property>
  <property name="kdenlive:meta.media.frame_rate_den">1</property>
  <property name="kdenlive:meta.media.colorspace">601</property>
  <property name="kdenlive:meta.media.color_trc">4</property>
  <property name="kdenlive:meta.media.width">1280</property>
  <property name="kdenlive:meta.media.height">720</property>
  <property name="kdenlive:meta.media.top_field_first">0</property>
  <property name="kdenlive:meta.media.progressive">1</property>
  <property name="xml">was here</property>
 </producer>
 <producer id="28_playlist3" title="Anonymous Submission" out="1685" in="0">
  <property name="length">00:01:07:11</property>
  <property name="eof">pause</property>
  <property name="resource">/home/nicolas/Documents/Projets Musique/Barons Freaks/COURTS METRAGES - MAIN/COURTS METRAGES/EpisodeII/scène cave/DSC_0054.MOV</property>
  <property name="seekable">1</property>
  <property name="audio_index">1</property>
  <property name="video_index">0</property>
  <property name="mute_on_pause">1</property>
  <property name="mlt_service">avformat</property>
  <property name="kdenlive:folderid">-1</property>
  <property name="kdenlive:file_size">90561037</property>
  <property name="kdenlive:file_hash">3a8f7a3ec0d9f6298a6a6514cef1d024</property>
  <property name="kdenlive:proxy">/home/nicolas/.cache/kdenlive/proxy/3a8f7a3ec0d9f6298a6a6514cef1d024.mpg</property>
  <property name="proxy_out">1685</property>
  <property name="kdenlive:originalurl">scène cave/DSC_0054.MOV</property>
  <property name="global_feed">1</property>
  <property name="kdenlive:meta.media.nb_streams">2</property>
  <property name="kdenlive:meta.media.0.stream.type">video</property>
  <property name="kdenlive:meta.media.0.stream.frame_rate">25</property>
  <property name="kdenlive:meta.media.0.stream.sample_aspect_ratio">0</property>
  <property name="kdenlive:meta.media.0.codec.width">1280</property>
  <property name="kdenlive:meta.media.0.codec.height">720</property>
  <property name="kdenlive:meta.media.0.codec.rotate">0</property>
  <property name="kdenlive:meta.media.0.codec.frame_rate">25</property>
  <property name="kdenlive:meta.media.0.codec.pix_fmt">yuvj420p</property>
  <property name="kdenlive:meta.media.0.codec.sample_aspect_ratio">1</property>
  <property name="kdenlive:meta.media.0.codec.colorspace">601</property>
  <property name="kdenlive:meta.media.0.codec.color_trc">4</property>
  <property name="kdenlive:meta.media.0.codec.name">h264</property>
  <property name="kdenlive:meta.media.0.codec.long_name">H.264 / AVC / MPEG-4 AVC / MPEG-4 part 10</property>
  <property name="kdenlive:meta.media.0.codec.bit_rate">10343853</property>
  <property name="kdenlive:meta.attr.0.stream.creation_time.markup">2017-10-12T14:55:06.000000Z</property>
  <property name="kdenlive:meta.attr.0.stream.language.markup">eng</property>
  <property name="kdenlive:meta.media.1.stream.type">audio</property>
  <property name="kdenlive:meta.media.1.codec.sample_fmt">s16</property>
  <property name="kdenlive:meta.media.1.codec.sample_rate">24000</property>
  <property name="kdenlive:meta.media.1.codec.channels">1</property>
  <property name="kdenlive:meta.media.1.codec.name">pcm_s16le</property>
  <property name="kdenlive:meta.media.1.codec.long_name">PCM signed 16-bit little-endian</property>
  <property name="kdenlive:meta.media.1.codec.bit_rate">384000</property>
  <property name="kdenlive:meta.attr.1.stream.creation_time.markup">2017-10-12T14:55:06.000000Z</property>
  <property name="kdenlive:meta.attr.1.stream.language.markup">eng</property>
  <property name="kdenlive:meta.attr.major_brand.markup">qt  </property>
  <property name="kdenlive:meta.attr.minor_version.markup">537331968</property>
  <property name="kdenlive:meta.attr.compatible_brands.markup">qt  niko</property>
  <property name="kdenlive:meta.attr.creation_time.markup">2017-10-12T14:55:06.000000Z</property>
  <property name="kdenlive:meta.media.sample_aspect_num">1</property>
  <property name="kdenlive:meta.media.sample_aspect_den">1</property>
  <property name="kdenlive:meta.media.frame_rate_num">25</property>
  <property name="kdenlive:meta.media.frame_rate_den">1</property>
  <property name="kdenlive:meta.media.colorspace">601</property>
  <property name="kdenlive:meta.media.color_trc">4</property>
  <property name="kdenlive:meta.media.width">1280</property>
  <property name="kdenlive:meta.media.height">720</property>
  <property name="kdenlive:meta.media.top_field_first">0</property>
  <property name="kdenlive:meta.media.progressive">1</property>
  <property name="xml">was here</property>
 </producer>
 <producer id="slowmotion:34:1,1:1:0" out="409" in="0">
  <property name="length">410</property>
  <property name="eof">pause</property>
  <property name="resource">1,1:/home/nicolas/Documents/Projets Musique/Barons Freaks/COURTS METRAGES - MAIN/COURTS METRAGES/EpisodeII/scène cave/DSC_0060.MOV</property>
  <property name="seekable">1</property>
  <property name="audio_index">1</property>
  <property name="video_index">0</property>
  <property name="mute_on_pause">1</property>
  <property name="warp_speed">1,1</property>
  <property name="warp_resource">/home/nicolas/Documents/Projets Musique/Barons Freaks/COURTS METRAGES - MAIN/COURTS METRAGES/EpisodeII/scène cave/DSC_0060.MOV</property>
  <property name="mlt_service">timewarp</property>
  <property name="kdenlive:proxy">/home/nicolas/.cache/kdenlive/proxy/db2ba16615e6a4409b785ddb352f8547.mpg</property>
  <property name="kdenlive:originalurl">scène cave/DSC_0060.MOV</property>
 </producer>
 <producer id="slowmotion:34:1,03:1:0" out="436" in="0">
  <property name="length">437</property>
  <property name="eof">pause</property>
  <property name="resource">1,03:/home/nicolas/Documents/Projets Musique/Barons Freaks/COURTS METRAGES - MAIN/COURTS METRAGES/EpisodeII/scène cave/DSC_0060.MOV</property>
  <property name="seekable">1</property>
  <property name="audio_index">1</property>
  <property name="video_index">0</property>
  <property name="mute_on_pause">1</property>
  <property name="warp_speed">1,03</property>
  <property name="warp_resource">/home/nicolas/Documents/Projets Musique/Barons Freaks/COURTS METRAGES - MAIN/COURTS METRAGES/EpisodeII/scène cave/DSC_0060.MOV</property>
  <property name="mlt_service">timewarp</property>
  <property name="kdenlive:proxy">/home/nicolas/.cache/kdenlive/proxy/db2ba16615e6a4409b785ddb352f8547.mpg</property>
  <property name="kdenlive:originalurl">scène cave/DSC_0060.MOV</property>
 </producer>
 <producer id="slowmotion:36:1,1:1:0" out="493" in="0">
  <property name="length">494</property>
  <property name="eof">pause</property>
  <property name="resource">1,1:/home/nicolas/Documents/Projets Musique/Barons Freaks/COURTS METRAGES - MAIN/COURTS METRAGES/EpisodeII/scène cave/DSC_0062.MOV</property>
  <property name="seekable">1</property>
  <property name="audio_index">1</property>
  <property name="video_index">0</property>
  <property name="mute_on_pause">1</property>
  <property name="warp_speed">1,1</property>
  <property name="warp_resource">/home/nicolas/Documents/Projets Musique/Barons Freaks/COURTS METRAGES - MAIN/COURTS METRAGES/EpisodeII/scène cave/DSC_0062.MOV</property>
  <property name="mlt_service">timewarp</property>
  <property name="kdenlive:proxy">/home/nicolas/.cache/kdenlive/proxy/22fae00423bd6231f5145cb14085299c.mpg</property>
  <property name="kdenlive:originalurl">scène cave/DSC_0062.MOV</property>
 </producer>
 <producer id="slowmotion:36:1,19:1:0" out="456" in="0">
  <property name="length">457</property>
  <property name="eof">pause</property>
  <property name="resource">1,19:/home/nicolas/Documents/Projets Musique/Barons Freaks/COURTS METRAGES - MAIN/COURTS METRAGES/EpisodeII/scène cave/DSC_0062.MOV</property>
  <property name="seekable">1</property>
  <property name="audio_index">1</property>
  <property name="video_index">0</property>
  <property name="mute_on_pause">1</property>
  <property name="warp_speed">1,19</property>
  <property name="warp_resource">/home/nicolas/Documents/Projets Musique/Barons Freaks/COURTS METRAGES - MAIN/COURTS METRAGES/EpisodeII/scène cave/DSC_0062.MOV</property>
  <property name="mlt_service">timewarp</property>
  <property name="kdenlive:proxy">/home/nicolas/.cache/kdenlive/proxy/22fae00423bd6231f5145cb14085299c.mpg</property>
  <property name="kdenlive:originalurl">scène cave/DSC_0062.MOV</property>
 </producer>
 <producer id="slowmotion:36:1,3:1:0" out="417" in="0">
  <property name="length">418</property>
  <property name="eof">pause</property>
  <property name="resource">1,3:/home/nicolas/Documents/Projets Musique/Barons Freaks/COURTS METRAGES - MAIN/COURTS METRAGES/EpisodeII/scène cave/DSC_0062.MOV</property>
  <property name="seekable">1</property>
  <property name="audio_index">1</property>
  <property name="video_index">0</property>
  <property name="mute_on_pause">1</property>
  <property name="warp_speed">1,3</property>
  <property name="warp_resource">/home/nicolas/Documents/Projets Musique/Barons Freaks/COURTS METRAGES - MAIN/COURTS METRAGES/EpisodeII/scène cave/DSC_0062.MOV</property>
  <property name="mlt_service">timewarp</property>
  <property name="kdenlive:proxy">/home/nicolas/.cache/kdenlive/proxy/22fae00423bd6231f5145cb14085299c.mpg</property>
  <property name="kdenlive:originalurl">scène cave/DSC_0062.MOV</property>
 </producer>
 <producer id="slowmotion:36:1,43:1:0" out="379" in="0">
  <property name="length">380</property>
  <property name="eof">pause</property>
  <property name="resource">1,43:/home/nicolas/Documents/Projets Musique/Barons Freaks/COURTS METRAGES - MAIN/COURTS METRAGES/EpisodeII/scène cave/DSC_0062.MOV</property>
  <property name="seekable">1</property>
  <property name="audio_index">1</property>
  <property name="video_index">0</property>
  <property name="mute_on_pause">1</property>
  <property name="warp_speed">1,43</property>
  <property name="warp_resource">/home/nicolas/Documents/Projets Musique/Barons Freaks/COURTS METRAGES - MAIN/COURTS METRAGES/EpisodeII/scène cave/DSC_0062.MOV</property>
  <property name="mlt_service">timewarp</property>
  <property name="kdenlive:proxy">/home/nicolas/.cache/kdenlive/proxy/22fae00423bd6231f5145cb14085299c.mpg</property>
  <property name="kdenlive:originalurl">scène cave/DSC_0062.MOV</property>
 </producer>
 <producer id="slowmotion:36:1,47:1:0" out="369" in="0">
  <property name="length">370</property>
  <property name="eof">pause</property>
  <property name="resource">1,47:/home/nicolas/Documents/Projets Musique/Barons Freaks/COURTS METRAGES - MAIN/COURTS METRAGES/EpisodeII/scène cave/DSC_0062.MOV</property>
  <property name="seekable">1</property>
  <property name="audio_index">1</property>
  <property name="video_index">0</property>
  <property name="mute_on_pause">1</property>
  <property name="warp_speed">1,47</property>
  <property name="warp_resource">/home/nicolas/Documents/Projets Musique/Barons Freaks/COURTS METRAGES - MAIN/COURTS METRAGES/EpisodeII/scène cave/DSC_0062.MOV</property>
  <property name="mlt_service">timewarp</property>
  <property name="kdenlive:proxy">/home/nicolas/.cache/kdenlive/proxy/22fae00423bd6231f5145cb14085299c.mpg</property>
  <property name="kdenlive:originalurl">scène cave/DSC_0062.MOV</property>
 </producer>
 <producer id="40_playlist3" title="Anonymous Submission" out="581" in="0">
  <property name="length">00:00:23:07</property>
  <property name="eof">pause</property>
  <property name="resource">/home/nicolas/Documents/Projets Musique/Barons Freaks/COURTS METRAGES - MAIN/COURTS METRAGES/EpisodeII/scène cave/DSC_0066.MOV</property>
  <property name="seekable">1</property>
  <property name="audio_index">1</property>
  <property name="video_index">0</property>
  <property name="mute_on_pause">1</property>
  <property name="mlt_service">avformat</property>
  <property name="kdenlive:folderid">-1</property>
  <property name="kdenlive:file_size">31273265</property>
  <property name="kdenlive:file_hash">44e8cee864c57a918188f49a09fe6ed9</property>
  <property name="kdenlive:proxy">/home/nicolas/.cache/kdenlive/proxy/44e8cee864c57a918188f49a09fe6ed9.mpg</property>
  <property name="proxy_out">581</property>
  <property name="kdenlive:originalurl">scène cave/DSC_0066.MOV</property>
  <property name="global_feed">1</property>
  <property name="kdenlive:meta.media.nb_streams">2</property>
  <property name="kdenlive:meta.media.0.stream.type">video</property>
  <property name="kdenlive:meta.media.0.stream.frame_rate">25</property>
  <property name="kdenlive:meta.media.0.stream.sample_aspect_ratio">0</property>
  <property name="kdenlive:meta.media.0.codec.width">1280</property>
  <property name="kdenlive:meta.media.0.codec.height">720</property>
  <property name="kdenlive:meta.media.0.codec.rotate">0</property>
  <property name="kdenlive:meta.media.0.codec.frame_rate">25</property>
  <property name="kdenlive:meta.media.0.codec.pix_fmt">yuvj420p</property>
  <property name="kdenlive:meta.media.0.codec.sample_aspect_ratio">1</property>
  <property name="kdenlive:meta.media.0.codec.colorspace">601</property>
  <property name="kdenlive:meta.media.0.codec.color_trc">4</property>
  <property name="kdenlive:meta.media.0.codec.name">h264</property>
  <property name="kdenlive:meta.media.0.codec.long_name">H.264 / AVC / MPEG-4 AVC / MPEG-4 part 10</property>
  <property name="kdenlive:meta.media.0.codec.bit_rate">10323003</property>
  <property name="kdenlive:meta.attr.0.stream.creation_time.markup">2017-10-12T15:34:44.000000Z</property>
  <property name="kdenlive:meta.attr.0.stream.language.markup">eng</property>
  <property name="kdenlive:meta.media.1.stream.type">audio</property>
  <property name="kdenlive:meta.media.1.codec.sample_fmt">s16</property>
  <property name="kdenlive:meta.media.1.codec.sample_rate">24000</property>
  <property name="kdenlive:meta.media.1.codec.channels">1</property>
  <property name="kdenlive:meta.media.1.codec.name">pcm_s16le</property>
  <property name="kdenlive:meta.media.1.codec.long_name">PCM signed 16-bit little-endian</property>
  <property name="kdenlive:meta.media.1.codec.bit_rate">384000</property>
  <property name="kdenlive:meta.attr.1.stream.creation_time.markup">2017-10-12T15:34:44.000000Z</property>
  <property name="kdenlive:meta.attr.1.stream.language.markup">eng</property>
  <property name="kdenlive:meta.attr.major_brand.markup">qt  </property>
  <property name="kdenlive:meta.attr.minor_version.markup">537331968</property>
  <property name="kdenlive:meta.attr.compatible_brands.markup">qt  niko</property>
  <property name="kdenlive:meta.attr.creation_time.markup">2017-10-12T15:34:44.000000Z</property>
  <property name="kdenlive:meta.media.sample_aspect_num">1</property>
  <property name="kdenlive:meta.media.sample_aspect_den">1</property>
  <property name="kdenlive:meta.media.frame_rate_num">25</property>
  <property name="kdenlive:meta.media.frame_rate_den">1</property>
  <property name="kdenlive:meta.media.colorspace">601</property>
  <property name="kdenlive:meta.media.color_trc">4</property>
  <property name="kdenlive:meta.media.width">1280</property>
  <property name="kdenlive:meta.media.height">720</property>
  <property name="kdenlive:meta.media.top_field_first">0</property>
  <property name="kdenlive:meta.media.progressive">1</property>
  <property name="xml">was here</property>
 </producer>
 <playlist id="playlist3" autoclose="1">
  <property name="kdenlive:track_name">Video 3</property>
  <blank length="1783"/>
  <entry out="349" producer="20_playlist3" in="174"/>
  <blank length="926"/>
  <entry out="810" producer="28_playlist3" in="799">
   <filter id="pan_zoom" out="810" in="799">
    <property name="background">colour:0x00000000</property>
    <property name="mlt_service">affine</property>
    <property name="kdenlive_id">pan_zoom</property>
    <property name="tag">affine</property>
    <property name="kdenlive_ix">1</property>
    <property name="transition.geometry">-300/-100:2560x1440:100</property>
    <property name="transition.distort">0</property>
    <property name="kdenlive:sync_in_out">1</property>
    <property name="kdenlive_info"/>
   </filter>
  </entry>
  <blank length="308"/>
  <entry out="139" producer="slowmotion:34:1,1:1:0" in="66">
   <filter id="filter2">
    <property name="version">0,1</property>
    <property name="mlt_service">frei0r.scale0tilt</property>
    <property name="kdenlive_id">frei0r.scale0tilt</property>
    <property name="tag">frei0r.scale0tilt</property>
    <property name="kdenlive_ix">2</property>
    <property name="Clip left">0</property>
    <property name="Clip right">0</property>
    <property name="Clip top">0</property>
    <property name="Clip bottom">0</property>
    <property name="Scale X">0,5</property>
    <property name="Scale Y">0,5</property>
    <property name="Tilt X">0,53125</property>
    <property name="Tilt Y">0,5</property>
    <property name="kdenlive_info"/>
   </filter>
  </entry>
  <entry out="433" producer="slowmotion:34:1,03:1:0" in="150">
   <filter id="filter3">
    <property name="version">0,1</property>
    <property name="mlt_service">frei0r.scale0tilt</property>
    <property name="kdenlive_id">frei0r.scale0tilt</property>
    <property name="tag">frei0r.scale0tilt</property>
    <property name="kdenlive_ix">2</property>
    <property name="Clip left">0</property>
    <property name="Clip right">0</property>
    <property name="Clip top">0</property>
    <property name="Clip bottom">0</property>
    <property name="Scale X">0,5</property>
    <property name="Scale Y">0,5</property>
    <property name="Tilt X">0,53125</property>
    <property name="Tilt Y">0,5</property>
    <property name="kdenlive_info"/>
   </filter>
  </entry>
  <blank length="419"/>
  <entry out="243" producer="slowmotion:36:1,1:1:0" in="130">
   <filter id="filter4">
    <property name="version">0,1</property>
    <property name="mlt_service">frei0r.scale0tilt</property>
    <property name="kdenlive_id">frei0r.scale0tilt</property>
    <property name="tag">frei0r.scale0tilt</property>
    <property name="kdenlive_info"/>
    <property name="kdenlive_ix">2</property>
    <property name="disable"/>
    <property name="Clip left">0</property>
    <property name="Clip right">0</property>
    <property name="Clip top">0</property>
    <property name="Clip bottom">0</property>
    <property name="Scale X">0,5</property>
    <property name="Scale Y">0,5</property>
    <property name="Tilt X">0,542969</property>
    <property name="Tilt Y">0,5</property>
   </filter>
  </entry>
  <entry out="279" producer="slowmotion:36:1,19:1:0" in="225">
   <filter id="filter5">
    <property name="version">0,1</property>
    <property name="mlt_service">frei0r.scale0tilt</property>
    <property name="kdenlive_id">frei0r.scale0tilt</property>
    <property name="tag">frei0r.scale0tilt</property>
    <property name="kdenlive_info"/>
    <property name="kdenlive_ix">2</property>
    <property name="disable"/>
    <property name="Clip left">0</property>
    <property name="Clip right">0</property>
    <property name="Clip top">0</property>
    <property name="Clip bottom">0</property>
    <property name="Scale X">0,5</property>
    <property name="Scale Y">0,5</property>
    <property name="Tilt X">0,542969</property>
    <property name="Tilt Y">0,5</property>
   </filter>
  </entry>
  <entry out="296" producer="slowmotion:36:1,3:1:0" in="256">
   <filter id="filter6">
    <property name="version">0,1</property>
    <property name="mlt_service">frei0r.scale0tilt</property>
    <property name="kdenlive_id">frei0r.scale0tilt</property>
    <property name="tag">frei0r.scale0tilt</property>
    <property name="kdenlive_info"/>
    <property name="kdenlive_ix">2</property>
    <property name="disable"/>
    <property name="Clip left">0</property>
    <property name="Clip right">0</property>
    <property name="Clip top">0</property>
    <property name="Clip bottom">0</property>
    <property name="Scale X">0,5</property>
    <property name="Scale Y">0,5</property>
    <property name="Tilt X">0,542969</property>
    <property name="Tilt Y">0,5</property>
   </filter>
  </entry>
  <entry out="312" producer="slowmotion:36:1,43:1:0" in="270">
   <filter id="filter7">
    <property name="version">0,1</property>
    <property name="mlt_service">frei0r.scale0tilt</property>
    <property name="kdenlive_id">frei0r.scale0tilt</property>
    <property name="tag">frei0r.scale0tilt</property>
    <property name="kdenlive_info"/>
    <property name="kdenlive_ix">2</property>
    <property name="disable"/>
    <property name="Clip left">0</property>
    <property name="Clip right">0</property>
    <property name="Clip top">0</property>
    <property name="Clip bottom">0</property>
    <property name="Scale X">0,5</property>
    <property name="Scale Y">0,5</property>
    <property name="Tilt X">0,542969</property>
    <property name="Tilt Y">0,5</property>
   </filter>
  </entry>
  <entry out="366" producer="slowmotion:36:1,47:1:0" in="304">
   <filter id="filter8">
    <property name="version">0,1</property>
    <property name="mlt_service">frei0r.scale0tilt</property>
    <property name="kdenlive_id">frei0r.scale0tilt</property>
    <property name="tag">frei0r.scale0tilt</property>
    <property name="kdenlive_info"/>
    <property name="kdenlive_ix">2</property>
    <property name="disable"/>
    <property name="Clip left">0</property>
    <property name="Clip right">0</property>
    <property name="Clip top">0</property>
    <property name="Clip bottom">0</property>
    <property name="Scale X">0,5</property>
    <property name="Scale Y">0,5</property>
    <property name="Tilt X">0,542969</property>
    <property name="Tilt Y">0,5</property>
   </filter>
  </entry>
  <blank length="95"/>
  <entry out="425" producer="40_playlist3" in="0">
   <filter id="filter9">
    <property name="version">0,1</property>
    <property name="mlt_service">frei0r.scale0tilt</property>
    <property name="kdenlive_id">frei0r.scale0tilt</property>
    <property name="tag">frei0r.scale0tilt</property>
    <property name="kdenlive_info"/>
    <property name="kdenlive_ix">1</property>
    <property name="disable"/>
    <property name="Clip left">0</property>
    <property name="Clip right">0</property>
    <property name="Clip top">0</property>
    <property name="Clip bottom">0</property>
    <property name="Scale X">0,5</property>
    <property name="Scale Y">0,5</property>
    <property name="Tilt X">0,542969</property>
    <property name="Tilt Y">0,5</property>
   </filter>
  </entry>
 </playlist>
 <producer id="43_playlist4" title="Anonymous Submission" out="989" in="0">
  <property name="length">00:00:39:15</property>
  <property name="eof">pause</property>
  <property name="resource">/home/nicolas/Documents/Projets Musique/Barons Freaks/COURTS METRAGES - MAIN/COURTS METRAGES/EpisodeII/scène cave/DSC_0081.MOV</property>
  <property name="seekable">1</property>
  <property name="audio_index">1</property>
  <property name="video_index">0</property>
  <property name="mute_on_pause">1</property>
  <property name="mlt_service">avformat</property>
  <property name="kdenlive:folderid">-1</property>
  <property name="kdenlive:file_size">53955986</property>
  <property name="kdenlive:file_hash">c9f6cffdf46e059b70de2e6eec2ee07d</property>
  <property name="kdenlive:proxy">/home/nicolas/.cache/kdenlive/proxy/c9f6cffdf46e059b70de2e6eec2ee07d.mpg</property>
  <property name="proxy_out">989</property>
  <property name="kdenlive:originalurl">scène cave/DSC_0081.MOV</property>
  <property name="global_feed">1</property>
  <property name="kdenlive:meta.media.nb_streams">2</property>
  <property name="kdenlive:meta.media.0.stream.type">video</property>
  <property name="kdenlive:meta.media.0.stream.frame_rate">25</property>
  <property name="kdenlive:meta.media.0.stream.sample_aspect_ratio">0</property>
  <property name="kdenlive:meta.media.0.codec.width">1280</property>
  <property name="kdenlive:meta.media.0.codec.height">720</property>
  <property name="kdenlive:meta.media.0.codec.rotate">0</property>
  <property name="kdenlive:meta.media.0.codec.frame_rate">25</property>
  <property name="kdenlive:meta.media.0.codec.pix_fmt">yuvj420p</property>
  <property name="kdenlive:meta.media.0.codec.sample_aspect_ratio">1</property>
  <property name="kdenlive:meta.media.0.codec.colorspace">601</property>
  <property name="kdenlive:meta.media.0.codec.color_trc">4</property>
  <property name="kdenlive:meta.media.0.codec.name">h264</property>
  <property name="kdenlive:meta.media.0.codec.long_name">H.264 / AVC / MPEG-4 AVC / MPEG-4 part 10</property>
  <property name="kdenlive:meta.media.0.codec.bit_rate">10492689</property>
  <property name="kdenlive:meta.attr.0.stream.creation_time.markup">2017-10-20T11:07:56.000000Z</property>
  <property name="kdenlive:meta.attr.0.stream.language.markup">eng</property>
  <property name="kdenlive:meta.media.1.stream.type">audio</property>
  <property name="kdenlive:meta.media.1.codec.sample_fmt">s16</property>
  <property name="kdenlive:meta.media.1.codec.sample_rate">24000</property>
  <property name="kdenlive:meta.media.1.codec.channels">1</property>
  <property name="kdenlive:meta.media.1.codec.name">pcm_s16le</property>
  <property name="kdenlive:meta.media.1.codec.long_name">PCM signed 16-bit little-endian</property>
  <property name="kdenlive:meta.media.1.codec.bit_rate">384000</property>
  <property name="kdenlive:meta.attr.1.stream.creation_time.markup">2017-10-20T11:07:56.000000Z</property>
  <property name="kdenlive:meta.attr.1.stream.language.markup">eng</property>
  <property name="kdenlive:meta.attr.major_brand.markup">qt  </property>
  <property name="kdenlive:meta.attr.minor_version.markup">537331968</property>
  <property name="kdenlive:meta.attr.compatible_brands.markup">qt  niko</property>
  <property name="kdenlive:meta.attr.creation_time.markup">2017-10-20T11:07:56.000000Z</property>
  <property name="kdenlive:meta.media.sample_aspect_num">1</property>
  <property name="kdenlive:meta.media.sample_aspect_den">1</property>
  <property name="kdenlive:meta.media.frame_rate_num">25</property>
  <property name="kdenlive:meta.media.frame_rate_den">1</property>
  <property name="kdenlive:meta.media.colorspace">601</property>
  <property name="kdenlive:meta.media.color_trc">4</property>
  <property name="kdenlive:meta.media.width">1280</property>
  <property name="kdenlive:meta.media.height">720</property>
  <property name="kdenlive:meta.media.top_field_first">0</property>
  <property name="kdenlive:meta.media.progressive">1</property>
  <property name="xml">was here</property>
 </producer>
 <producer id="44_playlist4" title="Anonymous Submission" out="395" in="0">
  <property name="length">00:00:15:21</property>
  <property name="eof">pause</property>
  <property name="resource">/home/nicolas/Documents/Projets Musique/Barons Freaks/COURTS METRAGES - MAIN/COURTS METRAGES/EpisodeII/scène cave/DSC_0082.MOV</property>
  <property name="seekable">1</property>
  <property name="audio_index">1</property>
  <property name="video_index">0</property>
  <property name="mute_on_pause">1</property>
  <property name="mlt_service">avformat</property>
  <property name="kdenlive:folderid">-1</property>
  <property name="kdenlive:file_size">21491706</property>
  <property name="kdenlive:file_hash">7db0ca8720755483569dab89c2c38e68</property>
  <property name="kdenlive:proxy">/home/nicolas/.cache/kdenlive/proxy/7db0ca8720755483569dab89c2c38e68.mpg</property>
  <property name="proxy_out">395</property>
  <property name="kdenlive:originalurl">scène cave/DSC_0082.MOV</property>
  <property name="global_feed">1</property>
  <property name="kdenlive:meta.media.nb_streams">2</property>
  <property name="kdenlive:meta.media.0.stream.type">video</property>
  <property name="kdenlive:meta.media.0.stream.frame_rate">25</property>
  <property name="kdenlive:meta.media.0.stream.sample_aspect_ratio">0</property>
  <property name="kdenlive:meta.media.0.codec.width">1280</property>
  <property name="kdenlive:meta.media.0.codec.height">720</property>
  <property name="kdenlive:meta.media.0.codec.rotate">0</property>
  <property name="kdenlive:meta.media.0.codec.frame_rate">25</property>
  <property name="kdenlive:meta.media.0.codec.pix_fmt">yuvj420p</property>
  <property name="kdenlive:meta.media.0.codec.sample_aspect_ratio">1</property>
  <property name="kdenlive:meta.media.0.codec.colorspace">601</property>
  <property name="kdenlive:meta.media.0.codec.color_trc">4</property>
  <property name="kdenlive:meta.media.0.codec.name">h264</property>
  <property name="kdenlive:meta.media.0.codec.long_name">H.264 / AVC / MPEG-4 AVC / MPEG-4 part 10</property>
  <property name="kdenlive:meta.media.0.codec.bit_rate">10412048</property>
  <property name="kdenlive:meta.attr.0.stream.creation_time.markup">2017-10-20T11:11:12.000000Z</property>
  <property name="kdenlive:meta.attr.0.stream.language.markup">eng</property>
  <property name="kdenlive:meta.media.1.stream.type">audio</property>
  <property name="kdenlive:meta.media.1.codec.sample_fmt">s16</property>
  <property name="kdenlive:meta.media.1.codec.sample_rate">24000</property>
  <property name="kdenlive:meta.media.1.codec.channels">1</property>
  <property name="kdenlive:meta.media.1.codec.name">pcm_s16le</property>
  <property name="kdenlive:meta.media.1.codec.long_name">PCM signed 16-bit little-endian</property>
  <property name="kdenlive:meta.media.1.codec.bit_rate">384000</property>
  <property name="kdenlive:meta.attr.1.stream.creation_time.markup">2017-10-20T11:11:12.000000Z</property>
  <property name="kdenlive:meta.attr.1.stream.language.markup">eng</property>
  <property name="kdenlive:meta.attr.major_brand.markup">qt  </property>
  <property name="kdenlive:meta.attr.minor_version.markup">537331968</property>
  <property name="kdenlive:meta.attr.compatible_brands.markup">qt  niko</property>
  <property name="kdenlive:meta.attr.creation_time.markup">2017-10-20T11:11:12.000000Z</property>
  <property name="kdenlive:meta.media.sample_aspect_num">1</property>
  <property name="kdenlive:meta.media.sample_aspect_den">1</property>
  <property name="kdenlive:meta.media.frame_rate_num">25</property>
  <property name="kdenlive:meta.media.frame_rate_den">1</property>
  <property name="kdenlive:meta.media.colorspace">601</property>
  <property name="kdenlive:meta.media.color_trc">4</property>
  <property name="kdenlive:meta.media.width">1280</property>
  <property name="kdenlive:meta.media.height">720</property>
  <property name="kdenlive:meta.media.top_field_first">0</property>
  <property name="kdenlive:meta.media.progressive">1</property>
  <property name="xml">was here</property>
 </producer>
 <producer id="19_playlist4" title="Anonymous Submission" out="512" in="0">
  <property name="length">00:00:20:13</property>
  <property name="eof">pause</property>
  <property name="resource">/home/nicolas/Documents/Projets Musique/Barons Freaks/COURTS METRAGES - MAIN/COURTS METRAGES/EpisodeII/scène cave/DSC_0045.MOV</property>
  <property name="seekable">1</property>
  <property name="audio_index">1</property>
  <property name="video_index">0</property>
  <property name="mute_on_pause">1</property>
  <property name="mlt_service">avformat</property>
  <property name="kdenlive:folderid">-1</property>
  <property name="kdenlive:file_size">27467948</property>
  <property name="kdenlive:file_hash">1760849d6e5321df7cc6cb25d01907dc</property>
  <property name="kdenlive:proxy">/home/nicolas/.cache/kdenlive/proxy/1760849d6e5321df7cc6cb25d01907dc.mpg</property>
  <property name="proxy_out">512</property>
  <property name="kdenlive:originalurl">scène cave/DSC_0045.MOV</property>
  <property name="global_feed">1</property>
  <property name="kdenlive:meta.media.nb_streams">2</property>
  <property name="kdenlive:meta.media.0.stream.type">video</property>
  <property name="kdenlive:meta.media.0.stream.frame_rate">25</property>
  <property name="kdenlive:meta.media.0.stream.sample_aspect_ratio">0</property>
  <property name="kdenlive:meta.media.0.codec.width">1280</property>
  <property name="kdenlive:meta.media.0.codec.height">720</property>
  <property name="kdenlive:meta.media.0.codec.rotate">0</property>
  <property name="kdenlive:meta.media.0.codec.frame_rate">25</property>
  <property name="kdenlive:meta.media.0.codec.pix_fmt">yuvj420p</property>
  <property name="kdenlive:meta.media.0.codec.sample_aspect_ratio">1</property>
  <property name="kdenlive:meta.media.0.codec.colorspace">601</property>
  <property name="kdenlive:meta.media.0.codec.color_trc">4</property>
  <property name="kdenlive:meta.media.0.codec.name">h264</property>
  <property name="kdenlive:meta.media.0.codec.long_name">H.264 / AVC / MPEG-4 AVC / MPEG-4 part 10</property>
  <property name="kdenlive:meta.media.0.codec.bit_rate">10279617</property>
  <property name="kdenlive:meta.attr.0.stream.creation_time.markup">2017-10-12T14:17:42.000000Z</property>
  <property name="kdenlive:meta.attr.0.stream.language.markup">eng</property>
  <property name="kdenlive:meta.media.1.stream.type">audio</property>
  <property name="kdenlive:meta.media.1.codec.sample_fmt">s16</property>
  <property name="kdenlive:meta.media.1.codec.sample_rate">24000</property>
  <property name="kdenlive:meta.media.1.codec.channels">1</property>
  <property name="kdenlive:meta.media.1.codec.name">pcm_s16le</property>
  <property name="kdenlive:meta.media.1.codec.long_name">PCM signed 16-bit little-endian</property>
  <property name="kdenlive:meta.media.1.codec.bit_rate">384000</property>
  <property name="kdenlive:meta.attr.1.stream.creation_time.markup">2017-10-12T14:17:42.000000Z</property>
  <property name="kdenlive:meta.attr.1.stream.language.markup">eng</property>
  <property name="kdenlive:meta.attr.major_brand.markup">qt  </property>
  <property name="kdenlive:meta.attr.minor_version.markup">537331968</property>
  <property name="kdenlive:meta.attr.compatible_brands.markup">qt  niko</property>
  <property name="kdenlive:meta.attr.creation_time.markup">2017-10-12T14:17:42.000000Z</property>
  <property name="kdenlive:meta.media.sample_aspect_num">1</property>
  <property name="kdenlive:meta.media.sample_aspect_den">1</property>
  <property name="kdenlive:meta.media.frame_rate_num">25</property>
  <property name="kdenlive:meta.media.frame_rate_den">1</property>
  <property name="kdenlive:meta.media.colorspace">601</property>
  <property name="kdenlive:meta.media.color_trc">4</property>
  <property name="kdenlive:meta.media.width">1280</property>
  <property name="kdenlive:meta.media.height">720</property>
  <property name="kdenlive:meta.media.top_field_first">0</property>
  <property name="kdenlive:meta.media.progressive">1</property>
  <property name="xml">was here</property>
 </producer>
 <producer id="28_playlist4" title="Anonymous Submission" out="1685" in="0">
  <property name="length">00:01:07:11</property>
  <property name="eof">pause</property>
  <property name="resource">/home/nicolas/Documents/Projets Musique/Barons Freaks/COURTS METRAGES - MAIN/COURTS METRAGES/EpisodeII/scène cave/DSC_0054.MOV</property>
  <property name="seekable">1</property>
  <property name="audio_index">1</property>
  <property name="video_index">0</property>
  <property name="mute_on_pause">1</property>
  <property name="mlt_service">avformat</property>
  <property name="kdenlive:folderid">-1</property>
  <property name="kdenlive:file_size">90561037</property>
  <property name="kdenlive:file_hash">3a8f7a3ec0d9f6298a6a6514cef1d024</property>
  <property name="kdenlive:proxy">/home/nicolas/.cache/kdenlive/proxy/3a8f7a3ec0d9f6298a6a6514cef1d024.mpg</property>
  <property name="proxy_out">1685</property>
  <property name="kdenlive:originalurl">scène cave/DSC_0054.MOV</property>
  <property name="global_feed">1</property>
  <property name="kdenlive:meta.media.nb_streams">2</property>
  <property name="kdenlive:meta.media.0.stream.type">video</property>
  <property name="kdenlive:meta.media.0.stream.frame_rate">25</property>
  <property name="kdenlive:meta.media.0.stream.sample_aspect_ratio">0</property>
  <property name="kdenlive:meta.media.0.codec.width">1280</property>
  <property name="kdenlive:meta.media.0.codec.height">720</property>
  <property name="kdenlive:meta.media.0.codec.rotate">0</property>
  <property name="kdenlive:meta.media.0.codec.frame_rate">25</property>
  <property name="kdenlive:meta.media.0.codec.pix_fmt">yuvj420p</property>
  <property name="kdenlive:meta.media.0.codec.sample_aspect_ratio">1</property>
  <property name="kdenlive:meta.media.0.codec.colorspace">601</property>
  <property name="kdenlive:meta.media.0.codec.color_trc">4</property>
  <property name="kdenlive:meta.media.0.codec.name">h264</property>
  <property name="kdenlive:meta.media.0.codec.long_name">H.264 / AVC / MPEG-4 AVC / MPEG-4 part 10</property>
  <property name="kdenlive:meta.media.0.codec.bit_rate">10343853</property>
  <property name="kdenlive:meta.attr.0.stream.creation_time.markup">2017-10-12T14:55:06.000000Z</property>
  <property name="kdenlive:meta.attr.0.stream.language.markup">eng</property>
  <property name="kdenlive:meta.media.1.stream.type">audio</property>
  <property name="kdenlive:meta.media.1.codec.sample_fmt">s16</property>
  <property name="kdenlive:meta.media.1.codec.sample_rate">24000</property>
  <property name="kdenlive:meta.media.1.codec.channels">1</property>
  <property name="kdenlive:meta.media.1.codec.name">pcm_s16le</property>
  <property name="kdenlive:meta.media.1.codec.long_name">PCM signed 16-bit little-endian</property>
  <property name="kdenlive:meta.media.1.codec.bit_rate">384000</property>
  <property name="kdenlive:meta.attr.1.stream.creation_time.markup">2017-10-12T14:55:06.000000Z</property>
  <property name="kdenlive:meta.attr.1.stream.language.markup">eng</property>
  <property name="kdenlive:meta.attr.major_brand.markup">qt  </property>
  <property name="kdenlive:meta.attr.minor_version.markup">537331968</property>
  <property name="kdenlive:meta.attr.compatible_brands.markup">qt  niko</property>
  <property name="kdenlive:meta.attr.creation_time.markup">2017-10-12T14:55:06.000000Z</property>
  <property name="kdenlive:meta.media.sample_aspect_num">1</property>
  <property name="kdenlive:meta.media.sample_aspect_den">1</property>
  <property name="kdenlive:meta.media.frame_rate_num">25</property>
  <property name="kdenlive:meta.media.frame_rate_den">1</property>
  <property name="kdenlive:meta.media.colorspace">601</property>
  <property name="kdenlive:meta.media.color_trc">4</property>
  <property name="kdenlive:meta.media.width">1280</property>
  <property name="kdenlive:meta.media.height">720</property>
  <property name="kdenlive:meta.media.top_field_first">0</property>
  <property name="kdenlive:meta.media.progressive">1</property>
  <property name="xml">was here</property>
 </producer>
 <producer id="37_playlist4" title="Anonymous Submission" out="1196" in="0">
  <property name="length">00:00:47:22</property>
  <property name="eof">pause</property>
  <property name="resource">/home/nicolas/Documents/Projets Musique/Barons Freaks/COURTS METRAGES - MAIN/COURTS METRAGES/EpisodeII/scène cave/DSC_0063.MOV</property>
  <property name="seekable">1</property>
  <property name="audio_index">1</property>
  <property name="video_index">0</property>
  <property name="mute_on_pause">1</property>
  <property name="mlt_service">avformat</property>
  <property name="kdenlive:folderid">-1</property>
  <property name="kdenlive:file_size">65834210</property>
  <property name="kdenlive:file_hash">731f384e4801e1263455353c85eaaad9</property>
  <property name="kdenlive:proxy">/home/nicolas/.cache/kdenlive/proxy/731f384e4801e1263455353c85eaaad9.mpg</property>
  <property name="proxy_out">1196</property>
  <property name="kdenlive:originalurl">scène cave/DSC_0063.MOV</property>
  <property name="global_feed">1</property>
  <property name="kdenlive:meta.media.nb_streams">2</property>
  <property name="kdenlive:meta.media.0.stream.type">video</property>
  <property name="kdenlive:meta.media.0.stream.frame_rate">25</property>
  <property name="kdenlive:meta.media.0.stream.sample_aspect_ratio">0</property>
  <property name="kdenlive:meta.media.0.codec.width">1280</property>
  <property name="kdenlive:meta.media.0.codec.height">720</property>
  <property name="kdenlive:meta.media.0.codec.rotate">0</property>
  <property name="kdenlive:meta.media.0.codec.frame_rate">25</property>
  <property name="kdenlive:meta.media.0.codec.pix_fmt">yuvj420p</property>
  <property name="kdenlive:meta.media.0.codec.sample_aspect_ratio">1</property>
  <property name="kdenlive:meta.media.0.codec.colorspace">601</property>
  <property name="kdenlive:meta.media.0.codec.color_trc">4</property>
  <property name="kdenlive:meta.media.0.codec.name">h264</property>
  <property name="kdenlive:meta.media.0.codec.long_name">H.264 / AVC / MPEG-4 AVC / MPEG-4 part 10</property>
  <property name="kdenlive:meta.media.0.codec.bit_rate">10595639</property>
  <property name="kdenlive:meta.attr.0.stream.creation_time.markup">2017-10-12T15:25:29.000000Z</property>
  <property name="kdenlive:meta.attr.0.stream.language.markup">eng</property>
  <property name="kdenlive:meta.media.1.stream.type">audio</property>
  <property name="kdenlive:meta.media.1.codec.sample_fmt">s16</property>
  <property name="kdenlive:meta.media.1.codec.sample_rate">24000</property>
  <property name="kdenlive:meta.media.1.codec.channels">1</property>
  <property name="kdenlive:meta.media.1.codec.name">pcm_s16le</property>
  <property name="kdenlive:meta.media.1.codec.long_name">PCM signed 16-bit little-endian</property>
  <property name="kdenlive:meta.media.1.codec.bit_rate">384000</property>
  <property name="kdenlive:meta.attr.1.stream.creation_time.markup">2017-10-12T15:25:29.000000Z</property>
  <property name="kdenlive:meta.attr.1.stream.language.markup">eng</property>
  <property name="kdenlive:meta.attr.major_brand.markup">qt  </property>
  <property name="kdenlive:meta.attr.minor_version.markup">537331968</property>
  <property name="kdenlive:meta.attr.compatible_brands.markup">qt  niko</property>
  <property name="kdenlive:meta.attr.creation_time.markup">2017-10-12T15:25:29.000000Z</property>
  <property name="kdenlive:meta.media.sample_aspect_num">1</property>
  <property name="kdenlive:meta.media.sample_aspect_den">1</property>
  <property name="kdenlive:meta.media.frame_rate_num">25</property>
  <property name="kdenlive:meta.media.frame_rate_den">1</property>
  <property name="kdenlive:meta.media.colorspace">601</property>
  <property name="kdenlive:meta.media.color_trc">4</property>
  <property name="kdenlive:meta.media.width">1280</property>
  <property name="kdenlive:meta.media.height">720</property>
  <property name="kdenlive:meta.media.top_field_first">0</property>
  <property name="kdenlive:meta.media.progressive">1</property>
  <property name="xml">was here</property>
 </producer>
 <producer id="slowmotion:37:1,02:1:0" out="1173" in="0">
  <property name="length">1174</property>
  <property name="eof">pause</property>
  <property name="resource">1,02:/home/nicolas/Documents/Projets Musique/Barons Freaks/COURTS METRAGES - MAIN/COURTS METRAGES/EpisodeII/scène cave/DSC_0063.MOV</property>
  <property name="seekable">1</property>
  <property name="audio_index">1</property>
  <property name="video_index">0</property>
  <property name="mute_on_pause">1</property>
  <property name="warp_speed">1,02</property>
  <property name="warp_resource">/home/nicolas/Documents/Projets Musique/Barons Freaks/COURTS METRAGES - MAIN/COURTS METRAGES/EpisodeII/scène cave/DSC_0063.MOV</property>
  <property name="mlt_service">timewarp</property>
  <property name="kdenlive:proxy">/home/nicolas/.cache/kdenlive/proxy/731f384e4801e1263455353c85eaaad9.mpg</property>
  <property name="kdenlive:originalurl">scène cave/DSC_0063.MOV</property>
 </producer>
 <producer id="slowmotion:37:1,06:1:0" out="1129" in="0">
  <property name="length">1130</property>
  <property name="eof">pause</property>
  <property name="resource">1,06:/home/nicolas/Documents/Projets Musique/Barons Freaks/COURTS METRAGES - MAIN/COURTS METRAGES/EpisodeII/scène cave/DSC_0063.MOV</property>
  <property name="seekable">1</property>
  <property name="audio_index">1</property>
  <property name="video_index">0</property>
  <property name="mute_on_pause">1</property>
  <property name="warp_speed">1,06</property>
  <property name="warp_resource">/home/nicolas/Documents/Projets Musique/Barons Freaks/COURTS METRAGES - MAIN/COURTS METRAGES/EpisodeII/scène cave/DSC_0063.MOV</property>
  <property name="mlt_service">timewarp</property>
  <property name="kdenlive:proxy">/home/nicolas/.cache/kdenlive/proxy/731f384e4801e1263455353c85eaaad9.mpg</property>
  <property name="kdenlive:originalurl">scène cave/DSC_0063.MOV</property>
 </producer>
 <producer id="slowmotion:37:1:1:0" out="1197" in="0">
  <property name="length">1198</property>
  <property name="eof">pause</property>
  <property name="resource">1:/home/nicolas/Documents/Projets Musique/Barons Freaks/COURTS METRAGES - MAIN/COURTS METRAGES/EpisodeII/scène cave/DSC_0063.MOV</property>
  <property name="seekable">1</property>
  <property name="audio_index">1</property>
  <property name="video_index">0</property>
  <property name="mute_on_pause">1</property>
  <property name="warp_speed">1</property>
  <property name="warp_resource">/home/nicolas/Documents/Projets Musique/Barons Freaks/COURTS METRAGES - MAIN/COURTS METRAGES/EpisodeII/scène cave/DSC_0063.MOV</property>
  <property name="mlt_service">timewarp</property>
  <property name="kdenlive:proxy">/home/nicolas/.cache/kdenlive/proxy/731f384e4801e1263455353c85eaaad9.mpg</property>
  <property name="kdenlive:originalurl">scène cave/DSC_0063.MOV</property>
 </producer>
 <playlist id="playlist4" autoclose="1">
  <property name="kdenlive:track_name">Video 4</property>
  <blank length="593"/>
  <entry out="362" producer="43_playlist4" in="0"/>
  <entry out="938" producer="43_playlist4" in="705"/>
  <entry out="354" producer="44_playlist4" in="30"/>
  <entry out="336" producer="19_playlist4" in="69"/>
  <blank length="488"/>
  <entry out="554" producer="28_playlist4" in="42">
   <filter id="filter10">
    <property name="version">0,1</property>
    <property name="mlt_service">frei0r.scale0tilt</property>
    <property name="kdenlive_id">frei0r.scale0tilt</property>
    <property name="tag">frei0r.scale0tilt</property>
    <property name="kdenlive_ix">1</property>
    <property name="Clip left">0</property>
    <property name="Clip right">0</property>
    <property name="Clip top">0</property>
    <property name="Clip bottom">0</property>
    <property name="Scale X">0,5</property>
    <property name="Scale Y">0,5</property>
    <property name="Tilt X">0,573438</property>
    <property name="Tilt Y">0,5</property>
   </filter>
  </entry>
  <entry out="809" producer="28_playlist4" in="709">
   <filter id="filter11">
    <property name="version">0,1</property>
    <property name="mlt_service">frei0r.scale0tilt</property>
    <property name="kdenlive_id">frei0r.scale0tilt</property>
    <property name="tag">frei0r.scale0tilt</property>
    <property name="kdenlive_ix">1</property>
    <property name="Clip left">0</property>
    <property name="Clip right">0</property>
    <property name="Clip top">0</property>
    <property name="Clip bottom">0</property>
    <property name="Scale X">0,5</property>
    <property name="Scale Y">0,5</property>
    <property name="Tilt X">0,573438</property>
    <property name="Tilt Y">0,5</property>
    <property name="kdenlive_info"/>
   </filter>
  </entry>
  <entry out="11" producer="47" in="0"/>
  <blank length="666"/>
  <entry out="289" producer="37_playlist4" in="0">
   <filter id="filter12">
    <property name="version">0,1</property>
    <property name="mlt_service">frei0r.scale0tilt</property>
    <property name="kdenlive_id">frei0r.scale0tilt</property>
    <property name="tag">frei0r.scale0tilt</property>
    <property name="kdenlive_ix">1</property>
    <property name="Clip left">0</property>
    <property name="Clip right">0</property>
    <property name="Clip top">0</property>
    <property name="Clip bottom">0</property>
    <property name="Scale X">0,5</property>
    <property name="Scale Y">0,5</property>
    <property name="Tilt X">0,542969</property>
    <property name="Tilt Y">0,5</property>
    <property name="kdenlive_info"/>
   </filter>
  </entry>
  <entry out="370" producer="slowmotion:37:1,02:1:0" in="284">
   <filter id="filter13">
    <property name="version">0,1</property>
    <property name="mlt_service">frei0r.scale0tilt</property>
    <property name="kdenlive_id">frei0r.scale0tilt</property>
    <property name="tag">frei0r.scale0tilt</property>
    <property name="kdenlive_ix">1</property>
    <property name="Clip left">0</property>
    <property name="Clip right">0</property>
    <property name="Clip top">0</property>
    <property name="Clip bottom">0</property>
    <property name="Scale X">0,5</property>
    <property name="Scale Y">0,5</property>
    <property name="Tilt X">0,542969</property>
    <property name="Tilt Y">0,5</property>
    <property name="kdenlive_info"/>
   </filter>
  </entry>
  <entry out="398" producer="slowmotion:37:1,06:1:0" in="357">
   <filter id="filter14">
    <property name="version">0,1</property>
    <property name="mlt_service">frei0r.scale0tilt</property>
    <property name="kdenlive_id">frei0r.scale0tilt</property>
    <property name="tag">frei0r.scale0tilt</property>
    <property name="kdenlive_ix">1</property>
    <property name="Clip left">0</property>
    <property name="Clip right">0</property>
    <property name="Clip top">0</property>
    <property name="Clip bottom">0</property>
    <property name="Scale X">0,5</property>
    <property name="Scale Y">0,5</property>
    <property name="Tilt X">0,542969</property>
    <property name="Tilt Y">0,5</property>
    <property name="kdenlive_info"/>
   </filter>
  </entry>
  <blank length="204"/>
  <entry out="520" producer="slowmotion:37:1,52:1:0" in="383">
   <filter id="filter15">
    <property name="version">0,1</property>
    <property name="mlt_service">frei0r.scale0tilt</property>
    <property name="kdenlive_id">frei0r.scale0tilt</property>
    <property name="tag">frei0r.scale0tilt</property>
    <property name="kdenlive_ix">1</property>
    <property name="Clip left">0</property>
    <property name="Clip right">0</property>
    <property name="Clip top">0</property>
    <property name="Clip bottom">0</property>
    <property name="Scale X">0,5</property>
    <property name="Scale Y">0,5</property>
    <property name="Tilt X">0,542969</property>
    <property name="Tilt Y">0,5</property>
    <property name="kdenlive_info"/>
   </filter>
  </entry>
  <entry out="863" producer="slowmotion:37:1:1:0" in="791">
   <filter id="filter16">
    <property name="version">0,1</property>
    <property name="mlt_service">frei0r.scale0tilt</property>
    <property name="kdenlive_id">frei0r.scale0tilt</property>
    <property name="tag">frei0r.scale0tilt</property>
    <property name="kdenlive_ix">1</property>
    <property name="Clip left">0</property>
    <property name="Clip right">0</property>
    <property name="Clip top">0</property>
    <property name="Clip bottom">0</property>
    <property name="Scale X">0,5</property>
    <property name="Scale Y">0,5</property>
    <property name="Tilt X">0,542969</property>
    <property name="Tilt Y">0,5</property>
    <property name="kdenlive_info"/>
    <property name="disable">1</property>
   </filter>
   <filter id="filter17">
    <property name="version">0,1</property>
    <property name="mlt_service">frei0r.scale0tilt</property>
    <property name="kdenlive_id">frei0r.scale0tilt</property>
    <property name="tag">frei0r.scale0tilt</property>
    <property name="kdenlive_info"/>
    <property name="kdenlive_ix">3</property>
    <property name="disable"/>
    <property name="Clip left">0</property>
    <property name="Clip right">0</property>
    <property name="Clip top">0</property>
    <property name="Clip bottom">0</property>
    <property name="Scale X">0,5</property>
    <property name="Scale Y">0,5</property>
    <property name="Tilt X">0,542969</property>
    <property name="Tilt Y">0,5</property>
   </filter>
  </entry>
 </playlist>
 <playlist id="playlist5" autoclose="1">
  <property name="kdenlive:track_name">Video 5</property>
  <property name="kdenlive:locked_track">1</property>
  <entry out="9171" producer="46" in="0"/>
 </playlist>
 <tractor id="maintractor" title="Anonymous Submission" global_feed="1" out="9172" in="0">
  <track producer="black_track"/>
  <track producer="playlist1"/>
  <track producer="playlist2"/>
  <track producer="playlist3"/>
  <track producer="playlist4"/>
  <track producer="playlist5" hide="video"/>
  <transition id="transition0">
   <property name="a_track">0</property>
   <property name="b_track">1</property>
   <property name="mlt_service">mix</property>
   <property name="always_active">1</property>
   <property name="combine">1</property>
   <property name="internal_added">237</property>
  </transition>
  <transition id="transition1">
   <property name="a_track">0</property>
   <property name="b_track">2</property>
   <property name="mlt_service">mix</property>
   <property name="always_active">1</property>
   <property name="combine">1</property>
   <property name="internal_added">237</property>
  </transition>
  <transition id="transition2">
   <property name="a_track">0</property>
   <property name="b_track">3</property>
   <property name="mlt_service">mix</property>
   <property name="always_active">1</property>
   <property name="combine">1</property>
   <property name="internal_added">237</property>
  </transition>
  <transition id="transition3">
   <property name="a_track">0</property>
   <property name="b_track">4</property>
   <property name="mlt_service">mix</property>
   <property name="always_active">1</property>
   <property name="combine">1</property>
   <property name="internal_added">237</property>
  </transition>
  <transition id="transition4">
   <property name="a_track">0</property>
   <property name="b_track">5</property>
   <property name="mlt_service">mix</property>
   <property name="always_active">1</property>
   <property name="combine">1</property>
   <property name="internal_added">237</property>
  </transition>
  <transition id="transition5" out="9171">
   <property name="a_track">4</property>
   <property name="b_track">5</property>
   <property name="start">0/0:100%x100%</property>
   <property name="factory">loader</property>
   <property name="aligned">1</property>
   <property name="progressive">1</property>
   <property name="mlt_service">composite</property>
   <property name="automatic">1</property>
   <property name="kdenlive_id">composite</property>
   <property name="force_track">0</property>
   <property name="deinterlace">0</property>
   <property name="distort">0</property>
   <property name="fill">1</property>
   <property name="geometry">0%/0%:100%x100%:100</property>
   <property name="halign">centre</property>
   <property name="luma_invert">0</property>
   <property name="operator">over</property>
   <property name="softness">0</property>
   <property name="valign">middle</property>
  </transition>
  <transition id="transition6" out="2896" in="2885">
   <property name="a_track">3</property>
   <property name="b_track">4</property>
   <property name="version">0,2</property>
   <property name="mlt_service">frei0r.difference</property>
   <property name="automatic">1</property>
   <property name="force_track">1</property>
  </transition>
  <transition id="transition7" out="4396" in="4393">
   <property name="a_track">3</property>
   <property name="b_track">4</property>
   <property name="factory">loader</property>
   <property name="mlt_service">luma</property>
   <property name="automatic">1</property>
   <property name="kdenlive_id">dissolve</property>
   <property name="force_track">0</property>
   <property name="reverse">1</property>
  </transition>
  <transition id="transition8" out="1958" in="1941">
   <property name="a_track">2</property>
   <property name="b_track">3</property>
   <property name="factory">loader</property>
   <property name="mlt_service">luma</property>
   <property name="automatic">1</property>
   <property name="kdenlive_id">dissolve</property>
   <property name="force_track">0</property>
   <property name="reverse">1</property>
  </transition>
  <transition id="transition9">
   <property name="a_track">0</property>
   <property name="b_track">1</property>
   <property name="compositing">0</property>
   <property name="distort">0</property>
   <property name="mlt_service">qtblend</property>
   <property name="internal_added">237</property>
  </transition>
  <transition id="transition10">
   <property name="a_track">0</property>
   <property name="b_track">2</property>
   <property name="compositing">0</property>
   <property name="distort">0</property>
   <property name="mlt_service">qtblend</property>
   <property name="internal_added">237</property>
  </transition>
  <transition id="transition11">
   <property name="a_track">0</property>
   <property name="b_track">3</property>
   <property name="compositing">0</property>
   <property name="distort">0</property>
   <property name="mlt_service">qtblend</property>
   <property name="internal_added">237</property>
  </transition>
  <transition id="transition12">
   <property name="a_track">0</property>
   <property name="b_track">4</property>
   <property name="compositing">0</property>
   <property name="distort">0</property>
   <property name="mlt_service">qtblend</property>
   <property name="internal_added">237</property>
  </transition>
  <transition id="transition13">
   <property name="a_track">0</property>
   <property name="b_track">5</property>
   <property name="compositing">0</property>
   <property name="distort">0</property>
   <property name="mlt_service">qtblend</property>
   <property name="internal_added">237</property>
  </transition>
 </tractor>
</mlt>
