<?xml version='1.0' encoding='utf-8'?>
<mlt title="Anonymous Submission" version="6.4.1" root="/home/nicolas/Documents/Projets Musique/Barons Freaks/COURTS METRAGES - MAIN/COURTS METRAGES/EpisodeV" producer="main bin" LC_NUMERIC="fr_FR.UTF-8">
 <profile width="1280" frame_rate_den="1" height="720" display_aspect_num="16" display_aspect_den="9" frame_rate_num="25" colorspace="709" sample_aspect_den="1" description="HD 720p 25 fps" progressive="1" sample_aspect_num="1"/>
 <producer id="2" title="Anonymous Submission" out="1088" in="0">
  <property name="length">00:00:43:14</property>
  <property name="eof">pause</property>
  <property name="resource">/home/nicolas/.cache/kdenlive/proxy/53030d26c565e4aa2ce9a8b93378f386.mpg</property>
  <property name="meta.media.nb_streams">2</property>
  <property name="meta.media.0.stream.type">video</property>
  <property name="meta.media.0.stream.frame_rate">25</property>
  <property name="meta.media.0.stream.sample_aspect_ratio">0</property>
  <property name="meta.media.0.codec.width">640</property>
  <property name="meta.media.0.codec.height">360</property>
  <property name="meta.media.0.codec.rotate">0</property>
  <property name="meta.media.0.codec.frame_rate">25</property>
  <property name="meta.media.0.codec.pix_fmt">yuv420p</property>
  <property name="meta.media.0.codec.sample_aspect_ratio">1</property>
  <property name="meta.media.0.codec.colorspace">601</property>
  <property name="meta.media.0.codec.name">mpeg2video</property>
  <property name="meta.media.0.codec.long_name">MPEG-2 video</property>
  <property name="meta.media.0.codec.bit_rate">0</property>
  <property name="meta.media.1.stream.type">audio</property>
  <property name="meta.media.1.codec.sample_fmt">s16p</property>
  <property name="meta.media.1.codec.sample_rate">24000</property>
  <property name="meta.media.1.codec.channels">1</property>
  <property name="meta.media.1.codec.name">mp2</property>
  <property name="meta.media.1.codec.long_name">MP2 (MPEG audio layer 2)</property>
  <property name="meta.media.1.codec.bit_rate">128000</property>
  <property name="seekable">1</property>
  <property name="meta.media.sample_aspect_num">1</property>
  <property name="meta.media.sample_aspect_den">1</property>
  <property name="aspect_ratio">1</property>
  <property name="audio_index">1</property>
  <property name="video_index">0</property>
  <property name="mute_on_pause">1</property>
  <property name="mlt_service">avformat</property>
  <property name="meta.media.0.codec.color_trc">4</property>
  <property name="meta.attr.0.stream.creation_time.markup">2017-08-19T16:00:02.000000Z</property>
  <property name="meta.attr.0.stream.language.markup">eng</property>
  <property name="meta.attr.1.stream.creation_time.markup">2017-08-19T16:00:02.000000Z</property>
  <property name="meta.attr.1.stream.language.markup">eng</property>
  <property name="meta.attr.major_brand.markup">qt  </property>
  <property name="meta.attr.minor_version.markup">537331968</property>
  <property name="meta.attr.compatible_brands.markup">qt  niko</property>
  <property name="meta.attr.creation_time.markup">2017-08-19T16:00:02.000000Z</property>
  <property name="meta.media.frame_rate_num">25</property>
  <property name="meta.media.frame_rate_den">1</property>
  <property name="meta.media.colorspace">601</property>
  <property name="meta.media.color_trc">2</property>
  <property name="meta.media.width">640</property>
  <property name="meta.media.height">360</property>
  <property name="meta.media.top_field_first">0</property>
  <property name="meta.media.progressive">1</property>
  <property name="kdenlive:file_size">53330003</property>
  <property name="kdenlive:file_hash">53030d26c565e4aa2ce9a8b93378f386</property>
  <property name="kdenlive:proxy">/home/nicolas/.cache/kdenlive/proxy/53030d26c565e4aa2ce9a8b93378f386.mpg</property>
  <property name="proxy_out">1088</property>
  <property name="kdenlive:originalurl">2DSC_0006.MOV</property>
  <property name="global_feed">1</property>
  <property name="kdenlive:meta.media.nb_streams">2</property>
  <property name="kdenlive:meta.media.0.stream.type">video</property>
  <property name="kdenlive:meta.media.0.stream.frame_rate">25</property>
  <property name="kdenlive:meta.media.0.stream.sample_aspect_ratio">0</property>
  <property name="kdenlive:meta.media.0.codec.width">1280</property>
  <property name="kdenlive:meta.media.0.codec.height">720</property>
  <property name="kdenlive:meta.media.0.codec.rotate">0</property>
  <property name="kdenlive:meta.media.0.codec.frame_rate">25</property>
  <property name="kdenlive:meta.media.0.codec.pix_fmt">yuvj420p</property>
  <property name="kdenlive:meta.media.0.codec.sample_aspect_ratio">1</property>
  <property name="kdenlive:meta.media.0.codec.colorspace">601</property>
  <property name="kdenlive:meta.media.0.codec.color_trc">4</property>
  <property name="kdenlive:meta.media.0.codec.name">h264</property>
  <property name="kdenlive:meta.media.0.codec.long_name">H.264 / AVC / MPEG-4 AVC / MPEG-4 part 10</property>
  <property name="kdenlive:meta.media.0.codec.bit_rate">9386650</property>
  <property name="kdenlive:meta.attr.0.stream.creation_time.markup">2017-08-19T16:00:02.000000Z</property>
  <property name="kdenlive:meta.attr.0.stream.language.markup">eng</property>
  <property name="kdenlive:meta.media.1.stream.type">audio</property>
  <property name="kdenlive:meta.media.1.codec.sample_fmt">s16</property>
  <property name="kdenlive:meta.media.1.codec.sample_rate">24000</property>
  <property name="kdenlive:meta.media.1.codec.channels">1</property>
  <property name="kdenlive:meta.media.1.codec.name">pcm_s16le</property>
  <property name="kdenlive:meta.media.1.codec.long_name">PCM signed 16-bit little-endian</property>
  <property name="kdenlive:meta.media.1.codec.bit_rate">384000</property>
  <property name="kdenlive:meta.attr.1.stream.creation_time.markup">2017-08-19T16:00:02.000000Z</property>
  <property name="kdenlive:meta.attr.1.stream.language.markup">eng</property>
  <property name="kdenlive:meta.attr.major_brand.markup">qt  </property>
  <property name="kdenlive:meta.attr.minor_version.markup">537331968</property>
  <property name="kdenlive:meta.attr.compatible_brands.markup">qt  niko</property>
  <property name="kdenlive:meta.attr.creation_time.markup">2017-08-19T16:00:02.000000Z</property>
  <property name="kdenlive:meta.media.sample_aspect_num">1</property>
  <property name="kdenlive:meta.media.sample_aspect_den">1</property>
  <property name="kdenlive:meta.media.frame_rate_num">25</property>
  <property name="kdenlive:meta.media.frame_rate_den">1</property>
  <property name="kdenlive:meta.media.colorspace">601</property>
  <property name="kdenlive:meta.media.color_trc">4</property>
  <property name="kdenlive:meta.media.width">1280</property>
  <property name="kdenlive:meta.media.height">720</property>
  <property name="kdenlive:meta.media.top_field_first">0</property>
  <property name="kdenlive:meta.media.progressive">1</property>
 </producer>
 <producer id="3" out="51519" in="0">
  <property name="length">51520</property>
  <property name="eof">pause</property>
  <property name="resource">/home/nicolas/Documents/Projets Musique/Barons Freaks/COURTS METRAGES - MAIN/COURTS METRAGES/Crop4tiers2.png</property>
  <property name="ttl">25</property>
  <property name="aspect_ratio">1</property>
  <property name="progressive">1</property>
  <property name="seekable">1</property>
  <property name="loop">1</property>
  <property name="meta.media.width">1280</property>
  <property name="meta.media.height">720</property>
  <property name="mlt_service">pixbuf</property>
  <property name="kdenlive:duration">125</property>
  <property name="kdenlive:file_size">12458</property>
  <property name="kdenlive:file_hash">c5469d8d3c8d79a067c6c0541da25e27</property>
 </producer>
 <producer id="6" title="Anonymous Submission" out="263" in="0">
  <property name="length">00:00:10:14</property>
  <property name="eof">pause</property>
  <property name="resource">/home/nicolas/.cache/kdenlive/proxy/7c10cded6a61229130a6b52f12e67f38.mpg</property>
  <property name="meta.media.nb_streams">2</property>
  <property name="meta.media.0.stream.type">video</property>
  <property name="meta.media.0.stream.frame_rate">25</property>
  <property name="meta.media.0.stream.sample_aspect_ratio">0</property>
  <property name="meta.media.0.codec.width">640</property>
  <property name="meta.media.0.codec.height">360</property>
  <property name="meta.media.0.codec.rotate">0</property>
  <property name="meta.media.0.codec.frame_rate">25</property>
  <property name="meta.media.0.codec.pix_fmt">yuv420p</property>
  <property name="meta.media.0.codec.sample_aspect_ratio">1</property>
  <property name="meta.media.0.codec.colorspace">601</property>
  <property name="meta.media.0.codec.name">mpeg2video</property>
  <property name="meta.media.0.codec.long_name">MPEG-2 video</property>
  <property name="meta.media.0.codec.bit_rate">0</property>
  <property name="meta.media.1.stream.type">audio</property>
  <property name="meta.media.1.codec.sample_fmt">s16p</property>
  <property name="meta.media.1.codec.sample_rate">24000</property>
  <property name="meta.media.1.codec.channels">1</property>
  <property name="meta.media.1.codec.name">mp2</property>
  <property name="meta.media.1.codec.long_name">MP2 (MPEG audio layer 2)</property>
  <property name="meta.media.1.codec.bit_rate">128000</property>
  <property name="seekable">1</property>
  <property name="meta.media.sample_aspect_num">1</property>
  <property name="meta.media.sample_aspect_den">1</property>
  <property name="aspect_ratio">1</property>
  <property name="audio_index">1</property>
  <property name="video_index">0</property>
  <property name="mute_on_pause">1</property>
  <property name="mlt_service">avformat</property>
  <property name="meta.media.0.codec.color_trc">4</property>
  <property name="meta.attr.0.stream.creation_time.markup">2017-08-19T16:02:46.000000Z</property>
  <property name="meta.attr.0.stream.language.markup">eng</property>
  <property name="meta.attr.1.stream.creation_time.markup">2017-08-19T16:02:46.000000Z</property>
  <property name="meta.attr.1.stream.language.markup">eng</property>
  <property name="meta.attr.major_brand.markup">qt  </property>
  <property name="meta.attr.minor_version.markup">537331968</property>
  <property name="meta.attr.compatible_brands.markup">qt  niko</property>
  <property name="meta.attr.creation_time.markup">2017-08-19T16:02:46.000000Z</property>
  <property name="meta.media.frame_rate_num">25</property>
  <property name="meta.media.frame_rate_den">1</property>
  <property name="meta.media.colorspace">601</property>
  <property name="meta.media.color_trc">2</property>
  <property name="meta.media.width">640</property>
  <property name="meta.media.height">360</property>
  <property name="meta.media.top_field_first">0</property>
  <property name="meta.media.progressive">1</property>
  <property name="kdenlive:file_size">14326684</property>
  <property name="kdenlive:file_hash">7c10cded6a61229130a6b52f12e67f38</property>
  <property name="kdenlive:proxy">/home/nicolas/.cache/kdenlive/proxy/7c10cded6a61229130a6b52f12e67f38.mpg</property>
  <property name="proxy_out">263</property>
  <property name="kdenlive:originalurl">2DSC_0007.MOV</property>
  <property name="global_feed">1</property>
  <property name="kdenlive:meta.media.nb_streams">2</property>
  <property name="kdenlive:meta.media.0.stream.type">video</property>
  <property name="kdenlive:meta.media.0.stream.frame_rate">25</property>
  <property name="kdenlive:meta.media.0.stream.sample_aspect_ratio">0</property>
  <property name="kdenlive:meta.media.0.codec.width">1280</property>
  <property name="kdenlive:meta.media.0.codec.height">720</property>
  <property name="kdenlive:meta.media.0.codec.rotate">0</property>
  <property name="kdenlive:meta.media.0.codec.frame_rate">25</property>
  <property name="kdenlive:meta.media.0.codec.pix_fmt">yuvj420p</property>
  <property name="kdenlive:meta.media.0.codec.sample_aspect_ratio">1</property>
  <property name="kdenlive:meta.media.0.codec.colorspace">601</property>
  <property name="kdenlive:meta.media.0.codec.color_trc">4</property>
  <property name="kdenlive:meta.media.0.codec.name">h264</property>
  <property name="kdenlive:meta.media.0.codec.long_name">H.264 / AVC / MPEG-4 AVC / MPEG-4 part 10</property>
  <property name="kdenlive:meta.media.0.codec.bit_rate">10378893</property>
  <property name="kdenlive:meta.attr.0.stream.creation_time.markup">2017-08-19T16:02:46.000000Z</property>
  <property name="kdenlive:meta.attr.0.stream.language.markup">eng</property>
  <property name="kdenlive:meta.media.1.stream.type">audio</property>
  <property name="kdenlive:meta.media.1.codec.sample_fmt">s16</property>
  <property name="kdenlive:meta.media.1.codec.sample_rate">24000</property>
  <property name="kdenlive:meta.media.1.codec.channels">1</property>
  <property name="kdenlive:meta.media.1.codec.name">pcm_s16le</property>
  <property name="kdenlive:meta.media.1.codec.long_name">PCM signed 16-bit little-endian</property>
  <property name="kdenlive:meta.media.1.codec.bit_rate">384000</property>
  <property name="kdenlive:meta.attr.1.stream.creation_time.markup">2017-08-19T16:02:46.000000Z</property>
  <property name="kdenlive:meta.attr.1.stream.language.markup">eng</property>
  <property name="kdenlive:meta.attr.major_brand.markup">qt  </property>
  <property name="kdenlive:meta.attr.minor_version.markup">537331968</property>
  <property name="kdenlive:meta.attr.compatible_brands.markup">qt  niko</property>
  <property name="kdenlive:meta.attr.creation_time.markup">2017-08-19T16:02:46.000000Z</property>
  <property name="kdenlive:meta.media.sample_aspect_num">1</property>
  <property name="kdenlive:meta.media.sample_aspect_den">1</property>
  <property name="kdenlive:meta.media.frame_rate_num">25</property>
  <property name="kdenlive:meta.media.frame_rate_den">1</property>
  <property name="kdenlive:meta.media.colorspace">601</property>
  <property name="kdenlive:meta.media.color_trc">4</property>
  <property name="kdenlive:meta.media.width">1280</property>
  <property name="kdenlive:meta.media.height">720</property>
  <property name="kdenlive:meta.media.top_field_first">0</property>
  <property name="kdenlive:meta.media.progressive">1</property>
 </producer>
 <producer id="7" title="Anonymous Submission" out="2309" in="0">
  <property name="length">00:01:32:10</property>
  <property name="eof">pause</property>
  <property name="resource">/home/nicolas/.cache/kdenlive/proxy/403ffcac4bec715173bca7574b2a0b48.mpg</property>
  <property name="meta.media.nb_streams">2</property>
  <property name="meta.media.0.stream.type">video</property>
  <property name="meta.media.0.stream.frame_rate">25</property>
  <property name="meta.media.0.stream.sample_aspect_ratio">0</property>
  <property name="meta.media.0.codec.width">640</property>
  <property name="meta.media.0.codec.height">360</property>
  <property name="meta.media.0.codec.rotate">0</property>
  <property name="meta.media.0.codec.frame_rate">25</property>
  <property name="meta.media.0.codec.pix_fmt">yuv420p</property>
  <property name="meta.media.0.codec.sample_aspect_ratio">1</property>
  <property name="meta.media.0.codec.colorspace">601</property>
  <property name="meta.media.0.codec.name">mpeg2video</property>
  <property name="meta.media.0.codec.long_name">MPEG-2 video</property>
  <property name="meta.media.0.codec.bit_rate">0</property>
  <property name="meta.media.1.stream.type">audio</property>
  <property name="meta.media.1.codec.sample_fmt">s16p</property>
  <property name="meta.media.1.codec.sample_rate">24000</property>
  <property name="meta.media.1.codec.channels">1</property>
  <property name="meta.media.1.codec.name">mp2</property>
  <property name="meta.media.1.codec.long_name">MP2 (MPEG audio layer 2)</property>
  <property name="meta.media.1.codec.bit_rate">128000</property>
  <property name="seekable">1</property>
  <property name="meta.media.sample_aspect_num">1</property>
  <property name="meta.media.sample_aspect_den">1</property>
  <property name="aspect_ratio">1</property>
  <property name="audio_index">1</property>
  <property name="video_index">0</property>
  <property name="mute_on_pause">1</property>
  <property name="mlt_service">avformat</property>
  <property name="meta.media.0.codec.color_trc">4</property>
  <property name="meta.attr.0.stream.creation_time.markup">2017-08-19T16:14:35.000000Z</property>
  <property name="meta.attr.0.stream.language.markup">eng</property>
  <property name="meta.attr.1.stream.creation_time.markup">2017-08-19T16:14:35.000000Z</property>
  <property name="meta.attr.1.stream.language.markup">eng</property>
  <property name="meta.attr.major_brand.markup">qt  </property>
  <property name="meta.attr.minor_version.markup">537331968</property>
  <property name="meta.attr.compatible_brands.markup">qt  niko</property>
  <property name="meta.attr.creation_time.markup">2017-08-19T16:14:35.000000Z</property>
  <property name="meta.media.frame_rate_num">25</property>
  <property name="meta.media.frame_rate_den">1</property>
  <property name="meta.media.colorspace">601</property>
  <property name="meta.media.color_trc">2</property>
  <property name="meta.media.width">640</property>
  <property name="meta.media.height">360</property>
  <property name="meta.media.top_field_first">0</property>
  <property name="meta.media.progressive">1</property>
  <property name="kdenlive:file_size">124587531</property>
  <property name="kdenlive:file_hash">403ffcac4bec715173bca7574b2a0b48</property>
  <property name="kdenlive:proxy">/home/nicolas/.cache/kdenlive/proxy/403ffcac4bec715173bca7574b2a0b48.mpg</property>
  <property name="proxy_out">2309</property>
  <property name="kdenlive:originalurl">2DSC_0011.MOV</property>
  <property name="global_feed">1</property>
  <property name="kdenlive:meta.media.nb_streams">2</property>
  <property name="kdenlive:meta.media.0.stream.type">video</property>
  <property name="kdenlive:meta.media.0.stream.frame_rate">25</property>
  <property name="kdenlive:meta.media.0.stream.sample_aspect_ratio">0</property>
  <property name="kdenlive:meta.media.0.codec.width">1280</property>
  <property name="kdenlive:meta.media.0.codec.height">720</property>
  <property name="kdenlive:meta.media.0.codec.rotate">0</property>
  <property name="kdenlive:meta.media.0.codec.frame_rate">25</property>
  <property name="kdenlive:meta.media.0.codec.pix_fmt">yuvj420p</property>
  <property name="kdenlive:meta.media.0.codec.sample_aspect_ratio">1</property>
  <property name="kdenlive:meta.media.0.codec.colorspace">601</property>
  <property name="kdenlive:meta.media.0.codec.color_trc">4</property>
  <property name="kdenlive:meta.media.0.codec.name">h264</property>
  <property name="kdenlive:meta.media.0.codec.long_name">H.264 / AVC / MPEG-4 AVC / MPEG-4 part 10</property>
  <property name="kdenlive:meta.media.0.codec.bit_rate">10390737</property>
  <property name="kdenlive:meta.attr.0.stream.creation_time.markup">2017-08-19T16:14:35.000000Z</property>
  <property name="kdenlive:meta.attr.0.stream.language.markup">eng</property>
  <property name="kdenlive:meta.media.1.stream.type">audio</property>
  <property name="kdenlive:meta.media.1.codec.sample_fmt">s16</property>
  <property name="kdenlive:meta.media.1.codec.sample_rate">24000</property>
  <property name="kdenlive:meta.media.1.codec.channels">1</property>
  <property name="kdenlive:meta.media.1.codec.name">pcm_s16le</property>
  <property name="kdenlive:meta.media.1.codec.long_name">PCM signed 16-bit little-endian</property>
  <property name="kdenlive:meta.media.1.codec.bit_rate">384000</property>
  <property name="kdenlive:meta.attr.1.stream.creation_time.markup">2017-08-19T16:14:35.000000Z</property>
  <property name="kdenlive:meta.attr.1.stream.language.markup">eng</property>
  <property name="kdenlive:meta.attr.major_brand.markup">qt  </property>
  <property name="kdenlive:meta.attr.minor_version.markup">537331968</property>
  <property name="kdenlive:meta.attr.compatible_brands.markup">qt  niko</property>
  <property name="kdenlive:meta.attr.creation_time.markup">2017-08-19T16:14:35.000000Z</property>
  <property name="kdenlive:meta.media.sample_aspect_num">1</property>
  <property name="kdenlive:meta.media.sample_aspect_den">1</property>
  <property name="kdenlive:meta.media.frame_rate_num">25</property>
  <property name="kdenlive:meta.media.frame_rate_den">1</property>
  <property name="kdenlive:meta.media.colorspace">601</property>
  <property name="kdenlive:meta.media.color_trc">4</property>
  <property name="kdenlive:meta.media.width">1280</property>
  <property name="kdenlive:meta.media.height">720</property>
  <property name="kdenlive:meta.media.top_field_first">0</property>
  <property name="kdenlive:meta.media.progressive">1</property>
 </producer>
 <producer id="8" out="124" in="0">
  <property name="length">125</property>
  <property name="eof">pause</property>
  <property name="resource">panneaux/j'ai sûrement dans mon magasin.png</property>
  <property name="ttl">25</property>
  <property name="aspect_ratio">1</property>
  <property name="progressive">1</property>
  <property name="seekable">1</property>
  <property name="loop">1</property>
  <property name="meta.media.width">1280</property>
  <property name="meta.media.height">720</property>
  <property name="mlt_service">pixbuf</property>
  <property name="kdenlive:folderid">1</property>
  <property name="kdenlive:duration">125</property>
  <property name="kdenlive:file_size">623707</property>
  <property name="kdenlive:file_hash">6314a7dc5904898be2144b0d26395c21</property>
 </producer>
 <producer id="9" out="124" in="0">
  <property name="length">125</property>
  <property name="eof">pause</property>
  <property name="resource">panneaux/acheter ce que vous voulez.png</property>
  <property name="ttl">25</property>
  <property name="aspect_ratio">1</property>
  <property name="progressive">1</property>
  <property name="seekable">1</property>
  <property name="loop">1</property>
  <property name="meta.media.width">1280</property>
  <property name="meta.media.height">720</property>
  <property name="mlt_service">pixbuf</property>
  <property name="kdenlive:folderid">1</property>
  <property name="kdenlive:duration">125</property>
  <property name="kdenlive:file_size">619597</property>
  <property name="kdenlive:file_hash">28f30a849365e2daa13ff35a3fd0ffd1</property>
 </producer>
 <producer id="11" out="124" in="0">
  <property name="length">125</property>
  <property name="eof">pause</property>
  <property name="resource">panneaux/lamour.png</property>
  <property name="ttl">25</property>
  <property name="aspect_ratio">1</property>
  <property name="progressive">1</property>
  <property name="seekable">1</property>
  <property name="loop">1</property>
  <property name="meta.media.width">1280</property>
  <property name="meta.media.height">720</property>
  <property name="mlt_service">pixbuf</property>
  <property name="kdenlive:folderid">1</property>
  <property name="kdenlive:duration">125</property>
  <property name="kdenlive:file_size">593189</property>
  <property name="kdenlive:file_hash">3483cdd8c1c0d3f33f9edafd2448d386</property>
 </producer>
 <producer id="10" title="Anonymous Submission" out="124" in="0">
  <property name="length">125</property>
  <property name="eof">pause</property>
  <property name="resource">panneaux/je vous présente l'internet.png</property>
  <property name="ttl">25</property>
  <property name="aspect_ratio">1</property>
  <property name="progressive">1</property>
  <property name="seekable">1</property>
  <property name="loop">1</property>
  <property name="meta.media.width">1280</property>
  <property name="meta.media.height">720</property>
  <property name="mlt_service">pixbuf</property>
  <property name="kdenlive:folderid">1</property>
  <property name="kdenlive:duration">125</property>
  <property name="kdenlive:file_size">621213</property>
  <property name="kdenlive:file_hash">8d644b642fcc22c0c569ef29595fd155</property>
  <property name="global_feed">1</property>
 </producer>
 <producer id="13" title="Anonymous Submission" out="124" in="0">
  <property name="length">125</property>
  <property name="eof">pause</property>
  <property name="resource">/home/nicolas/.cache/kdenlive/proxy/fecacce1f220c495d1367009b2259bb9.png</property>
  <property name="ttl">25</property>
  <property name="aspect_ratio">1</property>
  <property name="progressive">1</property>
  <property name="seekable">1</property>
  <property name="loop">1</property>
  <property name="meta.media.width">1280</property>
  <property name="meta.media.height">720</property>
  <property name="mlt_service">pixbuf</property>
  <property name="kdenlive:duration">125</property>
  <property name="kdenlive:file_size">60810</property>
  <property name="kdenlive:file_hash">fecacce1f220c495d1367009b2259bb9</property>
  <property name="kdenlive:proxy">/home/nicolas/.cache/kdenlive/proxy/fecacce1f220c495d1367009b2259bb9.png</property>
  <property name="proxy_out">124</property>
  <property name="kdenlive:originalurl">/home/nicolas/Documents/Projets Musique/Barons Freaks/COURTS METRAGES - MAIN/COURTS METRAGES/Diaphragme.png</property>
  <property name="global_feed">1</property>
  <property name="kdenlive:meta.media.width">2560</property>
  <property name="kdenlive:meta.media.height">1440</property>
 </producer>
 <producer id="14" out="124" in="0">
  <property name="length">125</property>
  <property name="eof">pause</property>
  <property name="resource">panneaux/Pas d'argent.png</property>
  <property name="ttl">25</property>
  <property name="aspect_ratio">1</property>
  <property name="progressive">1</property>
  <property name="seekable">1</property>
  <property name="loop">1</property>
  <property name="meta.media.width">1280</property>
  <property name="meta.media.height">720</property>
  <property name="mlt_service">pixbuf</property>
  <property name="kdenlive:folderid">1</property>
  <property name="kdenlive:duration">125</property>
  <property name="kdenlive:file_size">623914</property>
  <property name="kdenlive:file_hash">eff24b075a4a82efcc90bb8b765549eb</property>
 </producer>
 <producer id="15" title="Anonymous Submission" out="635" in="0">
  <property name="length">00:00:25:11</property>
  <property name="eof">pause</property>
  <property name="resource">/home/nicolas/.cache/kdenlive/proxy/cf08c976da26532d3ca1101f6c26d555.mpg</property>
  <property name="meta.media.nb_streams">2</property>
  <property name="meta.media.0.stream.type">video</property>
  <property name="meta.media.0.stream.frame_rate">25</property>
  <property name="meta.media.0.stream.sample_aspect_ratio">0</property>
  <property name="meta.media.0.codec.width">640</property>
  <property name="meta.media.0.codec.height">360</property>
  <property name="meta.media.0.codec.rotate">0</property>
  <property name="meta.media.0.codec.frame_rate">25</property>
  <property name="meta.media.0.codec.pix_fmt">yuv420p</property>
  <property name="meta.media.0.codec.sample_aspect_ratio">1</property>
  <property name="meta.media.0.codec.colorspace">601</property>
  <property name="meta.media.0.codec.name">mpeg2video</property>
  <property name="meta.media.0.codec.long_name">MPEG-2 video</property>
  <property name="meta.media.0.codec.bit_rate">0</property>
  <property name="meta.media.1.stream.type">audio</property>
  <property name="meta.media.1.codec.sample_fmt">s16p</property>
  <property name="meta.media.1.codec.sample_rate">24000</property>
  <property name="meta.media.1.codec.channels">1</property>
  <property name="meta.media.1.codec.name">mp2</property>
  <property name="meta.media.1.codec.long_name">MP2 (MPEG audio layer 2)</property>
  <property name="meta.media.1.codec.bit_rate">128000</property>
  <property name="seekable">1</property>
  <property name="meta.media.sample_aspect_num">1</property>
  <property name="meta.media.sample_aspect_den">1</property>
  <property name="aspect_ratio">1</property>
  <property name="audio_index">1</property>
  <property name="video_index">0</property>
  <property name="mute_on_pause">1</property>
  <property name="mlt_service">avformat</property>
  <property name="meta.media.0.codec.color_trc">4</property>
  <property name="meta.attr.0.stream.creation_time.markup">2017-08-19T16:17:40.000000Z</property>
  <property name="meta.attr.0.stream.language.markup">eng</property>
  <property name="meta.attr.1.stream.creation_time.markup">2017-08-19T16:17:40.000000Z</property>
  <property name="meta.attr.1.stream.language.markup">eng</property>
  <property name="meta.attr.major_brand.markup">qt  </property>
  <property name="meta.attr.minor_version.markup">537331968</property>
  <property name="meta.attr.compatible_brands.markup">qt  niko</property>
  <property name="meta.attr.creation_time.markup">2017-08-19T16:17:40.000000Z</property>
  <property name="meta.media.frame_rate_num">25</property>
  <property name="meta.media.frame_rate_den">1</property>
  <property name="meta.media.colorspace">601</property>
  <property name="meta.media.color_trc">2</property>
  <property name="meta.media.width">640</property>
  <property name="meta.media.height">360</property>
  <property name="meta.media.top_field_first">0</property>
  <property name="meta.media.progressive">1</property>
  <property name="kdenlive:file_size">34654114</property>
  <property name="kdenlive:file_hash">cf08c976da26532d3ca1101f6c26d555</property>
  <property name="kdenlive:proxy">/home/nicolas/.cache/kdenlive/proxy/cf08c976da26532d3ca1101f6c26d555.mpg</property>
  <property name="proxy_out">635</property>
  <property name="kdenlive:originalurl">2DSC_0013.MOV</property>
  <property name="global_feed">1</property>
  <property name="kdenlive:meta.media.nb_streams">2</property>
  <property name="kdenlive:meta.media.0.stream.type">video</property>
  <property name="kdenlive:meta.media.0.stream.frame_rate">25</property>
  <property name="kdenlive:meta.media.0.stream.sample_aspect_ratio">0</property>
  <property name="kdenlive:meta.media.0.codec.width">1280</property>
  <property name="kdenlive:meta.media.0.codec.height">720</property>
  <property name="kdenlive:meta.media.0.codec.rotate">0</property>
  <property name="kdenlive:meta.media.0.codec.frame_rate">25</property>
  <property name="kdenlive:meta.media.0.codec.pix_fmt">yuvj420p</property>
  <property name="kdenlive:meta.media.0.codec.sample_aspect_ratio">1</property>
  <property name="kdenlive:meta.media.0.codec.colorspace">601</property>
  <property name="kdenlive:meta.media.0.codec.color_trc">4</property>
  <property name="kdenlive:meta.media.0.codec.name">h264</property>
  <property name="kdenlive:meta.media.0.codec.long_name">H.264 / AVC / MPEG-4 AVC / MPEG-4 part 10</property>
  <property name="kdenlive:meta.media.0.codec.bit_rate">10475256</property>
  <property name="kdenlive:meta.attr.0.stream.creation_time.markup">2017-08-19T16:17:40.000000Z</property>
  <property name="kdenlive:meta.attr.0.stream.language.markup">eng</property>
  <property name="kdenlive:meta.media.1.stream.type">audio</property>
  <property name="kdenlive:meta.media.1.codec.sample_fmt">s16</property>
  <property name="kdenlive:meta.media.1.codec.sample_rate">24000</property>
  <property name="kdenlive:meta.media.1.codec.channels">1</property>
  <property name="kdenlive:meta.media.1.codec.name">pcm_s16le</property>
  <property name="kdenlive:meta.media.1.codec.long_name">PCM signed 16-bit little-endian</property>
  <property name="kdenlive:meta.media.1.codec.bit_rate">384000</property>
  <property name="kdenlive:meta.attr.1.stream.creation_time.markup">2017-08-19T16:17:40.000000Z</property>
  <property name="kdenlive:meta.attr.1.stream.language.markup">eng</property>
  <property name="kdenlive:meta.attr.major_brand.markup">qt  </property>
  <property name="kdenlive:meta.attr.minor_version.markup">537331968</property>
  <property name="kdenlive:meta.attr.compatible_brands.markup">qt  niko</property>
  <property name="kdenlive:meta.attr.creation_time.markup">2017-08-19T16:17:40.000000Z</property>
  <property name="kdenlive:meta.media.sample_aspect_num">1</property>
  <property name="kdenlive:meta.media.sample_aspect_den">1</property>
  <property name="kdenlive:meta.media.frame_rate_num">25</property>
  <property name="kdenlive:meta.media.frame_rate_den">1</property>
  <property name="kdenlive:meta.media.colorspace">601</property>
  <property name="kdenlive:meta.media.color_trc">4</property>
  <property name="kdenlive:meta.media.width">1280</property>
  <property name="kdenlive:meta.media.height">720</property>
  <property name="kdenlive:meta.media.top_field_first">0</property>
  <property name="kdenlive:meta.media.progressive">1</property>
 </producer>
 <producer id="16" title="Anonymous Submission" out="2642" in="0">
  <property name="length">00:01:45:18</property>
  <property name="eof">pause</property>
  <property name="resource">/home/nicolas/.cache/kdenlive/proxy/9a2d782c202b30a7540fbccf3ae36136.mpg</property>
  <property name="meta.media.nb_streams">2</property>
  <property name="meta.media.0.stream.type">video</property>
  <property name="meta.media.0.stream.frame_rate">25</property>
  <property name="meta.media.0.stream.sample_aspect_ratio">0</property>
  <property name="meta.media.0.codec.width">640</property>
  <property name="meta.media.0.codec.height">360</property>
  <property name="meta.media.0.codec.rotate">0</property>
  <property name="meta.media.0.codec.frame_rate">25</property>
  <property name="meta.media.0.codec.pix_fmt">yuv420p</property>
  <property name="meta.media.0.codec.sample_aspect_ratio">1</property>
  <property name="meta.media.0.codec.colorspace">601</property>
  <property name="meta.media.0.codec.name">mpeg2video</property>
  <property name="meta.media.0.codec.long_name">MPEG-2 video</property>
  <property name="meta.media.0.codec.bit_rate">0</property>
  <property name="meta.media.1.stream.type">audio</property>
  <property name="meta.media.1.codec.sample_fmt">s16p</property>
  <property name="meta.media.1.codec.sample_rate">24000</property>
  <property name="meta.media.1.codec.channels">1</property>
  <property name="meta.media.1.codec.name">mp2</property>
  <property name="meta.media.1.codec.long_name">MP2 (MPEG audio layer 2)</property>
  <property name="meta.media.1.codec.bit_rate">128000</property>
  <property name="seekable">1</property>
  <property name="meta.media.sample_aspect_num">1</property>
  <property name="meta.media.sample_aspect_den">1</property>
  <property name="aspect_ratio">1</property>
  <property name="audio_index">1</property>
  <property name="video_index">0</property>
  <property name="mute_on_pause">1</property>
  <property name="mlt_service">avformat</property>
  <property name="meta.media.0.codec.color_trc">4</property>
  <property name="meta.attr.0.stream.creation_time.markup">2017-08-20T17:42:34.000000Z</property>
  <property name="meta.attr.0.stream.language.markup">eng</property>
  <property name="meta.attr.1.stream.creation_time.markup">2017-08-20T17:42:34.000000Z</property>
  <property name="meta.attr.1.stream.language.markup">eng</property>
  <property name="meta.attr.major_brand.markup">qt  </property>
  <property name="meta.attr.minor_version.markup">537331968</property>
  <property name="meta.attr.compatible_brands.markup">qt  niko</property>
  <property name="meta.attr.creation_time.markup">2017-08-20T17:42:34.000000Z</property>
  <property name="meta.media.frame_rate_num">25</property>
  <property name="meta.media.frame_rate_den">1</property>
  <property name="meta.media.colorspace">601</property>
  <property name="meta.media.color_trc">2</property>
  <property name="meta.media.width">640</property>
  <property name="meta.media.height">360</property>
  <property name="meta.media.top_field_first">0</property>
  <property name="meta.media.progressive">1</property>
  <property name="kdenlive:file_size">145729882</property>
  <property name="kdenlive:file_hash">9a2d782c202b30a7540fbccf3ae36136</property>
  <property name="kdenlive:proxy">/home/nicolas/.cache/kdenlive/proxy/9a2d782c202b30a7540fbccf3ae36136.mpg</property>
  <property name="proxy_out">2642</property>
  <property name="kdenlive:originalurl">3DSC_0139.MOV</property>
  <property name="global_feed">1</property>
  <property name="kdenlive:meta.media.nb_streams">2</property>
  <property name="kdenlive:meta.media.0.stream.type">video</property>
  <property name="kdenlive:meta.media.0.stream.frame_rate">25</property>
  <property name="kdenlive:meta.media.0.stream.sample_aspect_ratio">0</property>
  <property name="kdenlive:meta.media.0.codec.width">1280</property>
  <property name="kdenlive:meta.media.0.codec.height">720</property>
  <property name="kdenlive:meta.media.0.codec.rotate">0</property>
  <property name="kdenlive:meta.media.0.codec.frame_rate">25</property>
  <property name="kdenlive:meta.media.0.codec.pix_fmt">yuvj420p</property>
  <property name="kdenlive:meta.media.0.codec.sample_aspect_ratio">1</property>
  <property name="kdenlive:meta.media.0.codec.colorspace">601</property>
  <property name="kdenlive:meta.media.0.codec.color_trc">4</property>
  <property name="kdenlive:meta.media.0.codec.name">h264</property>
  <property name="kdenlive:meta.media.0.codec.long_name">H.264 / AVC / MPEG-4 AVC / MPEG-4 part 10</property>
  <property name="kdenlive:meta.media.0.codec.bit_rate">10632636</property>
  <property name="kdenlive:meta.attr.0.stream.creation_time.markup">2017-08-20T17:42:34.000000Z</property>
  <property name="kdenlive:meta.attr.0.stream.language.markup">eng</property>
  <property name="kdenlive:meta.media.1.stream.type">audio</property>
  <property name="kdenlive:meta.media.1.codec.sample_fmt">s16</property>
  <property name="kdenlive:meta.media.1.codec.sample_rate">24000</property>
  <property name="kdenlive:meta.media.1.codec.channels">1</property>
  <property name="kdenlive:meta.media.1.codec.name">pcm_s16le</property>
  <property name="kdenlive:meta.media.1.codec.long_name">PCM signed 16-bit little-endian</property>
  <property name="kdenlive:meta.media.1.codec.bit_rate">384000</property>
  <property name="kdenlive:meta.attr.1.stream.creation_time.markup">2017-08-20T17:42:34.000000Z</property>
  <property name="kdenlive:meta.attr.1.stream.language.markup">eng</property>
  <property name="kdenlive:meta.attr.major_brand.markup">qt  </property>
  <property name="kdenlive:meta.attr.minor_version.markup">537331968</property>
  <property name="kdenlive:meta.attr.compatible_brands.markup">qt  niko</property>
  <property name="kdenlive:meta.attr.creation_time.markup">2017-08-20T17:42:34.000000Z</property>
  <property name="kdenlive:meta.media.sample_aspect_num">1</property>
  <property name="kdenlive:meta.media.sample_aspect_den">1</property>
  <property name="kdenlive:meta.media.frame_rate_num">25</property>
  <property name="kdenlive:meta.media.frame_rate_den">1</property>
  <property name="kdenlive:meta.media.colorspace">601</property>
  <property name="kdenlive:meta.media.color_trc">4</property>
  <property name="kdenlive:meta.media.width">1280</property>
  <property name="kdenlive:meta.media.height">720</property>
  <property name="kdenlive:meta.media.top_field_first">0</property>
  <property name="kdenlive:meta.media.progressive">1</property>
 </producer>
 <producer id="17" out="124" in="0">
  <property name="length">125</property>
  <property name="eof">pause</property>
  <property name="resource">panneaux/de retour à la maison.png</property>
  <property name="ttl">25</property>
  <property name="aspect_ratio">1</property>
  <property name="progressive">1</property>
  <property name="seekable">1</property>
  <property name="loop">1</property>
  <property name="meta.media.width">1280</property>
  <property name="meta.media.height">720</property>
  <property name="mlt_service">pixbuf</property>
  <property name="kdenlive:folderid">1</property>
  <property name="kdenlive:duration">125</property>
  <property name="kdenlive:file_size">596085</property>
  <property name="kdenlive:file_hash">b83ee38faecc58e2cef8c7df008dc8f3</property>
 </producer>
 <producer id="18" title="Anonymous Submission" out="563" in="0">
  <property name="length">00:00:22:14</property>
  <property name="eof">pause</property>
  <property name="resource">/home/nicolas/.cache/kdenlive/proxy/d3b514e9243f735fdd35b52c18918f3d.mpg</property>
  <property name="meta.media.nb_streams">2</property>
  <property name="meta.media.0.stream.type">video</property>
  <property name="meta.media.0.stream.frame_rate">25</property>
  <property name="meta.media.0.stream.sample_aspect_ratio">0</property>
  <property name="meta.media.0.codec.width">640</property>
  <property name="meta.media.0.codec.height">360</property>
  <property name="meta.media.0.codec.rotate">0</property>
  <property name="meta.media.0.codec.frame_rate">25</property>
  <property name="meta.media.0.codec.pix_fmt">yuv420p</property>
  <property name="meta.media.0.codec.sample_aspect_ratio">1</property>
  <property name="meta.media.0.codec.colorspace">601</property>
  <property name="meta.media.0.codec.name">mpeg2video</property>
  <property name="meta.media.0.codec.long_name">MPEG-2 video</property>
  <property name="meta.media.0.codec.bit_rate">0</property>
  <property name="meta.media.1.stream.type">audio</property>
  <property name="meta.media.1.codec.sample_fmt">s16p</property>
  <property name="meta.media.1.codec.sample_rate">24000</property>
  <property name="meta.media.1.codec.channels">1</property>
  <property name="meta.media.1.codec.name">mp2</property>
  <property name="meta.media.1.codec.long_name">MP2 (MPEG audio layer 2)</property>
  <property name="meta.media.1.codec.bit_rate">128000</property>
  <property name="seekable">1</property>
  <property name="meta.media.sample_aspect_num">1</property>
  <property name="meta.media.sample_aspect_den">1</property>
  <property name="aspect_ratio">1</property>
  <property name="audio_index">1</property>
  <property name="video_index">0</property>
  <property name="mute_on_pause">1</property>
  <property name="mlt_service">avformat</property>
  <property name="meta.media.0.codec.color_trc">4</property>
  <property name="meta.attr.0.stream.creation_time.markup">2017-08-20T17:51:50.000000Z</property>
  <property name="meta.attr.0.stream.language.markup">eng</property>
  <property name="meta.attr.1.stream.creation_time.markup">2017-08-20T17:51:50.000000Z</property>
  <property name="meta.attr.1.stream.language.markup">eng</property>
  <property name="meta.attr.major_brand.markup">qt  </property>
  <property name="meta.attr.minor_version.markup">537331968</property>
  <property name="meta.attr.compatible_brands.markup">qt  niko</property>
  <property name="meta.attr.creation_time.markup">2017-08-20T17:51:50.000000Z</property>
  <property name="meta.media.frame_rate_num">25</property>
  <property name="meta.media.frame_rate_den">1</property>
  <property name="meta.media.colorspace">601</property>
  <property name="meta.media.color_trc">2</property>
  <property name="meta.media.width">640</property>
  <property name="meta.media.height">360</property>
  <property name="meta.media.top_field_first">0</property>
  <property name="meta.media.progressive">1</property>
  <property name="kdenlive:file_size">33613608</property>
  <property name="kdenlive:file_hash">d3b514e9243f735fdd35b52c18918f3d</property>
  <property name="kdenlive:proxy">/home/nicolas/.cache/kdenlive/proxy/d3b514e9243f735fdd35b52c18918f3d.mpg</property>
  <property name="proxy_out">563</property>
  <property name="kdenlive:originalurl">3DSC_0145.MOV</property>
  <property name="global_feed">1</property>
  <property name="kdenlive:meta.media.nb_streams">2</property>
  <property name="kdenlive:meta.media.0.stream.type">video</property>
  <property name="kdenlive:meta.media.0.stream.frame_rate">25</property>
  <property name="kdenlive:meta.media.0.stream.sample_aspect_ratio">0</property>
  <property name="kdenlive:meta.media.0.codec.width">1280</property>
  <property name="kdenlive:meta.media.0.codec.height">720</property>
  <property name="kdenlive:meta.media.0.codec.rotate">0</property>
  <property name="kdenlive:meta.media.0.codec.frame_rate">25</property>
  <property name="kdenlive:meta.media.0.codec.pix_fmt">yuvj420p</property>
  <property name="kdenlive:meta.media.0.codec.sample_aspect_ratio">1</property>
  <property name="kdenlive:meta.media.0.codec.colorspace">601</property>
  <property name="kdenlive:meta.media.0.codec.color_trc">4</property>
  <property name="kdenlive:meta.media.0.codec.name">h264</property>
  <property name="kdenlive:meta.media.0.codec.long_name">H.264 / AVC / MPEG-4 AVC / MPEG-4 part 10</property>
  <property name="kdenlive:meta.media.0.codec.bit_rate">11490984</property>
  <property name="kdenlive:meta.attr.0.stream.creation_time.markup">2017-08-20T17:51:50.000000Z</property>
  <property name="kdenlive:meta.attr.0.stream.language.markup">eng</property>
  <property name="kdenlive:meta.media.1.stream.type">audio</property>
  <property name="kdenlive:meta.media.1.codec.sample_fmt">s16</property>
  <property name="kdenlive:meta.media.1.codec.sample_rate">24000</property>
  <property name="kdenlive:meta.media.1.codec.channels">1</property>
  <property name="kdenlive:meta.media.1.codec.name">pcm_s16le</property>
  <property name="kdenlive:meta.media.1.codec.long_name">PCM signed 16-bit little-endian</property>
  <property name="kdenlive:meta.media.1.codec.bit_rate">384000</property>
  <property name="kdenlive:meta.attr.1.stream.creation_time.markup">2017-08-20T17:51:50.000000Z</property>
  <property name="kdenlive:meta.attr.1.stream.language.markup">eng</property>
  <property name="kdenlive:meta.attr.major_brand.markup">qt  </property>
  <property name="kdenlive:meta.attr.minor_version.markup">537331968</property>
  <property name="kdenlive:meta.attr.compatible_brands.markup">qt  niko</property>
  <property name="kdenlive:meta.attr.creation_time.markup">2017-08-20T17:51:50.000000Z</property>
  <property name="kdenlive:meta.media.sample_aspect_num">1</property>
  <property name="kdenlive:meta.media.sample_aspect_den">1</property>
  <property name="kdenlive:meta.media.frame_rate_num">25</property>
  <property name="kdenlive:meta.media.frame_rate_den">1</property>
  <property name="kdenlive:meta.media.colorspace">601</property>
  <property name="kdenlive:meta.media.color_trc">4</property>
  <property name="kdenlive:meta.media.width">1280</property>
  <property name="kdenlive:meta.media.height">720</property>
  <property name="kdenlive:meta.media.top_field_first">0</property>
  <property name="kdenlive:meta.media.progressive">1</property>
 </producer>
 <producer id="19" title="Anonymous Submission" out="734" in="0">
  <property name="length">00:00:29:10</property>
  <property name="eof">pause</property>
  <property name="resource">/home/nicolas/.cache/kdenlive/proxy/0f4434d34d9c0a0c0fa420137ac187ee.mpg</property>
  <property name="meta.media.nb_streams">2</property>
  <property name="meta.media.0.stream.type">video</property>
  <property name="meta.media.0.stream.frame_rate">25</property>
  <property name="meta.media.0.stream.sample_aspect_ratio">0</property>
  <property name="meta.media.0.codec.width">640</property>
  <property name="meta.media.0.codec.height">360</property>
  <property name="meta.media.0.codec.rotate">0</property>
  <property name="meta.media.0.codec.frame_rate">25</property>
  <property name="meta.media.0.codec.pix_fmt">yuv420p</property>
  <property name="meta.media.0.codec.sample_aspect_ratio">1</property>
  <property name="meta.media.0.codec.colorspace">601</property>
  <property name="meta.media.0.codec.name">mpeg2video</property>
  <property name="meta.media.0.codec.long_name">MPEG-2 video</property>
  <property name="meta.media.0.codec.bit_rate">0</property>
  <property name="meta.media.1.stream.type">audio</property>
  <property name="meta.media.1.codec.sample_fmt">s16p</property>
  <property name="meta.media.1.codec.sample_rate">24000</property>
  <property name="meta.media.1.codec.channels">1</property>
  <property name="meta.media.1.codec.name">mp2</property>
  <property name="meta.media.1.codec.long_name">MP2 (MPEG audio layer 2)</property>
  <property name="meta.media.1.codec.bit_rate">128000</property>
  <property name="seekable">1</property>
  <property name="meta.media.sample_aspect_num">1</property>
  <property name="meta.media.sample_aspect_den">1</property>
  <property name="aspect_ratio">1</property>
  <property name="audio_index">1</property>
  <property name="video_index">0</property>
  <property name="mute_on_pause">1</property>
  <property name="mlt_service">avformat</property>
  <property name="meta.media.0.codec.color_trc">4</property>
  <property name="meta.attr.0.stream.creation_time.markup">2017-08-20T17:46:40.000000Z</property>
  <property name="meta.attr.0.stream.language.markup">eng</property>
  <property name="meta.attr.1.stream.creation_time.markup">2017-08-20T17:46:40.000000Z</property>
  <property name="meta.attr.1.stream.language.markup">eng</property>
  <property name="meta.attr.major_brand.markup">qt  </property>
  <property name="meta.attr.minor_version.markup">537331968</property>
  <property name="meta.attr.compatible_brands.markup">qt  niko</property>
  <property name="meta.attr.creation_time.markup">2017-08-20T17:46:40.000000Z</property>
  <property name="meta.media.frame_rate_num">25</property>
  <property name="meta.media.frame_rate_den">1</property>
  <property name="meta.media.colorspace">601</property>
  <property name="meta.media.color_trc">2</property>
  <property name="meta.media.width">640</property>
  <property name="meta.media.height">360</property>
  <property name="meta.media.top_field_first">0</property>
  <property name="meta.media.progressive">1</property>
  <property name="kdenlive:file_size">41653881</property>
  <property name="kdenlive:file_hash">0f4434d34d9c0a0c0fa420137ac187ee</property>
  <property name="kdenlive:proxy">/home/nicolas/.cache/kdenlive/proxy/0f4434d34d9c0a0c0fa420137ac187ee.mpg</property>
  <property name="proxy_out">734</property>
  <property name="kdenlive:originalurl">3DSC_0140.MOV</property>
  <property name="global_feed">1</property>
  <property name="kdenlive:meta.media.nb_streams">2</property>
  <property name="kdenlive:meta.media.0.stream.type">video</property>
  <property name="kdenlive:meta.media.0.stream.frame_rate">25</property>
  <property name="kdenlive:meta.media.0.stream.sample_aspect_ratio">0</property>
  <property name="kdenlive:meta.media.0.codec.width">1280</property>
  <property name="kdenlive:meta.media.0.codec.height">720</property>
  <property name="kdenlive:meta.media.0.codec.rotate">0</property>
  <property name="kdenlive:meta.media.0.codec.frame_rate">25</property>
  <property name="kdenlive:meta.media.0.codec.pix_fmt">yuvj420p</property>
  <property name="kdenlive:meta.media.0.codec.sample_aspect_ratio">1</property>
  <property name="kdenlive:meta.media.0.codec.colorspace">601</property>
  <property name="kdenlive:meta.media.0.codec.color_trc">4</property>
  <property name="kdenlive:meta.media.0.codec.name">h264</property>
  <property name="kdenlive:meta.media.0.codec.long_name">H.264 / AVC / MPEG-4 AVC / MPEG-4 part 10</property>
  <property name="kdenlive:meta.media.0.codec.bit_rate">10916213</property>
  <property name="kdenlive:meta.attr.0.stream.creation_time.markup">2017-08-20T17:46:40.000000Z</property>
  <property name="kdenlive:meta.attr.0.stream.language.markup">eng</property>
  <property name="kdenlive:meta.media.1.stream.type">audio</property>
  <property name="kdenlive:meta.media.1.codec.sample_fmt">s16</property>
  <property name="kdenlive:meta.media.1.codec.sample_rate">24000</property>
  <property name="kdenlive:meta.media.1.codec.channels">1</property>
  <property name="kdenlive:meta.media.1.codec.name">pcm_s16le</property>
  <property name="kdenlive:meta.media.1.codec.long_name">PCM signed 16-bit little-endian</property>
  <property name="kdenlive:meta.media.1.codec.bit_rate">384000</property>
  <property name="kdenlive:meta.attr.1.stream.creation_time.markup">2017-08-20T17:46:40.000000Z</property>
  <property name="kdenlive:meta.attr.1.stream.language.markup">eng</property>
  <property name="kdenlive:meta.attr.major_brand.markup">qt  </property>
  <property name="kdenlive:meta.attr.minor_version.markup">537331968</property>
  <property name="kdenlive:meta.attr.compatible_brands.markup">qt  niko</property>
  <property name="kdenlive:meta.attr.creation_time.markup">2017-08-20T17:46:40.000000Z</property>
  <property name="kdenlive:meta.media.sample_aspect_num">1</property>
  <property name="kdenlive:meta.media.sample_aspect_den">1</property>
  <property name="kdenlive:meta.media.frame_rate_num">25</property>
  <property name="kdenlive:meta.media.frame_rate_den">1</property>
  <property name="kdenlive:meta.media.colorspace">601</property>
  <property name="kdenlive:meta.media.color_trc">4</property>
  <property name="kdenlive:meta.media.width">1280</property>
  <property name="kdenlive:meta.media.height">720</property>
  <property name="kdenlive:meta.media.top_field_first">0</property>
  <property name="kdenlive:meta.media.progressive">1</property>
 </producer>
 <producer id="20" title="Anonymous Submission" out="452" in="0">
  <property name="length">00:00:18:03</property>
  <property name="eof">pause</property>
  <property name="resource">/home/nicolas/.cache/kdenlive/proxy/73e2a4050367628f1925ff63e643997a.mpg</property>
  <property name="meta.media.nb_streams">2</property>
  <property name="meta.media.0.stream.type">video</property>
  <property name="meta.media.0.stream.frame_rate">25</property>
  <property name="meta.media.0.stream.sample_aspect_ratio">0</property>
  <property name="meta.media.0.codec.width">640</property>
  <property name="meta.media.0.codec.height">360</property>
  <property name="meta.media.0.codec.rotate">0</property>
  <property name="meta.media.0.codec.frame_rate">25</property>
  <property name="meta.media.0.codec.pix_fmt">yuv420p</property>
  <property name="meta.media.0.codec.sample_aspect_ratio">1</property>
  <property name="meta.media.0.codec.colorspace">601</property>
  <property name="meta.media.0.codec.name">mpeg2video</property>
  <property name="meta.media.0.codec.long_name">MPEG-2 video</property>
  <property name="meta.media.0.codec.bit_rate">0</property>
  <property name="meta.media.1.stream.type">audio</property>
  <property name="meta.media.1.codec.sample_fmt">s16p</property>
  <property name="meta.media.1.codec.sample_rate">24000</property>
  <property name="meta.media.1.codec.channels">1</property>
  <property name="meta.media.1.codec.name">mp2</property>
  <property name="meta.media.1.codec.long_name">MP2 (MPEG audio layer 2)</property>
  <property name="meta.media.1.codec.bit_rate">128000</property>
  <property name="seekable">1</property>
  <property name="meta.media.sample_aspect_num">1</property>
  <property name="meta.media.sample_aspect_den">1</property>
  <property name="aspect_ratio">1</property>
  <property name="audio_index">1</property>
  <property name="video_index">0</property>
  <property name="mute_on_pause">1</property>
  <property name="mlt_service">avformat</property>
  <property name="meta.media.0.codec.color_trc">4</property>
  <property name="meta.attr.0.stream.creation_time.markup">2017-08-20T09:24:14.000000Z</property>
  <property name="meta.attr.0.stream.language.markup">eng</property>
  <property name="meta.attr.1.stream.creation_time.markup">2017-08-20T09:24:14.000000Z</property>
  <property name="meta.attr.1.stream.language.markup">eng</property>
  <property name="meta.attr.major_brand.markup">qt  </property>
  <property name="meta.attr.minor_version.markup">537331968</property>
  <property name="meta.attr.compatible_brands.markup">qt  niko</property>
  <property name="meta.attr.creation_time.markup">2017-08-20T09:24:14.000000Z</property>
  <property name="meta.media.frame_rate_num">25</property>
  <property name="meta.media.frame_rate_den">1</property>
  <property name="meta.media.colorspace">601</property>
  <property name="meta.media.color_trc">2</property>
  <property name="meta.media.width">640</property>
  <property name="meta.media.height">360</property>
  <property name="meta.media.top_field_first">0</property>
  <property name="meta.media.progressive">1</property>
  <property name="kdenlive:file_size">26547962</property>
  <property name="kdenlive:file_hash">73e2a4050367628f1925ff63e643997a</property>
  <property name="kdenlive:proxy">/home/nicolas/.cache/kdenlive/proxy/73e2a4050367628f1925ff63e643997a.mpg</property>
  <property name="proxy_out">452</property>
  <property name="kdenlive:originalurl">3DSC_0001.MOV</property>
  <property name="global_feed">1</property>
  <property name="kdenlive:meta.media.nb_streams">2</property>
  <property name="kdenlive:meta.media.0.stream.type">video</property>
  <property name="kdenlive:meta.media.0.stream.frame_rate">25</property>
  <property name="kdenlive:meta.media.0.stream.sample_aspect_ratio">0</property>
  <property name="kdenlive:meta.media.0.codec.width">1280</property>
  <property name="kdenlive:meta.media.0.codec.height">720</property>
  <property name="kdenlive:meta.media.0.codec.rotate">0</property>
  <property name="kdenlive:meta.media.0.codec.frame_rate">25</property>
  <property name="kdenlive:meta.media.0.codec.pix_fmt">yuvj420p</property>
  <property name="kdenlive:meta.media.0.codec.sample_aspect_ratio">1</property>
  <property name="kdenlive:meta.media.0.codec.colorspace">601</property>
  <property name="kdenlive:meta.media.0.codec.color_trc">4</property>
  <property name="kdenlive:meta.media.0.codec.name">h264</property>
  <property name="kdenlive:meta.media.0.codec.long_name">H.264 / AVC / MPEG-4 AVC / MPEG-4 part 10</property>
  <property name="kdenlive:meta.media.0.codec.bit_rate">11282493</property>
  <property name="kdenlive:meta.attr.0.stream.creation_time.markup">2017-08-20T09:24:14.000000Z</property>
  <property name="kdenlive:meta.attr.0.stream.language.markup">eng</property>
  <property name="kdenlive:meta.media.1.stream.type">audio</property>
  <property name="kdenlive:meta.media.1.codec.sample_fmt">s16</property>
  <property name="kdenlive:meta.media.1.codec.sample_rate">24000</property>
  <property name="kdenlive:meta.media.1.codec.channels">1</property>
  <property name="kdenlive:meta.media.1.codec.name">pcm_s16le</property>
  <property name="kdenlive:meta.media.1.codec.long_name">PCM signed 16-bit little-endian</property>
  <property name="kdenlive:meta.media.1.codec.bit_rate">384000</property>
  <property name="kdenlive:meta.attr.1.stream.creation_time.markup">2017-08-20T09:24:14.000000Z</property>
  <property name="kdenlive:meta.attr.1.stream.language.markup">eng</property>
  <property name="kdenlive:meta.attr.major_brand.markup">qt  </property>
  <property name="kdenlive:meta.attr.minor_version.markup">537331968</property>
  <property name="kdenlive:meta.attr.compatible_brands.markup">qt  niko</property>
  <property name="kdenlive:meta.attr.creation_time.markup">2017-08-20T09:24:14.000000Z</property>
  <property name="kdenlive:meta.media.sample_aspect_num">1</property>
  <property name="kdenlive:meta.media.sample_aspect_den">1</property>
  <property name="kdenlive:meta.media.frame_rate_num">25</property>
  <property name="kdenlive:meta.media.frame_rate_den">1</property>
  <property name="kdenlive:meta.media.colorspace">601</property>
  <property name="kdenlive:meta.media.color_trc">4</property>
  <property name="kdenlive:meta.media.width">1280</property>
  <property name="kdenlive:meta.media.height">720</property>
  <property name="kdenlive:meta.media.top_field_first">0</property>
  <property name="kdenlive:meta.media.progressive">1</property>
 </producer>
 <producer id="21" title="Anonymous Submission" out="521" in="0">
  <property name="length">00:00:20:22</property>
  <property name="eof">pause</property>
  <property name="resource">/home/nicolas/.cache/kdenlive/proxy/2a6457e600b6088f152cb2ca1912a5a9.mpg</property>
  <property name="meta.media.nb_streams">2</property>
  <property name="meta.media.0.stream.type">video</property>
  <property name="meta.media.0.stream.frame_rate">25</property>
  <property name="meta.media.0.stream.sample_aspect_ratio">0</property>
  <property name="meta.media.0.codec.width">640</property>
  <property name="meta.media.0.codec.height">360</property>
  <property name="meta.media.0.codec.rotate">0</property>
  <property name="meta.media.0.codec.frame_rate">25</property>
  <property name="meta.media.0.codec.pix_fmt">yuv420p</property>
  <property name="meta.media.0.codec.sample_aspect_ratio">1</property>
  <property name="meta.media.0.codec.colorspace">601</property>
  <property name="meta.media.0.codec.name">mpeg2video</property>
  <property name="meta.media.0.codec.long_name">MPEG-2 video</property>
  <property name="meta.media.0.codec.bit_rate">0</property>
  <property name="meta.media.1.stream.type">audio</property>
  <property name="meta.media.1.codec.sample_fmt">s16p</property>
  <property name="meta.media.1.codec.sample_rate">24000</property>
  <property name="meta.media.1.codec.channels">1</property>
  <property name="meta.media.1.codec.name">mp2</property>
  <property name="meta.media.1.codec.long_name">MP2 (MPEG audio layer 2)</property>
  <property name="meta.media.1.codec.bit_rate">128000</property>
  <property name="seekable">1</property>
  <property name="meta.media.sample_aspect_num">1</property>
  <property name="meta.media.sample_aspect_den">1</property>
  <property name="aspect_ratio">1</property>
  <property name="audio_index">1</property>
  <property name="video_index">0</property>
  <property name="mute_on_pause">1</property>
  <property name="mlt_service">avformat</property>
  <property name="meta.media.0.codec.color_trc">4</property>
  <property name="meta.attr.0.stream.creation_time.markup">2017-08-20T11:05:22.000000Z</property>
  <property name="meta.attr.0.stream.language.markup">eng</property>
  <property name="meta.attr.1.stream.creation_time.markup">2017-08-20T11:05:22.000000Z</property>
  <property name="meta.attr.1.stream.language.markup">eng</property>
  <property name="meta.attr.major_brand.markup">qt  </property>
  <property name="meta.attr.minor_version.markup">537331968</property>
  <property name="meta.attr.compatible_brands.markup">qt  niko</property>
  <property name="meta.attr.creation_time.markup">2017-08-20T11:05:22.000000Z</property>
  <property name="meta.media.frame_rate_num">25</property>
  <property name="meta.media.frame_rate_den">1</property>
  <property name="meta.media.colorspace">601</property>
  <property name="meta.media.color_trc">2</property>
  <property name="meta.media.width">640</property>
  <property name="meta.media.height">360</property>
  <property name="meta.media.top_field_first">0</property>
  <property name="meta.media.progressive">1</property>
  <property name="kdenlive:file_size">28639646</property>
  <property name="kdenlive:file_hash">2a6457e600b6088f152cb2ca1912a5a9</property>
  <property name="kdenlive:proxy">/home/nicolas/.cache/kdenlive/proxy/2a6457e600b6088f152cb2ca1912a5a9.mpg</property>
  <property name="proxy_out">521</property>
  <property name="kdenlive:originalurl">3DSC_0044.MOV</property>
  <property name="global_feed">1</property>
  <property name="kdenlive:meta.media.nb_streams">2</property>
  <property name="kdenlive:meta.media.0.stream.type">video</property>
  <property name="kdenlive:meta.media.0.stream.frame_rate">25</property>
  <property name="kdenlive:meta.media.0.stream.sample_aspect_ratio">0</property>
  <property name="kdenlive:meta.media.0.codec.width">1280</property>
  <property name="kdenlive:meta.media.0.codec.height">720</property>
  <property name="kdenlive:meta.media.0.codec.rotate">0</property>
  <property name="kdenlive:meta.media.0.codec.frame_rate">25</property>
  <property name="kdenlive:meta.media.0.codec.pix_fmt">yuvj420p</property>
  <property name="kdenlive:meta.media.0.codec.sample_aspect_ratio">1</property>
  <property name="kdenlive:meta.media.0.codec.colorspace">601</property>
  <property name="kdenlive:meta.media.0.codec.color_trc">4</property>
  <property name="kdenlive:meta.media.0.codec.name">h264</property>
  <property name="kdenlive:meta.media.0.codec.long_name">H.264 / AVC / MPEG-4 AVC / MPEG-4 part 10</property>
  <property name="kdenlive:meta.media.0.codec.bit_rate">10542727</property>
  <property name="kdenlive:meta.attr.0.stream.creation_time.markup">2017-08-20T11:05:22.000000Z</property>
  <property name="kdenlive:meta.attr.0.stream.language.markup">eng</property>
  <property name="kdenlive:meta.media.1.stream.type">audio</property>
  <property name="kdenlive:meta.media.1.codec.sample_fmt">s16</property>
  <property name="kdenlive:meta.media.1.codec.sample_rate">24000</property>
  <property name="kdenlive:meta.media.1.codec.channels">1</property>
  <property name="kdenlive:meta.media.1.codec.name">pcm_s16le</property>
  <property name="kdenlive:meta.media.1.codec.long_name">PCM signed 16-bit little-endian</property>
  <property name="kdenlive:meta.media.1.codec.bit_rate">384000</property>
  <property name="kdenlive:meta.attr.1.stream.creation_time.markup">2017-08-20T11:05:22.000000Z</property>
  <property name="kdenlive:meta.attr.1.stream.language.markup">eng</property>
  <property name="kdenlive:meta.attr.major_brand.markup">qt  </property>
  <property name="kdenlive:meta.attr.minor_version.markup">537331968</property>
  <property name="kdenlive:meta.attr.compatible_brands.markup">qt  niko</property>
  <property name="kdenlive:meta.attr.creation_time.markup">2017-08-20T11:05:22.000000Z</property>
  <property name="kdenlive:meta.media.sample_aspect_num">1</property>
  <property name="kdenlive:meta.media.sample_aspect_den">1</property>
  <property name="kdenlive:meta.media.frame_rate_num">25</property>
  <property name="kdenlive:meta.media.frame_rate_den">1</property>
  <property name="kdenlive:meta.media.colorspace">601</property>
  <property name="kdenlive:meta.media.color_trc">4</property>
  <property name="kdenlive:meta.media.width">1280</property>
  <property name="kdenlive:meta.media.height">720</property>
  <property name="kdenlive:meta.media.top_field_first">0</property>
  <property name="kdenlive:meta.media.progressive">1</property>
 </producer>
 <producer id="24" title="Anonymous Submission" out="170" in="0">
  <property name="length">171</property>
  <property name="eof">pause</property>
  <property name="resource">télé achat/crème anti-âge/render creme/render png/.all.png</property>
  <property name="ttl">1</property>
  <property name="aspect_ratio">1</property>
  <property name="progressive">1</property>
  <property name="seekable">1</property>
  <property name="loop">0</property>
  <property name="meta.media.width">1280</property>
  <property name="meta.media.height">720</property>
  <property name="mlt_service">pixbuf</property>
  <property name="animation"/>
  <property name="crop">0</property>
  <property name="fade">0</property>
  <property name="kdenlive:clipname">Slideshow Clip</property>
  <property name="kdenlive:folderid">1</property>
  <property name="luma_duration">25</property>
  <property name="luma_file"/>
  <property name="softness">0</property>
  <property name="kdenlive:duration">171</property>
  <property name="kdenlive:file_hash">ab79c5b27959d43a06274004db0fc972</property>
  <property name="global_feed">1</property>
 </producer>
 <producer id="25" title="Anonymous Submission" out="621" in="0">
  <property name="length">00:00:24:22</property>
  <property name="eof">pause</property>
  <property name="resource">/home/nicolas/.cache/kdenlive/proxy/f2ef34bb1a7b911cbaed51721c49ad7f.mpg</property>
  <property name="meta.media.nb_streams">2</property>
  <property name="meta.media.0.stream.type">video</property>
  <property name="meta.media.0.stream.frame_rate">25</property>
  <property name="meta.media.0.stream.sample_aspect_ratio">0</property>
  <property name="meta.media.0.codec.width">640</property>
  <property name="meta.media.0.codec.height">360</property>
  <property name="meta.media.0.codec.rotate">0</property>
  <property name="meta.media.0.codec.frame_rate">25</property>
  <property name="meta.media.0.codec.pix_fmt">yuv420p</property>
  <property name="meta.media.0.codec.sample_aspect_ratio">1</property>
  <property name="meta.media.0.codec.colorspace">601</property>
  <property name="meta.media.0.codec.name">mpeg2video</property>
  <property name="meta.media.0.codec.long_name">MPEG-2 video</property>
  <property name="meta.media.0.codec.bit_rate">0</property>
  <property name="meta.media.1.stream.type">audio</property>
  <property name="meta.media.1.codec.sample_fmt">s16p</property>
  <property name="meta.media.1.codec.sample_rate">48000</property>
  <property name="meta.media.1.codec.channels">2</property>
  <property name="meta.media.1.codec.name">mp2</property>
  <property name="meta.media.1.codec.long_name">MP2 (MPEG audio layer 2)</property>
  <property name="meta.media.1.codec.bit_rate">128000</property>
  <property name="seekable">1</property>
  <property name="meta.media.sample_aspect_num">1</property>
  <property name="meta.media.sample_aspect_den">1</property>
  <property name="aspect_ratio">1</property>
  <property name="audio_index">1</property>
  <property name="video_index">0</property>
  <property name="mute_on_pause">1</property>
  <property name="mlt_service">avformat</property>
  <property name="meta.media.0.codec.color_trc">1</property>
  <property name="meta.attr.0.stream.handler_name.markup">VideoHandler</property>
  <property name="meta.attr.1.stream.handler_name.markup">SoundHandler</property>
  <property name="meta.attr.major_brand.markup">isom</property>
  <property name="meta.attr.minor_version.markup">512</property>
  <property name="meta.attr.compatible_brands.markup">isomiso2avc1mp41</property>
  <property name="meta.attr.encoder.markup">Lavf57.56.101</property>
  <property name="meta.media.frame_rate_num">25</property>
  <property name="meta.media.frame_rate_den">1</property>
  <property name="meta.media.colorspace">601</property>
  <property name="meta.media.color_trc">2</property>
  <property name="meta.media.width">640</property>
  <property name="meta.media.height">360</property>
  <property name="meta.media.top_field_first">0</property>
  <property name="meta.media.progressive">1</property>
  <property name="kdenlive:file_size">14228664</property>
  <property name="kdenlive:file_hash">f2ef34bb1a7b911cbaed51721c49ad7f</property>
  <property name="kdenlive:proxy">/home/nicolas/.cache/kdenlive/proxy/f2ef34bb1a7b911cbaed51721c49ad7f.mpg</property>
  <property name="proxy_out">621</property>
  <property name="kdenlive:originalurl">télé achat/crème anti-âge/render creme anti age.mp4</property>
  <property name="global_feed">1</property>
  <property name="kdenlive:meta.media.nb_streams">2</property>
  <property name="kdenlive:meta.media.0.stream.type">video</property>
  <property name="kdenlive:meta.media.0.stream.frame_rate">25</property>
  <property name="kdenlive:meta.media.0.stream.sample_aspect_ratio">1</property>
  <property name="kdenlive:meta.media.0.codec.width">1280</property>
  <property name="kdenlive:meta.media.0.codec.height">720</property>
  <property name="kdenlive:meta.media.0.codec.rotate">0</property>
  <property name="kdenlive:meta.media.0.codec.frame_rate">25</property>
  <property name="kdenlive:meta.media.0.codec.pix_fmt">yuv420p</property>
  <property name="kdenlive:meta.media.0.codec.sample_aspect_ratio">1</property>
  <property name="kdenlive:meta.media.0.codec.colorspace">709</property>
  <property name="kdenlive:meta.media.0.codec.color_trc">1</property>
  <property name="kdenlive:meta.media.0.codec.name">h264</property>
  <property name="kdenlive:meta.media.0.codec.long_name">H.264 / AVC / MPEG-4 AVC / MPEG-4 part 10</property>
  <property name="kdenlive:meta.media.0.codec.bit_rate">4573761</property>
  <property name="kdenlive:meta.attr.0.stream.handler_name.markup">VideoHandler</property>
  <property name="kdenlive:meta.media.1.stream.type">audio</property>
  <property name="kdenlive:meta.media.1.codec.sample_fmt">fltp</property>
  <property name="kdenlive:meta.media.1.codec.sample_rate">48000</property>
  <property name="kdenlive:meta.media.1.codec.channels">2</property>
  <property name="kdenlive:meta.media.1.codec.name">aac</property>
  <property name="kdenlive:meta.media.1.codec.long_name">AAC (Advanced Audio Coding)</property>
  <property name="kdenlive:meta.media.1.codec.bit_rate">2277</property>
  <property name="kdenlive:meta.attr.1.stream.handler_name.markup">SoundHandler</property>
  <property name="kdenlive:meta.attr.major_brand.markup">isom</property>
  <property name="kdenlive:meta.attr.minor_version.markup">512</property>
  <property name="kdenlive:meta.attr.compatible_brands.markup">isomiso2avc1mp41</property>
  <property name="kdenlive:meta.attr.encoder.markup">Lavf57.56.101</property>
  <property name="kdenlive:meta.media.sample_aspect_num">1</property>
  <property name="kdenlive:meta.media.sample_aspect_den">1</property>
  <property name="kdenlive:meta.media.frame_rate_num">25</property>
  <property name="kdenlive:meta.media.frame_rate_den">1</property>
  <property name="kdenlive:meta.media.colorspace">709</property>
  <property name="kdenlive:meta.media.color_trc">1</property>
  <property name="kdenlive:meta.media.width">1280</property>
  <property name="kdenlive:meta.media.height">720</property>
  <property name="kdenlive:meta.media.top_field_first">0</property>
  <property name="kdenlive:meta.media.progressive">1</property>
 </producer>
 <producer id="26" title="Anonymous Submission" out="833" in="0">
  <property name="length">00:00:33:09</property>
  <property name="eof">pause</property>
  <property name="resource">/home/nicolas/.cache/kdenlive/proxy/81906e41b255987a5c0d3d7f21f37da7.mpg</property>
  <property name="meta.media.nb_streams">2</property>
  <property name="meta.media.0.stream.type">video</property>
  <property name="meta.media.0.stream.frame_rate">25</property>
  <property name="meta.media.0.stream.sample_aspect_ratio">0</property>
  <property name="meta.media.0.codec.width">640</property>
  <property name="meta.media.0.codec.height">360</property>
  <property name="meta.media.0.codec.rotate">0</property>
  <property name="meta.media.0.codec.frame_rate">25</property>
  <property name="meta.media.0.codec.pix_fmt">yuv420p</property>
  <property name="meta.media.0.codec.sample_aspect_ratio">1</property>
  <property name="meta.media.0.codec.colorspace">601</property>
  <property name="meta.media.0.codec.name">mpeg2video</property>
  <property name="meta.media.0.codec.long_name">MPEG-2 video</property>
  <property name="meta.media.0.codec.bit_rate">0</property>
  <property name="meta.media.1.stream.type">audio</property>
  <property name="meta.media.1.codec.sample_fmt">s16p</property>
  <property name="meta.media.1.codec.sample_rate">24000</property>
  <property name="meta.media.1.codec.channels">1</property>
  <property name="meta.media.1.codec.name">mp2</property>
  <property name="meta.media.1.codec.long_name">MP2 (MPEG audio layer 2)</property>
  <property name="meta.media.1.codec.bit_rate">128000</property>
  <property name="seekable">1</property>
  <property name="meta.media.sample_aspect_num">1</property>
  <property name="meta.media.sample_aspect_den">1</property>
  <property name="aspect_ratio">1</property>
  <property name="audio_index">1</property>
  <property name="video_index">0</property>
  <property name="mute_on_pause">1</property>
  <property name="mlt_service">avformat</property>
  <property name="meta.media.0.codec.color_trc">4</property>
  <property name="meta.attr.0.stream.creation_time.markup">2017-08-20T11:08:11.000000Z</property>
  <property name="meta.attr.0.stream.language.markup">eng</property>
  <property name="meta.attr.1.stream.creation_time.markup">2017-08-20T11:08:11.000000Z</property>
  <property name="meta.attr.1.stream.language.markup">eng</property>
  <property name="meta.attr.major_brand.markup">qt  </property>
  <property name="meta.attr.minor_version.markup">537331968</property>
  <property name="meta.attr.compatible_brands.markup">qt  niko</property>
  <property name="meta.attr.creation_time.markup">2017-08-20T11:08:11.000000Z</property>
  <property name="meta.media.frame_rate_num">25</property>
  <property name="meta.media.frame_rate_den">1</property>
  <property name="meta.media.colorspace">601</property>
  <property name="meta.media.color_trc">2</property>
  <property name="meta.media.width">640</property>
  <property name="meta.media.height">360</property>
  <property name="meta.media.top_field_first">0</property>
  <property name="meta.media.progressive">1</property>
  <property name="kdenlive:file_size">45559052</property>
  <property name="kdenlive:file_hash">81906e41b255987a5c0d3d7f21f37da7</property>
  <property name="kdenlive:proxy">/home/nicolas/.cache/kdenlive/proxy/81906e41b255987a5c0d3d7f21f37da7.mpg</property>
  <property name="proxy_out">833</property>
  <property name="kdenlive:originalurl">3DSC_0047.MOV</property>
  <property name="global_feed">1</property>
  <property name="kdenlive:meta.media.nb_streams">2</property>
  <property name="kdenlive:meta.media.0.stream.type">video</property>
  <property name="kdenlive:meta.media.0.stream.frame_rate">25</property>
  <property name="kdenlive:meta.media.0.stream.sample_aspect_ratio">0</property>
  <property name="kdenlive:meta.media.0.codec.width">1280</property>
  <property name="kdenlive:meta.media.0.codec.height">720</property>
  <property name="kdenlive:meta.media.0.codec.rotate">0</property>
  <property name="kdenlive:meta.media.0.codec.frame_rate">25</property>
  <property name="kdenlive:meta.media.0.codec.pix_fmt">yuvj420p</property>
  <property name="kdenlive:meta.media.0.codec.sample_aspect_ratio">1</property>
  <property name="kdenlive:meta.media.0.codec.colorspace">601</property>
  <property name="kdenlive:meta.media.0.codec.color_trc">4</property>
  <property name="kdenlive:meta.media.0.codec.name">h264</property>
  <property name="kdenlive:meta.media.0.codec.long_name">H.264 / AVC / MPEG-4 AVC / MPEG-4 part 10</property>
  <property name="kdenlive:meta.media.0.codec.bit_rate">10512249</property>
  <property name="kdenlive:meta.attr.0.stream.creation_time.markup">2017-08-20T11:08:11.000000Z</property>
  <property name="kdenlive:meta.attr.0.stream.language.markup">eng</property>
  <property name="kdenlive:meta.media.1.stream.type">audio</property>
  <property name="kdenlive:meta.media.1.codec.sample_fmt">s16</property>
  <property name="kdenlive:meta.media.1.codec.sample_rate">24000</property>
  <property name="kdenlive:meta.media.1.codec.channels">1</property>
  <property name="kdenlive:meta.media.1.codec.name">pcm_s16le</property>
  <property name="kdenlive:meta.media.1.codec.long_name">PCM signed 16-bit little-endian</property>
  <property name="kdenlive:meta.media.1.codec.bit_rate">384000</property>
  <property name="kdenlive:meta.attr.1.stream.creation_time.markup">2017-08-20T11:08:11.000000Z</property>
  <property name="kdenlive:meta.attr.1.stream.language.markup">eng</property>
  <property name="kdenlive:meta.attr.major_brand.markup">qt  </property>
  <property name="kdenlive:meta.attr.minor_version.markup">537331968</property>
  <property name="kdenlive:meta.attr.compatible_brands.markup">qt  niko</property>
  <property name="kdenlive:meta.attr.creation_time.markup">2017-08-20T11:08:11.000000Z</property>
  <property name="kdenlive:meta.media.sample_aspect_num">1</property>
  <property name="kdenlive:meta.media.sample_aspect_den">1</property>
  <property name="kdenlive:meta.media.frame_rate_num">25</property>
  <property name="kdenlive:meta.media.frame_rate_den">1</property>
  <property name="kdenlive:meta.media.colorspace">601</property>
  <property name="kdenlive:meta.media.color_trc">4</property>
  <property name="kdenlive:meta.media.width">1280</property>
  <property name="kdenlive:meta.media.height">720</property>
  <property name="kdenlive:meta.media.top_field_first">0</property>
  <property name="kdenlive:meta.media.progressive">1</property>
 </producer>
 <producer id="27" title="Anonymous Submission" out="611" in="0">
  <property name="length">00:00:24:12</property>
  <property name="eof">pause</property>
  <property name="resource">/home/nicolas/.cache/kdenlive/proxy/09cf53ad67c062fe3c84a61bcbd151ad.mpg</property>
  <property name="meta.media.nb_streams">2</property>
  <property name="meta.media.0.stream.type">video</property>
  <property name="meta.media.0.stream.frame_rate">25</property>
  <property name="meta.media.0.stream.sample_aspect_ratio">0</property>
  <property name="meta.media.0.codec.width">640</property>
  <property name="meta.media.0.codec.height">360</property>
  <property name="meta.media.0.codec.rotate">0</property>
  <property name="meta.media.0.codec.frame_rate">25</property>
  <property name="meta.media.0.codec.pix_fmt">yuv420p</property>
  <property name="meta.media.0.codec.sample_aspect_ratio">1</property>
  <property name="meta.media.0.codec.colorspace">601</property>
  <property name="meta.media.0.codec.name">mpeg2video</property>
  <property name="meta.media.0.codec.long_name">MPEG-2 video</property>
  <property name="meta.media.0.codec.bit_rate">0</property>
  <property name="meta.media.1.stream.type">audio</property>
  <property name="meta.media.1.codec.sample_fmt">s16p</property>
  <property name="meta.media.1.codec.sample_rate">24000</property>
  <property name="meta.media.1.codec.channels">1</property>
  <property name="meta.media.1.codec.name">mp2</property>
  <property name="meta.media.1.codec.long_name">MP2 (MPEG audio layer 2)</property>
  <property name="meta.media.1.codec.bit_rate">128000</property>
  <property name="seekable">1</property>
  <property name="meta.media.sample_aspect_num">1</property>
  <property name="meta.media.sample_aspect_den">1</property>
  <property name="aspect_ratio">1</property>
  <property name="audio_index">1</property>
  <property name="video_index">0</property>
  <property name="mute_on_pause">1</property>
  <property name="mlt_service">avformat</property>
  <property name="meta.media.0.codec.color_trc">4</property>
  <property name="meta.attr.0.stream.creation_time.markup">2017-08-19T17:02:48.000000Z</property>
  <property name="meta.attr.0.stream.language.markup">eng</property>
  <property name="meta.attr.1.stream.creation_time.markup">2017-08-19T17:02:48.000000Z</property>
  <property name="meta.attr.1.stream.language.markup">eng</property>
  <property name="meta.attr.major_brand.markup">qt  </property>
  <property name="meta.attr.minor_version.markup">537331968</property>
  <property name="meta.attr.compatible_brands.markup">qt  niko</property>
  <property name="meta.attr.creation_time.markup">2017-08-19T17:02:48.000000Z</property>
  <property name="meta.media.frame_rate_num">25</property>
  <property name="meta.media.frame_rate_den">1</property>
  <property name="meta.media.colorspace">601</property>
  <property name="meta.media.color_trc">2</property>
  <property name="meta.media.width">640</property>
  <property name="meta.media.height">360</property>
  <property name="meta.media.top_field_first">0</property>
  <property name="meta.media.progressive">1</property>
  <property name="kdenlive:file_size">35196515</property>
  <property name="kdenlive:file_hash">09cf53ad67c062fe3c84a61bcbd151ad</property>
  <property name="kdenlive:proxy">/home/nicolas/.cache/kdenlive/proxy/09cf53ad67c062fe3c84a61bcbd151ad.mpg</property>
  <property name="proxy_out">611</property>
  <property name="kdenlive:originalurl">2DSC_0017.MOV</property>
  <property name="global_feed">1</property>
  <property name="kdenlive:meta.media.nb_streams">2</property>
  <property name="kdenlive:meta.media.0.stream.type">video</property>
  <property name="kdenlive:meta.media.0.stream.frame_rate">25</property>
  <property name="kdenlive:meta.media.0.stream.sample_aspect_ratio">0</property>
  <property name="kdenlive:meta.media.0.codec.width">1280</property>
  <property name="kdenlive:meta.media.0.codec.height">720</property>
  <property name="kdenlive:meta.media.0.codec.rotate">0</property>
  <property name="kdenlive:meta.media.0.codec.frame_rate">25</property>
  <property name="kdenlive:meta.media.0.codec.pix_fmt">yuvj420p</property>
  <property name="kdenlive:meta.media.0.codec.sample_aspect_ratio">1</property>
  <property name="kdenlive:meta.media.0.codec.colorspace">601</property>
  <property name="kdenlive:meta.media.0.codec.color_trc">4</property>
  <property name="kdenlive:meta.media.0.codec.name">h264</property>
  <property name="kdenlive:meta.media.0.codec.long_name">H.264 / AVC / MPEG-4 AVC / MPEG-4 part 10</property>
  <property name="kdenlive:meta.media.0.codec.bit_rate">11075678</property>
  <property name="kdenlive:meta.attr.0.stream.creation_time.markup">2017-08-19T17:02:48.000000Z</property>
  <property name="kdenlive:meta.attr.0.stream.language.markup">eng</property>
  <property name="kdenlive:meta.media.1.stream.type">audio</property>
  <property name="kdenlive:meta.media.1.codec.sample_fmt">s16</property>
  <property name="kdenlive:meta.media.1.codec.sample_rate">24000</property>
  <property name="kdenlive:meta.media.1.codec.channels">1</property>
  <property name="kdenlive:meta.media.1.codec.name">pcm_s16le</property>
  <property name="kdenlive:meta.media.1.codec.long_name">PCM signed 16-bit little-endian</property>
  <property name="kdenlive:meta.media.1.codec.bit_rate">384000</property>
  <property name="kdenlive:meta.attr.1.stream.creation_time.markup">2017-08-19T17:02:48.000000Z</property>
  <property name="kdenlive:meta.attr.1.stream.language.markup">eng</property>
  <property name="kdenlive:meta.attr.major_brand.markup">qt  </property>
  <property name="kdenlive:meta.attr.minor_version.markup">537331968</property>
  <property name="kdenlive:meta.attr.compatible_brands.markup">qt  niko</property>
  <property name="kdenlive:meta.attr.creation_time.markup">2017-08-19T17:02:48.000000Z</property>
  <property name="kdenlive:meta.media.sample_aspect_num">1</property>
  <property name="kdenlive:meta.media.sample_aspect_den">1</property>
  <property name="kdenlive:meta.media.frame_rate_num">25</property>
  <property name="kdenlive:meta.media.frame_rate_den">1</property>
  <property name="kdenlive:meta.media.colorspace">601</property>
  <property name="kdenlive:meta.media.color_trc">4</property>
  <property name="kdenlive:meta.media.width">1280</property>
  <property name="kdenlive:meta.media.height">720</property>
  <property name="kdenlive:meta.media.top_field_first">0</property>
  <property name="kdenlive:meta.media.progressive">1</property>
 </producer>
 <producer id="28" title="Anonymous Submission" out="2540" in="0">
  <property name="length">00:01:41:16</property>
  <property name="eof">pause</property>
  <property name="resource">/home/nicolas/.cache/kdenlive/proxy/5bf0a75b03e41d632270cdde8b3231b0.mpg</property>
  <property name="meta.media.nb_streams">2</property>
  <property name="meta.media.0.stream.type">video</property>
  <property name="meta.media.0.stream.frame_rate">25</property>
  <property name="meta.media.0.stream.sample_aspect_ratio">0</property>
  <property name="meta.media.0.codec.width">640</property>
  <property name="meta.media.0.codec.height">360</property>
  <property name="meta.media.0.codec.rotate">0</property>
  <property name="meta.media.0.codec.frame_rate">25</property>
  <property name="meta.media.0.codec.pix_fmt">yuv420p</property>
  <property name="meta.media.0.codec.sample_aspect_ratio">1</property>
  <property name="meta.media.0.codec.colorspace">601</property>
  <property name="meta.media.0.codec.name">mpeg2video</property>
  <property name="meta.media.0.codec.long_name">MPEG-2 video</property>
  <property name="meta.media.0.codec.bit_rate">0</property>
  <property name="meta.media.1.stream.type">audio</property>
  <property name="meta.media.1.codec.sample_fmt">s16p</property>
  <property name="meta.media.1.codec.sample_rate">24000</property>
  <property name="meta.media.1.codec.channels">1</property>
  <property name="meta.media.1.codec.name">mp2</property>
  <property name="meta.media.1.codec.long_name">MP2 (MPEG audio layer 2)</property>
  <property name="meta.media.1.codec.bit_rate">128000</property>
  <property name="seekable">1</property>
  <property name="meta.media.sample_aspect_num">1</property>
  <property name="meta.media.sample_aspect_den">1</property>
  <property name="aspect_ratio">1</property>
  <property name="audio_index">1</property>
  <property name="video_index">0</property>
  <property name="mute_on_pause">1</property>
  <property name="mlt_service">avformat</property>
  <property name="meta.media.0.codec.color_trc">4</property>
  <property name="meta.attr.0.stream.creation_time.markup">2017-08-20T16:55:15.000000Z</property>
  <property name="meta.attr.0.stream.language.markup">eng</property>
  <property name="meta.attr.1.stream.creation_time.markup">2017-08-20T16:55:15.000000Z</property>
  <property name="meta.attr.1.stream.language.markup">eng</property>
  <property name="meta.attr.major_brand.markup">qt  </property>
  <property name="meta.attr.minor_version.markup">537331968</property>
  <property name="meta.attr.compatible_brands.markup">qt  niko</property>
  <property name="meta.attr.creation_time.markup">2017-08-20T16:55:15.000000Z</property>
  <property name="meta.media.frame_rate_num">25</property>
  <property name="meta.media.frame_rate_den">1</property>
  <property name="meta.media.colorspace">601</property>
  <property name="meta.media.color_trc">2</property>
  <property name="meta.media.width">640</property>
  <property name="meta.media.height">360</property>
  <property name="meta.media.top_field_first">0</property>
  <property name="meta.media.progressive">1</property>
  <property name="kdenlive:file_size">139109595</property>
  <property name="kdenlive:file_hash">5bf0a75b03e41d632270cdde8b3231b0</property>
  <property name="kdenlive:proxy">/home/nicolas/.cache/kdenlive/proxy/5bf0a75b03e41d632270cdde8b3231b0.mpg</property>
  <property name="proxy_out">2540</property>
  <property name="kdenlive:originalurl">3DSC_0124.MOV</property>
  <property name="global_feed">1</property>
  <property name="kdenlive:meta.media.nb_streams">2</property>
  <property name="kdenlive:meta.media.0.stream.type">video</property>
  <property name="kdenlive:meta.media.0.stream.frame_rate">25</property>
  <property name="kdenlive:meta.media.0.stream.sample_aspect_ratio">0</property>
  <property name="kdenlive:meta.media.0.codec.width">1280</property>
  <property name="kdenlive:meta.media.0.codec.height">720</property>
  <property name="kdenlive:meta.media.0.codec.rotate">0</property>
  <property name="kdenlive:meta.media.0.codec.frame_rate">25</property>
  <property name="kdenlive:meta.media.0.codec.pix_fmt">yuvj420p</property>
  <property name="kdenlive:meta.media.0.codec.sample_aspect_ratio">1</property>
  <property name="kdenlive:meta.media.0.codec.colorspace">601</property>
  <property name="kdenlive:meta.media.0.codec.color_trc">4</property>
  <property name="kdenlive:meta.media.0.codec.name">h264</property>
  <property name="kdenlive:meta.media.0.codec.long_name">H.264 / AVC / MPEG-4 AVC / MPEG-4 part 10</property>
  <property name="kdenlive:meta.media.0.codec.bit_rate">10553947</property>
  <property name="kdenlive:meta.attr.0.stream.creation_time.markup">2017-08-20T16:55:15.000000Z</property>
  <property name="kdenlive:meta.attr.0.stream.language.markup">eng</property>
  <property name="kdenlive:meta.media.1.stream.type">audio</property>
  <property name="kdenlive:meta.media.1.codec.sample_fmt">s16</property>
  <property name="kdenlive:meta.media.1.codec.sample_rate">24000</property>
  <property name="kdenlive:meta.media.1.codec.channels">1</property>
  <property name="kdenlive:meta.media.1.codec.name">pcm_s16le</property>
  <property name="kdenlive:meta.media.1.codec.long_name">PCM signed 16-bit little-endian</property>
  <property name="kdenlive:meta.media.1.codec.bit_rate">384000</property>
  <property name="kdenlive:meta.attr.1.stream.creation_time.markup">2017-08-20T16:55:15.000000Z</property>
  <property name="kdenlive:meta.attr.1.stream.language.markup">eng</property>
  <property name="kdenlive:meta.attr.major_brand.markup">qt  </property>
  <property name="kdenlive:meta.attr.minor_version.markup">537331968</property>
  <property name="kdenlive:meta.attr.compatible_brands.markup">qt  niko</property>
  <property name="kdenlive:meta.attr.creation_time.markup">2017-08-20T16:55:15.000000Z</property>
  <property name="kdenlive:meta.media.sample_aspect_num">1</property>
  <property name="kdenlive:meta.media.sample_aspect_den">1</property>
  <property name="kdenlive:meta.media.frame_rate_num">25</property>
  <property name="kdenlive:meta.media.frame_rate_den">1</property>
  <property name="kdenlive:meta.media.colorspace">601</property>
  <property name="kdenlive:meta.media.color_trc">4</property>
  <property name="kdenlive:meta.media.width">1280</property>
  <property name="kdenlive:meta.media.height">720</property>
  <property name="kdenlive:meta.media.top_field_first">0</property>
  <property name="kdenlive:meta.media.progressive">1</property>
 </producer>
 <producer id="29" title="Anonymous Submission" out="470" in="0">
  <property name="length">00:00:18:21</property>
  <property name="eof">pause</property>
  <property name="resource">/home/nicolas/.cache/kdenlive/proxy/5ec35c6c467a6e80ba8805dda0cee225.mpg</property>
  <property name="meta.media.nb_streams">2</property>
  <property name="meta.media.0.stream.type">video</property>
  <property name="meta.media.0.stream.frame_rate">25</property>
  <property name="meta.media.0.stream.sample_aspect_ratio">0</property>
  <property name="meta.media.0.codec.width">640</property>
  <property name="meta.media.0.codec.height">360</property>
  <property name="meta.media.0.codec.rotate">0</property>
  <property name="meta.media.0.codec.frame_rate">25</property>
  <property name="meta.media.0.codec.pix_fmt">yuv420p</property>
  <property name="meta.media.0.codec.sample_aspect_ratio">1</property>
  <property name="meta.media.0.codec.colorspace">601</property>
  <property name="meta.media.0.codec.name">mpeg2video</property>
  <property name="meta.media.0.codec.long_name">MPEG-2 video</property>
  <property name="meta.media.0.codec.bit_rate">0</property>
  <property name="meta.media.1.stream.type">audio</property>
  <property name="meta.media.1.codec.sample_fmt">s16p</property>
  <property name="meta.media.1.codec.sample_rate">24000</property>
  <property name="meta.media.1.codec.channels">1</property>
  <property name="meta.media.1.codec.name">mp2</property>
  <property name="meta.media.1.codec.long_name">MP2 (MPEG audio layer 2)</property>
  <property name="meta.media.1.codec.bit_rate">128000</property>
  <property name="seekable">1</property>
  <property name="meta.media.sample_aspect_num">1</property>
  <property name="meta.media.sample_aspect_den">1</property>
  <property name="aspect_ratio">1</property>
  <property name="audio_index">1</property>
  <property name="video_index">0</property>
  <property name="mute_on_pause">1</property>
  <property name="mlt_service">avformat</property>
  <property name="meta.media.0.codec.color_trc">4</property>
  <property name="meta.attr.0.stream.creation_time.markup">2017-08-20T19:04:23.000000Z</property>
  <property name="meta.attr.0.stream.language.markup">eng</property>
  <property name="meta.attr.1.stream.creation_time.markup">2017-08-20T19:04:23.000000Z</property>
  <property name="meta.attr.1.stream.language.markup">eng</property>
  <property name="meta.attr.major_brand.markup">qt  </property>
  <property name="meta.attr.minor_version.markup">537331968</property>
  <property name="meta.attr.compatible_brands.markup">qt  niko</property>
  <property name="meta.attr.creation_time.markup">2017-08-20T19:04:23.000000Z</property>
  <property name="meta.media.frame_rate_num">25</property>
  <property name="meta.media.frame_rate_den">1</property>
  <property name="meta.media.colorspace">601</property>
  <property name="meta.media.color_trc">2</property>
  <property name="meta.media.width">640</property>
  <property name="meta.media.height">360</property>
  <property name="meta.media.top_field_first">0</property>
  <property name="meta.media.progressive">1</property>
  <property name="kdenlive:file_size">25924490</property>
  <property name="kdenlive:file_hash">5ec35c6c467a6e80ba8805dda0cee225</property>
  <property name="kdenlive:proxy">/home/nicolas/.cache/kdenlive/proxy/5ec35c6c467a6e80ba8805dda0cee225.mpg</property>
  <property name="proxy_out">470</property>
  <property name="kdenlive:originalurl">3DSC_0170.MOV</property>
  <property name="global_feed">1</property>
  <property name="kdenlive:meta.media.nb_streams">2</property>
  <property name="kdenlive:meta.media.0.stream.type">video</property>
  <property name="kdenlive:meta.media.0.stream.frame_rate">25</property>
  <property name="kdenlive:meta.media.0.stream.sample_aspect_ratio">0</property>
  <property name="kdenlive:meta.media.0.codec.width">1280</property>
  <property name="kdenlive:meta.media.0.codec.height">720</property>
  <property name="kdenlive:meta.media.0.codec.rotate">0</property>
  <property name="kdenlive:meta.media.0.codec.frame_rate">25</property>
  <property name="kdenlive:meta.media.0.codec.pix_fmt">yuvj420p</property>
  <property name="kdenlive:meta.media.0.codec.sample_aspect_ratio">1</property>
  <property name="kdenlive:meta.media.0.codec.colorspace">601</property>
  <property name="kdenlive:meta.media.0.codec.color_trc">4</property>
  <property name="kdenlive:meta.media.0.codec.name">h264</property>
  <property name="kdenlive:meta.media.0.codec.long_name">H.264 / AVC / MPEG-4 AVC / MPEG-4 part 10</property>
  <property name="kdenlive:meta.media.0.codec.bit_rate">10572836</property>
  <property name="kdenlive:meta.attr.0.stream.creation_time.markup">2017-08-20T19:04:23.000000Z</property>
  <property name="kdenlive:meta.attr.0.stream.language.markup">eng</property>
  <property name="kdenlive:meta.media.1.stream.type">audio</property>
  <property name="kdenlive:meta.media.1.codec.sample_fmt">s16</property>
  <property name="kdenlive:meta.media.1.codec.sample_rate">24000</property>
  <property name="kdenlive:meta.media.1.codec.channels">1</property>
  <property name="kdenlive:meta.media.1.codec.name">pcm_s16le</property>
  <property name="kdenlive:meta.media.1.codec.long_name">PCM signed 16-bit little-endian</property>
  <property name="kdenlive:meta.media.1.codec.bit_rate">384000</property>
  <property name="kdenlive:meta.attr.1.stream.creation_time.markup">2017-08-20T19:04:23.000000Z</property>
  <property name="kdenlive:meta.attr.1.stream.language.markup">eng</property>
  <property name="kdenlive:meta.attr.major_brand.markup">qt  </property>
  <property name="kdenlive:meta.attr.minor_version.markup">537331968</property>
  <property name="kdenlive:meta.attr.compatible_brands.markup">qt  niko</property>
  <property name="kdenlive:meta.attr.creation_time.markup">2017-08-20T19:04:23.000000Z</property>
  <property name="kdenlive:meta.media.sample_aspect_num">1</property>
  <property name="kdenlive:meta.media.sample_aspect_den">1</property>
  <property name="kdenlive:meta.media.frame_rate_num">25</property>
  <property name="kdenlive:meta.media.frame_rate_den">1</property>
  <property name="kdenlive:meta.media.colorspace">601</property>
  <property name="kdenlive:meta.media.color_trc">4</property>
  <property name="kdenlive:meta.media.width">1280</property>
  <property name="kdenlive:meta.media.height">720</property>
  <property name="kdenlive:meta.media.top_field_first">0</property>
  <property name="kdenlive:meta.media.progressive">1</property>
 </producer>
 <producer id="30" title="Anonymous Submission" out="896" in="0">
  <property name="length">00:00:35:22</property>
  <property name="eof">pause</property>
  <property name="resource">/home/nicolas/.cache/kdenlive/proxy/6813027f68548e8431feb7b3dbe025bb.mpg</property>
  <property name="meta.media.nb_streams">2</property>
  <property name="meta.media.0.stream.type">video</property>
  <property name="meta.media.0.stream.frame_rate">25</property>
  <property name="meta.media.0.stream.sample_aspect_ratio">0</property>
  <property name="meta.media.0.codec.width">640</property>
  <property name="meta.media.0.codec.height">360</property>
  <property name="meta.media.0.codec.rotate">0</property>
  <property name="meta.media.0.codec.frame_rate">25</property>
  <property name="meta.media.0.codec.pix_fmt">yuv420p</property>
  <property name="meta.media.0.codec.sample_aspect_ratio">1</property>
  <property name="meta.media.0.codec.colorspace">601</property>
  <property name="meta.media.0.codec.name">mpeg2video</property>
  <property name="meta.media.0.codec.long_name">MPEG-2 video</property>
  <property name="meta.media.0.codec.bit_rate">0</property>
  <property name="meta.media.1.stream.type">audio</property>
  <property name="meta.media.1.codec.sample_fmt">s16p</property>
  <property name="meta.media.1.codec.sample_rate">24000</property>
  <property name="meta.media.1.codec.channels">1</property>
  <property name="meta.media.1.codec.name">mp2</property>
  <property name="meta.media.1.codec.long_name">MP2 (MPEG audio layer 2)</property>
  <property name="meta.media.1.codec.bit_rate">128000</property>
  <property name="seekable">1</property>
  <property name="meta.media.sample_aspect_num">1</property>
  <property name="meta.media.sample_aspect_den">1</property>
  <property name="aspect_ratio">1</property>
  <property name="audio_index">1</property>
  <property name="video_index">0</property>
  <property name="mute_on_pause">1</property>
  <property name="mlt_service">avformat</property>
  <property name="meta.media.0.codec.color_trc">4</property>
  <property name="meta.attr.0.stream.creation_time.markup">2017-08-20T18:05:11.000000Z</property>
  <property name="meta.attr.0.stream.language.markup">eng</property>
  <property name="meta.attr.1.stream.creation_time.markup">2017-08-20T18:05:11.000000Z</property>
  <property name="meta.attr.1.stream.language.markup">eng</property>
  <property name="meta.attr.major_brand.markup">qt  </property>
  <property name="meta.attr.minor_version.markup">537331968</property>
  <property name="meta.attr.compatible_brands.markup">qt  niko</property>
  <property name="meta.attr.creation_time.markup">2017-08-20T18:05:11.000000Z</property>
  <property name="meta.media.frame_rate_num">25</property>
  <property name="meta.media.frame_rate_den">1</property>
  <property name="meta.media.colorspace">601</property>
  <property name="meta.media.color_trc">2</property>
  <property name="meta.media.width">640</property>
  <property name="meta.media.height">360</property>
  <property name="meta.media.top_field_first">0</property>
  <property name="meta.media.progressive">1</property>
  <property name="kdenlive:file_size">50314254</property>
  <property name="kdenlive:file_hash">6813027f68548e8431feb7b3dbe025bb</property>
  <property name="kdenlive:proxy">/home/nicolas/.cache/kdenlive/proxy/6813027f68548e8431feb7b3dbe025bb.mpg</property>
  <property name="proxy_out">896</property>
  <property name="kdenlive:originalurl">3DSC_0152.MOV</property>
  <property name="global_feed">1</property>
  <property name="kdenlive:meta.media.nb_streams">2</property>
  <property name="kdenlive:meta.media.0.stream.type">video</property>
  <property name="kdenlive:meta.media.0.stream.frame_rate">25</property>
  <property name="kdenlive:meta.media.0.stream.sample_aspect_ratio">0</property>
  <property name="kdenlive:meta.media.0.codec.width">1280</property>
  <property name="kdenlive:meta.media.0.codec.height">720</property>
  <property name="kdenlive:meta.media.0.codec.rotate">0</property>
  <property name="kdenlive:meta.media.0.codec.frame_rate">25</property>
  <property name="kdenlive:meta.media.0.codec.pix_fmt">yuvj420p</property>
  <property name="kdenlive:meta.media.0.codec.sample_aspect_ratio">1</property>
  <property name="kdenlive:meta.media.0.codec.colorspace">601</property>
  <property name="kdenlive:meta.media.0.codec.color_trc">4</property>
  <property name="kdenlive:meta.media.0.codec.name">h264</property>
  <property name="kdenlive:meta.media.0.codec.long_name">H.264 / AVC / MPEG-4 AVC / MPEG-4 part 10</property>
  <property name="kdenlive:meta.media.0.codec.bit_rate">10807048</property>
  <property name="kdenlive:meta.attr.0.stream.creation_time.markup">2017-08-20T18:05:11.000000Z</property>
  <property name="kdenlive:meta.attr.0.stream.language.markup">eng</property>
  <property name="kdenlive:meta.media.1.stream.type">audio</property>
  <property name="kdenlive:meta.media.1.codec.sample_fmt">s16</property>
  <property name="kdenlive:meta.media.1.codec.sample_rate">24000</property>
  <property name="kdenlive:meta.media.1.codec.channels">1</property>
  <property name="kdenlive:meta.media.1.codec.name">pcm_s16le</property>
  <property name="kdenlive:meta.media.1.codec.long_name">PCM signed 16-bit little-endian</property>
  <property name="kdenlive:meta.media.1.codec.bit_rate">384000</property>
  <property name="kdenlive:meta.attr.1.stream.creation_time.markup">2017-08-20T18:05:11.000000Z</property>
  <property name="kdenlive:meta.attr.1.stream.language.markup">eng</property>
  <property name="kdenlive:meta.attr.major_brand.markup">qt  </property>
  <property name="kdenlive:meta.attr.minor_version.markup">537331968</property>
  <property name="kdenlive:meta.attr.compatible_brands.markup">qt  niko</property>
  <property name="kdenlive:meta.attr.creation_time.markup">2017-08-20T18:05:11.000000Z</property>
  <property name="kdenlive:meta.media.sample_aspect_num">1</property>
  <property name="kdenlive:meta.media.sample_aspect_den">1</property>
  <property name="kdenlive:meta.media.frame_rate_num">25</property>
  <property name="kdenlive:meta.media.frame_rate_den">1</property>
  <property name="kdenlive:meta.media.colorspace">601</property>
  <property name="kdenlive:meta.media.color_trc">4</property>
  <property name="kdenlive:meta.media.width">1280</property>
  <property name="kdenlive:meta.media.height">720</property>
  <property name="kdenlive:meta.media.top_field_first">0</property>
  <property name="kdenlive:meta.media.progressive">1</property>
 </producer>
 <producer id="31" title="Anonymous Submission" out="1259" in="0">
  <property name="length">00:00:50:10</property>
  <property name="eof">pause</property>
  <property name="resource">/home/nicolas/.cache/kdenlive/proxy/d9d1c87be01f2292e724d1b5a69e375e.mpg</property>
  <property name="meta.media.nb_streams">2</property>
  <property name="meta.media.0.stream.type">video</property>
  <property name="meta.media.0.stream.frame_rate">25</property>
  <property name="meta.media.0.stream.sample_aspect_ratio">0</property>
  <property name="meta.media.0.codec.width">640</property>
  <property name="meta.media.0.codec.height">360</property>
  <property name="meta.media.0.codec.rotate">0</property>
  <property name="meta.media.0.codec.frame_rate">25</property>
  <property name="meta.media.0.codec.pix_fmt">yuv420p</property>
  <property name="meta.media.0.codec.sample_aspect_ratio">1</property>
  <property name="meta.media.0.codec.colorspace">601</property>
  <property name="meta.media.0.codec.name">mpeg2video</property>
  <property name="meta.media.0.codec.long_name">MPEG-2 video</property>
  <property name="meta.media.0.codec.bit_rate">0</property>
  <property name="meta.media.1.stream.type">audio</property>
  <property name="meta.media.1.codec.sample_fmt">s16p</property>
  <property name="meta.media.1.codec.sample_rate">24000</property>
  <property name="meta.media.1.codec.channels">1</property>
  <property name="meta.media.1.codec.name">mp2</property>
  <property name="meta.media.1.codec.long_name">MP2 (MPEG audio layer 2)</property>
  <property name="meta.media.1.codec.bit_rate">128000</property>
  <property name="seekable">1</property>
  <property name="meta.media.sample_aspect_num">1</property>
  <property name="meta.media.sample_aspect_den">1</property>
  <property name="aspect_ratio">1</property>
  <property name="audio_index">1</property>
  <property name="video_index">0</property>
  <property name="mute_on_pause">1</property>
  <property name="mlt_service">avformat</property>
  <property name="meta.media.0.codec.color_trc">4</property>
  <property name="meta.attr.0.stream.creation_time.markup">2017-08-20T18:52:54.000000Z</property>
  <property name="meta.attr.0.stream.language.markup">eng</property>
  <property name="meta.attr.1.stream.creation_time.markup">2017-08-20T18:52:54.000000Z</property>
  <property name="meta.attr.1.stream.language.markup">eng</property>
  <property name="meta.attr.major_brand.markup">qt  </property>
  <property name="meta.attr.minor_version.markup">537331968</property>
  <property name="meta.attr.compatible_brands.markup">qt  niko</property>
  <property name="meta.attr.creation_time.markup">2017-08-20T18:52:54.000000Z</property>
  <property name="kdenlive:folderid">-1</property>
  <property name="meta.media.frame_rate_num">25</property>
  <property name="meta.media.frame_rate_den">1</property>
  <property name="meta.media.colorspace">601</property>
  <property name="meta.media.color_trc">2</property>
  <property name="meta.media.width">640</property>
  <property name="meta.media.height">360</property>
  <property name="meta.media.top_field_first">0</property>
  <property name="meta.media.progressive">1</property>
  <property name="kdenlive:file_size">68857890</property>
  <property name="kdenlive:file_hash">d9d1c87be01f2292e724d1b5a69e375e</property>
  <property name="kdenlive:proxy">/home/nicolas/.cache/kdenlive/proxy/d9d1c87be01f2292e724d1b5a69e375e.mpg</property>
  <property name="proxy_out">1259</property>
  <property name="kdenlive:originalurl">3DSC_0164.MOV</property>
  <property name="global_feed">1</property>
  <property name="kdenlive:meta.media.nb_streams">2</property>
  <property name="kdenlive:meta.media.0.stream.type">video</property>
  <property name="kdenlive:meta.media.0.stream.frame_rate">25</property>
  <property name="kdenlive:meta.media.0.stream.sample_aspect_ratio">0</property>
  <property name="kdenlive:meta.media.0.codec.width">1280</property>
  <property name="kdenlive:meta.media.0.codec.height">720</property>
  <property name="kdenlive:meta.media.0.codec.rotate">0</property>
  <property name="kdenlive:meta.media.0.codec.frame_rate">25</property>
  <property name="kdenlive:meta.media.0.codec.pix_fmt">yuvj420p</property>
  <property name="kdenlive:meta.media.0.codec.sample_aspect_ratio">1</property>
  <property name="kdenlive:meta.media.0.codec.colorspace">601</property>
  <property name="kdenlive:meta.media.0.codec.color_trc">4</property>
  <property name="kdenlive:meta.media.0.codec.name">h264</property>
  <property name="kdenlive:meta.media.0.codec.long_name">H.264 / AVC / MPEG-4 AVC / MPEG-4 part 10</property>
  <property name="kdenlive:meta.media.0.codec.bit_rate">10525961</property>
  <property name="kdenlive:meta.attr.0.stream.creation_time.markup">2017-08-20T18:52:54.000000Z</property>
  <property name="kdenlive:meta.attr.0.stream.language.markup">eng</property>
  <property name="kdenlive:meta.media.1.stream.type">audio</property>
  <property name="kdenlive:meta.media.1.codec.sample_fmt">s16</property>
  <property name="kdenlive:meta.media.1.codec.sample_rate">24000</property>
  <property name="kdenlive:meta.media.1.codec.channels">1</property>
  <property name="kdenlive:meta.media.1.codec.name">pcm_s16le</property>
  <property name="kdenlive:meta.media.1.codec.long_name">PCM signed 16-bit little-endian</property>
  <property name="kdenlive:meta.media.1.codec.bit_rate">384000</property>
  <property name="kdenlive:meta.attr.1.stream.creation_time.markup">2017-08-20T18:52:54.000000Z</property>
  <property name="kdenlive:meta.attr.1.stream.language.markup">eng</property>
  <property name="kdenlive:meta.attr.major_brand.markup">qt  </property>
  <property name="kdenlive:meta.attr.minor_version.markup">537331968</property>
  <property name="kdenlive:meta.attr.compatible_brands.markup">qt  niko</property>
  <property name="kdenlive:meta.attr.creation_time.markup">2017-08-20T18:52:54.000000Z</property>
  <property name="kdenlive:meta.media.sample_aspect_num">1</property>
  <property name="kdenlive:meta.media.sample_aspect_den">1</property>
  <property name="kdenlive:meta.media.frame_rate_num">25</property>
  <property name="kdenlive:meta.media.frame_rate_den">1</property>
  <property name="kdenlive:meta.media.colorspace">601</property>
  <property name="kdenlive:meta.media.color_trc">4</property>
  <property name="kdenlive:meta.media.width">1280</property>
  <property name="kdenlive:meta.media.height">720</property>
  <property name="kdenlive:meta.media.top_field_first">0</property>
  <property name="kdenlive:meta.media.progressive">1</property>
 </producer>
 <producer id="32" title="Anonymous Submission" out="710" in="0">
  <property name="length">00:00:28:11</property>
  <property name="eof">pause</property>
  <property name="resource">/home/nicolas/.cache/kdenlive/proxy/e1dfc73afc693cc4381b37f3211c317b.mpg</property>
  <property name="meta.media.nb_streams">2</property>
  <property name="meta.media.0.stream.type">video</property>
  <property name="meta.media.0.stream.frame_rate">25</property>
  <property name="meta.media.0.stream.sample_aspect_ratio">0</property>
  <property name="meta.media.0.codec.width">640</property>
  <property name="meta.media.0.codec.height">360</property>
  <property name="meta.media.0.codec.rotate">0</property>
  <property name="meta.media.0.codec.frame_rate">25</property>
  <property name="meta.media.0.codec.pix_fmt">yuv420p</property>
  <property name="meta.media.0.codec.sample_aspect_ratio">1</property>
  <property name="meta.media.0.codec.colorspace">601</property>
  <property name="meta.media.0.codec.name">mpeg2video</property>
  <property name="meta.media.0.codec.long_name">MPEG-2 video</property>
  <property name="meta.media.0.codec.bit_rate">0</property>
  <property name="meta.media.1.stream.type">audio</property>
  <property name="meta.media.1.codec.sample_fmt">s16p</property>
  <property name="meta.media.1.codec.sample_rate">24000</property>
  <property name="meta.media.1.codec.channels">1</property>
  <property name="meta.media.1.codec.name">mp2</property>
  <property name="meta.media.1.codec.long_name">MP2 (MPEG audio layer 2)</property>
  <property name="meta.media.1.codec.bit_rate">128000</property>
  <property name="seekable">1</property>
  <property name="meta.media.sample_aspect_num">1</property>
  <property name="meta.media.sample_aspect_den">1</property>
  <property name="aspect_ratio">1</property>
  <property name="audio_index">1</property>
  <property name="video_index">0</property>
  <property name="mute_on_pause">1</property>
  <property name="mlt_service">avformat</property>
  <property name="meta.media.0.codec.color_trc">4</property>
  <property name="meta.attr.0.stream.creation_time.markup">2017-08-20T19:08:36.000000Z</property>
  <property name="meta.attr.0.stream.language.markup">eng</property>
  <property name="meta.attr.1.stream.creation_time.markup">2017-08-20T19:08:36.000000Z</property>
  <property name="meta.attr.1.stream.language.markup">eng</property>
  <property name="meta.attr.major_brand.markup">qt  </property>
  <property name="meta.attr.minor_version.markup">537331968</property>
  <property name="meta.attr.compatible_brands.markup">qt  niko</property>
  <property name="meta.attr.creation_time.markup">2017-08-20T19:08:36.000000Z</property>
  <property name="meta.media.frame_rate_num">25</property>
  <property name="meta.media.frame_rate_den">1</property>
  <property name="meta.media.colorspace">601</property>
  <property name="meta.media.color_trc">2</property>
  <property name="meta.media.width">640</property>
  <property name="meta.media.height">360</property>
  <property name="meta.media.top_field_first">0</property>
  <property name="meta.media.progressive">1</property>
  <property name="kdenlive:file_size">39996254</property>
  <property name="kdenlive:file_hash">e1dfc73afc693cc4381b37f3211c317b</property>
  <property name="kdenlive:proxy">/home/nicolas/.cache/kdenlive/proxy/e1dfc73afc693cc4381b37f3211c317b.mpg</property>
  <property name="proxy_out">710</property>
  <property name="kdenlive:originalurl">3DSC_0175.MOV</property>
  <property name="global_feed">1</property>
  <property name="kdenlive:meta.media.nb_streams">2</property>
  <property name="kdenlive:meta.media.0.stream.type">video</property>
  <property name="kdenlive:meta.media.0.stream.frame_rate">25</property>
  <property name="kdenlive:meta.media.0.stream.sample_aspect_ratio">0</property>
  <property name="kdenlive:meta.media.0.codec.width">1280</property>
  <property name="kdenlive:meta.media.0.codec.height">720</property>
  <property name="kdenlive:meta.media.0.codec.rotate">0</property>
  <property name="kdenlive:meta.media.0.codec.frame_rate">25</property>
  <property name="kdenlive:meta.media.0.codec.pix_fmt">yuvj420p</property>
  <property name="kdenlive:meta.media.0.codec.sample_aspect_ratio">1</property>
  <property name="kdenlive:meta.media.0.codec.colorspace">601</property>
  <property name="kdenlive:meta.media.0.codec.color_trc">4</property>
  <property name="kdenlive:meta.media.0.codec.name">h264</property>
  <property name="kdenlive:meta.media.0.codec.long_name">H.264 / AVC / MPEG-4 AVC / MPEG-4 part 10</property>
  <property name="kdenlive:meta.media.0.codec.bit_rate">10833409</property>
  <property name="kdenlive:meta.attr.0.stream.creation_time.markup">2017-08-20T19:08:36.000000Z</property>
  <property name="kdenlive:meta.attr.0.stream.language.markup">eng</property>
  <property name="kdenlive:meta.media.1.stream.type">audio</property>
  <property name="kdenlive:meta.media.1.codec.sample_fmt">s16</property>
  <property name="kdenlive:meta.media.1.codec.sample_rate">24000</property>
  <property name="kdenlive:meta.media.1.codec.channels">1</property>
  <property name="kdenlive:meta.media.1.codec.name">pcm_s16le</property>
  <property name="kdenlive:meta.media.1.codec.long_name">PCM signed 16-bit little-endian</property>
  <property name="kdenlive:meta.media.1.codec.bit_rate">384000</property>
  <property name="kdenlive:meta.attr.1.stream.creation_time.markup">2017-08-20T19:08:36.000000Z</property>
  <property name="kdenlive:meta.attr.1.stream.language.markup">eng</property>
  <property name="kdenlive:meta.attr.major_brand.markup">qt  </property>
  <property name="kdenlive:meta.attr.minor_version.markup">537331968</property>
  <property name="kdenlive:meta.attr.compatible_brands.markup">qt  niko</property>
  <property name="kdenlive:meta.attr.creation_time.markup">2017-08-20T19:08:36.000000Z</property>
  <property name="kdenlive:meta.media.sample_aspect_num">1</property>
  <property name="kdenlive:meta.media.sample_aspect_den">1</property>
  <property name="kdenlive:meta.media.frame_rate_num">25</property>
  <property name="kdenlive:meta.media.frame_rate_den">1</property>
  <property name="kdenlive:meta.media.colorspace">601</property>
  <property name="kdenlive:meta.media.color_trc">4</property>
  <property name="kdenlive:meta.media.width">1280</property>
  <property name="kdenlive:meta.media.height">720</property>
  <property name="kdenlive:meta.media.top_field_first">0</property>
  <property name="kdenlive:meta.media.progressive">1</property>
 </producer>
 <producer id="33" out="124" in="0">
  <property name="length">125</property>
  <property name="eof">pause</property>
  <property name="resource">panneaux/il y a longtemps que je te cherche.png</property>
  <property name="ttl">25</property>
  <property name="aspect_ratio">1</property>
  <property name="progressive">1</property>
  <property name="seekable">1</property>
  <property name="loop">1</property>
  <property name="meta.media.width">1280</property>
  <property name="meta.media.height">720</property>
  <property name="mlt_service">pixbuf</property>
  <property name="kdenlive:folderid">1</property>
  <property name="kdenlive:duration">125</property>
  <property name="kdenlive:file_size">619871</property>
  <property name="kdenlive:file_hash">02da4039acf393a02644ed5bdcd7293a</property>
 </producer>
 <producer id="34" title="Anonymous Submission" out="335" in="0">
  <property name="length">00:00:13:11</property>
  <property name="eof">pause</property>
  <property name="resource">/home/nicolas/.cache/kdenlive/proxy/6adbde65cd9ae1a4aa01ac6a0c8fbdb6.mpg</property>
  <property name="meta.media.nb_streams">2</property>
  <property name="meta.media.0.stream.type">video</property>
  <property name="meta.media.0.stream.frame_rate">25</property>
  <property name="meta.media.0.stream.sample_aspect_ratio">0</property>
  <property name="meta.media.0.codec.width">640</property>
  <property name="meta.media.0.codec.height">360</property>
  <property name="meta.media.0.codec.rotate">0</property>
  <property name="meta.media.0.codec.frame_rate">25</property>
  <property name="meta.media.0.codec.pix_fmt">yuv420p</property>
  <property name="meta.media.0.codec.sample_aspect_ratio">1</property>
  <property name="meta.media.0.codec.colorspace">601</property>
  <property name="meta.media.0.codec.name">mpeg2video</property>
  <property name="meta.media.0.codec.long_name">MPEG-2 video</property>
  <property name="meta.media.0.codec.bit_rate">0</property>
  <property name="meta.media.1.stream.type">audio</property>
  <property name="meta.media.1.codec.sample_fmt">s16p</property>
  <property name="meta.media.1.codec.sample_rate">24000</property>
  <property name="meta.media.1.codec.channels">1</property>
  <property name="meta.media.1.codec.name">mp2</property>
  <property name="meta.media.1.codec.long_name">MP2 (MPEG audio layer 2)</property>
  <property name="meta.media.1.codec.bit_rate">128000</property>
  <property name="seekable">1</property>
  <property name="meta.media.sample_aspect_num">1</property>
  <property name="meta.media.sample_aspect_den">1</property>
  <property name="aspect_ratio">1</property>
  <property name="audio_index">1</property>
  <property name="video_index">0</property>
  <property name="mute_on_pause">1</property>
  <property name="mlt_service">avformat</property>
  <property name="meta.media.0.codec.color_trc">4</property>
  <property name="meta.attr.0.stream.creation_time.markup">2017-08-20T18:11:59.000000Z</property>
  <property name="meta.attr.0.stream.language.markup">eng</property>
  <property name="meta.attr.1.stream.creation_time.markup">2017-08-20T18:11:59.000000Z</property>
  <property name="meta.attr.1.stream.language.markup">eng</property>
  <property name="meta.attr.major_brand.markup">qt  </property>
  <property name="meta.attr.minor_version.markup">537331968</property>
  <property name="meta.attr.compatible_brands.markup">qt  niko</property>
  <property name="meta.attr.creation_time.markup">2017-08-20T18:11:59.000000Z</property>
  <property name="meta.media.frame_rate_num">25</property>
  <property name="meta.media.frame_rate_den">1</property>
  <property name="meta.media.colorspace">601</property>
  <property name="meta.media.color_trc">2</property>
  <property name="meta.media.width">640</property>
  <property name="meta.media.height">360</property>
  <property name="meta.media.top_field_first">0</property>
  <property name="meta.media.progressive">1</property>
  <property name="kdenlive:file_size">18291465</property>
  <property name="kdenlive:file_hash">6adbde65cd9ae1a4aa01ac6a0c8fbdb6</property>
  <property name="kdenlive:proxy">/home/nicolas/.cache/kdenlive/proxy/6adbde65cd9ae1a4aa01ac6a0c8fbdb6.mpg</property>
  <property name="proxy_out">335</property>
  <property name="kdenlive:originalurl">3DSC_0157.MOV</property>
  <property name="global_feed">1</property>
  <property name="kdenlive:meta.media.nb_streams">2</property>
  <property name="kdenlive:meta.media.0.stream.type">video</property>
  <property name="kdenlive:meta.media.0.stream.frame_rate">25</property>
  <property name="kdenlive:meta.media.0.stream.sample_aspect_ratio">0</property>
  <property name="kdenlive:meta.media.0.codec.width">1280</property>
  <property name="kdenlive:meta.media.0.codec.height">720</property>
  <property name="kdenlive:meta.media.0.codec.rotate">0</property>
  <property name="kdenlive:meta.media.0.codec.frame_rate">25</property>
  <property name="kdenlive:meta.media.0.codec.pix_fmt">yuvj420p</property>
  <property name="kdenlive:meta.media.0.codec.sample_aspect_ratio">1</property>
  <property name="kdenlive:meta.media.0.codec.colorspace">601</property>
  <property name="kdenlive:meta.media.0.codec.color_trc">4</property>
  <property name="kdenlive:meta.media.0.codec.name">h264</property>
  <property name="kdenlive:meta.media.0.codec.long_name">H.264 / AVC / MPEG-4 AVC / MPEG-4 part 10</property>
  <property name="kdenlive:meta.media.0.codec.bit_rate">10433407</property>
  <property name="kdenlive:meta.attr.0.stream.creation_time.markup">2017-08-20T18:11:59.000000Z</property>
  <property name="kdenlive:meta.attr.0.stream.language.markup">eng</property>
  <property name="kdenlive:meta.media.1.stream.type">audio</property>
  <property name="kdenlive:meta.media.1.codec.sample_fmt">s16</property>
  <property name="kdenlive:meta.media.1.codec.sample_rate">24000</property>
  <property name="kdenlive:meta.media.1.codec.channels">1</property>
  <property name="kdenlive:meta.media.1.codec.name">pcm_s16le</property>
  <property name="kdenlive:meta.media.1.codec.long_name">PCM signed 16-bit little-endian</property>
  <property name="kdenlive:meta.media.1.codec.bit_rate">384000</property>
  <property name="kdenlive:meta.attr.1.stream.creation_time.markup">2017-08-20T18:11:59.000000Z</property>
  <property name="kdenlive:meta.attr.1.stream.language.markup">eng</property>
  <property name="kdenlive:meta.attr.major_brand.markup">qt  </property>
  <property name="kdenlive:meta.attr.minor_version.markup">537331968</property>
  <property name="kdenlive:meta.attr.compatible_brands.markup">qt  niko</property>
  <property name="kdenlive:meta.attr.creation_time.markup">2017-08-20T18:11:59.000000Z</property>
  <property name="kdenlive:meta.media.sample_aspect_num">1</property>
  <property name="kdenlive:meta.media.sample_aspect_den">1</property>
  <property name="kdenlive:meta.media.frame_rate_num">25</property>
  <property name="kdenlive:meta.media.frame_rate_den">1</property>
  <property name="kdenlive:meta.media.colorspace">601</property>
  <property name="kdenlive:meta.media.color_trc">4</property>
  <property name="kdenlive:meta.media.width">1280</property>
  <property name="kdenlive:meta.media.height">720</property>
  <property name="kdenlive:meta.media.top_field_first">0</property>
  <property name="kdenlive:meta.media.progressive">1</property>
 </producer>
 <producer id="35" title="Anonymous Submission" out="2153" in="0">
  <property name="length">00:01:26:04</property>
  <property name="eof">pause</property>
  <property name="resource">/home/nicolas/.cache/kdenlive/proxy/f4c4f69a65192a95db7e3af4a4bcab77.mpg</property>
  <property name="meta.media.nb_streams">2</property>
  <property name="meta.media.0.stream.type">video</property>
  <property name="meta.media.0.stream.frame_rate">25</property>
  <property name="meta.media.0.stream.sample_aspect_ratio">0</property>
  <property name="meta.media.0.codec.width">640</property>
  <property name="meta.media.0.codec.height">360</property>
  <property name="meta.media.0.codec.rotate">0</property>
  <property name="meta.media.0.codec.frame_rate">25</property>
  <property name="meta.media.0.codec.pix_fmt">yuv420p</property>
  <property name="meta.media.0.codec.sample_aspect_ratio">1</property>
  <property name="meta.media.0.codec.colorspace">601</property>
  <property name="meta.media.0.codec.name">mpeg2video</property>
  <property name="meta.media.0.codec.long_name">MPEG-2 video</property>
  <property name="meta.media.0.codec.bit_rate">0</property>
  <property name="meta.media.1.stream.type">audio</property>
  <property name="meta.media.1.codec.sample_fmt">s16p</property>
  <property name="meta.media.1.codec.sample_rate">24000</property>
  <property name="meta.media.1.codec.channels">1</property>
  <property name="meta.media.1.codec.name">mp2</property>
  <property name="meta.media.1.codec.long_name">MP2 (MPEG audio layer 2)</property>
  <property name="meta.media.1.codec.bit_rate">128000</property>
  <property name="seekable">1</property>
  <property name="meta.media.sample_aspect_num">1</property>
  <property name="meta.media.sample_aspect_den">1</property>
  <property name="aspect_ratio">1</property>
  <property name="audio_index">1</property>
  <property name="video_index">0</property>
  <property name="mute_on_pause">1</property>
  <property name="mlt_service">avformat</property>
  <property name="meta.media.0.codec.color_trc">4</property>
  <property name="meta.attr.0.stream.creation_time.markup">2017-08-19T18:21:24.000000Z</property>
  <property name="meta.attr.0.stream.language.markup">eng</property>
  <property name="meta.attr.1.stream.creation_time.markup">2017-08-19T18:21:24.000000Z</property>
  <property name="meta.attr.1.stream.language.markup">eng</property>
  <property name="meta.attr.major_brand.markup">qt  </property>
  <property name="meta.attr.minor_version.markup">537331968</property>
  <property name="meta.attr.compatible_brands.markup">qt  niko</property>
  <property name="meta.attr.creation_time.markup">2017-08-19T18:21:24.000000Z</property>
  <property name="meta.media.frame_rate_num">25</property>
  <property name="meta.media.frame_rate_den">1</property>
  <property name="meta.media.colorspace">601</property>
  <property name="meta.media.color_trc">2</property>
  <property name="meta.media.width">640</property>
  <property name="meta.media.height">360</property>
  <property name="meta.media.top_field_first">0</property>
  <property name="meta.media.progressive">1</property>
  <property name="kdenlive:file_size">116384583</property>
  <property name="kdenlive:file_hash">f4c4f69a65192a95db7e3af4a4bcab77</property>
  <property name="kdenlive:proxy">/home/nicolas/.cache/kdenlive/proxy/f4c4f69a65192a95db7e3af4a4bcab77.mpg</property>
  <property name="proxy_out">2153</property>
  <property name="kdenlive:originalurl">2DSC_0035.MOV</property>
  <property name="global_feed">1</property>
  <property name="kdenlive:meta.media.nb_streams">2</property>
  <property name="kdenlive:meta.media.0.stream.type">video</property>
  <property name="kdenlive:meta.media.0.stream.frame_rate">25</property>
  <property name="kdenlive:meta.media.0.stream.sample_aspect_ratio">0</property>
  <property name="kdenlive:meta.media.0.codec.width">1280</property>
  <property name="kdenlive:meta.media.0.codec.height">720</property>
  <property name="kdenlive:meta.media.0.codec.rotate">0</property>
  <property name="kdenlive:meta.media.0.codec.frame_rate">25</property>
  <property name="kdenlive:meta.media.0.codec.pix_fmt">yuvj420p</property>
  <property name="kdenlive:meta.media.0.codec.sample_aspect_ratio">1</property>
  <property name="kdenlive:meta.media.0.codec.colorspace">601</property>
  <property name="kdenlive:meta.media.0.codec.color_trc">4</property>
  <property name="kdenlive:meta.media.0.codec.name">h264</property>
  <property name="kdenlive:meta.media.0.codec.long_name">H.264 / AVC / MPEG-4 AVC / MPEG-4 part 10</property>
  <property name="kdenlive:meta.media.0.codec.bit_rate">10409729</property>
  <property name="kdenlive:meta.attr.0.stream.creation_time.markup">2017-08-19T18:21:24.000000Z</property>
  <property name="kdenlive:meta.attr.0.stream.language.markup">eng</property>
  <property name="kdenlive:meta.media.1.stream.type">audio</property>
  <property name="kdenlive:meta.media.1.codec.sample_fmt">s16</property>
  <property name="kdenlive:meta.media.1.codec.sample_rate">24000</property>
  <property name="kdenlive:meta.media.1.codec.channels">1</property>
  <property name="kdenlive:meta.media.1.codec.name">pcm_s16le</property>
  <property name="kdenlive:meta.media.1.codec.long_name">PCM signed 16-bit little-endian</property>
  <property name="kdenlive:meta.media.1.codec.bit_rate">384000</property>
  <property name="kdenlive:meta.attr.1.stream.creation_time.markup">2017-08-19T18:21:24.000000Z</property>
  <property name="kdenlive:meta.attr.1.stream.language.markup">eng</property>
  <property name="kdenlive:meta.attr.major_brand.markup">qt  </property>
  <property name="kdenlive:meta.attr.minor_version.markup">537331968</property>
  <property name="kdenlive:meta.attr.compatible_brands.markup">qt  niko</property>
  <property name="kdenlive:meta.attr.creation_time.markup">2017-08-19T18:21:24.000000Z</property>
  <property name="kdenlive:meta.media.sample_aspect_num">1</property>
  <property name="kdenlive:meta.media.sample_aspect_den">1</property>
  <property name="kdenlive:meta.media.frame_rate_num">25</property>
  <property name="kdenlive:meta.media.frame_rate_den">1</property>
  <property name="kdenlive:meta.media.colorspace">601</property>
  <property name="kdenlive:meta.media.color_trc">4</property>
  <property name="kdenlive:meta.media.width">1280</property>
  <property name="kdenlive:meta.media.height">720</property>
  <property name="kdenlive:meta.media.top_field_first">0</property>
  <property name="kdenlive:meta.media.progressive">1</property>
 </producer>
 <producer id="36" title="Anonymous Submission" out="1424" in="0">
  <property name="length">00:00:57:00</property>
  <property name="eof">pause</property>
  <property name="resource">/home/nicolas/.cache/kdenlive/proxy/768781ef6def1bafaabc4b6c7bc34931.mpg</property>
  <property name="meta.media.nb_streams">2</property>
  <property name="meta.media.0.stream.type">video</property>
  <property name="meta.media.0.stream.frame_rate">25</property>
  <property name="meta.media.0.stream.sample_aspect_ratio">0</property>
  <property name="meta.media.0.codec.width">640</property>
  <property name="meta.media.0.codec.height">360</property>
  <property name="meta.media.0.codec.rotate">0</property>
  <property name="meta.media.0.codec.frame_rate">25</property>
  <property name="meta.media.0.codec.pix_fmt">yuv420p</property>
  <property name="meta.media.0.codec.sample_aspect_ratio">1</property>
  <property name="meta.media.0.codec.colorspace">601</property>
  <property name="meta.media.0.codec.name">mpeg2video</property>
  <property name="meta.media.0.codec.long_name">MPEG-2 video</property>
  <property name="meta.media.0.codec.bit_rate">0</property>
  <property name="meta.media.1.stream.type">audio</property>
  <property name="meta.media.1.codec.sample_fmt">s16p</property>
  <property name="meta.media.1.codec.sample_rate">24000</property>
  <property name="meta.media.1.codec.channels">1</property>
  <property name="meta.media.1.codec.name">mp2</property>
  <property name="meta.media.1.codec.long_name">MP2 (MPEG audio layer 2)</property>
  <property name="meta.media.1.codec.bit_rate">128000</property>
  <property name="seekable">1</property>
  <property name="meta.media.sample_aspect_num">1</property>
  <property name="meta.media.sample_aspect_den">1</property>
  <property name="aspect_ratio">1</property>
  <property name="audio_index">1</property>
  <property name="video_index">0</property>
  <property name="mute_on_pause">1</property>
  <property name="mlt_service">avformat</property>
  <property name="meta.media.0.codec.color_trc">4</property>
  <property name="meta.attr.0.stream.creation_time.markup">2017-08-19T18:31:13.000000Z</property>
  <property name="meta.attr.0.stream.language.markup">eng</property>
  <property name="meta.attr.1.stream.creation_time.markup">2017-08-19T18:31:13.000000Z</property>
  <property name="meta.attr.1.stream.language.markup">eng</property>
  <property name="meta.attr.major_brand.markup">qt  </property>
  <property name="meta.attr.minor_version.markup">537331968</property>
  <property name="meta.attr.compatible_brands.markup">qt  niko</property>
  <property name="meta.attr.creation_time.markup">2017-08-19T18:31:13.000000Z</property>
  <property name="meta.media.frame_rate_num">25</property>
  <property name="meta.media.frame_rate_den">1</property>
  <property name="meta.media.colorspace">601</property>
  <property name="meta.media.color_trc">2</property>
  <property name="meta.media.width">640</property>
  <property name="meta.media.height">360</property>
  <property name="meta.media.top_field_first">0</property>
  <property name="meta.media.progressive">1</property>
  <property name="kdenlive:file_size">81111036</property>
  <property name="kdenlive:file_hash">768781ef6def1bafaabc4b6c7bc34931</property>
  <property name="kdenlive:proxy">/home/nicolas/.cache/kdenlive/proxy/768781ef6def1bafaabc4b6c7bc34931.mpg</property>
  <property name="proxy_out">1424</property>
  <property name="kdenlive:originalurl">2DSC_0036.MOV</property>
  <property name="global_feed">1</property>
  <property name="kdenlive:meta.media.nb_streams">2</property>
  <property name="kdenlive:meta.media.0.stream.type">video</property>
  <property name="kdenlive:meta.media.0.stream.frame_rate">25</property>
  <property name="kdenlive:meta.media.0.stream.sample_aspect_ratio">0</property>
  <property name="kdenlive:meta.media.0.codec.width">1280</property>
  <property name="kdenlive:meta.media.0.codec.height">720</property>
  <property name="kdenlive:meta.media.0.codec.rotate">0</property>
  <property name="kdenlive:meta.media.0.codec.frame_rate">25</property>
  <property name="kdenlive:meta.media.0.codec.pix_fmt">yuvj420p</property>
  <property name="kdenlive:meta.media.0.codec.sample_aspect_ratio">1</property>
  <property name="kdenlive:meta.media.0.codec.colorspace">601</property>
  <property name="kdenlive:meta.media.0.codec.color_trc">4</property>
  <property name="kdenlive:meta.media.0.codec.name">h264</property>
  <property name="kdenlive:meta.media.0.codec.long_name">H.264 / AVC / MPEG-4 AVC / MPEG-4 part 10</property>
  <property name="kdenlive:meta.media.0.codec.bit_rate">10982718</property>
  <property name="kdenlive:meta.attr.0.stream.creation_time.markup">2017-08-19T18:31:13.000000Z</property>
  <property name="kdenlive:meta.attr.0.stream.language.markup">eng</property>
  <property name="kdenlive:meta.media.1.stream.type">audio</property>
  <property name="kdenlive:meta.media.1.codec.sample_fmt">s16</property>
  <property name="kdenlive:meta.media.1.codec.sample_rate">24000</property>
  <property name="kdenlive:meta.media.1.codec.channels">1</property>
  <property name="kdenlive:meta.media.1.codec.name">pcm_s16le</property>
  <property name="kdenlive:meta.media.1.codec.long_name">PCM signed 16-bit little-endian</property>
  <property name="kdenlive:meta.media.1.codec.bit_rate">384000</property>
  <property name="kdenlive:meta.attr.1.stream.creation_time.markup">2017-08-19T18:31:13.000000Z</property>
  <property name="kdenlive:meta.attr.1.stream.language.markup">eng</property>
  <property name="kdenlive:meta.attr.major_brand.markup">qt  </property>
  <property name="kdenlive:meta.attr.minor_version.markup">537331968</property>
  <property name="kdenlive:meta.attr.compatible_brands.markup">qt  niko</property>
  <property name="kdenlive:meta.attr.creation_time.markup">2017-08-19T18:31:13.000000Z</property>
  <property name="kdenlive:meta.media.sample_aspect_num">1</property>
  <property name="kdenlive:meta.media.sample_aspect_den">1</property>
  <property name="kdenlive:meta.media.frame_rate_num">25</property>
  <property name="kdenlive:meta.media.frame_rate_den">1</property>
  <property name="kdenlive:meta.media.colorspace">601</property>
  <property name="kdenlive:meta.media.color_trc">4</property>
  <property name="kdenlive:meta.media.width">1280</property>
  <property name="kdenlive:meta.media.height">720</property>
  <property name="kdenlive:meta.media.top_field_first">0</property>
  <property name="kdenlive:meta.media.progressive">1</property>
 </producer>
 <producer id="38" title="Anonymous Submission" out="1021" in="0">
  <property name="length">00:00:40:22</property>
  <property name="eof">pause</property>
  <property name="resource">/home/nicolas/.cache/kdenlive/proxy/2f707c519048798cf9bc5f361b32aa4e.mpg</property>
  <property name="meta.media.nb_streams">2</property>
  <property name="meta.media.0.stream.type">video</property>
  <property name="meta.media.0.stream.frame_rate">25</property>
  <property name="meta.media.0.stream.sample_aspect_ratio">0</property>
  <property name="meta.media.0.codec.width">640</property>
  <property name="meta.media.0.codec.height">360</property>
  <property name="meta.media.0.codec.rotate">0</property>
  <property name="meta.media.0.codec.frame_rate">25</property>
  <property name="meta.media.0.codec.pix_fmt">yuv420p</property>
  <property name="meta.media.0.codec.sample_aspect_ratio">1</property>
  <property name="meta.media.0.codec.colorspace">601</property>
  <property name="meta.media.0.codec.name">mpeg2video</property>
  <property name="meta.media.0.codec.long_name">MPEG-2 video</property>
  <property name="meta.media.0.codec.bit_rate">0</property>
  <property name="meta.media.1.stream.type">audio</property>
  <property name="meta.media.1.codec.sample_fmt">s16p</property>
  <property name="meta.media.1.codec.sample_rate">48000</property>
  <property name="meta.media.1.codec.channels">2</property>
  <property name="meta.media.1.codec.name">mp2</property>
  <property name="meta.media.1.codec.long_name">MP2 (MPEG audio layer 2)</property>
  <property name="meta.media.1.codec.bit_rate">128000</property>
  <property name="seekable">1</property>
  <property name="meta.media.sample_aspect_num">1</property>
  <property name="meta.media.sample_aspect_den">1</property>
  <property name="aspect_ratio">1</property>
  <property name="audio_index">1</property>
  <property name="video_index">0</property>
  <property name="mute_on_pause">1</property>
  <property name="mlt_service">avformat</property>
  <property name="meta.media.0.codec.color_trc">1</property>
  <property name="meta.attr.0.stream.handler_name.markup">VideoHandler</property>
  <property name="meta.attr.1.stream.handler_name.markup">SoundHandler</property>
  <property name="meta.attr.major_brand.markup">isom</property>
  <property name="meta.attr.minor_version.markup">512</property>
  <property name="meta.attr.compatible_brands.markup">isomiso2avc1mp41</property>
  <property name="meta.attr.encoder.markup">Lavf57.56.101</property>
  <property name="meta.media.frame_rate_num">25</property>
  <property name="meta.media.frame_rate_den">1</property>
  <property name="meta.media.colorspace">601</property>
  <property name="meta.media.color_trc">2</property>
  <property name="meta.media.width">640</property>
  <property name="meta.media.height">360</property>
  <property name="meta.media.top_field_first">0</property>
  <property name="meta.media.progressive">1</property>
  <property name="kdenlive:file_size">24477569</property>
  <property name="kdenlive:file_hash">2f707c519048798cf9bc5f361b32aa4e</property>
  <property name="kdenlive:proxy">/home/nicolas/.cache/kdenlive/proxy/2f707c519048798cf9bc5f361b32aa4e.mpg</property>
  <property name="proxy_out">1021</property>
  <property name="kdenlive:originalurl">télé achat/chaussons chauffants/render partiel chaussons chauffants.mp4</property>
  <property name="global_feed">1</property>
  <property name="kdenlive:meta.media.nb_streams">2</property>
  <property name="kdenlive:meta.media.0.stream.type">video</property>
  <property name="kdenlive:meta.media.0.stream.frame_rate">25</property>
  <property name="kdenlive:meta.media.0.stream.sample_aspect_ratio">1</property>
  <property name="kdenlive:meta.media.0.codec.width">1280</property>
  <property name="kdenlive:meta.media.0.codec.height">720</property>
  <property name="kdenlive:meta.media.0.codec.rotate">0</property>
  <property name="kdenlive:meta.media.0.codec.frame_rate">25</property>
  <property name="kdenlive:meta.media.0.codec.pix_fmt">yuv420p</property>
  <property name="kdenlive:meta.media.0.codec.sample_aspect_ratio">1</property>
  <property name="kdenlive:meta.media.0.codec.colorspace">709</property>
  <property name="kdenlive:meta.media.0.codec.color_trc">1</property>
  <property name="kdenlive:meta.media.0.codec.name">h264</property>
  <property name="kdenlive:meta.media.0.codec.long_name">H.264 / AVC / MPEG-4 AVC / MPEG-4 part 10</property>
  <property name="kdenlive:meta.media.0.codec.bit_rate">4633731</property>
  <property name="kdenlive:meta.attr.0.stream.handler_name.markup">VideoHandler</property>
  <property name="kdenlive:meta.media.1.stream.type">audio</property>
  <property name="kdenlive:meta.media.1.codec.sample_fmt">fltp</property>
  <property name="kdenlive:meta.media.1.codec.sample_rate">48000</property>
  <property name="kdenlive:meta.media.1.codec.channels">2</property>
  <property name="kdenlive:meta.media.1.codec.name">aac</property>
  <property name="kdenlive:meta.media.1.codec.long_name">AAC (Advanced Audio Coding)</property>
  <property name="kdenlive:meta.media.1.codec.bit_rate">154604</property>
  <property name="kdenlive:meta.attr.1.stream.handler_name.markup">SoundHandler</property>
  <property name="kdenlive:meta.attr.major_brand.markup">isom</property>
  <property name="kdenlive:meta.attr.minor_version.markup">512</property>
  <property name="kdenlive:meta.attr.compatible_brands.markup">isomiso2avc1mp41</property>
  <property name="kdenlive:meta.attr.encoder.markup">Lavf57.56.101</property>
  <property name="kdenlive:meta.media.sample_aspect_num">1</property>
  <property name="kdenlive:meta.media.sample_aspect_den">1</property>
  <property name="kdenlive:meta.media.frame_rate_num">25</property>
  <property name="kdenlive:meta.media.frame_rate_den">1</property>
  <property name="kdenlive:meta.media.colorspace">709</property>
  <property name="kdenlive:meta.media.color_trc">1</property>
  <property name="kdenlive:meta.media.width">1280</property>
  <property name="kdenlive:meta.media.height">720</property>
  <property name="kdenlive:meta.media.top_field_first">0</property>
  <property name="kdenlive:meta.media.progressive">1</property>
 </producer>
 <producer id="39" title="Anonymous Submission" out="824" in="0">
  <property name="length">00:00:33:00</property>
  <property name="eof">pause</property>
  <property name="resource">/home/nicolas/.cache/kdenlive/proxy/2f3eb1f5fddb3c4007620baff0f5d63d.mpg</property>
  <property name="meta.media.nb_streams">2</property>
  <property name="meta.media.0.stream.type">video</property>
  <property name="meta.media.0.stream.frame_rate">25</property>
  <property name="meta.media.0.stream.sample_aspect_ratio">0</property>
  <property name="meta.media.0.codec.width">640</property>
  <property name="meta.media.0.codec.height">360</property>
  <property name="meta.media.0.codec.rotate">0</property>
  <property name="meta.media.0.codec.frame_rate">25</property>
  <property name="meta.media.0.codec.pix_fmt">yuv420p</property>
  <property name="meta.media.0.codec.sample_aspect_ratio">1</property>
  <property name="meta.media.0.codec.colorspace">601</property>
  <property name="meta.media.0.codec.name">mpeg2video</property>
  <property name="meta.media.0.codec.long_name">MPEG-2 video</property>
  <property name="meta.media.0.codec.bit_rate">0</property>
  <property name="meta.media.1.stream.type">audio</property>
  <property name="meta.media.1.codec.sample_fmt">s16p</property>
  <property name="meta.media.1.codec.sample_rate">24000</property>
  <property name="meta.media.1.codec.channels">1</property>
  <property name="meta.media.1.codec.name">mp2</property>
  <property name="meta.media.1.codec.long_name">MP2 (MPEG audio layer 2)</property>
  <property name="meta.media.1.codec.bit_rate">128000</property>
  <property name="seekable">1</property>
  <property name="meta.media.sample_aspect_num">1</property>
  <property name="meta.media.sample_aspect_den">1</property>
  <property name="aspect_ratio">1</property>
  <property name="audio_index">1</property>
  <property name="video_index">0</property>
  <property name="mute_on_pause">1</property>
  <property name="mlt_service">avformat</property>
  <property name="meta.media.0.codec.color_trc">4</property>
  <property name="meta.attr.0.stream.creation_time.markup">2017-08-20T11:07:09.000000Z</property>
  <property name="meta.attr.0.stream.language.markup">eng</property>
  <property name="meta.attr.1.stream.creation_time.markup">2017-08-20T11:07:09.000000Z</property>
  <property name="meta.attr.1.stream.language.markup">eng</property>
  <property name="meta.attr.major_brand.markup">qt  </property>
  <property name="meta.attr.minor_version.markup">537331968</property>
  <property name="meta.attr.compatible_brands.markup">qt  niko</property>
  <property name="meta.attr.creation_time.markup">2017-08-20T11:07:09.000000Z</property>
  <property name="meta.media.frame_rate_num">25</property>
  <property name="meta.media.frame_rate_den">1</property>
  <property name="meta.media.colorspace">601</property>
  <property name="meta.media.color_trc">2</property>
  <property name="meta.media.width">640</property>
  <property name="meta.media.height">360</property>
  <property name="meta.media.top_field_first">0</property>
  <property name="meta.media.progressive">1</property>
  <property name="kdenlive:file_size">44627861</property>
  <property name="kdenlive:file_hash">2f3eb1f5fddb3c4007620baff0f5d63d</property>
  <property name="kdenlive:proxy">/home/nicolas/.cache/kdenlive/proxy/2f3eb1f5fddb3c4007620baff0f5d63d.mpg</property>
  <property name="proxy_out">824</property>
  <property name="kdenlive:originalurl">3DSC_0046.MOV</property>
  <property name="global_feed">1</property>
  <property name="kdenlive:meta.media.nb_streams">2</property>
  <property name="kdenlive:meta.media.0.stream.type">video</property>
  <property name="kdenlive:meta.media.0.stream.frame_rate">25</property>
  <property name="kdenlive:meta.media.0.stream.sample_aspect_ratio">0</property>
  <property name="kdenlive:meta.media.0.codec.width">1280</property>
  <property name="kdenlive:meta.media.0.codec.height">720</property>
  <property name="kdenlive:meta.media.0.codec.rotate">0</property>
  <property name="kdenlive:meta.media.0.codec.frame_rate">25</property>
  <property name="kdenlive:meta.media.0.codec.pix_fmt">yuvj420p</property>
  <property name="kdenlive:meta.media.0.codec.sample_aspect_ratio">1</property>
  <property name="kdenlive:meta.media.0.codec.colorspace">601</property>
  <property name="kdenlive:meta.media.0.codec.color_trc">4</property>
  <property name="kdenlive:meta.media.0.codec.name">h264</property>
  <property name="kdenlive:meta.media.0.codec.long_name">H.264 / AVC / MPEG-4 AVC / MPEG-4 part 10</property>
  <property name="kdenlive:meta.media.0.codec.bit_rate">10405499</property>
  <property name="kdenlive:meta.attr.0.stream.creation_time.markup">2017-08-20T11:07:09.000000Z</property>
  <property name="kdenlive:meta.attr.0.stream.language.markup">eng</property>
  <property name="kdenlive:meta.media.1.stream.type">audio</property>
  <property name="kdenlive:meta.media.1.codec.sample_fmt">s16</property>
  <property name="kdenlive:meta.media.1.codec.sample_rate">24000</property>
  <property name="kdenlive:meta.media.1.codec.channels">1</property>
  <property name="kdenlive:meta.media.1.codec.name">pcm_s16le</property>
  <property name="kdenlive:meta.media.1.codec.long_name">PCM signed 16-bit little-endian</property>
  <property name="kdenlive:meta.media.1.codec.bit_rate">384000</property>
  <property name="kdenlive:meta.attr.1.stream.creation_time.markup">2017-08-20T11:07:09.000000Z</property>
  <property name="kdenlive:meta.attr.1.stream.language.markup">eng</property>
  <property name="kdenlive:meta.attr.major_brand.markup">qt  </property>
  <property name="kdenlive:meta.attr.minor_version.markup">537331968</property>
  <property name="kdenlive:meta.attr.compatible_brands.markup">qt  niko</property>
  <property name="kdenlive:meta.attr.creation_time.markup">2017-08-20T11:07:09.000000Z</property>
  <property name="kdenlive:meta.media.sample_aspect_num">1</property>
  <property name="kdenlive:meta.media.sample_aspect_den">1</property>
  <property name="kdenlive:meta.media.frame_rate_num">25</property>
  <property name="kdenlive:meta.media.frame_rate_den">1</property>
  <property name="kdenlive:meta.media.colorspace">601</property>
  <property name="kdenlive:meta.media.color_trc">4</property>
  <property name="kdenlive:meta.media.width">1280</property>
  <property name="kdenlive:meta.media.height">720</property>
  <property name="kdenlive:meta.media.top_field_first">0</property>
  <property name="kdenlive:meta.media.progressive">1</property>
 </producer>
 <producer id="40" title="Anonymous Submission" out="318" in="0">
  <property name="length">00:00:12:19</property>
  <property name="eof">pause</property>
  <property name="resource">télé achat/chaussons chauffants/Smoke FX Bluescreen.mp4</property>
  <property name="audio_index">1</property>
  <property name="video_index">0</property>
  <property name="mute_on_pause">1</property>
  <property name="mlt_service">avformat-novalidate</property>
  <property name="meta.media.nb_streams">2</property>
  <property name="meta.media.0.stream.type">video</property>
  <property name="meta.media.0.stream.frame_rate">29,97</property>
  <property name="meta.media.0.stream.sample_aspect_ratio">0</property>
  <property name="meta.media.0.codec.width">640</property>
  <property name="meta.media.0.codec.height">360</property>
  <property name="meta.media.0.codec.rotate">0</property>
  <property name="meta.media.0.codec.frame_rate">29,97</property>
  <property name="meta.media.0.codec.pix_fmt">yuv420p</property>
  <property name="meta.media.0.codec.sample_aspect_ratio">1</property>
  <property name="meta.media.0.codec.colorspace">601</property>
  <property name="meta.media.0.codec.name">h264</property>
  <property name="meta.media.0.codec.long_name">H.264 / AVC / MPEG-4 AVC / MPEG-4 part 10</property>
  <property name="meta.media.0.codec.bit_rate">248053</property>
  <property name="meta.attr.0.stream.handler_name.markup">VideoHandler</property>
  <property name="meta.media.1.stream.type">audio</property>
  <property name="meta.media.1.codec.sample_fmt">fltp</property>
  <property name="meta.media.1.codec.sample_rate">44100</property>
  <property name="meta.media.1.codec.channels">2</property>
  <property name="meta.media.1.codec.name">aac</property>
  <property name="meta.media.1.codec.long_name">AAC (Advanced Audio Coding)</property>
  <property name="meta.media.1.codec.bit_rate">95999</property>
  <property name="meta.attr.1.stream.creation_time.markup">2014-03-05T12:40:27.000000Z</property>
  <property name="meta.attr.1.stream.handler_name.markup">IsoMedia File Produced by Google, 5-11-2011</property>
  <property name="meta.attr.major_brand.markup">mp42</property>
  <property name="meta.attr.minor_version.markup">0</property>
  <property name="meta.attr.compatible_brands.markup">isommp42</property>
  <property name="meta.attr.creation_time.markup">2014-03-05T12:40:27.000000Z</property>
  <property name="seekable">1</property>
  <property name="meta.media.sample_aspect_num">1</property>
  <property name="meta.media.sample_aspect_den">1</property>
  <property name="aspect_ratio">1</property>
  <property name="meta.media.frame_rate_num">30000</property>
  <property name="meta.media.frame_rate_den">1001</property>
  <property name="meta.media.colorspace">601</property>
  <property name="meta.media.color_trc">2</property>
  <property name="meta.media.width">640</property>
  <property name="meta.media.height">360</property>
  <property name="meta.media.top_field_first">0</property>
  <property name="meta.media.progressive">1</property>
  <property name="kdenlive:file_size">553545</property>
  <property name="kdenlive:file_hash">ca6747c0f3a40c3bf39259b4eeaf8ee0</property>
  <property name="global_feed">1</property>
 </producer>
 <producer id="41" title="Anonymous Submission" out="1591" in="0">
  <property name="length">00:01:03:17</property>
  <property name="eof">pause</property>
  <property name="resource">/home/nicolas/.cache/kdenlive/proxy/54a87cee0810c3bc8bb73d4efc2b7bac.mpg</property>
  <property name="meta.media.nb_streams">2</property>
  <property name="meta.media.0.stream.type">video</property>
  <property name="meta.media.0.stream.frame_rate">29,97</property>
  <property name="meta.media.0.stream.sample_aspect_ratio">0</property>
  <property name="meta.media.0.codec.width">640</property>
  <property name="meta.media.0.codec.height">360</property>
  <property name="meta.media.0.codec.rotate">0</property>
  <property name="meta.media.0.codec.frame_rate">29,97</property>
  <property name="meta.media.0.codec.pix_fmt">yuv420p</property>
  <property name="meta.media.0.codec.sample_aspect_ratio">1</property>
  <property name="meta.media.0.codec.colorspace">601</property>
  <property name="meta.media.0.codec.name">mpeg2video</property>
  <property name="meta.media.0.codec.long_name">MPEG-2 video</property>
  <property name="meta.media.0.codec.bit_rate">0</property>
  <property name="meta.media.1.stream.type">audio</property>
  <property name="meta.media.1.codec.sample_fmt">s16p</property>
  <property name="meta.media.1.codec.sample_rate">48000</property>
  <property name="meta.media.1.codec.channels">2</property>
  <property name="meta.media.1.codec.name">mp2</property>
  <property name="meta.media.1.codec.long_name">MP2 (MPEG audio layer 2)</property>
  <property name="meta.media.1.codec.bit_rate">128000</property>
  <property name="seekable">1</property>
  <property name="meta.media.sample_aspect_num">1</property>
  <property name="meta.media.sample_aspect_den">1</property>
  <property name="aspect_ratio">1</property>
  <property name="audio_index">1</property>
  <property name="video_index">0</property>
  <property name="mute_on_pause">1</property>
  <property name="mlt_service">avformat</property>
  <property name="meta.media.0.codec.sample_fmt">fltp</property>
  <property name="meta.media.0.codec.sample_rate">48000</property>
  <property name="meta.media.0.codec.channels">2</property>
  <property name="meta.attr.0.stream.creation_time.markup">2014-02-22T11:25:05.000000Z</property>
  <property name="meta.attr.0.stream.language.markup">eng</property>
  <property name="meta.attr.0.stream.handler_name.markup">Sound Media Handler</property>
  <property name="meta.media.1.stream.frame_rate">29,97</property>
  <property name="meta.media.1.stream.sample_aspect_ratio">0</property>
  <property name="meta.media.1.codec.width">1280</property>
  <property name="meta.media.1.codec.height">720</property>
  <property name="meta.media.1.codec.rotate">0</property>
  <property name="meta.media.1.codec.frame_rate">29,97</property>
  <property name="meta.media.1.codec.pix_fmt">yuv420p</property>
  <property name="meta.media.1.codec.sample_aspect_ratio">1</property>
  <property name="meta.media.1.codec.colorspace">709</property>
  <property name="meta.attr.1.stream.creation_time.markup">2014-02-22T11:25:05.000000Z</property>
  <property name="meta.attr.1.stream.language.markup">eng</property>
  <property name="meta.attr.1.stream.handler_name.markup">Video Media Handler</property>
  <property name="meta.attr.1.stream.encoder.markup">AVC Coding</property>
  <property name="meta.attr.major_brand.markup">mp42</property>
  <property name="meta.attr.minor_version.markup">19529854</property>
  <property name="meta.attr.compatible_brands.markup">mp42isom</property>
  <property name="meta.attr.creation_time.markup">2014-02-22T11:25:05.000000Z</property>
  <property name="meta.media.frame_rate_num">30000</property>
  <property name="meta.media.frame_rate_den">1001</property>
  <property name="meta.media.colorspace">601</property>
  <property name="meta.media.color_trc">2</property>
  <property name="meta.media.width">640</property>
  <property name="meta.media.height">360</property>
  <property name="meta.media.top_field_first">0</property>
  <property name="meta.media.progressive">1</property>
  <property name="kdenlive:file_size">25429568</property>
  <property name="kdenlive:file_hash">54a87cee0810c3bc8bb73d4efc2b7bac</property>
  <property name="kdenlive:proxy">/home/nicolas/.cache/kdenlive/proxy/54a87cee0810c3bc8bb73d4efc2b7bac.mpg</property>
  <property name="proxy_out">1591</property>
  <property name="kdenlive:originalurl">télé achat/chaussons chauffants/thé.mp4</property>
  <property name="global_feed">1</property>
  <property name="kdenlive:meta.media.nb_streams">2</property>
  <property name="kdenlive:meta.media.0.stream.type">audio</property>
  <property name="kdenlive:meta.media.0.codec.sample_fmt">fltp</property>
  <property name="kdenlive:meta.media.0.codec.sample_rate">48000</property>
  <property name="kdenlive:meta.media.0.codec.channels">2</property>
  <property name="kdenlive:meta.media.0.codec.name">aac</property>
  <property name="kdenlive:meta.media.0.codec.long_name">AAC (Advanced Audio Coding)</property>
  <property name="kdenlive:meta.media.0.codec.bit_rate">128005</property>
  <property name="kdenlive:meta.attr.0.stream.creation_time.markup">2014-02-22T11:25:05.000000Z</property>
  <property name="kdenlive:meta.attr.0.stream.language.markup">eng</property>
  <property name="kdenlive:meta.attr.0.stream.handler_name.markup">Sound Media Handler</property>
  <property name="kdenlive:meta.media.1.stream.type">video</property>
  <property name="kdenlive:meta.media.1.stream.frame_rate">29,97</property>
  <property name="kdenlive:meta.media.1.stream.sample_aspect_ratio">0</property>
  <property name="kdenlive:meta.media.1.codec.width">1280</property>
  <property name="kdenlive:meta.media.1.codec.height">720</property>
  <property name="kdenlive:meta.media.1.codec.rotate">0</property>
  <property name="kdenlive:meta.media.1.codec.frame_rate">29,97</property>
  <property name="kdenlive:meta.media.1.codec.pix_fmt">yuv420p</property>
  <property name="kdenlive:meta.media.1.codec.sample_aspect_ratio">1</property>
  <property name="kdenlive:meta.media.1.codec.colorspace">709</property>
  <property name="kdenlive:meta.media.1.codec.name">h264</property>
  <property name="kdenlive:meta.media.1.codec.long_name">H.264 / AVC / MPEG-4 AVC / MPEG-4 part 10</property>
  <property name="kdenlive:meta.media.1.codec.bit_rate">3060922</property>
  <property name="kdenlive:meta.attr.1.stream.creation_time.markup">2014-02-22T11:25:05.000000Z</property>
  <property name="kdenlive:meta.attr.1.stream.language.markup">eng</property>
  <property name="kdenlive:meta.attr.1.stream.handler_name.markup">Video Media Handler</property>
  <property name="kdenlive:meta.attr.1.stream.encoder.markup">AVC Coding</property>
  <property name="kdenlive:meta.attr.major_brand.markup">mp42</property>
  <property name="kdenlive:meta.attr.minor_version.markup">19529854</property>
  <property name="kdenlive:meta.attr.compatible_brands.markup">mp42isom</property>
  <property name="kdenlive:meta.attr.creation_time.markup">2014-02-22T11:25:05.000000Z</property>
  <property name="kdenlive:meta.media.sample_aspect_num">1</property>
  <property name="kdenlive:meta.media.sample_aspect_den">1</property>
  <property name="kdenlive:meta.media.frame_rate_num">30000</property>
  <property name="kdenlive:meta.media.frame_rate_den">1001</property>
  <property name="kdenlive:meta.media.colorspace">709</property>
  <property name="kdenlive:meta.media.color_trc">2</property>
  <property name="kdenlive:meta.media.width">1280</property>
  <property name="kdenlive:meta.media.height">720</property>
  <property name="kdenlive:meta.media.top_field_first">0</property>
  <property name="kdenlive:meta.media.progressive">1</property>
 </producer>
 <producer id="42" title="Anonymous Submission" out="521" in="0">
  <property name="length">00:00:20:22</property>
  <property name="eof">pause</property>
  <property name="resource">/home/nicolas/.cache/kdenlive/proxy/7a2f6ddce584d23d324a00d89b745332.mpg</property>
  <property name="meta.media.nb_streams">2</property>
  <property name="meta.media.0.stream.type">video</property>
  <property name="meta.media.0.stream.frame_rate">25</property>
  <property name="meta.media.0.stream.sample_aspect_ratio">0</property>
  <property name="meta.media.0.codec.width">640</property>
  <property name="meta.media.0.codec.height">360</property>
  <property name="meta.media.0.codec.rotate">0</property>
  <property name="meta.media.0.codec.frame_rate">25</property>
  <property name="meta.media.0.codec.pix_fmt">yuv420p</property>
  <property name="meta.media.0.codec.sample_aspect_ratio">1</property>
  <property name="meta.media.0.codec.colorspace">601</property>
  <property name="meta.media.0.codec.name">mpeg2video</property>
  <property name="meta.media.0.codec.long_name">MPEG-2 video</property>
  <property name="meta.media.0.codec.bit_rate">0</property>
  <property name="meta.media.1.stream.type">audio</property>
  <property name="meta.media.1.codec.sample_fmt">s16p</property>
  <property name="meta.media.1.codec.sample_rate">24000</property>
  <property name="meta.media.1.codec.channels">1</property>
  <property name="meta.media.1.codec.name">mp2</property>
  <property name="meta.media.1.codec.long_name">MP2 (MPEG audio layer 2)</property>
  <property name="meta.media.1.codec.bit_rate">128000</property>
  <property name="seekable">1</property>
  <property name="meta.media.sample_aspect_num">1</property>
  <property name="meta.media.sample_aspect_den">1</property>
  <property name="aspect_ratio">1</property>
  <property name="audio_index">1</property>
  <property name="video_index">0</property>
  <property name="mute_on_pause">1</property>
  <property name="mlt_service">avformat</property>
  <property name="meta.media.0.codec.color_trc">4</property>
  <property name="meta.attr.0.stream.creation_time.markup">2017-08-19T17:03:24.000000Z</property>
  <property name="meta.attr.0.stream.language.markup">eng</property>
  <property name="meta.attr.1.stream.creation_time.markup">2017-08-19T17:03:24.000000Z</property>
  <property name="meta.attr.1.stream.language.markup">eng</property>
  <property name="meta.attr.major_brand.markup">qt  </property>
  <property name="meta.attr.minor_version.markup">537331968</property>
  <property name="meta.attr.compatible_brands.markup">qt  niko</property>
  <property name="meta.attr.creation_time.markup">2017-08-19T17:03:24.000000Z</property>
  <property name="meta.media.frame_rate_num">25</property>
  <property name="meta.media.frame_rate_den">1</property>
  <property name="meta.media.colorspace">601</property>
  <property name="meta.media.color_trc">2</property>
  <property name="meta.media.width">640</property>
  <property name="meta.media.height">360</property>
  <property name="meta.media.top_field_first">0</property>
  <property name="meta.media.progressive">1</property>
  <property name="kdenlive:file_size">30453823</property>
  <property name="kdenlive:file_hash">7a2f6ddce584d23d324a00d89b745332</property>
  <property name="kdenlive:proxy">/home/nicolas/.cache/kdenlive/proxy/7a2f6ddce584d23d324a00d89b745332.mpg</property>
  <property name="proxy_out">521</property>
  <property name="kdenlive:originalurl">/home/nicolas/Documents/Projets Musique/Barons Freaks/COURTS METRAGES - MAIN/COURTS METRAGES/tournage août/2017-08-19 rushs (copié)/2DSC_0018.MOV</property>
  <property name="global_feed">1</property>
  <property name="kdenlive:meta.media.nb_streams">2</property>
  <property name="kdenlive:meta.media.0.stream.type">video</property>
  <property name="kdenlive:meta.media.0.stream.frame_rate">25</property>
  <property name="kdenlive:meta.media.0.stream.sample_aspect_ratio">0</property>
  <property name="kdenlive:meta.media.0.codec.width">1280</property>
  <property name="kdenlive:meta.media.0.codec.height">720</property>
  <property name="kdenlive:meta.media.0.codec.rotate">0</property>
  <property name="kdenlive:meta.media.0.codec.frame_rate">25</property>
  <property name="kdenlive:meta.media.0.codec.pix_fmt">yuvj420p</property>
  <property name="kdenlive:meta.media.0.codec.sample_aspect_ratio">1</property>
  <property name="kdenlive:meta.media.0.codec.colorspace">601</property>
  <property name="kdenlive:meta.media.0.codec.color_trc">4</property>
  <property name="kdenlive:meta.media.0.codec.name">h264</property>
  <property name="kdenlive:meta.media.0.codec.long_name">H.264 / AVC / MPEG-4 AVC / MPEG-4 part 10</property>
  <property name="kdenlive:meta.media.0.codec.bit_rate">11235095</property>
  <property name="kdenlive:meta.attr.0.stream.creation_time.markup">2017-08-19T17:03:24.000000Z</property>
  <property name="kdenlive:meta.attr.0.stream.language.markup">eng</property>
  <property name="kdenlive:meta.media.1.stream.type">audio</property>
  <property name="kdenlive:meta.media.1.codec.sample_fmt">s16</property>
  <property name="kdenlive:meta.media.1.codec.sample_rate">24000</property>
  <property name="kdenlive:meta.media.1.codec.channels">1</property>
  <property name="kdenlive:meta.media.1.codec.name">pcm_s16le</property>
  <property name="kdenlive:meta.media.1.codec.long_name">PCM signed 16-bit little-endian</property>
  <property name="kdenlive:meta.media.1.codec.bit_rate">384000</property>
  <property name="kdenlive:meta.attr.1.stream.creation_time.markup">2017-08-19T17:03:24.000000Z</property>
  <property name="kdenlive:meta.attr.1.stream.language.markup">eng</property>
  <property name="kdenlive:meta.attr.major_brand.markup">qt  </property>
  <property name="kdenlive:meta.attr.minor_version.markup">537331968</property>
  <property name="kdenlive:meta.attr.compatible_brands.markup">qt  niko</property>
  <property name="kdenlive:meta.attr.creation_time.markup">2017-08-19T17:03:24.000000Z</property>
  <property name="kdenlive:meta.media.sample_aspect_num">1</property>
  <property name="kdenlive:meta.media.sample_aspect_den">1</property>
  <property name="kdenlive:meta.media.frame_rate_num">25</property>
  <property name="kdenlive:meta.media.frame_rate_den">1</property>
  <property name="kdenlive:meta.media.colorspace">601</property>
  <property name="kdenlive:meta.media.color_trc">4</property>
  <property name="kdenlive:meta.media.width">1280</property>
  <property name="kdenlive:meta.media.height">720</property>
  <property name="kdenlive:meta.media.top_field_first">0</property>
  <property name="kdenlive:meta.media.progressive">1</property>
 </producer>
 <producer id="43" title="Anonymous Submission" out="1784" in="0">
  <property name="length">00:01:11:10</property>
  <property name="eof">pause</property>
  <property name="resource">/home/nicolas/.cache/kdenlive/proxy/d77769bead55d97a5c587d1406863229.mpg</property>
  <property name="meta.media.nb_streams">2</property>
  <property name="meta.media.0.stream.type">video</property>
  <property name="meta.media.0.stream.frame_rate">25</property>
  <property name="meta.media.0.stream.sample_aspect_ratio">0</property>
  <property name="meta.media.0.codec.width">640</property>
  <property name="meta.media.0.codec.height">360</property>
  <property name="meta.media.0.codec.rotate">0</property>
  <property name="meta.media.0.codec.frame_rate">25</property>
  <property name="meta.media.0.codec.pix_fmt">yuv420p</property>
  <property name="meta.media.0.codec.sample_aspect_ratio">1</property>
  <property name="meta.media.0.codec.colorspace">601</property>
  <property name="meta.media.0.codec.name">mpeg2video</property>
  <property name="meta.media.0.codec.long_name">MPEG-2 video</property>
  <property name="meta.media.0.codec.bit_rate">0</property>
  <property name="meta.media.1.stream.type">audio</property>
  <property name="meta.media.1.codec.sample_fmt">s16p</property>
  <property name="meta.media.1.codec.sample_rate">24000</property>
  <property name="meta.media.1.codec.channels">1</property>
  <property name="meta.media.1.codec.name">mp2</property>
  <property name="meta.media.1.codec.long_name">MP2 (MPEG audio layer 2)</property>
  <property name="meta.media.1.codec.bit_rate">128000</property>
  <property name="seekable">1</property>
  <property name="meta.media.sample_aspect_num">1</property>
  <property name="meta.media.sample_aspect_den">1</property>
  <property name="aspect_ratio">1</property>
  <property name="audio_index">1</property>
  <property name="video_index">0</property>
  <property name="mute_on_pause">1</property>
  <property name="mlt_service">avformat</property>
  <property name="meta.media.0.codec.color_trc">4</property>
  <property name="meta.attr.0.stream.creation_time.markup">2017-08-20T17:08:50.000000Z</property>
  <property name="meta.attr.0.stream.language.markup">eng</property>
  <property name="meta.attr.1.stream.creation_time.markup">2017-08-20T17:08:50.000000Z</property>
  <property name="meta.attr.1.stream.language.markup">eng</property>
  <property name="meta.attr.major_brand.markup">qt  </property>
  <property name="meta.attr.minor_version.markup">537331968</property>
  <property name="meta.attr.compatible_brands.markup">qt  niko</property>
  <property name="meta.attr.creation_time.markup">2017-08-20T17:08:50.000000Z</property>
  <property name="meta.media.frame_rate_num">25</property>
  <property name="meta.media.frame_rate_den">1</property>
  <property name="meta.media.colorspace">601</property>
  <property name="meta.media.color_trc">2</property>
  <property name="meta.media.width">640</property>
  <property name="meta.media.height">360</property>
  <property name="meta.media.top_field_first">0</property>
  <property name="meta.media.progressive">1</property>
  <property name="kdenlive:file_size">103875540</property>
  <property name="kdenlive:file_hash">d77769bead55d97a5c587d1406863229</property>
  <property name="kdenlive:proxy">/home/nicolas/.cache/kdenlive/proxy/d77769bead55d97a5c587d1406863229.mpg</property>
  <property name="proxy_out">1784</property>
  <property name="kdenlive:originalurl">3DSC_0129.MOV</property>
  <property name="global_feed">1</property>
  <property name="kdenlive:meta.media.nb_streams">2</property>
  <property name="kdenlive:meta.media.0.stream.type">video</property>
  <property name="kdenlive:meta.media.0.stream.frame_rate">25</property>
  <property name="kdenlive:meta.media.0.stream.sample_aspect_ratio">0</property>
  <property name="kdenlive:meta.media.0.codec.width">1280</property>
  <property name="kdenlive:meta.media.0.codec.height">720</property>
  <property name="kdenlive:meta.media.0.codec.rotate">0</property>
  <property name="kdenlive:meta.media.0.codec.frame_rate">25</property>
  <property name="kdenlive:meta.media.0.codec.pix_fmt">yuvj420p</property>
  <property name="kdenlive:meta.media.0.codec.sample_aspect_ratio">1</property>
  <property name="kdenlive:meta.media.0.codec.colorspace">601</property>
  <property name="kdenlive:meta.media.0.codec.color_trc">4</property>
  <property name="kdenlive:meta.media.0.codec.name">h264</property>
  <property name="kdenlive:meta.media.0.codec.long_name">H.264 / AVC / MPEG-4 AVC / MPEG-4 part 10</property>
  <property name="kdenlive:meta.media.0.codec.bit_rate">11240174</property>
  <property name="kdenlive:meta.attr.0.stream.creation_time.markup">2017-08-20T17:08:50.000000Z</property>
  <property name="kdenlive:meta.attr.0.stream.language.markup">eng</property>
  <property name="kdenlive:meta.media.1.stream.type">audio</property>
  <property name="kdenlive:meta.media.1.codec.sample_fmt">s16</property>
  <property name="kdenlive:meta.media.1.codec.sample_rate">24000</property>
  <property name="kdenlive:meta.media.1.codec.channels">1</property>
  <property name="kdenlive:meta.media.1.codec.name">pcm_s16le</property>
  <property name="kdenlive:meta.media.1.codec.long_name">PCM signed 16-bit little-endian</property>
  <property name="kdenlive:meta.media.1.codec.bit_rate">384000</property>
  <property name="kdenlive:meta.attr.1.stream.creation_time.markup">2017-08-20T17:08:50.000000Z</property>
  <property name="kdenlive:meta.attr.1.stream.language.markup">eng</property>
  <property name="kdenlive:meta.attr.major_brand.markup">qt  </property>
  <property name="kdenlive:meta.attr.minor_version.markup">537331968</property>
  <property name="kdenlive:meta.attr.compatible_brands.markup">qt  niko</property>
  <property name="kdenlive:meta.attr.creation_time.markup">2017-08-20T17:08:50.000000Z</property>
  <property name="kdenlive:meta.media.sample_aspect_num">1</property>
  <property name="kdenlive:meta.media.sample_aspect_den">1</property>
  <property name="kdenlive:meta.media.frame_rate_num">25</property>
  <property name="kdenlive:meta.media.frame_rate_den">1</property>
  <property name="kdenlive:meta.media.colorspace">601</property>
  <property name="kdenlive:meta.media.color_trc">4</property>
  <property name="kdenlive:meta.media.width">1280</property>
  <property name="kdenlive:meta.media.height">720</property>
  <property name="kdenlive:meta.media.top_field_first">0</property>
  <property name="kdenlive:meta.media.progressive">1</property>
 </producer>
 <producer id="44" title="Anonymous Submission" out="581" in="0">
  <property name="length">00:00:23:07</property>
  <property name="eof">pause</property>
  <property name="resource">/home/nicolas/.cache/kdenlive/proxy/a7cb614f0a9434f0134bb9c15fc79017.mpg</property>
  <property name="meta.media.nb_streams">2</property>
  <property name="meta.media.0.stream.type">video</property>
  <property name="meta.media.0.stream.frame_rate">25</property>
  <property name="meta.media.0.stream.sample_aspect_ratio">0</property>
  <property name="meta.media.0.codec.width">640</property>
  <property name="meta.media.0.codec.height">360</property>
  <property name="meta.media.0.codec.rotate">0</property>
  <property name="meta.media.0.codec.frame_rate">25</property>
  <property name="meta.media.0.codec.pix_fmt">yuv420p</property>
  <property name="meta.media.0.codec.sample_aspect_ratio">1</property>
  <property name="meta.media.0.codec.colorspace">601</property>
  <property name="meta.media.0.codec.name">mpeg2video</property>
  <property name="meta.media.0.codec.long_name">MPEG-2 video</property>
  <property name="meta.media.0.codec.bit_rate">0</property>
  <property name="meta.media.1.stream.type">audio</property>
  <property name="meta.media.1.codec.sample_fmt">s16p</property>
  <property name="meta.media.1.codec.sample_rate">24000</property>
  <property name="meta.media.1.codec.channels">1</property>
  <property name="meta.media.1.codec.name">mp2</property>
  <property name="meta.media.1.codec.long_name">MP2 (MPEG audio layer 2)</property>
  <property name="meta.media.1.codec.bit_rate">128000</property>
  <property name="seekable">1</property>
  <property name="meta.media.sample_aspect_num">1</property>
  <property name="meta.media.sample_aspect_den">1</property>
  <property name="aspect_ratio">1</property>
  <property name="audio_index">1</property>
  <property name="video_index">0</property>
  <property name="mute_on_pause">1</property>
  <property name="mlt_service">avformat</property>
  <property name="meta.media.0.codec.color_trc">4</property>
  <property name="meta.attr.0.stream.creation_time.markup">2017-08-20T19:05:01.000000Z</property>
  <property name="meta.attr.0.stream.language.markup">eng</property>
  <property name="meta.attr.1.stream.creation_time.markup">2017-08-20T19:05:01.000000Z</property>
  <property name="meta.attr.1.stream.language.markup">eng</property>
  <property name="meta.attr.major_brand.markup">qt  </property>
  <property name="meta.attr.minor_version.markup">537331968</property>
  <property name="meta.attr.compatible_brands.markup">qt  niko</property>
  <property name="meta.attr.creation_time.markup">2017-08-20T19:05:01.000000Z</property>
  <property name="meta.media.frame_rate_num">25</property>
  <property name="meta.media.frame_rate_den">1</property>
  <property name="meta.media.colorspace">601</property>
  <property name="meta.media.color_trc">2</property>
  <property name="meta.media.width">640</property>
  <property name="meta.media.height">360</property>
  <property name="meta.media.top_field_first">0</property>
  <property name="meta.media.progressive">1</property>
  <property name="kdenlive:file_size">31853402</property>
  <property name="kdenlive:file_hash">a7cb614f0a9434f0134bb9c15fc79017</property>
  <property name="kdenlive:proxy">/home/nicolas/.cache/kdenlive/proxy/a7cb614f0a9434f0134bb9c15fc79017.mpg</property>
  <property name="proxy_out">581</property>
  <property name="kdenlive:originalurl">3DSC_0171.MOV</property>
  <property name="global_feed">1</property>
  <property name="kdenlive:meta.media.nb_streams">2</property>
  <property name="kdenlive:meta.media.0.stream.type">video</property>
  <property name="kdenlive:meta.media.0.stream.frame_rate">25</property>
  <property name="kdenlive:meta.media.0.stream.sample_aspect_ratio">0</property>
  <property name="kdenlive:meta.media.0.codec.width">1280</property>
  <property name="kdenlive:meta.media.0.codec.height">720</property>
  <property name="kdenlive:meta.media.0.codec.rotate">0</property>
  <property name="kdenlive:meta.media.0.codec.frame_rate">25</property>
  <property name="kdenlive:meta.media.0.codec.pix_fmt">yuvj420p</property>
  <property name="kdenlive:meta.media.0.codec.sample_aspect_ratio">1</property>
  <property name="kdenlive:meta.media.0.codec.colorspace">601</property>
  <property name="kdenlive:meta.media.0.codec.color_trc">4</property>
  <property name="kdenlive:meta.media.0.codec.name">h264</property>
  <property name="kdenlive:meta.media.0.codec.long_name">H.264 / AVC / MPEG-4 AVC / MPEG-4 part 10</property>
  <property name="kdenlive:meta.media.0.codec.bit_rate">10520184</property>
  <property name="kdenlive:meta.attr.0.stream.creation_time.markup">2017-08-20T19:05:01.000000Z</property>
  <property name="kdenlive:meta.attr.0.stream.language.markup">eng</property>
  <property name="kdenlive:meta.media.1.stream.type">audio</property>
  <property name="kdenlive:meta.media.1.codec.sample_fmt">s16</property>
  <property name="kdenlive:meta.media.1.codec.sample_rate">24000</property>
  <property name="kdenlive:meta.media.1.codec.channels">1</property>
  <property name="kdenlive:meta.media.1.codec.name">pcm_s16le</property>
  <property name="kdenlive:meta.media.1.codec.long_name">PCM signed 16-bit little-endian</property>
  <property name="kdenlive:meta.media.1.codec.bit_rate">384000</property>
  <property name="kdenlive:meta.attr.1.stream.creation_time.markup">2017-08-20T19:05:01.000000Z</property>
  <property name="kdenlive:meta.attr.1.stream.language.markup">eng</property>
  <property name="kdenlive:meta.attr.major_brand.markup">qt  </property>
  <property name="kdenlive:meta.attr.minor_version.markup">537331968</property>
  <property name="kdenlive:meta.attr.compatible_brands.markup">qt  niko</property>
  <property name="kdenlive:meta.attr.creation_time.markup">2017-08-20T19:05:01.000000Z</property>
  <property name="kdenlive:meta.media.sample_aspect_num">1</property>
  <property name="kdenlive:meta.media.sample_aspect_den">1</property>
  <property name="kdenlive:meta.media.frame_rate_num">25</property>
  <property name="kdenlive:meta.media.frame_rate_den">1</property>
  <property name="kdenlive:meta.media.colorspace">601</property>
  <property name="kdenlive:meta.media.color_trc">4</property>
  <property name="kdenlive:meta.media.width">1280</property>
  <property name="kdenlive:meta.media.height">720</property>
  <property name="kdenlive:meta.media.top_field_first">0</property>
  <property name="kdenlive:meta.media.progressive">1</property>
 </producer>
 <producer id="45" title="Anonymous Submission" out="1055" in="0">
  <property name="length">00:00:42:06</property>
  <property name="eof">pause</property>
  <property name="resource">/home/nicolas/.cache/kdenlive/proxy/b73c91a14d23e26d1b7c17e3eb3d1d92.mpg</property>
  <property name="meta.media.nb_streams">2</property>
  <property name="meta.media.0.stream.type">video</property>
  <property name="meta.media.0.stream.frame_rate">25</property>
  <property name="meta.media.0.stream.sample_aspect_ratio">0</property>
  <property name="meta.media.0.codec.width">640</property>
  <property name="meta.media.0.codec.height">360</property>
  <property name="meta.media.0.codec.rotate">0</property>
  <property name="meta.media.0.codec.frame_rate">25</property>
  <property name="meta.media.0.codec.pix_fmt">yuv420p</property>
  <property name="meta.media.0.codec.sample_aspect_ratio">1</property>
  <property name="meta.media.0.codec.colorspace">601</property>
  <property name="meta.media.0.codec.name">mpeg2video</property>
  <property name="meta.media.0.codec.long_name">MPEG-2 video</property>
  <property name="meta.media.0.codec.bit_rate">0</property>
  <property name="meta.media.1.stream.type">audio</property>
  <property name="meta.media.1.codec.sample_fmt">s16p</property>
  <property name="meta.media.1.codec.sample_rate">24000</property>
  <property name="meta.media.1.codec.channels">1</property>
  <property name="meta.media.1.codec.name">mp2</property>
  <property name="meta.media.1.codec.long_name">MP2 (MPEG audio layer 2)</property>
  <property name="meta.media.1.codec.bit_rate">128000</property>
  <property name="seekable">1</property>
  <property name="meta.media.sample_aspect_num">1</property>
  <property name="meta.media.sample_aspect_den">1</property>
  <property name="aspect_ratio">1</property>
  <property name="audio_index">1</property>
  <property name="video_index">0</property>
  <property name="mute_on_pause">1</property>
  <property name="mlt_service">avformat</property>
  <property name="meta.media.0.codec.color_trc">4</property>
  <property name="meta.attr.0.stream.creation_time.markup">2017-08-20T18:03:06.000000Z</property>
  <property name="meta.attr.0.stream.language.markup">eng</property>
  <property name="meta.attr.1.stream.creation_time.markup">2017-08-20T18:03:06.000000Z</property>
  <property name="meta.attr.1.stream.language.markup">eng</property>
  <property name="meta.attr.major_brand.markup">qt  </property>
  <property name="meta.attr.minor_version.markup">537331968</property>
  <property name="meta.attr.compatible_brands.markup">qt  niko</property>
  <property name="meta.attr.creation_time.markup">2017-08-20T18:03:06.000000Z</property>
  <property name="meta.media.frame_rate_num">25</property>
  <property name="meta.media.frame_rate_den">1</property>
  <property name="meta.media.colorspace">601</property>
  <property name="meta.media.color_trc">2</property>
  <property name="meta.media.width">640</property>
  <property name="meta.media.height">360</property>
  <property name="meta.media.top_field_first">0</property>
  <property name="meta.media.progressive">1</property>
  <property name="kdenlive:file_size">58468307</property>
  <property name="kdenlive:file_hash">b73c91a14d23e26d1b7c17e3eb3d1d92</property>
  <property name="kdenlive:proxy">/home/nicolas/.cache/kdenlive/proxy/b73c91a14d23e26d1b7c17e3eb3d1d92.mpg</property>
  <property name="proxy_out">1055</property>
  <property name="kdenlive:originalurl">3DSC_0151.MOV</property>
  <property name="global_feed">1</property>
  <property name="kdenlive:meta.media.nb_streams">2</property>
  <property name="kdenlive:meta.media.0.stream.type">video</property>
  <property name="kdenlive:meta.media.0.stream.frame_rate">25</property>
  <property name="kdenlive:meta.media.0.stream.sample_aspect_ratio">0</property>
  <property name="kdenlive:meta.media.0.codec.width">1280</property>
  <property name="kdenlive:meta.media.0.codec.height">720</property>
  <property name="kdenlive:meta.media.0.codec.rotate">0</property>
  <property name="kdenlive:meta.media.0.codec.frame_rate">25</property>
  <property name="kdenlive:meta.media.0.codec.pix_fmt">yuvj420p</property>
  <property name="kdenlive:meta.media.0.codec.sample_aspect_ratio">1</property>
  <property name="kdenlive:meta.media.0.codec.colorspace">601</property>
  <property name="kdenlive:meta.media.0.codec.color_trc">4</property>
  <property name="kdenlive:meta.media.0.codec.name">h264</property>
  <property name="kdenlive:meta.media.0.codec.long_name">H.264 / AVC / MPEG-4 AVC / MPEG-4 part 10</property>
  <property name="kdenlive:meta.media.0.codec.bit_rate">10666003</property>
  <property name="kdenlive:meta.attr.0.stream.creation_time.markup">2017-08-20T18:03:06.000000Z</property>
  <property name="kdenlive:meta.attr.0.stream.language.markup">eng</property>
  <property name="kdenlive:meta.media.1.stream.type">audio</property>
  <property name="kdenlive:meta.media.1.codec.sample_fmt">s16</property>
  <property name="kdenlive:meta.media.1.codec.sample_rate">24000</property>
  <property name="kdenlive:meta.media.1.codec.channels">1</property>
  <property name="kdenlive:meta.media.1.codec.name">pcm_s16le</property>
  <property name="kdenlive:meta.media.1.codec.long_name">PCM signed 16-bit little-endian</property>
  <property name="kdenlive:meta.media.1.codec.bit_rate">384000</property>
  <property name="kdenlive:meta.attr.1.stream.creation_time.markup">2017-08-20T18:03:06.000000Z</property>
  <property name="kdenlive:meta.attr.1.stream.language.markup">eng</property>
  <property name="kdenlive:meta.attr.major_brand.markup">qt  </property>
  <property name="kdenlive:meta.attr.minor_version.markup">537331968</property>
  <property name="kdenlive:meta.attr.compatible_brands.markup">qt  niko</property>
  <property name="kdenlive:meta.attr.creation_time.markup">2017-08-20T18:03:06.000000Z</property>
  <property name="kdenlive:meta.media.sample_aspect_num">1</property>
  <property name="kdenlive:meta.media.sample_aspect_den">1</property>
  <property name="kdenlive:meta.media.frame_rate_num">25</property>
  <property name="kdenlive:meta.media.frame_rate_den">1</property>
  <property name="kdenlive:meta.media.colorspace">601</property>
  <property name="kdenlive:meta.media.color_trc">4</property>
  <property name="kdenlive:meta.media.width">1280</property>
  <property name="kdenlive:meta.media.height">720</property>
  <property name="kdenlive:meta.media.top_field_first">0</property>
  <property name="kdenlive:meta.media.progressive">1</property>
 </producer>
 <producer id="46" title="Anonymous Submission" out="569" in="0">
  <property name="length">00:00:22:20</property>
  <property name="eof">pause</property>
  <property name="resource">/home/nicolas/.cache/kdenlive/proxy/bec6b78515a8010ecf69f1eb99b9fe47.mpg</property>
  <property name="meta.media.nb_streams">2</property>
  <property name="meta.media.0.stream.type">video</property>
  <property name="meta.media.0.stream.frame_rate">25</property>
  <property name="meta.media.0.stream.sample_aspect_ratio">0</property>
  <property name="meta.media.0.codec.width">640</property>
  <property name="meta.media.0.codec.height">360</property>
  <property name="meta.media.0.codec.rotate">0</property>
  <property name="meta.media.0.codec.frame_rate">25</property>
  <property name="meta.media.0.codec.pix_fmt">yuv420p</property>
  <property name="meta.media.0.codec.sample_aspect_ratio">1</property>
  <property name="meta.media.0.codec.colorspace">601</property>
  <property name="meta.media.0.codec.name">mpeg2video</property>
  <property name="meta.media.0.codec.long_name">MPEG-2 video</property>
  <property name="meta.media.0.codec.bit_rate">0</property>
  <property name="meta.media.1.stream.type">audio</property>
  <property name="meta.media.1.codec.sample_fmt">s16p</property>
  <property name="meta.media.1.codec.sample_rate">24000</property>
  <property name="meta.media.1.codec.channels">1</property>
  <property name="meta.media.1.codec.name">mp2</property>
  <property name="meta.media.1.codec.long_name">MP2 (MPEG audio layer 2)</property>
  <property name="meta.media.1.codec.bit_rate">128000</property>
  <property name="seekable">1</property>
  <property name="meta.media.sample_aspect_num">1</property>
  <property name="meta.media.sample_aspect_den">1</property>
  <property name="aspect_ratio">1</property>
  <property name="audio_index">1</property>
  <property name="video_index">0</property>
  <property name="mute_on_pause">1</property>
  <property name="mlt_service">avformat</property>
  <property name="meta.media.0.codec.color_trc">4</property>
  <property name="meta.attr.0.stream.creation_time.markup">2017-08-20T19:09:57.000000Z</property>
  <property name="meta.attr.0.stream.language.markup">eng</property>
  <property name="meta.attr.1.stream.creation_time.markup">2017-08-20T19:09:57.000000Z</property>
  <property name="meta.attr.1.stream.language.markup">eng</property>
  <property name="meta.attr.major_brand.markup">qt  </property>
  <property name="meta.attr.minor_version.markup">537331968</property>
  <property name="meta.attr.compatible_brands.markup">qt  niko</property>
  <property name="meta.attr.creation_time.markup">2017-08-20T19:09:57.000000Z</property>
  <property name="meta.media.frame_rate_num">25</property>
  <property name="meta.media.frame_rate_den">1</property>
  <property name="meta.media.colorspace">601</property>
  <property name="meta.media.color_trc">2</property>
  <property name="meta.media.width">640</property>
  <property name="meta.media.height">360</property>
  <property name="meta.media.top_field_first">0</property>
  <property name="meta.media.progressive">1</property>
  <property name="kdenlive:file_size">31753256</property>
  <property name="kdenlive:file_hash">bec6b78515a8010ecf69f1eb99b9fe47</property>
  <property name="kdenlive:proxy">/home/nicolas/.cache/kdenlive/proxy/bec6b78515a8010ecf69f1eb99b9fe47.mpg</property>
  <property name="proxy_out">569</property>
  <property name="kdenlive:originalurl">3DSC_0176.MOV</property>
  <property name="global_feed">1</property>
  <property name="kdenlive:meta.media.nb_streams">2</property>
  <property name="kdenlive:meta.media.0.stream.type">video</property>
  <property name="kdenlive:meta.media.0.stream.frame_rate">25</property>
  <property name="kdenlive:meta.media.0.stream.sample_aspect_ratio">0</property>
  <property name="kdenlive:meta.media.0.codec.width">1280</property>
  <property name="kdenlive:meta.media.0.codec.height">720</property>
  <property name="kdenlive:meta.media.0.codec.rotate">0</property>
  <property name="kdenlive:meta.media.0.codec.frame_rate">25</property>
  <property name="kdenlive:meta.media.0.codec.pix_fmt">yuvj420p</property>
  <property name="kdenlive:meta.media.0.codec.sample_aspect_ratio">1</property>
  <property name="kdenlive:meta.media.0.codec.colorspace">601</property>
  <property name="kdenlive:meta.media.0.codec.color_trc">4</property>
  <property name="kdenlive:meta.media.0.codec.name">h264</property>
  <property name="kdenlive:meta.media.0.codec.long_name">H.264 / AVC / MPEG-4 AVC / MPEG-4 part 10</property>
  <property name="kdenlive:meta.media.0.codec.bit_rate">10716844</property>
  <property name="kdenlive:meta.attr.0.stream.creation_time.markup">2017-08-20T19:09:57.000000Z</property>
  <property name="kdenlive:meta.attr.0.stream.language.markup">eng</property>
  <property name="kdenlive:meta.media.1.stream.type">audio</property>
  <property name="kdenlive:meta.media.1.codec.sample_fmt">s16</property>
  <property name="kdenlive:meta.media.1.codec.sample_rate">24000</property>
  <property name="kdenlive:meta.media.1.codec.channels">1</property>
  <property name="kdenlive:meta.media.1.codec.name">pcm_s16le</property>
  <property name="kdenlive:meta.media.1.codec.long_name">PCM signed 16-bit little-endian</property>
  <property name="kdenlive:meta.media.1.codec.bit_rate">384000</property>
  <property name="kdenlive:meta.attr.1.stream.creation_time.markup">2017-08-20T19:09:57.000000Z</property>
  <property name="kdenlive:meta.attr.1.stream.language.markup">eng</property>
  <property name="kdenlive:meta.attr.major_brand.markup">qt  </property>
  <property name="kdenlive:meta.attr.minor_version.markup">537331968</property>
  <property name="kdenlive:meta.attr.compatible_brands.markup">qt  niko</property>
  <property name="kdenlive:meta.attr.creation_time.markup">2017-08-20T19:09:57.000000Z</property>
  <property name="kdenlive:meta.media.sample_aspect_num">1</property>
  <property name="kdenlive:meta.media.sample_aspect_den">1</property>
  <property name="kdenlive:meta.media.frame_rate_num">25</property>
  <property name="kdenlive:meta.media.frame_rate_den">1</property>
  <property name="kdenlive:meta.media.colorspace">601</property>
  <property name="kdenlive:meta.media.color_trc">4</property>
  <property name="kdenlive:meta.media.width">1280</property>
  <property name="kdenlive:meta.media.height">720</property>
  <property name="kdenlive:meta.media.top_field_first">0</property>
  <property name="kdenlive:meta.media.progressive">1</property>
 </producer>
 <producer id="47" title="Anonymous Submission" out="761" in="0">
  <property name="length">00:00:30:12</property>
  <property name="eof">pause</property>
  <property name="resource">/home/nicolas/.cache/kdenlive/proxy/4656a2c84753ea24b77f54a32a1e6e7d.mpg</property>
  <property name="meta.media.nb_streams">2</property>
  <property name="meta.media.0.stream.type">video</property>
  <property name="meta.media.0.stream.frame_rate">25</property>
  <property name="meta.media.0.stream.sample_aspect_ratio">0</property>
  <property name="meta.media.0.codec.width">640</property>
  <property name="meta.media.0.codec.height">360</property>
  <property name="meta.media.0.codec.rotate">0</property>
  <property name="meta.media.0.codec.frame_rate">25</property>
  <property name="meta.media.0.codec.pix_fmt">yuv420p</property>
  <property name="meta.media.0.codec.sample_aspect_ratio">1</property>
  <property name="meta.media.0.codec.colorspace">601</property>
  <property name="meta.media.0.codec.name">mpeg2video</property>
  <property name="meta.media.0.codec.long_name">MPEG-2 video</property>
  <property name="meta.media.0.codec.bit_rate">0</property>
  <property name="meta.media.1.stream.type">audio</property>
  <property name="meta.media.1.codec.sample_fmt">s16p</property>
  <property name="meta.media.1.codec.sample_rate">24000</property>
  <property name="meta.media.1.codec.channels">1</property>
  <property name="meta.media.1.codec.name">mp2</property>
  <property name="meta.media.1.codec.long_name">MP2 (MPEG audio layer 2)</property>
  <property name="meta.media.1.codec.bit_rate">128000</property>
  <property name="seekable">1</property>
  <property name="meta.media.sample_aspect_num">1</property>
  <property name="meta.media.sample_aspect_den">1</property>
  <property name="aspect_ratio">1</property>
  <property name="audio_index">1</property>
  <property name="video_index">0</property>
  <property name="mute_on_pause">1</property>
  <property name="mlt_service">avformat</property>
  <property name="meta.media.0.codec.color_trc">4</property>
  <property name="meta.attr.0.stream.creation_time.markup">2017-08-20T18:56:15.000000Z</property>
  <property name="meta.attr.0.stream.language.markup">eng</property>
  <property name="meta.attr.1.stream.creation_time.markup">2017-08-20T18:56:15.000000Z</property>
  <property name="meta.attr.1.stream.language.markup">eng</property>
  <property name="meta.attr.major_brand.markup">qt  </property>
  <property name="meta.attr.minor_version.markup">537331968</property>
  <property name="meta.attr.compatible_brands.markup">qt  niko</property>
  <property name="meta.attr.creation_time.markup">2017-08-20T18:56:15.000000Z</property>
  <property name="meta.media.frame_rate_num">25</property>
  <property name="meta.media.frame_rate_den">1</property>
  <property name="meta.media.colorspace">601</property>
  <property name="meta.media.color_trc">2</property>
  <property name="meta.media.width">640</property>
  <property name="meta.media.height">360</property>
  <property name="meta.media.top_field_first">0</property>
  <property name="meta.media.progressive">1</property>
  <property name="kdenlive:file_size">42017075</property>
  <property name="kdenlive:file_hash">4656a2c84753ea24b77f54a32a1e6e7d</property>
  <property name="kdenlive:proxy">/home/nicolas/.cache/kdenlive/proxy/4656a2c84753ea24b77f54a32a1e6e7d.mpg</property>
  <property name="proxy_out">761</property>
  <property name="kdenlive:originalurl">3DSC_0166.MOV</property>
  <property name="global_feed">1</property>
  <property name="kdenlive:meta.media.nb_streams">2</property>
  <property name="kdenlive:meta.media.0.stream.type">video</property>
  <property name="kdenlive:meta.media.0.stream.frame_rate">25</property>
  <property name="kdenlive:meta.media.0.stream.sample_aspect_ratio">0</property>
  <property name="kdenlive:meta.media.0.codec.width">1280</property>
  <property name="kdenlive:meta.media.0.codec.height">720</property>
  <property name="kdenlive:meta.media.0.codec.rotate">0</property>
  <property name="kdenlive:meta.media.0.codec.frame_rate">25</property>
  <property name="kdenlive:meta.media.0.codec.pix_fmt">yuvj420p</property>
  <property name="kdenlive:meta.media.0.codec.sample_aspect_ratio">1</property>
  <property name="kdenlive:meta.media.0.codec.colorspace">601</property>
  <property name="kdenlive:meta.media.0.codec.color_trc">4</property>
  <property name="kdenlive:meta.media.0.codec.name">h264</property>
  <property name="kdenlive:meta.media.0.codec.long_name">H.264 / AVC / MPEG-4 AVC / MPEG-4 part 10</property>
  <property name="kdenlive:meta.media.0.codec.bit_rate">10612673</property>
  <property name="kdenlive:meta.attr.0.stream.creation_time.markup">2017-08-20T18:56:15.000000Z</property>
  <property name="kdenlive:meta.attr.0.stream.language.markup">eng</property>
  <property name="kdenlive:meta.media.1.stream.type">audio</property>
  <property name="kdenlive:meta.media.1.codec.sample_fmt">s16</property>
  <property name="kdenlive:meta.media.1.codec.sample_rate">24000</property>
  <property name="kdenlive:meta.media.1.codec.channels">1</property>
  <property name="kdenlive:meta.media.1.codec.name">pcm_s16le</property>
  <property name="kdenlive:meta.media.1.codec.long_name">PCM signed 16-bit little-endian</property>
  <property name="kdenlive:meta.media.1.codec.bit_rate">384000</property>
  <property name="kdenlive:meta.attr.1.stream.creation_time.markup">2017-08-20T18:56:15.000000Z</property>
  <property name="kdenlive:meta.attr.1.stream.language.markup">eng</property>
  <property name="kdenlive:meta.attr.major_brand.markup">qt  </property>
  <property name="kdenlive:meta.attr.minor_version.markup">537331968</property>
  <property name="kdenlive:meta.attr.compatible_brands.markup">qt  niko</property>
  <property name="kdenlive:meta.attr.creation_time.markup">2017-08-20T18:56:15.000000Z</property>
  <property name="kdenlive:meta.media.sample_aspect_num">1</property>
  <property name="kdenlive:meta.media.sample_aspect_den">1</property>
  <property name="kdenlive:meta.media.frame_rate_num">25</property>
  <property name="kdenlive:meta.media.frame_rate_den">1</property>
  <property name="kdenlive:meta.media.colorspace">601</property>
  <property name="kdenlive:meta.media.color_trc">4</property>
  <property name="kdenlive:meta.media.width">1280</property>
  <property name="kdenlive:meta.media.height">720</property>
  <property name="kdenlive:meta.media.top_field_first">0</property>
  <property name="kdenlive:meta.media.progressive">1</property>
 </producer>
 <producer id="49" title="Anonymous Submission" out="1193" in="0">
  <property name="length">00:00:47:19</property>
  <property name="eof">pause</property>
  <property name="resource">/home/nicolas/.cache/kdenlive/proxy/5cfb15f7255ff498de11ddcb41f6fd82.mpg</property>
  <property name="meta.media.nb_streams">2</property>
  <property name="meta.media.0.stream.type">video</property>
  <property name="meta.media.0.stream.frame_rate">25</property>
  <property name="meta.media.0.stream.sample_aspect_ratio">0</property>
  <property name="meta.media.0.codec.width">640</property>
  <property name="meta.media.0.codec.height">360</property>
  <property name="meta.media.0.codec.rotate">0</property>
  <property name="meta.media.0.codec.frame_rate">25</property>
  <property name="meta.media.0.codec.pix_fmt">yuv420p</property>
  <property name="meta.media.0.codec.sample_aspect_ratio">1</property>
  <property name="meta.media.0.codec.colorspace">601</property>
  <property name="meta.media.0.codec.name">mpeg2video</property>
  <property name="meta.media.0.codec.long_name">MPEG-2 video</property>
  <property name="meta.media.0.codec.bit_rate">0</property>
  <property name="meta.media.1.stream.type">audio</property>
  <property name="meta.media.1.codec.sample_fmt">s16p</property>
  <property name="meta.media.1.codec.sample_rate">24000</property>
  <property name="meta.media.1.codec.channels">1</property>
  <property name="meta.media.1.codec.name">mp2</property>
  <property name="meta.media.1.codec.long_name">MP2 (MPEG audio layer 2)</property>
  <property name="meta.media.1.codec.bit_rate">128000</property>
  <property name="seekable">1</property>
  <property name="meta.media.sample_aspect_num">1</property>
  <property name="meta.media.sample_aspect_den">1</property>
  <property name="aspect_ratio">1</property>
  <property name="audio_index">1</property>
  <property name="video_index">0</property>
  <property name="mute_on_pause">1</property>
  <property name="mlt_service">avformat</property>
  <property name="meta.media.0.codec.color_trc">4</property>
  <property name="meta.attr.0.stream.creation_time.markup">2017-08-20T18:06:45.000000Z</property>
  <property name="meta.attr.0.stream.language.markup">eng</property>
  <property name="meta.attr.1.stream.creation_time.markup">2017-08-20T18:06:45.000000Z</property>
  <property name="meta.attr.1.stream.language.markup">eng</property>
  <property name="meta.attr.major_brand.markup">qt  </property>
  <property name="meta.attr.minor_version.markup">537331968</property>
  <property name="meta.attr.compatible_brands.markup">qt  niko</property>
  <property name="meta.attr.creation_time.markup">2017-08-20T18:06:45.000000Z</property>
  <property name="meta.media.frame_rate_num">25</property>
  <property name="meta.media.frame_rate_den">1</property>
  <property name="meta.media.colorspace">601</property>
  <property name="meta.media.color_trc">2</property>
  <property name="meta.media.width">640</property>
  <property name="meta.media.height">360</property>
  <property name="meta.media.top_field_first">0</property>
  <property name="meta.media.progressive">1</property>
  <property name="kdenlive:file_size">66909247</property>
  <property name="kdenlive:file_hash">5cfb15f7255ff498de11ddcb41f6fd82</property>
  <property name="kdenlive:proxy">/home/nicolas/.cache/kdenlive/proxy/5cfb15f7255ff498de11ddcb41f6fd82.mpg</property>
  <property name="proxy_out">1193</property>
  <property name="kdenlive:originalurl">3DSC_0154.MOV</property>
  <property name="global_feed">1</property>
  <property name="kdenlive:meta.media.nb_streams">2</property>
  <property name="kdenlive:meta.media.0.stream.type">video</property>
  <property name="kdenlive:meta.media.0.stream.frame_rate">25</property>
  <property name="kdenlive:meta.media.0.stream.sample_aspect_ratio">0</property>
  <property name="kdenlive:meta.media.0.codec.width">1280</property>
  <property name="kdenlive:meta.media.0.codec.height">720</property>
  <property name="kdenlive:meta.media.0.codec.rotate">0</property>
  <property name="kdenlive:meta.media.0.codec.frame_rate">25</property>
  <property name="kdenlive:meta.media.0.codec.pix_fmt">yuvj420p</property>
  <property name="kdenlive:meta.media.0.codec.sample_aspect_ratio">1</property>
  <property name="kdenlive:meta.media.0.codec.colorspace">601</property>
  <property name="kdenlive:meta.media.0.codec.color_trc">4</property>
  <property name="kdenlive:meta.media.0.codec.name">h264</property>
  <property name="kdenlive:meta.media.0.codec.long_name">H.264 / AVC / MPEG-4 AVC / MPEG-4 part 10</property>
  <property name="kdenlive:meta.media.0.codec.bit_rate">10802574</property>
  <property name="kdenlive:meta.attr.0.stream.creation_time.markup">2017-08-20T18:06:45.000000Z</property>
  <property name="kdenlive:meta.attr.0.stream.language.markup">eng</property>
  <property name="kdenlive:meta.media.1.stream.type">audio</property>
  <property name="kdenlive:meta.media.1.codec.sample_fmt">s16</property>
  <property name="kdenlive:meta.media.1.codec.sample_rate">24000</property>
  <property name="kdenlive:meta.media.1.codec.channels">1</property>
  <property name="kdenlive:meta.media.1.codec.name">pcm_s16le</property>
  <property name="kdenlive:meta.media.1.codec.long_name">PCM signed 16-bit little-endian</property>
  <property name="kdenlive:meta.media.1.codec.bit_rate">384000</property>
  <property name="kdenlive:meta.attr.1.stream.creation_time.markup">2017-08-20T18:06:45.000000Z</property>
  <property name="kdenlive:meta.attr.1.stream.language.markup">eng</property>
  <property name="kdenlive:meta.attr.major_brand.markup">qt  </property>
  <property name="kdenlive:meta.attr.minor_version.markup">537331968</property>
  <property name="kdenlive:meta.attr.compatible_brands.markup">qt  niko</property>
  <property name="kdenlive:meta.attr.creation_time.markup">2017-08-20T18:06:45.000000Z</property>
  <property name="kdenlive:meta.media.sample_aspect_num">1</property>
  <property name="kdenlive:meta.media.sample_aspect_den">1</property>
  <property name="kdenlive:meta.media.frame_rate_num">25</property>
  <property name="kdenlive:meta.media.frame_rate_den">1</property>
  <property name="kdenlive:meta.media.colorspace">601</property>
  <property name="kdenlive:meta.media.color_trc">4</property>
  <property name="kdenlive:meta.media.width">1280</property>
  <property name="kdenlive:meta.media.height">720</property>
  <property name="kdenlive:meta.media.top_field_first">0</property>
  <property name="kdenlive:meta.media.progressive">1</property>
 </producer>
 <producer id="50" out="168" in="0">
  <property name="length">169</property>
  <property name="eof">pause</property>
  <property name="resource">panneaux/portons chacun une rose.png</property>
  <property name="ttl">25</property>
  <property name="aspect_ratio">1</property>
  <property name="progressive">1</property>
  <property name="seekable">1</property>
  <property name="loop">1</property>
  <property name="meta.media.width">1280</property>
  <property name="meta.media.height">720</property>
  <property name="mlt_service">pixbuf</property>
  <property name="kdenlive:folderid">1</property>
  <property name="kdenlive:duration">125</property>
  <property name="kdenlive:file_size">611750</property>
  <property name="kdenlive:file_hash">e5e7161f83e62bb73516264e74170283</property>
 </producer>
 <producer id="51" out="124" in="0">
  <property name="length">125</property>
  <property name="eof">pause</property>
  <property name="resource">panneaux/voyons nous demain.png</property>
  <property name="ttl">25</property>
  <property name="aspect_ratio">1</property>
  <property name="progressive">1</property>
  <property name="seekable">1</property>
  <property name="loop">1</property>
  <property name="meta.media.width">1280</property>
  <property name="meta.media.height">720</property>
  <property name="mlt_service">pixbuf</property>
  <property name="kdenlive:folderid">1</property>
  <property name="kdenlive:duration">125</property>
  <property name="kdenlive:file_size">603347</property>
  <property name="kdenlive:file_hash">29d13f63cb3cb5af0551385a94d8cdc1</property>
 </producer>
 <producer id="53" title="Anonymous Submission" out="156" in="0">
  <property name="length">157</property>
  <property name="eof">pause</property>
  <property name="resource">panneaux/jai trop attendu.png</property>
  <property name="ttl">25</property>
  <property name="aspect_ratio">1</property>
  <property name="progressive">1</property>
  <property name="seekable">1</property>
  <property name="loop">1</property>
  <property name="meta.media.width">1280</property>
  <property name="meta.media.height">720</property>
  <property name="mlt_service">pixbuf</property>
  <property name="kdenlive:folderid">1</property>
  <property name="kdenlive:duration">125</property>
  <property name="kdenlive:file_size">618346</property>
  <property name="kdenlive:file_hash">fa4795696a78e032ca959d913f1eb4aa</property>
  <property name="global_feed">1</property>
 </producer>
 <producer id="54" title="Anonymous Submission" out="1886" in="0">
  <property name="length">00:01:15:12</property>
  <property name="eof">pause</property>
  <property name="resource">/home/nicolas/.cache/kdenlive/proxy/830dc619dcc1658d5bd42e034f6e4fb7.mpg</property>
  <property name="meta.media.nb_streams">2</property>
  <property name="meta.media.0.stream.type">video</property>
  <property name="meta.media.0.stream.frame_rate">25</property>
  <property name="meta.media.0.stream.sample_aspect_ratio">0</property>
  <property name="meta.media.0.codec.width">640</property>
  <property name="meta.media.0.codec.height">360</property>
  <property name="meta.media.0.codec.rotate">0</property>
  <property name="meta.media.0.codec.frame_rate">25</property>
  <property name="meta.media.0.codec.pix_fmt">yuv420p</property>
  <property name="meta.media.0.codec.sample_aspect_ratio">1</property>
  <property name="meta.media.0.codec.colorspace">601</property>
  <property name="meta.media.0.codec.name">mpeg2video</property>
  <property name="meta.media.0.codec.long_name">MPEG-2 video</property>
  <property name="meta.media.0.codec.bit_rate">0</property>
  <property name="meta.media.1.stream.type">audio</property>
  <property name="meta.media.1.codec.sample_fmt">s16p</property>
  <property name="meta.media.1.codec.sample_rate">24000</property>
  <property name="meta.media.1.codec.channels">1</property>
  <property name="meta.media.1.codec.name">mp2</property>
  <property name="meta.media.1.codec.long_name">MP2 (MPEG audio layer 2)</property>
  <property name="meta.media.1.codec.bit_rate">128000</property>
  <property name="seekable">1</property>
  <property name="meta.media.sample_aspect_num">1</property>
  <property name="meta.media.sample_aspect_den">1</property>
  <property name="aspect_ratio">1</property>
  <property name="audio_index">1</property>
  <property name="video_index">0</property>
  <property name="mute_on_pause">1</property>
  <property name="mlt_service">avformat</property>
  <property name="meta.media.0.codec.color_trc">4</property>
  <property name="meta.attr.0.stream.creation_time.markup">2017-08-20T09:54:57.000000Z</property>
  <property name="meta.attr.0.stream.language.markup">eng</property>
  <property name="meta.attr.1.stream.creation_time.markup">2017-08-20T09:54:57.000000Z</property>
  <property name="meta.attr.1.stream.language.markup">eng</property>
  <property name="meta.attr.major_brand.markup">qt  </property>
  <property name="meta.attr.minor_version.markup">537331968</property>
  <property name="meta.attr.compatible_brands.markup">qt  niko</property>
  <property name="meta.attr.creation_time.markup">2017-08-20T09:54:57.000000Z</property>
  <property name="meta.media.frame_rate_num">25</property>
  <property name="meta.media.frame_rate_den">1</property>
  <property name="meta.media.colorspace">601</property>
  <property name="meta.media.color_trc">2</property>
  <property name="meta.media.width">640</property>
  <property name="meta.media.height">360</property>
  <property name="meta.media.top_field_first">0</property>
  <property name="meta.media.progressive">1</property>
  <property name="kdenlive:file_size">101489570</property>
  <property name="kdenlive:file_hash">830dc619dcc1658d5bd42e034f6e4fb7</property>
  <property name="kdenlive:proxy">/home/nicolas/.cache/kdenlive/proxy/830dc619dcc1658d5bd42e034f6e4fb7.mpg</property>
  <property name="proxy_out">1886</property>
  <property name="kdenlive:originalurl">3DSC_0015.MOV</property>
  <property name="global_feed">1</property>
  <property name="kdenlive:meta.media.nb_streams">2</property>
  <property name="kdenlive:meta.media.0.stream.type">video</property>
  <property name="kdenlive:meta.media.0.stream.frame_rate">25</property>
  <property name="kdenlive:meta.media.0.stream.sample_aspect_ratio">0</property>
  <property name="kdenlive:meta.media.0.codec.width">1280</property>
  <property name="kdenlive:meta.media.0.codec.height">720</property>
  <property name="kdenlive:meta.media.0.codec.rotate">0</property>
  <property name="kdenlive:meta.media.0.codec.frame_rate">25</property>
  <property name="kdenlive:meta.media.0.codec.pix_fmt">yuvj420p</property>
  <property name="kdenlive:meta.media.0.codec.sample_aspect_ratio">1</property>
  <property name="kdenlive:meta.media.0.codec.colorspace">601</property>
  <property name="kdenlive:meta.media.0.codec.color_trc">4</property>
  <property name="kdenlive:meta.media.0.codec.name">h264</property>
  <property name="kdenlive:meta.media.0.codec.long_name">H.264 / AVC / MPEG-4 AVC / MPEG-4 part 10</property>
  <property name="kdenlive:meta.media.0.codec.bit_rate">10358614</property>
  <property name="kdenlive:meta.attr.0.stream.creation_time.markup">2017-08-20T09:54:57.000000Z</property>
  <property name="kdenlive:meta.attr.0.stream.language.markup">eng</property>
  <property name="kdenlive:meta.media.1.stream.type">audio</property>
  <property name="kdenlive:meta.media.1.codec.sample_fmt">s16</property>
  <property name="kdenlive:meta.media.1.codec.sample_rate">24000</property>
  <property name="kdenlive:meta.media.1.codec.channels">1</property>
  <property name="kdenlive:meta.media.1.codec.name">pcm_s16le</property>
  <property name="kdenlive:meta.media.1.codec.long_name">PCM signed 16-bit little-endian</property>
  <property name="kdenlive:meta.media.1.codec.bit_rate">384000</property>
  <property name="kdenlive:meta.attr.1.stream.creation_time.markup">2017-08-20T09:54:57.000000Z</property>
  <property name="kdenlive:meta.attr.1.stream.language.markup">eng</property>
  <property name="kdenlive:meta.attr.major_brand.markup">qt  </property>
  <property name="kdenlive:meta.attr.minor_version.markup">537331968</property>
  <property name="kdenlive:meta.attr.compatible_brands.markup">qt  niko</property>
  <property name="kdenlive:meta.attr.creation_time.markup">2017-08-20T09:54:57.000000Z</property>
  <property name="kdenlive:meta.media.sample_aspect_num">1</property>
  <property name="kdenlive:meta.media.sample_aspect_den">1</property>
  <property name="kdenlive:meta.media.frame_rate_num">25</property>
  <property name="kdenlive:meta.media.frame_rate_den">1</property>
  <property name="kdenlive:meta.media.colorspace">601</property>
  <property name="kdenlive:meta.media.color_trc">4</property>
  <property name="kdenlive:meta.media.width">1280</property>
  <property name="kdenlive:meta.media.height">720</property>
  <property name="kdenlive:meta.media.top_field_first">0</property>
  <property name="kdenlive:meta.media.progressive">1</property>
 </producer>
 <producer id="55" title="Anonymous Submission" out="272" in="0">
  <property name="length">00:00:10:23</property>
  <property name="eof">pause</property>
  <property name="resource">/home/nicolas/.cache/kdenlive/proxy/283927e3dbf8ed8a8dc20611a087ef2c.mpg</property>
  <property name="meta.media.nb_streams">2</property>
  <property name="meta.media.0.stream.type">video</property>
  <property name="meta.media.0.stream.frame_rate">25</property>
  <property name="meta.media.0.stream.sample_aspect_ratio">0</property>
  <property name="meta.media.0.codec.width">640</property>
  <property name="meta.media.0.codec.height">360</property>
  <property name="meta.media.0.codec.rotate">0</property>
  <property name="meta.media.0.codec.frame_rate">25</property>
  <property name="meta.media.0.codec.pix_fmt">yuv420p</property>
  <property name="meta.media.0.codec.sample_aspect_ratio">1</property>
  <property name="meta.media.0.codec.colorspace">601</property>
  <property name="meta.media.0.codec.name">mpeg2video</property>
  <property name="meta.media.0.codec.long_name">MPEG-2 video</property>
  <property name="meta.media.0.codec.bit_rate">0</property>
  <property name="meta.media.1.stream.type">audio</property>
  <property name="meta.media.1.codec.sample_fmt">s16p</property>
  <property name="meta.media.1.codec.sample_rate">24000</property>
  <property name="meta.media.1.codec.channels">1</property>
  <property name="meta.media.1.codec.name">mp2</property>
  <property name="meta.media.1.codec.long_name">MP2 (MPEG audio layer 2)</property>
  <property name="meta.media.1.codec.bit_rate">128000</property>
  <property name="seekable">1</property>
  <property name="meta.media.sample_aspect_num">1</property>
  <property name="meta.media.sample_aspect_den">1</property>
  <property name="aspect_ratio">1</property>
  <property name="audio_index">1</property>
  <property name="video_index">0</property>
  <property name="mute_on_pause">1</property>
  <property name="mlt_service">avformat</property>
  <property name="meta.media.0.codec.color_trc">4</property>
  <property name="meta.attr.0.stream.creation_time.markup">2017-08-20T10:00:56.000000Z</property>
  <property name="meta.attr.0.stream.language.markup">eng</property>
  <property name="meta.attr.1.stream.creation_time.markup">2017-08-20T10:00:56.000000Z</property>
  <property name="meta.attr.1.stream.language.markup">eng</property>
  <property name="meta.attr.major_brand.markup">qt  </property>
  <property name="meta.attr.minor_version.markup">537331968</property>
  <property name="meta.attr.compatible_brands.markup">qt  niko</property>
  <property name="meta.attr.creation_time.markup">2017-08-20T10:00:56.000000Z</property>
  <property name="meta.media.frame_rate_num">25</property>
  <property name="meta.media.frame_rate_den">1</property>
  <property name="meta.media.colorspace">601</property>
  <property name="meta.media.color_trc">2</property>
  <property name="meta.media.width">640</property>
  <property name="meta.media.height">360</property>
  <property name="meta.media.top_field_first">0</property>
  <property name="meta.media.progressive">1</property>
  <property name="kdenlive:file_size">14950482</property>
  <property name="kdenlive:file_hash">283927e3dbf8ed8a8dc20611a087ef2c</property>
  <property name="kdenlive:proxy">/home/nicolas/.cache/kdenlive/proxy/283927e3dbf8ed8a8dc20611a087ef2c.mpg</property>
  <property name="proxy_out">272</property>
  <property name="kdenlive:originalurl">3DSC_0018.MOV</property>
  <property name="global_feed">1</property>
  <property name="kdenlive:meta.media.nb_streams">2</property>
  <property name="kdenlive:meta.media.0.stream.type">video</property>
  <property name="kdenlive:meta.media.0.stream.frame_rate">25</property>
  <property name="kdenlive:meta.media.0.stream.sample_aspect_ratio">0</property>
  <property name="kdenlive:meta.media.0.codec.width">1280</property>
  <property name="kdenlive:meta.media.0.codec.height">720</property>
  <property name="kdenlive:meta.media.0.codec.rotate">0</property>
  <property name="kdenlive:meta.media.0.codec.frame_rate">25</property>
  <property name="kdenlive:meta.media.0.codec.pix_fmt">yuvj420p</property>
  <property name="kdenlive:meta.media.0.codec.sample_aspect_ratio">1</property>
  <property name="kdenlive:meta.media.0.codec.colorspace">601</property>
  <property name="kdenlive:meta.media.0.codec.color_trc">4</property>
  <property name="kdenlive:meta.media.0.codec.name">h264</property>
  <property name="kdenlive:meta.media.0.codec.long_name">H.264 / AVC / MPEG-4 AVC / MPEG-4 part 10</property>
  <property name="kdenlive:meta.media.0.codec.bit_rate">10488054</property>
  <property name="kdenlive:meta.attr.0.stream.creation_time.markup">2017-08-20T10:00:56.000000Z</property>
  <property name="kdenlive:meta.attr.0.stream.language.markup">eng</property>
  <property name="kdenlive:meta.media.1.stream.type">audio</property>
  <property name="kdenlive:meta.media.1.codec.sample_fmt">s16</property>
  <property name="kdenlive:meta.media.1.codec.sample_rate">24000</property>
  <property name="kdenlive:meta.media.1.codec.channels">1</property>
  <property name="kdenlive:meta.media.1.codec.name">pcm_s16le</property>
  <property name="kdenlive:meta.media.1.codec.long_name">PCM signed 16-bit little-endian</property>
  <property name="kdenlive:meta.media.1.codec.bit_rate">384000</property>
  <property name="kdenlive:meta.attr.1.stream.creation_time.markup">2017-08-20T10:00:56.000000Z</property>
  <property name="kdenlive:meta.attr.1.stream.language.markup">eng</property>
  <property name="kdenlive:meta.attr.major_brand.markup">qt  </property>
  <property name="kdenlive:meta.attr.minor_version.markup">537331968</property>
  <property name="kdenlive:meta.attr.compatible_brands.markup">qt  niko</property>
  <property name="kdenlive:meta.attr.creation_time.markup">2017-08-20T10:00:56.000000Z</property>
  <property name="kdenlive:meta.media.sample_aspect_num">1</property>
  <property name="kdenlive:meta.media.sample_aspect_den">1</property>
  <property name="kdenlive:meta.media.frame_rate_num">25</property>
  <property name="kdenlive:meta.media.frame_rate_den">1</property>
  <property name="kdenlive:meta.media.colorspace">601</property>
  <property name="kdenlive:meta.media.color_trc">4</property>
  <property name="kdenlive:meta.media.width">1280</property>
  <property name="kdenlive:meta.media.height">720</property>
  <property name="kdenlive:meta.media.top_field_first">0</property>
  <property name="kdenlive:meta.media.progressive">1</property>
 </producer>
 <producer id="56" title="Anonymous Submission" out="671" in="0">
  <property name="length">00:00:26:22</property>
  <property name="eof">pause</property>
  <property name="resource">/home/nicolas/.cache/kdenlive/proxy/28521f1ff9ecd3c0a4d655ebd82b05d3.mpg</property>
  <property name="meta.media.nb_streams">2</property>
  <property name="meta.media.0.stream.type">video</property>
  <property name="meta.media.0.stream.frame_rate">25</property>
  <property name="meta.media.0.stream.sample_aspect_ratio">0</property>
  <property name="meta.media.0.codec.width">640</property>
  <property name="meta.media.0.codec.height">360</property>
  <property name="meta.media.0.codec.rotate">0</property>
  <property name="meta.media.0.codec.frame_rate">25</property>
  <property name="meta.media.0.codec.pix_fmt">yuv420p</property>
  <property name="meta.media.0.codec.sample_aspect_ratio">1</property>
  <property name="meta.media.0.codec.colorspace">601</property>
  <property name="meta.media.0.codec.name">mpeg2video</property>
  <property name="meta.media.0.codec.long_name">MPEG-2 video</property>
  <property name="meta.media.0.codec.bit_rate">0</property>
  <property name="meta.media.1.stream.type">audio</property>
  <property name="meta.media.1.codec.sample_fmt">s16p</property>
  <property name="meta.media.1.codec.sample_rate">24000</property>
  <property name="meta.media.1.codec.channels">1</property>
  <property name="meta.media.1.codec.name">mp2</property>
  <property name="meta.media.1.codec.long_name">MP2 (MPEG audio layer 2)</property>
  <property name="meta.media.1.codec.bit_rate">128000</property>
  <property name="seekable">1</property>
  <property name="meta.media.sample_aspect_num">1</property>
  <property name="meta.media.sample_aspect_den">1</property>
  <property name="aspect_ratio">1</property>
  <property name="audio_index">1</property>
  <property name="video_index">0</property>
  <property name="mute_on_pause">1</property>
  <property name="mlt_service">avformat</property>
  <property name="meta.media.0.codec.color_trc">4</property>
  <property name="meta.attr.0.stream.creation_time.markup">2017-08-20T10:06:34.000000Z</property>
  <property name="meta.attr.0.stream.language.markup">eng</property>
  <property name="meta.attr.1.stream.creation_time.markup">2017-08-20T10:06:34.000000Z</property>
  <property name="meta.attr.1.stream.language.markup">eng</property>
  <property name="meta.attr.major_brand.markup">qt  </property>
  <property name="meta.attr.minor_version.markup">537331968</property>
  <property name="meta.attr.compatible_brands.markup">qt  niko</property>
  <property name="meta.attr.creation_time.markup">2017-08-20T10:06:34.000000Z</property>
  <property name="meta.media.frame_rate_num">25</property>
  <property name="meta.media.frame_rate_den">1</property>
  <property name="meta.media.colorspace">601</property>
  <property name="meta.media.color_trc">2</property>
  <property name="meta.media.width">640</property>
  <property name="meta.media.height">360</property>
  <property name="meta.media.top_field_first">0</property>
  <property name="meta.media.progressive">1</property>
  <property name="kdenlive:file_size">36787815</property>
  <property name="kdenlive:file_hash">28521f1ff9ecd3c0a4d655ebd82b05d3</property>
  <property name="kdenlive:proxy">/home/nicolas/.cache/kdenlive/proxy/28521f1ff9ecd3c0a4d655ebd82b05d3.mpg</property>
  <property name="proxy_out">671</property>
  <property name="kdenlive:originalurl">3DSC_0020.MOV</property>
  <property name="global_feed">1</property>
  <property name="kdenlive:meta.media.nb_streams">2</property>
  <property name="kdenlive:meta.media.0.stream.type">video</property>
  <property name="kdenlive:meta.media.0.stream.frame_rate">25</property>
  <property name="kdenlive:meta.media.0.stream.sample_aspect_ratio">0</property>
  <property name="kdenlive:meta.media.0.codec.width">1280</property>
  <property name="kdenlive:meta.media.0.codec.height">720</property>
  <property name="kdenlive:meta.media.0.codec.rotate">0</property>
  <property name="kdenlive:meta.media.0.codec.frame_rate">25</property>
  <property name="kdenlive:meta.media.0.codec.pix_fmt">yuvj420p</property>
  <property name="kdenlive:meta.media.0.codec.sample_aspect_ratio">1</property>
  <property name="kdenlive:meta.media.0.codec.colorspace">601</property>
  <property name="kdenlive:meta.media.0.codec.color_trc">4</property>
  <property name="kdenlive:meta.media.0.codec.name">h264</property>
  <property name="kdenlive:meta.media.0.codec.long_name">H.264 / AVC / MPEG-4 AVC / MPEG-4 part 10</property>
  <property name="kdenlive:meta.media.0.codec.bit_rate">10528536</property>
  <property name="kdenlive:meta.attr.0.stream.creation_time.markup">2017-08-20T10:06:34.000000Z</property>
  <property name="kdenlive:meta.attr.0.stream.language.markup">eng</property>
  <property name="kdenlive:meta.media.1.stream.type">audio</property>
  <property name="kdenlive:meta.media.1.codec.sample_fmt">s16</property>
  <property name="kdenlive:meta.media.1.codec.sample_rate">24000</property>
  <property name="kdenlive:meta.media.1.codec.channels">1</property>
  <property name="kdenlive:meta.media.1.codec.name">pcm_s16le</property>
  <property name="kdenlive:meta.media.1.codec.long_name">PCM signed 16-bit little-endian</property>
  <property name="kdenlive:meta.media.1.codec.bit_rate">384000</property>
  <property name="kdenlive:meta.attr.1.stream.creation_time.markup">2017-08-20T10:06:34.000000Z</property>
  <property name="kdenlive:meta.attr.1.stream.language.markup">eng</property>
  <property name="kdenlive:meta.attr.major_brand.markup">qt  </property>
  <property name="kdenlive:meta.attr.minor_version.markup">537331968</property>
  <property name="kdenlive:meta.attr.compatible_brands.markup">qt  niko</property>
  <property name="kdenlive:meta.attr.creation_time.markup">2017-08-20T10:06:34.000000Z</property>
  <property name="kdenlive:meta.media.sample_aspect_num">1</property>
  <property name="kdenlive:meta.media.sample_aspect_den">1</property>
  <property name="kdenlive:meta.media.frame_rate_num">25</property>
  <property name="kdenlive:meta.media.frame_rate_den">1</property>
  <property name="kdenlive:meta.media.colorspace">601</property>
  <property name="kdenlive:meta.media.color_trc">4</property>
  <property name="kdenlive:meta.media.width">1280</property>
  <property name="kdenlive:meta.media.height">720</property>
  <property name="kdenlive:meta.media.top_field_first">0</property>
  <property name="kdenlive:meta.media.progressive">1</property>
 </producer>
 <producer id="57" title="Anonymous Submission" out="3680" in="0">
  <property name="length">00:02:27:06</property>
  <property name="eof">pause</property>
  <property name="resource">/home/nicolas/.cache/kdenlive/proxy/e13e871a8c4fbd3b09785f0cca07c91e.mpg</property>
  <property name="meta.media.nb_streams">2</property>
  <property name="meta.media.0.stream.type">video</property>
  <property name="meta.media.0.stream.frame_rate">25</property>
  <property name="meta.media.0.stream.sample_aspect_ratio">0</property>
  <property name="meta.media.0.codec.width">640</property>
  <property name="meta.media.0.codec.height">360</property>
  <property name="meta.media.0.codec.rotate">0</property>
  <property name="meta.media.0.codec.frame_rate">25</property>
  <property name="meta.media.0.codec.pix_fmt">yuv420p</property>
  <property name="meta.media.0.codec.sample_aspect_ratio">1</property>
  <property name="meta.media.0.codec.colorspace">601</property>
  <property name="meta.media.0.codec.name">mpeg2video</property>
  <property name="meta.media.0.codec.long_name">MPEG-2 video</property>
  <property name="meta.media.0.codec.bit_rate">0</property>
  <property name="meta.media.1.stream.type">audio</property>
  <property name="meta.media.1.codec.sample_fmt">s16p</property>
  <property name="meta.media.1.codec.sample_rate">24000</property>
  <property name="meta.media.1.codec.channels">1</property>
  <property name="meta.media.1.codec.name">mp2</property>
  <property name="meta.media.1.codec.long_name">MP2 (MPEG audio layer 2)</property>
  <property name="meta.media.1.codec.bit_rate">128000</property>
  <property name="seekable">1</property>
  <property name="meta.media.sample_aspect_num">1</property>
  <property name="meta.media.sample_aspect_den">1</property>
  <property name="aspect_ratio">1</property>
  <property name="audio_index">1</property>
  <property name="video_index">0</property>
  <property name="mute_on_pause">1</property>
  <property name="mlt_service">avformat</property>
  <property name="meta.media.0.codec.color_trc">4</property>
  <property name="meta.attr.0.stream.creation_time.markup">2017-08-20T10:09:02.000000Z</property>
  <property name="meta.attr.0.stream.language.markup">eng</property>
  <property name="meta.attr.1.stream.creation_time.markup">2017-08-20T10:09:02.000000Z</property>
  <property name="meta.attr.1.stream.language.markup">eng</property>
  <property name="meta.attr.major_brand.markup">qt  </property>
  <property name="meta.attr.minor_version.markup">537331968</property>
  <property name="meta.attr.compatible_brands.markup">qt  niko</property>
  <property name="meta.attr.creation_time.markup">2017-08-20T10:09:02.000000Z</property>
  <property name="meta.media.frame_rate_num">25</property>
  <property name="meta.media.frame_rate_den">1</property>
  <property name="meta.media.colorspace">601</property>
  <property name="meta.media.color_trc">2</property>
  <property name="meta.media.width">640</property>
  <property name="meta.media.height">360</property>
  <property name="meta.media.top_field_first">0</property>
  <property name="meta.media.progressive">1</property>
  <property name="kdenlive:file_size">199673550</property>
  <property name="kdenlive:file_hash">e13e871a8c4fbd3b09785f0cca07c91e</property>
  <property name="kdenlive:proxy">/home/nicolas/.cache/kdenlive/proxy/e13e871a8c4fbd3b09785f0cca07c91e.mpg</property>
  <property name="proxy_out">3680</property>
  <property name="kdenlive:originalurl">3DSC_0021.MOV</property>
  <property name="global_feed">1</property>
  <property name="kdenlive:meta.media.nb_streams">2</property>
  <property name="kdenlive:meta.media.0.stream.type">video</property>
  <property name="kdenlive:meta.media.0.stream.frame_rate">25</property>
  <property name="kdenlive:meta.media.0.stream.sample_aspect_ratio">0</property>
  <property name="kdenlive:meta.media.0.codec.width">1280</property>
  <property name="kdenlive:meta.media.0.codec.height">720</property>
  <property name="kdenlive:meta.media.0.codec.rotate">0</property>
  <property name="kdenlive:meta.media.0.codec.frame_rate">25</property>
  <property name="kdenlive:meta.media.0.codec.pix_fmt">yuvj420p</property>
  <property name="kdenlive:meta.media.0.codec.sample_aspect_ratio">1</property>
  <property name="kdenlive:meta.media.0.codec.colorspace">601</property>
  <property name="kdenlive:meta.media.0.codec.color_trc">4</property>
  <property name="kdenlive:meta.media.0.codec.name">h264</property>
  <property name="kdenlive:meta.media.0.codec.long_name">H.264 / AVC / MPEG-4 AVC / MPEG-4 part 10</property>
  <property name="kdenlive:meta.media.0.codec.bit_rate">10456569</property>
  <property name="kdenlive:meta.attr.0.stream.creation_time.markup">2017-08-20T10:09:02.000000Z</property>
  <property name="kdenlive:meta.attr.0.stream.language.markup">eng</property>
  <property name="kdenlive:meta.media.1.stream.type">audio</property>
  <property name="kdenlive:meta.media.1.codec.sample_fmt">s16</property>
  <property name="kdenlive:meta.media.1.codec.sample_rate">24000</property>
  <property name="kdenlive:meta.media.1.codec.channels">1</property>
  <property name="kdenlive:meta.media.1.codec.name">pcm_s16le</property>
  <property name="kdenlive:meta.media.1.codec.long_name">PCM signed 16-bit little-endian</property>
  <property name="kdenlive:meta.media.1.codec.bit_rate">384000</property>
  <property name="kdenlive:meta.attr.1.stream.creation_time.markup">2017-08-20T10:09:02.000000Z</property>
  <property name="kdenlive:meta.attr.1.stream.language.markup">eng</property>
  <property name="kdenlive:meta.attr.major_brand.markup">qt  </property>
  <property name="kdenlive:meta.attr.minor_version.markup">537331968</property>
  <property name="kdenlive:meta.attr.compatible_brands.markup">qt  niko</property>
  <property name="kdenlive:meta.attr.creation_time.markup">2017-08-20T10:09:02.000000Z</property>
  <property name="kdenlive:meta.media.sample_aspect_num">1</property>
  <property name="kdenlive:meta.media.sample_aspect_den">1</property>
  <property name="kdenlive:meta.media.frame_rate_num">25</property>
  <property name="kdenlive:meta.media.frame_rate_den">1</property>
  <property name="kdenlive:meta.media.colorspace">601</property>
  <property name="kdenlive:meta.media.color_trc">4</property>
  <property name="kdenlive:meta.media.width">1280</property>
  <property name="kdenlive:meta.media.height">720</property>
  <property name="kdenlive:meta.media.top_field_first">0</property>
  <property name="kdenlive:meta.media.progressive">1</property>
 </producer>
 <producer id="58" title="Anonymous Submission" out="317" in="0">
  <property name="length">00:00:12:18</property>
  <property name="eof">pause</property>
  <property name="resource">/home/nicolas/.cache/kdenlive/proxy/eeb71eb990ad7fb5120c60a6766b8697.mpg</property>
  <property name="meta.media.nb_streams">2</property>
  <property name="meta.media.0.stream.type">video</property>
  <property name="meta.media.0.stream.frame_rate">25</property>
  <property name="meta.media.0.stream.sample_aspect_ratio">0</property>
  <property name="meta.media.0.codec.width">640</property>
  <property name="meta.media.0.codec.height">360</property>
  <property name="meta.media.0.codec.rotate">0</property>
  <property name="meta.media.0.codec.frame_rate">25</property>
  <property name="meta.media.0.codec.pix_fmt">yuv420p</property>
  <property name="meta.media.0.codec.sample_aspect_ratio">1</property>
  <property name="meta.media.0.codec.colorspace">601</property>
  <property name="meta.media.0.codec.name">mpeg2video</property>
  <property name="meta.media.0.codec.long_name">MPEG-2 video</property>
  <property name="meta.media.0.codec.bit_rate">0</property>
  <property name="meta.media.1.stream.type">audio</property>
  <property name="meta.media.1.codec.sample_fmt">s16p</property>
  <property name="meta.media.1.codec.sample_rate">24000</property>
  <property name="meta.media.1.codec.channels">1</property>
  <property name="meta.media.1.codec.name">mp2</property>
  <property name="meta.media.1.codec.long_name">MP2 (MPEG audio layer 2)</property>
  <property name="meta.media.1.codec.bit_rate">128000</property>
  <property name="seekable">1</property>
  <property name="meta.media.sample_aspect_num">1</property>
  <property name="meta.media.sample_aspect_den">1</property>
  <property name="aspect_ratio">1</property>
  <property name="audio_index">1</property>
  <property name="video_index">0</property>
  <property name="mute_on_pause">1</property>
  <property name="mlt_service">avformat</property>
  <property name="meta.media.0.codec.color_trc">4</property>
  <property name="meta.attr.0.stream.creation_time.markup">2017-08-20T10:12:38.000000Z</property>
  <property name="meta.attr.0.stream.language.markup">eng</property>
  <property name="meta.attr.1.stream.creation_time.markup">2017-08-20T10:12:38.000000Z</property>
  <property name="meta.attr.1.stream.language.markup">eng</property>
  <property name="meta.attr.major_brand.markup">qt  </property>
  <property name="meta.attr.minor_version.markup">537331968</property>
  <property name="meta.attr.compatible_brands.markup">qt  niko</property>
  <property name="meta.attr.creation_time.markup">2017-08-20T10:12:38.000000Z</property>
  <property name="meta.media.frame_rate_num">25</property>
  <property name="meta.media.frame_rate_den">1</property>
  <property name="meta.media.colorspace">601</property>
  <property name="meta.media.color_trc">2</property>
  <property name="meta.media.width">640</property>
  <property name="meta.media.height">360</property>
  <property name="meta.media.top_field_first">0</property>
  <property name="meta.media.progressive">1</property>
  <property name="kdenlive:file_size">16805397</property>
  <property name="kdenlive:file_hash">eeb71eb990ad7fb5120c60a6766b8697</property>
  <property name="kdenlive:proxy">/home/nicolas/.cache/kdenlive/proxy/eeb71eb990ad7fb5120c60a6766b8697.mpg</property>
  <property name="proxy_out">317</property>
  <property name="kdenlive:originalurl">3DSC_0022.MOV</property>
  <property name="global_feed">1</property>
  <property name="kdenlive:meta.media.nb_streams">2</property>
  <property name="kdenlive:meta.media.0.stream.type">video</property>
  <property name="kdenlive:meta.media.0.stream.frame_rate">25</property>
  <property name="kdenlive:meta.media.0.stream.sample_aspect_ratio">0</property>
  <property name="kdenlive:meta.media.0.codec.width">1280</property>
  <property name="kdenlive:meta.media.0.codec.height">720</property>
  <property name="kdenlive:meta.media.0.codec.rotate">0</property>
  <property name="kdenlive:meta.media.0.codec.frame_rate">25</property>
  <property name="kdenlive:meta.media.0.codec.pix_fmt">yuvj420p</property>
  <property name="kdenlive:meta.media.0.codec.sample_aspect_ratio">1</property>
  <property name="kdenlive:meta.media.0.codec.colorspace">601</property>
  <property name="kdenlive:meta.media.0.codec.color_trc">4</property>
  <property name="kdenlive:meta.media.0.codec.name">h264</property>
  <property name="kdenlive:meta.media.0.codec.long_name">H.264 / AVC / MPEG-4 AVC / MPEG-4 part 10</property>
  <property name="kdenlive:meta.media.0.codec.bit_rate">10110838</property>
  <property name="kdenlive:meta.attr.0.stream.creation_time.markup">2017-08-20T10:12:38.000000Z</property>
  <property name="kdenlive:meta.attr.0.stream.language.markup">eng</property>
  <property name="kdenlive:meta.media.1.stream.type">audio</property>
  <property name="kdenlive:meta.media.1.codec.sample_fmt">s16</property>
  <property name="kdenlive:meta.media.1.codec.sample_rate">24000</property>
  <property name="kdenlive:meta.media.1.codec.channels">1</property>
  <property name="kdenlive:meta.media.1.codec.name">pcm_s16le</property>
  <property name="kdenlive:meta.media.1.codec.long_name">PCM signed 16-bit little-endian</property>
  <property name="kdenlive:meta.media.1.codec.bit_rate">384000</property>
  <property name="kdenlive:meta.attr.1.stream.creation_time.markup">2017-08-20T10:12:38.000000Z</property>
  <property name="kdenlive:meta.attr.1.stream.language.markup">eng</property>
  <property name="kdenlive:meta.attr.major_brand.markup">qt  </property>
  <property name="kdenlive:meta.attr.minor_version.markup">537331968</property>
  <property name="kdenlive:meta.attr.compatible_brands.markup">qt  niko</property>
  <property name="kdenlive:meta.attr.creation_time.markup">2017-08-20T10:12:38.000000Z</property>
  <property name="kdenlive:meta.media.sample_aspect_num">1</property>
  <property name="kdenlive:meta.media.sample_aspect_den">1</property>
  <property name="kdenlive:meta.media.frame_rate_num">25</property>
  <property name="kdenlive:meta.media.frame_rate_den">1</property>
  <property name="kdenlive:meta.media.colorspace">601</property>
  <property name="kdenlive:meta.media.color_trc">4</property>
  <property name="kdenlive:meta.media.width">1280</property>
  <property name="kdenlive:meta.media.height">720</property>
  <property name="kdenlive:meta.media.top_field_first">0</property>
  <property name="kdenlive:meta.media.progressive">1</property>
 </producer>
 <producer id="59" title="Anonymous Submission" out="428" in="0">
  <property name="length">00:00:17:04</property>
  <property name="eof">pause</property>
  <property name="resource">/home/nicolas/.cache/kdenlive/proxy/cdde12156f6f25c9a8f63c310fa2ad2a.mpg</property>
  <property name="meta.media.nb_streams">2</property>
  <property name="meta.media.0.stream.type">video</property>
  <property name="meta.media.0.stream.frame_rate">25</property>
  <property name="meta.media.0.stream.sample_aspect_ratio">0</property>
  <property name="meta.media.0.codec.width">640</property>
  <property name="meta.media.0.codec.height">360</property>
  <property name="meta.media.0.codec.rotate">0</property>
  <property name="meta.media.0.codec.frame_rate">25</property>
  <property name="meta.media.0.codec.pix_fmt">yuv420p</property>
  <property name="meta.media.0.codec.sample_aspect_ratio">1</property>
  <property name="meta.media.0.codec.colorspace">601</property>
  <property name="meta.media.0.codec.name">mpeg2video</property>
  <property name="meta.media.0.codec.long_name">MPEG-2 video</property>
  <property name="meta.media.0.codec.bit_rate">0</property>
  <property name="meta.media.1.stream.type">audio</property>
  <property name="meta.media.1.codec.sample_fmt">s16p</property>
  <property name="meta.media.1.codec.sample_rate">24000</property>
  <property name="meta.media.1.codec.channels">1</property>
  <property name="meta.media.1.codec.name">mp2</property>
  <property name="meta.media.1.codec.long_name">MP2 (MPEG audio layer 2)</property>
  <property name="meta.media.1.codec.bit_rate">128000</property>
  <property name="seekable">1</property>
  <property name="meta.media.sample_aspect_num">1</property>
  <property name="meta.media.sample_aspect_den">1</property>
  <property name="aspect_ratio">1</property>
  <property name="audio_index">1</property>
  <property name="video_index">0</property>
  <property name="mute_on_pause">1</property>
  <property name="mlt_service">avformat</property>
  <property name="meta.media.0.codec.color_trc">4</property>
  <property name="meta.attr.0.stream.creation_time.markup">2017-08-20T10:13:44.000000Z</property>
  <property name="meta.attr.0.stream.language.markup">eng</property>
  <property name="meta.attr.1.stream.creation_time.markup">2017-08-20T10:13:44.000000Z</property>
  <property name="meta.attr.1.stream.language.markup">eng</property>
  <property name="meta.attr.major_brand.markup">qt  </property>
  <property name="meta.attr.minor_version.markup">537331968</property>
  <property name="meta.attr.compatible_brands.markup">qt  niko</property>
  <property name="meta.attr.creation_time.markup">2017-08-20T10:13:44.000000Z</property>
  <property name="meta.media.frame_rate_num">25</property>
  <property name="meta.media.frame_rate_den">1</property>
  <property name="meta.media.colorspace">601</property>
  <property name="meta.media.color_trc">2</property>
  <property name="meta.media.width">640</property>
  <property name="meta.media.height">360</property>
  <property name="meta.media.top_field_first">0</property>
  <property name="meta.media.progressive">1</property>
  <property name="kdenlive:file_size">23560281</property>
  <property name="kdenlive:file_hash">cdde12156f6f25c9a8f63c310fa2ad2a</property>
  <property name="kdenlive:proxy">/home/nicolas/.cache/kdenlive/proxy/cdde12156f6f25c9a8f63c310fa2ad2a.mpg</property>
  <property name="proxy_out">428</property>
  <property name="kdenlive:originalurl">3DSC_0023.MOV</property>
  <property name="global_feed">1</property>
  <property name="kdenlive:meta.media.nb_streams">2</property>
  <property name="kdenlive:meta.media.0.stream.type">video</property>
  <property name="kdenlive:meta.media.0.stream.frame_rate">25</property>
  <property name="kdenlive:meta.media.0.stream.sample_aspect_ratio">0</property>
  <property name="kdenlive:meta.media.0.codec.width">1280</property>
  <property name="kdenlive:meta.media.0.codec.height">720</property>
  <property name="kdenlive:meta.media.0.codec.rotate">0</property>
  <property name="kdenlive:meta.media.0.codec.frame_rate">25</property>
  <property name="kdenlive:meta.media.0.codec.pix_fmt">yuvj420p</property>
  <property name="kdenlive:meta.media.0.codec.sample_aspect_ratio">1</property>
  <property name="kdenlive:meta.media.0.codec.colorspace">601</property>
  <property name="kdenlive:meta.media.0.codec.color_trc">4</property>
  <property name="kdenlive:meta.media.0.codec.name">h264</property>
  <property name="kdenlive:meta.media.0.codec.long_name">H.264 / AVC / MPEG-4 AVC / MPEG-4 part 10</property>
  <property name="kdenlive:meta.media.0.codec.bit_rate">10544292</property>
  <property name="kdenlive:meta.attr.0.stream.creation_time.markup">2017-08-20T10:13:44.000000Z</property>
  <property name="kdenlive:meta.attr.0.stream.language.markup">eng</property>
  <property name="kdenlive:meta.media.1.stream.type">audio</property>
  <property name="kdenlive:meta.media.1.codec.sample_fmt">s16</property>
  <property name="kdenlive:meta.media.1.codec.sample_rate">24000</property>
  <property name="kdenlive:meta.media.1.codec.channels">1</property>
  <property name="kdenlive:meta.media.1.codec.name">pcm_s16le</property>
  <property name="kdenlive:meta.media.1.codec.long_name">PCM signed 16-bit little-endian</property>
  <property name="kdenlive:meta.media.1.codec.bit_rate">384000</property>
  <property name="kdenlive:meta.attr.1.stream.creation_time.markup">2017-08-20T10:13:44.000000Z</property>
  <property name="kdenlive:meta.attr.1.stream.language.markup">eng</property>
  <property name="kdenlive:meta.attr.major_brand.markup">qt  </property>
  <property name="kdenlive:meta.attr.minor_version.markup">537331968</property>
  <property name="kdenlive:meta.attr.compatible_brands.markup">qt  niko</property>
  <property name="kdenlive:meta.attr.creation_time.markup">2017-08-20T10:13:44.000000Z</property>
  <property name="kdenlive:meta.media.sample_aspect_num">1</property>
  <property name="kdenlive:meta.media.sample_aspect_den">1</property>
  <property name="kdenlive:meta.media.frame_rate_num">25</property>
  <property name="kdenlive:meta.media.frame_rate_den">1</property>
  <property name="kdenlive:meta.media.colorspace">601</property>
  <property name="kdenlive:meta.media.color_trc">4</property>
  <property name="kdenlive:meta.media.width">1280</property>
  <property name="kdenlive:meta.media.height">720</property>
  <property name="kdenlive:meta.media.top_field_first">0</property>
  <property name="kdenlive:meta.media.progressive">1</property>
 </producer>
 <producer id="60" title="Anonymous Submission" out="719" in="0">
  <property name="length">00:00:28:20</property>
  <property name="eof">pause</property>
  <property name="resource">/home/nicolas/.cache/kdenlive/proxy/92b406fed3c23d991e333b8c2f87afe5.mpg</property>
  <property name="meta.media.nb_streams">2</property>
  <property name="meta.media.0.stream.type">video</property>
  <property name="meta.media.0.stream.frame_rate">25</property>
  <property name="meta.media.0.stream.sample_aspect_ratio">0</property>
  <property name="meta.media.0.codec.width">640</property>
  <property name="meta.media.0.codec.height">360</property>
  <property name="meta.media.0.codec.rotate">0</property>
  <property name="meta.media.0.codec.frame_rate">25</property>
  <property name="meta.media.0.codec.pix_fmt">yuv420p</property>
  <property name="meta.media.0.codec.sample_aspect_ratio">1</property>
  <property name="meta.media.0.codec.colorspace">601</property>
  <property name="meta.media.0.codec.name">mpeg2video</property>
  <property name="meta.media.0.codec.long_name">MPEG-2 video</property>
  <property name="meta.media.0.codec.bit_rate">0</property>
  <property name="meta.media.1.stream.type">audio</property>
  <property name="meta.media.1.codec.sample_fmt">s16p</property>
  <property name="meta.media.1.codec.sample_rate">24000</property>
  <property name="meta.media.1.codec.channels">1</property>
  <property name="meta.media.1.codec.name">mp2</property>
  <property name="meta.media.1.codec.long_name">MP2 (MPEG audio layer 2)</property>
  <property name="meta.media.1.codec.bit_rate">128000</property>
  <property name="seekable">1</property>
  <property name="meta.media.sample_aspect_num">1</property>
  <property name="meta.media.sample_aspect_den">1</property>
  <property name="aspect_ratio">1</property>
  <property name="audio_index">1</property>
  <property name="video_index">0</property>
  <property name="mute_on_pause">1</property>
  <property name="mlt_service">avformat</property>
  <property name="meta.media.0.codec.color_trc">4</property>
  <property name="meta.attr.0.stream.creation_time.markup">2017-08-20T10:15:00.000000Z</property>
  <property name="meta.attr.0.stream.language.markup">eng</property>
  <property name="meta.attr.1.stream.creation_time.markup">2017-08-20T10:15:00.000000Z</property>
  <property name="meta.attr.1.stream.language.markup">eng</property>
  <property name="meta.attr.major_brand.markup">qt  </property>
  <property name="meta.attr.minor_version.markup">537331968</property>
  <property name="meta.attr.compatible_brands.markup">qt  niko</property>
  <property name="meta.attr.creation_time.markup">2017-08-20T10:15:00.000000Z</property>
  <property name="meta.media.frame_rate_num">25</property>
  <property name="meta.media.frame_rate_den">1</property>
  <property name="meta.media.colorspace">601</property>
  <property name="meta.media.color_trc">2</property>
  <property name="meta.media.width">640</property>
  <property name="meta.media.height">360</property>
  <property name="meta.media.top_field_first">0</property>
  <property name="meta.media.progressive">1</property>
  <property name="kdenlive:file_size">38687043</property>
  <property name="kdenlive:file_hash">92b406fed3c23d991e333b8c2f87afe5</property>
  <property name="kdenlive:proxy">/home/nicolas/.cache/kdenlive/proxy/92b406fed3c23d991e333b8c2f87afe5.mpg</property>
  <property name="proxy_out">719</property>
  <property name="kdenlive:originalurl">3DSC_0024.MOV</property>
  <property name="global_feed">1</property>
  <property name="kdenlive:meta.media.nb_streams">2</property>
  <property name="kdenlive:meta.media.0.stream.type">video</property>
  <property name="kdenlive:meta.media.0.stream.frame_rate">25</property>
  <property name="kdenlive:meta.media.0.stream.sample_aspect_ratio">0</property>
  <property name="kdenlive:meta.media.0.codec.width">1280</property>
  <property name="kdenlive:meta.media.0.codec.height">720</property>
  <property name="kdenlive:meta.media.0.codec.rotate">0</property>
  <property name="kdenlive:meta.media.0.codec.frame_rate">25</property>
  <property name="kdenlive:meta.media.0.codec.pix_fmt">yuvj420p</property>
  <property name="kdenlive:meta.media.0.codec.sample_aspect_ratio">1</property>
  <property name="kdenlive:meta.media.0.codec.colorspace">601</property>
  <property name="kdenlive:meta.media.0.codec.color_trc">4</property>
  <property name="kdenlive:meta.media.0.codec.name">h264</property>
  <property name="kdenlive:meta.media.0.codec.long_name">H.264 / AVC / MPEG-4 AVC / MPEG-4 part 10</property>
  <property name="kdenlive:meta.media.0.codec.bit_rate">10328485</property>
  <property name="kdenlive:meta.attr.0.stream.creation_time.markup">2017-08-20T10:15:00.000000Z</property>
  <property name="kdenlive:meta.attr.0.stream.language.markup">eng</property>
  <property name="kdenlive:meta.media.1.stream.type">audio</property>
  <property name="kdenlive:meta.media.1.codec.sample_fmt">s16</property>
  <property name="kdenlive:meta.media.1.codec.sample_rate">24000</property>
  <property name="kdenlive:meta.media.1.codec.channels">1</property>
  <property name="kdenlive:meta.media.1.codec.name">pcm_s16le</property>
  <property name="kdenlive:meta.media.1.codec.long_name">PCM signed 16-bit little-endian</property>
  <property name="kdenlive:meta.media.1.codec.bit_rate">384000</property>
  <property name="kdenlive:meta.attr.1.stream.creation_time.markup">2017-08-20T10:15:00.000000Z</property>
  <property name="kdenlive:meta.attr.1.stream.language.markup">eng</property>
  <property name="kdenlive:meta.attr.major_brand.markup">qt  </property>
  <property name="kdenlive:meta.attr.minor_version.markup">537331968</property>
  <property name="kdenlive:meta.attr.compatible_brands.markup">qt  niko</property>
  <property name="kdenlive:meta.attr.creation_time.markup">2017-08-20T10:15:00.000000Z</property>
  <property name="kdenlive:meta.media.sample_aspect_num">1</property>
  <property name="kdenlive:meta.media.sample_aspect_den">1</property>
  <property name="kdenlive:meta.media.frame_rate_num">25</property>
  <property name="kdenlive:meta.media.frame_rate_den">1</property>
  <property name="kdenlive:meta.media.colorspace">601</property>
  <property name="kdenlive:meta.media.color_trc">4</property>
  <property name="kdenlive:meta.media.width">1280</property>
  <property name="kdenlive:meta.media.height">720</property>
  <property name="kdenlive:meta.media.top_field_first">0</property>
  <property name="kdenlive:meta.media.progressive">1</property>
 </producer>
 <producer id="61" title="Anonymous Submission" out="404" in="0">
  <property name="length">00:00:16:05</property>
  <property name="eof">pause</property>
  <property name="resource">/home/nicolas/.cache/kdenlive/proxy/4841b1449ff69ba80425f1423ad52f60.mpg</property>
  <property name="meta.media.nb_streams">2</property>
  <property name="meta.media.0.stream.type">video</property>
  <property name="meta.media.0.stream.frame_rate">25</property>
  <property name="meta.media.0.stream.sample_aspect_ratio">0</property>
  <property name="meta.media.0.codec.width">640</property>
  <property name="meta.media.0.codec.height">360</property>
  <property name="meta.media.0.codec.rotate">0</property>
  <property name="meta.media.0.codec.frame_rate">25</property>
  <property name="meta.media.0.codec.pix_fmt">yuv420p</property>
  <property name="meta.media.0.codec.sample_aspect_ratio">1</property>
  <property name="meta.media.0.codec.colorspace">601</property>
  <property name="meta.media.0.codec.name">mpeg2video</property>
  <property name="meta.media.0.codec.long_name">MPEG-2 video</property>
  <property name="meta.media.0.codec.bit_rate">0</property>
  <property name="meta.media.1.stream.type">audio</property>
  <property name="meta.media.1.codec.sample_fmt">s16p</property>
  <property name="meta.media.1.codec.sample_rate">24000</property>
  <property name="meta.media.1.codec.channels">1</property>
  <property name="meta.media.1.codec.name">mp2</property>
  <property name="meta.media.1.codec.long_name">MP2 (MPEG audio layer 2)</property>
  <property name="meta.media.1.codec.bit_rate">128000</property>
  <property name="seekable">1</property>
  <property name="meta.media.sample_aspect_num">1</property>
  <property name="meta.media.sample_aspect_den">1</property>
  <property name="aspect_ratio">1</property>
  <property name="audio_index">1</property>
  <property name="video_index">0</property>
  <property name="mute_on_pause">1</property>
  <property name="mlt_service">avformat</property>
  <property name="meta.media.0.codec.color_trc">4</property>
  <property name="meta.attr.0.stream.creation_time.markup">2017-08-20T10:19:53.000000Z</property>
  <property name="meta.attr.0.stream.language.markup">eng</property>
  <property name="meta.attr.1.stream.creation_time.markup">2017-08-20T10:19:53.000000Z</property>
  <property name="meta.attr.1.stream.language.markup">eng</property>
  <property name="meta.attr.major_brand.markup">qt  </property>
  <property name="meta.attr.minor_version.markup">537331968</property>
  <property name="meta.attr.compatible_brands.markup">qt  niko</property>
  <property name="meta.attr.creation_time.markup">2017-08-20T10:19:53.000000Z</property>
  <property name="meta.media.frame_rate_num">25</property>
  <property name="meta.media.frame_rate_den">1</property>
  <property name="meta.media.colorspace">601</property>
  <property name="meta.media.color_trc">2</property>
  <property name="meta.media.width">640</property>
  <property name="meta.media.height">360</property>
  <property name="meta.media.top_field_first">0</property>
  <property name="meta.media.progressive">1</property>
  <property name="kdenlive:file_size">22131660</property>
  <property name="kdenlive:file_hash">4841b1449ff69ba80425f1423ad52f60</property>
  <property name="kdenlive:proxy">/home/nicolas/.cache/kdenlive/proxy/4841b1449ff69ba80425f1423ad52f60.mpg</property>
  <property name="proxy_out">404</property>
  <property name="kdenlive:originalurl">3DSC_0028.MOV</property>
  <property name="global_feed">1</property>
  <property name="kdenlive:meta.media.nb_streams">2</property>
  <property name="kdenlive:meta.media.0.stream.type">video</property>
  <property name="kdenlive:meta.media.0.stream.frame_rate">25</property>
  <property name="kdenlive:meta.media.0.stream.sample_aspect_ratio">0</property>
  <property name="kdenlive:meta.media.0.codec.width">1280</property>
  <property name="kdenlive:meta.media.0.codec.height">720</property>
  <property name="kdenlive:meta.media.0.codec.rotate">0</property>
  <property name="kdenlive:meta.media.0.codec.frame_rate">25</property>
  <property name="kdenlive:meta.media.0.codec.pix_fmt">yuvj420p</property>
  <property name="kdenlive:meta.media.0.codec.sample_aspect_ratio">1</property>
  <property name="kdenlive:meta.media.0.codec.colorspace">601</property>
  <property name="kdenlive:meta.media.0.codec.color_trc">4</property>
  <property name="kdenlive:meta.media.0.codec.name">h264</property>
  <property name="kdenlive:meta.media.0.codec.long_name">H.264 / AVC / MPEG-4 AVC / MPEG-4 part 10</property>
  <property name="kdenlive:meta.media.0.codec.bit_rate">10486513</property>
  <property name="kdenlive:meta.attr.0.stream.creation_time.markup">2017-08-20T10:19:53.000000Z</property>
  <property name="kdenlive:meta.attr.0.stream.language.markup">eng</property>
  <property name="kdenlive:meta.media.1.stream.type">audio</property>
  <property name="kdenlive:meta.media.1.codec.sample_fmt">s16</property>
  <property name="kdenlive:meta.media.1.codec.sample_rate">24000</property>
  <property name="kdenlive:meta.media.1.codec.channels">1</property>
  <property name="kdenlive:meta.media.1.codec.name">pcm_s16le</property>
  <property name="kdenlive:meta.media.1.codec.long_name">PCM signed 16-bit little-endian</property>
  <property name="kdenlive:meta.media.1.codec.bit_rate">384000</property>
  <property name="kdenlive:meta.attr.1.stream.creation_time.markup">2017-08-20T10:19:53.000000Z</property>
  <property name="kdenlive:meta.attr.1.stream.language.markup">eng</property>
  <property name="kdenlive:meta.attr.major_brand.markup">qt  </property>
  <property name="kdenlive:meta.attr.minor_version.markup">537331968</property>
  <property name="kdenlive:meta.attr.compatible_brands.markup">qt  niko</property>
  <property name="kdenlive:meta.attr.creation_time.markup">2017-08-20T10:19:53.000000Z</property>
  <property name="kdenlive:meta.media.sample_aspect_num">1</property>
  <property name="kdenlive:meta.media.sample_aspect_den">1</property>
  <property name="kdenlive:meta.media.frame_rate_num">25</property>
  <property name="kdenlive:meta.media.frame_rate_den">1</property>
  <property name="kdenlive:meta.media.colorspace">601</property>
  <property name="kdenlive:meta.media.color_trc">4</property>
  <property name="kdenlive:meta.media.width">1280</property>
  <property name="kdenlive:meta.media.height">720</property>
  <property name="kdenlive:meta.media.top_field_first">0</property>
  <property name="kdenlive:meta.media.progressive">1</property>
 </producer>
 <producer id="62" title="Anonymous Submission" out="3959" in="0">
  <property name="length">00:02:38:10</property>
  <property name="eof">pause</property>
  <property name="resource">/home/nicolas/.cache/kdenlive/proxy/eec355bebd3342f9520c78c362757f30.mpg</property>
  <property name="meta.media.nb_streams">2</property>
  <property name="meta.media.0.stream.type">video</property>
  <property name="meta.media.0.stream.frame_rate">25</property>
  <property name="meta.media.0.stream.sample_aspect_ratio">0</property>
  <property name="meta.media.0.codec.width">640</property>
  <property name="meta.media.0.codec.height">360</property>
  <property name="meta.media.0.codec.rotate">0</property>
  <property name="meta.media.0.codec.frame_rate">25</property>
  <property name="meta.media.0.codec.pix_fmt">yuv420p</property>
  <property name="meta.media.0.codec.sample_aspect_ratio">1</property>
  <property name="meta.media.0.codec.colorspace">601</property>
  <property name="meta.media.0.codec.name">mpeg2video</property>
  <property name="meta.media.0.codec.long_name">MPEG-2 video</property>
  <property name="meta.media.0.codec.bit_rate">0</property>
  <property name="meta.media.1.stream.type">audio</property>
  <property name="meta.media.1.codec.sample_fmt">s16p</property>
  <property name="meta.media.1.codec.sample_rate">24000</property>
  <property name="meta.media.1.codec.channels">1</property>
  <property name="meta.media.1.codec.name">mp2</property>
  <property name="meta.media.1.codec.long_name">MP2 (MPEG audio layer 2)</property>
  <property name="meta.media.1.codec.bit_rate">128000</property>
  <property name="seekable">1</property>
  <property name="meta.media.sample_aspect_num">1</property>
  <property name="meta.media.sample_aspect_den">1</property>
  <property name="aspect_ratio">1</property>
  <property name="audio_index">1</property>
  <property name="video_index">0</property>
  <property name="mute_on_pause">1</property>
  <property name="mlt_service">avformat</property>
  <property name="meta.media.0.codec.color_trc">4</property>
  <property name="meta.attr.0.stream.creation_time.markup">2017-08-20T10:20:19.000000Z</property>
  <property name="meta.attr.0.stream.language.markup">eng</property>
  <property name="meta.attr.1.stream.creation_time.markup">2017-08-20T10:20:19.000000Z</property>
  <property name="meta.attr.1.stream.language.markup">eng</property>
  <property name="meta.attr.major_brand.markup">qt  </property>
  <property name="meta.attr.minor_version.markup">537331968</property>
  <property name="meta.attr.compatible_brands.markup">qt  niko</property>
  <property name="meta.attr.creation_time.markup">2017-08-20T10:20:19.000000Z</property>
  <property name="meta.media.frame_rate_num">25</property>
  <property name="meta.media.frame_rate_den">1</property>
  <property name="meta.media.colorspace">601</property>
  <property name="meta.media.color_trc">2</property>
  <property name="meta.media.width">640</property>
  <property name="meta.media.height">360</property>
  <property name="meta.media.top_field_first">0</property>
  <property name="meta.media.progressive">1</property>
  <property name="kdenlive:file_size">211948169</property>
  <property name="kdenlive:file_hash">eec355bebd3342f9520c78c362757f30</property>
  <property name="kdenlive:proxy">/home/nicolas/.cache/kdenlive/proxy/eec355bebd3342f9520c78c362757f30.mpg</property>
  <property name="proxy_out">3959</property>
  <property name="kdenlive:originalurl">3DSC_0029.MOV</property>
  <property name="global_feed">1</property>
  <property name="kdenlive:meta.media.nb_streams">2</property>
  <property name="kdenlive:meta.media.0.stream.type">video</property>
  <property name="kdenlive:meta.media.0.stream.frame_rate">25</property>
  <property name="kdenlive:meta.media.0.stream.sample_aspect_ratio">0</property>
  <property name="kdenlive:meta.media.0.codec.width">1280</property>
  <property name="kdenlive:meta.media.0.codec.height">720</property>
  <property name="kdenlive:meta.media.0.codec.rotate">0</property>
  <property name="kdenlive:meta.media.0.codec.frame_rate">25</property>
  <property name="kdenlive:meta.media.0.codec.pix_fmt">yuvj420p</property>
  <property name="kdenlive:meta.media.0.codec.sample_aspect_ratio">1</property>
  <property name="kdenlive:meta.media.0.codec.colorspace">601</property>
  <property name="kdenlive:meta.media.0.codec.color_trc">4</property>
  <property name="kdenlive:meta.media.0.codec.name">h264</property>
  <property name="kdenlive:meta.media.0.codec.long_name">H.264 / AVC / MPEG-4 AVC / MPEG-4 part 10</property>
  <property name="kdenlive:meta.media.0.codec.bit_rate">10312598</property>
  <property name="kdenlive:meta.attr.0.stream.creation_time.markup">2017-08-20T10:20:19.000000Z</property>
  <property name="kdenlive:meta.attr.0.stream.language.markup">eng</property>
  <property name="kdenlive:meta.media.1.stream.type">audio</property>
  <property name="kdenlive:meta.media.1.codec.sample_fmt">s16</property>
  <property name="kdenlive:meta.media.1.codec.sample_rate">24000</property>
  <property name="kdenlive:meta.media.1.codec.channels">1</property>
  <property name="kdenlive:meta.media.1.codec.name">pcm_s16le</property>
  <property name="kdenlive:meta.media.1.codec.long_name">PCM signed 16-bit little-endian</property>
  <property name="kdenlive:meta.media.1.codec.bit_rate">384000</property>
  <property name="kdenlive:meta.attr.1.stream.creation_time.markup">2017-08-20T10:20:19.000000Z</property>
  <property name="kdenlive:meta.attr.1.stream.language.markup">eng</property>
  <property name="kdenlive:meta.attr.major_brand.markup">qt  </property>
  <property name="kdenlive:meta.attr.minor_version.markup">537331968</property>
  <property name="kdenlive:meta.attr.compatible_brands.markup">qt  niko</property>
  <property name="kdenlive:meta.attr.creation_time.markup">2017-08-20T10:20:19.000000Z</property>
  <property name="kdenlive:meta.media.sample_aspect_num">1</property>
  <property name="kdenlive:meta.media.sample_aspect_den">1</property>
  <property name="kdenlive:meta.media.frame_rate_num">25</property>
  <property name="kdenlive:meta.media.frame_rate_den">1</property>
  <property name="kdenlive:meta.media.colorspace">601</property>
  <property name="kdenlive:meta.media.color_trc">4</property>
  <property name="kdenlive:meta.media.width">1280</property>
  <property name="kdenlive:meta.media.height">720</property>
  <property name="kdenlive:meta.media.top_field_first">0</property>
  <property name="kdenlive:meta.media.progressive">1</property>
 </producer>
 <producer id="63" title="Anonymous Submission" out="449" in="0">
  <property name="length">00:00:18:00</property>
  <property name="eof">pause</property>
  <property name="resource">/home/nicolas/.cache/kdenlive/proxy/ff503f23b60274492defb06e861e2f8e.mpg</property>
  <property name="meta.media.nb_streams">2</property>
  <property name="meta.media.0.stream.type">video</property>
  <property name="meta.media.0.stream.frame_rate">25</property>
  <property name="meta.media.0.stream.sample_aspect_ratio">0</property>
  <property name="meta.media.0.codec.width">640</property>
  <property name="meta.media.0.codec.height">360</property>
  <property name="meta.media.0.codec.rotate">0</property>
  <property name="meta.media.0.codec.frame_rate">25</property>
  <property name="meta.media.0.codec.pix_fmt">yuv420p</property>
  <property name="meta.media.0.codec.sample_aspect_ratio">1</property>
  <property name="meta.media.0.codec.colorspace">601</property>
  <property name="meta.media.0.codec.name">mpeg2video</property>
  <property name="meta.media.0.codec.long_name">MPEG-2 video</property>
  <property name="meta.media.0.codec.bit_rate">0</property>
  <property name="meta.media.1.stream.type">audio</property>
  <property name="meta.media.1.codec.sample_fmt">s16p</property>
  <property name="meta.media.1.codec.sample_rate">24000</property>
  <property name="meta.media.1.codec.channels">1</property>
  <property name="meta.media.1.codec.name">mp2</property>
  <property name="meta.media.1.codec.long_name">MP2 (MPEG audio layer 2)</property>
  <property name="meta.media.1.codec.bit_rate">128000</property>
  <property name="seekable">1</property>
  <property name="meta.media.sample_aspect_num">1</property>
  <property name="meta.media.sample_aspect_den">1</property>
  <property name="aspect_ratio">1</property>
  <property name="audio_index">1</property>
  <property name="video_index">0</property>
  <property name="mute_on_pause">1</property>
  <property name="mlt_service">avformat</property>
  <property name="meta.media.0.codec.color_trc">4</property>
  <property name="meta.attr.0.stream.creation_time.markup">2017-08-20T10:35:32.000000Z</property>
  <property name="meta.attr.0.stream.language.markup">eng</property>
  <property name="meta.attr.1.stream.creation_time.markup">2017-08-20T10:35:32.000000Z</property>
  <property name="meta.attr.1.stream.language.markup">eng</property>
  <property name="meta.attr.major_brand.markup">qt  </property>
  <property name="meta.attr.minor_version.markup">537331968</property>
  <property name="meta.attr.compatible_brands.markup">qt  niko</property>
  <property name="meta.attr.creation_time.markup">2017-08-20T10:35:32.000000Z</property>
  <property name="meta.media.frame_rate_num">25</property>
  <property name="meta.media.frame_rate_den">1</property>
  <property name="meta.media.colorspace">601</property>
  <property name="meta.media.color_trc">2</property>
  <property name="meta.media.width">640</property>
  <property name="meta.media.height">360</property>
  <property name="meta.media.top_field_first">0</property>
  <property name="meta.media.progressive">1</property>
  <property name="kdenlive:file_size">24768917</property>
  <property name="kdenlive:file_hash">ff503f23b60274492defb06e861e2f8e</property>
  <property name="kdenlive:proxy">/home/nicolas/.cache/kdenlive/proxy/ff503f23b60274492defb06e861e2f8e.mpg</property>
  <property name="proxy_out">449</property>
  <property name="kdenlive:originalurl">3DSC_0036.MOV</property>
  <property name="global_feed">1</property>
  <property name="kdenlive:meta.media.nb_streams">2</property>
  <property name="kdenlive:meta.media.0.stream.type">video</property>
  <property name="kdenlive:meta.media.0.stream.frame_rate">25</property>
  <property name="kdenlive:meta.media.0.stream.sample_aspect_ratio">0</property>
  <property name="kdenlive:meta.media.0.codec.width">1280</property>
  <property name="kdenlive:meta.media.0.codec.height">720</property>
  <property name="kdenlive:meta.media.0.codec.rotate">0</property>
  <property name="kdenlive:meta.media.0.codec.frame_rate">25</property>
  <property name="kdenlive:meta.media.0.codec.pix_fmt">yuvj420p</property>
  <property name="kdenlive:meta.media.0.codec.sample_aspect_ratio">1</property>
  <property name="kdenlive:meta.media.0.codec.colorspace">601</property>
  <property name="kdenlive:meta.media.0.codec.color_trc">4</property>
  <property name="kdenlive:meta.media.0.codec.name">h264</property>
  <property name="kdenlive:meta.media.0.codec.long_name">H.264 / AVC / MPEG-4 AVC / MPEG-4 part 10</property>
  <property name="kdenlive:meta.media.0.codec.bit_rate">10572108</property>
  <property name="kdenlive:meta.attr.0.stream.creation_time.markup">2017-08-20T10:35:32.000000Z</property>
  <property name="kdenlive:meta.attr.0.stream.language.markup">eng</property>
  <property name="kdenlive:meta.media.1.stream.type">audio</property>
  <property name="kdenlive:meta.media.1.codec.sample_fmt">s16</property>
  <property name="kdenlive:meta.media.1.codec.sample_rate">24000</property>
  <property name="kdenlive:meta.media.1.codec.channels">1</property>
  <property name="kdenlive:meta.media.1.codec.name">pcm_s16le</property>
  <property name="kdenlive:meta.media.1.codec.long_name">PCM signed 16-bit little-endian</property>
  <property name="kdenlive:meta.media.1.codec.bit_rate">384000</property>
  <property name="kdenlive:meta.attr.1.stream.creation_time.markup">2017-08-20T10:35:32.000000Z</property>
  <property name="kdenlive:meta.attr.1.stream.language.markup">eng</property>
  <property name="kdenlive:meta.attr.major_brand.markup">qt  </property>
  <property name="kdenlive:meta.attr.minor_version.markup">537331968</property>
  <property name="kdenlive:meta.attr.compatible_brands.markup">qt  niko</property>
  <property name="kdenlive:meta.attr.creation_time.markup">2017-08-20T10:35:32.000000Z</property>
  <property name="kdenlive:meta.media.sample_aspect_num">1</property>
  <property name="kdenlive:meta.media.sample_aspect_den">1</property>
  <property name="kdenlive:meta.media.frame_rate_num">25</property>
  <property name="kdenlive:meta.media.frame_rate_den">1</property>
  <property name="kdenlive:meta.media.colorspace">601</property>
  <property name="kdenlive:meta.media.color_trc">4</property>
  <property name="kdenlive:meta.media.width">1280</property>
  <property name="kdenlive:meta.media.height">720</property>
  <property name="kdenlive:meta.media.top_field_first">0</property>
  <property name="kdenlive:meta.media.progressive">1</property>
 </producer>
 <producer id="64" title="Anonymous Submission" out="386" in="0">
  <property name="length">00:00:15:12</property>
  <property name="eof">pause</property>
  <property name="resource">/home/nicolas/.cache/kdenlive/proxy/9a46969659ef0788313fde1b003b44b6.mpg</property>
  <property name="meta.media.nb_streams">2</property>
  <property name="meta.media.0.stream.type">video</property>
  <property name="meta.media.0.stream.frame_rate">25</property>
  <property name="meta.media.0.stream.sample_aspect_ratio">0</property>
  <property name="meta.media.0.codec.width">640</property>
  <property name="meta.media.0.codec.height">360</property>
  <property name="meta.media.0.codec.rotate">0</property>
  <property name="meta.media.0.codec.frame_rate">25</property>
  <property name="meta.media.0.codec.pix_fmt">yuv420p</property>
  <property name="meta.media.0.codec.sample_aspect_ratio">1</property>
  <property name="meta.media.0.codec.colorspace">601</property>
  <property name="meta.media.0.codec.name">mpeg2video</property>
  <property name="meta.media.0.codec.long_name">MPEG-2 video</property>
  <property name="meta.media.0.codec.bit_rate">0</property>
  <property name="meta.media.1.stream.type">audio</property>
  <property name="meta.media.1.codec.sample_fmt">s16p</property>
  <property name="meta.media.1.codec.sample_rate">24000</property>
  <property name="meta.media.1.codec.channels">1</property>
  <property name="meta.media.1.codec.name">mp2</property>
  <property name="meta.media.1.codec.long_name">MP2 (MPEG audio layer 2)</property>
  <property name="meta.media.1.codec.bit_rate">128000</property>
  <property name="seekable">1</property>
  <property name="meta.media.sample_aspect_num">1</property>
  <property name="meta.media.sample_aspect_den">1</property>
  <property name="aspect_ratio">1</property>
  <property name="audio_index">1</property>
  <property name="video_index">0</property>
  <property name="mute_on_pause">1</property>
  <property name="mlt_service">avformat</property>
  <property name="meta.media.0.codec.color_trc">4</property>
  <property name="meta.attr.0.stream.creation_time.markup">2017-08-20T10:39:09.000000Z</property>
  <property name="meta.attr.0.stream.language.markup">eng</property>
  <property name="meta.attr.1.stream.creation_time.markup">2017-08-20T10:39:09.000000Z</property>
  <property name="meta.attr.1.stream.language.markup">eng</property>
  <property name="meta.attr.major_brand.markup">qt  </property>
  <property name="meta.attr.minor_version.markup">537331968</property>
  <property name="meta.attr.compatible_brands.markup">qt  niko</property>
  <property name="meta.attr.creation_time.markup">2017-08-20T10:39:09.000000Z</property>
  <property name="meta.media.frame_rate_num">25</property>
  <property name="meta.media.frame_rate_den">1</property>
  <property name="meta.media.colorspace">601</property>
  <property name="meta.media.color_trc">2</property>
  <property name="meta.media.width">640</property>
  <property name="meta.media.height">360</property>
  <property name="meta.media.top_field_first">0</property>
  <property name="meta.media.progressive">1</property>
  <property name="kdenlive:file_size">21053601</property>
  <property name="kdenlive:file_hash">9a46969659ef0788313fde1b003b44b6</property>
  <property name="kdenlive:proxy">/home/nicolas/.cache/kdenlive/proxy/9a46969659ef0788313fde1b003b44b6.mpg</property>
  <property name="proxy_out">386</property>
  <property name="kdenlive:originalurl">3DSC_0039.MOV</property>
  <property name="global_feed">1</property>
  <property name="kdenlive:meta.media.nb_streams">2</property>
  <property name="kdenlive:meta.media.0.stream.type">video</property>
  <property name="kdenlive:meta.media.0.stream.frame_rate">25</property>
  <property name="kdenlive:meta.media.0.stream.sample_aspect_ratio">0</property>
  <property name="kdenlive:meta.media.0.codec.width">1280</property>
  <property name="kdenlive:meta.media.0.codec.height">720</property>
  <property name="kdenlive:meta.media.0.codec.rotate">0</property>
  <property name="kdenlive:meta.media.0.codec.frame_rate">25</property>
  <property name="kdenlive:meta.media.0.codec.pix_fmt">yuvj420p</property>
  <property name="kdenlive:meta.media.0.codec.sample_aspect_ratio">1</property>
  <property name="kdenlive:meta.media.0.codec.colorspace">601</property>
  <property name="kdenlive:meta.media.0.codec.color_trc">4</property>
  <property name="kdenlive:meta.media.0.codec.name">h264</property>
  <property name="kdenlive:meta.media.0.codec.long_name">H.264 / AVC / MPEG-4 AVC / MPEG-4 part 10</property>
  <property name="kdenlive:meta.media.0.codec.bit_rate">10434787</property>
  <property name="kdenlive:meta.attr.0.stream.creation_time.markup">2017-08-20T10:39:09.000000Z</property>
  <property name="kdenlive:meta.attr.0.stream.language.markup">eng</property>
  <property name="kdenlive:meta.media.1.stream.type">audio</property>
  <property name="kdenlive:meta.media.1.codec.sample_fmt">s16</property>
  <property name="kdenlive:meta.media.1.codec.sample_rate">24000</property>
  <property name="kdenlive:meta.media.1.codec.channels">1</property>
  <property name="kdenlive:meta.media.1.codec.name">pcm_s16le</property>
  <property name="kdenlive:meta.media.1.codec.long_name">PCM signed 16-bit little-endian</property>
  <property name="kdenlive:meta.media.1.codec.bit_rate">384000</property>
  <property name="kdenlive:meta.attr.1.stream.creation_time.markup">2017-08-20T10:39:09.000000Z</property>
  <property name="kdenlive:meta.attr.1.stream.language.markup">eng</property>
  <property name="kdenlive:meta.attr.major_brand.markup">qt  </property>
  <property name="kdenlive:meta.attr.minor_version.markup">537331968</property>
  <property name="kdenlive:meta.attr.compatible_brands.markup">qt  niko</property>
  <property name="kdenlive:meta.attr.creation_time.markup">2017-08-20T10:39:09.000000Z</property>
  <property name="kdenlive:meta.media.sample_aspect_num">1</property>
  <property name="kdenlive:meta.media.sample_aspect_den">1</property>
  <property name="kdenlive:meta.media.frame_rate_num">25</property>
  <property name="kdenlive:meta.media.frame_rate_den">1</property>
  <property name="kdenlive:meta.media.colorspace">601</property>
  <property name="kdenlive:meta.media.color_trc">4</property>
  <property name="kdenlive:meta.media.width">1280</property>
  <property name="kdenlive:meta.media.height">720</property>
  <property name="kdenlive:meta.media.top_field_first">0</property>
  <property name="kdenlive:meta.media.progressive">1</property>
 </producer>
 <producer id="65" title="Anonymous Submission" out="5711" in="0">
  <property name="length">00:03:48:12</property>
  <property name="eof">pause</property>
  <property name="resource">/home/nicolas/.cache/kdenlive/proxy/c03151f36a8930ad255607e55b34e6b8.mpg</property>
  <property name="meta.media.nb_streams">2</property>
  <property name="meta.media.0.stream.type">video</property>
  <property name="meta.media.0.stream.frame_rate">25</property>
  <property name="meta.media.0.stream.sample_aspect_ratio">0</property>
  <property name="meta.media.0.codec.width">640</property>
  <property name="meta.media.0.codec.height">360</property>
  <property name="meta.media.0.codec.rotate">0</property>
  <property name="meta.media.0.codec.frame_rate">25</property>
  <property name="meta.media.0.codec.pix_fmt">yuv420p</property>
  <property name="meta.media.0.codec.sample_aspect_ratio">1</property>
  <property name="meta.media.0.codec.colorspace">601</property>
  <property name="meta.media.0.codec.name">mpeg2video</property>
  <property name="meta.media.0.codec.long_name">MPEG-2 video</property>
  <property name="meta.media.0.codec.bit_rate">0</property>
  <property name="meta.media.1.stream.type">audio</property>
  <property name="meta.media.1.codec.sample_fmt">s16p</property>
  <property name="meta.media.1.codec.sample_rate">24000</property>
  <property name="meta.media.1.codec.channels">1</property>
  <property name="meta.media.1.codec.name">mp2</property>
  <property name="meta.media.1.codec.long_name">MP2 (MPEG audio layer 2)</property>
  <property name="meta.media.1.codec.bit_rate">128000</property>
  <property name="seekable">1</property>
  <property name="meta.media.sample_aspect_num">1</property>
  <property name="meta.media.sample_aspect_den">1</property>
  <property name="aspect_ratio">1</property>
  <property name="audio_index">1</property>
  <property name="video_index">0</property>
  <property name="mute_on_pause">1</property>
  <property name="mlt_service">avformat</property>
  <property name="meta.media.0.codec.color_trc">4</property>
  <property name="meta.attr.0.stream.creation_time.markup">2017-08-20T10:49:07.000000Z</property>
  <property name="meta.attr.0.stream.language.markup">eng</property>
  <property name="meta.attr.1.stream.creation_time.markup">2017-08-20T10:49:07.000000Z</property>
  <property name="meta.attr.1.stream.language.markup">eng</property>
  <property name="meta.attr.major_brand.markup">qt  </property>
  <property name="meta.attr.minor_version.markup">537331968</property>
  <property name="meta.attr.compatible_brands.markup">qt  niko</property>
  <property name="meta.attr.creation_time.markup">2017-08-20T10:49:07.000000Z</property>
  <property name="meta.media.frame_rate_num">25</property>
  <property name="meta.media.frame_rate_den">1</property>
  <property name="meta.media.colorspace">601</property>
  <property name="meta.media.color_trc">2</property>
  <property name="meta.media.width">640</property>
  <property name="meta.media.height">360</property>
  <property name="meta.media.top_field_first">0</property>
  <property name="meta.media.progressive">1</property>
  <property name="kdenlive:file_size">301950970</property>
  <property name="kdenlive:file_hash">c03151f36a8930ad255607e55b34e6b8</property>
  <property name="kdenlive:proxy">/home/nicolas/.cache/kdenlive/proxy/c03151f36a8930ad255607e55b34e6b8.mpg</property>
  <property name="proxy_out">5711</property>
  <property name="kdenlive:originalurl">3DSC_0041.MOV</property>
  <property name="global_feed">1</property>
  <property name="kdenlive:meta.media.nb_streams">2</property>
  <property name="kdenlive:meta.media.0.stream.type">video</property>
  <property name="kdenlive:meta.media.0.stream.frame_rate">25</property>
  <property name="kdenlive:meta.media.0.stream.sample_aspect_ratio">0</property>
  <property name="kdenlive:meta.media.0.codec.width">1280</property>
  <property name="kdenlive:meta.media.0.codec.height">720</property>
  <property name="kdenlive:meta.media.0.codec.rotate">0</property>
  <property name="kdenlive:meta.media.0.codec.frame_rate">25</property>
  <property name="kdenlive:meta.media.0.codec.pix_fmt">yuvj420p</property>
  <property name="kdenlive:meta.media.0.codec.sample_aspect_ratio">1</property>
  <property name="kdenlive:meta.media.0.codec.colorspace">601</property>
  <property name="kdenlive:meta.media.0.codec.color_trc">4</property>
  <property name="kdenlive:meta.media.0.codec.name">h264</property>
  <property name="kdenlive:meta.media.0.codec.long_name">H.264 / AVC / MPEG-4 AVC / MPEG-4 part 10</property>
  <property name="kdenlive:meta.media.0.codec.bit_rate">10182314</property>
  <property name="kdenlive:meta.attr.0.stream.creation_time.markup">2017-08-20T10:49:07.000000Z</property>
  <property name="kdenlive:meta.attr.0.stream.language.markup">eng</property>
  <property name="kdenlive:meta.media.1.stream.type">audio</property>
  <property name="kdenlive:meta.media.1.codec.sample_fmt">s16</property>
  <property name="kdenlive:meta.media.1.codec.sample_rate">24000</property>
  <property name="kdenlive:meta.media.1.codec.channels">1</property>
  <property name="kdenlive:meta.media.1.codec.name">pcm_s16le</property>
  <property name="kdenlive:meta.media.1.codec.long_name">PCM signed 16-bit little-endian</property>
  <property name="kdenlive:meta.media.1.codec.bit_rate">384000</property>
  <property name="kdenlive:meta.attr.1.stream.creation_time.markup">2017-08-20T10:49:07.000000Z</property>
  <property name="kdenlive:meta.attr.1.stream.language.markup">eng</property>
  <property name="kdenlive:meta.attr.major_brand.markup">qt  </property>
  <property name="kdenlive:meta.attr.minor_version.markup">537331968</property>
  <property name="kdenlive:meta.attr.compatible_brands.markup">qt  niko</property>
  <property name="kdenlive:meta.attr.creation_time.markup">2017-08-20T10:49:07.000000Z</property>
  <property name="kdenlive:meta.media.sample_aspect_num">1</property>
  <property name="kdenlive:meta.media.sample_aspect_den">1</property>
  <property name="kdenlive:meta.media.frame_rate_num">25</property>
  <property name="kdenlive:meta.media.frame_rate_den">1</property>
  <property name="kdenlive:meta.media.colorspace">601</property>
  <property name="kdenlive:meta.media.color_trc">4</property>
  <property name="kdenlive:meta.media.width">1280</property>
  <property name="kdenlive:meta.media.height">720</property>
  <property name="kdenlive:meta.media.top_field_first">0</property>
  <property name="kdenlive:meta.media.progressive">1</property>
 </producer>
 <producer id="66" title="Anonymous Submission" out="1236" in="0">
  <property name="length">00:00:49:12</property>
  <property name="eof">pause</property>
  <property name="resource">/home/nicolas/.cache/kdenlive/proxy/e94f0a6db4e60491b43552b1cc9bce18.mpg</property>
  <property name="meta.media.nb_streams">2</property>
  <property name="meta.media.0.stream.type">video</property>
  <property name="meta.media.0.stream.frame_rate">25</property>
  <property name="meta.media.0.stream.sample_aspect_ratio">0</property>
  <property name="meta.media.0.codec.width">640</property>
  <property name="meta.media.0.codec.height">360</property>
  <property name="meta.media.0.codec.rotate">0</property>
  <property name="meta.media.0.codec.frame_rate">25</property>
  <property name="meta.media.0.codec.pix_fmt">yuv420p</property>
  <property name="meta.media.0.codec.sample_aspect_ratio">1</property>
  <property name="meta.media.0.codec.colorspace">601</property>
  <property name="meta.media.0.codec.name">mpeg2video</property>
  <property name="meta.media.0.codec.long_name">MPEG-2 video</property>
  <property name="meta.media.0.codec.bit_rate">0</property>
  <property name="meta.media.1.stream.type">audio</property>
  <property name="meta.media.1.codec.sample_fmt">s16p</property>
  <property name="meta.media.1.codec.sample_rate">48000</property>
  <property name="meta.media.1.codec.channels">2</property>
  <property name="meta.media.1.codec.name">mp2</property>
  <property name="meta.media.1.codec.long_name">MP2 (MPEG audio layer 2)</property>
  <property name="meta.media.1.codec.bit_rate">128000</property>
  <property name="seekable">1</property>
  <property name="meta.media.sample_aspect_num">1</property>
  <property name="meta.media.sample_aspect_den">1</property>
  <property name="aspect_ratio">1</property>
  <property name="audio_index">1</property>
  <property name="video_index">0</property>
  <property name="mute_on_pause">1</property>
  <property name="mlt_service">avformat</property>
  <property name="meta.media.0.codec.color_trc">1</property>
  <property name="meta.attr.0.stream.handler_name.markup">VideoHandler</property>
  <property name="meta.attr.1.stream.handler_name.markup">SoundHandler</property>
  <property name="meta.attr.major_brand.markup">isom</property>
  <property name="meta.attr.minor_version.markup">512</property>
  <property name="meta.attr.compatible_brands.markup">isomiso2avc1mp41</property>
  <property name="meta.attr.encoder.markup">Lavf57.56.101</property>
  <property name="meta.media.frame_rate_num">25</property>
  <property name="meta.media.frame_rate_den">1</property>
  <property name="meta.media.colorspace">601</property>
  <property name="meta.media.color_trc">2</property>
  <property name="meta.media.width">640</property>
  <property name="meta.media.height">360</property>
  <property name="meta.media.top_field_first">0</property>
  <property name="meta.media.progressive">1</property>
  <property name="kdenlive:file_size">32395840</property>
  <property name="kdenlive:file_hash">e94f0a6db4e60491b43552b1cc9bce18</property>
  <property name="kdenlive:proxy">/home/nicolas/.cache/kdenlive/proxy/e94f0a6db4e60491b43552b1cc9bce18.mpg</property>
  <property name="proxy_out">1236</property>
  <property name="kdenlive:originalurl">render seche cheveux.mp4</property>
  <property name="global_feed">1</property>
  <property name="kdenlive:meta.media.nb_streams">2</property>
  <property name="kdenlive:meta.media.0.stream.type">video</property>
  <property name="kdenlive:meta.media.0.stream.frame_rate">25</property>
  <property name="kdenlive:meta.media.0.stream.sample_aspect_ratio">1</property>
  <property name="kdenlive:meta.media.0.codec.width">1280</property>
  <property name="kdenlive:meta.media.0.codec.height">720</property>
  <property name="kdenlive:meta.media.0.codec.rotate">0</property>
  <property name="kdenlive:meta.media.0.codec.frame_rate">25</property>
  <property name="kdenlive:meta.media.0.codec.pix_fmt">yuv420p</property>
  <property name="kdenlive:meta.media.0.codec.sample_aspect_ratio">1</property>
  <property name="kdenlive:meta.media.0.codec.colorspace">709</property>
  <property name="kdenlive:meta.media.0.codec.color_trc">1</property>
  <property name="kdenlive:meta.media.0.codec.name">h264</property>
  <property name="kdenlive:meta.media.0.codec.long_name">H.264 / AVC / MPEG-4 AVC / MPEG-4 part 10</property>
  <property name="kdenlive:meta.media.0.codec.bit_rate">5233460</property>
  <property name="kdenlive:meta.attr.0.stream.handler_name.markup">VideoHandler</property>
  <property name="kdenlive:meta.media.1.stream.type">audio</property>
  <property name="kdenlive:meta.media.1.codec.sample_fmt">fltp</property>
  <property name="kdenlive:meta.media.1.codec.sample_rate">48000</property>
  <property name="kdenlive:meta.media.1.codec.channels">2</property>
  <property name="kdenlive:meta.media.1.codec.name">aac</property>
  <property name="kdenlive:meta.media.1.codec.long_name">AAC (Advanced Audio Coding)</property>
  <property name="kdenlive:meta.media.1.codec.bit_rate">2277</property>
  <property name="kdenlive:meta.attr.1.stream.handler_name.markup">SoundHandler</property>
  <property name="kdenlive:meta.attr.major_brand.markup">isom</property>
  <property name="kdenlive:meta.attr.minor_version.markup">512</property>
  <property name="kdenlive:meta.attr.compatible_brands.markup">isomiso2avc1mp41</property>
  <property name="kdenlive:meta.attr.encoder.markup">Lavf57.56.101</property>
  <property name="kdenlive:meta.media.sample_aspect_num">1</property>
  <property name="kdenlive:meta.media.sample_aspect_den">1</property>
  <property name="kdenlive:meta.media.frame_rate_num">25</property>
  <property name="kdenlive:meta.media.frame_rate_den">1</property>
  <property name="kdenlive:meta.media.colorspace">709</property>
  <property name="kdenlive:meta.media.color_trc">1</property>
  <property name="kdenlive:meta.media.width">1280</property>
  <property name="kdenlive:meta.media.height">720</property>
  <property name="kdenlive:meta.media.top_field_first">0</property>
  <property name="kdenlive:meta.media.progressive">1</property>
 </producer>
 <producer id="67" title="Anonymous Submission" out="170" in="0">
  <property name="length">171</property>
  <property name="eof">pause</property>
  <property name="resource">télé achat/sèche cheveux/render anim/.all.png</property>
  <property name="ttl">1</property>
  <property name="aspect_ratio">1</property>
  <property name="progressive">1</property>
  <property name="seekable">1</property>
  <property name="loop">0</property>
  <property name="meta.media.width">1280</property>
  <property name="meta.media.height">720</property>
  <property name="mlt_service">pixbuf</property>
  <property name="animation"/>
  <property name="crop">0</property>
  <property name="fade">0</property>
  <property name="kdenlive:clipname">Slideshow Clip</property>
  <property name="kdenlive:folderid">1</property>
  <property name="luma_duration">25</property>
  <property name="luma_file"/>
  <property name="softness">0</property>
  <property name="kdenlive:duration">171</property>
  <property name="kdenlive:file_hash">dabae85b7e62f2498db11894753efbd7</property>
  <property name="global_feed">1</property>
 </producer>
 <producer id="68" title="Anonymous Submission" out="227" in="0">
  <property name="length">00:00:09:03</property>
  <property name="eof">pause</property>
  <property name="resource">/home/nicolas/.cache/kdenlive/proxy/fd2ad88db9db34a67585866eccfd3daf.mpg</property>
  <property name="meta.media.nb_streams">2</property>
  <property name="meta.media.0.stream.type">video</property>
  <property name="meta.media.0.stream.frame_rate">25</property>
  <property name="meta.media.0.stream.sample_aspect_ratio">0</property>
  <property name="meta.media.0.codec.width">640</property>
  <property name="meta.media.0.codec.height">360</property>
  <property name="meta.media.0.codec.rotate">0</property>
  <property name="meta.media.0.codec.frame_rate">25</property>
  <property name="meta.media.0.codec.pix_fmt">yuv420p</property>
  <property name="meta.media.0.codec.sample_aspect_ratio">1</property>
  <property name="meta.media.0.codec.colorspace">601</property>
  <property name="meta.media.0.codec.name">mpeg2video</property>
  <property name="meta.media.0.codec.long_name">MPEG-2 video</property>
  <property name="meta.media.0.codec.bit_rate">0</property>
  <property name="meta.media.1.stream.type">audio</property>
  <property name="meta.media.1.codec.sample_fmt">s16p</property>
  <property name="meta.media.1.codec.sample_rate">24000</property>
  <property name="meta.media.1.codec.channels">1</property>
  <property name="meta.media.1.codec.name">mp2</property>
  <property name="meta.media.1.codec.long_name">MP2 (MPEG audio layer 2)</property>
  <property name="meta.media.1.codec.bit_rate">128000</property>
  <property name="seekable">1</property>
  <property name="meta.media.sample_aspect_num">1</property>
  <property name="meta.media.sample_aspect_den">1</property>
  <property name="aspect_ratio">1</property>
  <property name="audio_index">1</property>
  <property name="video_index">0</property>
  <property name="mute_on_pause">1</property>
  <property name="mlt_service">avformat</property>
  <property name="meta.media.0.codec.color_trc">4</property>
  <property name="meta.attr.0.stream.creation_time.markup">2017-10-16T13:47:04.000000Z</property>
  <property name="meta.attr.0.stream.language.markup">eng</property>
  <property name="meta.attr.1.stream.creation_time.markup">2017-10-16T13:47:04.000000Z</property>
  <property name="meta.attr.1.stream.language.markup">eng</property>
  <property name="meta.attr.major_brand.markup">qt  </property>
  <property name="meta.attr.minor_version.markup">537331968</property>
  <property name="meta.attr.compatible_brands.markup">qt  niko</property>
  <property name="meta.attr.creation_time.markup">2017-10-16T13:47:04.000000Z</property>
  <property name="meta.media.frame_rate_num">25</property>
  <property name="meta.media.frame_rate_den">1</property>
  <property name="meta.media.colorspace">601</property>
  <property name="meta.media.color_trc">2</property>
  <property name="meta.media.width">640</property>
  <property name="meta.media.height">360</property>
  <property name="meta.media.top_field_first">0</property>
  <property name="meta.media.progressive">1</property>
  <property name="kdenlive:file_size">12674012</property>
  <property name="kdenlive:file_hash">fd2ad88db9db34a67585866eccfd3daf</property>
  <property name="kdenlive:proxy">/home/nicolas/.cache/kdenlive/proxy/fd2ad88db9db34a67585866eccfd3daf.mpg</property>
  <property name="proxy_out">227</property>
  <property name="kdenlive:originalurl">dollar.MOV</property>
  <property name="global_feed">1</property>
  <property name="kdenlive:meta.media.nb_streams">2</property>
  <property name="kdenlive:meta.media.0.stream.type">video</property>
  <property name="kdenlive:meta.media.0.stream.frame_rate">25</property>
  <property name="kdenlive:meta.media.0.stream.sample_aspect_ratio">0</property>
  <property name="kdenlive:meta.media.0.codec.width">1280</property>
  <property name="kdenlive:meta.media.0.codec.height">720</property>
  <property name="kdenlive:meta.media.0.codec.rotate">0</property>
  <property name="kdenlive:meta.media.0.codec.frame_rate">25</property>
  <property name="kdenlive:meta.media.0.codec.pix_fmt">yuvj420p</property>
  <property name="kdenlive:meta.media.0.codec.sample_aspect_ratio">1</property>
  <property name="kdenlive:meta.media.0.codec.colorspace">601</property>
  <property name="kdenlive:meta.media.0.codec.color_trc">4</property>
  <property name="kdenlive:meta.media.0.codec.name">h264</property>
  <property name="kdenlive:meta.media.0.codec.long_name">H.264 / AVC / MPEG-4 AVC / MPEG-4 part 10</property>
  <property name="kdenlive:meta.media.0.codec.bit_rate">10633796</property>
  <property name="kdenlive:meta.attr.0.stream.creation_time.markup">2017-10-16T13:47:04.000000Z</property>
  <property name="kdenlive:meta.attr.0.stream.language.markup">eng</property>
  <property name="kdenlive:meta.media.1.stream.type">audio</property>
  <property name="kdenlive:meta.media.1.codec.sample_fmt">s16</property>
  <property name="kdenlive:meta.media.1.codec.sample_rate">24000</property>
  <property name="kdenlive:meta.media.1.codec.channels">1</property>
  <property name="kdenlive:meta.media.1.codec.name">pcm_s16le</property>
  <property name="kdenlive:meta.media.1.codec.long_name">PCM signed 16-bit little-endian</property>
  <property name="kdenlive:meta.media.1.codec.bit_rate">384000</property>
  <property name="kdenlive:meta.attr.1.stream.creation_time.markup">2017-10-16T13:47:04.000000Z</property>
  <property name="kdenlive:meta.attr.1.stream.language.markup">eng</property>
  <property name="kdenlive:meta.attr.major_brand.markup">qt  </property>
  <property name="kdenlive:meta.attr.minor_version.markup">537331968</property>
  <property name="kdenlive:meta.attr.compatible_brands.markup">qt  niko</property>
  <property name="kdenlive:meta.attr.creation_time.markup">2017-10-16T13:47:04.000000Z</property>
  <property name="kdenlive:meta.media.sample_aspect_num">1</property>
  <property name="kdenlive:meta.media.sample_aspect_den">1</property>
  <property name="kdenlive:meta.media.frame_rate_num">25</property>
  <property name="kdenlive:meta.media.frame_rate_den">1</property>
  <property name="kdenlive:meta.media.colorspace">601</property>
  <property name="kdenlive:meta.media.color_trc">4</property>
  <property name="kdenlive:meta.media.width">1280</property>
  <property name="kdenlive:meta.media.height">720</property>
  <property name="kdenlive:meta.media.top_field_first">0</property>
  <property name="kdenlive:meta.media.progressive">1</property>
 </producer>
 <producer id="69" title="Anonymous Submission" out="620" in="0">
  <property name="length">00:00:24:21</property>
  <property name="eof">pause</property>
  <property name="resource">/home/nicolas/.cache/kdenlive/proxy/27e87d37a365b64adb3c20ccb543281b.mpg</property>
  <property name="meta.media.nb_streams">2</property>
  <property name="meta.media.0.stream.type">video</property>
  <property name="meta.media.0.stream.frame_rate">25</property>
  <property name="meta.media.0.stream.sample_aspect_ratio">0</property>
  <property name="meta.media.0.codec.width">640</property>
  <property name="meta.media.0.codec.height">360</property>
  <property name="meta.media.0.codec.rotate">0</property>
  <property name="meta.media.0.codec.frame_rate">25</property>
  <property name="meta.media.0.codec.pix_fmt">yuv420p</property>
  <property name="meta.media.0.codec.sample_aspect_ratio">1</property>
  <property name="meta.media.0.codec.colorspace">601</property>
  <property name="meta.media.0.codec.name">mpeg2video</property>
  <property name="meta.media.0.codec.long_name">MPEG-2 video</property>
  <property name="meta.media.0.codec.bit_rate">0</property>
  <property name="meta.media.1.stream.type">audio</property>
  <property name="meta.media.1.codec.sample_fmt">s16p</property>
  <property name="meta.media.1.codec.sample_rate">24000</property>
  <property name="meta.media.1.codec.channels">1</property>
  <property name="meta.media.1.codec.name">mp2</property>
  <property name="meta.media.1.codec.long_name">MP2 (MPEG audio layer 2)</property>
  <property name="meta.media.1.codec.bit_rate">128000</property>
  <property name="seekable">1</property>
  <property name="meta.media.sample_aspect_num">1</property>
  <property name="meta.media.sample_aspect_den">1</property>
  <property name="aspect_ratio">1</property>
  <property name="audio_index">1</property>
  <property name="video_index">0</property>
  <property name="mute_on_pause">1</property>
  <property name="mlt_service">avformat</property>
  <property name="meta.media.0.codec.color_trc">4</property>
  <property name="meta.attr.0.stream.creation_time.markup">2017-08-19T17:09:50.000000Z</property>
  <property name="meta.attr.0.stream.language.markup">eng</property>
  <property name="meta.attr.1.stream.creation_time.markup">2017-08-19T17:09:50.000000Z</property>
  <property name="meta.attr.1.stream.language.markup">eng</property>
  <property name="meta.attr.major_brand.markup">qt  </property>
  <property name="meta.attr.minor_version.markup">537331968</property>
  <property name="meta.attr.compatible_brands.markup">qt  niko</property>
  <property name="meta.attr.creation_time.markup">2017-08-19T17:09:50.000000Z</property>
  <property name="meta.media.frame_rate_num">25</property>
  <property name="meta.media.frame_rate_den">1</property>
  <property name="meta.media.colorspace">601</property>
  <property name="meta.media.color_trc">2</property>
  <property name="meta.media.width">640</property>
  <property name="meta.media.height">360</property>
  <property name="meta.media.top_field_first">0</property>
  <property name="meta.media.progressive">1</property>
  <property name="kdenlive:file_size">35222343</property>
  <property name="kdenlive:file_hash">27e87d37a365b64adb3c20ccb543281b</property>
  <property name="kdenlive:proxy">/home/nicolas/.cache/kdenlive/proxy/27e87d37a365b64adb3c20ccb543281b.mpg</property>
  <property name="proxy_out">620</property>
  <property name="kdenlive:originalurl">2DSC_0027.MOV</property>
  <property name="global_feed">1</property>
  <property name="kdenlive:meta.media.nb_streams">2</property>
  <property name="kdenlive:meta.media.0.stream.type">video</property>
  <property name="kdenlive:meta.media.0.stream.frame_rate">25</property>
  <property name="kdenlive:meta.media.0.stream.sample_aspect_ratio">0</property>
  <property name="kdenlive:meta.media.0.codec.width">1280</property>
  <property name="kdenlive:meta.media.0.codec.height">720</property>
  <property name="kdenlive:meta.media.0.codec.rotate">0</property>
  <property name="kdenlive:meta.media.0.codec.frame_rate">25</property>
  <property name="kdenlive:meta.media.0.codec.pix_fmt">yuvj420p</property>
  <property name="kdenlive:meta.media.0.codec.sample_aspect_ratio">1</property>
  <property name="kdenlive:meta.media.0.codec.colorspace">601</property>
  <property name="kdenlive:meta.media.0.codec.color_trc">4</property>
  <property name="kdenlive:meta.media.0.codec.name">h264</property>
  <property name="kdenlive:meta.media.0.codec.long_name">H.264 / AVC / MPEG-4 AVC / MPEG-4 part 10</property>
  <property name="kdenlive:meta.media.0.codec.bit_rate">10918550</property>
  <property name="kdenlive:meta.attr.0.stream.creation_time.markup">2017-08-19T17:09:50.000000Z</property>
  <property name="kdenlive:meta.attr.0.stream.language.markup">eng</property>
  <property name="kdenlive:meta.media.1.stream.type">audio</property>
  <property name="kdenlive:meta.media.1.codec.sample_fmt">s16</property>
  <property name="kdenlive:meta.media.1.codec.sample_rate">24000</property>
  <property name="kdenlive:meta.media.1.codec.channels">1</property>
  <property name="kdenlive:meta.media.1.codec.name">pcm_s16le</property>
  <property name="kdenlive:meta.media.1.codec.long_name">PCM signed 16-bit little-endian</property>
  <property name="kdenlive:meta.media.1.codec.bit_rate">384000</property>
  <property name="kdenlive:meta.attr.1.stream.creation_time.markup">2017-08-19T17:09:50.000000Z</property>
  <property name="kdenlive:meta.attr.1.stream.language.markup">eng</property>
  <property name="kdenlive:meta.attr.major_brand.markup">qt  </property>
  <property name="kdenlive:meta.attr.minor_version.markup">537331968</property>
  <property name="kdenlive:meta.attr.compatible_brands.markup">qt  niko</property>
  <property name="kdenlive:meta.attr.creation_time.markup">2017-08-19T17:09:50.000000Z</property>
  <property name="kdenlive:meta.media.sample_aspect_num">1</property>
  <property name="kdenlive:meta.media.sample_aspect_den">1</property>
  <property name="kdenlive:meta.media.frame_rate_num">25</property>
  <property name="kdenlive:meta.media.frame_rate_den">1</property>
  <property name="kdenlive:meta.media.colorspace">601</property>
  <property name="kdenlive:meta.media.color_trc">4</property>
  <property name="kdenlive:meta.media.width">1280</property>
  <property name="kdenlive:meta.media.height">720</property>
  <property name="kdenlive:meta.media.top_field_first">0</property>
  <property name="kdenlive:meta.media.progressive">1</property>
 </producer>
 <producer id="70" title="Anonymous Submission" out="1586" in="0">
  <property name="length">00:01:03:12</property>
  <property name="eof">pause</property>
  <property name="resource">/home/nicolas/.cache/kdenlive/proxy/013a9c24c87c3603a1d2aa15630942be.mpg</property>
  <property name="meta.media.nb_streams">2</property>
  <property name="meta.media.0.stream.type">video</property>
  <property name="meta.media.0.stream.frame_rate">25</property>
  <property name="meta.media.0.stream.sample_aspect_ratio">0</property>
  <property name="meta.media.0.codec.width">640</property>
  <property name="meta.media.0.codec.height">360</property>
  <property name="meta.media.0.codec.rotate">0</property>
  <property name="meta.media.0.codec.frame_rate">25</property>
  <property name="meta.media.0.codec.pix_fmt">yuv420p</property>
  <property name="meta.media.0.codec.sample_aspect_ratio">1</property>
  <property name="meta.media.0.codec.colorspace">601</property>
  <property name="meta.media.0.codec.name">mpeg2video</property>
  <property name="meta.media.0.codec.long_name">MPEG-2 video</property>
  <property name="meta.media.0.codec.bit_rate">0</property>
  <property name="meta.media.1.stream.type">audio</property>
  <property name="meta.media.1.codec.sample_fmt">s16p</property>
  <property name="meta.media.1.codec.sample_rate">24000</property>
  <property name="meta.media.1.codec.channels">1</property>
  <property name="meta.media.1.codec.name">mp2</property>
  <property name="meta.media.1.codec.long_name">MP2 (MPEG audio layer 2)</property>
  <property name="meta.media.1.codec.bit_rate">128000</property>
  <property name="seekable">1</property>
  <property name="meta.media.sample_aspect_num">1</property>
  <property name="meta.media.sample_aspect_den">1</property>
  <property name="aspect_ratio">1</property>
  <property name="audio_index">1</property>
  <property name="video_index">0</property>
  <property name="mute_on_pause">1</property>
  <property name="mlt_service">avformat</property>
  <property name="meta.media.0.codec.color_trc">4</property>
  <property name="meta.attr.0.stream.creation_time.markup">2017-08-20T16:41:12.000000Z</property>
  <property name="meta.attr.0.stream.language.markup">eng</property>
  <property name="meta.attr.1.stream.creation_time.markup">2017-08-20T16:41:12.000000Z</property>
  <property name="meta.attr.1.stream.language.markup">eng</property>
  <property name="meta.attr.major_brand.markup">qt  </property>
  <property name="meta.attr.minor_version.markup">537331968</property>
  <property name="meta.attr.compatible_brands.markup">qt  niko</property>
  <property name="meta.attr.creation_time.markup">2017-08-20T16:41:12.000000Z</property>
  <property name="meta.media.frame_rate_num">25</property>
  <property name="meta.media.frame_rate_den">1</property>
  <property name="meta.media.colorspace">601</property>
  <property name="meta.media.color_trc">2</property>
  <property name="meta.media.width">640</property>
  <property name="meta.media.height">360</property>
  <property name="meta.media.top_field_first">0</property>
  <property name="meta.media.progressive">1</property>
  <property name="kdenlive:file_size">87363454</property>
  <property name="kdenlive:file_hash">013a9c24c87c3603a1d2aa15630942be</property>
  <property name="kdenlive:proxy">/home/nicolas/.cache/kdenlive/proxy/013a9c24c87c3603a1d2aa15630942be.mpg</property>
  <property name="proxy_out">1586</property>
  <property name="kdenlive:originalurl">3DSC_0120.MOV</property>
  <property name="global_feed">1</property>
  <property name="kdenlive:meta.media.nb_streams">2</property>
  <property name="kdenlive:meta.media.0.stream.type">video</property>
  <property name="kdenlive:meta.media.0.stream.frame_rate">25</property>
  <property name="kdenlive:meta.media.0.stream.sample_aspect_ratio">0</property>
  <property name="kdenlive:meta.media.0.codec.width">1280</property>
  <property name="kdenlive:meta.media.0.codec.height">720</property>
  <property name="kdenlive:meta.media.0.codec.rotate">0</property>
  <property name="kdenlive:meta.media.0.codec.frame_rate">25</property>
  <property name="kdenlive:meta.media.0.codec.pix_fmt">yuvj420p</property>
  <property name="kdenlive:meta.media.0.codec.sample_aspect_ratio">1</property>
  <property name="kdenlive:meta.media.0.codec.colorspace">601</property>
  <property name="kdenlive:meta.media.0.codec.color_trc">4</property>
  <property name="kdenlive:meta.media.0.codec.name">h264</property>
  <property name="kdenlive:meta.media.0.codec.long_name">H.264 / AVC / MPEG-4 AVC / MPEG-4 part 10</property>
  <property name="kdenlive:meta.media.0.codec.bit_rate">10609127</property>
  <property name="kdenlive:meta.attr.0.stream.creation_time.markup">2017-08-20T16:41:12.000000Z</property>
  <property name="kdenlive:meta.attr.0.stream.language.markup">eng</property>
  <property name="kdenlive:meta.media.1.stream.type">audio</property>
  <property name="kdenlive:meta.media.1.codec.sample_fmt">s16</property>
  <property name="kdenlive:meta.media.1.codec.sample_rate">24000</property>
  <property name="kdenlive:meta.media.1.codec.channels">1</property>
  <property name="kdenlive:meta.media.1.codec.name">pcm_s16le</property>
  <property name="kdenlive:meta.media.1.codec.long_name">PCM signed 16-bit little-endian</property>
  <property name="kdenlive:meta.media.1.codec.bit_rate">384000</property>
  <property name="kdenlive:meta.attr.1.stream.creation_time.markup">2017-08-20T16:41:12.000000Z</property>
  <property name="kdenlive:meta.attr.1.stream.language.markup">eng</property>
  <property name="kdenlive:meta.attr.major_brand.markup">qt  </property>
  <property name="kdenlive:meta.attr.minor_version.markup">537331968</property>
  <property name="kdenlive:meta.attr.compatible_brands.markup">qt  niko</property>
  <property name="kdenlive:meta.attr.creation_time.markup">2017-08-20T16:41:12.000000Z</property>
  <property name="kdenlive:meta.media.sample_aspect_num">1</property>
  <property name="kdenlive:meta.media.sample_aspect_den">1</property>
  <property name="kdenlive:meta.media.frame_rate_num">25</property>
  <property name="kdenlive:meta.media.frame_rate_den">1</property>
  <property name="kdenlive:meta.media.colorspace">601</property>
  <property name="kdenlive:meta.media.color_trc">4</property>
  <property name="kdenlive:meta.media.width">1280</property>
  <property name="kdenlive:meta.media.height">720</property>
  <property name="kdenlive:meta.media.top_field_first">0</property>
  <property name="kdenlive:meta.media.progressive">1</property>
 </producer>
 <producer id="73" title="Anonymous Submission" out="132" in="0">
  <property name="length">133</property>
  <property name="eof">pause</property>
  <property name="resource">/home/nicolas/.cache/kdenlive/proxy/391795586ad5aae7923f3e55d8f131d7.png</property>
  <property name="ttl">25</property>
  <property name="aspect_ratio">1</property>
  <property name="progressive">1</property>
  <property name="seekable">1</property>
  <property name="loop">1</property>
  <property name="meta.media.width">4000</property>
  <property name="meta.media.height">2500</property>
  <property name="mlt_service">pixbuf</property>
  <property name="kdenlive:folderid">1</property>
  <property name="kdenlive:duration">125</property>
  <property name="kdenlive:file_size">89095</property>
  <property name="kdenlive:file_hash">391795586ad5aae7923f3e55d8f131d7</property>
  <property name="kdenlive:proxy">/home/nicolas/.cache/kdenlive/proxy/391795586ad5aae7923f3e55d8f131d7.png</property>
  <property name="proxy_out">124</property>
  <property name="kdenlive:originalurl">/home/nicolas/Documents/Projets Musique/Barons Freaks/COURTS METRAGES - MAIN/COURTS METRAGES/Diaphragme_grand.png</property>
  <property name="global_feed">1</property>
  <property name="kdenlive:meta.media.width">4000</property>
  <property name="kdenlive:meta.media.height">2500</property>
 </producer>
 <producer id="75" title="Anonymous Submission" out="3014" in="0">
  <property name="length">00:02:00:15</property>
  <property name="eof">pause</property>
  <property name="resource">/home/nicolas/.cache/kdenlive/proxy/46c43ac37d8ac4639fc8e88c426858c9.mpg</property>
  <property name="meta.media.nb_streams">2</property>
  <property name="meta.media.0.stream.type">video</property>
  <property name="meta.media.0.stream.frame_rate">25</property>
  <property name="meta.media.0.stream.sample_aspect_ratio">0</property>
  <property name="meta.media.0.codec.width">640</property>
  <property name="meta.media.0.codec.height">360</property>
  <property name="meta.media.0.codec.rotate">0</property>
  <property name="meta.media.0.codec.frame_rate">25</property>
  <property name="meta.media.0.codec.pix_fmt">yuv420p</property>
  <property name="meta.media.0.codec.sample_aspect_ratio">1</property>
  <property name="meta.media.0.codec.colorspace">601</property>
  <property name="meta.media.0.codec.name">mpeg2video</property>
  <property name="meta.media.0.codec.long_name">MPEG-2 video</property>
  <property name="meta.media.0.codec.bit_rate">0</property>
  <property name="meta.media.1.stream.type">audio</property>
  <property name="meta.media.1.codec.sample_fmt">s16p</property>
  <property name="meta.media.1.codec.sample_rate">24000</property>
  <property name="meta.media.1.codec.channels">1</property>
  <property name="meta.media.1.codec.name">mp2</property>
  <property name="meta.media.1.codec.long_name">MP2 (MPEG audio layer 2)</property>
  <property name="meta.media.1.codec.bit_rate">128000</property>
  <property name="seekable">1</property>
  <property name="meta.media.sample_aspect_num">1</property>
  <property name="meta.media.sample_aspect_den">1</property>
  <property name="aspect_ratio">1</property>
  <property name="audio_index">1</property>
  <property name="video_index">0</property>
  <property name="mute_on_pause">1</property>
  <property name="mlt_service">avformat</property>
  <property name="meta.media.0.codec.color_trc">4</property>
  <property name="meta.attr.0.stream.creation_time.markup">2017-08-20T14:46:07.000000Z</property>
  <property name="meta.attr.0.stream.language.markup">eng</property>
  <property name="meta.attr.1.stream.creation_time.markup">2017-08-20T14:46:07.000000Z</property>
  <property name="meta.attr.1.stream.language.markup">eng</property>
  <property name="meta.attr.major_brand.markup">qt  </property>
  <property name="meta.attr.minor_version.markup">537331968</property>
  <property name="meta.attr.compatible_brands.markup">qt  niko</property>
  <property name="meta.attr.creation_time.markup">2017-08-20T14:46:07.000000Z</property>
  <property name="meta.media.frame_rate_num">25</property>
  <property name="meta.media.frame_rate_den">1</property>
  <property name="meta.media.colorspace">601</property>
  <property name="meta.media.color_trc">2</property>
  <property name="meta.media.width">640</property>
  <property name="meta.media.height">360</property>
  <property name="meta.media.top_field_first">0</property>
  <property name="meta.media.progressive">1</property>
  <property name="kdenlive:file_size">163071898</property>
  <property name="kdenlive:file_hash">46c43ac37d8ac4639fc8e88c426858c9</property>
  <property name="kdenlive:proxy">/home/nicolas/.cache/kdenlive/proxy/46c43ac37d8ac4639fc8e88c426858c9.mpg</property>
  <property name="proxy_out">3014</property>
  <property name="kdenlive:originalurl">3DSC_0087.MOV</property>
  <property name="global_feed">1</property>
  <property name="kdenlive:meta.media.nb_streams">2</property>
  <property name="kdenlive:meta.media.0.stream.type">video</property>
  <property name="kdenlive:meta.media.0.stream.frame_rate">25</property>
  <property name="kdenlive:meta.media.0.stream.sample_aspect_ratio">0</property>
  <property name="kdenlive:meta.media.0.codec.width">1280</property>
  <property name="kdenlive:meta.media.0.codec.height">720</property>
  <property name="kdenlive:meta.media.0.codec.rotate">0</property>
  <property name="kdenlive:meta.media.0.codec.frame_rate">25</property>
  <property name="kdenlive:meta.media.0.codec.pix_fmt">yuvj420p</property>
  <property name="kdenlive:meta.media.0.codec.sample_aspect_ratio">1</property>
  <property name="kdenlive:meta.media.0.codec.colorspace">601</property>
  <property name="kdenlive:meta.media.0.codec.color_trc">4</property>
  <property name="kdenlive:meta.media.0.codec.name">h264</property>
  <property name="kdenlive:meta.media.0.codec.long_name">H.264 / AVC / MPEG-4 AVC / MPEG-4 part 10</property>
  <property name="kdenlive:meta.media.0.codec.bit_rate">10423459</property>
  <property name="kdenlive:meta.attr.0.stream.creation_time.markup">2017-08-20T14:46:07.000000Z</property>
  <property name="kdenlive:meta.attr.0.stream.language.markup">eng</property>
  <property name="kdenlive:meta.media.1.stream.type">audio</property>
  <property name="kdenlive:meta.media.1.codec.sample_fmt">s16</property>
  <property name="kdenlive:meta.media.1.codec.sample_rate">24000</property>
  <property name="kdenlive:meta.media.1.codec.channels">1</property>
  <property name="kdenlive:meta.media.1.codec.name">pcm_s16le</property>
  <property name="kdenlive:meta.media.1.codec.long_name">PCM signed 16-bit little-endian</property>
  <property name="kdenlive:meta.media.1.codec.bit_rate">384000</property>
  <property name="kdenlive:meta.attr.1.stream.creation_time.markup">2017-08-20T14:46:07.000000Z</property>
  <property name="kdenlive:meta.attr.1.stream.language.markup">eng</property>
  <property name="kdenlive:meta.attr.major_brand.markup">qt  </property>
  <property name="kdenlive:meta.attr.minor_version.markup">537331968</property>
  <property name="kdenlive:meta.attr.compatible_brands.markup">qt  niko</property>
  <property name="kdenlive:meta.attr.creation_time.markup">2017-08-20T14:46:07.000000Z</property>
  <property name="kdenlive:meta.media.sample_aspect_num">1</property>
  <property name="kdenlive:meta.media.sample_aspect_den">1</property>
  <property name="kdenlive:meta.media.frame_rate_num">25</property>
  <property name="kdenlive:meta.media.frame_rate_den">1</property>
  <property name="kdenlive:meta.media.colorspace">601</property>
  <property name="kdenlive:meta.media.color_trc">4</property>
  <property name="kdenlive:meta.media.width">1280</property>
  <property name="kdenlive:meta.media.height">720</property>
  <property name="kdenlive:meta.media.top_field_first">0</property>
  <property name="kdenlive:meta.media.progressive">1</property>
 </producer>
 <producer id="76" title="Anonymous Submission" out="215" in="0">
  <property name="length">00:00:08:16</property>
  <property name="eof">pause</property>
  <property name="resource">/home/nicolas/.cache/kdenlive/proxy/7186ca928785d681713a3fbed7d0f304.mpg</property>
  <property name="meta.media.nb_streams">2</property>
  <property name="meta.media.0.stream.type">video</property>
  <property name="meta.media.0.stream.frame_rate">25</property>
  <property name="meta.media.0.stream.sample_aspect_ratio">0</property>
  <property name="meta.media.0.codec.width">640</property>
  <property name="meta.media.0.codec.height">360</property>
  <property name="meta.media.0.codec.rotate">0</property>
  <property name="meta.media.0.codec.frame_rate">25</property>
  <property name="meta.media.0.codec.pix_fmt">yuv420p</property>
  <property name="meta.media.0.codec.sample_aspect_ratio">1</property>
  <property name="meta.media.0.codec.colorspace">601</property>
  <property name="meta.media.0.codec.name">mpeg2video</property>
  <property name="meta.media.0.codec.long_name">MPEG-2 video</property>
  <property name="meta.media.0.codec.bit_rate">0</property>
  <property name="meta.media.1.stream.type">audio</property>
  <property name="meta.media.1.codec.sample_fmt">s16p</property>
  <property name="meta.media.1.codec.sample_rate">24000</property>
  <property name="meta.media.1.codec.channels">1</property>
  <property name="meta.media.1.codec.name">mp2</property>
  <property name="meta.media.1.codec.long_name">MP2 (MPEG audio layer 2)</property>
  <property name="meta.media.1.codec.bit_rate">128000</property>
  <property name="seekable">1</property>
  <property name="meta.media.sample_aspect_num">1</property>
  <property name="meta.media.sample_aspect_den">1</property>
  <property name="aspect_ratio">1</property>
  <property name="audio_index">1</property>
  <property name="video_index">0</property>
  <property name="mute_on_pause">1</property>
  <property name="mlt_service">avformat</property>
  <property name="meta.media.0.codec.color_trc">4</property>
  <property name="meta.attr.0.stream.creation_time.markup">2017-08-20T14:52:06.000000Z</property>
  <property name="meta.attr.0.stream.language.markup">eng</property>
  <property name="meta.attr.1.stream.creation_time.markup">2017-08-20T14:52:06.000000Z</property>
  <property name="meta.attr.1.stream.language.markup">eng</property>
  <property name="meta.attr.major_brand.markup">qt  </property>
  <property name="meta.attr.minor_version.markup">537331968</property>
  <property name="meta.attr.compatible_brands.markup">qt  niko</property>
  <property name="meta.attr.creation_time.markup">2017-08-20T14:52:06.000000Z</property>
  <property name="meta.media.frame_rate_num">25</property>
  <property name="meta.media.frame_rate_den">1</property>
  <property name="meta.media.colorspace">601</property>
  <property name="meta.media.color_trc">2</property>
  <property name="meta.media.width">640</property>
  <property name="meta.media.height">360</property>
  <property name="meta.media.top_field_first">0</property>
  <property name="meta.media.progressive">1</property>
  <property name="kdenlive:file_size">11856524</property>
  <property name="kdenlive:file_hash">7186ca928785d681713a3fbed7d0f304</property>
  <property name="kdenlive:proxy">/home/nicolas/.cache/kdenlive/proxy/7186ca928785d681713a3fbed7d0f304.mpg</property>
  <property name="proxy_out">215</property>
  <property name="kdenlive:originalurl">3DSC_0090.MOV</property>
  <property name="global_feed">1</property>
  <property name="kdenlive:meta.media.nb_streams">2</property>
  <property name="kdenlive:meta.media.0.stream.type">video</property>
  <property name="kdenlive:meta.media.0.stream.frame_rate">25</property>
  <property name="kdenlive:meta.media.0.stream.sample_aspect_ratio">0</property>
  <property name="kdenlive:meta.media.0.codec.width">1280</property>
  <property name="kdenlive:meta.media.0.codec.height">720</property>
  <property name="kdenlive:meta.media.0.codec.rotate">0</property>
  <property name="kdenlive:meta.media.0.codec.frame_rate">25</property>
  <property name="kdenlive:meta.media.0.codec.pix_fmt">yuvj420p</property>
  <property name="kdenlive:meta.media.0.codec.sample_aspect_ratio">1</property>
  <property name="kdenlive:meta.media.0.codec.colorspace">601</property>
  <property name="kdenlive:meta.media.0.codec.color_trc">4</property>
  <property name="kdenlive:meta.media.0.codec.name">h264</property>
  <property name="kdenlive:meta.media.0.codec.long_name">H.264 / AVC / MPEG-4 AVC / MPEG-4 part 10</property>
  <property name="kdenlive:meta.media.0.codec.bit_rate">10490567</property>
  <property name="kdenlive:meta.attr.0.stream.creation_time.markup">2017-08-20T14:52:06.000000Z</property>
  <property name="kdenlive:meta.attr.0.stream.language.markup">eng</property>
  <property name="kdenlive:meta.media.1.stream.type">audio</property>
  <property name="kdenlive:meta.media.1.codec.sample_fmt">s16</property>
  <property name="kdenlive:meta.media.1.codec.sample_rate">24000</property>
  <property name="kdenlive:meta.media.1.codec.channels">1</property>
  <property name="kdenlive:meta.media.1.codec.name">pcm_s16le</property>
  <property name="kdenlive:meta.media.1.codec.long_name">PCM signed 16-bit little-endian</property>
  <property name="kdenlive:meta.media.1.codec.bit_rate">384000</property>
  <property name="kdenlive:meta.attr.1.stream.creation_time.markup">2017-08-20T14:52:06.000000Z</property>
  <property name="kdenlive:meta.attr.1.stream.language.markup">eng</property>
  <property name="kdenlive:meta.attr.major_brand.markup">qt  </property>
  <property name="kdenlive:meta.attr.minor_version.markup">537331968</property>
  <property name="kdenlive:meta.attr.compatible_brands.markup">qt  niko</property>
  <property name="kdenlive:meta.attr.creation_time.markup">2017-08-20T14:52:06.000000Z</property>
  <property name="kdenlive:meta.media.sample_aspect_num">1</property>
  <property name="kdenlive:meta.media.sample_aspect_den">1</property>
  <property name="kdenlive:meta.media.frame_rate_num">25</property>
  <property name="kdenlive:meta.media.frame_rate_den">1</property>
  <property name="kdenlive:meta.media.colorspace">601</property>
  <property name="kdenlive:meta.media.color_trc">4</property>
  <property name="kdenlive:meta.media.width">1280</property>
  <property name="kdenlive:meta.media.height">720</property>
  <property name="kdenlive:meta.media.top_field_first">0</property>
  <property name="kdenlive:meta.media.progressive">1</property>
 </producer>
 <producer id="77" title="Anonymous Submission" out="365" in="0">
  <property name="length">00:00:14:16</property>
  <property name="eof">pause</property>
  <property name="resource">/home/nicolas/.cache/kdenlive/proxy/a820721e6ea2ec2ea4a26fb0f04ea9d3.mpg</property>
  <property name="meta.media.nb_streams">2</property>
  <property name="meta.media.0.stream.type">video</property>
  <property name="meta.media.0.stream.frame_rate">25</property>
  <property name="meta.media.0.stream.sample_aspect_ratio">0</property>
  <property name="meta.media.0.codec.width">640</property>
  <property name="meta.media.0.codec.height">360</property>
  <property name="meta.media.0.codec.rotate">0</property>
  <property name="meta.media.0.codec.frame_rate">25</property>
  <property name="meta.media.0.codec.pix_fmt">yuv420p</property>
  <property name="meta.media.0.codec.sample_aspect_ratio">1</property>
  <property name="meta.media.0.codec.colorspace">601</property>
  <property name="meta.media.0.codec.name">mpeg2video</property>
  <property name="meta.media.0.codec.long_name">MPEG-2 video</property>
  <property name="meta.media.0.codec.bit_rate">0</property>
  <property name="meta.media.1.stream.type">audio</property>
  <property name="meta.media.1.codec.sample_fmt">s16p</property>
  <property name="meta.media.1.codec.sample_rate">24000</property>
  <property name="meta.media.1.codec.channels">1</property>
  <property name="meta.media.1.codec.name">mp2</property>
  <property name="meta.media.1.codec.long_name">MP2 (MPEG audio layer 2)</property>
  <property name="meta.media.1.codec.bit_rate">128000</property>
  <property name="seekable">1</property>
  <property name="meta.media.sample_aspect_num">1</property>
  <property name="meta.media.sample_aspect_den">1</property>
  <property name="aspect_ratio">1</property>
  <property name="audio_index">1</property>
  <property name="video_index">0</property>
  <property name="mute_on_pause">1</property>
  <property name="mlt_service">avformat</property>
  <property name="meta.media.0.codec.color_trc">4</property>
  <property name="meta.attr.0.stream.creation_time.markup">2017-08-20T15:06:11.000000Z</property>
  <property name="meta.attr.0.stream.language.markup">eng</property>
  <property name="meta.attr.1.stream.creation_time.markup">2017-08-20T15:06:11.000000Z</property>
  <property name="meta.attr.1.stream.language.markup">eng</property>
  <property name="meta.attr.major_brand.markup">qt  </property>
  <property name="meta.attr.minor_version.markup">537331968</property>
  <property name="meta.attr.compatible_brands.markup">qt  niko</property>
  <property name="meta.attr.creation_time.markup">2017-08-20T15:06:11.000000Z</property>
  <property name="meta.media.frame_rate_num">25</property>
  <property name="meta.media.frame_rate_den">1</property>
  <property name="meta.media.colorspace">601</property>
  <property name="meta.media.color_trc">2</property>
  <property name="meta.media.width">640</property>
  <property name="meta.media.height">360</property>
  <property name="meta.media.top_field_first">0</property>
  <property name="meta.media.progressive">1</property>
  <property name="kdenlive:file_size">20049587</property>
  <property name="kdenlive:file_hash">a820721e6ea2ec2ea4a26fb0f04ea9d3</property>
  <property name="kdenlive:proxy">/home/nicolas/.cache/kdenlive/proxy/a820721e6ea2ec2ea4a26fb0f04ea9d3.mpg</property>
  <property name="proxy_out">365</property>
  <property name="kdenlive:originalurl">3DSC_0094.MOV</property>
  <property name="global_feed">1</property>
  <property name="kdenlive:meta.media.nb_streams">2</property>
  <property name="kdenlive:meta.media.0.stream.type">video</property>
  <property name="kdenlive:meta.media.0.stream.frame_rate">25</property>
  <property name="kdenlive:meta.media.0.stream.sample_aspect_ratio">0</property>
  <property name="kdenlive:meta.media.0.codec.width">1280</property>
  <property name="kdenlive:meta.media.0.codec.height">720</property>
  <property name="kdenlive:meta.media.0.codec.rotate">0</property>
  <property name="kdenlive:meta.media.0.codec.frame_rate">25</property>
  <property name="kdenlive:meta.media.0.codec.pix_fmt">yuvj420p</property>
  <property name="kdenlive:meta.media.0.codec.sample_aspect_ratio">1</property>
  <property name="kdenlive:meta.media.0.codec.colorspace">601</property>
  <property name="kdenlive:meta.media.0.codec.color_trc">4</property>
  <property name="kdenlive:meta.media.0.codec.name">h264</property>
  <property name="kdenlive:meta.media.0.codec.long_name">H.264 / AVC / MPEG-4 AVC / MPEG-4 part 10</property>
  <property name="kdenlive:meta.media.0.codec.bit_rate">10509475</property>
  <property name="kdenlive:meta.attr.0.stream.creation_time.markup">2017-08-20T15:06:11.000000Z</property>
  <property name="kdenlive:meta.attr.0.stream.language.markup">eng</property>
  <property name="kdenlive:meta.media.1.stream.type">audio</property>
  <property name="kdenlive:meta.media.1.codec.sample_fmt">s16</property>
  <property name="kdenlive:meta.media.1.codec.sample_rate">24000</property>
  <property name="kdenlive:meta.media.1.codec.channels">1</property>
  <property name="kdenlive:meta.media.1.codec.name">pcm_s16le</property>
  <property name="kdenlive:meta.media.1.codec.long_name">PCM signed 16-bit little-endian</property>
  <property name="kdenlive:meta.media.1.codec.bit_rate">384000</property>
  <property name="kdenlive:meta.attr.1.stream.creation_time.markup">2017-08-20T15:06:11.000000Z</property>
  <property name="kdenlive:meta.attr.1.stream.language.markup">eng</property>
  <property name="kdenlive:meta.attr.major_brand.markup">qt  </property>
  <property name="kdenlive:meta.attr.minor_version.markup">537331968</property>
  <property name="kdenlive:meta.attr.compatible_brands.markup">qt  niko</property>
  <property name="kdenlive:meta.attr.creation_time.markup">2017-08-20T15:06:11.000000Z</property>
  <property name="kdenlive:meta.media.sample_aspect_num">1</property>
  <property name="kdenlive:meta.media.sample_aspect_den">1</property>
  <property name="kdenlive:meta.media.frame_rate_num">25</property>
  <property name="kdenlive:meta.media.frame_rate_den">1</property>
  <property name="kdenlive:meta.media.colorspace">601</property>
  <property name="kdenlive:meta.media.color_trc">4</property>
  <property name="kdenlive:meta.media.width">1280</property>
  <property name="kdenlive:meta.media.height">720</property>
  <property name="kdenlive:meta.media.top_field_first">0</property>
  <property name="kdenlive:meta.media.progressive">1</property>
 </producer>
 <producer id="78" title="Anonymous Submission" out="776" in="0">
  <property name="length">00:00:31:02</property>
  <property name="eof">pause</property>
  <property name="resource">/home/nicolas/.cache/kdenlive/proxy/1997d659ada06adeaec03c8e7a998847.mpg</property>
  <property name="meta.media.nb_streams">2</property>
  <property name="meta.media.0.stream.type">video</property>
  <property name="meta.media.0.stream.frame_rate">25</property>
  <property name="meta.media.0.stream.sample_aspect_ratio">0</property>
  <property name="meta.media.0.codec.width">640</property>
  <property name="meta.media.0.codec.height">360</property>
  <property name="meta.media.0.codec.rotate">0</property>
  <property name="meta.media.0.codec.frame_rate">25</property>
  <property name="meta.media.0.codec.pix_fmt">yuv420p</property>
  <property name="meta.media.0.codec.sample_aspect_ratio">1</property>
  <property name="meta.media.0.codec.colorspace">601</property>
  <property name="meta.media.0.codec.name">mpeg2video</property>
  <property name="meta.media.0.codec.long_name">MPEG-2 video</property>
  <property name="meta.media.0.codec.bit_rate">0</property>
  <property name="meta.media.1.stream.type">audio</property>
  <property name="meta.media.1.codec.sample_fmt">s16p</property>
  <property name="meta.media.1.codec.sample_rate">24000</property>
  <property name="meta.media.1.codec.channels">1</property>
  <property name="meta.media.1.codec.name">mp2</property>
  <property name="meta.media.1.codec.long_name">MP2 (MPEG audio layer 2)</property>
  <property name="meta.media.1.codec.bit_rate">128000</property>
  <property name="seekable">1</property>
  <property name="meta.media.sample_aspect_num">1</property>
  <property name="meta.media.sample_aspect_den">1</property>
  <property name="aspect_ratio">1</property>
  <property name="audio_index">1</property>
  <property name="video_index">0</property>
  <property name="mute_on_pause">1</property>
  <property name="mlt_service">avformat</property>
  <property name="meta.media.0.codec.color_trc">4</property>
  <property name="meta.attr.0.stream.creation_time.markup">2017-08-20T15:09:46.000000Z</property>
  <property name="meta.attr.0.stream.language.markup">eng</property>
  <property name="meta.attr.1.stream.creation_time.markup">2017-08-20T15:09:46.000000Z</property>
  <property name="meta.attr.1.stream.language.markup">eng</property>
  <property name="meta.attr.major_brand.markup">qt  </property>
  <property name="meta.attr.minor_version.markup">537331968</property>
  <property name="meta.attr.compatible_brands.markup">qt  niko</property>
  <property name="meta.attr.creation_time.markup">2017-08-20T15:09:46.000000Z</property>
  <property name="meta.media.frame_rate_num">25</property>
  <property name="meta.media.frame_rate_den">1</property>
  <property name="meta.media.colorspace">601</property>
  <property name="meta.media.color_trc">2</property>
  <property name="meta.media.width">640</property>
  <property name="meta.media.height">360</property>
  <property name="meta.media.top_field_first">0</property>
  <property name="meta.media.progressive">1</property>
  <property name="kdenlive:file_size">42341853</property>
  <property name="kdenlive:file_hash">1997d659ada06adeaec03c8e7a998847</property>
  <property name="kdenlive:proxy">/home/nicolas/.cache/kdenlive/proxy/1997d659ada06adeaec03c8e7a998847.mpg</property>
  <property name="proxy_out">776</property>
  <property name="kdenlive:originalurl">3DSC_0096.MOV</property>
  <property name="global_feed">1</property>
  <property name="kdenlive:meta.media.nb_streams">2</property>
  <property name="kdenlive:meta.media.0.stream.type">video</property>
  <property name="kdenlive:meta.media.0.stream.frame_rate">25</property>
  <property name="kdenlive:meta.media.0.stream.sample_aspect_ratio">0</property>
  <property name="kdenlive:meta.media.0.codec.width">1280</property>
  <property name="kdenlive:meta.media.0.codec.height">720</property>
  <property name="kdenlive:meta.media.0.codec.rotate">0</property>
  <property name="kdenlive:meta.media.0.codec.frame_rate">25</property>
  <property name="kdenlive:meta.media.0.codec.pix_fmt">yuvj420p</property>
  <property name="kdenlive:meta.media.0.codec.sample_aspect_ratio">1</property>
  <property name="kdenlive:meta.media.0.codec.colorspace">601</property>
  <property name="kdenlive:meta.media.0.codec.color_trc">4</property>
  <property name="kdenlive:meta.media.0.codec.name">h264</property>
  <property name="kdenlive:meta.media.0.codec.long_name">H.264 / AVC / MPEG-4 AVC / MPEG-4 part 10</property>
  <property name="kdenlive:meta.media.0.codec.bit_rate">10483361</property>
  <property name="kdenlive:meta.attr.0.stream.creation_time.markup">2017-08-20T15:09:46.000000Z</property>
  <property name="kdenlive:meta.attr.0.stream.language.markup">eng</property>
  <property name="kdenlive:meta.media.1.stream.type">audio</property>
  <property name="kdenlive:meta.media.1.codec.sample_fmt">s16</property>
  <property name="kdenlive:meta.media.1.codec.sample_rate">24000</property>
  <property name="kdenlive:meta.media.1.codec.channels">1</property>
  <property name="kdenlive:meta.media.1.codec.name">pcm_s16le</property>
  <property name="kdenlive:meta.media.1.codec.long_name">PCM signed 16-bit little-endian</property>
  <property name="kdenlive:meta.media.1.codec.bit_rate">384000</property>
  <property name="kdenlive:meta.attr.1.stream.creation_time.markup">2017-08-20T15:09:46.000000Z</property>
  <property name="kdenlive:meta.attr.1.stream.language.markup">eng</property>
  <property name="kdenlive:meta.attr.major_brand.markup">qt  </property>
  <property name="kdenlive:meta.attr.minor_version.markup">537331968</property>
  <property name="kdenlive:meta.attr.compatible_brands.markup">qt  niko</property>
  <property name="kdenlive:meta.attr.creation_time.markup">2017-08-20T15:09:46.000000Z</property>
  <property name="kdenlive:meta.media.sample_aspect_num">1</property>
  <property name="kdenlive:meta.media.sample_aspect_den">1</property>
  <property name="kdenlive:meta.media.frame_rate_num">25</property>
  <property name="kdenlive:meta.media.frame_rate_den">1</property>
  <property name="kdenlive:meta.media.colorspace">601</property>
  <property name="kdenlive:meta.media.color_trc">4</property>
  <property name="kdenlive:meta.media.width">1280</property>
  <property name="kdenlive:meta.media.height">720</property>
  <property name="kdenlive:meta.media.top_field_first">0</property>
  <property name="kdenlive:meta.media.progressive">1</property>
 </producer>
 <producer id="79" title="Anonymous Submission" out="353" in="0">
  <property name="length">00:00:14:04</property>
  <property name="eof">pause</property>
  <property name="resource">/home/nicolas/.cache/kdenlive/proxy/1bba7502d68066b108b4202a53c99df5.mpg</property>
  <property name="meta.media.nb_streams">2</property>
  <property name="meta.media.0.stream.type">video</property>
  <property name="meta.media.0.stream.frame_rate">25</property>
  <property name="meta.media.0.stream.sample_aspect_ratio">0</property>
  <property name="meta.media.0.codec.width">640</property>
  <property name="meta.media.0.codec.height">360</property>
  <property name="meta.media.0.codec.rotate">0</property>
  <property name="meta.media.0.codec.frame_rate">25</property>
  <property name="meta.media.0.codec.pix_fmt">yuv420p</property>
  <property name="meta.media.0.codec.sample_aspect_ratio">1</property>
  <property name="meta.media.0.codec.colorspace">601</property>
  <property name="meta.media.0.codec.name">mpeg2video</property>
  <property name="meta.media.0.codec.long_name">MPEG-2 video</property>
  <property name="meta.media.0.codec.bit_rate">0</property>
  <property name="meta.media.1.stream.type">audio</property>
  <property name="meta.media.1.codec.sample_fmt">s16p</property>
  <property name="meta.media.1.codec.sample_rate">24000</property>
  <property name="meta.media.1.codec.channels">1</property>
  <property name="meta.media.1.codec.name">mp2</property>
  <property name="meta.media.1.codec.long_name">MP2 (MPEG audio layer 2)</property>
  <property name="meta.media.1.codec.bit_rate">128000</property>
  <property name="seekable">1</property>
  <property name="meta.media.sample_aspect_num">1</property>
  <property name="meta.media.sample_aspect_den">1</property>
  <property name="aspect_ratio">1</property>
  <property name="audio_index">1</property>
  <property name="video_index">0</property>
  <property name="mute_on_pause">1</property>
  <property name="mlt_service">avformat</property>
  <property name="meta.media.0.codec.color_trc">4</property>
  <property name="meta.attr.0.stream.creation_time.markup">2017-08-20T17:29:42.000000Z</property>
  <property name="meta.attr.0.stream.language.markup">eng</property>
  <property name="meta.attr.1.stream.creation_time.markup">2017-08-20T17:29:42.000000Z</property>
  <property name="meta.attr.1.stream.language.markup">eng</property>
  <property name="meta.attr.major_brand.markup">qt  </property>
  <property name="meta.attr.minor_version.markup">537331968</property>
  <property name="meta.attr.compatible_brands.markup">qt  niko</property>
  <property name="meta.attr.creation_time.markup">2017-08-20T17:29:42.000000Z</property>
  <property name="meta.media.frame_rate_num">25</property>
  <property name="meta.media.frame_rate_den">1</property>
  <property name="meta.media.colorspace">601</property>
  <property name="meta.media.color_trc">2</property>
  <property name="meta.media.width">640</property>
  <property name="meta.media.height">360</property>
  <property name="meta.media.top_field_first">0</property>
  <property name="meta.media.progressive">1</property>
  <property name="kdenlive:file_size">19708511</property>
  <property name="kdenlive:file_hash">1bba7502d68066b108b4202a53c99df5</property>
  <property name="kdenlive:proxy">/home/nicolas/.cache/kdenlive/proxy/1bba7502d68066b108b4202a53c99df5.mpg</property>
  <property name="proxy_out">353</property>
  <property name="kdenlive:originalurl">3DSC_0131.MOV</property>
  <property name="global_feed">1</property>
  <property name="kdenlive:meta.media.nb_streams">2</property>
  <property name="kdenlive:meta.media.0.stream.type">video</property>
  <property name="kdenlive:meta.media.0.stream.frame_rate">25</property>
  <property name="kdenlive:meta.media.0.stream.sample_aspect_ratio">0</property>
  <property name="kdenlive:meta.media.0.codec.width">1280</property>
  <property name="kdenlive:meta.media.0.codec.height">720</property>
  <property name="kdenlive:meta.media.0.codec.rotate">0</property>
  <property name="kdenlive:meta.media.0.codec.frame_rate">25</property>
  <property name="kdenlive:meta.media.0.codec.pix_fmt">yuvj420p</property>
  <property name="kdenlive:meta.media.0.codec.sample_aspect_ratio">1</property>
  <property name="kdenlive:meta.media.0.codec.colorspace">601</property>
  <property name="kdenlive:meta.media.0.codec.color_trc">4</property>
  <property name="kdenlive:meta.media.0.codec.name">h264</property>
  <property name="kdenlive:meta.media.0.codec.long_name">H.264 / AVC / MPEG-4 AVC / MPEG-4 part 10</property>
  <property name="kdenlive:meta.media.0.codec.bit_rate">10684645</property>
  <property name="kdenlive:meta.attr.0.stream.creation_time.markup">2017-08-20T17:29:42.000000Z</property>
  <property name="kdenlive:meta.attr.0.stream.language.markup">eng</property>
  <property name="kdenlive:meta.media.1.stream.type">audio</property>
  <property name="kdenlive:meta.media.1.codec.sample_fmt">s16</property>
  <property name="kdenlive:meta.media.1.codec.sample_rate">24000</property>
  <property name="kdenlive:meta.media.1.codec.channels">1</property>
  <property name="kdenlive:meta.media.1.codec.name">pcm_s16le</property>
  <property name="kdenlive:meta.media.1.codec.long_name">PCM signed 16-bit little-endian</property>
  <property name="kdenlive:meta.media.1.codec.bit_rate">384000</property>
  <property name="kdenlive:meta.attr.1.stream.creation_time.markup">2017-08-20T17:29:42.000000Z</property>
  <property name="kdenlive:meta.attr.1.stream.language.markup">eng</property>
  <property name="kdenlive:meta.attr.major_brand.markup">qt  </property>
  <property name="kdenlive:meta.attr.minor_version.markup">537331968</property>
  <property name="kdenlive:meta.attr.compatible_brands.markup">qt  niko</property>
  <property name="kdenlive:meta.attr.creation_time.markup">2017-08-20T17:29:42.000000Z</property>
  <property name="kdenlive:meta.media.sample_aspect_num">1</property>
  <property name="kdenlive:meta.media.sample_aspect_den">1</property>
  <property name="kdenlive:meta.media.frame_rate_num">25</property>
  <property name="kdenlive:meta.media.frame_rate_den">1</property>
  <property name="kdenlive:meta.media.colorspace">601</property>
  <property name="kdenlive:meta.media.color_trc">4</property>
  <property name="kdenlive:meta.media.width">1280</property>
  <property name="kdenlive:meta.media.height">720</property>
  <property name="kdenlive:meta.media.top_field_first">0</property>
  <property name="kdenlive:meta.media.progressive">1</property>
 </producer>
 <producer id="80" title="Anonymous Submission" out="2891" in="0">
  <property name="length">00:01:55:17</property>
  <property name="eof">pause</property>
  <property name="resource">/home/nicolas/.cache/kdenlive/proxy/df00b0da10e63cc73c57ff545066cf47.mpg</property>
  <property name="meta.media.nb_streams">2</property>
  <property name="meta.media.0.stream.type">video</property>
  <property name="meta.media.0.stream.frame_rate">25</property>
  <property name="meta.media.0.stream.sample_aspect_ratio">0</property>
  <property name="meta.media.0.codec.width">640</property>
  <property name="meta.media.0.codec.height">360</property>
  <property name="meta.media.0.codec.rotate">0</property>
  <property name="meta.media.0.codec.frame_rate">25</property>
  <property name="meta.media.0.codec.pix_fmt">yuv420p</property>
  <property name="meta.media.0.codec.sample_aspect_ratio">1</property>
  <property name="meta.media.0.codec.colorspace">601</property>
  <property name="meta.media.0.codec.name">mpeg2video</property>
  <property name="meta.media.0.codec.long_name">MPEG-2 video</property>
  <property name="meta.media.0.codec.bit_rate">0</property>
  <property name="meta.media.1.stream.type">audio</property>
  <property name="meta.media.1.codec.sample_fmt">s16p</property>
  <property name="meta.media.1.codec.sample_rate">24000</property>
  <property name="meta.media.1.codec.channels">1</property>
  <property name="meta.media.1.codec.name">mp2</property>
  <property name="meta.media.1.codec.long_name">MP2 (MPEG audio layer 2)</property>
  <property name="meta.media.1.codec.bit_rate">128000</property>
  <property name="seekable">1</property>
  <property name="meta.media.sample_aspect_num">1</property>
  <property name="meta.media.sample_aspect_den">1</property>
  <property name="aspect_ratio">1</property>
  <property name="audio_index">1</property>
  <property name="video_index">0</property>
  <property name="mute_on_pause">1</property>
  <property name="mlt_service">avformat</property>
  <property name="meta.media.0.codec.color_trc">4</property>
  <property name="meta.attr.0.stream.creation_time.markup">2017-08-20T19:40:39.000000Z</property>
  <property name="meta.attr.0.stream.language.markup">eng</property>
  <property name="meta.attr.1.stream.creation_time.markup">2017-08-20T19:40:39.000000Z</property>
  <property name="meta.attr.1.stream.language.markup">eng</property>
  <property name="meta.attr.major_brand.markup">qt  </property>
  <property name="meta.attr.minor_version.markup">537331968</property>
  <property name="meta.attr.compatible_brands.markup">qt  niko</property>
  <property name="meta.attr.creation_time.markup">2017-08-20T19:40:39.000000Z</property>
  <property name="meta.media.frame_rate_num">25</property>
  <property name="meta.media.frame_rate_den">1</property>
  <property name="meta.media.colorspace">601</property>
  <property name="meta.media.color_trc">2</property>
  <property name="meta.media.width">640</property>
  <property name="meta.media.height">360</property>
  <property name="meta.media.top_field_first">0</property>
  <property name="meta.media.progressive">1</property>
  <property name="kdenlive:file_size">154005800</property>
  <property name="kdenlive:file_hash">df00b0da10e63cc73c57ff545066cf47</property>
  <property name="kdenlive:proxy">/home/nicolas/.cache/kdenlive/proxy/df00b0da10e63cc73c57ff545066cf47.mpg</property>
  <property name="proxy_out">2891</property>
  <property name="kdenlive:originalurl">3DSC_0180.MOV</property>
  <property name="global_feed">1</property>
  <property name="kdenlive:meta.media.nb_streams">2</property>
  <property name="kdenlive:meta.media.0.stream.type">video</property>
  <property name="kdenlive:meta.media.0.stream.frame_rate">25</property>
  <property name="kdenlive:meta.media.0.stream.sample_aspect_ratio">0</property>
  <property name="kdenlive:meta.media.0.codec.width">1280</property>
  <property name="kdenlive:meta.media.0.codec.height">720</property>
  <property name="kdenlive:meta.media.0.codec.rotate">0</property>
  <property name="kdenlive:meta.media.0.codec.frame_rate">25</property>
  <property name="kdenlive:meta.media.0.codec.pix_fmt">yuvj420p</property>
  <property name="kdenlive:meta.media.0.codec.sample_aspect_ratio">1</property>
  <property name="kdenlive:meta.media.0.codec.colorspace">601</property>
  <property name="kdenlive:meta.media.0.codec.color_trc">4</property>
  <property name="kdenlive:meta.media.0.codec.name">h264</property>
  <property name="kdenlive:meta.media.0.codec.long_name">H.264 / AVC / MPEG-4 AVC / MPEG-4 part 10</property>
  <property name="kdenlive:meta.media.0.codec.bit_rate">10256473</property>
  <property name="kdenlive:meta.attr.0.stream.creation_time.markup">2017-08-20T19:40:39.000000Z</property>
  <property name="kdenlive:meta.attr.0.stream.language.markup">eng</property>
  <property name="kdenlive:meta.media.1.stream.type">audio</property>
  <property name="kdenlive:meta.media.1.codec.sample_fmt">s16</property>
  <property name="kdenlive:meta.media.1.codec.sample_rate">24000</property>
  <property name="kdenlive:meta.media.1.codec.channels">1</property>
  <property name="kdenlive:meta.media.1.codec.name">pcm_s16le</property>
  <property name="kdenlive:meta.media.1.codec.long_name">PCM signed 16-bit little-endian</property>
  <property name="kdenlive:meta.media.1.codec.bit_rate">384000</property>
  <property name="kdenlive:meta.attr.1.stream.creation_time.markup">2017-08-20T19:40:39.000000Z</property>
  <property name="kdenlive:meta.attr.1.stream.language.markup">eng</property>
  <property name="kdenlive:meta.attr.major_brand.markup">qt  </property>
  <property name="kdenlive:meta.attr.minor_version.markup">537331968</property>
  <property name="kdenlive:meta.attr.compatible_brands.markup">qt  niko</property>
  <property name="kdenlive:meta.attr.creation_time.markup">2017-08-20T19:40:39.000000Z</property>
  <property name="kdenlive:meta.media.sample_aspect_num">1</property>
  <property name="kdenlive:meta.media.sample_aspect_den">1</property>
  <property name="kdenlive:meta.media.frame_rate_num">25</property>
  <property name="kdenlive:meta.media.frame_rate_den">1</property>
  <property name="kdenlive:meta.media.colorspace">601</property>
  <property name="kdenlive:meta.media.color_trc">4</property>
  <property name="kdenlive:meta.media.width">1280</property>
  <property name="kdenlive:meta.media.height">720</property>
  <property name="kdenlive:meta.media.top_field_first">0</property>
  <property name="kdenlive:meta.media.progressive">1</property>
 </producer>
 <producer id="81" title="Anonymous Submission" out="566" in="0">
  <property name="length">00:00:22:17</property>
  <property name="eof">pause</property>
  <property name="resource">/home/nicolas/.cache/kdenlive/proxy/be8a141e46e33e525c609c7c9f0b0aed.mpg</property>
  <property name="meta.media.nb_streams">2</property>
  <property name="meta.media.0.stream.type">video</property>
  <property name="meta.media.0.stream.frame_rate">25</property>
  <property name="meta.media.0.stream.sample_aspect_ratio">0</property>
  <property name="meta.media.0.codec.width">640</property>
  <property name="meta.media.0.codec.height">360</property>
  <property name="meta.media.0.codec.rotate">0</property>
  <property name="meta.media.0.codec.frame_rate">25</property>
  <property name="meta.media.0.codec.pix_fmt">yuv420p</property>
  <property name="meta.media.0.codec.sample_aspect_ratio">1</property>
  <property name="meta.media.0.codec.colorspace">601</property>
  <property name="meta.media.0.codec.name">mpeg2video</property>
  <property name="meta.media.0.codec.long_name">MPEG-2 video</property>
  <property name="meta.media.0.codec.bit_rate">0</property>
  <property name="meta.media.1.stream.type">audio</property>
  <property name="meta.media.1.codec.sample_fmt">s16p</property>
  <property name="meta.media.1.codec.sample_rate">24000</property>
  <property name="meta.media.1.codec.channels">1</property>
  <property name="meta.media.1.codec.name">mp2</property>
  <property name="meta.media.1.codec.long_name">MP2 (MPEG audio layer 2)</property>
  <property name="meta.media.1.codec.bit_rate">128000</property>
  <property name="seekable">1</property>
  <property name="meta.media.sample_aspect_num">1</property>
  <property name="meta.media.sample_aspect_den">1</property>
  <property name="aspect_ratio">1</property>
  <property name="audio_index">1</property>
  <property name="video_index">0</property>
  <property name="mute_on_pause">1</property>
  <property name="mlt_service">avformat</property>
  <property name="meta.media.0.codec.color_trc">4</property>
  <property name="meta.attr.0.stream.creation_time.markup">2017-08-20T19:40:06.000000Z</property>
  <property name="meta.attr.0.stream.language.markup">eng</property>
  <property name="meta.attr.1.stream.creation_time.markup">2017-08-20T19:40:06.000000Z</property>
  <property name="meta.attr.1.stream.language.markup">eng</property>
  <property name="meta.attr.major_brand.markup">qt  </property>
  <property name="meta.attr.minor_version.markup">537331968</property>
  <property name="meta.attr.compatible_brands.markup">qt  niko</property>
  <property name="meta.attr.creation_time.markup">2017-08-20T19:40:06.000000Z</property>
  <property name="meta.media.frame_rate_num">25</property>
  <property name="meta.media.frame_rate_den">1</property>
  <property name="meta.media.colorspace">601</property>
  <property name="meta.media.color_trc">2</property>
  <property name="meta.media.width">640</property>
  <property name="meta.media.height">360</property>
  <property name="meta.media.top_field_first">0</property>
  <property name="meta.media.progressive">1</property>
  <property name="kdenlive:file_size">30334660</property>
  <property name="kdenlive:file_hash">be8a141e46e33e525c609c7c9f0b0aed</property>
  <property name="kdenlive:proxy">/home/nicolas/.cache/kdenlive/proxy/be8a141e46e33e525c609c7c9f0b0aed.mpg</property>
  <property name="proxy_out">566</property>
  <property name="kdenlive:originalurl">3DSC_0179.MOV</property>
  <property name="global_feed">1</property>
  <property name="kdenlive:meta.media.nb_streams">2</property>
  <property name="kdenlive:meta.media.0.stream.type">video</property>
  <property name="kdenlive:meta.media.0.stream.frame_rate">25</property>
  <property name="kdenlive:meta.media.0.stream.sample_aspect_ratio">0</property>
  <property name="kdenlive:meta.media.0.codec.width">1280</property>
  <property name="kdenlive:meta.media.0.codec.height">720</property>
  <property name="kdenlive:meta.media.0.codec.rotate">0</property>
  <property name="kdenlive:meta.media.0.codec.frame_rate">25</property>
  <property name="kdenlive:meta.media.0.codec.pix_fmt">yuvj420p</property>
  <property name="kdenlive:meta.media.0.codec.sample_aspect_ratio">1</property>
  <property name="kdenlive:meta.media.0.codec.colorspace">601</property>
  <property name="kdenlive:meta.media.0.codec.color_trc">4</property>
  <property name="kdenlive:meta.media.0.codec.name">h264</property>
  <property name="kdenlive:meta.media.0.codec.long_name">H.264 / AVC / MPEG-4 AVC / MPEG-4 part 10</property>
  <property name="kdenlive:meta.media.0.codec.bit_rate">10273750</property>
  <property name="kdenlive:meta.attr.0.stream.creation_time.markup">2017-08-20T19:40:06.000000Z</property>
  <property name="kdenlive:meta.attr.0.stream.language.markup">eng</property>
  <property name="kdenlive:meta.media.1.stream.type">audio</property>
  <property name="kdenlive:meta.media.1.codec.sample_fmt">s16</property>
  <property name="kdenlive:meta.media.1.codec.sample_rate">24000</property>
  <property name="kdenlive:meta.media.1.codec.channels">1</property>
  <property name="kdenlive:meta.media.1.codec.name">pcm_s16le</property>
  <property name="kdenlive:meta.media.1.codec.long_name">PCM signed 16-bit little-endian</property>
  <property name="kdenlive:meta.media.1.codec.bit_rate">384000</property>
  <property name="kdenlive:meta.attr.1.stream.creation_time.markup">2017-08-20T19:40:06.000000Z</property>
  <property name="kdenlive:meta.attr.1.stream.language.markup">eng</property>
  <property name="kdenlive:meta.attr.major_brand.markup">qt  </property>
  <property name="kdenlive:meta.attr.minor_version.markup">537331968</property>
  <property name="kdenlive:meta.attr.compatible_brands.markup">qt  niko</property>
  <property name="kdenlive:meta.attr.creation_time.markup">2017-08-20T19:40:06.000000Z</property>
  <property name="kdenlive:meta.media.sample_aspect_num">1</property>
  <property name="kdenlive:meta.media.sample_aspect_den">1</property>
  <property name="kdenlive:meta.media.frame_rate_num">25</property>
  <property name="kdenlive:meta.media.frame_rate_den">1</property>
  <property name="kdenlive:meta.media.colorspace">601</property>
  <property name="kdenlive:meta.media.color_trc">4</property>
  <property name="kdenlive:meta.media.width">1280</property>
  <property name="kdenlive:meta.media.height">720</property>
  <property name="kdenlive:meta.media.top_field_first">0</property>
  <property name="kdenlive:meta.media.progressive">1</property>
 </producer>
 <producer id="82" title="Anonymous Submission" out="3071" in="0">
  <property name="length">00:02:02:22</property>
  <property name="eof">pause</property>
  <property name="resource">/home/nicolas/.cache/kdenlive/proxy/29e09e3b202764fec58cea182bc071bb.mpg</property>
  <property name="meta.media.nb_streams">2</property>
  <property name="meta.media.0.stream.type">video</property>
  <property name="meta.media.0.stream.frame_rate">25</property>
  <property name="meta.media.0.stream.sample_aspect_ratio">0</property>
  <property name="meta.media.0.codec.width">640</property>
  <property name="meta.media.0.codec.height">360</property>
  <property name="meta.media.0.codec.rotate">0</property>
  <property name="meta.media.0.codec.frame_rate">25</property>
  <property name="meta.media.0.codec.pix_fmt">yuv420p</property>
  <property name="meta.media.0.codec.sample_aspect_ratio">1</property>
  <property name="meta.media.0.codec.colorspace">601</property>
  <property name="meta.media.0.codec.name">mpeg2video</property>
  <property name="meta.media.0.codec.long_name">MPEG-2 video</property>
  <property name="meta.media.0.codec.bit_rate">0</property>
  <property name="meta.media.1.stream.type">audio</property>
  <property name="meta.media.1.codec.sample_fmt">s16p</property>
  <property name="meta.media.1.codec.sample_rate">24000</property>
  <property name="meta.media.1.codec.channels">1</property>
  <property name="meta.media.1.codec.name">mp2</property>
  <property name="meta.media.1.codec.long_name">MP2 (MPEG audio layer 2)</property>
  <property name="meta.media.1.codec.bit_rate">128000</property>
  <property name="seekable">1</property>
  <property name="meta.media.sample_aspect_num">1</property>
  <property name="meta.media.sample_aspect_den">1</property>
  <property name="aspect_ratio">1</property>
  <property name="audio_index">1</property>
  <property name="video_index">0</property>
  <property name="mute_on_pause">1</property>
  <property name="mlt_service">avformat</property>
  <property name="meta.media.0.codec.color_trc">4</property>
  <property name="meta.attr.0.stream.creation_time.markup">2017-08-20T19:46:35.000000Z</property>
  <property name="meta.attr.0.stream.language.markup">eng</property>
  <property name="meta.attr.1.stream.creation_time.markup">2017-08-20T19:46:35.000000Z</property>
  <property name="meta.attr.1.stream.language.markup">eng</property>
  <property name="meta.attr.major_brand.markup">qt  </property>
  <property name="meta.attr.minor_version.markup">537331968</property>
  <property name="meta.attr.compatible_brands.markup">qt  niko</property>
  <property name="meta.attr.creation_time.markup">2017-08-20T19:46:35.000000Z</property>
  <property name="meta.media.frame_rate_num">25</property>
  <property name="meta.media.frame_rate_den">1</property>
  <property name="meta.media.colorspace">601</property>
  <property name="meta.media.color_trc">2</property>
  <property name="meta.media.width">640</property>
  <property name="meta.media.height">360</property>
  <property name="meta.media.top_field_first">0</property>
  <property name="meta.media.progressive">1</property>
  <property name="kdenlive:file_size">163120585</property>
  <property name="kdenlive:file_hash">29e09e3b202764fec58cea182bc071bb</property>
  <property name="kdenlive:proxy">/home/nicolas/.cache/kdenlive/proxy/29e09e3b202764fec58cea182bc071bb.mpg</property>
  <property name="proxy_out">3071</property>
  <property name="kdenlive:originalurl">3DSC_0181.MOV</property>
  <property name="global_feed">1</property>
  <property name="kdenlive:meta.media.nb_streams">2</property>
  <property name="kdenlive:meta.media.0.stream.type">video</property>
  <property name="kdenlive:meta.media.0.stream.frame_rate">25</property>
  <property name="kdenlive:meta.media.0.stream.sample_aspect_ratio">0</property>
  <property name="kdenlive:meta.media.0.codec.width">1280</property>
  <property name="kdenlive:meta.media.0.codec.height">720</property>
  <property name="kdenlive:meta.media.0.codec.rotate">0</property>
  <property name="kdenlive:meta.media.0.codec.frame_rate">25</property>
  <property name="kdenlive:meta.media.0.codec.pix_fmt">yuvj420p</property>
  <property name="kdenlive:meta.media.0.codec.sample_aspect_ratio">1</property>
  <property name="kdenlive:meta.media.0.codec.colorspace">601</property>
  <property name="kdenlive:meta.media.0.codec.color_trc">4</property>
  <property name="kdenlive:meta.media.0.codec.name">h264</property>
  <property name="kdenlive:meta.media.0.codec.long_name">H.264 / AVC / MPEG-4 AVC / MPEG-4 part 10</property>
  <property name="kdenlive:meta.media.0.codec.bit_rate">10226387</property>
  <property name="kdenlive:meta.attr.0.stream.creation_time.markup">2017-08-20T19:46:35.000000Z</property>
  <property name="kdenlive:meta.attr.0.stream.language.markup">eng</property>
  <property name="kdenlive:meta.media.1.stream.type">audio</property>
  <property name="kdenlive:meta.media.1.codec.sample_fmt">s16</property>
  <property name="kdenlive:meta.media.1.codec.sample_rate">24000</property>
  <property name="kdenlive:meta.media.1.codec.channels">1</property>
  <property name="kdenlive:meta.media.1.codec.name">pcm_s16le</property>
  <property name="kdenlive:meta.media.1.codec.long_name">PCM signed 16-bit little-endian</property>
  <property name="kdenlive:meta.media.1.codec.bit_rate">384000</property>
  <property name="kdenlive:meta.attr.1.stream.creation_time.markup">2017-08-20T19:46:35.000000Z</property>
  <property name="kdenlive:meta.attr.1.stream.language.markup">eng</property>
  <property name="kdenlive:meta.attr.major_brand.markup">qt  </property>
  <property name="kdenlive:meta.attr.minor_version.markup">537331968</property>
  <property name="kdenlive:meta.attr.compatible_brands.markup">qt  niko</property>
  <property name="kdenlive:meta.attr.creation_time.markup">2017-08-20T19:46:35.000000Z</property>
  <property name="kdenlive:meta.media.sample_aspect_num">1</property>
  <property name="kdenlive:meta.media.sample_aspect_den">1</property>
  <property name="kdenlive:meta.media.frame_rate_num">25</property>
  <property name="kdenlive:meta.media.frame_rate_den">1</property>
  <property name="kdenlive:meta.media.colorspace">601</property>
  <property name="kdenlive:meta.media.color_trc">4</property>
  <property name="kdenlive:meta.media.width">1280</property>
  <property name="kdenlive:meta.media.height">720</property>
  <property name="kdenlive:meta.media.top_field_first">0</property>
  <property name="kdenlive:meta.media.progressive">1</property>
 </producer>
 <producer id="83" title="Anonymous Submission" out="605" in="0">
  <property name="length">606</property>
  <property name="eof">pause</property>
  <property name="resource">télé achat/sèche cheveux/render spark/.all.png</property>
  <property name="ttl">1</property>
  <property name="aspect_ratio">1</property>
  <property name="progressive">1</property>
  <property name="seekable">1</property>
  <property name="loop">1</property>
  <property name="meta.media.width">390</property>
  <property name="meta.media.height">281</property>
  <property name="mlt_service">pixbuf</property>
  <property name="animation"/>
  <property name="crop">0</property>
  <property name="fade">0</property>
  <property name="kdenlive:clipname">Slideshow Clip</property>
  <property name="kdenlive:folderid">-1</property>
  <property name="luma_duration">25</property>
  <property name="luma_file"/>
  <property name="softness">0</property>
  <property name="kdenlive:duration">18</property>
  <property name="kdenlive:file_hash">bf42d7380b98228ef9d66d708f9d850b</property>
  <property name="global_feed">1</property>
 </producer>
 <producer id="84" out="340" in="0">
  <property name="length">341</property>
  <property name="eof">pause</property>
  <property name="resource">télé achat/sèche cheveux/render spark/.all.png</property>
  <property name="ttl">1</property>
  <property name="aspect_ratio">1</property>
  <property name="progressive">1</property>
  <property name="seekable">1</property>
  <property name="loop">1</property>
  <property name="meta.media.width">390</property>
  <property name="meta.media.height">281</property>
  <property name="mlt_service">pixbuf</property>
  <property name="animation"/>
  <property name="crop">0</property>
  <property name="fade">0</property>
  <property name="kdenlive:clipname">Slideshow Clip (copy)</property>
  <property name="kdenlive:folderid">-1</property>
  <property name="luma_duration">25</property>
  <property name="luma_file"/>
  <property name="softness">0</property>
  <property name="kdenlive:duration">18</property>
  <property name="kdenlive:file_hash">bf42d7380b98228ef9d66d708f9d850b</property>
  <property name="global_feed">1</property>
 </producer>
 <producer id="85" title="Anonymous Submission" out="2000" in="0">
  <property name="length">00:01:20:01</property>
  <property name="eof">pause</property>
  <property name="resource">/home/nicolas/.cache/kdenlive/proxy/02f38f9517102202292e30e47a43fba0.mpg</property>
  <property name="meta.media.nb_streams">2</property>
  <property name="meta.media.0.stream.type">video</property>
  <property name="meta.media.0.stream.frame_rate">25</property>
  <property name="meta.media.0.stream.sample_aspect_ratio">0</property>
  <property name="meta.media.0.codec.width">640</property>
  <property name="meta.media.0.codec.height">360</property>
  <property name="meta.media.0.codec.rotate">0</property>
  <property name="meta.media.0.codec.frame_rate">25</property>
  <property name="meta.media.0.codec.pix_fmt">yuv420p</property>
  <property name="meta.media.0.codec.sample_aspect_ratio">1</property>
  <property name="meta.media.0.codec.colorspace">601</property>
  <property name="meta.media.0.codec.name">mpeg2video</property>
  <property name="meta.media.0.codec.long_name">MPEG-2 video</property>
  <property name="meta.media.0.codec.bit_rate">0</property>
  <property name="meta.media.1.stream.type">audio</property>
  <property name="meta.media.1.codec.sample_fmt">s16p</property>
  <property name="meta.media.1.codec.sample_rate">24000</property>
  <property name="meta.media.1.codec.channels">1</property>
  <property name="meta.media.1.codec.name">mp2</property>
  <property name="meta.media.1.codec.long_name">MP2 (MPEG audio layer 2)</property>
  <property name="meta.media.1.codec.bit_rate">128000</property>
  <property name="seekable">1</property>
  <property name="meta.media.sample_aspect_num">1</property>
  <property name="meta.media.sample_aspect_den">1</property>
  <property name="aspect_ratio">1</property>
  <property name="audio_index">1</property>
  <property name="video_index">0</property>
  <property name="mute_on_pause">1</property>
  <property name="mlt_service">avformat</property>
  <property name="meta.media.0.codec.color_trc">4</property>
  <property name="meta.attr.0.stream.creation_time.markup">2017-08-20T19:56:41.000000Z</property>
  <property name="meta.attr.0.stream.language.markup">eng</property>
  <property name="meta.attr.1.stream.creation_time.markup">2017-08-20T19:56:41.000000Z</property>
  <property name="meta.attr.1.stream.language.markup">eng</property>
  <property name="meta.attr.major_brand.markup">qt  </property>
  <property name="meta.attr.minor_version.markup">537331968</property>
  <property name="meta.attr.compatible_brands.markup">qt  niko</property>
  <property name="meta.attr.creation_time.markup">2017-08-20T19:56:41.000000Z</property>
  <property name="meta.media.frame_rate_num">25</property>
  <property name="meta.media.frame_rate_den">1</property>
  <property name="meta.media.colorspace">601</property>
  <property name="meta.media.color_trc">2</property>
  <property name="meta.media.width">640</property>
  <property name="meta.media.height">360</property>
  <property name="meta.media.top_field_first">0</property>
  <property name="meta.media.progressive">1</property>
  <property name="kdenlive:file_size">106079246</property>
  <property name="kdenlive:file_hash">02f38f9517102202292e30e47a43fba0</property>
  <property name="kdenlive:proxy">/home/nicolas/.cache/kdenlive/proxy/02f38f9517102202292e30e47a43fba0.mpg</property>
  <property name="proxy_out">2000</property>
  <property name="kdenlive:originalurl">3DSC_0182.MOV</property>
  <property name="global_feed">1</property>
  <property name="kdenlive:meta.media.nb_streams">2</property>
  <property name="kdenlive:meta.media.0.stream.type">video</property>
  <property name="kdenlive:meta.media.0.stream.frame_rate">25</property>
  <property name="kdenlive:meta.media.0.stream.sample_aspect_ratio">0</property>
  <property name="kdenlive:meta.media.0.codec.width">1280</property>
  <property name="kdenlive:meta.media.0.codec.height">720</property>
  <property name="kdenlive:meta.media.0.codec.rotate">0</property>
  <property name="kdenlive:meta.media.0.codec.frame_rate">25</property>
  <property name="kdenlive:meta.media.0.codec.pix_fmt">yuvj420p</property>
  <property name="kdenlive:meta.media.0.codec.sample_aspect_ratio">1</property>
  <property name="kdenlive:meta.media.0.codec.colorspace">601</property>
  <property name="kdenlive:meta.media.0.codec.color_trc">4</property>
  <property name="kdenlive:meta.media.0.codec.name">h264</property>
  <property name="kdenlive:meta.media.0.codec.long_name">H.264 / AVC / MPEG-4 AVC / MPEG-4 part 10</property>
  <property name="kdenlive:meta.media.0.codec.bit_rate">10205443</property>
  <property name="kdenlive:meta.attr.0.stream.creation_time.markup">2017-08-20T19:56:41.000000Z</property>
  <property name="kdenlive:meta.attr.0.stream.language.markup">eng</property>
  <property name="kdenlive:meta.media.1.stream.type">audio</property>
  <property name="kdenlive:meta.media.1.codec.sample_fmt">s16</property>
  <property name="kdenlive:meta.media.1.codec.sample_rate">24000</property>
  <property name="kdenlive:meta.media.1.codec.channels">1</property>
  <property name="kdenlive:meta.media.1.codec.name">pcm_s16le</property>
  <property name="kdenlive:meta.media.1.codec.long_name">PCM signed 16-bit little-endian</property>
  <property name="kdenlive:meta.media.1.codec.bit_rate">384000</property>
  <property name="kdenlive:meta.attr.1.stream.creation_time.markup">2017-08-20T19:56:41.000000Z</property>
  <property name="kdenlive:meta.attr.1.stream.language.markup">eng</property>
  <property name="kdenlive:meta.attr.major_brand.markup">qt  </property>
  <property name="kdenlive:meta.attr.minor_version.markup">537331968</property>
  <property name="kdenlive:meta.attr.compatible_brands.markup">qt  niko</property>
  <property name="kdenlive:meta.attr.creation_time.markup">2017-08-20T19:56:41.000000Z</property>
  <property name="kdenlive:meta.media.sample_aspect_num">1</property>
  <property name="kdenlive:meta.media.sample_aspect_den">1</property>
  <property name="kdenlive:meta.media.frame_rate_num">25</property>
  <property name="kdenlive:meta.media.frame_rate_den">1</property>
  <property name="kdenlive:meta.media.colorspace">601</property>
  <property name="kdenlive:meta.media.color_trc">4</property>
  <property name="kdenlive:meta.media.width">1280</property>
  <property name="kdenlive:meta.media.height">720</property>
  <property name="kdenlive:meta.media.top_field_first">0</property>
  <property name="kdenlive:meta.media.progressive">1</property>
 </producer>
 <producer id="88" title="Anonymous Submission" out="509" in="0">
  <property name="length">00:00:20:10</property>
  <property name="eof">pause</property>
  <property name="resource">/home/nicolas/.cache/kdenlive/proxy/27e055562ed7f53c1a20652753b5dd75.mpg</property>
  <property name="meta.media.nb_streams">2</property>
  <property name="meta.media.0.stream.type">video</property>
  <property name="meta.media.0.stream.frame_rate">25</property>
  <property name="meta.media.0.stream.sample_aspect_ratio">0</property>
  <property name="meta.media.0.codec.width">640</property>
  <property name="meta.media.0.codec.height">360</property>
  <property name="meta.media.0.codec.rotate">0</property>
  <property name="meta.media.0.codec.frame_rate">25</property>
  <property name="meta.media.0.codec.pix_fmt">yuv420p</property>
  <property name="meta.media.0.codec.sample_aspect_ratio">1</property>
  <property name="meta.media.0.codec.colorspace">601</property>
  <property name="meta.media.0.codec.name">mpeg2video</property>
  <property name="meta.media.0.codec.long_name">MPEG-2 video</property>
  <property name="meta.media.0.codec.bit_rate">0</property>
  <property name="meta.media.1.stream.type">audio</property>
  <property name="meta.media.1.codec.sample_fmt">s16p</property>
  <property name="meta.media.1.codec.sample_rate">24000</property>
  <property name="meta.media.1.codec.channels">1</property>
  <property name="meta.media.1.codec.name">mp2</property>
  <property name="meta.media.1.codec.long_name">MP2 (MPEG audio layer 2)</property>
  <property name="meta.media.1.codec.bit_rate">128000</property>
  <property name="seekable">1</property>
  <property name="meta.media.sample_aspect_num">1</property>
  <property name="meta.media.sample_aspect_den">1</property>
  <property name="aspect_ratio">1</property>
  <property name="audio_index">1</property>
  <property name="video_index">0</property>
  <property name="mute_on_pause">1</property>
  <property name="mlt_service">avformat</property>
  <property name="meta.media.0.codec.color_trc">4</property>
  <property name="meta.attr.0.stream.creation_time.markup">2017-10-19T09:26:17.000000Z</property>
  <property name="meta.attr.0.stream.language.markup">eng</property>
  <property name="meta.attr.1.stream.creation_time.markup">2017-10-19T09:26:17.000000Z</property>
  <property name="meta.attr.1.stream.language.markup">eng</property>
  <property name="meta.attr.major_brand.markup">qt  </property>
  <property name="meta.attr.minor_version.markup">537331968</property>
  <property name="meta.attr.compatible_brands.markup">qt  niko</property>
  <property name="meta.attr.creation_time.markup">2017-10-19T09:26:17.000000Z</property>
  <property name="kdenlive:folderid">2</property>
  <property name="meta.media.frame_rate_num">25</property>
  <property name="meta.media.frame_rate_den">1</property>
  <property name="meta.media.colorspace">601</property>
  <property name="meta.media.color_trc">2</property>
  <property name="meta.media.width">640</property>
  <property name="meta.media.height">360</property>
  <property name="meta.media.top_field_first">0</property>
  <property name="meta.media.progressive">1</property>
  <property name="kdenlive:file_size">28726414</property>
  <property name="kdenlive:file_hash">27e055562ed7f53c1a20652753b5dd75</property>
  <property name="kdenlive:proxy">/home/nicolas/.cache/kdenlive/proxy/27e055562ed7f53c1a20652753b5dd75.mpg</property>
  <property name="proxy_out">509</property>
  <property name="kdenlive:originalurl">SdB_Raspoutine/DSC_0003.MOV</property>
  <property name="global_feed">1</property>
  <property name="kdenlive:meta.media.nb_streams">2</property>
  <property name="kdenlive:meta.media.0.stream.type">video</property>
  <property name="kdenlive:meta.media.0.stream.frame_rate">25</property>
  <property name="kdenlive:meta.media.0.stream.sample_aspect_ratio">0</property>
  <property name="kdenlive:meta.media.0.codec.width">1280</property>
  <property name="kdenlive:meta.media.0.codec.height">720</property>
  <property name="kdenlive:meta.media.0.codec.rotate">0</property>
  <property name="kdenlive:meta.media.0.codec.frame_rate">25</property>
  <property name="kdenlive:meta.media.0.codec.pix_fmt">yuvj420p</property>
  <property name="kdenlive:meta.media.0.codec.sample_aspect_ratio">1</property>
  <property name="kdenlive:meta.media.0.codec.colorspace">601</property>
  <property name="kdenlive:meta.media.0.codec.color_trc">4</property>
  <property name="kdenlive:meta.media.0.codec.name">h264</property>
  <property name="kdenlive:meta.media.0.codec.long_name">H.264 / AVC / MPEG-4 AVC / MPEG-4 part 10</property>
  <property name="kdenlive:meta.media.0.codec.bit_rate">10837310</property>
  <property name="kdenlive:meta.attr.0.stream.creation_time.markup">2017-10-19T09:26:17.000000Z</property>
  <property name="kdenlive:meta.attr.0.stream.language.markup">eng</property>
  <property name="kdenlive:meta.media.1.stream.type">audio</property>
  <property name="kdenlive:meta.media.1.codec.sample_fmt">s16</property>
  <property name="kdenlive:meta.media.1.codec.sample_rate">24000</property>
  <property name="kdenlive:meta.media.1.codec.channels">1</property>
  <property name="kdenlive:meta.media.1.codec.name">pcm_s16le</property>
  <property name="kdenlive:meta.media.1.codec.long_name">PCM signed 16-bit little-endian</property>
  <property name="kdenlive:meta.media.1.codec.bit_rate">384000</property>
  <property name="kdenlive:meta.attr.1.stream.creation_time.markup">2017-10-19T09:26:17.000000Z</property>
  <property name="kdenlive:meta.attr.1.stream.language.markup">eng</property>
  <property name="kdenlive:meta.attr.major_brand.markup">qt  </property>
  <property name="kdenlive:meta.attr.minor_version.markup">537331968</property>
  <property name="kdenlive:meta.attr.compatible_brands.markup">qt  niko</property>
  <property name="kdenlive:meta.attr.creation_time.markup">2017-10-19T09:26:17.000000Z</property>
  <property name="kdenlive:meta.media.sample_aspect_num">1</property>
  <property name="kdenlive:meta.media.sample_aspect_den">1</property>
  <property name="kdenlive:meta.media.frame_rate_num">25</property>
  <property name="kdenlive:meta.media.frame_rate_den">1</property>
  <property name="kdenlive:meta.media.colorspace">601</property>
  <property name="kdenlive:meta.media.color_trc">4</property>
  <property name="kdenlive:meta.media.width">1280</property>
  <property name="kdenlive:meta.media.height">720</property>
  <property name="kdenlive:meta.media.top_field_first">0</property>
  <property name="kdenlive:meta.media.progressive">1</property>
 </producer>
 <producer id="89" title="Anonymous Submission" out="803" in="0">
  <property name="length">00:00:32:04</property>
  <property name="eof">pause</property>
  <property name="resource">/home/nicolas/.cache/kdenlive/proxy/3cd9cc899ebfb7798b57b4df973cb786.mpg</property>
  <property name="meta.media.nb_streams">2</property>
  <property name="meta.media.0.stream.type">video</property>
  <property name="meta.media.0.stream.frame_rate">25</property>
  <property name="meta.media.0.stream.sample_aspect_ratio">0</property>
  <property name="meta.media.0.codec.width">640</property>
  <property name="meta.media.0.codec.height">360</property>
  <property name="meta.media.0.codec.rotate">0</property>
  <property name="meta.media.0.codec.frame_rate">25</property>
  <property name="meta.media.0.codec.pix_fmt">yuv420p</property>
  <property name="meta.media.0.codec.sample_aspect_ratio">1</property>
  <property name="meta.media.0.codec.colorspace">601</property>
  <property name="meta.media.0.codec.name">mpeg2video</property>
  <property name="meta.media.0.codec.long_name">MPEG-2 video</property>
  <property name="meta.media.0.codec.bit_rate">0</property>
  <property name="meta.media.1.stream.type">audio</property>
  <property name="meta.media.1.codec.sample_fmt">s16p</property>
  <property name="meta.media.1.codec.sample_rate">24000</property>
  <property name="meta.media.1.codec.channels">1</property>
  <property name="meta.media.1.codec.name">mp2</property>
  <property name="meta.media.1.codec.long_name">MP2 (MPEG audio layer 2)</property>
  <property name="meta.media.1.codec.bit_rate">128000</property>
  <property name="seekable">1</property>
  <property name="meta.media.sample_aspect_num">1</property>
  <property name="meta.media.sample_aspect_den">1</property>
  <property name="aspect_ratio">1</property>
  <property name="audio_index">1</property>
  <property name="video_index">0</property>
  <property name="mute_on_pause">1</property>
  <property name="mlt_service">avformat</property>
  <property name="meta.media.0.codec.color_trc">4</property>
  <property name="meta.attr.0.stream.creation_time.markup">2017-10-19T09:27:07.000000Z</property>
  <property name="meta.attr.0.stream.language.markup">eng</property>
  <property name="meta.attr.1.stream.creation_time.markup">2017-10-19T09:27:07.000000Z</property>
  <property name="meta.attr.1.stream.language.markup">eng</property>
  <property name="meta.attr.major_brand.markup">qt  </property>
  <property name="meta.attr.minor_version.markup">537331968</property>
  <property name="meta.attr.compatible_brands.markup">qt  niko</property>
  <property name="meta.attr.creation_time.markup">2017-10-19T09:27:07.000000Z</property>
  <property name="kdenlive:folderid">2</property>
  <property name="meta.media.frame_rate_num">25</property>
  <property name="meta.media.frame_rate_den">1</property>
  <property name="meta.media.colorspace">601</property>
  <property name="meta.media.color_trc">2</property>
  <property name="meta.media.width">640</property>
  <property name="meta.media.height">360</property>
  <property name="meta.media.top_field_first">0</property>
  <property name="meta.media.progressive">1</property>
  <property name="kdenlive:file_size">43902911</property>
  <property name="kdenlive:file_hash">3cd9cc899ebfb7798b57b4df973cb786</property>
  <property name="kdenlive:proxy">/home/nicolas/.cache/kdenlive/proxy/3cd9cc899ebfb7798b57b4df973cb786.mpg</property>
  <property name="proxy_out">803</property>
  <property name="kdenlive:originalurl">SdB_Raspoutine/DSC_0004.MOV</property>
  <property name="global_feed">1</property>
  <property name="kdenlive:meta.media.nb_streams">2</property>
  <property name="kdenlive:meta.media.0.stream.type">video</property>
  <property name="kdenlive:meta.media.0.stream.frame_rate">25</property>
  <property name="kdenlive:meta.media.0.stream.sample_aspect_ratio">0</property>
  <property name="kdenlive:meta.media.0.codec.width">1280</property>
  <property name="kdenlive:meta.media.0.codec.height">720</property>
  <property name="kdenlive:meta.media.0.codec.rotate">0</property>
  <property name="kdenlive:meta.media.0.codec.frame_rate">25</property>
  <property name="kdenlive:meta.media.0.codec.pix_fmt">yuvj420p</property>
  <property name="kdenlive:meta.media.0.codec.sample_aspect_ratio">1</property>
  <property name="kdenlive:meta.media.0.codec.colorspace">601</property>
  <property name="kdenlive:meta.media.0.codec.color_trc">4</property>
  <property name="kdenlive:meta.media.0.codec.name">h264</property>
  <property name="kdenlive:meta.media.0.codec.long_name">H.264 / AVC / MPEG-4 AVC / MPEG-4 part 10</property>
  <property name="kdenlive:meta.media.0.codec.bit_rate">10508426</property>
  <property name="kdenlive:meta.attr.0.stream.creation_time.markup">2017-10-19T09:27:07.000000Z</property>
  <property name="kdenlive:meta.attr.0.stream.language.markup">eng</property>
  <property name="kdenlive:meta.media.1.stream.type">audio</property>
  <property name="kdenlive:meta.media.1.codec.sample_fmt">s16</property>
  <property name="kdenlive:meta.media.1.codec.sample_rate">24000</property>
  <property name="kdenlive:meta.media.1.codec.channels">1</property>
  <property name="kdenlive:meta.media.1.codec.name">pcm_s16le</property>
  <property name="kdenlive:meta.media.1.codec.long_name">PCM signed 16-bit little-endian</property>
  <property name="kdenlive:meta.media.1.codec.bit_rate">384000</property>
  <property name="kdenlive:meta.attr.1.stream.creation_time.markup">2017-10-19T09:27:07.000000Z</property>
  <property name="kdenlive:meta.attr.1.stream.language.markup">eng</property>
  <property name="kdenlive:meta.attr.major_brand.markup">qt  </property>
  <property name="kdenlive:meta.attr.minor_version.markup">537331968</property>
  <property name="kdenlive:meta.attr.compatible_brands.markup">qt  niko</property>
  <property name="kdenlive:meta.attr.creation_time.markup">2017-10-19T09:27:07.000000Z</property>
  <property name="kdenlive:meta.media.sample_aspect_num">1</property>
  <property name="kdenlive:meta.media.sample_aspect_den">1</property>
  <property name="kdenlive:meta.media.frame_rate_num">25</property>
  <property name="kdenlive:meta.media.frame_rate_den">1</property>
  <property name="kdenlive:meta.media.colorspace">601</property>
  <property name="kdenlive:meta.media.color_trc">4</property>
  <property name="kdenlive:meta.media.width">1280</property>
  <property name="kdenlive:meta.media.height">720</property>
  <property name="kdenlive:meta.media.top_field_first">0</property>
  <property name="kdenlive:meta.media.progressive">1</property>
 </producer>
 <producer id="90" title="Anonymous Submission" out="2114" in="0">
  <property name="length">00:01:24:15</property>
  <property name="eof">pause</property>
  <property name="resource">/home/nicolas/.cache/kdenlive/proxy/d8cf4f93ea3c8bdbf8888a8bb34b2d30.mpg</property>
  <property name="meta.media.nb_streams">2</property>
  <property name="meta.media.0.stream.type">video</property>
  <property name="meta.media.0.stream.frame_rate">25</property>
  <property name="meta.media.0.stream.sample_aspect_ratio">0</property>
  <property name="meta.media.0.codec.width">640</property>
  <property name="meta.media.0.codec.height">360</property>
  <property name="meta.media.0.codec.rotate">0</property>
  <property name="meta.media.0.codec.frame_rate">25</property>
  <property name="meta.media.0.codec.pix_fmt">yuv420p</property>
  <property name="meta.media.0.codec.sample_aspect_ratio">1</property>
  <property name="meta.media.0.codec.colorspace">601</property>
  <property name="meta.media.0.codec.name">mpeg2video</property>
  <property name="meta.media.0.codec.long_name">MPEG-2 video</property>
  <property name="meta.media.0.codec.bit_rate">0</property>
  <property name="meta.media.1.stream.type">audio</property>
  <property name="meta.media.1.codec.sample_fmt">s16p</property>
  <property name="meta.media.1.codec.sample_rate">24000</property>
  <property name="meta.media.1.codec.channels">1</property>
  <property name="meta.media.1.codec.name">mp2</property>
  <property name="meta.media.1.codec.long_name">MP2 (MPEG audio layer 2)</property>
  <property name="meta.media.1.codec.bit_rate">128000</property>
  <property name="seekable">1</property>
  <property name="meta.media.sample_aspect_num">1</property>
  <property name="meta.media.sample_aspect_den">1</property>
  <property name="aspect_ratio">1</property>
  <property name="audio_index">1</property>
  <property name="video_index">0</property>
  <property name="mute_on_pause">1</property>
  <property name="mlt_service">avformat</property>
  <property name="meta.media.0.codec.color_trc">4</property>
  <property name="meta.attr.0.stream.creation_time.markup">2017-10-19T09:29:02.000000Z</property>
  <property name="meta.attr.0.stream.language.markup">eng</property>
  <property name="meta.attr.1.stream.creation_time.markup">2017-10-19T09:29:02.000000Z</property>
  <property name="meta.attr.1.stream.language.markup">eng</property>
  <property name="meta.attr.major_brand.markup">qt  </property>
  <property name="meta.attr.minor_version.markup">537331968</property>
  <property name="meta.attr.compatible_brands.markup">qt  niko</property>
  <property name="meta.attr.creation_time.markup">2017-10-19T09:29:02.000000Z</property>
  <property name="kdenlive:folderid">2</property>
  <property name="meta.media.frame_rate_num">25</property>
  <property name="meta.media.frame_rate_den">1</property>
  <property name="meta.media.colorspace">601</property>
  <property name="meta.media.color_trc">2</property>
  <property name="meta.media.width">640</property>
  <property name="meta.media.height">360</property>
  <property name="meta.media.top_field_first">0</property>
  <property name="meta.media.progressive">1</property>
  <property name="kdenlive:file_hash">d8cf4f93ea3c8bdbf8888a8bb34b2d30</property>
  <property name="kdenlive:file_size">112966209</property>
  <property name="kdenlive:proxy">/home/nicolas/.cache/kdenlive/proxy/d8cf4f93ea3c8bdbf8888a8bb34b2d30.mpg</property>
  <property name="proxy_out">2114</property>
  <property name="kdenlive:originalurl">SdB_Raspoutine/DSC_0005.MOV</property>
  <property name="global_feed">1</property>
  <property name="kdenlive:meta.media.nb_streams">2</property>
  <property name="kdenlive:meta.media.0.stream.type">video</property>
  <property name="kdenlive:meta.media.0.stream.frame_rate">25</property>
  <property name="kdenlive:meta.media.0.stream.sample_aspect_ratio">0</property>
  <property name="kdenlive:meta.media.0.codec.width">1280</property>
  <property name="kdenlive:meta.media.0.codec.height">720</property>
  <property name="kdenlive:meta.media.0.codec.rotate">0</property>
  <property name="kdenlive:meta.media.0.codec.frame_rate">25</property>
  <property name="kdenlive:meta.media.0.codec.pix_fmt">yuvj420p</property>
  <property name="kdenlive:meta.media.0.codec.sample_aspect_ratio">1</property>
  <property name="kdenlive:meta.media.0.codec.colorspace">601</property>
  <property name="kdenlive:meta.media.0.codec.color_trc">4</property>
  <property name="kdenlive:meta.media.0.codec.name">h264</property>
  <property name="kdenlive:meta.media.0.codec.long_name">H.264 / AVC / MPEG-4 AVC / MPEG-4 part 10</property>
  <property name="kdenlive:meta.media.0.codec.bit_rate">10286198</property>
  <property name="kdenlive:meta.attr.0.stream.creation_time.markup">2017-10-19T09:29:02.000000Z</property>
  <property name="kdenlive:meta.attr.0.stream.language.markup">eng</property>
  <property name="kdenlive:meta.media.1.stream.type">audio</property>
  <property name="kdenlive:meta.media.1.codec.sample_fmt">s16</property>
  <property name="kdenlive:meta.media.1.codec.sample_rate">24000</property>
  <property name="kdenlive:meta.media.1.codec.channels">1</property>
  <property name="kdenlive:meta.media.1.codec.name">pcm_s16le</property>
  <property name="kdenlive:meta.media.1.codec.long_name">PCM signed 16-bit little-endian</property>
  <property name="kdenlive:meta.media.1.codec.bit_rate">384000</property>
  <property name="kdenlive:meta.attr.1.stream.creation_time.markup">2017-10-19T09:29:02.000000Z</property>
  <property name="kdenlive:meta.attr.1.stream.language.markup">eng</property>
  <property name="kdenlive:meta.attr.major_brand.markup">qt  </property>
  <property name="kdenlive:meta.attr.minor_version.markup">537331968</property>
  <property name="kdenlive:meta.attr.compatible_brands.markup">qt  niko</property>
  <property name="kdenlive:meta.attr.creation_time.markup">2017-10-19T09:29:02.000000Z</property>
  <property name="kdenlive:meta.media.sample_aspect_num">1</property>
  <property name="kdenlive:meta.media.sample_aspect_den">1</property>
  <property name="kdenlive:meta.media.frame_rate_num">25</property>
  <property name="kdenlive:meta.media.frame_rate_den">1</property>
  <property name="kdenlive:meta.media.colorspace">601</property>
  <property name="kdenlive:meta.media.color_trc">4</property>
  <property name="kdenlive:meta.media.width">1280</property>
  <property name="kdenlive:meta.media.height">720</property>
  <property name="kdenlive:meta.media.top_field_first">0</property>
  <property name="kdenlive:meta.media.progressive">1</property>
 </producer>
 <producer id="92" title="Anonymous Submission" out="326" in="0">
  <property name="length">00:00:13:02</property>
  <property name="eof">pause</property>
  <property name="resource">/home/nicolas/.cache/kdenlive/proxy/766566f5e49ce02c5a0f9bbf9eb3a457.mpg</property>
  <property name="meta.media.nb_streams">2</property>
  <property name="meta.media.0.stream.type">video</property>
  <property name="meta.media.0.stream.frame_rate">25</property>
  <property name="meta.media.0.stream.sample_aspect_ratio">0</property>
  <property name="meta.media.0.codec.width">640</property>
  <property name="meta.media.0.codec.height">360</property>
  <property name="meta.media.0.codec.rotate">0</property>
  <property name="meta.media.0.codec.frame_rate">25</property>
  <property name="meta.media.0.codec.pix_fmt">yuv420p</property>
  <property name="meta.media.0.codec.sample_aspect_ratio">1</property>
  <property name="meta.media.0.codec.colorspace">601</property>
  <property name="meta.media.0.codec.name">mpeg2video</property>
  <property name="meta.media.0.codec.long_name">MPEG-2 video</property>
  <property name="meta.media.0.codec.bit_rate">0</property>
  <property name="meta.media.1.stream.type">audio</property>
  <property name="meta.media.1.codec.sample_fmt">s16p</property>
  <property name="meta.media.1.codec.sample_rate">24000</property>
  <property name="meta.media.1.codec.channels">1</property>
  <property name="meta.media.1.codec.name">mp2</property>
  <property name="meta.media.1.codec.long_name">MP2 (MPEG audio layer 2)</property>
  <property name="meta.media.1.codec.bit_rate">128000</property>
  <property name="seekable">1</property>
  <property name="meta.media.sample_aspect_num">1</property>
  <property name="meta.media.sample_aspect_den">1</property>
  <property name="aspect_ratio">1</property>
  <property name="audio_index">1</property>
  <property name="video_index">0</property>
  <property name="mute_on_pause">1</property>
  <property name="mlt_service">avformat</property>
  <property name="meta.media.0.codec.color_trc">4</property>
  <property name="meta.attr.0.stream.creation_time.markup">2017-10-19T10:11:44.000000Z</property>
  <property name="meta.attr.0.stream.language.markup">eng</property>
  <property name="meta.attr.1.stream.creation_time.markup">2017-10-19T10:11:44.000000Z</property>
  <property name="meta.attr.1.stream.language.markup">eng</property>
  <property name="meta.attr.major_brand.markup">qt  </property>
  <property name="meta.attr.minor_version.markup">537331968</property>
  <property name="meta.attr.compatible_brands.markup">qt  niko</property>
  <property name="meta.attr.creation_time.markup">2017-10-19T10:11:44.000000Z</property>
  <property name="kdenlive:folderid">2</property>
  <property name="meta.media.frame_rate_num">25</property>
  <property name="meta.media.frame_rate_den">1</property>
  <property name="meta.media.colorspace">601</property>
  <property name="meta.media.color_trc">2</property>
  <property name="meta.media.width">640</property>
  <property name="meta.media.height">360</property>
  <property name="meta.media.top_field_first">0</property>
  <property name="meta.media.progressive">1</property>
  <property name="kdenlive:file_size">17651287</property>
  <property name="kdenlive:file_hash">766566f5e49ce02c5a0f9bbf9eb3a457</property>
  <property name="kdenlive:proxy">/home/nicolas/.cache/kdenlive/proxy/766566f5e49ce02c5a0f9bbf9eb3a457.mpg</property>
  <property name="proxy_out">326</property>
  <property name="kdenlive:originalurl">SdB_Raspoutine/DSC_0007.MOV</property>
  <property name="global_feed">1</property>
  <property name="kdenlive:meta.media.nb_streams">2</property>
  <property name="kdenlive:meta.media.0.stream.type">video</property>
  <property name="kdenlive:meta.media.0.stream.frame_rate">25</property>
  <property name="kdenlive:meta.media.0.stream.sample_aspect_ratio">0</property>
  <property name="kdenlive:meta.media.0.codec.width">1280</property>
  <property name="kdenlive:meta.media.0.codec.height">720</property>
  <property name="kdenlive:meta.media.0.codec.rotate">0</property>
  <property name="kdenlive:meta.media.0.codec.frame_rate">25</property>
  <property name="kdenlive:meta.media.0.codec.pix_fmt">yuvj420p</property>
  <property name="kdenlive:meta.media.0.codec.sample_aspect_ratio">1</property>
  <property name="kdenlive:meta.media.0.codec.colorspace">601</property>
  <property name="kdenlive:meta.media.0.codec.color_trc">4</property>
  <property name="kdenlive:meta.media.0.codec.name">h264</property>
  <property name="kdenlive:meta.media.0.codec.long_name">H.264 / AVC / MPEG-4 AVC / MPEG-4 part 10</property>
  <property name="kdenlive:meta.media.0.codec.bit_rate">10341821</property>
  <property name="kdenlive:meta.attr.0.stream.creation_time.markup">2017-10-19T10:11:44.000000Z</property>
  <property name="kdenlive:meta.attr.0.stream.language.markup">eng</property>
  <property name="kdenlive:meta.media.1.stream.type">audio</property>
  <property name="kdenlive:meta.media.1.codec.sample_fmt">s16</property>
  <property name="kdenlive:meta.media.1.codec.sample_rate">24000</property>
  <property name="kdenlive:meta.media.1.codec.channels">1</property>
  <property name="kdenlive:meta.media.1.codec.name">pcm_s16le</property>
  <property name="kdenlive:meta.media.1.codec.long_name">PCM signed 16-bit little-endian</property>
  <property name="kdenlive:meta.media.1.codec.bit_rate">384000</property>
  <property name="kdenlive:meta.attr.1.stream.creation_time.markup">2017-10-19T10:11:44.000000Z</property>
  <property name="kdenlive:meta.attr.1.stream.language.markup">eng</property>
  <property name="kdenlive:meta.attr.major_brand.markup">qt  </property>
  <property name="kdenlive:meta.attr.minor_version.markup">537331968</property>
  <property name="kdenlive:meta.attr.compatible_brands.markup">qt  niko</property>
  <property name="kdenlive:meta.attr.creation_time.markup">2017-10-19T10:11:44.000000Z</property>
  <property name="kdenlive:meta.media.sample_aspect_num">1</property>
  <property name="kdenlive:meta.media.sample_aspect_den">1</property>
  <property name="kdenlive:meta.media.frame_rate_num">25</property>
  <property name="kdenlive:meta.media.frame_rate_den">1</property>
  <property name="kdenlive:meta.media.colorspace">601</property>
  <property name="kdenlive:meta.media.color_trc">4</property>
  <property name="kdenlive:meta.media.width">1280</property>
  <property name="kdenlive:meta.media.height">720</property>
  <property name="kdenlive:meta.media.top_field_first">0</property>
  <property name="kdenlive:meta.media.progressive">1</property>
 </producer>
 <producer id="93" title="Anonymous Submission" out="770" in="0">
  <property name="length">00:00:30:21</property>
  <property name="eof">pause</property>
  <property name="resource">/home/nicolas/.cache/kdenlive/proxy/9674c3b4f1a8b21faf07b7b765ad4a1b.mpg</property>
  <property name="meta.media.nb_streams">2</property>
  <property name="meta.media.0.stream.type">video</property>
  <property name="meta.media.0.stream.frame_rate">25</property>
  <property name="meta.media.0.stream.sample_aspect_ratio">0</property>
  <property name="meta.media.0.codec.width">640</property>
  <property name="meta.media.0.codec.height">360</property>
  <property name="meta.media.0.codec.rotate">0</property>
  <property name="meta.media.0.codec.frame_rate">25</property>
  <property name="meta.media.0.codec.pix_fmt">yuv420p</property>
  <property name="meta.media.0.codec.sample_aspect_ratio">1</property>
  <property name="meta.media.0.codec.colorspace">601</property>
  <property name="meta.media.0.codec.name">mpeg2video</property>
  <property name="meta.media.0.codec.long_name">MPEG-2 video</property>
  <property name="meta.media.0.codec.bit_rate">0</property>
  <property name="meta.media.1.stream.type">audio</property>
  <property name="meta.media.1.codec.sample_fmt">s16p</property>
  <property name="meta.media.1.codec.sample_rate">24000</property>
  <property name="meta.media.1.codec.channels">1</property>
  <property name="meta.media.1.codec.name">mp2</property>
  <property name="meta.media.1.codec.long_name">MP2 (MPEG audio layer 2)</property>
  <property name="meta.media.1.codec.bit_rate">128000</property>
  <property name="seekable">1</property>
  <property name="meta.media.sample_aspect_num">1</property>
  <property name="meta.media.sample_aspect_den">1</property>
  <property name="aspect_ratio">1</property>
  <property name="audio_index">1</property>
  <property name="video_index">0</property>
  <property name="mute_on_pause">1</property>
  <property name="mlt_service">avformat</property>
  <property name="meta.media.0.codec.color_trc">4</property>
  <property name="meta.attr.0.stream.creation_time.markup">2017-10-19T10:12:07.000000Z</property>
  <property name="meta.attr.0.stream.language.markup">eng</property>
  <property name="meta.attr.1.stream.creation_time.markup">2017-10-19T10:12:07.000000Z</property>
  <property name="meta.attr.1.stream.language.markup">eng</property>
  <property name="meta.attr.major_brand.markup">qt  </property>
  <property name="meta.attr.minor_version.markup">537331968</property>
  <property name="meta.attr.compatible_brands.markup">qt  niko</property>
  <property name="meta.attr.creation_time.markup">2017-10-19T10:12:07.000000Z</property>
  <property name="kdenlive:folderid">2</property>
  <property name="meta.media.frame_rate_num">25</property>
  <property name="meta.media.frame_rate_den">1</property>
  <property name="meta.media.colorspace">601</property>
  <property name="meta.media.color_trc">2</property>
  <property name="meta.media.width">640</property>
  <property name="meta.media.height">360</property>
  <property name="meta.media.top_field_first">0</property>
  <property name="meta.media.progressive">1</property>
  <property name="kdenlive:file_size">41612258</property>
  <property name="kdenlive:file_hash">9674c3b4f1a8b21faf07b7b765ad4a1b</property>
  <property name="kdenlive:proxy">/home/nicolas/.cache/kdenlive/proxy/9674c3b4f1a8b21faf07b7b765ad4a1b.mpg</property>
  <property name="proxy_out">770</property>
  <property name="kdenlive:originalurl">SdB_Raspoutine/DSC_0008.MOV</property>
  <property name="global_feed">1</property>
  <property name="kdenlive:meta.media.nb_streams">2</property>
  <property name="kdenlive:meta.media.0.stream.type">video</property>
  <property name="kdenlive:meta.media.0.stream.frame_rate">25</property>
  <property name="kdenlive:meta.media.0.stream.sample_aspect_ratio">0</property>
  <property name="kdenlive:meta.media.0.codec.width">1280</property>
  <property name="kdenlive:meta.media.0.codec.height">720</property>
  <property name="kdenlive:meta.media.0.codec.rotate">0</property>
  <property name="kdenlive:meta.media.0.codec.frame_rate">25</property>
  <property name="kdenlive:meta.media.0.codec.pix_fmt">yuvj420p</property>
  <property name="kdenlive:meta.media.0.codec.sample_aspect_ratio">1</property>
  <property name="kdenlive:meta.media.0.codec.colorspace">601</property>
  <property name="kdenlive:meta.media.0.codec.color_trc">4</property>
  <property name="kdenlive:meta.media.0.codec.name">h264</property>
  <property name="kdenlive:meta.media.0.codec.long_name">H.264 / AVC / MPEG-4 AVC / MPEG-4 part 10</property>
  <property name="kdenlive:meta.media.0.codec.bit_rate">10379397</property>
  <property name="kdenlive:meta.attr.0.stream.creation_time.markup">2017-10-19T10:12:07.000000Z</property>
  <property name="kdenlive:meta.attr.0.stream.language.markup">eng</property>
  <property name="kdenlive:meta.media.1.stream.type">audio</property>
  <property name="kdenlive:meta.media.1.codec.sample_fmt">s16</property>
  <property name="kdenlive:meta.media.1.codec.sample_rate">24000</property>
  <property name="kdenlive:meta.media.1.codec.channels">1</property>
  <property name="kdenlive:meta.media.1.codec.name">pcm_s16le</property>
  <property name="kdenlive:meta.media.1.codec.long_name">PCM signed 16-bit little-endian</property>
  <property name="kdenlive:meta.media.1.codec.bit_rate">384000</property>
  <property name="kdenlive:meta.attr.1.stream.creation_time.markup">2017-10-19T10:12:07.000000Z</property>
  <property name="kdenlive:meta.attr.1.stream.language.markup">eng</property>
  <property name="kdenlive:meta.attr.major_brand.markup">qt  </property>
  <property name="kdenlive:meta.attr.minor_version.markup">537331968</property>
  <property name="kdenlive:meta.attr.compatible_brands.markup">qt  niko</property>
  <property name="kdenlive:meta.attr.creation_time.markup">2017-10-19T10:12:07.000000Z</property>
  <property name="kdenlive:meta.media.sample_aspect_num">1</property>
  <property name="kdenlive:meta.media.sample_aspect_den">1</property>
  <property name="kdenlive:meta.media.frame_rate_num">25</property>
  <property name="kdenlive:meta.media.frame_rate_den">1</property>
  <property name="kdenlive:meta.media.colorspace">601</property>
  <property name="kdenlive:meta.media.color_trc">4</property>
  <property name="kdenlive:meta.media.width">1280</property>
  <property name="kdenlive:meta.media.height">720</property>
  <property name="kdenlive:meta.media.top_field_first">0</property>
  <property name="kdenlive:meta.media.progressive">1</property>
 </producer>
 <producer id="94" title="Anonymous Submission" out="608" in="0">
  <property name="length">00:00:24:09</property>
  <property name="eof">pause</property>
  <property name="resource">/home/nicolas/.cache/kdenlive/proxy/5adfb05de2ac020f67710c309e7e6b33.mpg</property>
  <property name="meta.media.nb_streams">2</property>
  <property name="meta.media.0.stream.type">video</property>
  <property name="meta.media.0.stream.frame_rate">25</property>
  <property name="meta.media.0.stream.sample_aspect_ratio">0</property>
  <property name="meta.media.0.codec.width">640</property>
  <property name="meta.media.0.codec.height">360</property>
  <property name="meta.media.0.codec.rotate">0</property>
  <property name="meta.media.0.codec.frame_rate">25</property>
  <property name="meta.media.0.codec.pix_fmt">yuv420p</property>
  <property name="meta.media.0.codec.sample_aspect_ratio">1</property>
  <property name="meta.media.0.codec.colorspace">601</property>
  <property name="meta.media.0.codec.name">mpeg2video</property>
  <property name="meta.media.0.codec.long_name">MPEG-2 video</property>
  <property name="meta.media.0.codec.bit_rate">0</property>
  <property name="meta.media.1.stream.type">audio</property>
  <property name="meta.media.1.codec.sample_fmt">s16p</property>
  <property name="meta.media.1.codec.sample_rate">24000</property>
  <property name="meta.media.1.codec.channels">1</property>
  <property name="meta.media.1.codec.name">mp2</property>
  <property name="meta.media.1.codec.long_name">MP2 (MPEG audio layer 2)</property>
  <property name="meta.media.1.codec.bit_rate">128000</property>
  <property name="seekable">1</property>
  <property name="meta.media.sample_aspect_num">1</property>
  <property name="meta.media.sample_aspect_den">1</property>
  <property name="aspect_ratio">1</property>
  <property name="audio_index">1</property>
  <property name="video_index">0</property>
  <property name="mute_on_pause">1</property>
  <property name="mlt_service">avformat</property>
  <property name="meta.media.0.codec.color_trc">4</property>
  <property name="meta.attr.0.stream.creation_time.markup">2017-10-19T10:14:04.000000Z</property>
  <property name="meta.attr.0.stream.language.markup">eng</property>
  <property name="meta.attr.1.stream.creation_time.markup">2017-10-19T10:14:04.000000Z</property>
  <property name="meta.attr.1.stream.language.markup">eng</property>
  <property name="meta.attr.major_brand.markup">qt  </property>
  <property name="meta.attr.minor_version.markup">537331968</property>
  <property name="meta.attr.compatible_brands.markup">qt  niko</property>
  <property name="meta.attr.creation_time.markup">2017-10-19T10:14:04.000000Z</property>
  <property name="kdenlive:folderid">2</property>
  <property name="meta.media.frame_rate_num">25</property>
  <property name="meta.media.frame_rate_den">1</property>
  <property name="meta.media.colorspace">601</property>
  <property name="meta.media.color_trc">2</property>
  <property name="meta.media.width">640</property>
  <property name="meta.media.height">360</property>
  <property name="meta.media.top_field_first">0</property>
  <property name="meta.media.progressive">1</property>
  <property name="kdenlive:file_hash">5adfb05de2ac020f67710c309e7e6b33</property>
  <property name="kdenlive:file_size">32949135</property>
  <property name="kdenlive:proxy">/home/nicolas/.cache/kdenlive/proxy/5adfb05de2ac020f67710c309e7e6b33.mpg</property>
  <property name="proxy_out">608</property>
  <property name="kdenlive:originalurl">SdB_Raspoutine/DSC_0009.MOV</property>
  <property name="global_feed">1</property>
  <property name="kdenlive:meta.media.nb_streams">2</property>
  <property name="kdenlive:meta.media.0.stream.type">video</property>
  <property name="kdenlive:meta.media.0.stream.frame_rate">25</property>
  <property name="kdenlive:meta.media.0.stream.sample_aspect_ratio">0</property>
  <property name="kdenlive:meta.media.0.codec.width">1280</property>
  <property name="kdenlive:meta.media.0.codec.height">720</property>
  <property name="kdenlive:meta.media.0.codec.rotate">0</property>
  <property name="kdenlive:meta.media.0.codec.frame_rate">25</property>
  <property name="kdenlive:meta.media.0.codec.pix_fmt">yuvj420p</property>
  <property name="kdenlive:meta.media.0.codec.sample_aspect_ratio">1</property>
  <property name="kdenlive:meta.media.0.codec.colorspace">601</property>
  <property name="kdenlive:meta.media.0.codec.color_trc">4</property>
  <property name="kdenlive:meta.media.0.codec.name">h264</property>
  <property name="kdenlive:meta.media.0.codec.long_name">H.264 / AVC / MPEG-4 AVC / MPEG-4 part 10</property>
  <property name="kdenlive:meta.media.0.codec.bit_rate">10398052</property>
  <property name="kdenlive:meta.attr.0.stream.creation_time.markup">2017-10-19T10:14:04.000000Z</property>
  <property name="kdenlive:meta.attr.0.stream.language.markup">eng</property>
  <property name="kdenlive:meta.media.1.stream.type">audio</property>
  <property name="kdenlive:meta.media.1.codec.sample_fmt">s16</property>
  <property name="kdenlive:meta.media.1.codec.sample_rate">24000</property>
  <property name="kdenlive:meta.media.1.codec.channels">1</property>
  <property name="kdenlive:meta.media.1.codec.name">pcm_s16le</property>
  <property name="kdenlive:meta.media.1.codec.long_name">PCM signed 16-bit little-endian</property>
  <property name="kdenlive:meta.media.1.codec.bit_rate">384000</property>
  <property name="kdenlive:meta.attr.1.stream.creation_time.markup">2017-10-19T10:14:04.000000Z</property>
  <property name="kdenlive:meta.attr.1.stream.language.markup">eng</property>
  <property name="kdenlive:meta.attr.major_brand.markup">qt  </property>
  <property name="kdenlive:meta.attr.minor_version.markup">537331968</property>
  <property name="kdenlive:meta.attr.compatible_brands.markup">qt  niko</property>
  <property name="kdenlive:meta.attr.creation_time.markup">2017-10-19T10:14:04.000000Z</property>
  <property name="kdenlive:meta.media.sample_aspect_num">1</property>
  <property name="kdenlive:meta.media.sample_aspect_den">1</property>
  <property name="kdenlive:meta.media.frame_rate_num">25</property>
  <property name="kdenlive:meta.media.frame_rate_den">1</property>
  <property name="kdenlive:meta.media.colorspace">601</property>
  <property name="kdenlive:meta.media.color_trc">4</property>
  <property name="kdenlive:meta.media.width">1280</property>
  <property name="kdenlive:meta.media.height">720</property>
  <property name="kdenlive:meta.media.top_field_first">0</property>
  <property name="kdenlive:meta.media.progressive">1</property>
 </producer>
 <producer id="95" title="Anonymous Submission" out="1877" in="0">
  <property name="length">00:01:15:03</property>
  <property name="eof">pause</property>
  <property name="resource">/home/nicolas/.cache/kdenlive/proxy/4111c4e0c3811efb7579beaf13d4b009.mpg</property>
  <property name="meta.media.nb_streams">2</property>
  <property name="meta.media.0.stream.type">video</property>
  <property name="meta.media.0.stream.frame_rate">25</property>
  <property name="meta.media.0.stream.sample_aspect_ratio">0</property>
  <property name="meta.media.0.codec.width">640</property>
  <property name="meta.media.0.codec.height">360</property>
  <property name="meta.media.0.codec.rotate">0</property>
  <property name="meta.media.0.codec.frame_rate">25</property>
  <property name="meta.media.0.codec.pix_fmt">yuv420p</property>
  <property name="meta.media.0.codec.sample_aspect_ratio">1</property>
  <property name="meta.media.0.codec.colorspace">601</property>
  <property name="meta.media.0.codec.name">mpeg2video</property>
  <property name="meta.media.0.codec.long_name">MPEG-2 video</property>
  <property name="meta.media.0.codec.bit_rate">0</property>
  <property name="meta.media.1.stream.type">audio</property>
  <property name="meta.media.1.codec.sample_fmt">s16p</property>
  <property name="meta.media.1.codec.sample_rate">24000</property>
  <property name="meta.media.1.codec.channels">1</property>
  <property name="meta.media.1.codec.name">mp2</property>
  <property name="meta.media.1.codec.long_name">MP2 (MPEG audio layer 2)</property>
  <property name="meta.media.1.codec.bit_rate">128000</property>
  <property name="seekable">1</property>
  <property name="meta.media.sample_aspect_num">1</property>
  <property name="meta.media.sample_aspect_den">1</property>
  <property name="aspect_ratio">1</property>
  <property name="audio_index">1</property>
  <property name="video_index">0</property>
  <property name="mute_on_pause">1</property>
  <property name="mlt_service">avformat</property>
  <property name="meta.media.0.codec.color_trc">4</property>
  <property name="meta.attr.0.stream.creation_time.markup">2017-10-19T10:14:54.000000Z</property>
  <property name="meta.attr.0.stream.language.markup">eng</property>
  <property name="meta.attr.1.stream.creation_time.markup">2017-10-19T10:14:54.000000Z</property>
  <property name="meta.attr.1.stream.language.markup">eng</property>
  <property name="meta.attr.major_brand.markup">qt  </property>
  <property name="meta.attr.minor_version.markup">537331968</property>
  <property name="meta.attr.compatible_brands.markup">qt  niko</property>
  <property name="meta.attr.creation_time.markup">2017-10-19T10:14:54.000000Z</property>
  <property name="kdenlive:folderid">2</property>
  <property name="meta.media.frame_rate_num">25</property>
  <property name="meta.media.frame_rate_den">1</property>
  <property name="meta.media.colorspace">601</property>
  <property name="meta.media.color_trc">2</property>
  <property name="meta.media.width">640</property>
  <property name="meta.media.height">360</property>
  <property name="meta.media.top_field_first">0</property>
  <property name="meta.media.progressive">1</property>
  <property name="kdenlive:file_size">102474429</property>
  <property name="kdenlive:file_hash">4111c4e0c3811efb7579beaf13d4b009</property>
  <property name="kdenlive:proxy">/home/nicolas/.cache/kdenlive/proxy/4111c4e0c3811efb7579beaf13d4b009.mpg</property>
  <property name="proxy_out">1877</property>
  <property name="kdenlive:originalurl">SdB_Raspoutine/DSC_0010.MOV</property>
  <property name="global_feed">1</property>
  <property name="kdenlive:meta.media.nb_streams">2</property>
  <property name="kdenlive:meta.media.0.stream.type">video</property>
  <property name="kdenlive:meta.media.0.stream.frame_rate">25</property>
  <property name="kdenlive:meta.media.0.stream.sample_aspect_ratio">0</property>
  <property name="kdenlive:meta.media.0.codec.width">1280</property>
  <property name="kdenlive:meta.media.0.codec.height">720</property>
  <property name="kdenlive:meta.media.0.codec.rotate">0</property>
  <property name="kdenlive:meta.media.0.codec.frame_rate">25</property>
  <property name="kdenlive:meta.media.0.codec.pix_fmt">yuvj420p</property>
  <property name="kdenlive:meta.media.0.codec.sample_aspect_ratio">1</property>
  <property name="kdenlive:meta.media.0.codec.colorspace">601</property>
  <property name="kdenlive:meta.media.0.codec.color_trc">4</property>
  <property name="kdenlive:meta.media.0.codec.name">h264</property>
  <property name="kdenlive:meta.media.0.codec.long_name">H.264 / AVC / MPEG-4 AVC / MPEG-4 part 10</property>
  <property name="kdenlive:meta.media.0.codec.bit_rate">10515225</property>
  <property name="kdenlive:meta.attr.0.stream.creation_time.markup">2017-10-19T10:14:54.000000Z</property>
  <property name="kdenlive:meta.attr.0.stream.language.markup">eng</property>
  <property name="kdenlive:meta.media.1.stream.type">audio</property>
  <property name="kdenlive:meta.media.1.codec.sample_fmt">s16</property>
  <property name="kdenlive:meta.media.1.codec.sample_rate">24000</property>
  <property name="kdenlive:meta.media.1.codec.channels">1</property>
  <property name="kdenlive:meta.media.1.codec.name">pcm_s16le</property>
  <property name="kdenlive:meta.media.1.codec.long_name">PCM signed 16-bit little-endian</property>
  <property name="kdenlive:meta.media.1.codec.bit_rate">384000</property>
  <property name="kdenlive:meta.attr.1.stream.creation_time.markup">2017-10-19T10:14:54.000000Z</property>
  <property name="kdenlive:meta.attr.1.stream.language.markup">eng</property>
  <property name="kdenlive:meta.attr.major_brand.markup">qt  </property>
  <property name="kdenlive:meta.attr.minor_version.markup">537331968</property>
  <property name="kdenlive:meta.attr.compatible_brands.markup">qt  niko</property>
  <property name="kdenlive:meta.attr.creation_time.markup">2017-10-19T10:14:54.000000Z</property>
  <property name="kdenlive:meta.media.sample_aspect_num">1</property>
  <property name="kdenlive:meta.media.sample_aspect_den">1</property>
  <property name="kdenlive:meta.media.frame_rate_num">25</property>
  <property name="kdenlive:meta.media.frame_rate_den">1</property>
  <property name="kdenlive:meta.media.colorspace">601</property>
  <property name="kdenlive:meta.media.color_trc">4</property>
  <property name="kdenlive:meta.media.width">1280</property>
  <property name="kdenlive:meta.media.height">720</property>
  <property name="kdenlive:meta.media.top_field_first">0</property>
  <property name="kdenlive:meta.media.progressive">1</property>
 </producer>
 <producer id="91" title="Anonymous Submission" out="9029" in="0">
  <property name="length">00:06:01:05</property>
  <property name="eof">pause</property>
  <property name="resource">/home/nicolas/.cache/kdenlive/proxy/71d616845db80f018fc49d7977b8c0ff.mpg</property>
  <property name="meta.media.nb_streams">2</property>
  <property name="meta.media.0.stream.type">video</property>
  <property name="meta.media.0.stream.frame_rate">25</property>
  <property name="meta.media.0.stream.sample_aspect_ratio">0</property>
  <property name="meta.media.0.codec.width">640</property>
  <property name="meta.media.0.codec.height">360</property>
  <property name="meta.media.0.codec.rotate">0</property>
  <property name="meta.media.0.codec.frame_rate">25</property>
  <property name="meta.media.0.codec.pix_fmt">yuv420p</property>
  <property name="meta.media.0.codec.sample_aspect_ratio">1</property>
  <property name="meta.media.0.codec.colorspace">601</property>
  <property name="meta.media.0.codec.name">mpeg2video</property>
  <property name="meta.media.0.codec.long_name">MPEG-2 video</property>
  <property name="meta.media.0.codec.bit_rate">0</property>
  <property name="meta.media.1.stream.type">audio</property>
  <property name="meta.media.1.codec.sample_fmt">s16p</property>
  <property name="meta.media.1.codec.sample_rate">24000</property>
  <property name="meta.media.1.codec.channels">1</property>
  <property name="meta.media.1.codec.name">mp2</property>
  <property name="meta.media.1.codec.long_name">MP2 (MPEG audio layer 2)</property>
  <property name="meta.media.1.codec.bit_rate">128000</property>
  <property name="seekable">1</property>
  <property name="meta.media.sample_aspect_num">1</property>
  <property name="meta.media.sample_aspect_den">1</property>
  <property name="aspect_ratio">1</property>
  <property name="audio_index">1</property>
  <property name="video_index">0</property>
  <property name="mute_on_pause">1</property>
  <property name="mlt_service">avformat</property>
  <property name="meta.media.0.codec.color_trc">4</property>
  <property name="meta.attr.0.stream.creation_time.markup">2017-10-19T09:59:15.000000Z</property>
  <property name="meta.attr.0.stream.language.markup">eng</property>
  <property name="meta.attr.1.stream.creation_time.markup">2017-10-19T09:59:15.000000Z</property>
  <property name="meta.attr.1.stream.language.markup">eng</property>
  <property name="meta.attr.major_brand.markup">qt  </property>
  <property name="meta.attr.minor_version.markup">537331968</property>
  <property name="meta.attr.compatible_brands.markup">qt  niko</property>
  <property name="meta.attr.creation_time.markup">2017-10-19T09:59:15.000000Z</property>
  <property name="kdenlive:folderid">2</property>
  <property name="meta.media.frame_rate_num">25</property>
  <property name="meta.media.frame_rate_den">1</property>
  <property name="meta.media.colorspace">601</property>
  <property name="meta.media.color_trc">2</property>
  <property name="meta.media.width">640</property>
  <property name="meta.media.height">360</property>
  <property name="meta.media.top_field_first">0</property>
  <property name="meta.media.progressive">1</property>
  <property name="kdenlive:file_size">477957734</property>
  <property name="kdenlive:file_hash">71d616845db80f018fc49d7977b8c0ff</property>
  <property name="kdenlive:proxy">/home/nicolas/.cache/kdenlive/proxy/71d616845db80f018fc49d7977b8c0ff.mpg</property>
  <property name="proxy_out">9029</property>
  <property name="kdenlive:originalurl">SdB_Raspoutine/DSC_0006.MOV</property>
  <property name="global_feed">1</property>
  <property name="kdenlive:meta.media.nb_streams">2</property>
  <property name="kdenlive:meta.media.0.stream.type">video</property>
  <property name="kdenlive:meta.media.0.stream.frame_rate">25</property>
  <property name="kdenlive:meta.media.0.stream.sample_aspect_ratio">0</property>
  <property name="kdenlive:meta.media.0.codec.width">1280</property>
  <property name="kdenlive:meta.media.0.codec.height">720</property>
  <property name="kdenlive:meta.media.0.codec.rotate">0</property>
  <property name="kdenlive:meta.media.0.codec.frame_rate">25</property>
  <property name="kdenlive:meta.media.0.codec.pix_fmt">yuvj420p</property>
  <property name="kdenlive:meta.media.0.codec.sample_aspect_ratio">1</property>
  <property name="kdenlive:meta.media.0.codec.colorspace">601</property>
  <property name="kdenlive:meta.media.0.codec.color_trc">4</property>
  <property name="kdenlive:meta.media.0.codec.name">h264</property>
  <property name="kdenlive:meta.media.0.codec.long_name">H.264 / AVC / MPEG-4 AVC / MPEG-4 part 10</property>
  <property name="kdenlive:meta.media.0.codec.bit_rate">10197487</property>
  <property name="kdenlive:meta.attr.0.stream.creation_time.markup">2017-10-19T09:59:15.000000Z</property>
  <property name="kdenlive:meta.attr.0.stream.language.markup">eng</property>
  <property name="kdenlive:meta.media.1.stream.type">audio</property>
  <property name="kdenlive:meta.media.1.codec.sample_fmt">s16</property>
  <property name="kdenlive:meta.media.1.codec.sample_rate">24000</property>
  <property name="kdenlive:meta.media.1.codec.channels">1</property>
  <property name="kdenlive:meta.media.1.codec.name">pcm_s16le</property>
  <property name="kdenlive:meta.media.1.codec.long_name">PCM signed 16-bit little-endian</property>
  <property name="kdenlive:meta.media.1.codec.bit_rate">384000</property>
  <property name="kdenlive:meta.attr.1.stream.creation_time.markup">2017-10-19T09:59:15.000000Z</property>
  <property name="kdenlive:meta.attr.1.stream.language.markup">eng</property>
  <property name="kdenlive:meta.attr.major_brand.markup">qt  </property>
  <property name="kdenlive:meta.attr.minor_version.markup">537331968</property>
  <property name="kdenlive:meta.attr.compatible_brands.markup">qt  niko</property>
  <property name="kdenlive:meta.attr.creation_time.markup">2017-10-19T09:59:15.000000Z</property>
  <property name="kdenlive:meta.media.sample_aspect_num">1</property>
  <property name="kdenlive:meta.media.sample_aspect_den">1</property>
  <property name="kdenlive:meta.media.frame_rate_num">25</property>
  <property name="kdenlive:meta.media.frame_rate_den">1</property>
  <property name="kdenlive:meta.media.colorspace">601</property>
  <property name="kdenlive:meta.media.color_trc">4</property>
  <property name="kdenlive:meta.media.width">1280</property>
  <property name="kdenlive:meta.media.height">720</property>
  <property name="kdenlive:meta.media.top_field_first">0</property>
  <property name="kdenlive:meta.media.progressive">1</property>
 </producer>
 <producer id="96" title="Anonymous Submission" out="5255" in="0">
  <property name="length">00:03:30:06</property>
  <property name="eof">pause</property>
  <property name="resource">/home/nicolas/.cache/kdenlive/proxy/d95f31d1718dd6ec3f216dcb3e347862.mpg</property>
  <property name="meta.media.nb_streams">2</property>
  <property name="meta.media.0.stream.type">video</property>
  <property name="meta.media.0.stream.frame_rate">25</property>
  <property name="meta.media.0.stream.sample_aspect_ratio">0</property>
  <property name="meta.media.0.codec.width">640</property>
  <property name="meta.media.0.codec.height">360</property>
  <property name="meta.media.0.codec.rotate">0</property>
  <property name="meta.media.0.codec.frame_rate">25</property>
  <property name="meta.media.0.codec.pix_fmt">yuv420p</property>
  <property name="meta.media.0.codec.sample_aspect_ratio">1</property>
  <property name="meta.media.0.codec.colorspace">601</property>
  <property name="meta.media.0.codec.name">mpeg2video</property>
  <property name="meta.media.0.codec.long_name">MPEG-2 video</property>
  <property name="meta.media.0.codec.bit_rate">0</property>
  <property name="meta.media.1.stream.type">audio</property>
  <property name="meta.media.1.codec.sample_fmt">s16p</property>
  <property name="meta.media.1.codec.sample_rate">24000</property>
  <property name="meta.media.1.codec.channels">1</property>
  <property name="meta.media.1.codec.name">mp2</property>
  <property name="meta.media.1.codec.long_name">MP2 (MPEG audio layer 2)</property>
  <property name="meta.media.1.codec.bit_rate">128000</property>
  <property name="seekable">1</property>
  <property name="meta.media.sample_aspect_num">1</property>
  <property name="meta.media.sample_aspect_den">1</property>
  <property name="aspect_ratio">1</property>
  <property name="audio_index">1</property>
  <property name="video_index">0</property>
  <property name="mute_on_pause">1</property>
  <property name="mlt_service">avformat</property>
  <property name="meta.media.0.codec.color_trc">4</property>
  <property name="meta.attr.0.stream.creation_time.markup">2017-10-19T10:22:34.000000Z</property>
  <property name="meta.attr.0.stream.language.markup">eng</property>
  <property name="meta.attr.1.stream.creation_time.markup">2017-10-19T10:22:34.000000Z</property>
  <property name="meta.attr.1.stream.language.markup">eng</property>
  <property name="meta.attr.major_brand.markup">qt  </property>
  <property name="meta.attr.minor_version.markup">537331968</property>
  <property name="meta.attr.compatible_brands.markup">qt  niko</property>
  <property name="meta.attr.creation_time.markup">2017-10-19T10:22:34.000000Z</property>
  <property name="kdenlive:folderid">2</property>
  <property name="meta.media.frame_rate_num">25</property>
  <property name="meta.media.frame_rate_den">1</property>
  <property name="meta.media.colorspace">601</property>
  <property name="meta.media.color_trc">2</property>
  <property name="meta.media.width">640</property>
  <property name="meta.media.height">360</property>
  <property name="meta.media.top_field_first">0</property>
  <property name="meta.media.progressive">1</property>
  <property name="kdenlive:file_size">280029646</property>
  <property name="kdenlive:file_hash">d95f31d1718dd6ec3f216dcb3e347862</property>
  <property name="kdenlive:proxy">/home/nicolas/.cache/kdenlive/proxy/d95f31d1718dd6ec3f216dcb3e347862.mpg</property>
  <property name="proxy_out">5255</property>
  <property name="kdenlive:originalurl">SdB_Raspoutine/DSC_0011.MOV</property>
  <property name="global_feed">1</property>
  <property name="kdenlive:meta.media.nb_streams">2</property>
  <property name="kdenlive:meta.media.0.stream.type">video</property>
  <property name="kdenlive:meta.media.0.stream.frame_rate">25</property>
  <property name="kdenlive:meta.media.0.stream.sample_aspect_ratio">0</property>
  <property name="kdenlive:meta.media.0.codec.width">1280</property>
  <property name="kdenlive:meta.media.0.codec.height">720</property>
  <property name="kdenlive:meta.media.0.codec.rotate">0</property>
  <property name="kdenlive:meta.media.0.codec.frame_rate">25</property>
  <property name="kdenlive:meta.media.0.codec.pix_fmt">yuvj420p</property>
  <property name="kdenlive:meta.media.0.codec.sample_aspect_ratio">1</property>
  <property name="kdenlive:meta.media.0.codec.colorspace">601</property>
  <property name="kdenlive:meta.media.0.codec.color_trc">4</property>
  <property name="kdenlive:meta.media.0.codec.name">h264</property>
  <property name="kdenlive:meta.media.0.codec.long_name">H.264 / AVC / MPEG-4 AVC / MPEG-4 part 10</property>
  <property name="kdenlive:meta.media.0.codec.bit_rate">10265301</property>
  <property name="kdenlive:meta.attr.0.stream.creation_time.markup">2017-10-19T10:22:34.000000Z</property>
  <property name="kdenlive:meta.attr.0.stream.language.markup">eng</property>
  <property name="kdenlive:meta.media.1.stream.type">audio</property>
  <property name="kdenlive:meta.media.1.codec.sample_fmt">s16</property>
  <property name="kdenlive:meta.media.1.codec.sample_rate">24000</property>
  <property name="kdenlive:meta.media.1.codec.channels">1</property>
  <property name="kdenlive:meta.media.1.codec.name">pcm_s16le</property>
  <property name="kdenlive:meta.media.1.codec.long_name">PCM signed 16-bit little-endian</property>
  <property name="kdenlive:meta.media.1.codec.bit_rate">384000</property>
  <property name="kdenlive:meta.attr.1.stream.creation_time.markup">2017-10-19T10:22:34.000000Z</property>
  <property name="kdenlive:meta.attr.1.stream.language.markup">eng</property>
  <property name="kdenlive:meta.attr.major_brand.markup">qt  </property>
  <property name="kdenlive:meta.attr.minor_version.markup">537331968</property>
  <property name="kdenlive:meta.attr.compatible_brands.markup">qt  niko</property>
  <property name="kdenlive:meta.attr.creation_time.markup">2017-10-19T10:22:34.000000Z</property>
  <property name="kdenlive:meta.media.sample_aspect_num">1</property>
  <property name="kdenlive:meta.media.sample_aspect_den">1</property>
  <property name="kdenlive:meta.media.frame_rate_num">25</property>
  <property name="kdenlive:meta.media.frame_rate_den">1</property>
  <property name="kdenlive:meta.media.colorspace">601</property>
  <property name="kdenlive:meta.media.color_trc">4</property>
  <property name="kdenlive:meta.media.width">1280</property>
  <property name="kdenlive:meta.media.height">720</property>
  <property name="kdenlive:meta.media.top_field_first">0</property>
  <property name="kdenlive:meta.media.progressive">1</property>
 </producer>
 <producer id="98" title="Anonymous Submission" out="122" in="0">
  <property name="length">00:00:04:23</property>
  <property name="eof">pause</property>
  <property name="resource">/home/nicolas/.cache/kdenlive/proxy/dd66bcf9fc27a05357a0662cf331b325.mpg</property>
  <property name="meta.media.nb_streams">2</property>
  <property name="meta.media.0.stream.type">video</property>
  <property name="meta.media.0.stream.frame_rate">25</property>
  <property name="meta.media.0.stream.sample_aspect_ratio">0</property>
  <property name="meta.media.0.codec.width">640</property>
  <property name="meta.media.0.codec.height">360</property>
  <property name="meta.media.0.codec.rotate">0</property>
  <property name="meta.media.0.codec.frame_rate">25</property>
  <property name="meta.media.0.codec.pix_fmt">yuv420p</property>
  <property name="meta.media.0.codec.sample_aspect_ratio">1</property>
  <property name="meta.media.0.codec.colorspace">601</property>
  <property name="meta.media.0.codec.name">mpeg2video</property>
  <property name="meta.media.0.codec.long_name">MPEG-2 video</property>
  <property name="meta.media.0.codec.bit_rate">0</property>
  <property name="meta.media.1.stream.type">audio</property>
  <property name="meta.media.1.codec.sample_fmt">s16p</property>
  <property name="meta.media.1.codec.sample_rate">24000</property>
  <property name="meta.media.1.codec.channels">1</property>
  <property name="meta.media.1.codec.name">mp2</property>
  <property name="meta.media.1.codec.long_name">MP2 (MPEG audio layer 2)</property>
  <property name="meta.media.1.codec.bit_rate">128000</property>
  <property name="seekable">1</property>
  <property name="meta.media.sample_aspect_num">1</property>
  <property name="meta.media.sample_aspect_den">1</property>
  <property name="aspect_ratio">1</property>
  <property name="audio_index">1</property>
  <property name="video_index">0</property>
  <property name="mute_on_pause">1</property>
  <property name="mlt_service">avformat</property>
  <property name="meta.media.0.codec.color_trc">4</property>
  <property name="meta.attr.0.stream.creation_time.markup">2017-10-19T10:56:59.000000Z</property>
  <property name="meta.attr.0.stream.language.markup">eng</property>
  <property name="meta.attr.1.stream.creation_time.markup">2017-10-19T10:56:59.000000Z</property>
  <property name="meta.attr.1.stream.language.markup">eng</property>
  <property name="meta.attr.major_brand.markup">qt  </property>
  <property name="meta.attr.minor_version.markup">537331968</property>
  <property name="meta.attr.compatible_brands.markup">qt  niko</property>
  <property name="meta.attr.creation_time.markup">2017-10-19T10:56:59.000000Z</property>
  <property name="kdenlive:folderid">2</property>
  <property name="meta.media.frame_rate_num">25</property>
  <property name="meta.media.frame_rate_den">1</property>
  <property name="meta.media.colorspace">601</property>
  <property name="meta.media.color_trc">2</property>
  <property name="meta.media.width">640</property>
  <property name="meta.media.height">360</property>
  <property name="meta.media.top_field_first">0</property>
  <property name="meta.media.progressive">1</property>
  <property name="kdenlive:file_size">6999300</property>
  <property name="kdenlive:file_hash">dd66bcf9fc27a05357a0662cf331b325</property>
  <property name="kdenlive:proxy">/home/nicolas/.cache/kdenlive/proxy/dd66bcf9fc27a05357a0662cf331b325.mpg</property>
  <property name="proxy_out">122</property>
  <property name="kdenlive:originalurl">SdB_Raspoutine/DSC_0013.MOV</property>
  <property name="global_feed">1</property>
  <property name="kdenlive:meta.media.nb_streams">2</property>
  <property name="kdenlive:meta.media.0.stream.type">video</property>
  <property name="kdenlive:meta.media.0.stream.frame_rate">25</property>
  <property name="kdenlive:meta.media.0.stream.sample_aspect_ratio">0</property>
  <property name="kdenlive:meta.media.0.codec.width">1280</property>
  <property name="kdenlive:meta.media.0.codec.height">720</property>
  <property name="kdenlive:meta.media.0.codec.rotate">0</property>
  <property name="kdenlive:meta.media.0.codec.frame_rate">25</property>
  <property name="kdenlive:meta.media.0.codec.pix_fmt">yuvj420p</property>
  <property name="kdenlive:meta.media.0.codec.sample_aspect_ratio">1</property>
  <property name="kdenlive:meta.media.0.codec.colorspace">601</property>
  <property name="kdenlive:meta.media.0.codec.color_trc">4</property>
  <property name="kdenlive:meta.media.0.codec.name">h264</property>
  <property name="kdenlive:meta.media.0.codec.long_name">H.264 / AVC / MPEG-4 AVC / MPEG-4 part 10</property>
  <property name="kdenlive:meta.media.0.codec.bit_rate">10812469</property>
  <property name="kdenlive:meta.attr.0.stream.creation_time.markup">2017-10-19T10:56:59.000000Z</property>
  <property name="kdenlive:meta.attr.0.stream.language.markup">eng</property>
  <property name="kdenlive:meta.media.1.stream.type">audio</property>
  <property name="kdenlive:meta.media.1.codec.sample_fmt">s16</property>
  <property name="kdenlive:meta.media.1.codec.sample_rate">24000</property>
  <property name="kdenlive:meta.media.1.codec.channels">1</property>
  <property name="kdenlive:meta.media.1.codec.name">pcm_s16le</property>
  <property name="kdenlive:meta.media.1.codec.long_name">PCM signed 16-bit little-endian</property>
  <property name="kdenlive:meta.media.1.codec.bit_rate">384000</property>
  <property name="kdenlive:meta.attr.1.stream.creation_time.markup">2017-10-19T10:56:59.000000Z</property>
  <property name="kdenlive:meta.attr.1.stream.language.markup">eng</property>
  <property name="kdenlive:meta.attr.major_brand.markup">qt  </property>
  <property name="kdenlive:meta.attr.minor_version.markup">537331968</property>
  <property name="kdenlive:meta.attr.compatible_brands.markup">qt  niko</property>
  <property name="kdenlive:meta.attr.creation_time.markup">2017-10-19T10:56:59.000000Z</property>
  <property name="kdenlive:meta.media.sample_aspect_num">1</property>
  <property name="kdenlive:meta.media.sample_aspect_den">1</property>
  <property name="kdenlive:meta.media.frame_rate_num">25</property>
  <property name="kdenlive:meta.media.frame_rate_den">1</property>
  <property name="kdenlive:meta.media.colorspace">601</property>
  <property name="kdenlive:meta.media.color_trc">4</property>
  <property name="kdenlive:meta.media.width">1280</property>
  <property name="kdenlive:meta.media.height">720</property>
  <property name="kdenlive:meta.media.top_field_first">0</property>
  <property name="kdenlive:meta.media.progressive">1</property>
 </producer>
 <producer id="97" title="Anonymous Submission" out="7274" in="0">
  <property name="length">00:04:51:00</property>
  <property name="eof">pause</property>
  <property name="resource">/home/nicolas/.cache/kdenlive/proxy/f194678b2ba7b47b1b92291a25f3c76e.mpg</property>
  <property name="meta.media.nb_streams">2</property>
  <property name="meta.media.0.stream.type">video</property>
  <property name="meta.media.0.stream.frame_rate">25</property>
  <property name="meta.media.0.stream.sample_aspect_ratio">0</property>
  <property name="meta.media.0.codec.width">640</property>
  <property name="meta.media.0.codec.height">360</property>
  <property name="meta.media.0.codec.rotate">0</property>
  <property name="meta.media.0.codec.frame_rate">25</property>
  <property name="meta.media.0.codec.pix_fmt">yuv420p</property>
  <property name="meta.media.0.codec.sample_aspect_ratio">1</property>
  <property name="meta.media.0.codec.colorspace">601</property>
  <property name="meta.media.0.codec.name">mpeg2video</property>
  <property name="meta.media.0.codec.long_name">MPEG-2 video</property>
  <property name="meta.media.0.codec.bit_rate">0</property>
  <property name="meta.media.1.stream.type">audio</property>
  <property name="meta.media.1.codec.sample_fmt">s16p</property>
  <property name="meta.media.1.codec.sample_rate">24000</property>
  <property name="meta.media.1.codec.channels">1</property>
  <property name="meta.media.1.codec.name">mp2</property>
  <property name="meta.media.1.codec.long_name">MP2 (MPEG audio layer 2)</property>
  <property name="meta.media.1.codec.bit_rate">128000</property>
  <property name="seekable">1</property>
  <property name="meta.media.sample_aspect_num">1</property>
  <property name="meta.media.sample_aspect_den">1</property>
  <property name="aspect_ratio">1</property>
  <property name="audio_index">1</property>
  <property name="video_index">0</property>
  <property name="mute_on_pause">1</property>
  <property name="mlt_service">avformat</property>
  <property name="meta.media.0.codec.color_trc">4</property>
  <property name="meta.attr.0.stream.creation_time.markup">2017-10-19T10:41:41.000000Z</property>
  <property name="meta.attr.0.stream.language.markup">eng</property>
  <property name="meta.attr.1.stream.creation_time.markup">2017-10-19T10:41:41.000000Z</property>
  <property name="meta.attr.1.stream.language.markup">eng</property>
  <property name="meta.attr.major_brand.markup">qt  </property>
  <property name="meta.attr.minor_version.markup">537331968</property>
  <property name="meta.attr.compatible_brands.markup">qt  niko</property>
  <property name="meta.attr.creation_time.markup">2017-10-19T10:41:41.000000Z</property>
  <property name="kdenlive:folderid">2</property>
  <property name="meta.media.frame_rate_num">25</property>
  <property name="meta.media.frame_rate_den">1</property>
  <property name="meta.media.colorspace">601</property>
  <property name="meta.media.color_trc">2</property>
  <property name="meta.media.width">640</property>
  <property name="meta.media.height">360</property>
  <property name="meta.media.top_field_first">0</property>
  <property name="meta.media.progressive">1</property>
  <property name="kdenlive:file_size">386286803</property>
  <property name="kdenlive:file_hash">f194678b2ba7b47b1b92291a25f3c76e</property>
  <property name="kdenlive:proxy">/home/nicolas/.cache/kdenlive/proxy/f194678b2ba7b47b1b92291a25f3c76e.mpg</property>
  <property name="proxy_out">7274</property>
  <property name="kdenlive:originalurl">SdB_Raspoutine/DSC_0012.MOV</property>
  <property name="global_feed">1</property>
  <property name="kdenlive:meta.media.nb_streams">2</property>
  <property name="kdenlive:meta.media.0.stream.type">video</property>
  <property name="kdenlive:meta.media.0.stream.frame_rate">25</property>
  <property name="kdenlive:meta.media.0.stream.sample_aspect_ratio">0</property>
  <property name="kdenlive:meta.media.0.codec.width">1280</property>
  <property name="kdenlive:meta.media.0.codec.height">720</property>
  <property name="kdenlive:meta.media.0.codec.rotate">0</property>
  <property name="kdenlive:meta.media.0.codec.frame_rate">25</property>
  <property name="kdenlive:meta.media.0.codec.pix_fmt">yuvj420p</property>
  <property name="kdenlive:meta.media.0.codec.sample_aspect_ratio">1</property>
  <property name="kdenlive:meta.media.0.codec.colorspace">601</property>
  <property name="kdenlive:meta.media.0.codec.color_trc">4</property>
  <property name="kdenlive:meta.media.0.codec.name">h264</property>
  <property name="kdenlive:meta.media.0.codec.long_name">H.264 / AVC / MPEG-4 AVC / MPEG-4 part 10</property>
  <property name="kdenlive:meta.media.0.codec.bit_rate">10230454</property>
  <property name="kdenlive:meta.attr.0.stream.creation_time.markup">2017-10-19T10:41:41.000000Z</property>
  <property name="kdenlive:meta.attr.0.stream.language.markup">eng</property>
  <property name="kdenlive:meta.media.1.stream.type">audio</property>
  <property name="kdenlive:meta.media.1.codec.sample_fmt">s16</property>
  <property name="kdenlive:meta.media.1.codec.sample_rate">24000</property>
  <property name="kdenlive:meta.media.1.codec.channels">1</property>
  <property name="kdenlive:meta.media.1.codec.name">pcm_s16le</property>
  <property name="kdenlive:meta.media.1.codec.long_name">PCM signed 16-bit little-endian</property>
  <property name="kdenlive:meta.media.1.codec.bit_rate">384000</property>
  <property name="kdenlive:meta.attr.1.stream.creation_time.markup">2017-10-19T10:41:41.000000Z</property>
  <property name="kdenlive:meta.attr.1.stream.language.markup">eng</property>
  <property name="kdenlive:meta.attr.major_brand.markup">qt  </property>
  <property name="kdenlive:meta.attr.minor_version.markup">537331968</property>
  <property name="kdenlive:meta.attr.compatible_brands.markup">qt  niko</property>
  <property name="kdenlive:meta.attr.creation_time.markup">2017-10-19T10:41:41.000000Z</property>
  <property name="kdenlive:meta.media.sample_aspect_num">1</property>
  <property name="kdenlive:meta.media.sample_aspect_den">1</property>
  <property name="kdenlive:meta.media.frame_rate_num">25</property>
  <property name="kdenlive:meta.media.frame_rate_den">1</property>
  <property name="kdenlive:meta.media.colorspace">601</property>
  <property name="kdenlive:meta.media.color_trc">4</property>
  <property name="kdenlive:meta.media.width">1280</property>
  <property name="kdenlive:meta.media.height">720</property>
  <property name="kdenlive:meta.media.top_field_first">0</property>
  <property name="kdenlive:meta.media.progressive">1</property>
 </producer>
 <producer id="99" title="Anonymous Submission" out="6818" in="0">
  <property name="length">00:04:32:19</property>
  <property name="eof">pause</property>
  <property name="resource">/home/nicolas/.cache/kdenlive/proxy/9457852a605db67aabedec2cab251fd4.mpg</property>
  <property name="meta.media.nb_streams">2</property>
  <property name="meta.media.0.stream.type">video</property>
  <property name="meta.media.0.stream.frame_rate">25</property>
  <property name="meta.media.0.stream.sample_aspect_ratio">0</property>
  <property name="meta.media.0.codec.width">640</property>
  <property name="meta.media.0.codec.height">360</property>
  <property name="meta.media.0.codec.rotate">0</property>
  <property name="meta.media.0.codec.frame_rate">25</property>
  <property name="meta.media.0.codec.pix_fmt">yuv420p</property>
  <property name="meta.media.0.codec.sample_aspect_ratio">1</property>
  <property name="meta.media.0.codec.colorspace">601</property>
  <property name="meta.media.0.codec.name">mpeg2video</property>
  <property name="meta.media.0.codec.long_name">MPEG-2 video</property>
  <property name="meta.media.0.codec.bit_rate">0</property>
  <property name="meta.media.1.stream.type">audio</property>
  <property name="meta.media.1.codec.sample_fmt">s16p</property>
  <property name="meta.media.1.codec.sample_rate">24000</property>
  <property name="meta.media.1.codec.channels">1</property>
  <property name="meta.media.1.codec.name">mp2</property>
  <property name="meta.media.1.codec.long_name">MP2 (MPEG audio layer 2)</property>
  <property name="meta.media.1.codec.bit_rate">128000</property>
  <property name="seekable">1</property>
  <property name="meta.media.sample_aspect_num">1</property>
  <property name="meta.media.sample_aspect_den">1</property>
  <property name="aspect_ratio">1</property>
  <property name="audio_index">1</property>
  <property name="video_index">0</property>
  <property name="mute_on_pause">1</property>
  <property name="mlt_service">avformat</property>
  <property name="meta.media.0.codec.color_trc">4</property>
  <property name="meta.attr.0.stream.creation_time.markup">2017-10-19T10:57:27.000000Z</property>
  <property name="meta.attr.0.stream.language.markup">eng</property>
  <property name="meta.attr.1.stream.creation_time.markup">2017-10-19T10:57:27.000000Z</property>
  <property name="meta.attr.1.stream.language.markup">eng</property>
  <property name="meta.attr.major_brand.markup">qt  </property>
  <property name="meta.attr.minor_version.markup">537331968</property>
  <property name="meta.attr.compatible_brands.markup">qt  niko</property>
  <property name="meta.attr.creation_time.markup">2017-10-19T10:57:27.000000Z</property>
  <property name="kdenlive:folderid">2</property>
  <property name="meta.media.frame_rate_num">25</property>
  <property name="meta.media.frame_rate_den">1</property>
  <property name="meta.media.colorspace">601</property>
  <property name="meta.media.color_trc">2</property>
  <property name="meta.media.width">640</property>
  <property name="meta.media.height">360</property>
  <property name="meta.media.top_field_first">0</property>
  <property name="meta.media.progressive">1</property>
  <property name="kdenlive:file_size">362389287</property>
  <property name="kdenlive:file_hash">9457852a605db67aabedec2cab251fd4</property>
  <property name="kdenlive:proxy">/home/nicolas/.cache/kdenlive/proxy/9457852a605db67aabedec2cab251fd4.mpg</property>
  <property name="proxy_out">6818</property>
  <property name="kdenlive:originalurl">SdB_Raspoutine/DSC_0014.MOV</property>
  <property name="global_feed">1</property>
  <property name="kdenlive:meta.media.nb_streams">2</property>
  <property name="kdenlive:meta.media.0.stream.type">video</property>
  <property name="kdenlive:meta.media.0.stream.frame_rate">25</property>
  <property name="kdenlive:meta.media.0.stream.sample_aspect_ratio">0</property>
  <property name="kdenlive:meta.media.0.codec.width">1280</property>
  <property name="kdenlive:meta.media.0.codec.height">720</property>
  <property name="kdenlive:meta.media.0.codec.rotate">0</property>
  <property name="kdenlive:meta.media.0.codec.frame_rate">25</property>
  <property name="kdenlive:meta.media.0.codec.pix_fmt">yuvj420p</property>
  <property name="kdenlive:meta.media.0.codec.sample_aspect_ratio">1</property>
  <property name="kdenlive:meta.media.0.codec.colorspace">601</property>
  <property name="kdenlive:meta.media.0.codec.color_trc">4</property>
  <property name="kdenlive:meta.media.0.codec.name">h264</property>
  <property name="kdenlive:meta.media.0.codec.long_name">H.264 / AVC / MPEG-4 AVC / MPEG-4 part 10</property>
  <property name="kdenlive:meta.media.0.codec.bit_rate">10239502</property>
  <property name="kdenlive:meta.attr.0.stream.creation_time.markup">2017-10-19T10:57:27.000000Z</property>
  <property name="kdenlive:meta.attr.0.stream.language.markup">eng</property>
  <property name="kdenlive:meta.media.1.stream.type">audio</property>
  <property name="kdenlive:meta.media.1.codec.sample_fmt">s16</property>
  <property name="kdenlive:meta.media.1.codec.sample_rate">24000</property>
  <property name="kdenlive:meta.media.1.codec.channels">1</property>
  <property name="kdenlive:meta.media.1.codec.name">pcm_s16le</property>
  <property name="kdenlive:meta.media.1.codec.long_name">PCM signed 16-bit little-endian</property>
  <property name="kdenlive:meta.media.1.codec.bit_rate">384000</property>
  <property name="kdenlive:meta.attr.1.stream.creation_time.markup">2017-10-19T10:57:27.000000Z</property>
  <property name="kdenlive:meta.attr.1.stream.language.markup">eng</property>
  <property name="kdenlive:meta.attr.major_brand.markup">qt  </property>
  <property name="kdenlive:meta.attr.minor_version.markup">537331968</property>
  <property name="kdenlive:meta.attr.compatible_brands.markup">qt  niko</property>
  <property name="kdenlive:meta.attr.creation_time.markup">2017-10-19T10:57:27.000000Z</property>
  <property name="kdenlive:meta.media.sample_aspect_num">1</property>
  <property name="kdenlive:meta.media.sample_aspect_den">1</property>
  <property name="kdenlive:meta.media.frame_rate_num">25</property>
  <property name="kdenlive:meta.media.frame_rate_den">1</property>
  <property name="kdenlive:meta.media.colorspace">601</property>
  <property name="kdenlive:meta.media.color_trc">4</property>
  <property name="kdenlive:meta.media.width">1280</property>
  <property name="kdenlive:meta.media.height">720</property>
  <property name="kdenlive:meta.media.top_field_first">0</property>
  <property name="kdenlive:meta.media.progressive">1</property>
 </producer>
 <producer id="101" title="Anonymous Submission" out="5894" in="0">
  <property name="length">00:03:55:20</property>
  <property name="eof">pause</property>
  <property name="resource">/home/nicolas/.cache/kdenlive/proxy/33634318a4dbf6b283890e15e62ef7a3.mpg</property>
  <property name="meta.media.nb_streams">2</property>
  <property name="meta.media.0.stream.type">video</property>
  <property name="meta.media.0.stream.frame_rate">25</property>
  <property name="meta.media.0.stream.sample_aspect_ratio">0</property>
  <property name="meta.media.0.codec.width">640</property>
  <property name="meta.media.0.codec.height">360</property>
  <property name="meta.media.0.codec.rotate">0</property>
  <property name="meta.media.0.codec.frame_rate">25</property>
  <property name="meta.media.0.codec.pix_fmt">yuv420p</property>
  <property name="meta.media.0.codec.sample_aspect_ratio">1</property>
  <property name="meta.media.0.codec.colorspace">601</property>
  <property name="meta.media.0.codec.name">mpeg2video</property>
  <property name="meta.media.0.codec.long_name">MPEG-2 video</property>
  <property name="meta.media.0.codec.bit_rate">0</property>
  <property name="meta.media.1.stream.type">audio</property>
  <property name="meta.media.1.codec.sample_fmt">s16p</property>
  <property name="meta.media.1.codec.sample_rate">24000</property>
  <property name="meta.media.1.codec.channels">1</property>
  <property name="meta.media.1.codec.name">mp2</property>
  <property name="meta.media.1.codec.long_name">MP2 (MPEG audio layer 2)</property>
  <property name="meta.media.1.codec.bit_rate">128000</property>
  <property name="seekable">1</property>
  <property name="meta.media.sample_aspect_num">1</property>
  <property name="meta.media.sample_aspect_den">1</property>
  <property name="aspect_ratio">1</property>
  <property name="audio_index">1</property>
  <property name="video_index">0</property>
  <property name="mute_on_pause">1</property>
  <property name="mlt_service">avformat</property>
  <property name="meta.media.0.codec.color_trc">4</property>
  <property name="meta.attr.0.stream.creation_time.markup">2017-10-19T12:04:21.000000Z</property>
  <property name="meta.attr.0.stream.language.markup">eng</property>
  <property name="meta.attr.1.stream.creation_time.markup">2017-10-19T12:04:21.000000Z</property>
  <property name="meta.attr.1.stream.language.markup">eng</property>
  <property name="meta.attr.major_brand.markup">qt  </property>
  <property name="meta.attr.minor_version.markup">537331968</property>
  <property name="meta.attr.compatible_brands.markup">qt  niko</property>
  <property name="meta.attr.creation_time.markup">2017-10-19T12:04:21.000000Z</property>
  <property name="kdenlive:folderid">2</property>
  <property name="meta.media.frame_rate_num">25</property>
  <property name="meta.media.frame_rate_den">1</property>
  <property name="meta.media.colorspace">601</property>
  <property name="meta.media.color_trc">2</property>
  <property name="meta.media.width">640</property>
  <property name="meta.media.height">360</property>
  <property name="meta.media.top_field_first">0</property>
  <property name="meta.media.progressive">1</property>
  <property name="kdenlive:file_size">311477089</property>
  <property name="kdenlive:file_hash">33634318a4dbf6b283890e15e62ef7a3</property>
  <property name="kdenlive:proxy">/home/nicolas/.cache/kdenlive/proxy/33634318a4dbf6b283890e15e62ef7a3.mpg</property>
  <property name="proxy_out">5894</property>
  <property name="kdenlive:originalurl">SdB_Raspoutine/DSC_0017.MOV</property>
  <property name="global_feed">1</property>
  <property name="kdenlive:meta.media.nb_streams">2</property>
  <property name="kdenlive:meta.media.0.stream.type">video</property>
  <property name="kdenlive:meta.media.0.stream.frame_rate">25</property>
  <property name="kdenlive:meta.media.0.stream.sample_aspect_ratio">0</property>
  <property name="kdenlive:meta.media.0.codec.width">1280</property>
  <property name="kdenlive:meta.media.0.codec.height">720</property>
  <property name="kdenlive:meta.media.0.codec.rotate">0</property>
  <property name="kdenlive:meta.media.0.codec.frame_rate">25</property>
  <property name="kdenlive:meta.media.0.codec.pix_fmt">yuvj420p</property>
  <property name="kdenlive:meta.media.0.codec.sample_aspect_ratio">1</property>
  <property name="kdenlive:meta.media.0.codec.colorspace">601</property>
  <property name="kdenlive:meta.media.0.codec.color_trc">4</property>
  <property name="kdenlive:meta.media.0.codec.name">h264</property>
  <property name="kdenlive:meta.media.0.codec.long_name">H.264 / AVC / MPEG-4 AVC / MPEG-4 part 10</property>
  <property name="kdenlive:meta.media.0.codec.bit_rate">10177697</property>
  <property name="kdenlive:meta.attr.0.stream.creation_time.markup">2017-10-19T12:04:21.000000Z</property>
  <property name="kdenlive:meta.attr.0.stream.language.markup">eng</property>
  <property name="kdenlive:meta.media.1.stream.type">audio</property>
  <property name="kdenlive:meta.media.1.codec.sample_fmt">s16</property>
  <property name="kdenlive:meta.media.1.codec.sample_rate">24000</property>
  <property name="kdenlive:meta.media.1.codec.channels">1</property>
  <property name="kdenlive:meta.media.1.codec.name">pcm_s16le</property>
  <property name="kdenlive:meta.media.1.codec.long_name">PCM signed 16-bit little-endian</property>
  <property name="kdenlive:meta.media.1.codec.bit_rate">384000</property>
  <property name="kdenlive:meta.attr.1.stream.creation_time.markup">2017-10-19T12:04:21.000000Z</property>
  <property name="kdenlive:meta.attr.1.stream.language.markup">eng</property>
  <property name="kdenlive:meta.attr.major_brand.markup">qt  </property>
  <property name="kdenlive:meta.attr.minor_version.markup">537331968</property>
  <property name="kdenlive:meta.attr.compatible_brands.markup">qt  niko</property>
  <property name="kdenlive:meta.attr.creation_time.markup">2017-10-19T12:04:21.000000Z</property>
  <property name="kdenlive:meta.media.sample_aspect_num">1</property>
  <property name="kdenlive:meta.media.sample_aspect_den">1</property>
  <property name="kdenlive:meta.media.frame_rate_num">25</property>
  <property name="kdenlive:meta.media.frame_rate_den">1</property>
  <property name="kdenlive:meta.media.colorspace">601</property>
  <property name="kdenlive:meta.media.color_trc">4</property>
  <property name="kdenlive:meta.media.width">1280</property>
  <property name="kdenlive:meta.media.height">720</property>
  <property name="kdenlive:meta.media.top_field_first">0</property>
  <property name="kdenlive:meta.media.progressive">1</property>
 </producer>
 <producer id="102" title="Anonymous Submission" out="5894" in="0">
  <property name="length">00:03:55:20</property>
  <property name="eof">pause</property>
  <property name="resource">/home/nicolas/.cache/kdenlive/proxy/33634318a4dbf6b283890e15e62ef7a3.mpg</property>
  <property name="meta.media.nb_streams">2</property>
  <property name="meta.media.0.stream.type">video</property>
  <property name="meta.media.0.stream.frame_rate">25</property>
  <property name="meta.media.0.stream.sample_aspect_ratio">0</property>
  <property name="meta.media.0.codec.width">640</property>
  <property name="meta.media.0.codec.height">360</property>
  <property name="meta.media.0.codec.rotate">0</property>
  <property name="meta.media.0.codec.frame_rate">25</property>
  <property name="meta.media.0.codec.pix_fmt">yuv420p</property>
  <property name="meta.media.0.codec.sample_aspect_ratio">1</property>
  <property name="meta.media.0.codec.colorspace">601</property>
  <property name="meta.media.0.codec.name">mpeg2video</property>
  <property name="meta.media.0.codec.long_name">MPEG-2 video</property>
  <property name="meta.media.0.codec.bit_rate">0</property>
  <property name="meta.media.1.stream.type">audio</property>
  <property name="meta.media.1.codec.sample_fmt">s16p</property>
  <property name="meta.media.1.codec.sample_rate">24000</property>
  <property name="meta.media.1.codec.channels">1</property>
  <property name="meta.media.1.codec.name">mp2</property>
  <property name="meta.media.1.codec.long_name">MP2 (MPEG audio layer 2)</property>
  <property name="meta.media.1.codec.bit_rate">128000</property>
  <property name="seekable">1</property>
  <property name="meta.media.sample_aspect_num">1</property>
  <property name="meta.media.sample_aspect_den">1</property>
  <property name="aspect_ratio">1</property>
  <property name="audio_index">1</property>
  <property name="video_index">0</property>
  <property name="mute_on_pause">1</property>
  <property name="mlt_service">avformat</property>
  <property name="meta.media.0.codec.color_trc">4</property>
  <property name="meta.attr.0.stream.creation_time.markup">2017-10-19T12:04:21.000000Z</property>
  <property name="meta.attr.0.stream.language.markup">eng</property>
  <property name="meta.attr.1.stream.creation_time.markup">2017-10-19T12:04:21.000000Z</property>
  <property name="meta.attr.1.stream.language.markup">eng</property>
  <property name="meta.attr.major_brand.markup">qt  </property>
  <property name="meta.attr.minor_version.markup">537331968</property>
  <property name="meta.attr.compatible_brands.markup">qt  niko</property>
  <property name="meta.attr.creation_time.markup">2017-10-19T12:04:21.000000Z</property>
  <property name="kdenlive:folderid">2</property>
  <property name="meta.media.frame_rate_num">25</property>
  <property name="meta.media.frame_rate_den">1</property>
  <property name="meta.media.colorspace">601</property>
  <property name="meta.media.color_trc">2</property>
  <property name="meta.media.width">640</property>
  <property name="meta.media.height">360</property>
  <property name="meta.media.top_field_first">0</property>
  <property name="meta.media.progressive">1</property>
  <property name="kdenlive:file_size">311477089</property>
  <property name="kdenlive:file_hash">33634318a4dbf6b283890e15e62ef7a3</property>
  <property name="kdenlive:proxy">/home/nicolas/.cache/kdenlive/proxy/33634318a4dbf6b283890e15e62ef7a3.mpg</property>
  <property name="proxy_out">5894</property>
  <property name="kdenlive:originalurl">SdB_Raspoutine/DSC_0017.MOV</property>
  <property name="global_feed">1</property>
  <property name="kdenlive:meta.media.nb_streams">2</property>
  <property name="kdenlive:meta.media.0.stream.type">video</property>
  <property name="kdenlive:meta.media.0.stream.frame_rate">25</property>
  <property name="kdenlive:meta.media.0.stream.sample_aspect_ratio">0</property>
  <property name="kdenlive:meta.media.0.codec.width">1280</property>
  <property name="kdenlive:meta.media.0.codec.height">720</property>
  <property name="kdenlive:meta.media.0.codec.rotate">0</property>
  <property name="kdenlive:meta.media.0.codec.frame_rate">25</property>
  <property name="kdenlive:meta.media.0.codec.pix_fmt">yuvj420p</property>
  <property name="kdenlive:meta.media.0.codec.sample_aspect_ratio">1</property>
  <property name="kdenlive:meta.media.0.codec.colorspace">601</property>
  <property name="kdenlive:meta.media.0.codec.color_trc">4</property>
  <property name="kdenlive:meta.media.0.codec.name">h264</property>
  <property name="kdenlive:meta.media.0.codec.long_name">H.264 / AVC / MPEG-4 AVC / MPEG-4 part 10</property>
  <property name="kdenlive:meta.media.0.codec.bit_rate">10177697</property>
  <property name="kdenlive:meta.attr.0.stream.creation_time.markup">2017-10-19T12:04:21.000000Z</property>
  <property name="kdenlive:meta.attr.0.stream.language.markup">eng</property>
  <property name="kdenlive:meta.media.1.stream.type">audio</property>
  <property name="kdenlive:meta.media.1.codec.sample_fmt">s16</property>
  <property name="kdenlive:meta.media.1.codec.sample_rate">24000</property>
  <property name="kdenlive:meta.media.1.codec.channels">1</property>
  <property name="kdenlive:meta.media.1.codec.name">pcm_s16le</property>
  <property name="kdenlive:meta.media.1.codec.long_name">PCM signed 16-bit little-endian</property>
  <property name="kdenlive:meta.media.1.codec.bit_rate">384000</property>
  <property name="kdenlive:meta.attr.1.stream.creation_time.markup">2017-10-19T12:04:21.000000Z</property>
  <property name="kdenlive:meta.attr.1.stream.language.markup">eng</property>
  <property name="kdenlive:meta.attr.major_brand.markup">qt  </property>
  <property name="kdenlive:meta.attr.minor_version.markup">537331968</property>
  <property name="kdenlive:meta.attr.compatible_brands.markup">qt  niko</property>
  <property name="kdenlive:meta.attr.creation_time.markup">2017-10-19T12:04:21.000000Z</property>
  <property name="kdenlive:meta.media.sample_aspect_num">1</property>
  <property name="kdenlive:meta.media.sample_aspect_den">1</property>
  <property name="kdenlive:meta.media.frame_rate_num">25</property>
  <property name="kdenlive:meta.media.frame_rate_den">1</property>
  <property name="kdenlive:meta.media.colorspace">601</property>
  <property name="kdenlive:meta.media.color_trc">4</property>
  <property name="kdenlive:meta.media.width">1280</property>
  <property name="kdenlive:meta.media.height">720</property>
  <property name="kdenlive:meta.media.top_field_first">0</property>
  <property name="kdenlive:meta.media.progressive">1</property>
 </producer>
 <producer id="103" title="Anonymous Submission" out="5426" in="0">
  <property name="length">00:03:37:02</property>
  <property name="eof">pause</property>
  <property name="resource">/home/nicolas/.cache/kdenlive/proxy/59e99529a671d6fcb37e784c79032e90.mpg</property>
  <property name="meta.media.nb_streams">2</property>
  <property name="meta.media.0.stream.type">video</property>
  <property name="meta.media.0.stream.frame_rate">25</property>
  <property name="meta.media.0.stream.sample_aspect_ratio">0</property>
  <property name="meta.media.0.codec.width">640</property>
  <property name="meta.media.0.codec.height">360</property>
  <property name="meta.media.0.codec.rotate">0</property>
  <property name="meta.media.0.codec.frame_rate">25</property>
  <property name="meta.media.0.codec.pix_fmt">yuv420p</property>
  <property name="meta.media.0.codec.sample_aspect_ratio">1</property>
  <property name="meta.media.0.codec.colorspace">601</property>
  <property name="meta.media.0.codec.name">mpeg2video</property>
  <property name="meta.media.0.codec.long_name">MPEG-2 video</property>
  <property name="meta.media.0.codec.bit_rate">0</property>
  <property name="meta.media.1.stream.type">audio</property>
  <property name="meta.media.1.codec.sample_fmt">s16p</property>
  <property name="meta.media.1.codec.sample_rate">24000</property>
  <property name="meta.media.1.codec.channels">1</property>
  <property name="meta.media.1.codec.name">mp2</property>
  <property name="meta.media.1.codec.long_name">MP2 (MPEG audio layer 2)</property>
  <property name="meta.media.1.codec.bit_rate">128000</property>
  <property name="seekable">1</property>
  <property name="meta.media.sample_aspect_num">1</property>
  <property name="meta.media.sample_aspect_den">1</property>
  <property name="aspect_ratio">1</property>
  <property name="audio_index">1</property>
  <property name="video_index">0</property>
  <property name="mute_on_pause">1</property>
  <property name="mlt_service">avformat</property>
  <property name="meta.media.0.codec.color_trc">4</property>
  <property name="meta.attr.0.stream.creation_time.markup">2017-10-19T12:21:51.000000Z</property>
  <property name="meta.attr.0.stream.language.markup">eng</property>
  <property name="meta.attr.1.stream.creation_time.markup">2017-10-19T12:21:51.000000Z</property>
  <property name="meta.attr.1.stream.language.markup">eng</property>
  <property name="meta.attr.major_brand.markup">qt  </property>
  <property name="meta.attr.minor_version.markup">537331968</property>
  <property name="meta.attr.compatible_brands.markup">qt  niko</property>
  <property name="meta.attr.creation_time.markup">2017-10-19T12:21:51.000000Z</property>
  <property name="kdenlive:folderid">2</property>
  <property name="meta.media.frame_rate_num">25</property>
  <property name="meta.media.frame_rate_den">1</property>
  <property name="meta.media.colorspace">601</property>
  <property name="meta.media.color_trc">2</property>
  <property name="meta.media.width">640</property>
  <property name="meta.media.height">360</property>
  <property name="meta.media.top_field_first">0</property>
  <property name="meta.media.progressive">1</property>
  <property name="kdenlive:file_size">286521782</property>
  <property name="kdenlive:file_hash">59e99529a671d6fcb37e784c79032e90</property>
  <property name="kdenlive:proxy">/home/nicolas/.cache/kdenlive/proxy/59e99529a671d6fcb37e784c79032e90.mpg</property>
  <property name="proxy_out">5426</property>
  <property name="kdenlive:originalurl">SdB_Raspoutine/DSC_0018.MOV</property>
  <property name="global_feed">1</property>
  <property name="kdenlive:meta.media.nb_streams">2</property>
  <property name="kdenlive:meta.media.0.stream.type">video</property>
  <property name="kdenlive:meta.media.0.stream.frame_rate">25</property>
  <property name="kdenlive:meta.media.0.stream.sample_aspect_ratio">0</property>
  <property name="kdenlive:meta.media.0.codec.width">1280</property>
  <property name="kdenlive:meta.media.0.codec.height">720</property>
  <property name="kdenlive:meta.media.0.codec.rotate">0</property>
  <property name="kdenlive:meta.media.0.codec.frame_rate">25</property>
  <property name="kdenlive:meta.media.0.codec.pix_fmt">yuvj420p</property>
  <property name="kdenlive:meta.media.0.codec.sample_aspect_ratio">1</property>
  <property name="kdenlive:meta.media.0.codec.colorspace">601</property>
  <property name="kdenlive:meta.media.0.codec.color_trc">4</property>
  <property name="kdenlive:meta.media.0.codec.name">h264</property>
  <property name="kdenlive:meta.media.0.codec.long_name">H.264 / AVC / MPEG-4 AVC / MPEG-4 part 10</property>
  <property name="kdenlive:meta.media.0.codec.bit_rate">10169070</property>
  <property name="kdenlive:meta.attr.0.stream.creation_time.markup">2017-10-19T12:21:51.000000Z</property>
  <property name="kdenlive:meta.attr.0.stream.language.markup">eng</property>
  <property name="kdenlive:meta.media.1.stream.type">audio</property>
  <property name="kdenlive:meta.media.1.codec.sample_fmt">s16</property>
  <property name="kdenlive:meta.media.1.codec.sample_rate">24000</property>
  <property name="kdenlive:meta.media.1.codec.channels">1</property>
  <property name="kdenlive:meta.media.1.codec.name">pcm_s16le</property>
  <property name="kdenlive:meta.media.1.codec.long_name">PCM signed 16-bit little-endian</property>
  <property name="kdenlive:meta.media.1.codec.bit_rate">384000</property>
  <property name="kdenlive:meta.attr.1.stream.creation_time.markup">2017-10-19T12:21:51.000000Z</property>
  <property name="kdenlive:meta.attr.1.stream.language.markup">eng</property>
  <property name="kdenlive:meta.attr.major_brand.markup">qt  </property>
  <property name="kdenlive:meta.attr.minor_version.markup">537331968</property>
  <property name="kdenlive:meta.attr.compatible_brands.markup">qt  niko</property>
  <property name="kdenlive:meta.attr.creation_time.markup">2017-10-19T12:21:51.000000Z</property>
  <property name="kdenlive:meta.media.sample_aspect_num">1</property>
  <property name="kdenlive:meta.media.sample_aspect_den">1</property>
  <property name="kdenlive:meta.media.frame_rate_num">25</property>
  <property name="kdenlive:meta.media.frame_rate_den">1</property>
  <property name="kdenlive:meta.media.colorspace">601</property>
  <property name="kdenlive:meta.media.color_trc">4</property>
  <property name="kdenlive:meta.media.width">1280</property>
  <property name="kdenlive:meta.media.height">720</property>
  <property name="kdenlive:meta.media.top_field_first">0</property>
  <property name="kdenlive:meta.media.progressive">1</property>
 </producer>
 <playlist id="main bin">
  <property name="kdenlive:docproperties.audiotargettrack">-1</property>
  <property name="kdenlive:docproperties.decimalPoint">,</property>
  <property name="kdenlive:docproperties.dirtypreviewchunks"/>
  <property name="kdenlive:docproperties.disablepreview">0</property>
  <property name="kdenlive:docproperties.documentid">1505994684393</property>
  <property name="kdenlive:docproperties.enableproxy">1</property>
  <property name="kdenlive:docproperties.generateimageproxy">1</property>
  <property name="kdenlive:docproperties.generateproxy">1</property>
  <property name="kdenlive:docproperties.kdenliveversion">16.12.2</property>
  <property name="kdenlive:docproperties.position">16339</property>
  <property name="kdenlive:docproperties.previewchunks"/>
  <property name="kdenlive:docproperties.previewextension"/>
  <property name="kdenlive:docproperties.previewparameters"/>
  <property name="kdenlive:docproperties.profile">atsc_720p_25</property>
  <property name="kdenlive:docproperties.proxyextension">mpg</property>
  <property name="kdenlive:docproperties.proxyimageminsize">2000</property>
  <property name="kdenlive:docproperties.proxyminsize">1000</property>
  <property name="kdenlive:docproperties.proxyparams">-vf scale=640:-1 -g 5 -qscale 6 -ab 128k -vcodec mpeg2video -acodec mp2</property>
  <property name="kdenlive:docproperties.version">0.95</property>
  <property name="kdenlive:docproperties.verticalzoom">0</property>
  <property name="kdenlive:docproperties.videotargettrack">1</property>
  <property name="kdenlive:docproperties.zonein">0</property>
  <property name="kdenlive:docproperties.zoneout">100</property>
  <property name="kdenlive:docproperties.zoom">6</property>
  <property name="kdenlive:documentnotes"/>
  <property name="kdenlive:clipgroups"/>
  <property name="kdenlive:folder.-1.1">panneaux</property>
  <property name="kdenlive:folder.-1.2">SdB_Raspoutine</property>
  <property name="xml_retain">1</property>
  <entry out="1088" producer="2" in="0"/>
  <entry out="124" producer="3" in="0"/>
  <entry out="263" producer="6" in="0"/>
  <entry out="2309" producer="7" in="0"/>
  <entry out="124" producer="8" in="0"/>
  <entry out="124" producer="9" in="0"/>
  <entry out="124" producer="11" in="0"/>
  <entry out="124" producer="10" in="0"/>
  <entry out="124" producer="13" in="0"/>
  <entry out="124" producer="14" in="0"/>
  <entry out="635" producer="15" in="0"/>
  <entry out="2642" producer="16" in="0"/>
  <entry out="124" producer="17" in="0"/>
  <entry out="563" producer="18" in="0"/>
  <entry out="734" producer="19" in="0"/>
  <entry out="452" producer="20" in="0"/>
  <entry out="521" producer="21" in="0"/>
  <entry out="170" producer="24" in="0"/>
  <entry out="621" producer="25" in="0"/>
  <entry out="833" producer="26" in="0"/>
  <entry out="611" producer="27" in="0"/>
  <entry out="2540" producer="28" in="0"/>
  <entry out="470" producer="29" in="0"/>
  <entry out="896" producer="30" in="0"/>
  <entry out="1259" producer="31" in="0"/>
  <entry out="710" producer="32" in="0"/>
  <entry out="124" producer="33" in="0"/>
  <entry out="335" producer="34" in="0"/>
  <entry out="2153" producer="35" in="0"/>
  <entry out="1424" producer="36" in="0"/>
  <entry out="1021" producer="38" in="0"/>
  <entry out="824" producer="39" in="0"/>
  <entry out="318" producer="40" in="0"/>
  <entry out="1591" producer="41" in="0"/>
  <entry out="521" producer="42" in="0"/>
  <entry out="1784" producer="43" in="0"/>
  <entry out="581" producer="44" in="0"/>
  <entry out="1055" producer="45" in="0"/>
  <entry out="569" producer="46" in="0"/>
  <entry out="761" producer="47" in="0"/>
  <entry out="1193" producer="49" in="0"/>
  <entry out="124" producer="50" in="0"/>
  <entry out="124" producer="51" in="0"/>
  <entry out="156" producer="53" in="0"/>
  <entry out="1886" producer="54" in="0"/>
  <entry out="272" producer="55" in="0"/>
  <entry out="671" producer="56" in="0"/>
  <entry out="3680" producer="57" in="0"/>
  <entry out="317" producer="58" in="0"/>
  <entry out="428" producer="59" in="0"/>
  <entry out="719" producer="60" in="0"/>
  <entry out="404" producer="61" in="0"/>
  <entry out="3959" producer="62" in="0"/>
  <entry out="449" producer="63" in="0"/>
  <entry out="386" producer="64" in="0"/>
  <entry out="5711" producer="65" in="0"/>
  <entry out="1236" producer="66" in="0"/>
  <entry out="170" producer="67" in="0"/>
  <entry out="227" producer="68" in="0"/>
  <entry out="620" producer="69" in="0"/>
  <entry out="1586" producer="70" in="0"/>
  <blank length="124"/>
  <blank length="880"/>
  <entry out="124" producer="73" in="0"/>
  <entry out="3014" producer="75" in="0"/>
  <entry out="215" producer="76" in="0"/>
  <entry out="365" producer="77" in="0"/>
  <entry out="776" producer="78" in="0"/>
  <entry out="353" producer="79" in="0"/>
  <entry out="2891" producer="80" in="0"/>
  <entry out="566" producer="81" in="0"/>
  <entry out="3071" producer="82" in="0"/>
  <entry out="17" producer="83" in="0"/>
  <entry out="340" producer="84" in="0"/>
  <entry out="2000" producer="85" in="0"/>
  <entry out="509" producer="88" in="0"/>
  <entry out="803" producer="89" in="0"/>
  <entry out="2114" producer="90" in="0"/>
  <entry out="326" producer="92" in="0"/>
  <entry out="770" producer="93" in="0"/>
  <entry out="608" producer="94" in="0"/>
  <entry out="1877" producer="95" in="0"/>
  <entry out="9029" producer="91" in="0"/>
  <entry out="5255" producer="96" in="0"/>
  <entry out="122" producer="98" in="0"/>
  <entry out="7274" producer="97" in="0"/>
  <entry out="6818" producer="99" in="0"/>
  <entry out="5894" producer="101" in="0"/>
  <entry out="5894" producer="102" in="0"/>
  <entry out="5426" producer="103" in="0"/>
 </playlist>
 <producer id="black" out="54328" in="0">
  <property name="length">54329</property>
  <property name="eof">pause</property>
  <property name="resource">black</property>
  <property name="aspect_ratio">0</property>
  <property name="mlt_service">colour</property>
  <property name="set.test_audio">0</property>
 </producer>
 <playlist id="black_track">
  <entry out="51519" producer="black" in="0"/>
 </playlist>
 <producer id="2_playlist3" title="Anonymous Submission" out="1088" in="0">
  <property name="length">00:00:43:14</property>
  <property name="eof">pause</property>
  <property name="resource">/home/nicolas/.cache/kdenlive/proxy/53030d26c565e4aa2ce9a8b93378f386.mpg</property>
  <property name="meta.media.nb_streams">2</property>
  <property name="meta.media.0.stream.type">video</property>
  <property name="meta.media.0.stream.frame_rate">25</property>
  <property name="meta.media.0.stream.sample_aspect_ratio">0</property>
  <property name="meta.media.0.codec.width">640</property>
  <property name="meta.media.0.codec.height">360</property>
  <property name="meta.media.0.codec.rotate">0</property>
  <property name="meta.media.0.codec.frame_rate">25</property>
  <property name="meta.media.0.codec.pix_fmt">yuv420p</property>
  <property name="meta.media.0.codec.sample_aspect_ratio">1</property>
  <property name="meta.media.0.codec.colorspace">601</property>
  <property name="meta.media.0.codec.name">mpeg2video</property>
  <property name="meta.media.0.codec.long_name">MPEG-2 video</property>
  <property name="meta.media.0.codec.bit_rate">0</property>
  <property name="meta.media.1.stream.type">audio</property>
  <property name="meta.media.1.codec.sample_fmt">s16p</property>
  <property name="meta.media.1.codec.sample_rate">24000</property>
  <property name="meta.media.1.codec.channels">1</property>
  <property name="meta.media.1.codec.name">mp2</property>
  <property name="meta.media.1.codec.long_name">MP2 (MPEG audio layer 2)</property>
  <property name="meta.media.1.codec.bit_rate">128000</property>
  <property name="seekable">1</property>
  <property name="meta.media.sample_aspect_num">1</property>
  <property name="meta.media.sample_aspect_den">1</property>
  <property name="aspect_ratio">1</property>
  <property name="audio_index">1</property>
  <property name="video_index">0</property>
  <property name="mute_on_pause">1</property>
  <property name="mlt_service">avformat</property>
  <property name="kdenlive:file_size">53330003</property>
  <property name="kdenlive:file_hash">53030d26c565e4aa2ce9a8b93378f386</property>
  <property name="kdenlive:proxy">/home/nicolas/.cache/kdenlive/proxy/53030d26c565e4aa2ce9a8b93378f386.mpg</property>
  <property name="proxy_out">1088</property>
  <property name="kdenlive:originalurl">2DSC_0006.MOV</property>
  <property name="global_feed">1</property>
  <property name="kdenlive:meta.media.nb_streams">2</property>
  <property name="kdenlive:meta.media.0.stream.type">video</property>
  <property name="kdenlive:meta.media.0.stream.frame_rate">25</property>
  <property name="kdenlive:meta.media.0.stream.sample_aspect_ratio">0</property>
  <property name="kdenlive:meta.media.0.codec.width">1280</property>
  <property name="kdenlive:meta.media.0.codec.height">720</property>
  <property name="kdenlive:meta.media.0.codec.rotate">0</property>
  <property name="kdenlive:meta.media.0.codec.frame_rate">25</property>
  <property name="kdenlive:meta.media.0.codec.pix_fmt">yuvj420p</property>
  <property name="kdenlive:meta.media.0.codec.sample_aspect_ratio">1</property>
  <property name="kdenlive:meta.media.0.codec.colorspace">601</property>
  <property name="kdenlive:meta.media.0.codec.color_trc">4</property>
  <property name="kdenlive:meta.media.0.codec.name">h264</property>
  <property name="kdenlive:meta.media.0.codec.long_name">H.264 / AVC / MPEG-4 AVC / MPEG-4 part 10</property>
  <property name="kdenlive:meta.media.0.codec.bit_rate">9386650</property>
  <property name="kdenlive:meta.attr.0.stream.creation_time.markup">2017-08-19T16:00:02.000000Z</property>
  <property name="kdenlive:meta.attr.0.stream.language.markup">eng</property>
  <property name="kdenlive:meta.media.1.stream.type">audio</property>
  <property name="kdenlive:meta.media.1.codec.sample_fmt">s16</property>
  <property name="kdenlive:meta.media.1.codec.sample_rate">24000</property>
  <property name="kdenlive:meta.media.1.codec.channels">1</property>
  <property name="kdenlive:meta.media.1.codec.name">pcm_s16le</property>
  <property name="kdenlive:meta.media.1.codec.long_name">PCM signed 16-bit little-endian</property>
  <property name="kdenlive:meta.media.1.codec.bit_rate">384000</property>
  <property name="kdenlive:meta.attr.1.stream.creation_time.markup">2017-08-19T16:00:02.000000Z</property>
  <property name="kdenlive:meta.attr.1.stream.language.markup">eng</property>
  <property name="kdenlive:meta.attr.major_brand.markup">qt  </property>
  <property name="kdenlive:meta.attr.minor_version.markup">537331968</property>
  <property name="kdenlive:meta.attr.compatible_brands.markup">qt  niko</property>
  <property name="kdenlive:meta.attr.creation_time.markup">2017-08-19T16:00:02.000000Z</property>
  <property name="kdenlive:meta.media.sample_aspect_num">1</property>
  <property name="kdenlive:meta.media.sample_aspect_den">1</property>
  <property name="kdenlive:meta.media.frame_rate_num">25</property>
  <property name="kdenlive:meta.media.frame_rate_den">1</property>
  <property name="kdenlive:meta.media.colorspace">601</property>
  <property name="kdenlive:meta.media.color_trc">4</property>
  <property name="kdenlive:meta.media.width">1280</property>
  <property name="kdenlive:meta.media.height">720</property>
  <property name="kdenlive:meta.media.top_field_first">0</property>
  <property name="kdenlive:meta.media.progressive">1</property>
  <property name="xml">was here</property>
  <property name="meta.media.frame_rate_num">25</property>
  <property name="meta.media.frame_rate_den">1</property>
  <property name="meta.media.colorspace">601</property>
  <property name="meta.media.color_trc">2</property>
  <property name="meta.media.width">640</property>
  <property name="meta.media.height">360</property>
  <property name="meta.media.top_field_first">0</property>
  <property name="meta.media.progressive">1</property>
 </producer>
 <producer id="16_playlist3" title="Anonymous Submission" out="2642" in="0">
  <property name="length">00:01:45:18</property>
  <property name="eof">pause</property>
  <property name="resource">/home/nicolas/.cache/kdenlive/proxy/9a2d782c202b30a7540fbccf3ae36136.mpg</property>
  <property name="meta.media.nb_streams">2</property>
  <property name="meta.media.0.stream.type">video</property>
  <property name="meta.media.0.stream.frame_rate">25</property>
  <property name="meta.media.0.stream.sample_aspect_ratio">0</property>
  <property name="meta.media.0.codec.width">640</property>
  <property name="meta.media.0.codec.height">360</property>
  <property name="meta.media.0.codec.rotate">0</property>
  <property name="meta.media.0.codec.frame_rate">25</property>
  <property name="meta.media.0.codec.pix_fmt">yuv420p</property>
  <property name="meta.media.0.codec.sample_aspect_ratio">1</property>
  <property name="meta.media.0.codec.colorspace">601</property>
  <property name="meta.media.0.codec.name">mpeg2video</property>
  <property name="meta.media.0.codec.long_name">MPEG-2 video</property>
  <property name="meta.media.0.codec.bit_rate">0</property>
  <property name="meta.media.1.stream.type">audio</property>
  <property name="meta.media.1.codec.sample_fmt">s16p</property>
  <property name="meta.media.1.codec.sample_rate">24000</property>
  <property name="meta.media.1.codec.channels">1</property>
  <property name="meta.media.1.codec.name">mp2</property>
  <property name="meta.media.1.codec.long_name">MP2 (MPEG audio layer 2)</property>
  <property name="meta.media.1.codec.bit_rate">128000</property>
  <property name="seekable">1</property>
  <property name="meta.media.sample_aspect_num">1</property>
  <property name="meta.media.sample_aspect_den">1</property>
  <property name="aspect_ratio">1</property>
  <property name="audio_index">1</property>
  <property name="video_index">0</property>
  <property name="mute_on_pause">1</property>
  <property name="mlt_service">avformat</property>
  <property name="kdenlive:file_size">145729882</property>
  <property name="kdenlive:file_hash">9a2d782c202b30a7540fbccf3ae36136</property>
  <property name="kdenlive:proxy">/home/nicolas/.cache/kdenlive/proxy/9a2d782c202b30a7540fbccf3ae36136.mpg</property>
  <property name="proxy_out">2642</property>
  <property name="kdenlive:originalurl">3DSC_0139.MOV</property>
  <property name="global_feed">1</property>
  <property name="kdenlive:meta.media.nb_streams">2</property>
  <property name="kdenlive:meta.media.0.stream.type">video</property>
  <property name="kdenlive:meta.media.0.stream.frame_rate">25</property>
  <property name="kdenlive:meta.media.0.stream.sample_aspect_ratio">0</property>
  <property name="kdenlive:meta.media.0.codec.width">1280</property>
  <property name="kdenlive:meta.media.0.codec.height">720</property>
  <property name="kdenlive:meta.media.0.codec.rotate">0</property>
  <property name="kdenlive:meta.media.0.codec.frame_rate">25</property>
  <property name="kdenlive:meta.media.0.codec.pix_fmt">yuvj420p</property>
  <property name="kdenlive:meta.media.0.codec.sample_aspect_ratio">1</property>
  <property name="kdenlive:meta.media.0.codec.colorspace">601</property>
  <property name="kdenlive:meta.media.0.codec.color_trc">4</property>
  <property name="kdenlive:meta.media.0.codec.name">h264</property>
  <property name="kdenlive:meta.media.0.codec.long_name">H.264 / AVC / MPEG-4 AVC / MPEG-4 part 10</property>
  <property name="kdenlive:meta.media.0.codec.bit_rate">10632636</property>
  <property name="kdenlive:meta.attr.0.stream.creation_time.markup">2017-08-20T17:42:34.000000Z</property>
  <property name="kdenlive:meta.attr.0.stream.language.markup">eng</property>
  <property name="kdenlive:meta.media.1.stream.type">audio</property>
  <property name="kdenlive:meta.media.1.codec.sample_fmt">s16</property>
  <property name="kdenlive:meta.media.1.codec.sample_rate">24000</property>
  <property name="kdenlive:meta.media.1.codec.channels">1</property>
  <property name="kdenlive:meta.media.1.codec.name">pcm_s16le</property>
  <property name="kdenlive:meta.media.1.codec.long_name">PCM signed 16-bit little-endian</property>
  <property name="kdenlive:meta.media.1.codec.bit_rate">384000</property>
  <property name="kdenlive:meta.attr.1.stream.creation_time.markup">2017-08-20T17:42:34.000000Z</property>
  <property name="kdenlive:meta.attr.1.stream.language.markup">eng</property>
  <property name="kdenlive:meta.attr.major_brand.markup">qt  </property>
  <property name="kdenlive:meta.attr.minor_version.markup">537331968</property>
  <property name="kdenlive:meta.attr.compatible_brands.markup">qt  niko</property>
  <property name="kdenlive:meta.attr.creation_time.markup">2017-08-20T17:42:34.000000Z</property>
  <property name="kdenlive:meta.media.sample_aspect_num">1</property>
  <property name="kdenlive:meta.media.sample_aspect_den">1</property>
  <property name="kdenlive:meta.media.frame_rate_num">25</property>
  <property name="kdenlive:meta.media.frame_rate_den">1</property>
  <property name="kdenlive:meta.media.colorspace">601</property>
  <property name="kdenlive:meta.media.color_trc">4</property>
  <property name="kdenlive:meta.media.width">1280</property>
  <property name="kdenlive:meta.media.height">720</property>
  <property name="kdenlive:meta.media.top_field_first">0</property>
  <property name="kdenlive:meta.media.progressive">1</property>
  <property name="xml">was here</property>
  <property name="meta.media.frame_rate_num">25</property>
  <property name="meta.media.frame_rate_den">1</property>
  <property name="meta.media.colorspace">601</property>
  <property name="meta.media.color_trc">2</property>
  <property name="meta.media.width">640</property>
  <property name="meta.media.height">360</property>
  <property name="meta.media.top_field_first">0</property>
  <property name="meta.media.progressive">1</property>
 </producer>
 <producer id="18_playlist3" title="Anonymous Submission" out="563" in="0">
  <property name="length">00:00:22:14</property>
  <property name="eof">pause</property>
  <property name="resource">/home/nicolas/.cache/kdenlive/proxy/d3b514e9243f735fdd35b52c18918f3d.mpg</property>
  <property name="meta.media.nb_streams">2</property>
  <property name="meta.media.0.stream.type">video</property>
  <property name="meta.media.0.stream.frame_rate">25</property>
  <property name="meta.media.0.stream.sample_aspect_ratio">0</property>
  <property name="meta.media.0.codec.width">640</property>
  <property name="meta.media.0.codec.height">360</property>
  <property name="meta.media.0.codec.rotate">0</property>
  <property name="meta.media.0.codec.frame_rate">25</property>
  <property name="meta.media.0.codec.pix_fmt">yuv420p</property>
  <property name="meta.media.0.codec.sample_aspect_ratio">1</property>
  <property name="meta.media.0.codec.colorspace">601</property>
  <property name="meta.media.0.codec.name">mpeg2video</property>
  <property name="meta.media.0.codec.long_name">MPEG-2 video</property>
  <property name="meta.media.0.codec.bit_rate">0</property>
  <property name="meta.media.1.stream.type">audio</property>
  <property name="meta.media.1.codec.sample_fmt">s16p</property>
  <property name="meta.media.1.codec.sample_rate">24000</property>
  <property name="meta.media.1.codec.channels">1</property>
  <property name="meta.media.1.codec.name">mp2</property>
  <property name="meta.media.1.codec.long_name">MP2 (MPEG audio layer 2)</property>
  <property name="meta.media.1.codec.bit_rate">128000</property>
  <property name="seekable">1</property>
  <property name="meta.media.sample_aspect_num">1</property>
  <property name="meta.media.sample_aspect_den">1</property>
  <property name="aspect_ratio">1</property>
  <property name="audio_index">1</property>
  <property name="video_index">0</property>
  <property name="mute_on_pause">1</property>
  <property name="mlt_service">avformat</property>
  <property name="kdenlive:file_size">33613608</property>
  <property name="kdenlive:file_hash">d3b514e9243f735fdd35b52c18918f3d</property>
  <property name="kdenlive:proxy">/home/nicolas/.cache/kdenlive/proxy/d3b514e9243f735fdd35b52c18918f3d.mpg</property>
  <property name="proxy_out">563</property>
  <property name="kdenlive:originalurl">3DSC_0145.MOV</property>
  <property name="global_feed">1</property>
  <property name="kdenlive:meta.media.nb_streams">2</property>
  <property name="kdenlive:meta.media.0.stream.type">video</property>
  <property name="kdenlive:meta.media.0.stream.frame_rate">25</property>
  <property name="kdenlive:meta.media.0.stream.sample_aspect_ratio">0</property>
  <property name="kdenlive:meta.media.0.codec.width">1280</property>
  <property name="kdenlive:meta.media.0.codec.height">720</property>
  <property name="kdenlive:meta.media.0.codec.rotate">0</property>
  <property name="kdenlive:meta.media.0.codec.frame_rate">25</property>
  <property name="kdenlive:meta.media.0.codec.pix_fmt">yuvj420p</property>
  <property name="kdenlive:meta.media.0.codec.sample_aspect_ratio">1</property>
  <property name="kdenlive:meta.media.0.codec.colorspace">601</property>
  <property name="kdenlive:meta.media.0.codec.color_trc">4</property>
  <property name="kdenlive:meta.media.0.codec.name">h264</property>
  <property name="kdenlive:meta.media.0.codec.long_name">H.264 / AVC / MPEG-4 AVC / MPEG-4 part 10</property>
  <property name="kdenlive:meta.media.0.codec.bit_rate">11490984</property>
  <property name="kdenlive:meta.attr.0.stream.creation_time.markup">2017-08-20T17:51:50.000000Z</property>
  <property name="kdenlive:meta.attr.0.stream.language.markup">eng</property>
  <property name="kdenlive:meta.media.1.stream.type">audio</property>
  <property name="kdenlive:meta.media.1.codec.sample_fmt">s16</property>
  <property name="kdenlive:meta.media.1.codec.sample_rate">24000</property>
  <property name="kdenlive:meta.media.1.codec.channels">1</property>
  <property name="kdenlive:meta.media.1.codec.name">pcm_s16le</property>
  <property name="kdenlive:meta.media.1.codec.long_name">PCM signed 16-bit little-endian</property>
  <property name="kdenlive:meta.media.1.codec.bit_rate">384000</property>
  <property name="kdenlive:meta.attr.1.stream.creation_time.markup">2017-08-20T17:51:50.000000Z</property>
  <property name="kdenlive:meta.attr.1.stream.language.markup">eng</property>
  <property name="kdenlive:meta.attr.major_brand.markup">qt  </property>
  <property name="kdenlive:meta.attr.minor_version.markup">537331968</property>
  <property name="kdenlive:meta.attr.compatible_brands.markup">qt  niko</property>
  <property name="kdenlive:meta.attr.creation_time.markup">2017-08-20T17:51:50.000000Z</property>
  <property name="kdenlive:meta.media.sample_aspect_num">1</property>
  <property name="kdenlive:meta.media.sample_aspect_den">1</property>
  <property name="kdenlive:meta.media.frame_rate_num">25</property>
  <property name="kdenlive:meta.media.frame_rate_den">1</property>
  <property name="kdenlive:meta.media.colorspace">601</property>
  <property name="kdenlive:meta.media.color_trc">4</property>
  <property name="kdenlive:meta.media.width">1280</property>
  <property name="kdenlive:meta.media.height">720</property>
  <property name="kdenlive:meta.media.top_field_first">0</property>
  <property name="kdenlive:meta.media.progressive">1</property>
  <property name="xml">was here</property>
  <property name="meta.media.frame_rate_num">25</property>
  <property name="meta.media.frame_rate_den">1</property>
  <property name="meta.media.colorspace">601</property>
  <property name="meta.media.color_trc">2</property>
  <property name="meta.media.width">640</property>
  <property name="meta.media.height">360</property>
  <property name="meta.media.top_field_first">0</property>
  <property name="meta.media.progressive">1</property>
 </producer>
 <producer id="19_playlist3" title="Anonymous Submission" out="734" in="0">
  <property name="length">00:00:29:10</property>
  <property name="eof">pause</property>
  <property name="resource">/home/nicolas/.cache/kdenlive/proxy/0f4434d34d9c0a0c0fa420137ac187ee.mpg</property>
  <property name="meta.media.nb_streams">2</property>
  <property name="meta.media.0.stream.type">video</property>
  <property name="meta.media.0.stream.frame_rate">25</property>
  <property name="meta.media.0.stream.sample_aspect_ratio">0</property>
  <property name="meta.media.0.codec.width">640</property>
  <property name="meta.media.0.codec.height">360</property>
  <property name="meta.media.0.codec.rotate">0</property>
  <property name="meta.media.0.codec.frame_rate">25</property>
  <property name="meta.media.0.codec.pix_fmt">yuv420p</property>
  <property name="meta.media.0.codec.sample_aspect_ratio">1</property>
  <property name="meta.media.0.codec.colorspace">601</property>
  <property name="meta.media.0.codec.name">mpeg2video</property>
  <property name="meta.media.0.codec.long_name">MPEG-2 video</property>
  <property name="meta.media.0.codec.bit_rate">0</property>
  <property name="meta.media.1.stream.type">audio</property>
  <property name="meta.media.1.codec.sample_fmt">s16p</property>
  <property name="meta.media.1.codec.sample_rate">24000</property>
  <property name="meta.media.1.codec.channels">1</property>
  <property name="meta.media.1.codec.name">mp2</property>
  <property name="meta.media.1.codec.long_name">MP2 (MPEG audio layer 2)</property>
  <property name="meta.media.1.codec.bit_rate">128000</property>
  <property name="seekable">1</property>
  <property name="meta.media.sample_aspect_num">1</property>
  <property name="meta.media.sample_aspect_den">1</property>
  <property name="aspect_ratio">1</property>
  <property name="audio_index">1</property>
  <property name="video_index">0</property>
  <property name="mute_on_pause">1</property>
  <property name="mlt_service">avformat</property>
  <property name="kdenlive:file_size">41653881</property>
  <property name="kdenlive:file_hash">0f4434d34d9c0a0c0fa420137ac187ee</property>
  <property name="kdenlive:proxy">/home/nicolas/.cache/kdenlive/proxy/0f4434d34d9c0a0c0fa420137ac187ee.mpg</property>
  <property name="proxy_out">734</property>
  <property name="kdenlive:originalurl">3DSC_0140.MOV</property>
  <property name="global_feed">1</property>
  <property name="kdenlive:meta.media.nb_streams">2</property>
  <property name="kdenlive:meta.media.0.stream.type">video</property>
  <property name="kdenlive:meta.media.0.stream.frame_rate">25</property>
  <property name="kdenlive:meta.media.0.stream.sample_aspect_ratio">0</property>
  <property name="kdenlive:meta.media.0.codec.width">1280</property>
  <property name="kdenlive:meta.media.0.codec.height">720</property>
  <property name="kdenlive:meta.media.0.codec.rotate">0</property>
  <property name="kdenlive:meta.media.0.codec.frame_rate">25</property>
  <property name="kdenlive:meta.media.0.codec.pix_fmt">yuvj420p</property>
  <property name="kdenlive:meta.media.0.codec.sample_aspect_ratio">1</property>
  <property name="kdenlive:meta.media.0.codec.colorspace">601</property>
  <property name="kdenlive:meta.media.0.codec.color_trc">4</property>
  <property name="kdenlive:meta.media.0.codec.name">h264</property>
  <property name="kdenlive:meta.media.0.codec.long_name">H.264 / AVC / MPEG-4 AVC / MPEG-4 part 10</property>
  <property name="kdenlive:meta.media.0.codec.bit_rate">10916213</property>
  <property name="kdenlive:meta.attr.0.stream.creation_time.markup">2017-08-20T17:46:40.000000Z</property>
  <property name="kdenlive:meta.attr.0.stream.language.markup">eng</property>
  <property name="kdenlive:meta.media.1.stream.type">audio</property>
  <property name="kdenlive:meta.media.1.codec.sample_fmt">s16</property>
  <property name="kdenlive:meta.media.1.codec.sample_rate">24000</property>
  <property name="kdenlive:meta.media.1.codec.channels">1</property>
  <property name="kdenlive:meta.media.1.codec.name">pcm_s16le</property>
  <property name="kdenlive:meta.media.1.codec.long_name">PCM signed 16-bit little-endian</property>
  <property name="kdenlive:meta.media.1.codec.bit_rate">384000</property>
  <property name="kdenlive:meta.attr.1.stream.creation_time.markup">2017-08-20T17:46:40.000000Z</property>
  <property name="kdenlive:meta.attr.1.stream.language.markup">eng</property>
  <property name="kdenlive:meta.attr.major_brand.markup">qt  </property>
  <property name="kdenlive:meta.attr.minor_version.markup">537331968</property>
  <property name="kdenlive:meta.attr.compatible_brands.markup">qt  niko</property>
  <property name="kdenlive:meta.attr.creation_time.markup">2017-08-20T17:46:40.000000Z</property>
  <property name="kdenlive:meta.media.sample_aspect_num">1</property>
  <property name="kdenlive:meta.media.sample_aspect_den">1</property>
  <property name="kdenlive:meta.media.frame_rate_num">25</property>
  <property name="kdenlive:meta.media.frame_rate_den">1</property>
  <property name="kdenlive:meta.media.colorspace">601</property>
  <property name="kdenlive:meta.media.color_trc">4</property>
  <property name="kdenlive:meta.media.width">1280</property>
  <property name="kdenlive:meta.media.height">720</property>
  <property name="kdenlive:meta.media.top_field_first">0</property>
  <property name="kdenlive:meta.media.progressive">1</property>
  <property name="xml">was here</property>
  <property name="meta.media.frame_rate_num">25</property>
  <property name="meta.media.frame_rate_den">1</property>
  <property name="meta.media.colorspace">601</property>
  <property name="meta.media.color_trc">2</property>
  <property name="meta.media.width">640</property>
  <property name="meta.media.height">360</property>
  <property name="meta.media.top_field_first">0</property>
  <property name="meta.media.progressive">1</property>
 </producer>
 <producer id="68_playlist3" title="Anonymous Submission" out="227" in="0">
  <property name="length">00:00:09:03</property>
  <property name="eof">pause</property>
  <property name="resource">/home/nicolas/.cache/kdenlive/proxy/fd2ad88db9db34a67585866eccfd3daf.mpg</property>
  <property name="meta.media.nb_streams">2</property>
  <property name="meta.media.0.stream.type">video</property>
  <property name="meta.media.0.stream.frame_rate">25</property>
  <property name="meta.media.0.stream.sample_aspect_ratio">0</property>
  <property name="meta.media.0.codec.width">640</property>
  <property name="meta.media.0.codec.height">360</property>
  <property name="meta.media.0.codec.rotate">0</property>
  <property name="meta.media.0.codec.frame_rate">25</property>
  <property name="meta.media.0.codec.pix_fmt">yuv420p</property>
  <property name="meta.media.0.codec.sample_aspect_ratio">1</property>
  <property name="meta.media.0.codec.colorspace">601</property>
  <property name="meta.media.0.codec.name">mpeg2video</property>
  <property name="meta.media.0.codec.long_name">MPEG-2 video</property>
  <property name="meta.media.0.codec.bit_rate">0</property>
  <property name="meta.media.1.stream.type">audio</property>
  <property name="meta.media.1.codec.sample_fmt">s16p</property>
  <property name="meta.media.1.codec.sample_rate">24000</property>
  <property name="meta.media.1.codec.channels">1</property>
  <property name="meta.media.1.codec.name">mp2</property>
  <property name="meta.media.1.codec.long_name">MP2 (MPEG audio layer 2)</property>
  <property name="meta.media.1.codec.bit_rate">128000</property>
  <property name="seekable">1</property>
  <property name="meta.media.sample_aspect_num">1</property>
  <property name="meta.media.sample_aspect_den">1</property>
  <property name="aspect_ratio">1</property>
  <property name="audio_index">1</property>
  <property name="video_index">0</property>
  <property name="mute_on_pause">1</property>
  <property name="mlt_service">avformat</property>
  <property name="kdenlive:file_size">12674012</property>
  <property name="kdenlive:file_hash">fd2ad88db9db34a67585866eccfd3daf</property>
  <property name="kdenlive:proxy">/home/nicolas/.cache/kdenlive/proxy/fd2ad88db9db34a67585866eccfd3daf.mpg</property>
  <property name="proxy_out">227</property>
  <property name="kdenlive:originalurl">dollar.MOV</property>
  <property name="global_feed">1</property>
  <property name="kdenlive:meta.media.nb_streams">2</property>
  <property name="kdenlive:meta.media.0.stream.type">video</property>
  <property name="kdenlive:meta.media.0.stream.frame_rate">25</property>
  <property name="kdenlive:meta.media.0.stream.sample_aspect_ratio">0</property>
  <property name="kdenlive:meta.media.0.codec.width">1280</property>
  <property name="kdenlive:meta.media.0.codec.height">720</property>
  <property name="kdenlive:meta.media.0.codec.rotate">0</property>
  <property name="kdenlive:meta.media.0.codec.frame_rate">25</property>
  <property name="kdenlive:meta.media.0.codec.pix_fmt">yuvj420p</property>
  <property name="kdenlive:meta.media.0.codec.sample_aspect_ratio">1</property>
  <property name="kdenlive:meta.media.0.codec.colorspace">601</property>
  <property name="kdenlive:meta.media.0.codec.color_trc">4</property>
  <property name="kdenlive:meta.media.0.codec.name">h264</property>
  <property name="kdenlive:meta.media.0.codec.long_name">H.264 / AVC / MPEG-4 AVC / MPEG-4 part 10</property>
  <property name="kdenlive:meta.media.0.codec.bit_rate">10633796</property>
  <property name="kdenlive:meta.attr.0.stream.creation_time.markup">2017-10-16T13:47:04.000000Z</property>
  <property name="kdenlive:meta.attr.0.stream.language.markup">eng</property>
  <property name="kdenlive:meta.media.1.stream.type">audio</property>
  <property name="kdenlive:meta.media.1.codec.sample_fmt">s16</property>
  <property name="kdenlive:meta.media.1.codec.sample_rate">24000</property>
  <property name="kdenlive:meta.media.1.codec.channels">1</property>
  <property name="kdenlive:meta.media.1.codec.name">pcm_s16le</property>
  <property name="kdenlive:meta.media.1.codec.long_name">PCM signed 16-bit little-endian</property>
  <property name="kdenlive:meta.media.1.codec.bit_rate">384000</property>
  <property name="kdenlive:meta.attr.1.stream.creation_time.markup">2017-10-16T13:47:04.000000Z</property>
  <property name="kdenlive:meta.attr.1.stream.language.markup">eng</property>
  <property name="kdenlive:meta.attr.major_brand.markup">qt  </property>
  <property name="kdenlive:meta.attr.minor_version.markup">537331968</property>
  <property name="kdenlive:meta.attr.compatible_brands.markup">qt  niko</property>
  <property name="kdenlive:meta.attr.creation_time.markup">2017-10-16T13:47:04.000000Z</property>
  <property name="kdenlive:meta.media.sample_aspect_num">1</property>
  <property name="kdenlive:meta.media.sample_aspect_den">1</property>
  <property name="kdenlive:meta.media.frame_rate_num">25</property>
  <property name="kdenlive:meta.media.frame_rate_den">1</property>
  <property name="kdenlive:meta.media.colorspace">601</property>
  <property name="kdenlive:meta.media.color_trc">4</property>
  <property name="kdenlive:meta.media.width">1280</property>
  <property name="kdenlive:meta.media.height">720</property>
  <property name="kdenlive:meta.media.top_field_first">0</property>
  <property name="kdenlive:meta.media.progressive">1</property>
  <property name="xml">was here</property>
  <property name="meta.media.frame_rate_num">25</property>
  <property name="meta.media.frame_rate_den">1</property>
  <property name="meta.media.colorspace">601</property>
  <property name="meta.media.color_trc">2</property>
  <property name="meta.media.width">640</property>
  <property name="meta.media.height">360</property>
  <property name="meta.media.top_field_first">0</property>
  <property name="meta.media.progressive">1</property>
 </producer>
 <producer id="32_playlist3" title="Anonymous Submission" out="710" in="0">
  <property name="length">00:00:28:11</property>
  <property name="eof">pause</property>
  <property name="resource">/home/nicolas/.cache/kdenlive/proxy/e1dfc73afc693cc4381b37f3211c317b.mpg</property>
  <property name="meta.media.nb_streams">2</property>
  <property name="meta.media.0.stream.type">video</property>
  <property name="meta.media.0.stream.frame_rate">25</property>
  <property name="meta.media.0.stream.sample_aspect_ratio">0</property>
  <property name="meta.media.0.codec.width">640</property>
  <property name="meta.media.0.codec.height">360</property>
  <property name="meta.media.0.codec.rotate">0</property>
  <property name="meta.media.0.codec.frame_rate">25</property>
  <property name="meta.media.0.codec.pix_fmt">yuv420p</property>
  <property name="meta.media.0.codec.sample_aspect_ratio">1</property>
  <property name="meta.media.0.codec.colorspace">601</property>
  <property name="meta.media.0.codec.name">mpeg2video</property>
  <property name="meta.media.0.codec.long_name">MPEG-2 video</property>
  <property name="meta.media.0.codec.bit_rate">0</property>
  <property name="meta.media.1.stream.type">audio</property>
  <property name="meta.media.1.codec.sample_fmt">s16p</property>
  <property name="meta.media.1.codec.sample_rate">24000</property>
  <property name="meta.media.1.codec.channels">1</property>
  <property name="meta.media.1.codec.name">mp2</property>
  <property name="meta.media.1.codec.long_name">MP2 (MPEG audio layer 2)</property>
  <property name="meta.media.1.codec.bit_rate">128000</property>
  <property name="seekable">1</property>
  <property name="meta.media.sample_aspect_num">1</property>
  <property name="meta.media.sample_aspect_den">1</property>
  <property name="aspect_ratio">1</property>
  <property name="audio_index">1</property>
  <property name="video_index">0</property>
  <property name="mute_on_pause">1</property>
  <property name="mlt_service">avformat</property>
  <property name="kdenlive:file_size">39996254</property>
  <property name="kdenlive:file_hash">e1dfc73afc693cc4381b37f3211c317b</property>
  <property name="kdenlive:proxy">/home/nicolas/.cache/kdenlive/proxy/e1dfc73afc693cc4381b37f3211c317b.mpg</property>
  <property name="proxy_out">710</property>
  <property name="kdenlive:originalurl">3DSC_0175.MOV</property>
  <property name="global_feed">1</property>
  <property name="kdenlive:meta.media.nb_streams">2</property>
  <property name="kdenlive:meta.media.0.stream.type">video</property>
  <property name="kdenlive:meta.media.0.stream.frame_rate">25</property>
  <property name="kdenlive:meta.media.0.stream.sample_aspect_ratio">0</property>
  <property name="kdenlive:meta.media.0.codec.width">1280</property>
  <property name="kdenlive:meta.media.0.codec.height">720</property>
  <property name="kdenlive:meta.media.0.codec.rotate">0</property>
  <property name="kdenlive:meta.media.0.codec.frame_rate">25</property>
  <property name="kdenlive:meta.media.0.codec.pix_fmt">yuvj420p</property>
  <property name="kdenlive:meta.media.0.codec.sample_aspect_ratio">1</property>
  <property name="kdenlive:meta.media.0.codec.colorspace">601</property>
  <property name="kdenlive:meta.media.0.codec.color_trc">4</property>
  <property name="kdenlive:meta.media.0.codec.name">h264</property>
  <property name="kdenlive:meta.media.0.codec.long_name">H.264 / AVC / MPEG-4 AVC / MPEG-4 part 10</property>
  <property name="kdenlive:meta.media.0.codec.bit_rate">10833409</property>
  <property name="kdenlive:meta.attr.0.stream.creation_time.markup">2017-08-20T19:08:36.000000Z</property>
  <property name="kdenlive:meta.attr.0.stream.language.markup">eng</property>
  <property name="kdenlive:meta.media.1.stream.type">audio</property>
  <property name="kdenlive:meta.media.1.codec.sample_fmt">s16</property>
  <property name="kdenlive:meta.media.1.codec.sample_rate">24000</property>
  <property name="kdenlive:meta.media.1.codec.channels">1</property>
  <property name="kdenlive:meta.media.1.codec.name">pcm_s16le</property>
  <property name="kdenlive:meta.media.1.codec.long_name">PCM signed 16-bit little-endian</property>
  <property name="kdenlive:meta.media.1.codec.bit_rate">384000</property>
  <property name="kdenlive:meta.attr.1.stream.creation_time.markup">2017-08-20T19:08:36.000000Z</property>
  <property name="kdenlive:meta.attr.1.stream.language.markup">eng</property>
  <property name="kdenlive:meta.attr.major_brand.markup">qt  </property>
  <property name="kdenlive:meta.attr.minor_version.markup">537331968</property>
  <property name="kdenlive:meta.attr.compatible_brands.markup">qt  niko</property>
  <property name="kdenlive:meta.attr.creation_time.markup">2017-08-20T19:08:36.000000Z</property>
  <property name="kdenlive:meta.media.sample_aspect_num">1</property>
  <property name="kdenlive:meta.media.sample_aspect_den">1</property>
  <property name="kdenlive:meta.media.frame_rate_num">25</property>
  <property name="kdenlive:meta.media.frame_rate_den">1</property>
  <property name="kdenlive:meta.media.colorspace">601</property>
  <property name="kdenlive:meta.media.color_trc">4</property>
  <property name="kdenlive:meta.media.width">1280</property>
  <property name="kdenlive:meta.media.height">720</property>
  <property name="kdenlive:meta.media.top_field_first">0</property>
  <property name="kdenlive:meta.media.progressive">1</property>
  <property name="xml">was here</property>
  <property name="meta.media.frame_rate_num">25</property>
  <property name="meta.media.frame_rate_den">1</property>
  <property name="meta.media.colorspace">601</property>
  <property name="meta.media.color_trc">2</property>
  <property name="meta.media.width">640</property>
  <property name="meta.media.height">360</property>
  <property name="meta.media.top_field_first">0</property>
  <property name="meta.media.progressive">1</property>
 </producer>
 <producer id="36_playlist3" title="Anonymous Submission" out="1424" in="0">
  <property name="length">00:00:57:00</property>
  <property name="eof">pause</property>
  <property name="resource">/home/nicolas/.cache/kdenlive/proxy/768781ef6def1bafaabc4b6c7bc34931.mpg</property>
  <property name="meta.media.nb_streams">2</property>
  <property name="meta.media.0.stream.type">video</property>
  <property name="meta.media.0.stream.frame_rate">25</property>
  <property name="meta.media.0.stream.sample_aspect_ratio">0</property>
  <property name="meta.media.0.codec.width">640</property>
  <property name="meta.media.0.codec.height">360</property>
  <property name="meta.media.0.codec.rotate">0</property>
  <property name="meta.media.0.codec.frame_rate">25</property>
  <property name="meta.media.0.codec.pix_fmt">yuv420p</property>
  <property name="meta.media.0.codec.sample_aspect_ratio">1</property>
  <property name="meta.media.0.codec.colorspace">601</property>
  <property name="meta.media.0.codec.name">mpeg2video</property>
  <property name="meta.media.0.codec.long_name">MPEG-2 video</property>
  <property name="meta.media.0.codec.bit_rate">0</property>
  <property name="meta.media.1.stream.type">audio</property>
  <property name="meta.media.1.codec.sample_fmt">s16p</property>
  <property name="meta.media.1.codec.sample_rate">24000</property>
  <property name="meta.media.1.codec.channels">1</property>
  <property name="meta.media.1.codec.name">mp2</property>
  <property name="meta.media.1.codec.long_name">MP2 (MPEG audio layer 2)</property>
  <property name="meta.media.1.codec.bit_rate">128000</property>
  <property name="seekable">1</property>
  <property name="meta.media.sample_aspect_num">1</property>
  <property name="meta.media.sample_aspect_den">1</property>
  <property name="aspect_ratio">1</property>
  <property name="audio_index">1</property>
  <property name="video_index">0</property>
  <property name="mute_on_pause">1</property>
  <property name="mlt_service">avformat</property>
  <property name="kdenlive:file_size">81111036</property>
  <property name="kdenlive:file_hash">768781ef6def1bafaabc4b6c7bc34931</property>
  <property name="kdenlive:proxy">/home/nicolas/.cache/kdenlive/proxy/768781ef6def1bafaabc4b6c7bc34931.mpg</property>
  <property name="proxy_out">1424</property>
  <property name="kdenlive:originalurl">2DSC_0036.MOV</property>
  <property name="global_feed">1</property>
  <property name="kdenlive:meta.media.nb_streams">2</property>
  <property name="kdenlive:meta.media.0.stream.type">video</property>
  <property name="kdenlive:meta.media.0.stream.frame_rate">25</property>
  <property name="kdenlive:meta.media.0.stream.sample_aspect_ratio">0</property>
  <property name="kdenlive:meta.media.0.codec.width">1280</property>
  <property name="kdenlive:meta.media.0.codec.height">720</property>
  <property name="kdenlive:meta.media.0.codec.rotate">0</property>
  <property name="kdenlive:meta.media.0.codec.frame_rate">25</property>
  <property name="kdenlive:meta.media.0.codec.pix_fmt">yuvj420p</property>
  <property name="kdenlive:meta.media.0.codec.sample_aspect_ratio">1</property>
  <property name="kdenlive:meta.media.0.codec.colorspace">601</property>
  <property name="kdenlive:meta.media.0.codec.color_trc">4</property>
  <property name="kdenlive:meta.media.0.codec.name">h264</property>
  <property name="kdenlive:meta.media.0.codec.long_name">H.264 / AVC / MPEG-4 AVC / MPEG-4 part 10</property>
  <property name="kdenlive:meta.media.0.codec.bit_rate">10982718</property>
  <property name="kdenlive:meta.attr.0.stream.creation_time.markup">2017-08-19T18:31:13.000000Z</property>
  <property name="kdenlive:meta.attr.0.stream.language.markup">eng</property>
  <property name="kdenlive:meta.media.1.stream.type">audio</property>
  <property name="kdenlive:meta.media.1.codec.sample_fmt">s16</property>
  <property name="kdenlive:meta.media.1.codec.sample_rate">24000</property>
  <property name="kdenlive:meta.media.1.codec.channels">1</property>
  <property name="kdenlive:meta.media.1.codec.name">pcm_s16le</property>
  <property name="kdenlive:meta.media.1.codec.long_name">PCM signed 16-bit little-endian</property>
  <property name="kdenlive:meta.media.1.codec.bit_rate">384000</property>
  <property name="kdenlive:meta.attr.1.stream.creation_time.markup">2017-08-19T18:31:13.000000Z</property>
  <property name="kdenlive:meta.attr.1.stream.language.markup">eng</property>
  <property name="kdenlive:meta.attr.major_brand.markup">qt  </property>
  <property name="kdenlive:meta.attr.minor_version.markup">537331968</property>
  <property name="kdenlive:meta.attr.compatible_brands.markup">qt  niko</property>
  <property name="kdenlive:meta.attr.creation_time.markup">2017-08-19T18:31:13.000000Z</property>
  <property name="kdenlive:meta.media.sample_aspect_num">1</property>
  <property name="kdenlive:meta.media.sample_aspect_den">1</property>
  <property name="kdenlive:meta.media.frame_rate_num">25</property>
  <property name="kdenlive:meta.media.frame_rate_den">1</property>
  <property name="kdenlive:meta.media.colorspace">601</property>
  <property name="kdenlive:meta.media.color_trc">4</property>
  <property name="kdenlive:meta.media.width">1280</property>
  <property name="kdenlive:meta.media.height">720</property>
  <property name="kdenlive:meta.media.top_field_first">0</property>
  <property name="kdenlive:meta.media.progressive">1</property>
  <property name="xml">was here</property>
  <property name="meta.media.frame_rate_num">25</property>
  <property name="meta.media.frame_rate_den">1</property>
  <property name="meta.media.colorspace">601</property>
  <property name="meta.media.color_trc">2</property>
  <property name="meta.media.width">640</property>
  <property name="meta.media.height">360</property>
  <property name="meta.media.top_field_first">0</property>
  <property name="meta.media.progressive">1</property>
 </producer>
 <producer id="39_playlist3" title="Anonymous Submission" out="824" in="0">
  <property name="length">00:00:33:00</property>
  <property name="eof">pause</property>
  <property name="resource">/home/nicolas/.cache/kdenlive/proxy/2f3eb1f5fddb3c4007620baff0f5d63d.mpg</property>
  <property name="meta.media.nb_streams">2</property>
  <property name="meta.media.0.stream.type">video</property>
  <property name="meta.media.0.stream.frame_rate">25</property>
  <property name="meta.media.0.stream.sample_aspect_ratio">0</property>
  <property name="meta.media.0.codec.width">640</property>
  <property name="meta.media.0.codec.height">360</property>
  <property name="meta.media.0.codec.rotate">0</property>
  <property name="meta.media.0.codec.frame_rate">25</property>
  <property name="meta.media.0.codec.pix_fmt">yuv420p</property>
  <property name="meta.media.0.codec.sample_aspect_ratio">1</property>
  <property name="meta.media.0.codec.colorspace">601</property>
  <property name="meta.media.0.codec.name">mpeg2video</property>
  <property name="meta.media.0.codec.long_name">MPEG-2 video</property>
  <property name="meta.media.0.codec.bit_rate">0</property>
  <property name="meta.media.1.stream.type">audio</property>
  <property name="meta.media.1.codec.sample_fmt">s16p</property>
  <property name="meta.media.1.codec.sample_rate">24000</property>
  <property name="meta.media.1.codec.channels">1</property>
  <property name="meta.media.1.codec.name">mp2</property>
  <property name="meta.media.1.codec.long_name">MP2 (MPEG audio layer 2)</property>
  <property name="meta.media.1.codec.bit_rate">128000</property>
  <property name="seekable">1</property>
  <property name="meta.media.sample_aspect_num">1</property>
  <property name="meta.media.sample_aspect_den">1</property>
  <property name="aspect_ratio">1</property>
  <property name="audio_index">1</property>
  <property name="video_index">0</property>
  <property name="mute_on_pause">1</property>
  <property name="mlt_service">avformat</property>
  <property name="kdenlive:file_size">44627861</property>
  <property name="kdenlive:file_hash">2f3eb1f5fddb3c4007620baff0f5d63d</property>
  <property name="kdenlive:proxy">/home/nicolas/.cache/kdenlive/proxy/2f3eb1f5fddb3c4007620baff0f5d63d.mpg</property>
  <property name="proxy_out">824</property>
  <property name="kdenlive:originalurl">3DSC_0046.MOV</property>
  <property name="global_feed">1</property>
  <property name="kdenlive:meta.media.nb_streams">2</property>
  <property name="kdenlive:meta.media.0.stream.type">video</property>
  <property name="kdenlive:meta.media.0.stream.frame_rate">25</property>
  <property name="kdenlive:meta.media.0.stream.sample_aspect_ratio">0</property>
  <property name="kdenlive:meta.media.0.codec.width">1280</property>
  <property name="kdenlive:meta.media.0.codec.height">720</property>
  <property name="kdenlive:meta.media.0.codec.rotate">0</property>
  <property name="kdenlive:meta.media.0.codec.frame_rate">25</property>
  <property name="kdenlive:meta.media.0.codec.pix_fmt">yuvj420p</property>
  <property name="kdenlive:meta.media.0.codec.sample_aspect_ratio">1</property>
  <property name="kdenlive:meta.media.0.codec.colorspace">601</property>
  <property name="kdenlive:meta.media.0.codec.color_trc">4</property>
  <property name="kdenlive:meta.media.0.codec.name">h264</property>
  <property name="kdenlive:meta.media.0.codec.long_name">H.264 / AVC / MPEG-4 AVC / MPEG-4 part 10</property>
  <property name="kdenlive:meta.media.0.codec.bit_rate">10405499</property>
  <property name="kdenlive:meta.attr.0.stream.creation_time.markup">2017-08-20T11:07:09.000000Z</property>
  <property name="kdenlive:meta.attr.0.stream.language.markup">eng</property>
  <property name="kdenlive:meta.media.1.stream.type">audio</property>
  <property name="kdenlive:meta.media.1.codec.sample_fmt">s16</property>
  <property name="kdenlive:meta.media.1.codec.sample_rate">24000</property>
  <property name="kdenlive:meta.media.1.codec.channels">1</property>
  <property name="kdenlive:meta.media.1.codec.name">pcm_s16le</property>
  <property name="kdenlive:meta.media.1.codec.long_name">PCM signed 16-bit little-endian</property>
  <property name="kdenlive:meta.media.1.codec.bit_rate">384000</property>
  <property name="kdenlive:meta.attr.1.stream.creation_time.markup">2017-08-20T11:07:09.000000Z</property>
  <property name="kdenlive:meta.attr.1.stream.language.markup">eng</property>
  <property name="kdenlive:meta.attr.major_brand.markup">qt  </property>
  <property name="kdenlive:meta.attr.minor_version.markup">537331968</property>
  <property name="kdenlive:meta.attr.compatible_brands.markup">qt  niko</property>
  <property name="kdenlive:meta.attr.creation_time.markup">2017-08-20T11:07:09.000000Z</property>
  <property name="kdenlive:meta.media.sample_aspect_num">1</property>
  <property name="kdenlive:meta.media.sample_aspect_den">1</property>
  <property name="kdenlive:meta.media.frame_rate_num">25</property>
  <property name="kdenlive:meta.media.frame_rate_den">1</property>
  <property name="kdenlive:meta.media.colorspace">601</property>
  <property name="kdenlive:meta.media.color_trc">4</property>
  <property name="kdenlive:meta.media.width">1280</property>
  <property name="kdenlive:meta.media.height">720</property>
  <property name="kdenlive:meta.media.top_field_first">0</property>
  <property name="kdenlive:meta.media.progressive">1</property>
  <property name="xml">was here</property>
  <property name="meta.media.frame_rate_num">25</property>
  <property name="meta.media.frame_rate_den">1</property>
  <property name="meta.media.colorspace">601</property>
  <property name="meta.media.color_trc">2</property>
  <property name="meta.media.width">640</property>
  <property name="meta.media.height">360</property>
  <property name="meta.media.top_field_first">0</property>
  <property name="meta.media.progressive">1</property>
 </producer>
 <producer id="38_playlist3" title="Anonymous Submission" out="1021" in="0">
  <property name="length">00:00:40:22</property>
  <property name="eof">pause</property>
  <property name="resource">/home/nicolas/.cache/kdenlive/proxy/2f707c519048798cf9bc5f361b32aa4e.mpg</property>
  <property name="meta.media.nb_streams">2</property>
  <property name="meta.media.0.stream.type">video</property>
  <property name="meta.media.0.stream.frame_rate">25</property>
  <property name="meta.media.0.stream.sample_aspect_ratio">0</property>
  <property name="meta.media.0.codec.width">640</property>
  <property name="meta.media.0.codec.height">360</property>
  <property name="meta.media.0.codec.rotate">0</property>
  <property name="meta.media.0.codec.frame_rate">25</property>
  <property name="meta.media.0.codec.pix_fmt">yuv420p</property>
  <property name="meta.media.0.codec.sample_aspect_ratio">1</property>
  <property name="meta.media.0.codec.colorspace">601</property>
  <property name="meta.media.0.codec.name">mpeg2video</property>
  <property name="meta.media.0.codec.long_name">MPEG-2 video</property>
  <property name="meta.media.0.codec.bit_rate">0</property>
  <property name="meta.media.1.stream.type">audio</property>
  <property name="meta.media.1.codec.sample_fmt">s16p</property>
  <property name="meta.media.1.codec.sample_rate">48000</property>
  <property name="meta.media.1.codec.channels">2</property>
  <property name="meta.media.1.codec.name">mp2</property>
  <property name="meta.media.1.codec.long_name">MP2 (MPEG audio layer 2)</property>
  <property name="meta.media.1.codec.bit_rate">128000</property>
  <property name="seekable">1</property>
  <property name="meta.media.sample_aspect_num">1</property>
  <property name="meta.media.sample_aspect_den">1</property>
  <property name="aspect_ratio">1</property>
  <property name="audio_index">1</property>
  <property name="video_index">0</property>
  <property name="mute_on_pause">1</property>
  <property name="mlt_service">avformat</property>
  <property name="kdenlive:file_size">24477569</property>
  <property name="kdenlive:file_hash">2f707c519048798cf9bc5f361b32aa4e</property>
  <property name="kdenlive:proxy">/home/nicolas/.cache/kdenlive/proxy/2f707c519048798cf9bc5f361b32aa4e.mpg</property>
  <property name="proxy_out">1021</property>
  <property name="kdenlive:originalurl">télé achat/chaussons chauffants/render partiel chaussons chauffants.mp4</property>
  <property name="global_feed">1</property>
  <property name="kdenlive:meta.media.nb_streams">2</property>
  <property name="kdenlive:meta.media.0.stream.type">video</property>
  <property name="kdenlive:meta.media.0.stream.frame_rate">25</property>
  <property name="kdenlive:meta.media.0.stream.sample_aspect_ratio">1</property>
  <property name="kdenlive:meta.media.0.codec.width">1280</property>
  <property name="kdenlive:meta.media.0.codec.height">720</property>
  <property name="kdenlive:meta.media.0.codec.rotate">0</property>
  <property name="kdenlive:meta.media.0.codec.frame_rate">25</property>
  <property name="kdenlive:meta.media.0.codec.pix_fmt">yuv420p</property>
  <property name="kdenlive:meta.media.0.codec.sample_aspect_ratio">1</property>
  <property name="kdenlive:meta.media.0.codec.colorspace">709</property>
  <property name="kdenlive:meta.media.0.codec.color_trc">1</property>
  <property name="kdenlive:meta.media.0.codec.name">h264</property>
  <property name="kdenlive:meta.media.0.codec.long_name">H.264 / AVC / MPEG-4 AVC / MPEG-4 part 10</property>
  <property name="kdenlive:meta.media.0.codec.bit_rate">4633731</property>
  <property name="kdenlive:meta.attr.0.stream.handler_name.markup">VideoHandler</property>
  <property name="kdenlive:meta.media.1.stream.type">audio</property>
  <property name="kdenlive:meta.media.1.codec.sample_fmt">fltp</property>
  <property name="kdenlive:meta.media.1.codec.sample_rate">48000</property>
  <property name="kdenlive:meta.media.1.codec.channels">2</property>
  <property name="kdenlive:meta.media.1.codec.name">aac</property>
  <property name="kdenlive:meta.media.1.codec.long_name">AAC (Advanced Audio Coding)</property>
  <property name="kdenlive:meta.media.1.codec.bit_rate">154604</property>
  <property name="kdenlive:meta.attr.1.stream.handler_name.markup">SoundHandler</property>
  <property name="kdenlive:meta.attr.major_brand.markup">isom</property>
  <property name="kdenlive:meta.attr.minor_version.markup">512</property>
  <property name="kdenlive:meta.attr.compatible_brands.markup">isomiso2avc1mp41</property>
  <property name="kdenlive:meta.attr.encoder.markup">Lavf57.56.101</property>
  <property name="kdenlive:meta.media.sample_aspect_num">1</property>
  <property name="kdenlive:meta.media.sample_aspect_den">1</property>
  <property name="kdenlive:meta.media.frame_rate_num">25</property>
  <property name="kdenlive:meta.media.frame_rate_den">1</property>
  <property name="kdenlive:meta.media.colorspace">709</property>
  <property name="kdenlive:meta.media.color_trc">1</property>
  <property name="kdenlive:meta.media.width">1280</property>
  <property name="kdenlive:meta.media.height">720</property>
  <property name="kdenlive:meta.media.top_field_first">0</property>
  <property name="kdenlive:meta.media.progressive">1</property>
  <property name="xml">was here</property>
  <property name="meta.media.frame_rate_num">25</property>
  <property name="meta.media.frame_rate_den">1</property>
  <property name="meta.media.colorspace">601</property>
  <property name="meta.media.color_trc">2</property>
  <property name="meta.media.width">640</property>
  <property name="meta.media.height">360</property>
  <property name="meta.media.top_field_first">0</property>
  <property name="meta.media.progressive">1</property>
 </producer>
 <producer id="42_playlist3" title="Anonymous Submission" out="521" in="0">
  <property name="length">00:00:20:22</property>
  <property name="eof">pause</property>
  <property name="resource">/home/nicolas/.cache/kdenlive/proxy/7a2f6ddce584d23d324a00d89b745332.mpg</property>
  <property name="meta.media.nb_streams">2</property>
  <property name="meta.media.0.stream.type">video</property>
  <property name="meta.media.0.stream.frame_rate">25</property>
  <property name="meta.media.0.stream.sample_aspect_ratio">0</property>
  <property name="meta.media.0.codec.width">640</property>
  <property name="meta.media.0.codec.height">360</property>
  <property name="meta.media.0.codec.rotate">0</property>
  <property name="meta.media.0.codec.frame_rate">25</property>
  <property name="meta.media.0.codec.pix_fmt">yuv420p</property>
  <property name="meta.media.0.codec.sample_aspect_ratio">1</property>
  <property name="meta.media.0.codec.colorspace">601</property>
  <property name="meta.media.0.codec.name">mpeg2video</property>
  <property name="meta.media.0.codec.long_name">MPEG-2 video</property>
  <property name="meta.media.0.codec.bit_rate">0</property>
  <property name="meta.media.1.stream.type">audio</property>
  <property name="meta.media.1.codec.sample_fmt">s16p</property>
  <property name="meta.media.1.codec.sample_rate">24000</property>
  <property name="meta.media.1.codec.channels">1</property>
  <property name="meta.media.1.codec.name">mp2</property>
  <property name="meta.media.1.codec.long_name">MP2 (MPEG audio layer 2)</property>
  <property name="meta.media.1.codec.bit_rate">128000</property>
  <property name="seekable">1</property>
  <property name="meta.media.sample_aspect_num">1</property>
  <property name="meta.media.sample_aspect_den">1</property>
  <property name="aspect_ratio">1</property>
  <property name="audio_index">1</property>
  <property name="video_index">0</property>
  <property name="mute_on_pause">1</property>
  <property name="mlt_service">avformat</property>
  <property name="kdenlive:file_size">30453823</property>
  <property name="kdenlive:file_hash">7a2f6ddce584d23d324a00d89b745332</property>
  <property name="kdenlive:proxy">/home/nicolas/.cache/kdenlive/proxy/7a2f6ddce584d23d324a00d89b745332.mpg</property>
  <property name="proxy_out">521</property>
  <property name="kdenlive:originalurl">/home/nicolas/Documents/Projets Musique/Barons Freaks/COURTS METRAGES - MAIN/COURTS METRAGES/tournage août/2017-08-19 rushs (copié)/2DSC_0018.MOV</property>
  <property name="global_feed">1</property>
  <property name="kdenlive:meta.media.nb_streams">2</property>
  <property name="kdenlive:meta.media.0.stream.type">video</property>
  <property name="kdenlive:meta.media.0.stream.frame_rate">25</property>
  <property name="kdenlive:meta.media.0.stream.sample_aspect_ratio">0</property>
  <property name="kdenlive:meta.media.0.codec.width">1280</property>
  <property name="kdenlive:meta.media.0.codec.height">720</property>
  <property name="kdenlive:meta.media.0.codec.rotate">0</property>
  <property name="kdenlive:meta.media.0.codec.frame_rate">25</property>
  <property name="kdenlive:meta.media.0.codec.pix_fmt">yuvj420p</property>
  <property name="kdenlive:meta.media.0.codec.sample_aspect_ratio">1</property>
  <property name="kdenlive:meta.media.0.codec.colorspace">601</property>
  <property name="kdenlive:meta.media.0.codec.color_trc">4</property>
  <property name="kdenlive:meta.media.0.codec.name">h264</property>
  <property name="kdenlive:meta.media.0.codec.long_name">H.264 / AVC / MPEG-4 AVC / MPEG-4 part 10</property>
  <property name="kdenlive:meta.media.0.codec.bit_rate">11235095</property>
  <property name="kdenlive:meta.attr.0.stream.creation_time.markup">2017-08-19T17:03:24.000000Z</property>
  <property name="kdenlive:meta.attr.0.stream.language.markup">eng</property>
  <property name="kdenlive:meta.media.1.stream.type">audio</property>
  <property name="kdenlive:meta.media.1.codec.sample_fmt">s16</property>
  <property name="kdenlive:meta.media.1.codec.sample_rate">24000</property>
  <property name="kdenlive:meta.media.1.codec.channels">1</property>
  <property name="kdenlive:meta.media.1.codec.name">pcm_s16le</property>
  <property name="kdenlive:meta.media.1.codec.long_name">PCM signed 16-bit little-endian</property>
  <property name="kdenlive:meta.media.1.codec.bit_rate">384000</property>
  <property name="kdenlive:meta.attr.1.stream.creation_time.markup">2017-08-19T17:03:24.000000Z</property>
  <property name="kdenlive:meta.attr.1.stream.language.markup">eng</property>
  <property name="kdenlive:meta.attr.major_brand.markup">qt  </property>
  <property name="kdenlive:meta.attr.minor_version.markup">537331968</property>
  <property name="kdenlive:meta.attr.compatible_brands.markup">qt  niko</property>
  <property name="kdenlive:meta.attr.creation_time.markup">2017-08-19T17:03:24.000000Z</property>
  <property name="kdenlive:meta.media.sample_aspect_num">1</property>
  <property name="kdenlive:meta.media.sample_aspect_den">1</property>
  <property name="kdenlive:meta.media.frame_rate_num">25</property>
  <property name="kdenlive:meta.media.frame_rate_den">1</property>
  <property name="kdenlive:meta.media.colorspace">601</property>
  <property name="kdenlive:meta.media.color_trc">4</property>
  <property name="kdenlive:meta.media.width">1280</property>
  <property name="kdenlive:meta.media.height">720</property>
  <property name="kdenlive:meta.media.top_field_first">0</property>
  <property name="kdenlive:meta.media.progressive">1</property>
  <property name="xml">was here</property>
  <property name="meta.media.frame_rate_num">25</property>
  <property name="meta.media.frame_rate_den">1</property>
  <property name="meta.media.colorspace">601</property>
  <property name="meta.media.color_trc">2</property>
  <property name="meta.media.width">640</property>
  <property name="meta.media.height">360</property>
  <property name="meta.media.top_field_first">0</property>
  <property name="meta.media.progressive">1</property>
 </producer>
 <producer id="43_playlist3" title="Anonymous Submission" out="1784" in="0">
  <property name="length">00:01:11:10</property>
  <property name="eof">pause</property>
  <property name="resource">/home/nicolas/.cache/kdenlive/proxy/d77769bead55d97a5c587d1406863229.mpg</property>
  <property name="meta.media.nb_streams">2</property>
  <property name="meta.media.0.stream.type">video</property>
  <property name="meta.media.0.stream.frame_rate">25</property>
  <property name="meta.media.0.stream.sample_aspect_ratio">0</property>
  <property name="meta.media.0.codec.width">640</property>
  <property name="meta.media.0.codec.height">360</property>
  <property name="meta.media.0.codec.rotate">0</property>
  <property name="meta.media.0.codec.frame_rate">25</property>
  <property name="meta.media.0.codec.pix_fmt">yuv420p</property>
  <property name="meta.media.0.codec.sample_aspect_ratio">1</property>
  <property name="meta.media.0.codec.colorspace">601</property>
  <property name="meta.media.0.codec.name">mpeg2video</property>
  <property name="meta.media.0.codec.long_name">MPEG-2 video</property>
  <property name="meta.media.0.codec.bit_rate">0</property>
  <property name="meta.media.1.stream.type">audio</property>
  <property name="meta.media.1.codec.sample_fmt">s16p</property>
  <property name="meta.media.1.codec.sample_rate">24000</property>
  <property name="meta.media.1.codec.channels">1</property>
  <property name="meta.media.1.codec.name">mp2</property>
  <property name="meta.media.1.codec.long_name">MP2 (MPEG audio layer 2)</property>
  <property name="meta.media.1.codec.bit_rate">128000</property>
  <property name="seekable">1</property>
  <property name="meta.media.sample_aspect_num">1</property>
  <property name="meta.media.sample_aspect_den">1</property>
  <property name="aspect_ratio">1</property>
  <property name="audio_index">1</property>
  <property name="video_index">0</property>
  <property name="mute_on_pause">1</property>
  <property name="mlt_service">avformat</property>
  <property name="kdenlive:file_size">103875540</property>
  <property name="kdenlive:file_hash">d77769bead55d97a5c587d1406863229</property>
  <property name="kdenlive:proxy">/home/nicolas/.cache/kdenlive/proxy/d77769bead55d97a5c587d1406863229.mpg</property>
  <property name="proxy_out">1784</property>
  <property name="kdenlive:originalurl">3DSC_0129.MOV</property>
  <property name="global_feed">1</property>
  <property name="kdenlive:meta.media.nb_streams">2</property>
  <property name="kdenlive:meta.media.0.stream.type">video</property>
  <property name="kdenlive:meta.media.0.stream.frame_rate">25</property>
  <property name="kdenlive:meta.media.0.stream.sample_aspect_ratio">0</property>
  <property name="kdenlive:meta.media.0.codec.width">1280</property>
  <property name="kdenlive:meta.media.0.codec.height">720</property>
  <property name="kdenlive:meta.media.0.codec.rotate">0</property>
  <property name="kdenlive:meta.media.0.codec.frame_rate">25</property>
  <property name="kdenlive:meta.media.0.codec.pix_fmt">yuvj420p</property>
  <property name="kdenlive:meta.media.0.codec.sample_aspect_ratio">1</property>
  <property name="kdenlive:meta.media.0.codec.colorspace">601</property>
  <property name="kdenlive:meta.media.0.codec.color_trc">4</property>
  <property name="kdenlive:meta.media.0.codec.name">h264</property>
  <property name="kdenlive:meta.media.0.codec.long_name">H.264 / AVC / MPEG-4 AVC / MPEG-4 part 10</property>
  <property name="kdenlive:meta.media.0.codec.bit_rate">11240174</property>
  <property name="kdenlive:meta.attr.0.stream.creation_time.markup">2017-08-20T17:08:50.000000Z</property>
  <property name="kdenlive:meta.attr.0.stream.language.markup">eng</property>
  <property name="kdenlive:meta.media.1.stream.type">audio</property>
  <property name="kdenlive:meta.media.1.codec.sample_fmt">s16</property>
  <property name="kdenlive:meta.media.1.codec.sample_rate">24000</property>
  <property name="kdenlive:meta.media.1.codec.channels">1</property>
  <property name="kdenlive:meta.media.1.codec.name">pcm_s16le</property>
  <property name="kdenlive:meta.media.1.codec.long_name">PCM signed 16-bit little-endian</property>
  <property name="kdenlive:meta.media.1.codec.bit_rate">384000</property>
  <property name="kdenlive:meta.attr.1.stream.creation_time.markup">2017-08-20T17:08:50.000000Z</property>
  <property name="kdenlive:meta.attr.1.stream.language.markup">eng</property>
  <property name="kdenlive:meta.attr.major_brand.markup">qt  </property>
  <property name="kdenlive:meta.attr.minor_version.markup">537331968</property>
  <property name="kdenlive:meta.attr.compatible_brands.markup">qt  niko</property>
  <property name="kdenlive:meta.attr.creation_time.markup">2017-08-20T17:08:50.000000Z</property>
  <property name="kdenlive:meta.media.sample_aspect_num">1</property>
  <property name="kdenlive:meta.media.sample_aspect_den">1</property>
  <property name="kdenlive:meta.media.frame_rate_num">25</property>
  <property name="kdenlive:meta.media.frame_rate_den">1</property>
  <property name="kdenlive:meta.media.colorspace">601</property>
  <property name="kdenlive:meta.media.color_trc">4</property>
  <property name="kdenlive:meta.media.width">1280</property>
  <property name="kdenlive:meta.media.height">720</property>
  <property name="kdenlive:meta.media.top_field_first">0</property>
  <property name="kdenlive:meta.media.progressive">1</property>
  <property name="xml">was here</property>
  <property name="meta.media.frame_rate_num">25</property>
  <property name="meta.media.frame_rate_den">1</property>
  <property name="meta.media.colorspace">601</property>
  <property name="meta.media.color_trc">2</property>
  <property name="meta.media.width">640</property>
  <property name="meta.media.height">360</property>
  <property name="meta.media.top_field_first">0</property>
  <property name="meta.media.progressive">1</property>
 </producer>
 <producer id="44_playlist3" title="Anonymous Submission" out="581" in="0">
  <property name="length">00:00:23:07</property>
  <property name="eof">pause</property>
  <property name="resource">/home/nicolas/.cache/kdenlive/proxy/a7cb614f0a9434f0134bb9c15fc79017.mpg</property>
  <property name="meta.media.nb_streams">2</property>
  <property name="meta.media.0.stream.type">video</property>
  <property name="meta.media.0.stream.frame_rate">25</property>
  <property name="meta.media.0.stream.sample_aspect_ratio">0</property>
  <property name="meta.media.0.codec.width">640</property>
  <property name="meta.media.0.codec.height">360</property>
  <property name="meta.media.0.codec.rotate">0</property>
  <property name="meta.media.0.codec.frame_rate">25</property>
  <property name="meta.media.0.codec.pix_fmt">yuv420p</property>
  <property name="meta.media.0.codec.sample_aspect_ratio">1</property>
  <property name="meta.media.0.codec.colorspace">601</property>
  <property name="meta.media.0.codec.name">mpeg2video</property>
  <property name="meta.media.0.codec.long_name">MPEG-2 video</property>
  <property name="meta.media.0.codec.bit_rate">0</property>
  <property name="meta.media.1.stream.type">audio</property>
  <property name="meta.media.1.codec.sample_fmt">s16p</property>
  <property name="meta.media.1.codec.sample_rate">24000</property>
  <property name="meta.media.1.codec.channels">1</property>
  <property name="meta.media.1.codec.name">mp2</property>
  <property name="meta.media.1.codec.long_name">MP2 (MPEG audio layer 2)</property>
  <property name="meta.media.1.codec.bit_rate">128000</property>
  <property name="seekable">1</property>
  <property name="meta.media.sample_aspect_num">1</property>
  <property name="meta.media.sample_aspect_den">1</property>
  <property name="aspect_ratio">1</property>
  <property name="audio_index">1</property>
  <property name="video_index">0</property>
  <property name="mute_on_pause">1</property>
  <property name="mlt_service">avformat</property>
  <property name="kdenlive:file_size">31853402</property>
  <property name="kdenlive:file_hash">a7cb614f0a9434f0134bb9c15fc79017</property>
  <property name="kdenlive:proxy">/home/nicolas/.cache/kdenlive/proxy/a7cb614f0a9434f0134bb9c15fc79017.mpg</property>
  <property name="proxy_out">581</property>
  <property name="kdenlive:originalurl">3DSC_0171.MOV</property>
  <property name="global_feed">1</property>
  <property name="kdenlive:meta.media.nb_streams">2</property>
  <property name="kdenlive:meta.media.0.stream.type">video</property>
  <property name="kdenlive:meta.media.0.stream.frame_rate">25</property>
  <property name="kdenlive:meta.media.0.stream.sample_aspect_ratio">0</property>
  <property name="kdenlive:meta.media.0.codec.width">1280</property>
  <property name="kdenlive:meta.media.0.codec.height">720</property>
  <property name="kdenlive:meta.media.0.codec.rotate">0</property>
  <property name="kdenlive:meta.media.0.codec.frame_rate">25</property>
  <property name="kdenlive:meta.media.0.codec.pix_fmt">yuvj420p</property>
  <property name="kdenlive:meta.media.0.codec.sample_aspect_ratio">1</property>
  <property name="kdenlive:meta.media.0.codec.colorspace">601</property>
  <property name="kdenlive:meta.media.0.codec.color_trc">4</property>
  <property name="kdenlive:meta.media.0.codec.name">h264</property>
  <property name="kdenlive:meta.media.0.codec.long_name">H.264 / AVC / MPEG-4 AVC / MPEG-4 part 10</property>
  <property name="kdenlive:meta.media.0.codec.bit_rate">10520184</property>
  <property name="kdenlive:meta.attr.0.stream.creation_time.markup">2017-08-20T19:05:01.000000Z</property>
  <property name="kdenlive:meta.attr.0.stream.language.markup">eng</property>
  <property name="kdenlive:meta.media.1.stream.type">audio</property>
  <property name="kdenlive:meta.media.1.codec.sample_fmt">s16</property>
  <property name="kdenlive:meta.media.1.codec.sample_rate">24000</property>
  <property name="kdenlive:meta.media.1.codec.channels">1</property>
  <property name="kdenlive:meta.media.1.codec.name">pcm_s16le</property>
  <property name="kdenlive:meta.media.1.codec.long_name">PCM signed 16-bit little-endian</property>
  <property name="kdenlive:meta.media.1.codec.bit_rate">384000</property>
  <property name="kdenlive:meta.attr.1.stream.creation_time.markup">2017-08-20T19:05:01.000000Z</property>
  <property name="kdenlive:meta.attr.1.stream.language.markup">eng</property>
  <property name="kdenlive:meta.attr.major_brand.markup">qt  </property>
  <property name="kdenlive:meta.attr.minor_version.markup">537331968</property>
  <property name="kdenlive:meta.attr.compatible_brands.markup">qt  niko</property>
  <property name="kdenlive:meta.attr.creation_time.markup">2017-08-20T19:05:01.000000Z</property>
  <property name="kdenlive:meta.media.sample_aspect_num">1</property>
  <property name="kdenlive:meta.media.sample_aspect_den">1</property>
  <property name="kdenlive:meta.media.frame_rate_num">25</property>
  <property name="kdenlive:meta.media.frame_rate_den">1</property>
  <property name="kdenlive:meta.media.colorspace">601</property>
  <property name="kdenlive:meta.media.color_trc">4</property>
  <property name="kdenlive:meta.media.width">1280</property>
  <property name="kdenlive:meta.media.height">720</property>
  <property name="kdenlive:meta.media.top_field_first">0</property>
  <property name="kdenlive:meta.media.progressive">1</property>
  <property name="xml">was here</property>
  <property name="meta.media.frame_rate_num">25</property>
  <property name="meta.media.frame_rate_den">1</property>
  <property name="meta.media.colorspace">601</property>
  <property name="meta.media.color_trc">2</property>
  <property name="meta.media.width">640</property>
  <property name="meta.media.height">360</property>
  <property name="meta.media.top_field_first">0</property>
  <property name="meta.media.progressive">1</property>
 </producer>
 <producer id="47_playlist3" title="Anonymous Submission" out="761" in="0">
  <property name="length">00:00:30:12</property>
  <property name="eof">pause</property>
  <property name="resource">/home/nicolas/.cache/kdenlive/proxy/4656a2c84753ea24b77f54a32a1e6e7d.mpg</property>
  <property name="meta.media.nb_streams">2</property>
  <property name="meta.media.0.stream.type">video</property>
  <property name="meta.media.0.stream.frame_rate">25</property>
  <property name="meta.media.0.stream.sample_aspect_ratio">0</property>
  <property name="meta.media.0.codec.width">640</property>
  <property name="meta.media.0.codec.height">360</property>
  <property name="meta.media.0.codec.rotate">0</property>
  <property name="meta.media.0.codec.frame_rate">25</property>
  <property name="meta.media.0.codec.pix_fmt">yuv420p</property>
  <property name="meta.media.0.codec.sample_aspect_ratio">1</property>
  <property name="meta.media.0.codec.colorspace">601</property>
  <property name="meta.media.0.codec.name">mpeg2video</property>
  <property name="meta.media.0.codec.long_name">MPEG-2 video</property>
  <property name="meta.media.0.codec.bit_rate">0</property>
  <property name="meta.media.1.stream.type">audio</property>
  <property name="meta.media.1.codec.sample_fmt">s16p</property>
  <property name="meta.media.1.codec.sample_rate">24000</property>
  <property name="meta.media.1.codec.channels">1</property>
  <property name="meta.media.1.codec.name">mp2</property>
  <property name="meta.media.1.codec.long_name">MP2 (MPEG audio layer 2)</property>
  <property name="meta.media.1.codec.bit_rate">128000</property>
  <property name="seekable">1</property>
  <property name="meta.media.sample_aspect_num">1</property>
  <property name="meta.media.sample_aspect_den">1</property>
  <property name="aspect_ratio">1</property>
  <property name="audio_index">1</property>
  <property name="video_index">0</property>
  <property name="mute_on_pause">1</property>
  <property name="mlt_service">avformat</property>
  <property name="kdenlive:file_size">42017075</property>
  <property name="kdenlive:file_hash">4656a2c84753ea24b77f54a32a1e6e7d</property>
  <property name="kdenlive:proxy">/home/nicolas/.cache/kdenlive/proxy/4656a2c84753ea24b77f54a32a1e6e7d.mpg</property>
  <property name="proxy_out">761</property>
  <property name="kdenlive:originalurl">3DSC_0166.MOV</property>
  <property name="global_feed">1</property>
  <property name="kdenlive:meta.media.nb_streams">2</property>
  <property name="kdenlive:meta.media.0.stream.type">video</property>
  <property name="kdenlive:meta.media.0.stream.frame_rate">25</property>
  <property name="kdenlive:meta.media.0.stream.sample_aspect_ratio">0</property>
  <property name="kdenlive:meta.media.0.codec.width">1280</property>
  <property name="kdenlive:meta.media.0.codec.height">720</property>
  <property name="kdenlive:meta.media.0.codec.rotate">0</property>
  <property name="kdenlive:meta.media.0.codec.frame_rate">25</property>
  <property name="kdenlive:meta.media.0.codec.pix_fmt">yuvj420p</property>
  <property name="kdenlive:meta.media.0.codec.sample_aspect_ratio">1</property>
  <property name="kdenlive:meta.media.0.codec.colorspace">601</property>
  <property name="kdenlive:meta.media.0.codec.color_trc">4</property>
  <property name="kdenlive:meta.media.0.codec.name">h264</property>
  <property name="kdenlive:meta.media.0.codec.long_name">H.264 / AVC / MPEG-4 AVC / MPEG-4 part 10</property>
  <property name="kdenlive:meta.media.0.codec.bit_rate">10612673</property>
  <property name="kdenlive:meta.attr.0.stream.creation_time.markup">2017-08-20T18:56:15.000000Z</property>
  <property name="kdenlive:meta.attr.0.stream.language.markup">eng</property>
  <property name="kdenlive:meta.media.1.stream.type">audio</property>
  <property name="kdenlive:meta.media.1.codec.sample_fmt">s16</property>
  <property name="kdenlive:meta.media.1.codec.sample_rate">24000</property>
  <property name="kdenlive:meta.media.1.codec.channels">1</property>
  <property name="kdenlive:meta.media.1.codec.name">pcm_s16le</property>
  <property name="kdenlive:meta.media.1.codec.long_name">PCM signed 16-bit little-endian</property>
  <property name="kdenlive:meta.media.1.codec.bit_rate">384000</property>
  <property name="kdenlive:meta.attr.1.stream.creation_time.markup">2017-08-20T18:56:15.000000Z</property>
  <property name="kdenlive:meta.attr.1.stream.language.markup">eng</property>
  <property name="kdenlive:meta.attr.major_brand.markup">qt  </property>
  <property name="kdenlive:meta.attr.minor_version.markup">537331968</property>
  <property name="kdenlive:meta.attr.compatible_brands.markup">qt  niko</property>
  <property name="kdenlive:meta.attr.creation_time.markup">2017-08-20T18:56:15.000000Z</property>
  <property name="kdenlive:meta.media.sample_aspect_num">1</property>
  <property name="kdenlive:meta.media.sample_aspect_den">1</property>
  <property name="kdenlive:meta.media.frame_rate_num">25</property>
  <property name="kdenlive:meta.media.frame_rate_den">1</property>
  <property name="kdenlive:meta.media.colorspace">601</property>
  <property name="kdenlive:meta.media.color_trc">4</property>
  <property name="kdenlive:meta.media.width">1280</property>
  <property name="kdenlive:meta.media.height">720</property>
  <property name="kdenlive:meta.media.top_field_first">0</property>
  <property name="kdenlive:meta.media.progressive">1</property>
  <property name="xml">was here</property>
  <property name="meta.media.frame_rate_num">25</property>
  <property name="meta.media.frame_rate_den">1</property>
  <property name="meta.media.colorspace">601</property>
  <property name="meta.media.color_trc">2</property>
  <property name="meta.media.width">640</property>
  <property name="meta.media.height">360</property>
  <property name="meta.media.top_field_first">0</property>
  <property name="meta.media.progressive">1</property>
 </producer>
 <producer id="49_playlist3" title="Anonymous Submission" out="1193" in="0">
  <property name="length">00:00:47:19</property>
  <property name="eof">pause</property>
  <property name="resource">/home/nicolas/.cache/kdenlive/proxy/5cfb15f7255ff498de11ddcb41f6fd82.mpg</property>
  <property name="meta.media.nb_streams">2</property>
  <property name="meta.media.0.stream.type">video</property>
  <property name="meta.media.0.stream.frame_rate">25</property>
  <property name="meta.media.0.stream.sample_aspect_ratio">0</property>
  <property name="meta.media.0.codec.width">640</property>
  <property name="meta.media.0.codec.height">360</property>
  <property name="meta.media.0.codec.rotate">0</property>
  <property name="meta.media.0.codec.frame_rate">25</property>
  <property name="meta.media.0.codec.pix_fmt">yuv420p</property>
  <property name="meta.media.0.codec.sample_aspect_ratio">1</property>
  <property name="meta.media.0.codec.colorspace">601</property>
  <property name="meta.media.0.codec.name">mpeg2video</property>
  <property name="meta.media.0.codec.long_name">MPEG-2 video</property>
  <property name="meta.media.0.codec.bit_rate">0</property>
  <property name="meta.media.1.stream.type">audio</property>
  <property name="meta.media.1.codec.sample_fmt">s16p</property>
  <property name="meta.media.1.codec.sample_rate">24000</property>
  <property name="meta.media.1.codec.channels">1</property>
  <property name="meta.media.1.codec.name">mp2</property>
  <property name="meta.media.1.codec.long_name">MP2 (MPEG audio layer 2)</property>
  <property name="meta.media.1.codec.bit_rate">128000</property>
  <property name="seekable">1</property>
  <property name="meta.media.sample_aspect_num">1</property>
  <property name="meta.media.sample_aspect_den">1</property>
  <property name="aspect_ratio">1</property>
  <property name="audio_index">1</property>
  <property name="video_index">0</property>
  <property name="mute_on_pause">1</property>
  <property name="mlt_service">avformat</property>
  <property name="kdenlive:file_size">66909247</property>
  <property name="kdenlive:file_hash">5cfb15f7255ff498de11ddcb41f6fd82</property>
  <property name="kdenlive:proxy">/home/nicolas/.cache/kdenlive/proxy/5cfb15f7255ff498de11ddcb41f6fd82.mpg</property>
  <property name="proxy_out">1193</property>
  <property name="kdenlive:originalurl">3DSC_0154.MOV</property>
  <property name="global_feed">1</property>
  <property name="kdenlive:meta.media.nb_streams">2</property>
  <property name="kdenlive:meta.media.0.stream.type">video</property>
  <property name="kdenlive:meta.media.0.stream.frame_rate">25</property>
  <property name="kdenlive:meta.media.0.stream.sample_aspect_ratio">0</property>
  <property name="kdenlive:meta.media.0.codec.width">1280</property>
  <property name="kdenlive:meta.media.0.codec.height">720</property>
  <property name="kdenlive:meta.media.0.codec.rotate">0</property>
  <property name="kdenlive:meta.media.0.codec.frame_rate">25</property>
  <property name="kdenlive:meta.media.0.codec.pix_fmt">yuvj420p</property>
  <property name="kdenlive:meta.media.0.codec.sample_aspect_ratio">1</property>
  <property name="kdenlive:meta.media.0.codec.colorspace">601</property>
  <property name="kdenlive:meta.media.0.codec.color_trc">4</property>
  <property name="kdenlive:meta.media.0.codec.name">h264</property>
  <property name="kdenlive:meta.media.0.codec.long_name">H.264 / AVC / MPEG-4 AVC / MPEG-4 part 10</property>
  <property name="kdenlive:meta.media.0.codec.bit_rate">10802574</property>
  <property name="kdenlive:meta.attr.0.stream.creation_time.markup">2017-08-20T18:06:45.000000Z</property>
  <property name="kdenlive:meta.attr.0.stream.language.markup">eng</property>
  <property name="kdenlive:meta.media.1.stream.type">audio</property>
  <property name="kdenlive:meta.media.1.codec.sample_fmt">s16</property>
  <property name="kdenlive:meta.media.1.codec.sample_rate">24000</property>
  <property name="kdenlive:meta.media.1.codec.channels">1</property>
  <property name="kdenlive:meta.media.1.codec.name">pcm_s16le</property>
  <property name="kdenlive:meta.media.1.codec.long_name">PCM signed 16-bit little-endian</property>
  <property name="kdenlive:meta.media.1.codec.bit_rate">384000</property>
  <property name="kdenlive:meta.attr.1.stream.creation_time.markup">2017-08-20T18:06:45.000000Z</property>
  <property name="kdenlive:meta.attr.1.stream.language.markup">eng</property>
  <property name="kdenlive:meta.attr.major_brand.markup">qt  </property>
  <property name="kdenlive:meta.attr.minor_version.markup">537331968</property>
  <property name="kdenlive:meta.attr.compatible_brands.markup">qt  niko</property>
  <property name="kdenlive:meta.attr.creation_time.markup">2017-08-20T18:06:45.000000Z</property>
  <property name="kdenlive:meta.media.sample_aspect_num">1</property>
  <property name="kdenlive:meta.media.sample_aspect_den">1</property>
  <property name="kdenlive:meta.media.frame_rate_num">25</property>
  <property name="kdenlive:meta.media.frame_rate_den">1</property>
  <property name="kdenlive:meta.media.colorspace">601</property>
  <property name="kdenlive:meta.media.color_trc">4</property>
  <property name="kdenlive:meta.media.width">1280</property>
  <property name="kdenlive:meta.media.height">720</property>
  <property name="kdenlive:meta.media.top_field_first">0</property>
  <property name="kdenlive:meta.media.progressive">1</property>
  <property name="xml">was here</property>
  <property name="meta.media.frame_rate_num">25</property>
  <property name="meta.media.frame_rate_den">1</property>
  <property name="meta.media.colorspace">601</property>
  <property name="meta.media.color_trc">2</property>
  <property name="meta.media.width">640</property>
  <property name="meta.media.height">360</property>
  <property name="meta.media.top_field_first">0</property>
  <property name="meta.media.progressive">1</property>
 </producer>
 <producer id="slowmotion:54:1,1:1:0" out="1715" in="0">
  <property name="length">1716</property>
  <property name="eof">pause</property>
  <property name="resource">1,1:/home/nicolas/.cache/kdenlive/proxy/830dc619dcc1658d5bd42e034f6e4fb7.mpg</property>
  <property name="aspect_ratio">1</property>
  <property name="meta.media.nb_streams">2</property>
  <property name="meta.media.0.stream.type">video</property>
  <property name="meta.media.0.stream.frame_rate">25</property>
  <property name="meta.media.0.stream.sample_aspect_ratio">0</property>
  <property name="meta.media.0.codec.width">640</property>
  <property name="meta.media.0.codec.height">360</property>
  <property name="meta.media.0.codec.rotate">0</property>
  <property name="meta.media.0.codec.frame_rate">25</property>
  <property name="meta.media.0.codec.pix_fmt">yuv420p</property>
  <property name="meta.media.0.codec.sample_aspect_ratio">1</property>
  <property name="meta.media.0.codec.colorspace">601</property>
  <property name="meta.media.0.codec.name">mpeg2video</property>
  <property name="meta.media.0.codec.long_name">MPEG-2 video</property>
  <property name="meta.media.0.codec.bit_rate">0</property>
  <property name="meta.media.1.stream.type">audio</property>
  <property name="meta.media.1.codec.sample_fmt">s16p</property>
  <property name="meta.media.1.codec.sample_rate">24000</property>
  <property name="meta.media.1.codec.channels">1</property>
  <property name="meta.media.1.codec.name">mp2</property>
  <property name="meta.media.1.codec.long_name">MP2 (MPEG audio layer 2)</property>
  <property name="meta.media.1.codec.bit_rate">128000</property>
  <property name="seekable">1</property>
  <property name="meta.media.sample_aspect_num">1</property>
  <property name="meta.media.sample_aspect_den">1</property>
  <property name="audio_index">1</property>
  <property name="video_index">0</property>
  <property name="mute_on_pause">1</property>
  <property name="warp_speed">1,1</property>
  <property name="warp_resource">/home/nicolas/.cache/kdenlive/proxy/830dc619dcc1658d5bd42e034f6e4fb7.mpg</property>
  <property name="mlt_service">timewarp</property>
  <property name="kdenlive:proxy">/home/nicolas/.cache/kdenlive/proxy/830dc619dcc1658d5bd42e034f6e4fb7.mpg</property>
  <property name="kdenlive:originalurl">3DSC_0015.MOV</property>
  <property name="meta.media.frame_rate_num">25</property>
  <property name="meta.media.frame_rate_den">1</property>
  <property name="meta.media.colorspace">601</property>
  <property name="meta.media.color_trc">2</property>
  <property name="meta.media.width">640</property>
  <property name="meta.media.height">360</property>
  <property name="meta.media.top_field_first">0</property>
  <property name="meta.media.progressive">1</property>
 </producer>
 <producer id="slowmotion:60:1,5:1:0" out="479" in="0">
  <property name="length">480</property>
  <property name="eof">pause</property>
  <property name="resource">1,5:/home/nicolas/.cache/kdenlive/proxy/92b406fed3c23d991e333b8c2f87afe5.mpg</property>
  <property name="aspect_ratio">1</property>
  <property name="meta.media.nb_streams">2</property>
  <property name="meta.media.0.stream.type">video</property>
  <property name="meta.media.0.stream.frame_rate">25</property>
  <property name="meta.media.0.stream.sample_aspect_ratio">0</property>
  <property name="meta.media.0.codec.width">640</property>
  <property name="meta.media.0.codec.height">360</property>
  <property name="meta.media.0.codec.rotate">0</property>
  <property name="meta.media.0.codec.frame_rate">25</property>
  <property name="meta.media.0.codec.pix_fmt">yuv420p</property>
  <property name="meta.media.0.codec.sample_aspect_ratio">1</property>
  <property name="meta.media.0.codec.colorspace">601</property>
  <property name="meta.media.0.codec.name">mpeg2video</property>
  <property name="meta.media.0.codec.long_name">MPEG-2 video</property>
  <property name="meta.media.0.codec.bit_rate">0</property>
  <property name="meta.media.1.stream.type">audio</property>
  <property name="meta.media.1.codec.sample_fmt">s16p</property>
  <property name="meta.media.1.codec.sample_rate">24000</property>
  <property name="meta.media.1.codec.channels">1</property>
  <property name="meta.media.1.codec.name">mp2</property>
  <property name="meta.media.1.codec.long_name">MP2 (MPEG audio layer 2)</property>
  <property name="meta.media.1.codec.bit_rate">128000</property>
  <property name="seekable">1</property>
  <property name="meta.media.sample_aspect_num">1</property>
  <property name="meta.media.sample_aspect_den">1</property>
  <property name="audio_index">1</property>
  <property name="video_index">0</property>
  <property name="mute_on_pause">1</property>
  <property name="warp_speed">1,5</property>
  <property name="warp_resource">/home/nicolas/.cache/kdenlive/proxy/92b406fed3c23d991e333b8c2f87afe5.mpg</property>
  <property name="mlt_service">timewarp</property>
  <property name="kdenlive:proxy">/home/nicolas/.cache/kdenlive/proxy/92b406fed3c23d991e333b8c2f87afe5.mpg</property>
  <property name="kdenlive:originalurl">3DSC_0024.MOV</property>
  <property name="meta.media.frame_rate_num">25</property>
  <property name="meta.media.frame_rate_den">1</property>
  <property name="meta.media.colorspace">601</property>
  <property name="meta.media.color_trc">2</property>
  <property name="meta.media.width">640</property>
  <property name="meta.media.height">360</property>
  <property name="meta.media.top_field_first">0</property>
  <property name="meta.media.progressive">1</property>
 </producer>
 <producer id="slowmotion:60:1,8:1:0" out="399" in="0">
  <property name="length">400</property>
  <property name="eof">pause</property>
  <property name="resource">1,8:/home/nicolas/.cache/kdenlive/proxy/92b406fed3c23d991e333b8c2f87afe5.mpg</property>
  <property name="aspect_ratio">1</property>
  <property name="meta.media.nb_streams">2</property>
  <property name="meta.media.0.stream.type">video</property>
  <property name="meta.media.0.stream.frame_rate">25</property>
  <property name="meta.media.0.stream.sample_aspect_ratio">0</property>
  <property name="meta.media.0.codec.width">640</property>
  <property name="meta.media.0.codec.height">360</property>
  <property name="meta.media.0.codec.rotate">0</property>
  <property name="meta.media.0.codec.frame_rate">25</property>
  <property name="meta.media.0.codec.pix_fmt">yuv420p</property>
  <property name="meta.media.0.codec.sample_aspect_ratio">1</property>
  <property name="meta.media.0.codec.colorspace">601</property>
  <property name="meta.media.0.codec.name">mpeg2video</property>
  <property name="meta.media.0.codec.long_name">MPEG-2 video</property>
  <property name="meta.media.0.codec.bit_rate">0</property>
  <property name="meta.media.1.stream.type">audio</property>
  <property name="meta.media.1.codec.sample_fmt">s16p</property>
  <property name="meta.media.1.codec.sample_rate">24000</property>
  <property name="meta.media.1.codec.channels">1</property>
  <property name="meta.media.1.codec.name">mp2</property>
  <property name="meta.media.1.codec.long_name">MP2 (MPEG audio layer 2)</property>
  <property name="meta.media.1.codec.bit_rate">128000</property>
  <property name="seekable">1</property>
  <property name="meta.media.sample_aspect_num">1</property>
  <property name="meta.media.sample_aspect_den">1</property>
  <property name="audio_index">1</property>
  <property name="video_index">0</property>
  <property name="mute_on_pause">1</property>
  <property name="warp_speed">1,8</property>
  <property name="warp_resource">/home/nicolas/.cache/kdenlive/proxy/92b406fed3c23d991e333b8c2f87afe5.mpg</property>
  <property name="mlt_service">timewarp</property>
  <property name="kdenlive:proxy">/home/nicolas/.cache/kdenlive/proxy/92b406fed3c23d991e333b8c2f87afe5.mpg</property>
  <property name="kdenlive:originalurl">3DSC_0024.MOV</property>
  <property name="meta.media.frame_rate_num">25</property>
  <property name="meta.media.frame_rate_den">1</property>
  <property name="meta.media.colorspace">601</property>
  <property name="meta.media.color_trc">2</property>
  <property name="meta.media.width">640</property>
  <property name="meta.media.height">360</property>
  <property name="meta.media.top_field_first">0</property>
  <property name="meta.media.progressive">1</property>
 </producer>
 <producer id="slowmotion:62:0,09:1:0" out="44004" in="0">
  <property name="length">44005</property>
  <property name="eof">pause</property>
  <property name="resource">0,09:/home/nicolas/.cache/kdenlive/proxy/eec355bebd3342f9520c78c362757f30.mpg</property>
  <property name="aspect_ratio">1</property>
  <property name="meta.media.nb_streams">2</property>
  <property name="meta.media.0.stream.type">video</property>
  <property name="meta.media.0.stream.frame_rate">25</property>
  <property name="meta.media.0.stream.sample_aspect_ratio">0</property>
  <property name="meta.media.0.codec.width">640</property>
  <property name="meta.media.0.codec.height">360</property>
  <property name="meta.media.0.codec.rotate">0</property>
  <property name="meta.media.0.codec.frame_rate">25</property>
  <property name="meta.media.0.codec.pix_fmt">yuv420p</property>
  <property name="meta.media.0.codec.sample_aspect_ratio">1</property>
  <property name="meta.media.0.codec.colorspace">601</property>
  <property name="meta.media.0.codec.name">mpeg2video</property>
  <property name="meta.media.0.codec.long_name">MPEG-2 video</property>
  <property name="meta.media.0.codec.bit_rate">0</property>
  <property name="meta.media.1.stream.type">audio</property>
  <property name="meta.media.1.codec.sample_fmt">s16p</property>
  <property name="meta.media.1.codec.sample_rate">24000</property>
  <property name="meta.media.1.codec.channels">1</property>
  <property name="meta.media.1.codec.name">mp2</property>
  <property name="meta.media.1.codec.long_name">MP2 (MPEG audio layer 2)</property>
  <property name="meta.media.1.codec.bit_rate">128000</property>
  <property name="seekable">1</property>
  <property name="meta.media.sample_aspect_num">1</property>
  <property name="meta.media.sample_aspect_den">1</property>
  <property name="audio_index">1</property>
  <property name="video_index">0</property>
  <property name="mute_on_pause">1</property>
  <property name="warp_speed">0,09</property>
  <property name="warp_resource">/home/nicolas/.cache/kdenlive/proxy/eec355bebd3342f9520c78c362757f30.mpg</property>
  <property name="mlt_service">timewarp</property>
  <property name="kdenlive:proxy">/home/nicolas/.cache/kdenlive/proxy/eec355bebd3342f9520c78c362757f30.mpg</property>
  <property name="kdenlive:originalurl">3DSC_0029.MOV</property>
  <property name="meta.media.frame_rate_num">25</property>
  <property name="meta.media.frame_rate_den">1</property>
  <property name="meta.media.colorspace">601</property>
  <property name="meta.media.color_trc">2</property>
  <property name="meta.media.width">640</property>
  <property name="meta.media.height">360</property>
  <property name="meta.media.top_field_first">0</property>
  <property name="meta.media.progressive">1</property>
 </producer>
 <producer id="slowmotion:62:1,5:1:0" out="2639" in="0">
  <property name="length">2640</property>
  <property name="eof">pause</property>
  <property name="resource">1,5:/home/nicolas/.cache/kdenlive/proxy/eec355bebd3342f9520c78c362757f30.mpg</property>
  <property name="aspect_ratio">1</property>
  <property name="meta.media.nb_streams">2</property>
  <property name="meta.media.0.stream.type">video</property>
  <property name="meta.media.0.stream.frame_rate">25</property>
  <property name="meta.media.0.stream.sample_aspect_ratio">0</property>
  <property name="meta.media.0.codec.width">640</property>
  <property name="meta.media.0.codec.height">360</property>
  <property name="meta.media.0.codec.rotate">0</property>
  <property name="meta.media.0.codec.frame_rate">25</property>
  <property name="meta.media.0.codec.pix_fmt">yuv420p</property>
  <property name="meta.media.0.codec.sample_aspect_ratio">1</property>
  <property name="meta.media.0.codec.colorspace">601</property>
  <property name="meta.media.0.codec.name">mpeg2video</property>
  <property name="meta.media.0.codec.long_name">MPEG-2 video</property>
  <property name="meta.media.0.codec.bit_rate">0</property>
  <property name="meta.media.1.stream.type">audio</property>
  <property name="meta.media.1.codec.sample_fmt">s16p</property>
  <property name="meta.media.1.codec.sample_rate">24000</property>
  <property name="meta.media.1.codec.channels">1</property>
  <property name="meta.media.1.codec.name">mp2</property>
  <property name="meta.media.1.codec.long_name">MP2 (MPEG audio layer 2)</property>
  <property name="meta.media.1.codec.bit_rate">128000</property>
  <property name="seekable">1</property>
  <property name="meta.media.sample_aspect_num">1</property>
  <property name="meta.media.sample_aspect_den">1</property>
  <property name="audio_index">1</property>
  <property name="video_index">0</property>
  <property name="mute_on_pause">1</property>
  <property name="warp_speed">1,5</property>
  <property name="warp_resource">/home/nicolas/.cache/kdenlive/proxy/eec355bebd3342f9520c78c362757f30.mpg</property>
  <property name="mlt_service">timewarp</property>
  <property name="kdenlive:proxy">/home/nicolas/.cache/kdenlive/proxy/eec355bebd3342f9520c78c362757f30.mpg</property>
  <property name="kdenlive:originalurl">3DSC_0029.MOV</property>
  <property name="meta.media.frame_rate_num">25</property>
  <property name="meta.media.frame_rate_den">1</property>
  <property name="meta.media.colorspace">601</property>
  <property name="meta.media.color_trc">2</property>
  <property name="meta.media.width">640</property>
  <property name="meta.media.height">360</property>
  <property name="meta.media.top_field_first">0</property>
  <property name="meta.media.progressive">1</property>
 </producer>
 <producer id="slowmotion:62:1,8:1:0" out="2199" in="0">
  <property name="length">2200</property>
  <property name="eof">pause</property>
  <property name="resource">1,8:/home/nicolas/.cache/kdenlive/proxy/eec355bebd3342f9520c78c362757f30.mpg</property>
  <property name="aspect_ratio">1</property>
  <property name="meta.media.nb_streams">2</property>
  <property name="meta.media.0.stream.type">video</property>
  <property name="meta.media.0.stream.frame_rate">25</property>
  <property name="meta.media.0.stream.sample_aspect_ratio">0</property>
  <property name="meta.media.0.codec.width">640</property>
  <property name="meta.media.0.codec.height">360</property>
  <property name="meta.media.0.codec.rotate">0</property>
  <property name="meta.media.0.codec.frame_rate">25</property>
  <property name="meta.media.0.codec.pix_fmt">yuv420p</property>
  <property name="meta.media.0.codec.sample_aspect_ratio">1</property>
  <property name="meta.media.0.codec.colorspace">601</property>
  <property name="meta.media.0.codec.name">mpeg2video</property>
  <property name="meta.media.0.codec.long_name">MPEG-2 video</property>
  <property name="meta.media.0.codec.bit_rate">0</property>
  <property name="meta.media.1.stream.type">audio</property>
  <property name="meta.media.1.codec.sample_fmt">s16p</property>
  <property name="meta.media.1.codec.sample_rate">24000</property>
  <property name="meta.media.1.codec.channels">1</property>
  <property name="meta.media.1.codec.name">mp2</property>
  <property name="meta.media.1.codec.long_name">MP2 (MPEG audio layer 2)</property>
  <property name="meta.media.1.codec.bit_rate">128000</property>
  <property name="seekable">1</property>
  <property name="meta.media.sample_aspect_num">1</property>
  <property name="meta.media.sample_aspect_den">1</property>
  <property name="audio_index">1</property>
  <property name="video_index">0</property>
  <property name="mute_on_pause">1</property>
  <property name="warp_speed">1,8</property>
  <property name="warp_resource">/home/nicolas/.cache/kdenlive/proxy/eec355bebd3342f9520c78c362757f30.mpg</property>
  <property name="mlt_service">timewarp</property>
  <property name="kdenlive:proxy">/home/nicolas/.cache/kdenlive/proxy/eec355bebd3342f9520c78c362757f30.mpg</property>
  <property name="kdenlive:originalurl">3DSC_0029.MOV</property>
  <property name="meta.media.frame_rate_num">25</property>
  <property name="meta.media.frame_rate_den">1</property>
  <property name="meta.media.colorspace">601</property>
  <property name="meta.media.color_trc">2</property>
  <property name="meta.media.width">640</property>
  <property name="meta.media.height">360</property>
  <property name="meta.media.top_field_first">0</property>
  <property name="meta.media.progressive">1</property>
 </producer>
 <producer id="slowmotion:62:1,35:1:0" out="2933" in="0">
  <property name="length">2934</property>
  <property name="eof">pause</property>
  <property name="resource">1,35:/home/nicolas/.cache/kdenlive/proxy/eec355bebd3342f9520c78c362757f30.mpg</property>
  <property name="aspect_ratio">1</property>
  <property name="meta.media.nb_streams">2</property>
  <property name="meta.media.0.stream.type">video</property>
  <property name="meta.media.0.stream.frame_rate">25</property>
  <property name="meta.media.0.stream.sample_aspect_ratio">0</property>
  <property name="meta.media.0.codec.width">640</property>
  <property name="meta.media.0.codec.height">360</property>
  <property name="meta.media.0.codec.rotate">0</property>
  <property name="meta.media.0.codec.frame_rate">25</property>
  <property name="meta.media.0.codec.pix_fmt">yuv420p</property>
  <property name="meta.media.0.codec.sample_aspect_ratio">1</property>
  <property name="meta.media.0.codec.colorspace">601</property>
  <property name="meta.media.0.codec.name">mpeg2video</property>
  <property name="meta.media.0.codec.long_name">MPEG-2 video</property>
  <property name="meta.media.0.codec.bit_rate">0</property>
  <property name="meta.media.1.stream.type">audio</property>
  <property name="meta.media.1.codec.sample_fmt">s16p</property>
  <property name="meta.media.1.codec.sample_rate">24000</property>
  <property name="meta.media.1.codec.channels">1</property>
  <property name="meta.media.1.codec.name">mp2</property>
  <property name="meta.media.1.codec.long_name">MP2 (MPEG audio layer 2)</property>
  <property name="meta.media.1.codec.bit_rate">128000</property>
  <property name="seekable">1</property>
  <property name="meta.media.sample_aspect_num">1</property>
  <property name="meta.media.sample_aspect_den">1</property>
  <property name="audio_index">1</property>
  <property name="video_index">0</property>
  <property name="mute_on_pause">1</property>
  <property name="warp_speed">1,35</property>
  <property name="warp_resource">/home/nicolas/.cache/kdenlive/proxy/eec355bebd3342f9520c78c362757f30.mpg</property>
  <property name="mlt_service">timewarp</property>
  <property name="kdenlive:proxy">/home/nicolas/.cache/kdenlive/proxy/eec355bebd3342f9520c78c362757f30.mpg</property>
  <property name="kdenlive:originalurl">3DSC_0029.MOV</property>
  <property name="meta.media.frame_rate_num">25</property>
  <property name="meta.media.frame_rate_den">1</property>
  <property name="meta.media.colorspace">601</property>
  <property name="meta.media.color_trc">2</property>
  <property name="meta.media.width">640</property>
  <property name="meta.media.height">360</property>
  <property name="meta.media.top_field_first">0</property>
  <property name="meta.media.progressive">1</property>
 </producer>
 <producer id="64_playlist3" title="Anonymous Submission" out="386" in="0">
  <property name="length">00:00:15:12</property>
  <property name="eof">pause</property>
  <property name="resource">/home/nicolas/.cache/kdenlive/proxy/9a46969659ef0788313fde1b003b44b6.mpg</property>
  <property name="meta.media.nb_streams">2</property>
  <property name="meta.media.0.stream.type">video</property>
  <property name="meta.media.0.stream.frame_rate">25</property>
  <property name="meta.media.0.stream.sample_aspect_ratio">0</property>
  <property name="meta.media.0.codec.width">640</property>
  <property name="meta.media.0.codec.height">360</property>
  <property name="meta.media.0.codec.rotate">0</property>
  <property name="meta.media.0.codec.frame_rate">25</property>
  <property name="meta.media.0.codec.pix_fmt">yuv420p</property>
  <property name="meta.media.0.codec.sample_aspect_ratio">1</property>
  <property name="meta.media.0.codec.colorspace">601</property>
  <property name="meta.media.0.codec.name">mpeg2video</property>
  <property name="meta.media.0.codec.long_name">MPEG-2 video</property>
  <property name="meta.media.0.codec.bit_rate">0</property>
  <property name="meta.media.1.stream.type">audio</property>
  <property name="meta.media.1.codec.sample_fmt">s16p</property>
  <property name="meta.media.1.codec.sample_rate">24000</property>
  <property name="meta.media.1.codec.channels">1</property>
  <property name="meta.media.1.codec.name">mp2</property>
  <property name="meta.media.1.codec.long_name">MP2 (MPEG audio layer 2)</property>
  <property name="meta.media.1.codec.bit_rate">128000</property>
  <property name="seekable">1</property>
  <property name="meta.media.sample_aspect_num">1</property>
  <property name="meta.media.sample_aspect_den">1</property>
  <property name="aspect_ratio">1</property>
  <property name="audio_index">1</property>
  <property name="video_index">0</property>
  <property name="mute_on_pause">1</property>
  <property name="mlt_service">avformat</property>
  <property name="kdenlive:file_size">21053601</property>
  <property name="kdenlive:file_hash">9a46969659ef0788313fde1b003b44b6</property>
  <property name="kdenlive:proxy">/home/nicolas/.cache/kdenlive/proxy/9a46969659ef0788313fde1b003b44b6.mpg</property>
  <property name="proxy_out">386</property>
  <property name="kdenlive:originalurl">3DSC_0039.MOV</property>
  <property name="global_feed">1</property>
  <property name="kdenlive:meta.media.nb_streams">2</property>
  <property name="kdenlive:meta.media.0.stream.type">video</property>
  <property name="kdenlive:meta.media.0.stream.frame_rate">25</property>
  <property name="kdenlive:meta.media.0.stream.sample_aspect_ratio">0</property>
  <property name="kdenlive:meta.media.0.codec.width">1280</property>
  <property name="kdenlive:meta.media.0.codec.height">720</property>
  <property name="kdenlive:meta.media.0.codec.rotate">0</property>
  <property name="kdenlive:meta.media.0.codec.frame_rate">25</property>
  <property name="kdenlive:meta.media.0.codec.pix_fmt">yuvj420p</property>
  <property name="kdenlive:meta.media.0.codec.sample_aspect_ratio">1</property>
  <property name="kdenlive:meta.media.0.codec.colorspace">601</property>
  <property name="kdenlive:meta.media.0.codec.color_trc">4</property>
  <property name="kdenlive:meta.media.0.codec.name">h264</property>
  <property name="kdenlive:meta.media.0.codec.long_name">H.264 / AVC / MPEG-4 AVC / MPEG-4 part 10</property>
  <property name="kdenlive:meta.media.0.codec.bit_rate">10434787</property>
  <property name="kdenlive:meta.attr.0.stream.creation_time.markup">2017-08-20T10:39:09.000000Z</property>
  <property name="kdenlive:meta.attr.0.stream.language.markup">eng</property>
  <property name="kdenlive:meta.media.1.stream.type">audio</property>
  <property name="kdenlive:meta.media.1.codec.sample_fmt">s16</property>
  <property name="kdenlive:meta.media.1.codec.sample_rate">24000</property>
  <property name="kdenlive:meta.media.1.codec.channels">1</property>
  <property name="kdenlive:meta.media.1.codec.name">pcm_s16le</property>
  <property name="kdenlive:meta.media.1.codec.long_name">PCM signed 16-bit little-endian</property>
  <property name="kdenlive:meta.media.1.codec.bit_rate">384000</property>
  <property name="kdenlive:meta.attr.1.stream.creation_time.markup">2017-08-20T10:39:09.000000Z</property>
  <property name="kdenlive:meta.attr.1.stream.language.markup">eng</property>
  <property name="kdenlive:meta.attr.major_brand.markup">qt  </property>
  <property name="kdenlive:meta.attr.minor_version.markup">537331968</property>
  <property name="kdenlive:meta.attr.compatible_brands.markup">qt  niko</property>
  <property name="kdenlive:meta.attr.creation_time.markup">2017-08-20T10:39:09.000000Z</property>
  <property name="kdenlive:meta.media.sample_aspect_num">1</property>
  <property name="kdenlive:meta.media.sample_aspect_den">1</property>
  <property name="kdenlive:meta.media.frame_rate_num">25</property>
  <property name="kdenlive:meta.media.frame_rate_den">1</property>
  <property name="kdenlive:meta.media.colorspace">601</property>
  <property name="kdenlive:meta.media.color_trc">4</property>
  <property name="kdenlive:meta.media.width">1280</property>
  <property name="kdenlive:meta.media.height">720</property>
  <property name="kdenlive:meta.media.top_field_first">0</property>
  <property name="kdenlive:meta.media.progressive">1</property>
  <property name="xml">was here</property>
  <property name="meta.media.frame_rate_num">25</property>
  <property name="meta.media.frame_rate_den">1</property>
  <property name="meta.media.colorspace">601</property>
  <property name="meta.media.color_trc">2</property>
  <property name="meta.media.width">640</property>
  <property name="meta.media.height">360</property>
  <property name="meta.media.top_field_first">0</property>
  <property name="meta.media.progressive">1</property>
 </producer>
 <producer id="21_playlist3" title="Anonymous Submission" out="521" in="0">
  <property name="length">00:00:20:22</property>
  <property name="eof">pause</property>
  <property name="resource">/home/nicolas/.cache/kdenlive/proxy/2a6457e600b6088f152cb2ca1912a5a9.mpg</property>
  <property name="meta.media.nb_streams">2</property>
  <property name="meta.media.0.stream.type">video</property>
  <property name="meta.media.0.stream.frame_rate">25</property>
  <property name="meta.media.0.stream.sample_aspect_ratio">0</property>
  <property name="meta.media.0.codec.width">640</property>
  <property name="meta.media.0.codec.height">360</property>
  <property name="meta.media.0.codec.rotate">0</property>
  <property name="meta.media.0.codec.frame_rate">25</property>
  <property name="meta.media.0.codec.pix_fmt">yuv420p</property>
  <property name="meta.media.0.codec.sample_aspect_ratio">1</property>
  <property name="meta.media.0.codec.colorspace">601</property>
  <property name="meta.media.0.codec.name">mpeg2video</property>
  <property name="meta.media.0.codec.long_name">MPEG-2 video</property>
  <property name="meta.media.0.codec.bit_rate">0</property>
  <property name="meta.media.1.stream.type">audio</property>
  <property name="meta.media.1.codec.sample_fmt">s16p</property>
  <property name="meta.media.1.codec.sample_rate">24000</property>
  <property name="meta.media.1.codec.channels">1</property>
  <property name="meta.media.1.codec.name">mp2</property>
  <property name="meta.media.1.codec.long_name">MP2 (MPEG audio layer 2)</property>
  <property name="meta.media.1.codec.bit_rate">128000</property>
  <property name="seekable">1</property>
  <property name="meta.media.sample_aspect_num">1</property>
  <property name="meta.media.sample_aspect_den">1</property>
  <property name="aspect_ratio">1</property>
  <property name="audio_index">1</property>
  <property name="video_index">0</property>
  <property name="mute_on_pause">1</property>
  <property name="mlt_service">avformat</property>
  <property name="kdenlive:file_size">28639646</property>
  <property name="kdenlive:file_hash">2a6457e600b6088f152cb2ca1912a5a9</property>
  <property name="kdenlive:proxy">/home/nicolas/.cache/kdenlive/proxy/2a6457e600b6088f152cb2ca1912a5a9.mpg</property>
  <property name="proxy_out">521</property>
  <property name="kdenlive:originalurl">3DSC_0044.MOV</property>
  <property name="global_feed">1</property>
  <property name="kdenlive:meta.media.nb_streams">2</property>
  <property name="kdenlive:meta.media.0.stream.type">video</property>
  <property name="kdenlive:meta.media.0.stream.frame_rate">25</property>
  <property name="kdenlive:meta.media.0.stream.sample_aspect_ratio">0</property>
  <property name="kdenlive:meta.media.0.codec.width">1280</property>
  <property name="kdenlive:meta.media.0.codec.height">720</property>
  <property name="kdenlive:meta.media.0.codec.rotate">0</property>
  <property name="kdenlive:meta.media.0.codec.frame_rate">25</property>
  <property name="kdenlive:meta.media.0.codec.pix_fmt">yuvj420p</property>
  <property name="kdenlive:meta.media.0.codec.sample_aspect_ratio">1</property>
  <property name="kdenlive:meta.media.0.codec.colorspace">601</property>
  <property name="kdenlive:meta.media.0.codec.color_trc">4</property>
  <property name="kdenlive:meta.media.0.codec.name">h264</property>
  <property name="kdenlive:meta.media.0.codec.long_name">H.264 / AVC / MPEG-4 AVC / MPEG-4 part 10</property>
  <property name="kdenlive:meta.media.0.codec.bit_rate">10542727</property>
  <property name="kdenlive:meta.attr.0.stream.creation_time.markup">2017-08-20T11:05:22.000000Z</property>
  <property name="kdenlive:meta.attr.0.stream.language.markup">eng</property>
  <property name="kdenlive:meta.media.1.stream.type">audio</property>
  <property name="kdenlive:meta.media.1.codec.sample_fmt">s16</property>
  <property name="kdenlive:meta.media.1.codec.sample_rate">24000</property>
  <property name="kdenlive:meta.media.1.codec.channels">1</property>
  <property name="kdenlive:meta.media.1.codec.name">pcm_s16le</property>
  <property name="kdenlive:meta.media.1.codec.long_name">PCM signed 16-bit little-endian</property>
  <property name="kdenlive:meta.media.1.codec.bit_rate">384000</property>
  <property name="kdenlive:meta.attr.1.stream.creation_time.markup">2017-08-20T11:05:22.000000Z</property>
  <property name="kdenlive:meta.attr.1.stream.language.markup">eng</property>
  <property name="kdenlive:meta.attr.major_brand.markup">qt  </property>
  <property name="kdenlive:meta.attr.minor_version.markup">537331968</property>
  <property name="kdenlive:meta.attr.compatible_brands.markup">qt  niko</property>
  <property name="kdenlive:meta.attr.creation_time.markup">2017-08-20T11:05:22.000000Z</property>
  <property name="kdenlive:meta.media.sample_aspect_num">1</property>
  <property name="kdenlive:meta.media.sample_aspect_den">1</property>
  <property name="kdenlive:meta.media.frame_rate_num">25</property>
  <property name="kdenlive:meta.media.frame_rate_den">1</property>
  <property name="kdenlive:meta.media.colorspace">601</property>
  <property name="kdenlive:meta.media.color_trc">4</property>
  <property name="kdenlive:meta.media.width">1280</property>
  <property name="kdenlive:meta.media.height">720</property>
  <property name="kdenlive:meta.media.top_field_first">0</property>
  <property name="kdenlive:meta.media.progressive">1</property>
  <property name="xml">was here</property>
  <property name="meta.media.frame_rate_num">25</property>
  <property name="meta.media.frame_rate_den">1</property>
  <property name="meta.media.colorspace">601</property>
  <property name="meta.media.color_trc">2</property>
  <property name="meta.media.width">640</property>
  <property name="meta.media.height">360</property>
  <property name="meta.media.top_field_first">0</property>
  <property name="meta.media.progressive">1</property>
 </producer>
 <producer id="79_playlist3" title="Anonymous Submission" out="353" in="0">
  <property name="length">00:00:14:04</property>
  <property name="eof">pause</property>
  <property name="resource">/home/nicolas/.cache/kdenlive/proxy/1bba7502d68066b108b4202a53c99df5.mpg</property>
  <property name="meta.media.nb_streams">2</property>
  <property name="meta.media.0.stream.type">video</property>
  <property name="meta.media.0.stream.frame_rate">25</property>
  <property name="meta.media.0.stream.sample_aspect_ratio">0</property>
  <property name="meta.media.0.codec.width">640</property>
  <property name="meta.media.0.codec.height">360</property>
  <property name="meta.media.0.codec.rotate">0</property>
  <property name="meta.media.0.codec.frame_rate">25</property>
  <property name="meta.media.0.codec.pix_fmt">yuv420p</property>
  <property name="meta.media.0.codec.sample_aspect_ratio">1</property>
  <property name="meta.media.0.codec.colorspace">601</property>
  <property name="meta.media.0.codec.name">mpeg2video</property>
  <property name="meta.media.0.codec.long_name">MPEG-2 video</property>
  <property name="meta.media.0.codec.bit_rate">0</property>
  <property name="meta.media.1.stream.type">audio</property>
  <property name="meta.media.1.codec.sample_fmt">s16p</property>
  <property name="meta.media.1.codec.sample_rate">24000</property>
  <property name="meta.media.1.codec.channels">1</property>
  <property name="meta.media.1.codec.name">mp2</property>
  <property name="meta.media.1.codec.long_name">MP2 (MPEG audio layer 2)</property>
  <property name="meta.media.1.codec.bit_rate">128000</property>
  <property name="seekable">1</property>
  <property name="meta.media.sample_aspect_num">1</property>
  <property name="meta.media.sample_aspect_den">1</property>
  <property name="aspect_ratio">1</property>
  <property name="audio_index">1</property>
  <property name="video_index">0</property>
  <property name="mute_on_pause">1</property>
  <property name="mlt_service">avformat</property>
  <property name="kdenlive:file_size">19708511</property>
  <property name="kdenlive:file_hash">1bba7502d68066b108b4202a53c99df5</property>
  <property name="kdenlive:proxy">/home/nicolas/.cache/kdenlive/proxy/1bba7502d68066b108b4202a53c99df5.mpg</property>
  <property name="proxy_out">353</property>
  <property name="kdenlive:originalurl">3DSC_0131.MOV</property>
  <property name="global_feed">1</property>
  <property name="kdenlive:meta.media.nb_streams">2</property>
  <property name="kdenlive:meta.media.0.stream.type">video</property>
  <property name="kdenlive:meta.media.0.stream.frame_rate">25</property>
  <property name="kdenlive:meta.media.0.stream.sample_aspect_ratio">0</property>
  <property name="kdenlive:meta.media.0.codec.width">1280</property>
  <property name="kdenlive:meta.media.0.codec.height">720</property>
  <property name="kdenlive:meta.media.0.codec.rotate">0</property>
  <property name="kdenlive:meta.media.0.codec.frame_rate">25</property>
  <property name="kdenlive:meta.media.0.codec.pix_fmt">yuvj420p</property>
  <property name="kdenlive:meta.media.0.codec.sample_aspect_ratio">1</property>
  <property name="kdenlive:meta.media.0.codec.colorspace">601</property>
  <property name="kdenlive:meta.media.0.codec.color_trc">4</property>
  <property name="kdenlive:meta.media.0.codec.name">h264</property>
  <property name="kdenlive:meta.media.0.codec.long_name">H.264 / AVC / MPEG-4 AVC / MPEG-4 part 10</property>
  <property name="kdenlive:meta.media.0.codec.bit_rate">10684645</property>
  <property name="kdenlive:meta.attr.0.stream.creation_time.markup">2017-08-20T17:29:42.000000Z</property>
  <property name="kdenlive:meta.attr.0.stream.language.markup">eng</property>
  <property name="kdenlive:meta.media.1.stream.type">audio</property>
  <property name="kdenlive:meta.media.1.codec.sample_fmt">s16</property>
  <property name="kdenlive:meta.media.1.codec.sample_rate">24000</property>
  <property name="kdenlive:meta.media.1.codec.channels">1</property>
  <property name="kdenlive:meta.media.1.codec.name">pcm_s16le</property>
  <property name="kdenlive:meta.media.1.codec.long_name">PCM signed 16-bit little-endian</property>
  <property name="kdenlive:meta.media.1.codec.bit_rate">384000</property>
  <property name="kdenlive:meta.attr.1.stream.creation_time.markup">2017-08-20T17:29:42.000000Z</property>
  <property name="kdenlive:meta.attr.1.stream.language.markup">eng</property>
  <property name="kdenlive:meta.attr.major_brand.markup">qt  </property>
  <property name="kdenlive:meta.attr.minor_version.markup">537331968</property>
  <property name="kdenlive:meta.attr.compatible_brands.markup">qt  niko</property>
  <property name="kdenlive:meta.attr.creation_time.markup">2017-08-20T17:29:42.000000Z</property>
  <property name="kdenlive:meta.media.sample_aspect_num">1</property>
  <property name="kdenlive:meta.media.sample_aspect_den">1</property>
  <property name="kdenlive:meta.media.frame_rate_num">25</property>
  <property name="kdenlive:meta.media.frame_rate_den">1</property>
  <property name="kdenlive:meta.media.colorspace">601</property>
  <property name="kdenlive:meta.media.color_trc">4</property>
  <property name="kdenlive:meta.media.width">1280</property>
  <property name="kdenlive:meta.media.height">720</property>
  <property name="kdenlive:meta.media.top_field_first">0</property>
  <property name="kdenlive:meta.media.progressive">1</property>
  <property name="xml">was here</property>
  <property name="meta.media.frame_rate_num">25</property>
  <property name="meta.media.frame_rate_den">1</property>
  <property name="meta.media.colorspace">601</property>
  <property name="meta.media.color_trc">2</property>
  <property name="meta.media.width">640</property>
  <property name="meta.media.height">360</property>
  <property name="meta.media.top_field_first">0</property>
  <property name="meta.media.progressive">1</property>
 </producer>
 <producer id="70_playlist3" title="Anonymous Submission" out="1586" in="0">
  <property name="length">00:01:03:12</property>
  <property name="eof">pause</property>
  <property name="resource">/home/nicolas/.cache/kdenlive/proxy/013a9c24c87c3603a1d2aa15630942be.mpg</property>
  <property name="meta.media.nb_streams">2</property>
  <property name="meta.media.0.stream.type">video</property>
  <property name="meta.media.0.stream.frame_rate">25</property>
  <property name="meta.media.0.stream.sample_aspect_ratio">0</property>
  <property name="meta.media.0.codec.width">640</property>
  <property name="meta.media.0.codec.height">360</property>
  <property name="meta.media.0.codec.rotate">0</property>
  <property name="meta.media.0.codec.frame_rate">25</property>
  <property name="meta.media.0.codec.pix_fmt">yuv420p</property>
  <property name="meta.media.0.codec.sample_aspect_ratio">1</property>
  <property name="meta.media.0.codec.colorspace">601</property>
  <property name="meta.media.0.codec.name">mpeg2video</property>
  <property name="meta.media.0.codec.long_name">MPEG-2 video</property>
  <property name="meta.media.0.codec.bit_rate">0</property>
  <property name="meta.media.1.stream.type">audio</property>
  <property name="meta.media.1.codec.sample_fmt">s16p</property>
  <property name="meta.media.1.codec.sample_rate">24000</property>
  <property name="meta.media.1.codec.channels">1</property>
  <property name="meta.media.1.codec.name">mp2</property>
  <property name="meta.media.1.codec.long_name">MP2 (MPEG audio layer 2)</property>
  <property name="meta.media.1.codec.bit_rate">128000</property>
  <property name="seekable">1</property>
  <property name="meta.media.sample_aspect_num">1</property>
  <property name="meta.media.sample_aspect_den">1</property>
  <property name="aspect_ratio">1</property>
  <property name="audio_index">1</property>
  <property name="video_index">0</property>
  <property name="mute_on_pause">1</property>
  <property name="mlt_service">avformat</property>
  <property name="kdenlive:file_size">87363454</property>
  <property name="kdenlive:file_hash">013a9c24c87c3603a1d2aa15630942be</property>
  <property name="kdenlive:proxy">/home/nicolas/.cache/kdenlive/proxy/013a9c24c87c3603a1d2aa15630942be.mpg</property>
  <property name="proxy_out">1586</property>
  <property name="kdenlive:originalurl">3DSC_0120.MOV</property>
  <property name="global_feed">1</property>
  <property name="kdenlive:meta.media.nb_streams">2</property>
  <property name="kdenlive:meta.media.0.stream.type">video</property>
  <property name="kdenlive:meta.media.0.stream.frame_rate">25</property>
  <property name="kdenlive:meta.media.0.stream.sample_aspect_ratio">0</property>
  <property name="kdenlive:meta.media.0.codec.width">1280</property>
  <property name="kdenlive:meta.media.0.codec.height">720</property>
  <property name="kdenlive:meta.media.0.codec.rotate">0</property>
  <property name="kdenlive:meta.media.0.codec.frame_rate">25</property>
  <property name="kdenlive:meta.media.0.codec.pix_fmt">yuvj420p</property>
  <property name="kdenlive:meta.media.0.codec.sample_aspect_ratio">1</property>
  <property name="kdenlive:meta.media.0.codec.colorspace">601</property>
  <property name="kdenlive:meta.media.0.codec.color_trc">4</property>
  <property name="kdenlive:meta.media.0.codec.name">h264</property>
  <property name="kdenlive:meta.media.0.codec.long_name">H.264 / AVC / MPEG-4 AVC / MPEG-4 part 10</property>
  <property name="kdenlive:meta.media.0.codec.bit_rate">10609127</property>
  <property name="kdenlive:meta.attr.0.stream.creation_time.markup">2017-08-20T16:41:12.000000Z</property>
  <property name="kdenlive:meta.attr.0.stream.language.markup">eng</property>
  <property name="kdenlive:meta.media.1.stream.type">audio</property>
  <property name="kdenlive:meta.media.1.codec.sample_fmt">s16</property>
  <property name="kdenlive:meta.media.1.codec.sample_rate">24000</property>
  <property name="kdenlive:meta.media.1.codec.channels">1</property>
  <property name="kdenlive:meta.media.1.codec.name">pcm_s16le</property>
  <property name="kdenlive:meta.media.1.codec.long_name">PCM signed 16-bit little-endian</property>
  <property name="kdenlive:meta.media.1.codec.bit_rate">384000</property>
  <property name="kdenlive:meta.attr.1.stream.creation_time.markup">2017-08-20T16:41:12.000000Z</property>
  <property name="kdenlive:meta.attr.1.stream.language.markup">eng</property>
  <property name="kdenlive:meta.attr.major_brand.markup">qt  </property>
  <property name="kdenlive:meta.attr.minor_version.markup">537331968</property>
  <property name="kdenlive:meta.attr.compatible_brands.markup">qt  niko</property>
  <property name="kdenlive:meta.attr.creation_time.markup">2017-08-20T16:41:12.000000Z</property>
  <property name="kdenlive:meta.media.sample_aspect_num">1</property>
  <property name="kdenlive:meta.media.sample_aspect_den">1</property>
  <property name="kdenlive:meta.media.frame_rate_num">25</property>
  <property name="kdenlive:meta.media.frame_rate_den">1</property>
  <property name="kdenlive:meta.media.colorspace">601</property>
  <property name="kdenlive:meta.media.color_trc">4</property>
  <property name="kdenlive:meta.media.width">1280</property>
  <property name="kdenlive:meta.media.height">720</property>
  <property name="kdenlive:meta.media.top_field_first">0</property>
  <property name="kdenlive:meta.media.progressive">1</property>
  <property name="xml">was here</property>
  <property name="meta.media.frame_rate_num">25</property>
  <property name="meta.media.frame_rate_den">1</property>
  <property name="meta.media.colorspace">601</property>
  <property name="meta.media.color_trc">2</property>
  <property name="meta.media.width">640</property>
  <property name="meta.media.height">360</property>
  <property name="meta.media.top_field_first">0</property>
  <property name="meta.media.progressive">1</property>
 </producer>
 <producer id="85_playlist3" title="Anonymous Submission" out="2000" in="0">
  <property name="length">00:01:20:01</property>
  <property name="eof">pause</property>
  <property name="resource">/home/nicolas/.cache/kdenlive/proxy/02f38f9517102202292e30e47a43fba0.mpg</property>
  <property name="meta.media.nb_streams">2</property>
  <property name="meta.media.0.stream.type">video</property>
  <property name="meta.media.0.stream.frame_rate">25</property>
  <property name="meta.media.0.stream.sample_aspect_ratio">0</property>
  <property name="meta.media.0.codec.width">640</property>
  <property name="meta.media.0.codec.height">360</property>
  <property name="meta.media.0.codec.rotate">0</property>
  <property name="meta.media.0.codec.frame_rate">25</property>
  <property name="meta.media.0.codec.pix_fmt">yuv420p</property>
  <property name="meta.media.0.codec.sample_aspect_ratio">1</property>
  <property name="meta.media.0.codec.colorspace">601</property>
  <property name="meta.media.0.codec.name">mpeg2video</property>
  <property name="meta.media.0.codec.long_name">MPEG-2 video</property>
  <property name="meta.media.0.codec.bit_rate">0</property>
  <property name="meta.media.1.stream.type">audio</property>
  <property name="meta.media.1.codec.sample_fmt">s16p</property>
  <property name="meta.media.1.codec.sample_rate">24000</property>
  <property name="meta.media.1.codec.channels">1</property>
  <property name="meta.media.1.codec.name">mp2</property>
  <property name="meta.media.1.codec.long_name">MP2 (MPEG audio layer 2)</property>
  <property name="meta.media.1.codec.bit_rate">128000</property>
  <property name="seekable">1</property>
  <property name="meta.media.sample_aspect_num">1</property>
  <property name="meta.media.sample_aspect_den">1</property>
  <property name="aspect_ratio">1</property>
  <property name="audio_index">1</property>
  <property name="video_index">0</property>
  <property name="mute_on_pause">1</property>
  <property name="mlt_service">avformat</property>
  <property name="kdenlive:file_size">106079246</property>
  <property name="kdenlive:file_hash">02f38f9517102202292e30e47a43fba0</property>
  <property name="kdenlive:proxy">/home/nicolas/.cache/kdenlive/proxy/02f38f9517102202292e30e47a43fba0.mpg</property>
  <property name="proxy_out">2000</property>
  <property name="kdenlive:originalurl">3DSC_0182.MOV</property>
  <property name="global_feed">1</property>
  <property name="kdenlive:meta.media.nb_streams">2</property>
  <property name="kdenlive:meta.media.0.stream.type">video</property>
  <property name="kdenlive:meta.media.0.stream.frame_rate">25</property>
  <property name="kdenlive:meta.media.0.stream.sample_aspect_ratio">0</property>
  <property name="kdenlive:meta.media.0.codec.width">1280</property>
  <property name="kdenlive:meta.media.0.codec.height">720</property>
  <property name="kdenlive:meta.media.0.codec.rotate">0</property>
  <property name="kdenlive:meta.media.0.codec.frame_rate">25</property>
  <property name="kdenlive:meta.media.0.codec.pix_fmt">yuvj420p</property>
  <property name="kdenlive:meta.media.0.codec.sample_aspect_ratio">1</property>
  <property name="kdenlive:meta.media.0.codec.colorspace">601</property>
  <property name="kdenlive:meta.media.0.codec.color_trc">4</property>
  <property name="kdenlive:meta.media.0.codec.name">h264</property>
  <property name="kdenlive:meta.media.0.codec.long_name">H.264 / AVC / MPEG-4 AVC / MPEG-4 part 10</property>
  <property name="kdenlive:meta.media.0.codec.bit_rate">10205443</property>
  <property name="kdenlive:meta.attr.0.stream.creation_time.markup">2017-08-20T19:56:41.000000Z</property>
  <property name="kdenlive:meta.attr.0.stream.language.markup">eng</property>
  <property name="kdenlive:meta.media.1.stream.type">audio</property>
  <property name="kdenlive:meta.media.1.codec.sample_fmt">s16</property>
  <property name="kdenlive:meta.media.1.codec.sample_rate">24000</property>
  <property name="kdenlive:meta.media.1.codec.channels">1</property>
  <property name="kdenlive:meta.media.1.codec.name">pcm_s16le</property>
  <property name="kdenlive:meta.media.1.codec.long_name">PCM signed 16-bit little-endian</property>
  <property name="kdenlive:meta.media.1.codec.bit_rate">384000</property>
  <property name="kdenlive:meta.attr.1.stream.creation_time.markup">2017-08-20T19:56:41.000000Z</property>
  <property name="kdenlive:meta.attr.1.stream.language.markup">eng</property>
  <property name="kdenlive:meta.attr.major_brand.markup">qt  </property>
  <property name="kdenlive:meta.attr.minor_version.markup">537331968</property>
  <property name="kdenlive:meta.attr.compatible_brands.markup">qt  niko</property>
  <property name="kdenlive:meta.attr.creation_time.markup">2017-08-20T19:56:41.000000Z</property>
  <property name="kdenlive:meta.media.sample_aspect_num">1</property>
  <property name="kdenlive:meta.media.sample_aspect_den">1</property>
  <property name="kdenlive:meta.media.frame_rate_num">25</property>
  <property name="kdenlive:meta.media.frame_rate_den">1</property>
  <property name="kdenlive:meta.media.colorspace">601</property>
  <property name="kdenlive:meta.media.color_trc">4</property>
  <property name="kdenlive:meta.media.width">1280</property>
  <property name="kdenlive:meta.media.height">720</property>
  <property name="kdenlive:meta.media.top_field_first">0</property>
  <property name="kdenlive:meta.media.progressive">1</property>
  <property name="xml">was here</property>
  <property name="meta.media.frame_rate_num">25</property>
  <property name="meta.media.frame_rate_den">1</property>
  <property name="meta.media.colorspace">601</property>
  <property name="meta.media.color_trc">2</property>
  <property name="meta.media.width">640</property>
  <property name="meta.media.height">360</property>
  <property name="meta.media.top_field_first">0</property>
  <property name="meta.media.progressive">1</property>
 </producer>
 <playlist id="playlist3">
  <property name="kdenlive:track_name">Video 1</property>
  <blank length="101"/>
  <entry out="907" producer="2_playlist3" in="682"/>
  <blank length="2869"/>
  <entry out="1884" producer="16_playlist3" in="208">
   <filter id="fade_from_black" out="280" in="208">
    <property name="start">0</property>
    <property name="mlt_service">brightness</property>
    <property name="kdenlive_id">fade_from_black</property>
    <property name="tag">brightness</property>
    <property name="kdenlive_ix">1</property>
    <property name="end">1</property>
    <property name="kdenlive_info"/>
   </filter>
   <filter id="pan_zoom" out="1884" in="208">
    <property name="background">colour:0x00000000</property>
    <property name="mlt_service">affine</property>
    <property name="kdenlive_id">pan_zoom</property>
    <property name="tag">affine</property>
    <property name="kdenlive_ix">2</property>
    <property name="transition.geometry">-84/0:1280x720:100</property>
    <property name="transition.distort">0</property>
    <property name="kdenlive:sync_in_out">1</property>
    <property name="kdenlive_info"/>
   </filter>
  </entry>
  <entry out="347" producer="18_playlist3" in="312"/>
  <entry out="510" producer="18_playlist3" in="469"/>
  <entry out="655" producer="19_playlist3" in="249">
   <filter id="fade_to_black" out="655" in="553">
    <property name="start">1</property>
    <property name="mlt_service">brightness</property>
    <property name="kdenlive_id">fade_to_black</property>
    <property name="tag">brightness</property>
    <property name="kdenlive_ix">1</property>
    <property name="end">0</property>
   </filter>
  </entry>
  <blank length="1048"/>
  <entry out="185" producer="68_playlist3" in="114"/>
  <blank length="3712"/>
  <entry out="191" producer="32_playlist3" in="0"/>
  <blank length="86"/>
  <entry out="243" producer="32_playlist3" in="179"/>
  <entry out="414" producer="32_playlist3" in="244"/>
  <blank length="12"/>
  <entry out="632" producer="32_playlist3" in="415"/>
  <blank length="8703"/>
  <entry out="38" producer="36_playlist3" in="0"/>
  <blank length="659"/>
  <entry out="218" producer="39_playlist3" in="0"/>
  <entry out="953" producer="38_playlist3" in="368"/>
  <entry out="1021" producer="38_playlist3" in="970"/>
  <entry out="179" producer="68_playlist3" in="58"/>
  <blank length="74"/>
  <entry out="469" producer="42_playlist3" in="167">
   <filter id="filter1" out="469" in="445">
    <property name="start">1</property>
    <property name="mlt_service">brightness</property>
    <property name="kdenlive_id">fade_to_black</property>
    <property name="tag">brightness</property>
    <property name="kdenlive_ix">1</property>
    <property name="end">0</property>
   </filter>
  </entry>
  <blank length="7"/>
  <entry out="1618" producer="43_playlist3" in="646">
   <filter id="filter2" out="689" in="646">
    <property name="start">0</property>
    <property name="mlt_service">brightness</property>
    <property name="kdenlive_id">fade_from_black</property>
    <property name="tag">brightness</property>
    <property name="kdenlive_ix">1</property>
    <property name="end">1</property>
    <property name="kdenlive_info"/>
    <property name="disable"/>
   </filter>
   <filter id="filter3" out="1618" in="1578">
    <property name="start">1</property>
    <property name="mlt_service">brightness</property>
    <property name="kdenlive_id">fade_to_black</property>
    <property name="tag">brightness</property>
    <property name="kdenlive_ix">2</property>
    <property name="end">0</property>
   </filter>
  </entry>
  <blank length="9"/>
  <entry out="497" producer="44_playlist3" in="187">
   <filter id="filter4" out="497" in="455">
    <property name="start">1</property>
    <property name="mlt_service">brightness</property>
    <property name="kdenlive_id">fade_to_black</property>
    <property name="tag">brightness</property>
    <property name="kdenlive_ix">1</property>
    <property name="end">0</property>
   </filter>
  </entry>
  <blank length="998"/>
  <entry out="221" producer="47_playlist3" in="39">
   <filter id="frei0r.scale0tilt">
    <property name="version">0,1</property>
    <property name="mlt_service">frei0r.scale0tilt</property>
    <property name="kdenlive_id">frei0r.scale0tilt</property>
    <property name="tag">frei0r.scale0tilt</property>
    <property name="kdenlive_info">1/-1/</property>
    <property name="kdenlive_ix">1</property>
    <property name="Clip left">0</property>
    <property name="Clip right">0</property>
    <property name="Clip top">0</property>
    <property name="Clip bottom">0</property>
    <property name="Scale X">0,5</property>
    <property name="Scale Y">0,5</property>
    <property name="Tilt X">0,542969</property>
    <property name="Tilt Y">0,5</property>
   </filter>
  </entry>
  <blank length="156"/>
  <entry out="761" producer="47_playlist3" in="144">
   <filter id="filter5">
    <property name="version">0,1</property>
    <property name="mlt_service">frei0r.scale0tilt</property>
    <property name="kdenlive_id">frei0r.scale0tilt</property>
    <property name="tag">frei0r.scale0tilt</property>
    <property name="kdenlive_info">1/-1/</property>
    <property name="kdenlive_ix">1</property>
    <property name="Clip left">0</property>
    <property name="Clip right">0</property>
    <property name="Clip top">0</property>
    <property name="Clip bottom">0</property>
    <property name="Scale X">0,5</property>
    <property name="Scale Y">0,5</property>
    <property name="Tilt X">0,542969</property>
    <property name="Tilt Y">0,5</property>
   </filter>
  </entry>
  <entry out="300" producer="49_playlist3" in="0">
   <filter id="filter6">
    <property name="version">0,1</property>
    <property name="mlt_service">frei0r.scale0tilt</property>
    <property name="kdenlive_id">frei0r.scale0tilt</property>
    <property name="tag">frei0r.scale0tilt</property>
    <property name="kdenlive_info">1/-1/</property>
    <property name="kdenlive_ix">1</property>
    <property name="Clip left">0</property>
    <property name="Clip right">0</property>
    <property name="Clip top">0</property>
    <property name="Clip bottom">0</property>
    <property name="Scale X">0,5</property>
    <property name="Scale Y">0,5</property>
    <property name="Tilt X">0,542969</property>
    <property name="Tilt Y">0,5</property>
   </filter>
   <filter id="filter7" out="300">
    <property name="background">colour:0x00000000</property>
    <property name="mlt_service">affine</property>
    <property name="kdenlive_id">pan_zoom</property>
    <property name="tag">affine</property>
    <property name="kdenlive_ix">2</property>
    <property name="transition.geometry">0=0/0:1280x720:100;79=-149/0:1280x720:100</property>
    <property name="transition.distort">0</property>
    <property name="kdenlive:sync_in_out">1</property>
    <property name="kdenlive_info">1/-1/</property>
   </filter>
  </entry>
  <blank length="275"/>
  <entry out="510" producer="49_playlist3" in="301">
   <filter id="filter8">
    <property name="version">0,1</property>
    <property name="mlt_service">frei0r.scale0tilt</property>
    <property name="kdenlive_id">frei0r.scale0tilt</property>
    <property name="tag">frei0r.scale0tilt</property>
    <property name="kdenlive_info">1/-1/</property>
    <property name="kdenlive_ix">1</property>
    <property name="Clip left">0</property>
    <property name="Clip right">0</property>
    <property name="Clip top">0</property>
    <property name="Clip bottom">0</property>
    <property name="Scale X">0,5</property>
    <property name="Scale Y">0,5</property>
    <property name="Tilt X">0,542969</property>
    <property name="Tilt Y">0,5</property>
   </filter>
   <filter id="filter9" out="510" in="301">
    <property name="background">colour:0x00000000</property>
    <property name="mlt_service">affine</property>
    <property name="kdenlive_id">pan_zoom</property>
    <property name="tag">affine</property>
    <property name="kdenlive_info">0/-1/</property>
    <property name="kdenlive_ix">2</property>
    <property name="disable"/>
    <property name="transition.geometry">-166/0:1280x720:100</property>
    <property name="transition.distort">0</property>
    <property name="kdenlive:sync_in_out">1</property>
   </filter>
  </entry>
  <entry out="1055" producer="49_playlist3" in="825">
   <filter id="filter10">
    <property name="version">0,1</property>
    <property name="mlt_service">frei0r.scale0tilt</property>
    <property name="kdenlive_id">frei0r.scale0tilt</property>
    <property name="tag">frei0r.scale0tilt</property>
    <property name="kdenlive_info">1/-1/</property>
    <property name="kdenlive_ix">1</property>
    <property name="Clip left">0</property>
    <property name="Clip right">0</property>
    <property name="Clip top">0</property>
    <property name="Clip bottom">0</property>
    <property name="Scale X">0,5</property>
    <property name="Scale Y">0,5</property>
    <property name="Tilt X">0,542969</property>
    <property name="Tilt Y">0,5</property>
   </filter>
   <filter id="filter11" out="1193" in="825">
    <property name="background">colour:0x00000000</property>
    <property name="mlt_service">affine</property>
    <property name="kdenlive_id">pan_zoom</property>
    <property name="tag">affine</property>
    <property name="kdenlive_info">0/-1/</property>
    <property name="kdenlive_ix">2</property>
    <property name="disable"/>
    <property name="transition.geometry">-149/0:1280x720:100</property>
    <property name="transition.distort">0</property>
    <property name="kdenlive:sync_in_out">1</property>
   </filter>
   <filter id="filter12" out="1055" in="954">
    <property name="start">1</property>
    <property name="mlt_service">brightness</property>
    <property name="kdenlive_id">fade_to_black</property>
    <property name="tag">brightness</property>
    <property name="kdenlive_ix">3</property>
    <property name="end">0</property>
   </filter>
  </entry>
  <blank length="23"/>
  <entry out="788" producer="slowmotion:54:1,1:1:0" in="123">
   <filter id="filter13" out="85">
    <property name="start">0</property>
    <property name="mlt_service">brightness</property>
    <property name="kdenlive_id">fade_from_black</property>
    <property name="tag">brightness</property>
    <property name="kdenlive_ix">1</property>
    <property name="end">1</property>
   </filter>
   <filter id="filter14" out="208" in="123">
    <property name="start">0</property>
    <property name="mlt_service">brightness</property>
    <property name="kdenlive_id">fade_from_black</property>
    <property name="tag">brightness</property>
    <property name="kdenlive_ix">2</property>
    <property name="kdenlive_info"/>
    <property name="end">1</property>
    <property name="disable"/>
   </filter>
   <filter id="filter15" out="208" in="123">
    <property name="start">0</property>
    <property name="mlt_service">brightness</property>
    <property name="kdenlive_id">fade_from_black</property>
    <property name="tag">brightness</property>
    <property name="kdenlive_ix">3</property>
    <property name="kdenlive_info"/>
    <property name="disable"/>
    <property name="end">1</property>
   </filter>
  </entry>
  <blank length="50"/>
  <entry out="1703" producer="slowmotion:54:1,1:1:0" in="1173"/>
  <blank length="1170"/>
  <entry out="317" producer="slowmotion:60:1,5:1:0" in="85"/>
  <entry out="397" producer="slowmotion:60:1,8:1:0" in="265"/>
  <entry out="128" producer="slowmotion:62:0,09:1:0" in="0"/>
  <entry out="72" producer="slowmotion:62:1,5:1:0" in="23"/>
  <entry out="669" producer="slowmotion:62:1,8:1:0" in="447"/>
  <blank length="73"/>
  <entry out="496" producer="slowmotion:62:1,35:1:0" in="119"/>
  <blank length="294"/>
  <entry out="349" producer="64_playlist3" in="162"/>
  <blank length="876"/>
  <entry out="288" producer="21_playlist3" in="40"/>
  <blank length="233"/>
  <entry out="108" producer="79_playlist3" in="0"/>
  <blank length="795"/>
  <entry out="286" producer="79_playlist3" in="204"/>
  <entry out="177" producer="68_playlist3" in="80"/>
  <blank length="388"/>
  <entry out="779" producer="70_playlist3" in="55">
   <filter id="filter16" out="779" in="724">
    <property name="start">1</property>
    <property name="mlt_service">brightness</property>
    <property name="kdenlive_id">fade_to_black</property>
    <property name="tag">brightness</property>
    <property name="kdenlive_ix">1</property>
    <property name="end">0</property>
   </filter>
  </entry>
  <blank length="3061"/>
  <entry out="2000" producer="85_playlist3" in="653">
   <filter id="frei0r.curves">
    <property name="version">0,3</property>
    <property name="mlt_service">frei0r.curves</property>
    <property name="kdenlive_id">frei0r.curves</property>
    <property name="tag">frei0r.curves</property>
    <property name="kdenlive_ix">1</property>
    <property name="Channel">3</property>
    <property name="Luma formula">1</property>
    <property name="Curve point number">0,2</property>
    <property name="Point 1 input value">0</property>
    <property name="Point 1 output value">0</property>
    <property name="Point 2 input value">0,685315</property>
    <property name="Point 2 output value">0,912752</property>
    <property name="Point 3 input value">0</property>
    <property name="Point 3 output value">0</property>
    <property name="Point 4 input value">0</property>
    <property name="Point 4 output value">0</property>
    <property name="Point 5 input value">0</property>
    <property name="Point 5 output value">0</property>
    <property name="Show curves">0</property>
    <property name="Graph position">0,3</property>
    <property name="kdenlive_info"/>
   </filter>
   <filter id="filter0" out="2000" in="1968">
    <property name="start">1</property>
    <property name="mlt_service">brightness</property>
    <property name="kdenlive_id">fade_to_black</property>
    <property name="tag">brightness</property>
    <property name="kdenlive_ix">2</property>
    <property name="end">0</property>
   </filter>
  </entry>
 </playlist>
 <producer id="6_playlist0" title="Anonymous Submission" out="263" in="0">
  <property name="length">00:00:10:14</property>
  <property name="eof">pause</property>
  <property name="resource">/home/nicolas/.cache/kdenlive/proxy/7c10cded6a61229130a6b52f12e67f38.mpg</property>
  <property name="meta.media.nb_streams">2</property>
  <property name="meta.media.0.stream.type">video</property>
  <property name="meta.media.0.stream.frame_rate">25</property>
  <property name="meta.media.0.stream.sample_aspect_ratio">0</property>
  <property name="meta.media.0.codec.width">640</property>
  <property name="meta.media.0.codec.height">360</property>
  <property name="meta.media.0.codec.rotate">0</property>
  <property name="meta.media.0.codec.frame_rate">25</property>
  <property name="meta.media.0.codec.pix_fmt">yuv420p</property>
  <property name="meta.media.0.codec.sample_aspect_ratio">1</property>
  <property name="meta.media.0.codec.colorspace">601</property>
  <property name="meta.media.0.codec.name">mpeg2video</property>
  <property name="meta.media.0.codec.long_name">MPEG-2 video</property>
  <property name="meta.media.0.codec.bit_rate">0</property>
  <property name="meta.media.1.stream.type">audio</property>
  <property name="meta.media.1.codec.sample_fmt">s16p</property>
  <property name="meta.media.1.codec.sample_rate">24000</property>
  <property name="meta.media.1.codec.channels">1</property>
  <property name="meta.media.1.codec.name">mp2</property>
  <property name="meta.media.1.codec.long_name">MP2 (MPEG audio layer 2)</property>
  <property name="meta.media.1.codec.bit_rate">128000</property>
  <property name="seekable">1</property>
  <property name="meta.media.sample_aspect_num">1</property>
  <property name="meta.media.sample_aspect_den">1</property>
  <property name="aspect_ratio">1</property>
  <property name="audio_index">1</property>
  <property name="video_index">0</property>
  <property name="mute_on_pause">1</property>
  <property name="mlt_service">avformat</property>
  <property name="kdenlive:file_size">14326684</property>
  <property name="kdenlive:file_hash">7c10cded6a61229130a6b52f12e67f38</property>
  <property name="kdenlive:proxy">/home/nicolas/.cache/kdenlive/proxy/7c10cded6a61229130a6b52f12e67f38.mpg</property>
  <property name="proxy_out">263</property>
  <property name="kdenlive:originalurl">2DSC_0007.MOV</property>
  <property name="global_feed">1</property>
  <property name="kdenlive:meta.media.nb_streams">2</property>
  <property name="kdenlive:meta.media.0.stream.type">video</property>
  <property name="kdenlive:meta.media.0.stream.frame_rate">25</property>
  <property name="kdenlive:meta.media.0.stream.sample_aspect_ratio">0</property>
  <property name="kdenlive:meta.media.0.codec.width">1280</property>
  <property name="kdenlive:meta.media.0.codec.height">720</property>
  <property name="kdenlive:meta.media.0.codec.rotate">0</property>
  <property name="kdenlive:meta.media.0.codec.frame_rate">25</property>
  <property name="kdenlive:meta.media.0.codec.pix_fmt">yuvj420p</property>
  <property name="kdenlive:meta.media.0.codec.sample_aspect_ratio">1</property>
  <property name="kdenlive:meta.media.0.codec.colorspace">601</property>
  <property name="kdenlive:meta.media.0.codec.color_trc">4</property>
  <property name="kdenlive:meta.media.0.codec.name">h264</property>
  <property name="kdenlive:meta.media.0.codec.long_name">H.264 / AVC / MPEG-4 AVC / MPEG-4 part 10</property>
  <property name="kdenlive:meta.media.0.codec.bit_rate">10378893</property>
  <property name="kdenlive:meta.attr.0.stream.creation_time.markup">2017-08-19T16:02:46.000000Z</property>
  <property name="kdenlive:meta.attr.0.stream.language.markup">eng</property>
  <property name="kdenlive:meta.media.1.stream.type">audio</property>
  <property name="kdenlive:meta.media.1.codec.sample_fmt">s16</property>
  <property name="kdenlive:meta.media.1.codec.sample_rate">24000</property>
  <property name="kdenlive:meta.media.1.codec.channels">1</property>
  <property name="kdenlive:meta.media.1.codec.name">pcm_s16le</property>
  <property name="kdenlive:meta.media.1.codec.long_name">PCM signed 16-bit little-endian</property>
  <property name="kdenlive:meta.media.1.codec.bit_rate">384000</property>
  <property name="kdenlive:meta.attr.1.stream.creation_time.markup">2017-08-19T16:02:46.000000Z</property>
  <property name="kdenlive:meta.attr.1.stream.language.markup">eng</property>
  <property name="kdenlive:meta.attr.major_brand.markup">qt  </property>
  <property name="kdenlive:meta.attr.minor_version.markup">537331968</property>
  <property name="kdenlive:meta.attr.compatible_brands.markup">qt  niko</property>
  <property name="kdenlive:meta.attr.creation_time.markup">2017-08-19T16:02:46.000000Z</property>
  <property name="kdenlive:meta.media.sample_aspect_num">1</property>
  <property name="kdenlive:meta.media.sample_aspect_den">1</property>
  <property name="kdenlive:meta.media.frame_rate_num">25</property>
  <property name="kdenlive:meta.media.frame_rate_den">1</property>
  <property name="kdenlive:meta.media.colorspace">601</property>
  <property name="kdenlive:meta.media.color_trc">4</property>
  <property name="kdenlive:meta.media.width">1280</property>
  <property name="kdenlive:meta.media.height">720</property>
  <property name="kdenlive:meta.media.top_field_first">0</property>
  <property name="kdenlive:meta.media.progressive">1</property>
  <property name="xml">was here</property>
  <property name="meta.media.frame_rate_num">25</property>
  <property name="meta.media.frame_rate_den">1</property>
  <property name="meta.media.colorspace">601</property>
  <property name="meta.media.color_trc">2</property>
  <property name="meta.media.width">640</property>
  <property name="meta.media.height">360</property>
  <property name="meta.media.top_field_first">0</property>
  <property name="meta.media.progressive">1</property>
 </producer>
 <producer id="7_playlist0" title="Anonymous Submission" out="2309" in="0">
  <property name="length">00:01:32:10</property>
  <property name="eof">pause</property>
  <property name="resource">/home/nicolas/.cache/kdenlive/proxy/403ffcac4bec715173bca7574b2a0b48.mpg</property>
  <property name="meta.media.nb_streams">2</property>
  <property name="meta.media.0.stream.type">video</property>
  <property name="meta.media.0.stream.frame_rate">25</property>
  <property name="meta.media.0.stream.sample_aspect_ratio">0</property>
  <property name="meta.media.0.codec.width">640</property>
  <property name="meta.media.0.codec.height">360</property>
  <property name="meta.media.0.codec.rotate">0</property>
  <property name="meta.media.0.codec.frame_rate">25</property>
  <property name="meta.media.0.codec.pix_fmt">yuv420p</property>
  <property name="meta.media.0.codec.sample_aspect_ratio">1</property>
  <property name="meta.media.0.codec.colorspace">601</property>
  <property name="meta.media.0.codec.name">mpeg2video</property>
  <property name="meta.media.0.codec.long_name">MPEG-2 video</property>
  <property name="meta.media.0.codec.bit_rate">0</property>
  <property name="meta.media.1.stream.type">audio</property>
  <property name="meta.media.1.codec.sample_fmt">s16p</property>
  <property name="meta.media.1.codec.sample_rate">24000</property>
  <property name="meta.media.1.codec.channels">1</property>
  <property name="meta.media.1.codec.name">mp2</property>
  <property name="meta.media.1.codec.long_name">MP2 (MPEG audio layer 2)</property>
  <property name="meta.media.1.codec.bit_rate">128000</property>
  <property name="seekable">1</property>
  <property name="meta.media.sample_aspect_num">1</property>
  <property name="meta.media.sample_aspect_den">1</property>
  <property name="aspect_ratio">1</property>
  <property name="audio_index">1</property>
  <property name="video_index">0</property>
  <property name="mute_on_pause">1</property>
  <property name="mlt_service">avformat</property>
  <property name="kdenlive:file_size">124587531</property>
  <property name="kdenlive:file_hash">403ffcac4bec715173bca7574b2a0b48</property>
  <property name="kdenlive:proxy">/home/nicolas/.cache/kdenlive/proxy/403ffcac4bec715173bca7574b2a0b48.mpg</property>
  <property name="proxy_out">2309</property>
  <property name="kdenlive:originalurl">2DSC_0011.MOV</property>
  <property name="global_feed">1</property>
  <property name="kdenlive:meta.media.nb_streams">2</property>
  <property name="kdenlive:meta.media.0.stream.type">video</property>
  <property name="kdenlive:meta.media.0.stream.frame_rate">25</property>
  <property name="kdenlive:meta.media.0.stream.sample_aspect_ratio">0</property>
  <property name="kdenlive:meta.media.0.codec.width">1280</property>
  <property name="kdenlive:meta.media.0.codec.height">720</property>
  <property name="kdenlive:meta.media.0.codec.rotate">0</property>
  <property name="kdenlive:meta.media.0.codec.frame_rate">25</property>
  <property name="kdenlive:meta.media.0.codec.pix_fmt">yuvj420p</property>
  <property name="kdenlive:meta.media.0.codec.sample_aspect_ratio">1</property>
  <property name="kdenlive:meta.media.0.codec.colorspace">601</property>
  <property name="kdenlive:meta.media.0.codec.color_trc">4</property>
  <property name="kdenlive:meta.media.0.codec.name">h264</property>
  <property name="kdenlive:meta.media.0.codec.long_name">H.264 / AVC / MPEG-4 AVC / MPEG-4 part 10</property>
  <property name="kdenlive:meta.media.0.codec.bit_rate">10390737</property>
  <property name="kdenlive:meta.attr.0.stream.creation_time.markup">2017-08-19T16:14:35.000000Z</property>
  <property name="kdenlive:meta.attr.0.stream.language.markup">eng</property>
  <property name="kdenlive:meta.media.1.stream.type">audio</property>
  <property name="kdenlive:meta.media.1.codec.sample_fmt">s16</property>
  <property name="kdenlive:meta.media.1.codec.sample_rate">24000</property>
  <property name="kdenlive:meta.media.1.codec.channels">1</property>
  <property name="kdenlive:meta.media.1.codec.name">pcm_s16le</property>
  <property name="kdenlive:meta.media.1.codec.long_name">PCM signed 16-bit little-endian</property>
  <property name="kdenlive:meta.media.1.codec.bit_rate">384000</property>
  <property name="kdenlive:meta.attr.1.stream.creation_time.markup">2017-08-19T16:14:35.000000Z</property>
  <property name="kdenlive:meta.attr.1.stream.language.markup">eng</property>
  <property name="kdenlive:meta.attr.major_brand.markup">qt  </property>
  <property name="kdenlive:meta.attr.minor_version.markup">537331968</property>
  <property name="kdenlive:meta.attr.compatible_brands.markup">qt  niko</property>
  <property name="kdenlive:meta.attr.creation_time.markup">2017-08-19T16:14:35.000000Z</property>
  <property name="kdenlive:meta.media.sample_aspect_num">1</property>
  <property name="kdenlive:meta.media.sample_aspect_den">1</property>
  <property name="kdenlive:meta.media.frame_rate_num">25</property>
  <property name="kdenlive:meta.media.frame_rate_den">1</property>
  <property name="kdenlive:meta.media.colorspace">601</property>
  <property name="kdenlive:meta.media.color_trc">4</property>
  <property name="kdenlive:meta.media.width">1280</property>
  <property name="kdenlive:meta.media.height">720</property>
  <property name="kdenlive:meta.media.top_field_first">0</property>
  <property name="kdenlive:meta.media.progressive">1</property>
  <property name="xml">was here</property>
  <property name="meta.media.frame_rate_num">25</property>
  <property name="meta.media.frame_rate_den">1</property>
  <property name="meta.media.colorspace">601</property>
  <property name="meta.media.color_trc">2</property>
  <property name="meta.media.width">640</property>
  <property name="meta.media.height">360</property>
  <property name="meta.media.top_field_first">0</property>
  <property name="meta.media.progressive">1</property>
 </producer>
 <producer id="20_playlist0" title="Anonymous Submission" out="452" in="0">
  <property name="length">00:00:18:03</property>
  <property name="eof">pause</property>
  <property name="resource">/home/nicolas/.cache/kdenlive/proxy/73e2a4050367628f1925ff63e643997a.mpg</property>
  <property name="meta.media.nb_streams">2</property>
  <property name="meta.media.0.stream.type">video</property>
  <property name="meta.media.0.stream.frame_rate">25</property>
  <property name="meta.media.0.stream.sample_aspect_ratio">0</property>
  <property name="meta.media.0.codec.width">640</property>
  <property name="meta.media.0.codec.height">360</property>
  <property name="meta.media.0.codec.rotate">0</property>
  <property name="meta.media.0.codec.frame_rate">25</property>
  <property name="meta.media.0.codec.pix_fmt">yuv420p</property>
  <property name="meta.media.0.codec.sample_aspect_ratio">1</property>
  <property name="meta.media.0.codec.colorspace">601</property>
  <property name="meta.media.0.codec.name">mpeg2video</property>
  <property name="meta.media.0.codec.long_name">MPEG-2 video</property>
  <property name="meta.media.0.codec.bit_rate">0</property>
  <property name="meta.media.1.stream.type">audio</property>
  <property name="meta.media.1.codec.sample_fmt">s16p</property>
  <property name="meta.media.1.codec.sample_rate">24000</property>
  <property name="meta.media.1.codec.channels">1</property>
  <property name="meta.media.1.codec.name">mp2</property>
  <property name="meta.media.1.codec.long_name">MP2 (MPEG audio layer 2)</property>
  <property name="meta.media.1.codec.bit_rate">128000</property>
  <property name="seekable">1</property>
  <property name="meta.media.sample_aspect_num">1</property>
  <property name="meta.media.sample_aspect_den">1</property>
  <property name="aspect_ratio">1</property>
  <property name="audio_index">1</property>
  <property name="video_index">0</property>
  <property name="mute_on_pause">1</property>
  <property name="mlt_service">avformat</property>
  <property name="kdenlive:file_size">26547962</property>
  <property name="kdenlive:file_hash">73e2a4050367628f1925ff63e643997a</property>
  <property name="kdenlive:proxy">/home/nicolas/.cache/kdenlive/proxy/73e2a4050367628f1925ff63e643997a.mpg</property>
  <property name="proxy_out">452</property>
  <property name="kdenlive:originalurl">3DSC_0001.MOV</property>
  <property name="global_feed">1</property>
  <property name="kdenlive:meta.media.nb_streams">2</property>
  <property name="kdenlive:meta.media.0.stream.type">video</property>
  <property name="kdenlive:meta.media.0.stream.frame_rate">25</property>
  <property name="kdenlive:meta.media.0.stream.sample_aspect_ratio">0</property>
  <property name="kdenlive:meta.media.0.codec.width">1280</property>
  <property name="kdenlive:meta.media.0.codec.height">720</property>
  <property name="kdenlive:meta.media.0.codec.rotate">0</property>
  <property name="kdenlive:meta.media.0.codec.frame_rate">25</property>
  <property name="kdenlive:meta.media.0.codec.pix_fmt">yuvj420p</property>
  <property name="kdenlive:meta.media.0.codec.sample_aspect_ratio">1</property>
  <property name="kdenlive:meta.media.0.codec.colorspace">601</property>
  <property name="kdenlive:meta.media.0.codec.color_trc">4</property>
  <property name="kdenlive:meta.media.0.codec.name">h264</property>
  <property name="kdenlive:meta.media.0.codec.long_name">H.264 / AVC / MPEG-4 AVC / MPEG-4 part 10</property>
  <property name="kdenlive:meta.media.0.codec.bit_rate">11282493</property>
  <property name="kdenlive:meta.attr.0.stream.creation_time.markup">2017-08-20T09:24:14.000000Z</property>
  <property name="kdenlive:meta.attr.0.stream.language.markup">eng</property>
  <property name="kdenlive:meta.media.1.stream.type">audio</property>
  <property name="kdenlive:meta.media.1.codec.sample_fmt">s16</property>
  <property name="kdenlive:meta.media.1.codec.sample_rate">24000</property>
  <property name="kdenlive:meta.media.1.codec.channels">1</property>
  <property name="kdenlive:meta.media.1.codec.name">pcm_s16le</property>
  <property name="kdenlive:meta.media.1.codec.long_name">PCM signed 16-bit little-endian</property>
  <property name="kdenlive:meta.media.1.codec.bit_rate">384000</property>
  <property name="kdenlive:meta.attr.1.stream.creation_time.markup">2017-08-20T09:24:14.000000Z</property>
  <property name="kdenlive:meta.attr.1.stream.language.markup">eng</property>
  <property name="kdenlive:meta.attr.major_brand.markup">qt  </property>
  <property name="kdenlive:meta.attr.minor_version.markup">537331968</property>
  <property name="kdenlive:meta.attr.compatible_brands.markup">qt  niko</property>
  <property name="kdenlive:meta.attr.creation_time.markup">2017-08-20T09:24:14.000000Z</property>
  <property name="kdenlive:meta.media.sample_aspect_num">1</property>
  <property name="kdenlive:meta.media.sample_aspect_den">1</property>
  <property name="kdenlive:meta.media.frame_rate_num">25</property>
  <property name="kdenlive:meta.media.frame_rate_den">1</property>
  <property name="kdenlive:meta.media.colorspace">601</property>
  <property name="kdenlive:meta.media.color_trc">4</property>
  <property name="kdenlive:meta.media.width">1280</property>
  <property name="kdenlive:meta.media.height">720</property>
  <property name="kdenlive:meta.media.top_field_first">0</property>
  <property name="kdenlive:meta.media.progressive">1</property>
  <property name="xml">was here</property>
  <property name="meta.media.frame_rate_num">25</property>
  <property name="meta.media.frame_rate_den">1</property>
  <property name="meta.media.colorspace">601</property>
  <property name="meta.media.color_trc">2</property>
  <property name="meta.media.width">640</property>
  <property name="meta.media.height">360</property>
  <property name="meta.media.top_field_first">0</property>
  <property name="meta.media.progressive">1</property>
 </producer>
 <producer id="15_playlist0" title="Anonymous Submission" out="635" in="0">
  <property name="length">00:00:25:11</property>
  <property name="eof">pause</property>
  <property name="resource">/home/nicolas/.cache/kdenlive/proxy/cf08c976da26532d3ca1101f6c26d555.mpg</property>
  <property name="meta.media.nb_streams">2</property>
  <property name="meta.media.0.stream.type">video</property>
  <property name="meta.media.0.stream.frame_rate">25</property>
  <property name="meta.media.0.stream.sample_aspect_ratio">0</property>
  <property name="meta.media.0.codec.width">640</property>
  <property name="meta.media.0.codec.height">360</property>
  <property name="meta.media.0.codec.rotate">0</property>
  <property name="meta.media.0.codec.frame_rate">25</property>
  <property name="meta.media.0.codec.pix_fmt">yuv420p</property>
  <property name="meta.media.0.codec.sample_aspect_ratio">1</property>
  <property name="meta.media.0.codec.colorspace">601</property>
  <property name="meta.media.0.codec.name">mpeg2video</property>
  <property name="meta.media.0.codec.long_name">MPEG-2 video</property>
  <property name="meta.media.0.codec.bit_rate">0</property>
  <property name="meta.media.1.stream.type">audio</property>
  <property name="meta.media.1.codec.sample_fmt">s16p</property>
  <property name="meta.media.1.codec.sample_rate">24000</property>
  <property name="meta.media.1.codec.channels">1</property>
  <property name="meta.media.1.codec.name">mp2</property>
  <property name="meta.media.1.codec.long_name">MP2 (MPEG audio layer 2)</property>
  <property name="meta.media.1.codec.bit_rate">128000</property>
  <property name="seekable">1</property>
  <property name="meta.media.sample_aspect_num">1</property>
  <property name="meta.media.sample_aspect_den">1</property>
  <property name="aspect_ratio">1</property>
  <property name="audio_index">1</property>
  <property name="video_index">0</property>
  <property name="mute_on_pause">1</property>
  <property name="mlt_service">avformat</property>
  <property name="kdenlive:file_size">34654114</property>
  <property name="kdenlive:file_hash">cf08c976da26532d3ca1101f6c26d555</property>
  <property name="kdenlive:proxy">/home/nicolas/.cache/kdenlive/proxy/cf08c976da26532d3ca1101f6c26d555.mpg</property>
  <property name="proxy_out">635</property>
  <property name="kdenlive:originalurl">2DSC_0013.MOV</property>
  <property name="global_feed">1</property>
  <property name="kdenlive:meta.media.nb_streams">2</property>
  <property name="kdenlive:meta.media.0.stream.type">video</property>
  <property name="kdenlive:meta.media.0.stream.frame_rate">25</property>
  <property name="kdenlive:meta.media.0.stream.sample_aspect_ratio">0</property>
  <property name="kdenlive:meta.media.0.codec.width">1280</property>
  <property name="kdenlive:meta.media.0.codec.height">720</property>
  <property name="kdenlive:meta.media.0.codec.rotate">0</property>
  <property name="kdenlive:meta.media.0.codec.frame_rate">25</property>
  <property name="kdenlive:meta.media.0.codec.pix_fmt">yuvj420p</property>
  <property name="kdenlive:meta.media.0.codec.sample_aspect_ratio">1</property>
  <property name="kdenlive:meta.media.0.codec.colorspace">601</property>
  <property name="kdenlive:meta.media.0.codec.color_trc">4</property>
  <property name="kdenlive:meta.media.0.codec.name">h264</property>
  <property name="kdenlive:meta.media.0.codec.long_name">H.264 / AVC / MPEG-4 AVC / MPEG-4 part 10</property>
  <property name="kdenlive:meta.media.0.codec.bit_rate">10475256</property>
  <property name="kdenlive:meta.attr.0.stream.creation_time.markup">2017-08-19T16:17:40.000000Z</property>
  <property name="kdenlive:meta.attr.0.stream.language.markup">eng</property>
  <property name="kdenlive:meta.media.1.stream.type">audio</property>
  <property name="kdenlive:meta.media.1.codec.sample_fmt">s16</property>
  <property name="kdenlive:meta.media.1.codec.sample_rate">24000</property>
  <property name="kdenlive:meta.media.1.codec.channels">1</property>
  <property name="kdenlive:meta.media.1.codec.name">pcm_s16le</property>
  <property name="kdenlive:meta.media.1.codec.long_name">PCM signed 16-bit little-endian</property>
  <property name="kdenlive:meta.media.1.codec.bit_rate">384000</property>
  <property name="kdenlive:meta.attr.1.stream.creation_time.markup">2017-08-19T16:17:40.000000Z</property>
  <property name="kdenlive:meta.attr.1.stream.language.markup">eng</property>
  <property name="kdenlive:meta.attr.major_brand.markup">qt  </property>
  <property name="kdenlive:meta.attr.minor_version.markup">537331968</property>
  <property name="kdenlive:meta.attr.compatible_brands.markup">qt  niko</property>
  <property name="kdenlive:meta.attr.creation_time.markup">2017-08-19T16:17:40.000000Z</property>
  <property name="kdenlive:meta.media.sample_aspect_num">1</property>
  <property name="kdenlive:meta.media.sample_aspect_den">1</property>
  <property name="kdenlive:meta.media.frame_rate_num">25</property>
  <property name="kdenlive:meta.media.frame_rate_den">1</property>
  <property name="kdenlive:meta.media.colorspace">601</property>
  <property name="kdenlive:meta.media.color_trc">4</property>
  <property name="kdenlive:meta.media.width">1280</property>
  <property name="kdenlive:meta.media.height">720</property>
  <property name="kdenlive:meta.media.top_field_first">0</property>
  <property name="kdenlive:meta.media.progressive">1</property>
  <property name="xml">was here</property>
  <property name="meta.media.frame_rate_num">25</property>
  <property name="meta.media.frame_rate_den">1</property>
  <property name="meta.media.colorspace">601</property>
  <property name="meta.media.color_trc">2</property>
  <property name="meta.media.width">640</property>
  <property name="meta.media.height">360</property>
  <property name="meta.media.top_field_first">0</property>
  <property name="meta.media.progressive">1</property>
 </producer>
 <producer id="21_playlist0" title="Anonymous Submission" out="521" in="0">
  <property name="length">00:00:20:22</property>
  <property name="eof">pause</property>
  <property name="resource">/home/nicolas/.cache/kdenlive/proxy/2a6457e600b6088f152cb2ca1912a5a9.mpg</property>
  <property name="meta.media.nb_streams">2</property>
  <property name="meta.media.0.stream.type">video</property>
  <property name="meta.media.0.stream.frame_rate">25</property>
  <property name="meta.media.0.stream.sample_aspect_ratio">0</property>
  <property name="meta.media.0.codec.width">640</property>
  <property name="meta.media.0.codec.height">360</property>
  <property name="meta.media.0.codec.rotate">0</property>
  <property name="meta.media.0.codec.frame_rate">25</property>
  <property name="meta.media.0.codec.pix_fmt">yuv420p</property>
  <property name="meta.media.0.codec.sample_aspect_ratio">1</property>
  <property name="meta.media.0.codec.colorspace">601</property>
  <property name="meta.media.0.codec.name">mpeg2video</property>
  <property name="meta.media.0.codec.long_name">MPEG-2 video</property>
  <property name="meta.media.0.codec.bit_rate">0</property>
  <property name="meta.media.1.stream.type">audio</property>
  <property name="meta.media.1.codec.sample_fmt">s16p</property>
  <property name="meta.media.1.codec.sample_rate">24000</property>
  <property name="meta.media.1.codec.channels">1</property>
  <property name="meta.media.1.codec.name">mp2</property>
  <property name="meta.media.1.codec.long_name">MP2 (MPEG audio layer 2)</property>
  <property name="meta.media.1.codec.bit_rate">128000</property>
  <property name="seekable">1</property>
  <property name="meta.media.sample_aspect_num">1</property>
  <property name="meta.media.sample_aspect_den">1</property>
  <property name="aspect_ratio">1</property>
  <property name="audio_index">1</property>
  <property name="video_index">0</property>
  <property name="mute_on_pause">1</property>
  <property name="mlt_service">avformat</property>
  <property name="kdenlive:file_size">28639646</property>
  <property name="kdenlive:file_hash">2a6457e600b6088f152cb2ca1912a5a9</property>
  <property name="kdenlive:proxy">/home/nicolas/.cache/kdenlive/proxy/2a6457e600b6088f152cb2ca1912a5a9.mpg</property>
  <property name="proxy_out">521</property>
  <property name="kdenlive:originalurl">3DSC_0044.MOV</property>
  <property name="global_feed">1</property>
  <property name="kdenlive:meta.media.nb_streams">2</property>
  <property name="kdenlive:meta.media.0.stream.type">video</property>
  <property name="kdenlive:meta.media.0.stream.frame_rate">25</property>
  <property name="kdenlive:meta.media.0.stream.sample_aspect_ratio">0</property>
  <property name="kdenlive:meta.media.0.codec.width">1280</property>
  <property name="kdenlive:meta.media.0.codec.height">720</property>
  <property name="kdenlive:meta.media.0.codec.rotate">0</property>
  <property name="kdenlive:meta.media.0.codec.frame_rate">25</property>
  <property name="kdenlive:meta.media.0.codec.pix_fmt">yuvj420p</property>
  <property name="kdenlive:meta.media.0.codec.sample_aspect_ratio">1</property>
  <property name="kdenlive:meta.media.0.codec.colorspace">601</property>
  <property name="kdenlive:meta.media.0.codec.color_trc">4</property>
  <property name="kdenlive:meta.media.0.codec.name">h264</property>
  <property name="kdenlive:meta.media.0.codec.long_name">H.264 / AVC / MPEG-4 AVC / MPEG-4 part 10</property>
  <property name="kdenlive:meta.media.0.codec.bit_rate">10542727</property>
  <property name="kdenlive:meta.attr.0.stream.creation_time.markup">2017-08-20T11:05:22.000000Z</property>
  <property name="kdenlive:meta.attr.0.stream.language.markup">eng</property>
  <property name="kdenlive:meta.media.1.stream.type">audio</property>
  <property name="kdenlive:meta.media.1.codec.sample_fmt">s16</property>
  <property name="kdenlive:meta.media.1.codec.sample_rate">24000</property>
  <property name="kdenlive:meta.media.1.codec.channels">1</property>
  <property name="kdenlive:meta.media.1.codec.name">pcm_s16le</property>
  <property name="kdenlive:meta.media.1.codec.long_name">PCM signed 16-bit little-endian</property>
  <property name="kdenlive:meta.media.1.codec.bit_rate">384000</property>
  <property name="kdenlive:meta.attr.1.stream.creation_time.markup">2017-08-20T11:05:22.000000Z</property>
  <property name="kdenlive:meta.attr.1.stream.language.markup">eng</property>
  <property name="kdenlive:meta.attr.major_brand.markup">qt  </property>
  <property name="kdenlive:meta.attr.minor_version.markup">537331968</property>
  <property name="kdenlive:meta.attr.compatible_brands.markup">qt  niko</property>
  <property name="kdenlive:meta.attr.creation_time.markup">2017-08-20T11:05:22.000000Z</property>
  <property name="kdenlive:meta.media.sample_aspect_num">1</property>
  <property name="kdenlive:meta.media.sample_aspect_den">1</property>
  <property name="kdenlive:meta.media.frame_rate_num">25</property>
  <property name="kdenlive:meta.media.frame_rate_den">1</property>
  <property name="kdenlive:meta.media.colorspace">601</property>
  <property name="kdenlive:meta.media.color_trc">4</property>
  <property name="kdenlive:meta.media.width">1280</property>
  <property name="kdenlive:meta.media.height">720</property>
  <property name="kdenlive:meta.media.top_field_first">0</property>
  <property name="kdenlive:meta.media.progressive">1</property>
  <property name="xml">was here</property>
  <property name="meta.media.frame_rate_num">25</property>
  <property name="meta.media.frame_rate_den">1</property>
  <property name="meta.media.colorspace">601</property>
  <property name="meta.media.color_trc">2</property>
  <property name="meta.media.width">640</property>
  <property name="meta.media.height">360</property>
  <property name="meta.media.top_field_first">0</property>
  <property name="meta.media.progressive">1</property>
 </producer>
 <producer id="26_playlist0" title="Anonymous Submission" out="833" in="0">
  <property name="length">00:00:33:09</property>
  <property name="eof">pause</property>
  <property name="resource">/home/nicolas/.cache/kdenlive/proxy/81906e41b255987a5c0d3d7f21f37da7.mpg</property>
  <property name="meta.media.nb_streams">2</property>
  <property name="meta.media.0.stream.type">video</property>
  <property name="meta.media.0.stream.frame_rate">25</property>
  <property name="meta.media.0.stream.sample_aspect_ratio">0</property>
  <property name="meta.media.0.codec.width">640</property>
  <property name="meta.media.0.codec.height">360</property>
  <property name="meta.media.0.codec.rotate">0</property>
  <property name="meta.media.0.codec.frame_rate">25</property>
  <property name="meta.media.0.codec.pix_fmt">yuv420p</property>
  <property name="meta.media.0.codec.sample_aspect_ratio">1</property>
  <property name="meta.media.0.codec.colorspace">601</property>
  <property name="meta.media.0.codec.name">mpeg2video</property>
  <property name="meta.media.0.codec.long_name">MPEG-2 video</property>
  <property name="meta.media.0.codec.bit_rate">0</property>
  <property name="meta.media.1.stream.type">audio</property>
  <property name="meta.media.1.codec.sample_fmt">s16p</property>
  <property name="meta.media.1.codec.sample_rate">24000</property>
  <property name="meta.media.1.codec.channels">1</property>
  <property name="meta.media.1.codec.name">mp2</property>
  <property name="meta.media.1.codec.long_name">MP2 (MPEG audio layer 2)</property>
  <property name="meta.media.1.codec.bit_rate">128000</property>
  <property name="seekable">1</property>
  <property name="meta.media.sample_aspect_num">1</property>
  <property name="meta.media.sample_aspect_den">1</property>
  <property name="aspect_ratio">1</property>
  <property name="audio_index">1</property>
  <property name="video_index">0</property>
  <property name="mute_on_pause">1</property>
  <property name="mlt_service">avformat</property>
  <property name="kdenlive:file_size">45559052</property>
  <property name="kdenlive:file_hash">81906e41b255987a5c0d3d7f21f37da7</property>
  <property name="kdenlive:proxy">/home/nicolas/.cache/kdenlive/proxy/81906e41b255987a5c0d3d7f21f37da7.mpg</property>
  <property name="proxy_out">833</property>
  <property name="kdenlive:originalurl">3DSC_0047.MOV</property>
  <property name="global_feed">1</property>
  <property name="kdenlive:meta.media.nb_streams">2</property>
  <property name="kdenlive:meta.media.0.stream.type">video</property>
  <property name="kdenlive:meta.media.0.stream.frame_rate">25</property>
  <property name="kdenlive:meta.media.0.stream.sample_aspect_ratio">0</property>
  <property name="kdenlive:meta.media.0.codec.width">1280</property>
  <property name="kdenlive:meta.media.0.codec.height">720</property>
  <property name="kdenlive:meta.media.0.codec.rotate">0</property>
  <property name="kdenlive:meta.media.0.codec.frame_rate">25</property>
  <property name="kdenlive:meta.media.0.codec.pix_fmt">yuvj420p</property>
  <property name="kdenlive:meta.media.0.codec.sample_aspect_ratio">1</property>
  <property name="kdenlive:meta.media.0.codec.colorspace">601</property>
  <property name="kdenlive:meta.media.0.codec.color_trc">4</property>
  <property name="kdenlive:meta.media.0.codec.name">h264</property>
  <property name="kdenlive:meta.media.0.codec.long_name">H.264 / AVC / MPEG-4 AVC / MPEG-4 part 10</property>
  <property name="kdenlive:meta.media.0.codec.bit_rate">10512249</property>
  <property name="kdenlive:meta.attr.0.stream.creation_time.markup">2017-08-20T11:08:11.000000Z</property>
  <property name="kdenlive:meta.attr.0.stream.language.markup">eng</property>
  <property name="kdenlive:meta.media.1.stream.type">audio</property>
  <property name="kdenlive:meta.media.1.codec.sample_fmt">s16</property>
  <property name="kdenlive:meta.media.1.codec.sample_rate">24000</property>
  <property name="kdenlive:meta.media.1.codec.channels">1</property>
  <property name="kdenlive:meta.media.1.codec.name">pcm_s16le</property>
  <property name="kdenlive:meta.media.1.codec.long_name">PCM signed 16-bit little-endian</property>
  <property name="kdenlive:meta.media.1.codec.bit_rate">384000</property>
  <property name="kdenlive:meta.attr.1.stream.creation_time.markup">2017-08-20T11:08:11.000000Z</property>
  <property name="kdenlive:meta.attr.1.stream.language.markup">eng</property>
  <property name="kdenlive:meta.attr.major_brand.markup">qt  </property>
  <property name="kdenlive:meta.attr.minor_version.markup">537331968</property>
  <property name="kdenlive:meta.attr.compatible_brands.markup">qt  niko</property>
  <property name="kdenlive:meta.attr.creation_time.markup">2017-08-20T11:08:11.000000Z</property>
  <property name="kdenlive:meta.media.sample_aspect_num">1</property>
  <property name="kdenlive:meta.media.sample_aspect_den">1</property>
  <property name="kdenlive:meta.media.frame_rate_num">25</property>
  <property name="kdenlive:meta.media.frame_rate_den">1</property>
  <property name="kdenlive:meta.media.colorspace">601</property>
  <property name="kdenlive:meta.media.color_trc">4</property>
  <property name="kdenlive:meta.media.width">1280</property>
  <property name="kdenlive:meta.media.height">720</property>
  <property name="kdenlive:meta.media.top_field_first">0</property>
  <property name="kdenlive:meta.media.progressive">1</property>
  <property name="xml">was here</property>
  <property name="meta.media.frame_rate_num">25</property>
  <property name="meta.media.frame_rate_den">1</property>
  <property name="meta.media.colorspace">601</property>
  <property name="meta.media.color_trc">2</property>
  <property name="meta.media.width">640</property>
  <property name="meta.media.height">360</property>
  <property name="meta.media.top_field_first">0</property>
  <property name="meta.media.progressive">1</property>
 </producer>
 <producer id="27_playlist0" title="Anonymous Submission" out="611" in="0">
  <property name="length">00:00:24:12</property>
  <property name="eof">pause</property>
  <property name="resource">/home/nicolas/.cache/kdenlive/proxy/09cf53ad67c062fe3c84a61bcbd151ad.mpg</property>
  <property name="meta.media.nb_streams">2</property>
  <property name="meta.media.0.stream.type">video</property>
  <property name="meta.media.0.stream.frame_rate">25</property>
  <property name="meta.media.0.stream.sample_aspect_ratio">0</property>
  <property name="meta.media.0.codec.width">640</property>
  <property name="meta.media.0.codec.height">360</property>
  <property name="meta.media.0.codec.rotate">0</property>
  <property name="meta.media.0.codec.frame_rate">25</property>
  <property name="meta.media.0.codec.pix_fmt">yuv420p</property>
  <property name="meta.media.0.codec.sample_aspect_ratio">1</property>
  <property name="meta.media.0.codec.colorspace">601</property>
  <property name="meta.media.0.codec.name">mpeg2video</property>
  <property name="meta.media.0.codec.long_name">MPEG-2 video</property>
  <property name="meta.media.0.codec.bit_rate">0</property>
  <property name="meta.media.1.stream.type">audio</property>
  <property name="meta.media.1.codec.sample_fmt">s16p</property>
  <property name="meta.media.1.codec.sample_rate">24000</property>
  <property name="meta.media.1.codec.channels">1</property>
  <property name="meta.media.1.codec.name">mp2</property>
  <property name="meta.media.1.codec.long_name">MP2 (MPEG audio layer 2)</property>
  <property name="meta.media.1.codec.bit_rate">128000</property>
  <property name="seekable">1</property>
  <property name="meta.media.sample_aspect_num">1</property>
  <property name="meta.media.sample_aspect_den">1</property>
  <property name="aspect_ratio">1</property>
  <property name="audio_index">1</property>
  <property name="video_index">0</property>
  <property name="mute_on_pause">1</property>
  <property name="mlt_service">avformat</property>
  <property name="kdenlive:file_size">35196515</property>
  <property name="kdenlive:file_hash">09cf53ad67c062fe3c84a61bcbd151ad</property>
  <property name="kdenlive:proxy">/home/nicolas/.cache/kdenlive/proxy/09cf53ad67c062fe3c84a61bcbd151ad.mpg</property>
  <property name="proxy_out">611</property>
  <property name="kdenlive:originalurl">2DSC_0017.MOV</property>
  <property name="global_feed">1</property>
  <property name="kdenlive:meta.media.nb_streams">2</property>
  <property name="kdenlive:meta.media.0.stream.type">video</property>
  <property name="kdenlive:meta.media.0.stream.frame_rate">25</property>
  <property name="kdenlive:meta.media.0.stream.sample_aspect_ratio">0</property>
  <property name="kdenlive:meta.media.0.codec.width">1280</property>
  <property name="kdenlive:meta.media.0.codec.height">720</property>
  <property name="kdenlive:meta.media.0.codec.rotate">0</property>
  <property name="kdenlive:meta.media.0.codec.frame_rate">25</property>
  <property name="kdenlive:meta.media.0.codec.pix_fmt">yuvj420p</property>
  <property name="kdenlive:meta.media.0.codec.sample_aspect_ratio">1</property>
  <property name="kdenlive:meta.media.0.codec.colorspace">601</property>
  <property name="kdenlive:meta.media.0.codec.color_trc">4</property>
  <property name="kdenlive:meta.media.0.codec.name">h264</property>
  <property name="kdenlive:meta.media.0.codec.long_name">H.264 / AVC / MPEG-4 AVC / MPEG-4 part 10</property>
  <property name="kdenlive:meta.media.0.codec.bit_rate">11075678</property>
  <property name="kdenlive:meta.attr.0.stream.creation_time.markup">2017-08-19T17:02:48.000000Z</property>
  <property name="kdenlive:meta.attr.0.stream.language.markup">eng</property>
  <property name="kdenlive:meta.media.1.stream.type">audio</property>
  <property name="kdenlive:meta.media.1.codec.sample_fmt">s16</property>
  <property name="kdenlive:meta.media.1.codec.sample_rate">24000</property>
  <property name="kdenlive:meta.media.1.codec.channels">1</property>
  <property name="kdenlive:meta.media.1.codec.name">pcm_s16le</property>
  <property name="kdenlive:meta.media.1.codec.long_name">PCM signed 16-bit little-endian</property>
  <property name="kdenlive:meta.media.1.codec.bit_rate">384000</property>
  <property name="kdenlive:meta.attr.1.stream.creation_time.markup">2017-08-19T17:02:48.000000Z</property>
  <property name="kdenlive:meta.attr.1.stream.language.markup">eng</property>
  <property name="kdenlive:meta.attr.major_brand.markup">qt  </property>
  <property name="kdenlive:meta.attr.minor_version.markup">537331968</property>
  <property name="kdenlive:meta.attr.compatible_brands.markup">qt  niko</property>
  <property name="kdenlive:meta.attr.creation_time.markup">2017-08-19T17:02:48.000000Z</property>
  <property name="kdenlive:meta.media.sample_aspect_num">1</property>
  <property name="kdenlive:meta.media.sample_aspect_den">1</property>
  <property name="kdenlive:meta.media.frame_rate_num">25</property>
  <property name="kdenlive:meta.media.frame_rate_den">1</property>
  <property name="kdenlive:meta.media.colorspace">601</property>
  <property name="kdenlive:meta.media.color_trc">4</property>
  <property name="kdenlive:meta.media.width">1280</property>
  <property name="kdenlive:meta.media.height">720</property>
  <property name="kdenlive:meta.media.top_field_first">0</property>
  <property name="kdenlive:meta.media.progressive">1</property>
  <property name="xml">was here</property>
  <property name="meta.media.frame_rate_num">25</property>
  <property name="meta.media.frame_rate_den">1</property>
  <property name="meta.media.colorspace">601</property>
  <property name="meta.media.color_trc">2</property>
  <property name="meta.media.width">640</property>
  <property name="meta.media.height">360</property>
  <property name="meta.media.top_field_first">0</property>
  <property name="meta.media.progressive">1</property>
 </producer>
 <producer id="slowmotion:28:1,1:1:0" out="2309" in="0">
  <property name="length">2310</property>
  <property name="eof">pause</property>
  <property name="resource">1,1:/home/nicolas/.cache/kdenlive/proxy/5bf0a75b03e41d632270cdde8b3231b0.mpg</property>
  <property name="aspect_ratio">1</property>
  <property name="meta.media.nb_streams">2</property>
  <property name="meta.media.0.stream.type">video</property>
  <property name="meta.media.0.stream.frame_rate">25</property>
  <property name="meta.media.0.stream.sample_aspect_ratio">0</property>
  <property name="meta.media.0.codec.width">640</property>
  <property name="meta.media.0.codec.height">360</property>
  <property name="meta.media.0.codec.rotate">0</property>
  <property name="meta.media.0.codec.frame_rate">25</property>
  <property name="meta.media.0.codec.pix_fmt">yuv420p</property>
  <property name="meta.media.0.codec.sample_aspect_ratio">1</property>
  <property name="meta.media.0.codec.colorspace">601</property>
  <property name="meta.media.0.codec.name">mpeg2video</property>
  <property name="meta.media.0.codec.long_name">MPEG-2 video</property>
  <property name="meta.media.0.codec.bit_rate">0</property>
  <property name="meta.media.1.stream.type">audio</property>
  <property name="meta.media.1.codec.sample_fmt">s16p</property>
  <property name="meta.media.1.codec.sample_rate">24000</property>
  <property name="meta.media.1.codec.channels">1</property>
  <property name="meta.media.1.codec.name">mp2</property>
  <property name="meta.media.1.codec.long_name">MP2 (MPEG audio layer 2)</property>
  <property name="meta.media.1.codec.bit_rate">128000</property>
  <property name="seekable">1</property>
  <property name="meta.media.sample_aspect_num">1</property>
  <property name="meta.media.sample_aspect_den">1</property>
  <property name="audio_index">1</property>
  <property name="video_index">0</property>
  <property name="mute_on_pause">1</property>
  <property name="warp_speed">1,1</property>
  <property name="warp_resource">/home/nicolas/.cache/kdenlive/proxy/5bf0a75b03e41d632270cdde8b3231b0.mpg</property>
  <property name="mlt_service">timewarp</property>
  <property name="kdenlive:proxy">/home/nicolas/.cache/kdenlive/proxy/5bf0a75b03e41d632270cdde8b3231b0.mpg</property>
  <property name="kdenlive:originalurl">3DSC_0124.MOV</property>
  <property name="meta.media.frame_rate_num">25</property>
  <property name="meta.media.frame_rate_den">1</property>
  <property name="meta.media.colorspace">601</property>
  <property name="meta.media.color_trc">2</property>
  <property name="meta.media.width">640</property>
  <property name="meta.media.height">360</property>
  <property name="meta.media.top_field_first">0</property>
  <property name="meta.media.progressive">1</property>
 </producer>
 <producer id="29_playlist0" title="Anonymous Submission" out="470" in="0">
  <property name="length">00:00:18:21</property>
  <property name="eof">pause</property>
  <property name="resource">/home/nicolas/.cache/kdenlive/proxy/5ec35c6c467a6e80ba8805dda0cee225.mpg</property>
  <property name="meta.media.nb_streams">2</property>
  <property name="meta.media.0.stream.type">video</property>
  <property name="meta.media.0.stream.frame_rate">25</property>
  <property name="meta.media.0.stream.sample_aspect_ratio">0</property>
  <property name="meta.media.0.codec.width">640</property>
  <property name="meta.media.0.codec.height">360</property>
  <property name="meta.media.0.codec.rotate">0</property>
  <property name="meta.media.0.codec.frame_rate">25</property>
  <property name="meta.media.0.codec.pix_fmt">yuv420p</property>
  <property name="meta.media.0.codec.sample_aspect_ratio">1</property>
  <property name="meta.media.0.codec.colorspace">601</property>
  <property name="meta.media.0.codec.name">mpeg2video</property>
  <property name="meta.media.0.codec.long_name">MPEG-2 video</property>
  <property name="meta.media.0.codec.bit_rate">0</property>
  <property name="meta.media.1.stream.type">audio</property>
  <property name="meta.media.1.codec.sample_fmt">s16p</property>
  <property name="meta.media.1.codec.sample_rate">24000</property>
  <property name="meta.media.1.codec.channels">1</property>
  <property name="meta.media.1.codec.name">mp2</property>
  <property name="meta.media.1.codec.long_name">MP2 (MPEG audio layer 2)</property>
  <property name="meta.media.1.codec.bit_rate">128000</property>
  <property name="seekable">1</property>
  <property name="meta.media.sample_aspect_num">1</property>
  <property name="meta.media.sample_aspect_den">1</property>
  <property name="aspect_ratio">1</property>
  <property name="audio_index">1</property>
  <property name="video_index">0</property>
  <property name="mute_on_pause">1</property>
  <property name="mlt_service">avformat</property>
  <property name="kdenlive:file_size">25924490</property>
  <property name="kdenlive:file_hash">5ec35c6c467a6e80ba8805dda0cee225</property>
  <property name="kdenlive:proxy">/home/nicolas/.cache/kdenlive/proxy/5ec35c6c467a6e80ba8805dda0cee225.mpg</property>
  <property name="proxy_out">470</property>
  <property name="kdenlive:originalurl">3DSC_0170.MOV</property>
  <property name="global_feed">1</property>
  <property name="kdenlive:meta.media.nb_streams">2</property>
  <property name="kdenlive:meta.media.0.stream.type">video</property>
  <property name="kdenlive:meta.media.0.stream.frame_rate">25</property>
  <property name="kdenlive:meta.media.0.stream.sample_aspect_ratio">0</property>
  <property name="kdenlive:meta.media.0.codec.width">1280</property>
  <property name="kdenlive:meta.media.0.codec.height">720</property>
  <property name="kdenlive:meta.media.0.codec.rotate">0</property>
  <property name="kdenlive:meta.media.0.codec.frame_rate">25</property>
  <property name="kdenlive:meta.media.0.codec.pix_fmt">yuvj420p</property>
  <property name="kdenlive:meta.media.0.codec.sample_aspect_ratio">1</property>
  <property name="kdenlive:meta.media.0.codec.colorspace">601</property>
  <property name="kdenlive:meta.media.0.codec.color_trc">4</property>
  <property name="kdenlive:meta.media.0.codec.name">h264</property>
  <property name="kdenlive:meta.media.0.codec.long_name">H.264 / AVC / MPEG-4 AVC / MPEG-4 part 10</property>
  <property name="kdenlive:meta.media.0.codec.bit_rate">10572836</property>
  <property name="kdenlive:meta.attr.0.stream.creation_time.markup">2017-08-20T19:04:23.000000Z</property>
  <property name="kdenlive:meta.attr.0.stream.language.markup">eng</property>
  <property name="kdenlive:meta.media.1.stream.type">audio</property>
  <property name="kdenlive:meta.media.1.codec.sample_fmt">s16</property>
  <property name="kdenlive:meta.media.1.codec.sample_rate">24000</property>
  <property name="kdenlive:meta.media.1.codec.channels">1</property>
  <property name="kdenlive:meta.media.1.codec.name">pcm_s16le</property>
  <property name="kdenlive:meta.media.1.codec.long_name">PCM signed 16-bit little-endian</property>
  <property name="kdenlive:meta.media.1.codec.bit_rate">384000</property>
  <property name="kdenlive:meta.attr.1.stream.creation_time.markup">2017-08-20T19:04:23.000000Z</property>
  <property name="kdenlive:meta.attr.1.stream.language.markup">eng</property>
  <property name="kdenlive:meta.attr.major_brand.markup">qt  </property>
  <property name="kdenlive:meta.attr.minor_version.markup">537331968</property>
  <property name="kdenlive:meta.attr.compatible_brands.markup">qt  niko</property>
  <property name="kdenlive:meta.attr.creation_time.markup">2017-08-20T19:04:23.000000Z</property>
  <property name="kdenlive:meta.media.sample_aspect_num">1</property>
  <property name="kdenlive:meta.media.sample_aspect_den">1</property>
  <property name="kdenlive:meta.media.frame_rate_num">25</property>
  <property name="kdenlive:meta.media.frame_rate_den">1</property>
  <property name="kdenlive:meta.media.colorspace">601</property>
  <property name="kdenlive:meta.media.color_trc">4</property>
  <property name="kdenlive:meta.media.width">1280</property>
  <property name="kdenlive:meta.media.height">720</property>
  <property name="kdenlive:meta.media.top_field_first">0</property>
  <property name="kdenlive:meta.media.progressive">1</property>
  <property name="xml">was here</property>
  <property name="meta.media.frame_rate_num">25</property>
  <property name="meta.media.frame_rate_den">1</property>
  <property name="meta.media.colorspace">601</property>
  <property name="meta.media.color_trc">2</property>
  <property name="meta.media.width">640</property>
  <property name="meta.media.height">360</property>
  <property name="meta.media.top_field_first">0</property>
  <property name="meta.media.progressive">1</property>
 </producer>
 <producer id="30_playlist0" title="Anonymous Submission" out="896" in="0">
  <property name="length">00:00:35:22</property>
  <property name="eof">pause</property>
  <property name="resource">/home/nicolas/.cache/kdenlive/proxy/6813027f68548e8431feb7b3dbe025bb.mpg</property>
  <property name="meta.media.nb_streams">2</property>
  <property name="meta.media.0.stream.type">video</property>
  <property name="meta.media.0.stream.frame_rate">25</property>
  <property name="meta.media.0.stream.sample_aspect_ratio">0</property>
  <property name="meta.media.0.codec.width">640</property>
  <property name="meta.media.0.codec.height">360</property>
  <property name="meta.media.0.codec.rotate">0</property>
  <property name="meta.media.0.codec.frame_rate">25</property>
  <property name="meta.media.0.codec.pix_fmt">yuv420p</property>
  <property name="meta.media.0.codec.sample_aspect_ratio">1</property>
  <property name="meta.media.0.codec.colorspace">601</property>
  <property name="meta.media.0.codec.name">mpeg2video</property>
  <property name="meta.media.0.codec.long_name">MPEG-2 video</property>
  <property name="meta.media.0.codec.bit_rate">0</property>
  <property name="meta.media.1.stream.type">audio</property>
  <property name="meta.media.1.codec.sample_fmt">s16p</property>
  <property name="meta.media.1.codec.sample_rate">24000</property>
  <property name="meta.media.1.codec.channels">1</property>
  <property name="meta.media.1.codec.name">mp2</property>
  <property name="meta.media.1.codec.long_name">MP2 (MPEG audio layer 2)</property>
  <property name="meta.media.1.codec.bit_rate">128000</property>
  <property name="seekable">1</property>
  <property name="meta.media.sample_aspect_num">1</property>
  <property name="meta.media.sample_aspect_den">1</property>
  <property name="aspect_ratio">1</property>
  <property name="audio_index">1</property>
  <property name="video_index">0</property>
  <property name="mute_on_pause">1</property>
  <property name="mlt_service">avformat</property>
  <property name="kdenlive:file_size">50314254</property>
  <property name="kdenlive:file_hash">6813027f68548e8431feb7b3dbe025bb</property>
  <property name="kdenlive:proxy">/home/nicolas/.cache/kdenlive/proxy/6813027f68548e8431feb7b3dbe025bb.mpg</property>
  <property name="proxy_out">896</property>
  <property name="kdenlive:originalurl">3DSC_0152.MOV</property>
  <property name="global_feed">1</property>
  <property name="kdenlive:meta.media.nb_streams">2</property>
  <property name="kdenlive:meta.media.0.stream.type">video</property>
  <property name="kdenlive:meta.media.0.stream.frame_rate">25</property>
  <property name="kdenlive:meta.media.0.stream.sample_aspect_ratio">0</property>
  <property name="kdenlive:meta.media.0.codec.width">1280</property>
  <property name="kdenlive:meta.media.0.codec.height">720</property>
  <property name="kdenlive:meta.media.0.codec.rotate">0</property>
  <property name="kdenlive:meta.media.0.codec.frame_rate">25</property>
  <property name="kdenlive:meta.media.0.codec.pix_fmt">yuvj420p</property>
  <property name="kdenlive:meta.media.0.codec.sample_aspect_ratio">1</property>
  <property name="kdenlive:meta.media.0.codec.colorspace">601</property>
  <property name="kdenlive:meta.media.0.codec.color_trc">4</property>
  <property name="kdenlive:meta.media.0.codec.name">h264</property>
  <property name="kdenlive:meta.media.0.codec.long_name">H.264 / AVC / MPEG-4 AVC / MPEG-4 part 10</property>
  <property name="kdenlive:meta.media.0.codec.bit_rate">10807048</property>
  <property name="kdenlive:meta.attr.0.stream.creation_time.markup">2017-08-20T18:05:11.000000Z</property>
  <property name="kdenlive:meta.attr.0.stream.language.markup">eng</property>
  <property name="kdenlive:meta.media.1.stream.type">audio</property>
  <property name="kdenlive:meta.media.1.codec.sample_fmt">s16</property>
  <property name="kdenlive:meta.media.1.codec.sample_rate">24000</property>
  <property name="kdenlive:meta.media.1.codec.channels">1</property>
  <property name="kdenlive:meta.media.1.codec.name">pcm_s16le</property>
  <property name="kdenlive:meta.media.1.codec.long_name">PCM signed 16-bit little-endian</property>
  <property name="kdenlive:meta.media.1.codec.bit_rate">384000</property>
  <property name="kdenlive:meta.attr.1.stream.creation_time.markup">2017-08-20T18:05:11.000000Z</property>
  <property name="kdenlive:meta.attr.1.stream.language.markup">eng</property>
  <property name="kdenlive:meta.attr.major_brand.markup">qt  </property>
  <property name="kdenlive:meta.attr.minor_version.markup">537331968</property>
  <property name="kdenlive:meta.attr.compatible_brands.markup">qt  niko</property>
  <property name="kdenlive:meta.attr.creation_time.markup">2017-08-20T18:05:11.000000Z</property>
  <property name="kdenlive:meta.media.sample_aspect_num">1</property>
  <property name="kdenlive:meta.media.sample_aspect_den">1</property>
  <property name="kdenlive:meta.media.frame_rate_num">25</property>
  <property name="kdenlive:meta.media.frame_rate_den">1</property>
  <property name="kdenlive:meta.media.colorspace">601</property>
  <property name="kdenlive:meta.media.color_trc">4</property>
  <property name="kdenlive:meta.media.width">1280</property>
  <property name="kdenlive:meta.media.height">720</property>
  <property name="kdenlive:meta.media.top_field_first">0</property>
  <property name="kdenlive:meta.media.progressive">1</property>
  <property name="xml">was here</property>
  <property name="meta.media.frame_rate_num">25</property>
  <property name="meta.media.frame_rate_den">1</property>
  <property name="meta.media.colorspace">601</property>
  <property name="meta.media.color_trc">2</property>
  <property name="meta.media.width">640</property>
  <property name="meta.media.height">360</property>
  <property name="meta.media.top_field_first">0</property>
  <property name="meta.media.progressive">1</property>
 </producer>
 <producer id="slowmotion:30:0,8:1:0" out="1121" in="0">
  <property name="length">1122</property>
  <property name="eof">pause</property>
  <property name="resource">0,8:/home/nicolas/.cache/kdenlive/proxy/6813027f68548e8431feb7b3dbe025bb.mpg</property>
  <property name="aspect_ratio">1</property>
  <property name="meta.media.nb_streams">2</property>
  <property name="meta.media.0.stream.type">video</property>
  <property name="meta.media.0.stream.frame_rate">25</property>
  <property name="meta.media.0.stream.sample_aspect_ratio">0</property>
  <property name="meta.media.0.codec.width">640</property>
  <property name="meta.media.0.codec.height">360</property>
  <property name="meta.media.0.codec.rotate">0</property>
  <property name="meta.media.0.codec.frame_rate">25</property>
  <property name="meta.media.0.codec.pix_fmt">yuv420p</property>
  <property name="meta.media.0.codec.sample_aspect_ratio">1</property>
  <property name="meta.media.0.codec.colorspace">601</property>
  <property name="meta.media.0.codec.name">mpeg2video</property>
  <property name="meta.media.0.codec.long_name">MPEG-2 video</property>
  <property name="meta.media.0.codec.bit_rate">0</property>
  <property name="meta.media.1.stream.type">audio</property>
  <property name="meta.media.1.codec.sample_fmt">s16p</property>
  <property name="meta.media.1.codec.sample_rate">24000</property>
  <property name="meta.media.1.codec.channels">1</property>
  <property name="meta.media.1.codec.name">mp2</property>
  <property name="meta.media.1.codec.long_name">MP2 (MPEG audio layer 2)</property>
  <property name="meta.media.1.codec.bit_rate">128000</property>
  <property name="seekable">1</property>
  <property name="meta.media.sample_aspect_num">1</property>
  <property name="meta.media.sample_aspect_den">1</property>
  <property name="audio_index">1</property>
  <property name="video_index">0</property>
  <property name="mute_on_pause">1</property>
  <property name="warp_speed">0,8</property>
  <property name="warp_resource">/home/nicolas/.cache/kdenlive/proxy/6813027f68548e8431feb7b3dbe025bb.mpg</property>
  <property name="mlt_service">timewarp</property>
  <property name="kdenlive:proxy">/home/nicolas/.cache/kdenlive/proxy/6813027f68548e8431feb7b3dbe025bb.mpg</property>
  <property name="kdenlive:originalurl">3DSC_0152.MOV</property>
  <property name="meta.media.frame_rate_num">25</property>
  <property name="meta.media.frame_rate_den">1</property>
  <property name="meta.media.colorspace">601</property>
  <property name="meta.media.color_trc">2</property>
  <property name="meta.media.width">640</property>
  <property name="meta.media.height">360</property>
  <property name="meta.media.top_field_first">0</property>
  <property name="meta.media.progressive">1</property>
 </producer>
 <producer id="35_playlist0" title="Anonymous Submission" out="2153" in="0">
  <property name="length">00:01:26:04</property>
  <property name="eof">pause</property>
  <property name="resource">/home/nicolas/.cache/kdenlive/proxy/f4c4f69a65192a95db7e3af4a4bcab77.mpg</property>
  <property name="meta.media.nb_streams">2</property>
  <property name="meta.media.0.stream.type">video</property>
  <property name="meta.media.0.stream.frame_rate">25</property>
  <property name="meta.media.0.stream.sample_aspect_ratio">0</property>
  <property name="meta.media.0.codec.width">640</property>
  <property name="meta.media.0.codec.height">360</property>
  <property name="meta.media.0.codec.rotate">0</property>
  <property name="meta.media.0.codec.frame_rate">25</property>
  <property name="meta.media.0.codec.pix_fmt">yuv420p</property>
  <property name="meta.media.0.codec.sample_aspect_ratio">1</property>
  <property name="meta.media.0.codec.colorspace">601</property>
  <property name="meta.media.0.codec.name">mpeg2video</property>
  <property name="meta.media.0.codec.long_name">MPEG-2 video</property>
  <property name="meta.media.0.codec.bit_rate">0</property>
  <property name="meta.media.1.stream.type">audio</property>
  <property name="meta.media.1.codec.sample_fmt">s16p</property>
  <property name="meta.media.1.codec.sample_rate">24000</property>
  <property name="meta.media.1.codec.channels">1</property>
  <property name="meta.media.1.codec.name">mp2</property>
  <property name="meta.media.1.codec.long_name">MP2 (MPEG audio layer 2)</property>
  <property name="meta.media.1.codec.bit_rate">128000</property>
  <property name="seekable">1</property>
  <property name="meta.media.sample_aspect_num">1</property>
  <property name="meta.media.sample_aspect_den">1</property>
  <property name="aspect_ratio">1</property>
  <property name="audio_index">1</property>
  <property name="video_index">0</property>
  <property name="mute_on_pause">1</property>
  <property name="mlt_service">avformat</property>
  <property name="kdenlive:file_size">116384583</property>
  <property name="kdenlive:file_hash">f4c4f69a65192a95db7e3af4a4bcab77</property>
  <property name="kdenlive:proxy">/home/nicolas/.cache/kdenlive/proxy/f4c4f69a65192a95db7e3af4a4bcab77.mpg</property>
  <property name="proxy_out">2153</property>
  <property name="kdenlive:originalurl">2DSC_0035.MOV</property>
  <property name="global_feed">1</property>
  <property name="kdenlive:meta.media.nb_streams">2</property>
  <property name="kdenlive:meta.media.0.stream.type">video</property>
  <property name="kdenlive:meta.media.0.stream.frame_rate">25</property>
  <property name="kdenlive:meta.media.0.stream.sample_aspect_ratio">0</property>
  <property name="kdenlive:meta.media.0.codec.width">1280</property>
  <property name="kdenlive:meta.media.0.codec.height">720</property>
  <property name="kdenlive:meta.media.0.codec.rotate">0</property>
  <property name="kdenlive:meta.media.0.codec.frame_rate">25</property>
  <property name="kdenlive:meta.media.0.codec.pix_fmt">yuvj420p</property>
  <property name="kdenlive:meta.media.0.codec.sample_aspect_ratio">1</property>
  <property name="kdenlive:meta.media.0.codec.colorspace">601</property>
  <property name="kdenlive:meta.media.0.codec.color_trc">4</property>
  <property name="kdenlive:meta.media.0.codec.name">h264</property>
  <property name="kdenlive:meta.media.0.codec.long_name">H.264 / AVC / MPEG-4 AVC / MPEG-4 part 10</property>
  <property name="kdenlive:meta.media.0.codec.bit_rate">10409729</property>
  <property name="kdenlive:meta.attr.0.stream.creation_time.markup">2017-08-19T18:21:24.000000Z</property>
  <property name="kdenlive:meta.attr.0.stream.language.markup">eng</property>
  <property name="kdenlive:meta.media.1.stream.type">audio</property>
  <property name="kdenlive:meta.media.1.codec.sample_fmt">s16</property>
  <property name="kdenlive:meta.media.1.codec.sample_rate">24000</property>
  <property name="kdenlive:meta.media.1.codec.channels">1</property>
  <property name="kdenlive:meta.media.1.codec.name">pcm_s16le</property>
  <property name="kdenlive:meta.media.1.codec.long_name">PCM signed 16-bit little-endian</property>
  <property name="kdenlive:meta.media.1.codec.bit_rate">384000</property>
  <property name="kdenlive:meta.attr.1.stream.creation_time.markup">2017-08-19T18:21:24.000000Z</property>
  <property name="kdenlive:meta.attr.1.stream.language.markup">eng</property>
  <property name="kdenlive:meta.attr.major_brand.markup">qt  </property>
  <property name="kdenlive:meta.attr.minor_version.markup">537331968</property>
  <property name="kdenlive:meta.attr.compatible_brands.markup">qt  niko</property>
  <property name="kdenlive:meta.attr.creation_time.markup">2017-08-19T18:21:24.000000Z</property>
  <property name="kdenlive:meta.media.sample_aspect_num">1</property>
  <property name="kdenlive:meta.media.sample_aspect_den">1</property>
  <property name="kdenlive:meta.media.frame_rate_num">25</property>
  <property name="kdenlive:meta.media.frame_rate_den">1</property>
  <property name="kdenlive:meta.media.colorspace">601</property>
  <property name="kdenlive:meta.media.color_trc">4</property>
  <property name="kdenlive:meta.media.width">1280</property>
  <property name="kdenlive:meta.media.height">720</property>
  <property name="kdenlive:meta.media.top_field_first">0</property>
  <property name="kdenlive:meta.media.progressive">1</property>
  <property name="xml">was here</property>
  <property name="meta.media.frame_rate_num">25</property>
  <property name="meta.media.frame_rate_den">1</property>
  <property name="meta.media.colorspace">601</property>
  <property name="meta.media.color_trc">2</property>
  <property name="meta.media.width">640</property>
  <property name="meta.media.height">360</property>
  <property name="meta.media.top_field_first">0</property>
  <property name="meta.media.progressive">1</property>
 </producer>
 <producer id="38_playlist0" title="Anonymous Submission" out="1021" in="0">
  <property name="length">00:00:40:22</property>
  <property name="eof">pause</property>
  <property name="resource">/home/nicolas/.cache/kdenlive/proxy/2f707c519048798cf9bc5f361b32aa4e.mpg</property>
  <property name="meta.media.nb_streams">2</property>
  <property name="meta.media.0.stream.type">video</property>
  <property name="meta.media.0.stream.frame_rate">25</property>
  <property name="meta.media.0.stream.sample_aspect_ratio">0</property>
  <property name="meta.media.0.codec.width">640</property>
  <property name="meta.media.0.codec.height">360</property>
  <property name="meta.media.0.codec.rotate">0</property>
  <property name="meta.media.0.codec.frame_rate">25</property>
  <property name="meta.media.0.codec.pix_fmt">yuv420p</property>
  <property name="meta.media.0.codec.sample_aspect_ratio">1</property>
  <property name="meta.media.0.codec.colorspace">601</property>
  <property name="meta.media.0.codec.name">mpeg2video</property>
  <property name="meta.media.0.codec.long_name">MPEG-2 video</property>
  <property name="meta.media.0.codec.bit_rate">0</property>
  <property name="meta.media.1.stream.type">audio</property>
  <property name="meta.media.1.codec.sample_fmt">s16p</property>
  <property name="meta.media.1.codec.sample_rate">48000</property>
  <property name="meta.media.1.codec.channels">2</property>
  <property name="meta.media.1.codec.name">mp2</property>
  <property name="meta.media.1.codec.long_name">MP2 (MPEG audio layer 2)</property>
  <property name="meta.media.1.codec.bit_rate">128000</property>
  <property name="seekable">1</property>
  <property name="meta.media.sample_aspect_num">1</property>
  <property name="meta.media.sample_aspect_den">1</property>
  <property name="aspect_ratio">1</property>
  <property name="audio_index">1</property>
  <property name="video_index">0</property>
  <property name="mute_on_pause">1</property>
  <property name="mlt_service">avformat</property>
  <property name="kdenlive:file_size">24477569</property>
  <property name="kdenlive:file_hash">2f707c519048798cf9bc5f361b32aa4e</property>
  <property name="kdenlive:proxy">/home/nicolas/.cache/kdenlive/proxy/2f707c519048798cf9bc5f361b32aa4e.mpg</property>
  <property name="proxy_out">1021</property>
  <property name="kdenlive:originalurl">télé achat/chaussons chauffants/render partiel chaussons chauffants.mp4</property>
  <property name="global_feed">1</property>
  <property name="kdenlive:meta.media.nb_streams">2</property>
  <property name="kdenlive:meta.media.0.stream.type">video</property>
  <property name="kdenlive:meta.media.0.stream.frame_rate">25</property>
  <property name="kdenlive:meta.media.0.stream.sample_aspect_ratio">1</property>
  <property name="kdenlive:meta.media.0.codec.width">1280</property>
  <property name="kdenlive:meta.media.0.codec.height">720</property>
  <property name="kdenlive:meta.media.0.codec.rotate">0</property>
  <property name="kdenlive:meta.media.0.codec.frame_rate">25</property>
  <property name="kdenlive:meta.media.0.codec.pix_fmt">yuv420p</property>
  <property name="kdenlive:meta.media.0.codec.sample_aspect_ratio">1</property>
  <property name="kdenlive:meta.media.0.codec.colorspace">709</property>
  <property name="kdenlive:meta.media.0.codec.color_trc">1</property>
  <property name="kdenlive:meta.media.0.codec.name">h264</property>
  <property name="kdenlive:meta.media.0.codec.long_name">H.264 / AVC / MPEG-4 AVC / MPEG-4 part 10</property>
  <property name="kdenlive:meta.media.0.codec.bit_rate">4633731</property>
  <property name="kdenlive:meta.attr.0.stream.handler_name.markup">VideoHandler</property>
  <property name="kdenlive:meta.media.1.stream.type">audio</property>
  <property name="kdenlive:meta.media.1.codec.sample_fmt">fltp</property>
  <property name="kdenlive:meta.media.1.codec.sample_rate">48000</property>
  <property name="kdenlive:meta.media.1.codec.channels">2</property>
  <property name="kdenlive:meta.media.1.codec.name">aac</property>
  <property name="kdenlive:meta.media.1.codec.long_name">AAC (Advanced Audio Coding)</property>
  <property name="kdenlive:meta.media.1.codec.bit_rate">154604</property>
  <property name="kdenlive:meta.attr.1.stream.handler_name.markup">SoundHandler</property>
  <property name="kdenlive:meta.attr.major_brand.markup">isom</property>
  <property name="kdenlive:meta.attr.minor_version.markup">512</property>
  <property name="kdenlive:meta.attr.compatible_brands.markup">isomiso2avc1mp41</property>
  <property name="kdenlive:meta.attr.encoder.markup">Lavf57.56.101</property>
  <property name="kdenlive:meta.media.sample_aspect_num">1</property>
  <property name="kdenlive:meta.media.sample_aspect_den">1</property>
  <property name="kdenlive:meta.media.frame_rate_num">25</property>
  <property name="kdenlive:meta.media.frame_rate_den">1</property>
  <property name="kdenlive:meta.media.colorspace">709</property>
  <property name="kdenlive:meta.media.color_trc">1</property>
  <property name="kdenlive:meta.media.width">1280</property>
  <property name="kdenlive:meta.media.height">720</property>
  <property name="kdenlive:meta.media.top_field_first">0</property>
  <property name="kdenlive:meta.media.progressive">1</property>
  <property name="xml">was here</property>
  <property name="meta.media.frame_rate_num">25</property>
  <property name="meta.media.frame_rate_den">1</property>
  <property name="meta.media.colorspace">601</property>
  <property name="meta.media.color_trc">2</property>
  <property name="meta.media.width">640</property>
  <property name="meta.media.height">360</property>
  <property name="meta.media.top_field_first">0</property>
  <property name="meta.media.progressive">1</property>
 </producer>
 <producer id="40_playlist0" title="Anonymous Submission" out="318" in="0">
  <property name="length">00:00:12:19</property>
  <property name="eof">pause</property>
  <property name="resource">télé achat/chaussons chauffants/Smoke FX Bluescreen.mp4</property>
  <property name="audio_index">1</property>
  <property name="video_index">0</property>
  <property name="mute_on_pause">1</property>
  <property name="mlt_service">avformat-novalidate</property>
  <property name="seekable">1</property>
  <property name="aspect_ratio">1</property>
  <property name="kdenlive:file_size">553545</property>
  <property name="kdenlive:file_hash">ca6747c0f3a40c3bf39259b4eeaf8ee0</property>
  <property name="global_feed">1</property>
  <property name="xml">was here</property>
  <property name="meta.media.nb_streams">2</property>
  <property name="meta.media.0.stream.type">video</property>
  <property name="meta.media.0.stream.frame_rate">29,97</property>
  <property name="meta.media.0.stream.sample_aspect_ratio">0</property>
  <property name="meta.media.0.codec.width">640</property>
  <property name="meta.media.0.codec.height">360</property>
  <property name="meta.media.0.codec.rotate">0</property>
  <property name="meta.media.0.codec.frame_rate">29,97</property>
  <property name="meta.media.0.codec.pix_fmt">yuv420p</property>
  <property name="meta.media.0.codec.sample_aspect_ratio">1</property>
  <property name="meta.media.0.codec.colorspace">601</property>
  <property name="meta.media.0.codec.name">h264</property>
  <property name="meta.media.0.codec.long_name">H.264 / AVC / MPEG-4 AVC / MPEG-4 part 10</property>
  <property name="meta.media.0.codec.bit_rate">248053</property>
  <property name="meta.attr.0.stream.handler_name.markup">VideoHandler</property>
  <property name="meta.media.1.stream.type">audio</property>
  <property name="meta.media.1.codec.sample_fmt">fltp</property>
  <property name="meta.media.1.codec.sample_rate">44100</property>
  <property name="meta.media.1.codec.channels">2</property>
  <property name="meta.media.1.codec.name">aac</property>
  <property name="meta.media.1.codec.long_name">AAC (Advanced Audio Coding)</property>
  <property name="meta.media.1.codec.bit_rate">95999</property>
  <property name="meta.attr.1.stream.creation_time.markup">2014-03-05T12:40:27.000000Z</property>
  <property name="meta.attr.1.stream.handler_name.markup">IsoMedia File Produced by Google, 5-11-2011</property>
  <property name="meta.attr.major_brand.markup">mp42</property>
  <property name="meta.attr.minor_version.markup">0</property>
  <property name="meta.attr.compatible_brands.markup">isommp42</property>
  <property name="meta.attr.creation_time.markup">2014-03-05T12:40:27.000000Z</property>
  <property name="meta.media.sample_aspect_num">1</property>
  <property name="meta.media.sample_aspect_den">1</property>
  <property name="meta.media.frame_rate_num">30000</property>
  <property name="meta.media.frame_rate_den">1001</property>
  <property name="meta.media.colorspace">601</property>
  <property name="meta.media.color_trc">2</property>
  <property name="meta.media.width">640</property>
  <property name="meta.media.height">360</property>
  <property name="meta.media.top_field_first">0</property>
  <property name="meta.media.progressive">1</property>
 </producer>
 <producer id="45_playlist0" title="Anonymous Submission" out="1055" in="0">
  <property name="length">00:00:42:06</property>
  <property name="eof">pause</property>
  <property name="resource">/home/nicolas/.cache/kdenlive/proxy/b73c91a14d23e26d1b7c17e3eb3d1d92.mpg</property>
  <property name="meta.media.nb_streams">2</property>
  <property name="meta.media.0.stream.type">video</property>
  <property name="meta.media.0.stream.frame_rate">25</property>
  <property name="meta.media.0.stream.sample_aspect_ratio">0</property>
  <property name="meta.media.0.codec.width">640</property>
  <property name="meta.media.0.codec.height">360</property>
  <property name="meta.media.0.codec.rotate">0</property>
  <property name="meta.media.0.codec.frame_rate">25</property>
  <property name="meta.media.0.codec.pix_fmt">yuv420p</property>
  <property name="meta.media.0.codec.sample_aspect_ratio">1</property>
  <property name="meta.media.0.codec.colorspace">601</property>
  <property name="meta.media.0.codec.name">mpeg2video</property>
  <property name="meta.media.0.codec.long_name">MPEG-2 video</property>
  <property name="meta.media.0.codec.bit_rate">0</property>
  <property name="meta.media.1.stream.type">audio</property>
  <property name="meta.media.1.codec.sample_fmt">s16p</property>
  <property name="meta.media.1.codec.sample_rate">24000</property>
  <property name="meta.media.1.codec.channels">1</property>
  <property name="meta.media.1.codec.name">mp2</property>
  <property name="meta.media.1.codec.long_name">MP2 (MPEG audio layer 2)</property>
  <property name="meta.media.1.codec.bit_rate">128000</property>
  <property name="seekable">1</property>
  <property name="meta.media.sample_aspect_num">1</property>
  <property name="meta.media.sample_aspect_den">1</property>
  <property name="aspect_ratio">1</property>
  <property name="audio_index">1</property>
  <property name="video_index">0</property>
  <property name="mute_on_pause">1</property>
  <property name="mlt_service">avformat</property>
  <property name="kdenlive:file_size">58468307</property>
  <property name="kdenlive:file_hash">b73c91a14d23e26d1b7c17e3eb3d1d92</property>
  <property name="kdenlive:proxy">/home/nicolas/.cache/kdenlive/proxy/b73c91a14d23e26d1b7c17e3eb3d1d92.mpg</property>
  <property name="proxy_out">1055</property>
  <property name="kdenlive:originalurl">3DSC_0151.MOV</property>
  <property name="global_feed">1</property>
  <property name="kdenlive:meta.media.nb_streams">2</property>
  <property name="kdenlive:meta.media.0.stream.type">video</property>
  <property name="kdenlive:meta.media.0.stream.frame_rate">25</property>
  <property name="kdenlive:meta.media.0.stream.sample_aspect_ratio">0</property>
  <property name="kdenlive:meta.media.0.codec.width">1280</property>
  <property name="kdenlive:meta.media.0.codec.height">720</property>
  <property name="kdenlive:meta.media.0.codec.rotate">0</property>
  <property name="kdenlive:meta.media.0.codec.frame_rate">25</property>
  <property name="kdenlive:meta.media.0.codec.pix_fmt">yuvj420p</property>
  <property name="kdenlive:meta.media.0.codec.sample_aspect_ratio">1</property>
  <property name="kdenlive:meta.media.0.codec.colorspace">601</property>
  <property name="kdenlive:meta.media.0.codec.color_trc">4</property>
  <property name="kdenlive:meta.media.0.codec.name">h264</property>
  <property name="kdenlive:meta.media.0.codec.long_name">H.264 / AVC / MPEG-4 AVC / MPEG-4 part 10</property>
  <property name="kdenlive:meta.media.0.codec.bit_rate">10666003</property>
  <property name="kdenlive:meta.attr.0.stream.creation_time.markup">2017-08-20T18:03:06.000000Z</property>
  <property name="kdenlive:meta.attr.0.stream.language.markup">eng</property>
  <property name="kdenlive:meta.media.1.stream.type">audio</property>
  <property name="kdenlive:meta.media.1.codec.sample_fmt">s16</property>
  <property name="kdenlive:meta.media.1.codec.sample_rate">24000</property>
  <property name="kdenlive:meta.media.1.codec.channels">1</property>
  <property name="kdenlive:meta.media.1.codec.name">pcm_s16le</property>
  <property name="kdenlive:meta.media.1.codec.long_name">PCM signed 16-bit little-endian</property>
  <property name="kdenlive:meta.media.1.codec.bit_rate">384000</property>
  <property name="kdenlive:meta.attr.1.stream.creation_time.markup">2017-08-20T18:03:06.000000Z</property>
  <property name="kdenlive:meta.attr.1.stream.language.markup">eng</property>
  <property name="kdenlive:meta.attr.major_brand.markup">qt  </property>
  <property name="kdenlive:meta.attr.minor_version.markup">537331968</property>
  <property name="kdenlive:meta.attr.compatible_brands.markup">qt  niko</property>
  <property name="kdenlive:meta.attr.creation_time.markup">2017-08-20T18:03:06.000000Z</property>
  <property name="kdenlive:meta.media.sample_aspect_num">1</property>
  <property name="kdenlive:meta.media.sample_aspect_den">1</property>
  <property name="kdenlive:meta.media.frame_rate_num">25</property>
  <property name="kdenlive:meta.media.frame_rate_den">1</property>
  <property name="kdenlive:meta.media.colorspace">601</property>
  <property name="kdenlive:meta.media.color_trc">4</property>
  <property name="kdenlive:meta.media.width">1280</property>
  <property name="kdenlive:meta.media.height">720</property>
  <property name="kdenlive:meta.media.top_field_first">0</property>
  <property name="kdenlive:meta.media.progressive">1</property>
  <property name="xml">was here</property>
  <property name="meta.media.frame_rate_num">25</property>
  <property name="meta.media.frame_rate_den">1</property>
  <property name="meta.media.colorspace">601</property>
  <property name="meta.media.color_trc">2</property>
  <property name="meta.media.width">640</property>
  <property name="meta.media.height">360</property>
  <property name="meta.media.top_field_first">0</property>
  <property name="meta.media.progressive">1</property>
 </producer>
 <producer id="55_playlist0" title="Anonymous Submission" out="272" in="0">
  <property name="length">00:00:10:23</property>
  <property name="eof">pause</property>
  <property name="resource">/home/nicolas/.cache/kdenlive/proxy/283927e3dbf8ed8a8dc20611a087ef2c.mpg</property>
  <property name="meta.media.nb_streams">2</property>
  <property name="meta.media.0.stream.type">video</property>
  <property name="meta.media.0.stream.frame_rate">25</property>
  <property name="meta.media.0.stream.sample_aspect_ratio">0</property>
  <property name="meta.media.0.codec.width">640</property>
  <property name="meta.media.0.codec.height">360</property>
  <property name="meta.media.0.codec.rotate">0</property>
  <property name="meta.media.0.codec.frame_rate">25</property>
  <property name="meta.media.0.codec.pix_fmt">yuv420p</property>
  <property name="meta.media.0.codec.sample_aspect_ratio">1</property>
  <property name="meta.media.0.codec.colorspace">601</property>
  <property name="meta.media.0.codec.name">mpeg2video</property>
  <property name="meta.media.0.codec.long_name">MPEG-2 video</property>
  <property name="meta.media.0.codec.bit_rate">0</property>
  <property name="meta.media.1.stream.type">audio</property>
  <property name="meta.media.1.codec.sample_fmt">s16p</property>
  <property name="meta.media.1.codec.sample_rate">24000</property>
  <property name="meta.media.1.codec.channels">1</property>
  <property name="meta.media.1.codec.name">mp2</property>
  <property name="meta.media.1.codec.long_name">MP2 (MPEG audio layer 2)</property>
  <property name="meta.media.1.codec.bit_rate">128000</property>
  <property name="seekable">1</property>
  <property name="meta.media.sample_aspect_num">1</property>
  <property name="meta.media.sample_aspect_den">1</property>
  <property name="aspect_ratio">1</property>
  <property name="audio_index">1</property>
  <property name="video_index">0</property>
  <property name="mute_on_pause">1</property>
  <property name="mlt_service">avformat</property>
  <property name="kdenlive:file_size">14950482</property>
  <property name="kdenlive:file_hash">283927e3dbf8ed8a8dc20611a087ef2c</property>
  <property name="kdenlive:proxy">/home/nicolas/.cache/kdenlive/proxy/283927e3dbf8ed8a8dc20611a087ef2c.mpg</property>
  <property name="proxy_out">272</property>
  <property name="kdenlive:originalurl">3DSC_0018.MOV</property>
  <property name="global_feed">1</property>
  <property name="kdenlive:meta.media.nb_streams">2</property>
  <property name="kdenlive:meta.media.0.stream.type">video</property>
  <property name="kdenlive:meta.media.0.stream.frame_rate">25</property>
  <property name="kdenlive:meta.media.0.stream.sample_aspect_ratio">0</property>
  <property name="kdenlive:meta.media.0.codec.width">1280</property>
  <property name="kdenlive:meta.media.0.codec.height">720</property>
  <property name="kdenlive:meta.media.0.codec.rotate">0</property>
  <property name="kdenlive:meta.media.0.codec.frame_rate">25</property>
  <property name="kdenlive:meta.media.0.codec.pix_fmt">yuvj420p</property>
  <property name="kdenlive:meta.media.0.codec.sample_aspect_ratio">1</property>
  <property name="kdenlive:meta.media.0.codec.colorspace">601</property>
  <property name="kdenlive:meta.media.0.codec.color_trc">4</property>
  <property name="kdenlive:meta.media.0.codec.name">h264</property>
  <property name="kdenlive:meta.media.0.codec.long_name">H.264 / AVC / MPEG-4 AVC / MPEG-4 part 10</property>
  <property name="kdenlive:meta.media.0.codec.bit_rate">10488054</property>
  <property name="kdenlive:meta.attr.0.stream.creation_time.markup">2017-08-20T10:00:56.000000Z</property>
  <property name="kdenlive:meta.attr.0.stream.language.markup">eng</property>
  <property name="kdenlive:meta.media.1.stream.type">audio</property>
  <property name="kdenlive:meta.media.1.codec.sample_fmt">s16</property>
  <property name="kdenlive:meta.media.1.codec.sample_rate">24000</property>
  <property name="kdenlive:meta.media.1.codec.channels">1</property>
  <property name="kdenlive:meta.media.1.codec.name">pcm_s16le</property>
  <property name="kdenlive:meta.media.1.codec.long_name">PCM signed 16-bit little-endian</property>
  <property name="kdenlive:meta.media.1.codec.bit_rate">384000</property>
  <property name="kdenlive:meta.attr.1.stream.creation_time.markup">2017-08-20T10:00:56.000000Z</property>
  <property name="kdenlive:meta.attr.1.stream.language.markup">eng</property>
  <property name="kdenlive:meta.attr.major_brand.markup">qt  </property>
  <property name="kdenlive:meta.attr.minor_version.markup">537331968</property>
  <property name="kdenlive:meta.attr.compatible_brands.markup">qt  niko</property>
  <property name="kdenlive:meta.attr.creation_time.markup">2017-08-20T10:00:56.000000Z</property>
  <property name="kdenlive:meta.media.sample_aspect_num">1</property>
  <property name="kdenlive:meta.media.sample_aspect_den">1</property>
  <property name="kdenlive:meta.media.frame_rate_num">25</property>
  <property name="kdenlive:meta.media.frame_rate_den">1</property>
  <property name="kdenlive:meta.media.colorspace">601</property>
  <property name="kdenlive:meta.media.color_trc">4</property>
  <property name="kdenlive:meta.media.width">1280</property>
  <property name="kdenlive:meta.media.height">720</property>
  <property name="kdenlive:meta.media.top_field_first">0</property>
  <property name="kdenlive:meta.media.progressive">1</property>
  <property name="xml">was here</property>
  <property name="meta.media.frame_rate_num">25</property>
  <property name="meta.media.frame_rate_den">1</property>
  <property name="meta.media.colorspace">601</property>
  <property name="meta.media.color_trc">2</property>
  <property name="meta.media.width">640</property>
  <property name="meta.media.height">360</property>
  <property name="meta.media.top_field_first">0</property>
  <property name="meta.media.progressive">1</property>
 </producer>
 <producer id="slowmotion:57:1,12:1:0" out="3286" in="0">
  <property name="length">3287</property>
  <property name="eof">pause</property>
  <property name="resource">1,12:/home/nicolas/.cache/kdenlive/proxy/e13e871a8c4fbd3b09785f0cca07c91e.mpg</property>
  <property name="aspect_ratio">1</property>
  <property name="meta.media.nb_streams">2</property>
  <property name="meta.media.0.stream.type">video</property>
  <property name="meta.media.0.stream.frame_rate">25</property>
  <property name="meta.media.0.stream.sample_aspect_ratio">0</property>
  <property name="meta.media.0.codec.width">640</property>
  <property name="meta.media.0.codec.height">360</property>
  <property name="meta.media.0.codec.rotate">0</property>
  <property name="meta.media.0.codec.frame_rate">25</property>
  <property name="meta.media.0.codec.pix_fmt">yuv420p</property>
  <property name="meta.media.0.codec.sample_aspect_ratio">1</property>
  <property name="meta.media.0.codec.colorspace">601</property>
  <property name="meta.media.0.codec.name">mpeg2video</property>
  <property name="meta.media.0.codec.long_name">MPEG-2 video</property>
  <property name="meta.media.0.codec.bit_rate">0</property>
  <property name="meta.media.1.stream.type">audio</property>
  <property name="meta.media.1.codec.sample_fmt">s16p</property>
  <property name="meta.media.1.codec.sample_rate">24000</property>
  <property name="meta.media.1.codec.channels">1</property>
  <property name="meta.media.1.codec.name">mp2</property>
  <property name="meta.media.1.codec.long_name">MP2 (MPEG audio layer 2)</property>
  <property name="meta.media.1.codec.bit_rate">128000</property>
  <property name="seekable">1</property>
  <property name="meta.media.sample_aspect_num">1</property>
  <property name="meta.media.sample_aspect_den">1</property>
  <property name="audio_index">1</property>
  <property name="video_index">0</property>
  <property name="mute_on_pause">1</property>
  <property name="warp_speed">1,12</property>
  <property name="warp_resource">/home/nicolas/.cache/kdenlive/proxy/e13e871a8c4fbd3b09785f0cca07c91e.mpg</property>
  <property name="mlt_service">timewarp</property>
  <property name="kdenlive:proxy">/home/nicolas/.cache/kdenlive/proxy/e13e871a8c4fbd3b09785f0cca07c91e.mpg</property>
  <property name="kdenlive:originalurl">3DSC_0021.MOV</property>
  <property name="meta.media.frame_rate_num">25</property>
  <property name="meta.media.frame_rate_den">1</property>
  <property name="meta.media.colorspace">601</property>
  <property name="meta.media.color_trc">2</property>
  <property name="meta.media.width">640</property>
  <property name="meta.media.height">360</property>
  <property name="meta.media.top_field_first">0</property>
  <property name="meta.media.progressive">1</property>
 </producer>
 <producer id="slowmotion:57:1,2:1:0" out="3067" in="0">
  <property name="length">3068</property>
  <property name="eof">pause</property>
  <property name="resource">1,2:/home/nicolas/.cache/kdenlive/proxy/e13e871a8c4fbd3b09785f0cca07c91e.mpg</property>
  <property name="aspect_ratio">1</property>
  <property name="meta.media.nb_streams">2</property>
  <property name="meta.media.0.stream.type">video</property>
  <property name="meta.media.0.stream.frame_rate">25</property>
  <property name="meta.media.0.stream.sample_aspect_ratio">0</property>
  <property name="meta.media.0.codec.width">640</property>
  <property name="meta.media.0.codec.height">360</property>
  <property name="meta.media.0.codec.rotate">0</property>
  <property name="meta.media.0.codec.frame_rate">25</property>
  <property name="meta.media.0.codec.pix_fmt">yuv420p</property>
  <property name="meta.media.0.codec.sample_aspect_ratio">1</property>
  <property name="meta.media.0.codec.colorspace">601</property>
  <property name="meta.media.0.codec.name">mpeg2video</property>
  <property name="meta.media.0.codec.long_name">MPEG-2 video</property>
  <property name="meta.media.0.codec.bit_rate">0</property>
  <property name="meta.media.1.stream.type">audio</property>
  <property name="meta.media.1.codec.sample_fmt">s16p</property>
  <property name="meta.media.1.codec.sample_rate">24000</property>
  <property name="meta.media.1.codec.channels">1</property>
  <property name="meta.media.1.codec.name">mp2</property>
  <property name="meta.media.1.codec.long_name">MP2 (MPEG audio layer 2)</property>
  <property name="meta.media.1.codec.bit_rate">128000</property>
  <property name="seekable">1</property>
  <property name="meta.media.sample_aspect_num">1</property>
  <property name="meta.media.sample_aspect_den">1</property>
  <property name="audio_index">1</property>
  <property name="video_index">0</property>
  <property name="mute_on_pause">1</property>
  <property name="warp_speed">1,2</property>
  <property name="warp_resource">/home/nicolas/.cache/kdenlive/proxy/e13e871a8c4fbd3b09785f0cca07c91e.mpg</property>
  <property name="mlt_service">timewarp</property>
  <property name="kdenlive:proxy">/home/nicolas/.cache/kdenlive/proxy/e13e871a8c4fbd3b09785f0cca07c91e.mpg</property>
  <property name="kdenlive:originalurl">3DSC_0021.MOV</property>
  <property name="meta.media.frame_rate_num">25</property>
  <property name="meta.media.frame_rate_den">1</property>
  <property name="meta.media.colorspace">601</property>
  <property name="meta.media.color_trc">2</property>
  <property name="meta.media.width">640</property>
  <property name="meta.media.height">360</property>
  <property name="meta.media.top_field_first">0</property>
  <property name="meta.media.progressive">1</property>
 </producer>
 <producer id="slowmotion:57:1,25:1:0" out="2944" in="0">
  <property name="length">2945</property>
  <property name="eof">pause</property>
  <property name="resource">1,25:/home/nicolas/.cache/kdenlive/proxy/e13e871a8c4fbd3b09785f0cca07c91e.mpg</property>
  <property name="aspect_ratio">1</property>
  <property name="meta.media.nb_streams">2</property>
  <property name="meta.media.0.stream.type">video</property>
  <property name="meta.media.0.stream.frame_rate">25</property>
  <property name="meta.media.0.stream.sample_aspect_ratio">0</property>
  <property name="meta.media.0.codec.width">640</property>
  <property name="meta.media.0.codec.height">360</property>
  <property name="meta.media.0.codec.rotate">0</property>
  <property name="meta.media.0.codec.frame_rate">25</property>
  <property name="meta.media.0.codec.pix_fmt">yuv420p</property>
  <property name="meta.media.0.codec.sample_aspect_ratio">1</property>
  <property name="meta.media.0.codec.colorspace">601</property>
  <property name="meta.media.0.codec.name">mpeg2video</property>
  <property name="meta.media.0.codec.long_name">MPEG-2 video</property>
  <property name="meta.media.0.codec.bit_rate">0</property>
  <property name="meta.media.1.stream.type">audio</property>
  <property name="meta.media.1.codec.sample_fmt">s16p</property>
  <property name="meta.media.1.codec.sample_rate">24000</property>
  <property name="meta.media.1.codec.channels">1</property>
  <property name="meta.media.1.codec.name">mp2</property>
  <property name="meta.media.1.codec.long_name">MP2 (MPEG audio layer 2)</property>
  <property name="meta.media.1.codec.bit_rate">128000</property>
  <property name="seekable">1</property>
  <property name="meta.media.sample_aspect_num">1</property>
  <property name="meta.media.sample_aspect_den">1</property>
  <property name="audio_index">1</property>
  <property name="video_index">0</property>
  <property name="mute_on_pause">1</property>
  <property name="warp_speed">1,25</property>
  <property name="warp_resource">/home/nicolas/.cache/kdenlive/proxy/e13e871a8c4fbd3b09785f0cca07c91e.mpg</property>
  <property name="mlt_service">timewarp</property>
  <property name="kdenlive:proxy">/home/nicolas/.cache/kdenlive/proxy/e13e871a8c4fbd3b09785f0cca07c91e.mpg</property>
  <property name="kdenlive:originalurl">3DSC_0021.MOV</property>
  <property name="meta.media.frame_rate_num">25</property>
  <property name="meta.media.frame_rate_den">1</property>
  <property name="meta.media.colorspace">601</property>
  <property name="meta.media.color_trc">2</property>
  <property name="meta.media.width">640</property>
  <property name="meta.media.height">360</property>
  <property name="meta.media.top_field_first">0</property>
  <property name="meta.media.progressive">1</property>
 </producer>
 <producer id="slowmotion:57:1,3:1:0" out="2831" in="0">
  <property name="length">2832</property>
  <property name="eof">pause</property>
  <property name="resource">1,3:/home/nicolas/.cache/kdenlive/proxy/e13e871a8c4fbd3b09785f0cca07c91e.mpg</property>
  <property name="aspect_ratio">1</property>
  <property name="meta.media.nb_streams">2</property>
  <property name="meta.media.0.stream.type">video</property>
  <property name="meta.media.0.stream.frame_rate">25</property>
  <property name="meta.media.0.stream.sample_aspect_ratio">0</property>
  <property name="meta.media.0.codec.width">640</property>
  <property name="meta.media.0.codec.height">360</property>
  <property name="meta.media.0.codec.rotate">0</property>
  <property name="meta.media.0.codec.frame_rate">25</property>
  <property name="meta.media.0.codec.pix_fmt">yuv420p</property>
  <property name="meta.media.0.codec.sample_aspect_ratio">1</property>
  <property name="meta.media.0.codec.colorspace">601</property>
  <property name="meta.media.0.codec.name">mpeg2video</property>
  <property name="meta.media.0.codec.long_name">MPEG-2 video</property>
  <property name="meta.media.0.codec.bit_rate">0</property>
  <property name="meta.media.1.stream.type">audio</property>
  <property name="meta.media.1.codec.sample_fmt">s16p</property>
  <property name="meta.media.1.codec.sample_rate">24000</property>
  <property name="meta.media.1.codec.channels">1</property>
  <property name="meta.media.1.codec.name">mp2</property>
  <property name="meta.media.1.codec.long_name">MP2 (MPEG audio layer 2)</property>
  <property name="meta.media.1.codec.bit_rate">128000</property>
  <property name="seekable">1</property>
  <property name="meta.media.sample_aspect_num">1</property>
  <property name="meta.media.sample_aspect_den">1</property>
  <property name="audio_index">1</property>
  <property name="video_index">0</property>
  <property name="mute_on_pause">1</property>
  <property name="warp_speed">1,3</property>
  <property name="warp_resource">/home/nicolas/.cache/kdenlive/proxy/e13e871a8c4fbd3b09785f0cca07c91e.mpg</property>
  <property name="mlt_service">timewarp</property>
  <property name="kdenlive:proxy">/home/nicolas/.cache/kdenlive/proxy/e13e871a8c4fbd3b09785f0cca07c91e.mpg</property>
  <property name="kdenlive:originalurl">3DSC_0021.MOV</property>
  <property name="meta.media.frame_rate_num">25</property>
  <property name="meta.media.frame_rate_den">1</property>
  <property name="meta.media.colorspace">601</property>
  <property name="meta.media.color_trc">2</property>
  <property name="meta.media.width">640</property>
  <property name="meta.media.height">360</property>
  <property name="meta.media.top_field_first">0</property>
  <property name="meta.media.progressive">1</property>
 </producer>
 <producer id="slowmotion:57:1,4:1:0" out="2629" in="0">
  <property name="length">2630</property>
  <property name="eof">pause</property>
  <property name="resource">1,4:/home/nicolas/.cache/kdenlive/proxy/e13e871a8c4fbd3b09785f0cca07c91e.mpg</property>
  <property name="aspect_ratio">1</property>
  <property name="meta.media.nb_streams">2</property>
  <property name="meta.media.0.stream.type">video</property>
  <property name="meta.media.0.stream.frame_rate">25</property>
  <property name="meta.media.0.stream.sample_aspect_ratio">0</property>
  <property name="meta.media.0.codec.width">640</property>
  <property name="meta.media.0.codec.height">360</property>
  <property name="meta.media.0.codec.rotate">0</property>
  <property name="meta.media.0.codec.frame_rate">25</property>
  <property name="meta.media.0.codec.pix_fmt">yuv420p</property>
  <property name="meta.media.0.codec.sample_aspect_ratio">1</property>
  <property name="meta.media.0.codec.colorspace">601</property>
  <property name="meta.media.0.codec.name">mpeg2video</property>
  <property name="meta.media.0.codec.long_name">MPEG-2 video</property>
  <property name="meta.media.0.codec.bit_rate">0</property>
  <property name="meta.media.1.stream.type">audio</property>
  <property name="meta.media.1.codec.sample_fmt">s16p</property>
  <property name="meta.media.1.codec.sample_rate">24000</property>
  <property name="meta.media.1.codec.channels">1</property>
  <property name="meta.media.1.codec.name">mp2</property>
  <property name="meta.media.1.codec.long_name">MP2 (MPEG audio layer 2)</property>
  <property name="meta.media.1.codec.bit_rate">128000</property>
  <property name="seekable">1</property>
  <property name="meta.media.sample_aspect_num">1</property>
  <property name="meta.media.sample_aspect_den">1</property>
  <property name="audio_index">1</property>
  <property name="video_index">0</property>
  <property name="mute_on_pause">1</property>
  <property name="warp_speed">1,4</property>
  <property name="warp_resource">/home/nicolas/.cache/kdenlive/proxy/e13e871a8c4fbd3b09785f0cca07c91e.mpg</property>
  <property name="mlt_service">timewarp</property>
  <property name="kdenlive:proxy">/home/nicolas/.cache/kdenlive/proxy/e13e871a8c4fbd3b09785f0cca07c91e.mpg</property>
  <property name="kdenlive:originalurl">3DSC_0021.MOV</property>
  <property name="meta.media.frame_rate_num">25</property>
  <property name="meta.media.frame_rate_den">1</property>
  <property name="meta.media.colorspace">601</property>
  <property name="meta.media.color_trc">2</property>
  <property name="meta.media.width">640</property>
  <property name="meta.media.height">360</property>
  <property name="meta.media.top_field_first">0</property>
  <property name="meta.media.progressive">1</property>
 </producer>
 <producer id="slowmotion:58:1,5:1:0" out="211" in="0">
  <property name="length">212</property>
  <property name="eof">pause</property>
  <property name="resource">1,5:/home/nicolas/.cache/kdenlive/proxy/eeb71eb990ad7fb5120c60a6766b8697.mpg</property>
  <property name="aspect_ratio">1</property>
  <property name="meta.media.nb_streams">2</property>
  <property name="meta.media.0.stream.type">video</property>
  <property name="meta.media.0.stream.frame_rate">25</property>
  <property name="meta.media.0.stream.sample_aspect_ratio">0</property>
  <property name="meta.media.0.codec.width">640</property>
  <property name="meta.media.0.codec.height">360</property>
  <property name="meta.media.0.codec.rotate">0</property>
  <property name="meta.media.0.codec.frame_rate">25</property>
  <property name="meta.media.0.codec.pix_fmt">yuv420p</property>
  <property name="meta.media.0.codec.sample_aspect_ratio">1</property>
  <property name="meta.media.0.codec.colorspace">601</property>
  <property name="meta.media.0.codec.name">mpeg2video</property>
  <property name="meta.media.0.codec.long_name">MPEG-2 video</property>
  <property name="meta.media.0.codec.bit_rate">0</property>
  <property name="meta.media.1.stream.type">audio</property>
  <property name="meta.media.1.codec.sample_fmt">s16p</property>
  <property name="meta.media.1.codec.sample_rate">24000</property>
  <property name="meta.media.1.codec.channels">1</property>
  <property name="meta.media.1.codec.name">mp2</property>
  <property name="meta.media.1.codec.long_name">MP2 (MPEG audio layer 2)</property>
  <property name="meta.media.1.codec.bit_rate">128000</property>
  <property name="seekable">1</property>
  <property name="meta.media.sample_aspect_num">1</property>
  <property name="meta.media.sample_aspect_den">1</property>
  <property name="audio_index">1</property>
  <property name="video_index">0</property>
  <property name="mute_on_pause">1</property>
  <property name="warp_speed">1,5</property>
  <property name="warp_resource">/home/nicolas/.cache/kdenlive/proxy/eeb71eb990ad7fb5120c60a6766b8697.mpg</property>
  <property name="mlt_service">timewarp</property>
  <property name="kdenlive:proxy">/home/nicolas/.cache/kdenlive/proxy/eeb71eb990ad7fb5120c60a6766b8697.mpg</property>
  <property name="kdenlive:originalurl">3DSC_0022.MOV</property>
  <property name="meta.media.frame_rate_num">25</property>
  <property name="meta.media.frame_rate_den">1</property>
  <property name="meta.media.colorspace">601</property>
  <property name="meta.media.color_trc">2</property>
  <property name="meta.media.width">640</property>
  <property name="meta.media.height">360</property>
  <property name="meta.media.top_field_first">0</property>
  <property name="meta.media.progressive">1</property>
 </producer>
 <producer id="slowmotion:61:1,6:1:0" out="252" in="0">
  <property name="length">253</property>
  <property name="eof">pause</property>
  <property name="resource">1,6:/home/nicolas/.cache/kdenlive/proxy/4841b1449ff69ba80425f1423ad52f60.mpg</property>
  <property name="aspect_ratio">1</property>
  <property name="meta.media.nb_streams">2</property>
  <property name="meta.media.0.stream.type">video</property>
  <property name="meta.media.0.stream.frame_rate">25</property>
  <property name="meta.media.0.stream.sample_aspect_ratio">0</property>
  <property name="meta.media.0.codec.width">640</property>
  <property name="meta.media.0.codec.height">360</property>
  <property name="meta.media.0.codec.rotate">0</property>
  <property name="meta.media.0.codec.frame_rate">25</property>
  <property name="meta.media.0.codec.pix_fmt">yuv420p</property>
  <property name="meta.media.0.codec.sample_aspect_ratio">1</property>
  <property name="meta.media.0.codec.colorspace">601</property>
  <property name="meta.media.0.codec.name">mpeg2video</property>
  <property name="meta.media.0.codec.long_name">MPEG-2 video</property>
  <property name="meta.media.0.codec.bit_rate">0</property>
  <property name="meta.media.1.stream.type">audio</property>
  <property name="meta.media.1.codec.sample_fmt">s16p</property>
  <property name="meta.media.1.codec.sample_rate">24000</property>
  <property name="meta.media.1.codec.channels">1</property>
  <property name="meta.media.1.codec.name">mp2</property>
  <property name="meta.media.1.codec.long_name">MP2 (MPEG audio layer 2)</property>
  <property name="meta.media.1.codec.bit_rate">128000</property>
  <property name="seekable">1</property>
  <property name="meta.media.sample_aspect_num">1</property>
  <property name="meta.media.sample_aspect_den">1</property>
  <property name="audio_index">1</property>
  <property name="video_index">0</property>
  <property name="mute_on_pause">1</property>
  <property name="warp_speed">1,6</property>
  <property name="warp_resource">/home/nicolas/.cache/kdenlive/proxy/4841b1449ff69ba80425f1423ad52f60.mpg</property>
  <property name="mlt_service">timewarp</property>
  <property name="kdenlive:proxy">/home/nicolas/.cache/kdenlive/proxy/4841b1449ff69ba80425f1423ad52f60.mpg</property>
  <property name="kdenlive:originalurl">3DSC_0028.MOV</property>
  <property name="meta.media.frame_rate_num">25</property>
  <property name="meta.media.frame_rate_den">1</property>
  <property name="meta.media.colorspace">601</property>
  <property name="meta.media.color_trc">2</property>
  <property name="meta.media.width">640</property>
  <property name="meta.media.height">360</property>
  <property name="meta.media.top_field_first">0</property>
  <property name="meta.media.progressive">1</property>
 </producer>
 <producer id="63_playlist0" title="Anonymous Submission" out="449" in="0">
  <property name="length">00:00:18:00</property>
  <property name="eof">pause</property>
  <property name="resource">/home/nicolas/.cache/kdenlive/proxy/ff503f23b60274492defb06e861e2f8e.mpg</property>
  <property name="meta.media.nb_streams">2</property>
  <property name="meta.media.0.stream.type">video</property>
  <property name="meta.media.0.stream.frame_rate">25</property>
  <property name="meta.media.0.stream.sample_aspect_ratio">0</property>
  <property name="meta.media.0.codec.width">640</property>
  <property name="meta.media.0.codec.height">360</property>
  <property name="meta.media.0.codec.rotate">0</property>
  <property name="meta.media.0.codec.frame_rate">25</property>
  <property name="meta.media.0.codec.pix_fmt">yuv420p</property>
  <property name="meta.media.0.codec.sample_aspect_ratio">1</property>
  <property name="meta.media.0.codec.colorspace">601</property>
  <property name="meta.media.0.codec.name">mpeg2video</property>
  <property name="meta.media.0.codec.long_name">MPEG-2 video</property>
  <property name="meta.media.0.codec.bit_rate">0</property>
  <property name="meta.media.1.stream.type">audio</property>
  <property name="meta.media.1.codec.sample_fmt">s16p</property>
  <property name="meta.media.1.codec.sample_rate">24000</property>
  <property name="meta.media.1.codec.channels">1</property>
  <property name="meta.media.1.codec.name">mp2</property>
  <property name="meta.media.1.codec.long_name">MP2 (MPEG audio layer 2)</property>
  <property name="meta.media.1.codec.bit_rate">128000</property>
  <property name="seekable">1</property>
  <property name="meta.media.sample_aspect_num">1</property>
  <property name="meta.media.sample_aspect_den">1</property>
  <property name="aspect_ratio">1</property>
  <property name="audio_index">1</property>
  <property name="video_index">0</property>
  <property name="mute_on_pause">1</property>
  <property name="mlt_service">avformat</property>
  <property name="kdenlive:file_size">24768917</property>
  <property name="kdenlive:file_hash">ff503f23b60274492defb06e861e2f8e</property>
  <property name="kdenlive:proxy">/home/nicolas/.cache/kdenlive/proxy/ff503f23b60274492defb06e861e2f8e.mpg</property>
  <property name="proxy_out">449</property>
  <property name="kdenlive:originalurl">3DSC_0036.MOV</property>
  <property name="global_feed">1</property>
  <property name="kdenlive:meta.media.nb_streams">2</property>
  <property name="kdenlive:meta.media.0.stream.type">video</property>
  <property name="kdenlive:meta.media.0.stream.frame_rate">25</property>
  <property name="kdenlive:meta.media.0.stream.sample_aspect_ratio">0</property>
  <property name="kdenlive:meta.media.0.codec.width">1280</property>
  <property name="kdenlive:meta.media.0.codec.height">720</property>
  <property name="kdenlive:meta.media.0.codec.rotate">0</property>
  <property name="kdenlive:meta.media.0.codec.frame_rate">25</property>
  <property name="kdenlive:meta.media.0.codec.pix_fmt">yuvj420p</property>
  <property name="kdenlive:meta.media.0.codec.sample_aspect_ratio">1</property>
  <property name="kdenlive:meta.media.0.codec.colorspace">601</property>
  <property name="kdenlive:meta.media.0.codec.color_trc">4</property>
  <property name="kdenlive:meta.media.0.codec.name">h264</property>
  <property name="kdenlive:meta.media.0.codec.long_name">H.264 / AVC / MPEG-4 AVC / MPEG-4 part 10</property>
  <property name="kdenlive:meta.media.0.codec.bit_rate">10572108</property>
  <property name="kdenlive:meta.attr.0.stream.creation_time.markup">2017-08-20T10:35:32.000000Z</property>
  <property name="kdenlive:meta.attr.0.stream.language.markup">eng</property>
  <property name="kdenlive:meta.media.1.stream.type">audio</property>
  <property name="kdenlive:meta.media.1.codec.sample_fmt">s16</property>
  <property name="kdenlive:meta.media.1.codec.sample_rate">24000</property>
  <property name="kdenlive:meta.media.1.codec.channels">1</property>
  <property name="kdenlive:meta.media.1.codec.name">pcm_s16le</property>
  <property name="kdenlive:meta.media.1.codec.long_name">PCM signed 16-bit little-endian</property>
  <property name="kdenlive:meta.media.1.codec.bit_rate">384000</property>
  <property name="kdenlive:meta.attr.1.stream.creation_time.markup">2017-08-20T10:35:32.000000Z</property>
  <property name="kdenlive:meta.attr.1.stream.language.markup">eng</property>
  <property name="kdenlive:meta.attr.major_brand.markup">qt  </property>
  <property name="kdenlive:meta.attr.minor_version.markup">537331968</property>
  <property name="kdenlive:meta.attr.compatible_brands.markup">qt  niko</property>
  <property name="kdenlive:meta.attr.creation_time.markup">2017-08-20T10:35:32.000000Z</property>
  <property name="kdenlive:meta.media.sample_aspect_num">1</property>
  <property name="kdenlive:meta.media.sample_aspect_den">1</property>
  <property name="kdenlive:meta.media.frame_rate_num">25</property>
  <property name="kdenlive:meta.media.frame_rate_den">1</property>
  <property name="kdenlive:meta.media.colorspace">601</property>
  <property name="kdenlive:meta.media.color_trc">4</property>
  <property name="kdenlive:meta.media.width">1280</property>
  <property name="kdenlive:meta.media.height">720</property>
  <property name="kdenlive:meta.media.top_field_first">0</property>
  <property name="kdenlive:meta.media.progressive">1</property>
  <property name="xml">was here</property>
  <property name="meta.media.frame_rate_num">25</property>
  <property name="meta.media.frame_rate_den">1</property>
  <property name="meta.media.colorspace">601</property>
  <property name="meta.media.color_trc">2</property>
  <property name="meta.media.width">640</property>
  <property name="meta.media.height">360</property>
  <property name="meta.media.top_field_first">0</property>
  <property name="meta.media.progressive">1</property>
 </producer>
 <producer id="66_playlist0" title="Anonymous Submission" out="1236" in="0">
  <property name="length">00:00:49:12</property>
  <property name="eof">pause</property>
  <property name="resource">/home/nicolas/.cache/kdenlive/proxy/e94f0a6db4e60491b43552b1cc9bce18.mpg</property>
  <property name="meta.media.nb_streams">2</property>
  <property name="meta.media.0.stream.type">video</property>
  <property name="meta.media.0.stream.frame_rate">25</property>
  <property name="meta.media.0.stream.sample_aspect_ratio">0</property>
  <property name="meta.media.0.codec.width">640</property>
  <property name="meta.media.0.codec.height">360</property>
  <property name="meta.media.0.codec.rotate">0</property>
  <property name="meta.media.0.codec.frame_rate">25</property>
  <property name="meta.media.0.codec.pix_fmt">yuv420p</property>
  <property name="meta.media.0.codec.sample_aspect_ratio">1</property>
  <property name="meta.media.0.codec.colorspace">601</property>
  <property name="meta.media.0.codec.name">mpeg2video</property>
  <property name="meta.media.0.codec.long_name">MPEG-2 video</property>
  <property name="meta.media.0.codec.bit_rate">0</property>
  <property name="meta.media.1.stream.type">audio</property>
  <property name="meta.media.1.codec.sample_fmt">s16p</property>
  <property name="meta.media.1.codec.sample_rate">48000</property>
  <property name="meta.media.1.codec.channels">2</property>
  <property name="meta.media.1.codec.name">mp2</property>
  <property name="meta.media.1.codec.long_name">MP2 (MPEG audio layer 2)</property>
  <property name="meta.media.1.codec.bit_rate">128000</property>
  <property name="seekable">1</property>
  <property name="meta.media.sample_aspect_num">1</property>
  <property name="meta.media.sample_aspect_den">1</property>
  <property name="aspect_ratio">1</property>
  <property name="audio_index">1</property>
  <property name="video_index">0</property>
  <property name="mute_on_pause">1</property>
  <property name="mlt_service">avformat</property>
  <property name="kdenlive:file_size">32395840</property>
  <property name="kdenlive:file_hash">e94f0a6db4e60491b43552b1cc9bce18</property>
  <property name="kdenlive:proxy">/home/nicolas/.cache/kdenlive/proxy/e94f0a6db4e60491b43552b1cc9bce18.mpg</property>
  <property name="proxy_out">1236</property>
  <property name="kdenlive:originalurl">render seche cheveux.mp4</property>
  <property name="global_feed">1</property>
  <property name="kdenlive:meta.media.nb_streams">2</property>
  <property name="kdenlive:meta.media.0.stream.type">video</property>
  <property name="kdenlive:meta.media.0.stream.frame_rate">25</property>
  <property name="kdenlive:meta.media.0.stream.sample_aspect_ratio">1</property>
  <property name="kdenlive:meta.media.0.codec.width">1280</property>
  <property name="kdenlive:meta.media.0.codec.height">720</property>
  <property name="kdenlive:meta.media.0.codec.rotate">0</property>
  <property name="kdenlive:meta.media.0.codec.frame_rate">25</property>
  <property name="kdenlive:meta.media.0.codec.pix_fmt">yuv420p</property>
  <property name="kdenlive:meta.media.0.codec.sample_aspect_ratio">1</property>
  <property name="kdenlive:meta.media.0.codec.colorspace">709</property>
  <property name="kdenlive:meta.media.0.codec.color_trc">1</property>
  <property name="kdenlive:meta.media.0.codec.name">h264</property>
  <property name="kdenlive:meta.media.0.codec.long_name">H.264 / AVC / MPEG-4 AVC / MPEG-4 part 10</property>
  <property name="kdenlive:meta.media.0.codec.bit_rate">5233460</property>
  <property name="kdenlive:meta.attr.0.stream.handler_name.markup">VideoHandler</property>
  <property name="kdenlive:meta.media.1.stream.type">audio</property>
  <property name="kdenlive:meta.media.1.codec.sample_fmt">fltp</property>
  <property name="kdenlive:meta.media.1.codec.sample_rate">48000</property>
  <property name="kdenlive:meta.media.1.codec.channels">2</property>
  <property name="kdenlive:meta.media.1.codec.name">aac</property>
  <property name="kdenlive:meta.media.1.codec.long_name">AAC (Advanced Audio Coding)</property>
  <property name="kdenlive:meta.media.1.codec.bit_rate">2277</property>
  <property name="kdenlive:meta.attr.1.stream.handler_name.markup">SoundHandler</property>
  <property name="kdenlive:meta.attr.major_brand.markup">isom</property>
  <property name="kdenlive:meta.attr.minor_version.markup">512</property>
  <property name="kdenlive:meta.attr.compatible_brands.markup">isomiso2avc1mp41</property>
  <property name="kdenlive:meta.attr.encoder.markup">Lavf57.56.101</property>
  <property name="kdenlive:meta.media.sample_aspect_num">1</property>
  <property name="kdenlive:meta.media.sample_aspect_den">1</property>
  <property name="kdenlive:meta.media.frame_rate_num">25</property>
  <property name="kdenlive:meta.media.frame_rate_den">1</property>
  <property name="kdenlive:meta.media.colorspace">709</property>
  <property name="kdenlive:meta.media.color_trc">1</property>
  <property name="kdenlive:meta.media.width">1280</property>
  <property name="kdenlive:meta.media.height">720</property>
  <property name="kdenlive:meta.media.top_field_first">0</property>
  <property name="kdenlive:meta.media.progressive">1</property>
  <property name="xml">was here</property>
  <property name="meta.media.frame_rate_num">25</property>
  <property name="meta.media.frame_rate_den">1</property>
  <property name="meta.media.colorspace">601</property>
  <property name="meta.media.color_trc">2</property>
  <property name="meta.media.width">640</property>
  <property name="meta.media.height">360</property>
  <property name="meta.media.top_field_first">0</property>
  <property name="meta.media.progressive">1</property>
 </producer>
 <producer id="69_playlist0" title="Anonymous Submission" out="620" in="0">
  <property name="length">00:00:24:21</property>
  <property name="eof">pause</property>
  <property name="resource">/home/nicolas/.cache/kdenlive/proxy/27e87d37a365b64adb3c20ccb543281b.mpg</property>
  <property name="meta.media.nb_streams">2</property>
  <property name="meta.media.0.stream.type">video</property>
  <property name="meta.media.0.stream.frame_rate">25</property>
  <property name="meta.media.0.stream.sample_aspect_ratio">0</property>
  <property name="meta.media.0.codec.width">640</property>
  <property name="meta.media.0.codec.height">360</property>
  <property name="meta.media.0.codec.rotate">0</property>
  <property name="meta.media.0.codec.frame_rate">25</property>
  <property name="meta.media.0.codec.pix_fmt">yuv420p</property>
  <property name="meta.media.0.codec.sample_aspect_ratio">1</property>
  <property name="meta.media.0.codec.colorspace">601</property>
  <property name="meta.media.0.codec.name">mpeg2video</property>
  <property name="meta.media.0.codec.long_name">MPEG-2 video</property>
  <property name="meta.media.0.codec.bit_rate">0</property>
  <property name="meta.media.1.stream.type">audio</property>
  <property name="meta.media.1.codec.sample_fmt">s16p</property>
  <property name="meta.media.1.codec.sample_rate">24000</property>
  <property name="meta.media.1.codec.channels">1</property>
  <property name="meta.media.1.codec.name">mp2</property>
  <property name="meta.media.1.codec.long_name">MP2 (MPEG audio layer 2)</property>
  <property name="meta.media.1.codec.bit_rate">128000</property>
  <property name="seekable">1</property>
  <property name="meta.media.sample_aspect_num">1</property>
  <property name="meta.media.sample_aspect_den">1</property>
  <property name="aspect_ratio">1</property>
  <property name="audio_index">1</property>
  <property name="video_index">0</property>
  <property name="mute_on_pause">1</property>
  <property name="mlt_service">avformat</property>
  <property name="kdenlive:file_size">35222343</property>
  <property name="kdenlive:file_hash">27e87d37a365b64adb3c20ccb543281b</property>
  <property name="kdenlive:proxy">/home/nicolas/.cache/kdenlive/proxy/27e87d37a365b64adb3c20ccb543281b.mpg</property>
  <property name="proxy_out">620</property>
  <property name="kdenlive:originalurl">2DSC_0027.MOV</property>
  <property name="global_feed">1</property>
  <property name="kdenlive:meta.media.nb_streams">2</property>
  <property name="kdenlive:meta.media.0.stream.type">video</property>
  <property name="kdenlive:meta.media.0.stream.frame_rate">25</property>
  <property name="kdenlive:meta.media.0.stream.sample_aspect_ratio">0</property>
  <property name="kdenlive:meta.media.0.codec.width">1280</property>
  <property name="kdenlive:meta.media.0.codec.height">720</property>
  <property name="kdenlive:meta.media.0.codec.rotate">0</property>
  <property name="kdenlive:meta.media.0.codec.frame_rate">25</property>
  <property name="kdenlive:meta.media.0.codec.pix_fmt">yuvj420p</property>
  <property name="kdenlive:meta.media.0.codec.sample_aspect_ratio">1</property>
  <property name="kdenlive:meta.media.0.codec.colorspace">601</property>
  <property name="kdenlive:meta.media.0.codec.color_trc">4</property>
  <property name="kdenlive:meta.media.0.codec.name">h264</property>
  <property name="kdenlive:meta.media.0.codec.long_name">H.264 / AVC / MPEG-4 AVC / MPEG-4 part 10</property>
  <property name="kdenlive:meta.media.0.codec.bit_rate">10918550</property>
  <property name="kdenlive:meta.attr.0.stream.creation_time.markup">2017-08-19T17:09:50.000000Z</property>
  <property name="kdenlive:meta.attr.0.stream.language.markup">eng</property>
  <property name="kdenlive:meta.media.1.stream.type">audio</property>
  <property name="kdenlive:meta.media.1.codec.sample_fmt">s16</property>
  <property name="kdenlive:meta.media.1.codec.sample_rate">24000</property>
  <property name="kdenlive:meta.media.1.codec.channels">1</property>
  <property name="kdenlive:meta.media.1.codec.name">pcm_s16le</property>
  <property name="kdenlive:meta.media.1.codec.long_name">PCM signed 16-bit little-endian</property>
  <property name="kdenlive:meta.media.1.codec.bit_rate">384000</property>
  <property name="kdenlive:meta.attr.1.stream.creation_time.markup">2017-08-19T17:09:50.000000Z</property>
  <property name="kdenlive:meta.attr.1.stream.language.markup">eng</property>
  <property name="kdenlive:meta.attr.major_brand.markup">qt  </property>
  <property name="kdenlive:meta.attr.minor_version.markup">537331968</property>
  <property name="kdenlive:meta.attr.compatible_brands.markup">qt  niko</property>
  <property name="kdenlive:meta.attr.creation_time.markup">2017-08-19T17:09:50.000000Z</property>
  <property name="kdenlive:meta.media.sample_aspect_num">1</property>
  <property name="kdenlive:meta.media.sample_aspect_den">1</property>
  <property name="kdenlive:meta.media.frame_rate_num">25</property>
  <property name="kdenlive:meta.media.frame_rate_den">1</property>
  <property name="kdenlive:meta.media.colorspace">601</property>
  <property name="kdenlive:meta.media.color_trc">4</property>
  <property name="kdenlive:meta.media.width">1280</property>
  <property name="kdenlive:meta.media.height">720</property>
  <property name="kdenlive:meta.media.top_field_first">0</property>
  <property name="kdenlive:meta.media.progressive">1</property>
  <property name="xml">was here</property>
  <property name="meta.media.frame_rate_num">25</property>
  <property name="meta.media.frame_rate_den">1</property>
  <property name="meta.media.colorspace">601</property>
  <property name="meta.media.color_trc">2</property>
  <property name="meta.media.width">640</property>
  <property name="meta.media.height">360</property>
  <property name="meta.media.top_field_first">0</property>
  <property name="meta.media.progressive">1</property>
 </producer>
 <producer id="75_playlist0" title="Anonymous Submission" out="3014" in="0">
  <property name="length">00:02:00:15</property>
  <property name="eof">pause</property>
  <property name="resource">/home/nicolas/.cache/kdenlive/proxy/46c43ac37d8ac4639fc8e88c426858c9.mpg</property>
  <property name="meta.media.nb_streams">2</property>
  <property name="meta.media.0.stream.type">video</property>
  <property name="meta.media.0.stream.frame_rate">25</property>
  <property name="meta.media.0.stream.sample_aspect_ratio">0</property>
  <property name="meta.media.0.codec.width">640</property>
  <property name="meta.media.0.codec.height">360</property>
  <property name="meta.media.0.codec.rotate">0</property>
  <property name="meta.media.0.codec.frame_rate">25</property>
  <property name="meta.media.0.codec.pix_fmt">yuv420p</property>
  <property name="meta.media.0.codec.sample_aspect_ratio">1</property>
  <property name="meta.media.0.codec.colorspace">601</property>
  <property name="meta.media.0.codec.name">mpeg2video</property>
  <property name="meta.media.0.codec.long_name">MPEG-2 video</property>
  <property name="meta.media.0.codec.bit_rate">0</property>
  <property name="meta.media.1.stream.type">audio</property>
  <property name="meta.media.1.codec.sample_fmt">s16p</property>
  <property name="meta.media.1.codec.sample_rate">24000</property>
  <property name="meta.media.1.codec.channels">1</property>
  <property name="meta.media.1.codec.name">mp2</property>
  <property name="meta.media.1.codec.long_name">MP2 (MPEG audio layer 2)</property>
  <property name="meta.media.1.codec.bit_rate">128000</property>
  <property name="seekable">1</property>
  <property name="meta.media.sample_aspect_num">1</property>
  <property name="meta.media.sample_aspect_den">1</property>
  <property name="aspect_ratio">1</property>
  <property name="audio_index">1</property>
  <property name="video_index">0</property>
  <property name="mute_on_pause">1</property>
  <property name="mlt_service">avformat</property>
  <property name="kdenlive:file_size">163071898</property>
  <property name="kdenlive:file_hash">46c43ac37d8ac4639fc8e88c426858c9</property>
  <property name="kdenlive:proxy">/home/nicolas/.cache/kdenlive/proxy/46c43ac37d8ac4639fc8e88c426858c9.mpg</property>
  <property name="proxy_out">3014</property>
  <property name="kdenlive:originalurl">3DSC_0087.MOV</property>
  <property name="global_feed">1</property>
  <property name="kdenlive:meta.media.nb_streams">2</property>
  <property name="kdenlive:meta.media.0.stream.type">video</property>
  <property name="kdenlive:meta.media.0.stream.frame_rate">25</property>
  <property name="kdenlive:meta.media.0.stream.sample_aspect_ratio">0</property>
  <property name="kdenlive:meta.media.0.codec.width">1280</property>
  <property name="kdenlive:meta.media.0.codec.height">720</property>
  <property name="kdenlive:meta.media.0.codec.rotate">0</property>
  <property name="kdenlive:meta.media.0.codec.frame_rate">25</property>
  <property name="kdenlive:meta.media.0.codec.pix_fmt">yuvj420p</property>
  <property name="kdenlive:meta.media.0.codec.sample_aspect_ratio">1</property>
  <property name="kdenlive:meta.media.0.codec.colorspace">601</property>
  <property name="kdenlive:meta.media.0.codec.color_trc">4</property>
  <property name="kdenlive:meta.media.0.codec.name">h264</property>
  <property name="kdenlive:meta.media.0.codec.long_name">H.264 / AVC / MPEG-4 AVC / MPEG-4 part 10</property>
  <property name="kdenlive:meta.media.0.codec.bit_rate">10423459</property>
  <property name="kdenlive:meta.attr.0.stream.creation_time.markup">2017-08-20T14:46:07.000000Z</property>
  <property name="kdenlive:meta.attr.0.stream.language.markup">eng</property>
  <property name="kdenlive:meta.media.1.stream.type">audio</property>
  <property name="kdenlive:meta.media.1.codec.sample_fmt">s16</property>
  <property name="kdenlive:meta.media.1.codec.sample_rate">24000</property>
  <property name="kdenlive:meta.media.1.codec.channels">1</property>
  <property name="kdenlive:meta.media.1.codec.name">pcm_s16le</property>
  <property name="kdenlive:meta.media.1.codec.long_name">PCM signed 16-bit little-endian</property>
  <property name="kdenlive:meta.media.1.codec.bit_rate">384000</property>
  <property name="kdenlive:meta.attr.1.stream.creation_time.markup">2017-08-20T14:46:07.000000Z</property>
  <property name="kdenlive:meta.attr.1.stream.language.markup">eng</property>
  <property name="kdenlive:meta.attr.major_brand.markup">qt  </property>
  <property name="kdenlive:meta.attr.minor_version.markup">537331968</property>
  <property name="kdenlive:meta.attr.compatible_brands.markup">qt  niko</property>
  <property name="kdenlive:meta.attr.creation_time.markup">2017-08-20T14:46:07.000000Z</property>
  <property name="kdenlive:meta.media.sample_aspect_num">1</property>
  <property name="kdenlive:meta.media.sample_aspect_den">1</property>
  <property name="kdenlive:meta.media.frame_rate_num">25</property>
  <property name="kdenlive:meta.media.frame_rate_den">1</property>
  <property name="kdenlive:meta.media.colorspace">601</property>
  <property name="kdenlive:meta.media.color_trc">4</property>
  <property name="kdenlive:meta.media.width">1280</property>
  <property name="kdenlive:meta.media.height">720</property>
  <property name="kdenlive:meta.media.top_field_first">0</property>
  <property name="kdenlive:meta.media.progressive">1</property>
  <property name="xml">was here</property>
  <property name="meta.media.frame_rate_num">25</property>
  <property name="meta.media.frame_rate_den">1</property>
  <property name="meta.media.colorspace">601</property>
  <property name="meta.media.color_trc">2</property>
  <property name="meta.media.width">640</property>
  <property name="meta.media.height">360</property>
  <property name="meta.media.top_field_first">0</property>
  <property name="meta.media.progressive">1</property>
 </producer>
 <producer id="76_playlist0" title="Anonymous Submission" out="215" in="0">
  <property name="length">00:00:08:16</property>
  <property name="eof">pause</property>
  <property name="resource">/home/nicolas/.cache/kdenlive/proxy/7186ca928785d681713a3fbed7d0f304.mpg</property>
  <property name="meta.media.nb_streams">2</property>
  <property name="meta.media.0.stream.type">video</property>
  <property name="meta.media.0.stream.frame_rate">25</property>
  <property name="meta.media.0.stream.sample_aspect_ratio">0</property>
  <property name="meta.media.0.codec.width">640</property>
  <property name="meta.media.0.codec.height">360</property>
  <property name="meta.media.0.codec.rotate">0</property>
  <property name="meta.media.0.codec.frame_rate">25</property>
  <property name="meta.media.0.codec.pix_fmt">yuv420p</property>
  <property name="meta.media.0.codec.sample_aspect_ratio">1</property>
  <property name="meta.media.0.codec.colorspace">601</property>
  <property name="meta.media.0.codec.name">mpeg2video</property>
  <property name="meta.media.0.codec.long_name">MPEG-2 video</property>
  <property name="meta.media.0.codec.bit_rate">0</property>
  <property name="meta.media.1.stream.type">audio</property>
  <property name="meta.media.1.codec.sample_fmt">s16p</property>
  <property name="meta.media.1.codec.sample_rate">24000</property>
  <property name="meta.media.1.codec.channels">1</property>
  <property name="meta.media.1.codec.name">mp2</property>
  <property name="meta.media.1.codec.long_name">MP2 (MPEG audio layer 2)</property>
  <property name="meta.media.1.codec.bit_rate">128000</property>
  <property name="seekable">1</property>
  <property name="meta.media.sample_aspect_num">1</property>
  <property name="meta.media.sample_aspect_den">1</property>
  <property name="aspect_ratio">1</property>
  <property name="audio_index">1</property>
  <property name="video_index">0</property>
  <property name="mute_on_pause">1</property>
  <property name="mlt_service">avformat</property>
  <property name="kdenlive:file_size">11856524</property>
  <property name="kdenlive:file_hash">7186ca928785d681713a3fbed7d0f304</property>
  <property name="kdenlive:proxy">/home/nicolas/.cache/kdenlive/proxy/7186ca928785d681713a3fbed7d0f304.mpg</property>
  <property name="proxy_out">215</property>
  <property name="kdenlive:originalurl">3DSC_0090.MOV</property>
  <property name="global_feed">1</property>
  <property name="kdenlive:meta.media.nb_streams">2</property>
  <property name="kdenlive:meta.media.0.stream.type">video</property>
  <property name="kdenlive:meta.media.0.stream.frame_rate">25</property>
  <property name="kdenlive:meta.media.0.stream.sample_aspect_ratio">0</property>
  <property name="kdenlive:meta.media.0.codec.width">1280</property>
  <property name="kdenlive:meta.media.0.codec.height">720</property>
  <property name="kdenlive:meta.media.0.codec.rotate">0</property>
  <property name="kdenlive:meta.media.0.codec.frame_rate">25</property>
  <property name="kdenlive:meta.media.0.codec.pix_fmt">yuvj420p</property>
  <property name="kdenlive:meta.media.0.codec.sample_aspect_ratio">1</property>
  <property name="kdenlive:meta.media.0.codec.colorspace">601</property>
  <property name="kdenlive:meta.media.0.codec.color_trc">4</property>
  <property name="kdenlive:meta.media.0.codec.name">h264</property>
  <property name="kdenlive:meta.media.0.codec.long_name">H.264 / AVC / MPEG-4 AVC / MPEG-4 part 10</property>
  <property name="kdenlive:meta.media.0.codec.bit_rate">10490567</property>
  <property name="kdenlive:meta.attr.0.stream.creation_time.markup">2017-08-20T14:52:06.000000Z</property>
  <property name="kdenlive:meta.attr.0.stream.language.markup">eng</property>
  <property name="kdenlive:meta.media.1.stream.type">audio</property>
  <property name="kdenlive:meta.media.1.codec.sample_fmt">s16</property>
  <property name="kdenlive:meta.media.1.codec.sample_rate">24000</property>
  <property name="kdenlive:meta.media.1.codec.channels">1</property>
  <property name="kdenlive:meta.media.1.codec.name">pcm_s16le</property>
  <property name="kdenlive:meta.media.1.codec.long_name">PCM signed 16-bit little-endian</property>
  <property name="kdenlive:meta.media.1.codec.bit_rate">384000</property>
  <property name="kdenlive:meta.attr.1.stream.creation_time.markup">2017-08-20T14:52:06.000000Z</property>
  <property name="kdenlive:meta.attr.1.stream.language.markup">eng</property>
  <property name="kdenlive:meta.attr.major_brand.markup">qt  </property>
  <property name="kdenlive:meta.attr.minor_version.markup">537331968</property>
  <property name="kdenlive:meta.attr.compatible_brands.markup">qt  niko</property>
  <property name="kdenlive:meta.attr.creation_time.markup">2017-08-20T14:52:06.000000Z</property>
  <property name="kdenlive:meta.media.sample_aspect_num">1</property>
  <property name="kdenlive:meta.media.sample_aspect_den">1</property>
  <property name="kdenlive:meta.media.frame_rate_num">25</property>
  <property name="kdenlive:meta.media.frame_rate_den">1</property>
  <property name="kdenlive:meta.media.colorspace">601</property>
  <property name="kdenlive:meta.media.color_trc">4</property>
  <property name="kdenlive:meta.media.width">1280</property>
  <property name="kdenlive:meta.media.height">720</property>
  <property name="kdenlive:meta.media.top_field_first">0</property>
  <property name="kdenlive:meta.media.progressive">1</property>
  <property name="xml">was here</property>
  <property name="meta.media.frame_rate_num">25</property>
  <property name="meta.media.frame_rate_den">1</property>
  <property name="meta.media.colorspace">601</property>
  <property name="meta.media.color_trc">2</property>
  <property name="meta.media.width">640</property>
  <property name="meta.media.height">360</property>
  <property name="meta.media.top_field_first">0</property>
  <property name="meta.media.progressive">1</property>
 </producer>
 <producer id="78_playlist0" title="Anonymous Submission" out="776" in="0">
  <property name="length">00:00:31:02</property>
  <property name="eof">pause</property>
  <property name="resource">/home/nicolas/.cache/kdenlive/proxy/1997d659ada06adeaec03c8e7a998847.mpg</property>
  <property name="meta.media.nb_streams">2</property>
  <property name="meta.media.0.stream.type">video</property>
  <property name="meta.media.0.stream.frame_rate">25</property>
  <property name="meta.media.0.stream.sample_aspect_ratio">0</property>
  <property name="meta.media.0.codec.width">640</property>
  <property name="meta.media.0.codec.height">360</property>
  <property name="meta.media.0.codec.rotate">0</property>
  <property name="meta.media.0.codec.frame_rate">25</property>
  <property name="meta.media.0.codec.pix_fmt">yuv420p</property>
  <property name="meta.media.0.codec.sample_aspect_ratio">1</property>
  <property name="meta.media.0.codec.colorspace">601</property>
  <property name="meta.media.0.codec.name">mpeg2video</property>
  <property name="meta.media.0.codec.long_name">MPEG-2 video</property>
  <property name="meta.media.0.codec.bit_rate">0</property>
  <property name="meta.media.1.stream.type">audio</property>
  <property name="meta.media.1.codec.sample_fmt">s16p</property>
  <property name="meta.media.1.codec.sample_rate">24000</property>
  <property name="meta.media.1.codec.channels">1</property>
  <property name="meta.media.1.codec.name">mp2</property>
  <property name="meta.media.1.codec.long_name">MP2 (MPEG audio layer 2)</property>
  <property name="meta.media.1.codec.bit_rate">128000</property>
  <property name="seekable">1</property>
  <property name="meta.media.sample_aspect_num">1</property>
  <property name="meta.media.sample_aspect_den">1</property>
  <property name="aspect_ratio">1</property>
  <property name="audio_index">1</property>
  <property name="video_index">0</property>
  <property name="mute_on_pause">1</property>
  <property name="mlt_service">avformat</property>
  <property name="kdenlive:file_size">42341853</property>
  <property name="kdenlive:file_hash">1997d659ada06adeaec03c8e7a998847</property>
  <property name="kdenlive:proxy">/home/nicolas/.cache/kdenlive/proxy/1997d659ada06adeaec03c8e7a998847.mpg</property>
  <property name="proxy_out">776</property>
  <property name="kdenlive:originalurl">3DSC_0096.MOV</property>
  <property name="global_feed">1</property>
  <property name="kdenlive:meta.media.nb_streams">2</property>
  <property name="kdenlive:meta.media.0.stream.type">video</property>
  <property name="kdenlive:meta.media.0.stream.frame_rate">25</property>
  <property name="kdenlive:meta.media.0.stream.sample_aspect_ratio">0</property>
  <property name="kdenlive:meta.media.0.codec.width">1280</property>
  <property name="kdenlive:meta.media.0.codec.height">720</property>
  <property name="kdenlive:meta.media.0.codec.rotate">0</property>
  <property name="kdenlive:meta.media.0.codec.frame_rate">25</property>
  <property name="kdenlive:meta.media.0.codec.pix_fmt">yuvj420p</property>
  <property name="kdenlive:meta.media.0.codec.sample_aspect_ratio">1</property>
  <property name="kdenlive:meta.media.0.codec.colorspace">601</property>
  <property name="kdenlive:meta.media.0.codec.color_trc">4</property>
  <property name="kdenlive:meta.media.0.codec.name">h264</property>
  <property name="kdenlive:meta.media.0.codec.long_name">H.264 / AVC / MPEG-4 AVC / MPEG-4 part 10</property>
  <property name="kdenlive:meta.media.0.codec.bit_rate">10483361</property>
  <property name="kdenlive:meta.attr.0.stream.creation_time.markup">2017-08-20T15:09:46.000000Z</property>
  <property name="kdenlive:meta.attr.0.stream.language.markup">eng</property>
  <property name="kdenlive:meta.media.1.stream.type">audio</property>
  <property name="kdenlive:meta.media.1.codec.sample_fmt">s16</property>
  <property name="kdenlive:meta.media.1.codec.sample_rate">24000</property>
  <property name="kdenlive:meta.media.1.codec.channels">1</property>
  <property name="kdenlive:meta.media.1.codec.name">pcm_s16le</property>
  <property name="kdenlive:meta.media.1.codec.long_name">PCM signed 16-bit little-endian</property>
  <property name="kdenlive:meta.media.1.codec.bit_rate">384000</property>
  <property name="kdenlive:meta.attr.1.stream.creation_time.markup">2017-08-20T15:09:46.000000Z</property>
  <property name="kdenlive:meta.attr.1.stream.language.markup">eng</property>
  <property name="kdenlive:meta.attr.major_brand.markup">qt  </property>
  <property name="kdenlive:meta.attr.minor_version.markup">537331968</property>
  <property name="kdenlive:meta.attr.compatible_brands.markup">qt  niko</property>
  <property name="kdenlive:meta.attr.creation_time.markup">2017-08-20T15:09:46.000000Z</property>
  <property name="kdenlive:meta.media.sample_aspect_num">1</property>
  <property name="kdenlive:meta.media.sample_aspect_den">1</property>
  <property name="kdenlive:meta.media.frame_rate_num">25</property>
  <property name="kdenlive:meta.media.frame_rate_den">1</property>
  <property name="kdenlive:meta.media.colorspace">601</property>
  <property name="kdenlive:meta.media.color_trc">4</property>
  <property name="kdenlive:meta.media.width">1280</property>
  <property name="kdenlive:meta.media.height">720</property>
  <property name="kdenlive:meta.media.top_field_first">0</property>
  <property name="kdenlive:meta.media.progressive">1</property>
  <property name="xml">was here</property>
  <property name="meta.media.frame_rate_num">25</property>
  <property name="meta.media.frame_rate_den">1</property>
  <property name="meta.media.colorspace">601</property>
  <property name="meta.media.color_trc">2</property>
  <property name="meta.media.width">640</property>
  <property name="meta.media.height">360</property>
  <property name="meta.media.top_field_first">0</property>
  <property name="meta.media.progressive">1</property>
 </producer>
 <playlist id="playlist0">
  <property name="kdenlive:track_name">Video 4</property>
  <blank length="325"/>
  <entry out="131" producer="6_playlist0" in="64">
   <filter id="filter17" out="131" in="64">
    <property name="background">colour:0x00000000</property>
    <property name="mlt_service">affine</property>
    <property name="kdenlive_id">pan_zoom</property>
    <property name="tag">affine</property>
    <property name="kdenlive_ix">1</property>
    <property name="transition.geometry">100/0:1280x720:100</property>
    <property name="transition.distort">0</property>
    <property name="kdenlive:sync_in_out">1</property>
    <property name="kdenlive_info"/>
   </filter>
   <filter id="filter18" out="197" in="159">
    <property name="start">1</property>
    <property name="mlt_service">brightness</property>
    <property name="kdenlive_id">fade_to_black</property>
    <property name="tag">brightness</property>
    <property name="kdenlive_ix">2</property>
    <property name="end">0</property>
   </filter>
  </entry>
  <entry out="124" producer="8" in="0"/>
  <entry out="197" producer="6_playlist0" in="132">
   <filter id="filter19" out="197" in="132">
    <property name="background">colour:0x00000000</property>
    <property name="mlt_service">affine</property>
    <property name="kdenlive_id">pan_zoom</property>
    <property name="tag">affine</property>
    <property name="kdenlive_ix">1</property>
    <property name="transition.geometry">100/0:1280x720:100</property>
    <property name="transition.distort">0</property>
    <property name="kdenlive:sync_in_out">1</property>
    <property name="kdenlive_info"/>
   </filter>
   <filter id="filter20" out="197" in="159">
    <property name="start">1</property>
    <property name="mlt_service">brightness</property>
    <property name="kdenlive_id">fade_to_black</property>
    <property name="tag">brightness</property>
    <property name="kdenlive_ix">2</property>
    <property name="end">0</property>
   </filter>
  </entry>
  <blank length="15"/>
  <entry out="489" producer="7_playlist0" in="0">
   <filter id="filter21" out="47">
    <property name="start">0</property>
    <property name="mlt_service">brightness</property>
    <property name="kdenlive_id">fade_from_black</property>
    <property name="tag">brightness</property>
    <property name="kdenlive_ix">1</property>
    <property name="end">1</property>
   </filter>
  </entry>
  <entry out="225" producer="20_playlist0" in="182"/>
  <entry out="1012" producer="7_playlist0" in="499"/>
  <blank length="76"/>
  <entry out="1045" producer="7_playlist0" in="1013"/>
  <blank length="15"/>
  <entry out="1119" producer="7_playlist0" in="1046">
   <filter id="filter22" out="1119" in="1046">
    <property name="background">colour:0x00000000</property>
    <property name="mlt_service">affine</property>
    <property name="kdenlive_id">pan_zoom</property>
    <property name="tag">affine</property>
    <property name="kdenlive_ix">1</property>
    <property name="transition.geometry">373/164:1280x720:100</property>
    <property name="transition.distort">0</property>
    <property name="kdenlive:sync_in_out">1</property>
    <property name="kdenlive_info"/>
   </filter>
  </entry>
  <blank length="66"/>
  <entry out="1921" producer="7_playlist0" in="1120"/>
  <blank length="86"/>
  <entry out="391" producer="15_playlist0" in="108">
   <filter id="filter23" out="392" in="345">
    <property name="start">1</property>
    <property name="mlt_service">brightness</property>
    <property name="kdenlive_id">fade_to_black</property>
    <property name="tag">brightness</property>
    <property name="kdenlive_ix">1</property>
    <property name="end">0</property>
    <property name="kdenlive_info"/>
   </filter>
  </entry>
  <blank length="2301"/>
  <entry out="521" producer="21_playlist0" in="0"/>
  <blank length="306"/>
  <entry out="233" producer="26_playlist0" in="18"/>
  <blank length="123"/>
  <entry out="809" producer="26_playlist0" in="749">
   <filter id="filter24" out="809" in="748">
    <property name="start">1</property>
    <property name="mlt_service">brightness</property>
    <property name="kdenlive_id">fade_to_black</property>
    <property name="tag">brightness</property>
    <property name="kdenlive_ix">1</property>
    <property name="end">0</property>
   </filter>
  </entry>
  <blank length="23"/>
  <entry out="538" producer="27_playlist0" in="127">
   <filter id="filter25" out="611" in="120">
    <property name="background">colour:0x00000000</property>
    <property name="mlt_service">affine</property>
    <property name="kdenlive_id">pan_zoom</property>
    <property name="tag">affine</property>
    <property name="kdenlive_ix">1</property>
    <property name="transition.geometry">-86/0:1280x720:100</property>
    <property name="transition.distort">0</property>
    <property name="kdenlive:sync_in_out">1</property>
    <property name="kdenlive_info"/>
    <property name="disable"/>
   </filter>
   <filter id="filter26" out="192" in="127">
    <property name="start">0</property>
    <property name="mlt_service">brightness</property>
    <property name="kdenlive_id">fade_from_black</property>
    <property name="tag">brightness</property>
    <property name="kdenlive_ix">2</property>
    <property name="end">1</property>
   </filter>
  </entry>
  <entry out="2084" producer="slowmotion:28:1,1:1:0" in="0">
   <filter id="filter27" out="2084" in="1910">
    <property name="start">1</property>
    <property name="mlt_service">brightness</property>
    <property name="kdenlive_id">fade_to_black</property>
    <property name="tag">brightness</property>
    <property name="kdenlive_ix">2</property>
    <property name="end">0</property>
   </filter>
  </entry>
  <blank length="21"/>
  <entry out="429" producer="29_playlist0" in="0">
   <filter id="filter28" out="429" in="387">
    <property name="start">1</property>
    <property name="mlt_service">brightness</property>
    <property name="kdenlive_id">fade_to_black</property>
    <property name="tag">brightness</property>
    <property name="kdenlive_ix">1</property>
    <property name="end">0</property>
   </filter>
  </entry>
  <blank length="53"/>
  <entry out="154" producer="30_playlist0" in="0">
   <filter id="filter29" out="58">
    <property name="start">0</property>
    <property name="mlt_service">brightness</property>
    <property name="kdenlive_id">fade_from_black</property>
    <property name="tag">brightness</property>
    <property name="kdenlive_ix">1</property>
    <property name="end">1</property>
    <property name="kdenlive_info"/>
    <property name="disable"/>
   </filter>
  </entry>
  <entry out="215" producer="slowmotion:30:0,8:1:0" in="193"/>
  <blank length="70"/>
  <entry out="598" producer="30_playlist0" in="158"/>
  <blank length="50"/>
  <entry out="691" producer="30_playlist0" in="599"/>
  <blank length="36"/>
  <entry out="757" producer="30_playlist0" in="692"/>
  <blank length="98"/>
  <entry out="757" producer="30_playlist0" in="692">
   <filter id="filter30" out="757" in="692">
    <property name="background">colour:0x00000000</property>
    <property name="mlt_service">affine</property>
    <property name="kdenlive_id">pan_zoom</property>
    <property name="tag">affine</property>
    <property name="kdenlive_ix">1</property>
    <property name="transition.geometry">80/0:1280x720:100</property>
    <property name="transition.distort">0</property>
    <property name="kdenlive:sync_in_out">1</property>
    <property name="kdenlive_info"/>
   </filter>
  </entry>
  <blank length="110"/>
  <entry out="847" producer="30_playlist0" in="758">
   <filter id="filter31" out="847" in="758">
    <property name="background">colour:0x00000000</property>
    <property name="mlt_service">affine</property>
    <property name="kdenlive_id">pan_zoom</property>
    <property name="tag">affine</property>
    <property name="kdenlive_ix">1</property>
    <property name="transition.geometry">160/0:1280x720:100</property>
    <property name="transition.distort">0</property>
    <property name="kdenlive:sync_in_out">1</property>
   </filter>
  </entry>
  <blank length="252"/>
  <entry out="124" producer="33" in="0"/>
  <blank length="7206"/>
  <entry out="1532" producer="35_playlist0" in="413">
   <filter id="filter32" out="470" in="413">
    <property name="start">0</property>
    <property name="mlt_service">brightness</property>
    <property name="kdenlive_id">fade_from_black</property>
    <property name="tag">brightness</property>
    <property name="kdenlive_ix">1</property>
    <property name="end">1</property>
   </filter>
  </entry>
  <blank length="39"/>
  <entry out="2001" producer="35_playlist0" in="1533">
   <filter id="filter33" out="2001" in="1927">
    <property name="start">1</property>
    <property name="mlt_service">brightness</property>
    <property name="kdenlive_id">fade_to_black</property>
    <property name="tag">brightness</property>
    <property name="kdenlive_ix">1</property>
    <property name="end">0</property>
   </filter>
  </entry>
  <blank length="48"/>
  <entry out="264" producer="38_playlist0" in="0"/>
  <entry out="360" producer="38_playlist0" in="265">
   <filter id="filter34">
    <property name="version">0,1</property>
    <property name="mlt_service">frei0r.scale0tilt</property>
    <property name="kdenlive_id">frei0r.scale0tilt</property>
    <property name="tag">frei0r.scale0tilt</property>
    <property name="kdenlive_ix">1</property>
    <property name="Clip left">0,170313</property>
    <property name="Clip right">0,154688</property>
    <property name="Clip top">0</property>
    <property name="Clip bottom">0</property>
    <property name="Scale X">0,5</property>
    <property name="Scale Y">0,5</property>
    <property name="Tilt X">0,5</property>
    <property name="Tilt Y">0,5</property>
    <property name="kdenlive_info">1/-1/</property>
   </filter>
   <filter id="filter35" out="360" in="265">
    <property name="background">colour:0x00000000</property>
    <property name="mlt_service">affine</property>
    <property name="kdenlive_id">pan_zoom</property>
    <property name="tag">affine</property>
    <property name="kdenlive_ix">2</property>
    <property name="transition.geometry">816/270:269x151:100</property>
    <property name="transition.distort">0</property>
    <property name="kdenlive:sync_in_out">1</property>
    <property name="kdenlive_info">1/-1/</property>
    <property name="disable">0</property>
   </filter>
   <filter id="affinerotate">
    <property name="background">colour:0x00000000</property>
    <property name="mlt_service">affine</property>
    <property name="kdenlive_id">affinerotate</property>
    <property name="tag">affine</property>
    <property name="kdenlive_ix">3</property>
    <property name="transition.rotate_x">265=5,5</property>
    <property name="transition.rotate_y">265=0</property>
    <property name="transition.rotate_z">265=0</property>
    <property name="transition.ox">265=0</property>
    <property name="transition.oy">265=0</property>
    <property name="transition.keyed">1</property>
    <property name="transition.always_active">1</property>
    <property name="kdenlive_info">1/-1/</property>
   </filter>
  </entry>
  <blank length="283"/>
  <entry out="302" producer="40_playlist0" in="0">
   <filter id="frei0r.select0r">
    <property name="version">0,5</property>
    <property name="mlt_service">frei0r.select0r</property>
    <property name="kdenlive_id">frei0r.select0r</property>
    <property name="tag">frei0r.select0r</property>
    <property name="kdenlive_ix">1</property>
    <property name="Color to select">0x0000ffff</property>
    <property name="Invert selection">1</property>
    <property name="Selection subspace">0,0</property>
    <property name="Subspace shape">0,5</property>
    <property name="Edge mode">0,9</property>
    <property name="Delta R / A / Hue">0=0,39</property>
    <property name="Delta G / B / Chroma">0=0,132</property>
    <property name="Delta B / I / I">0=0,672</property>
    <property name="Slope">0=0,889</property>
    <property name="Operation">0,0</property>
    <property name="kdenlive_info">1/-1/</property>
   </filter>
   <filter id="frei0r.brightness">
    <property name="version">0,2</property>
    <property name="mlt_service">frei0r.brightness</property>
    <property name="kdenlive_id">frei0r.brightness</property>
    <property name="tag">frei0r.brightness</property>
    <property name="kdenlive_ix">2</property>
    <property name="Brightness">1</property>
    <property name="kdenlive_info">1/-1/</property>
   </filter>
   <filter id="filter36" out="302">
    <property name="background">colour:0x00000000</property>
    <property name="mlt_service">affine</property>
    <property name="kdenlive_id">pan_zoom</property>
    <property name="tag">affine</property>
    <property name="kdenlive_ix">3</property>
    <property name="transition.geometry">0=185/-83:1280x720:100;65=184/-86:1280x720:100;103=172/-411:1280x720:100;145=160/-381:1280x720:100;231=220/-199:1280x720:100;250=201/-395:1280x720:100;265=201/-395:1280x720:100;296=244/-202:1280x720:100</property>
    <property name="transition.distort">0</property>
    <property name="kdenlive:sync_in_out">1</property>
    <property name="kdenlive_info">1/-1/</property>
   </filter>
  </entry>
  <blank length="1859"/>
  <entry out="681" producer="45_playlist0" in="288"/>
  <blank length="64"/>
  <entry out="817" producer="45_playlist0" in="682"/>
  <blank length="69"/>
  <entry out="905" producer="45_playlist0" in="837"/>
  <blank length="126"/>
  <entry out="1055" producer="45_playlist0" in="894">
   <filter id="filter38">
    <property name="version">0,1</property>
    <property name="mlt_service">frei0r.scale0tilt</property>
    <property name="kdenlive_id">frei0r.scale0tilt</property>
    <property name="tag">frei0r.scale0tilt</property>
    <property name="kdenlive_ix">1</property>
    <property name="Clip left">0</property>
    <property name="Clip right">0</property>
    <property name="Clip top">0</property>
    <property name="Clip bottom">0</property>
    <property name="Scale X">0,5</property>
    <property name="Scale Y">0,5</property>
    <property name="Tilt X">0,542969</property>
    <property name="Tilt Y">0,5</property>
    <property name="kdenlive_info">1/-1/</property>
   </filter>
  </entry>
  <blank length="152"/>
  <entry out="155" producer="53" in="0"/>
  <blank length="919"/>
  <entry out="105" producer="51" in="0"/>
  <blank length="1"/>
  <entry out="167" producer="50" in="0"/>
  <blank length="1130"/>
  <entry out="108" producer="55_playlist0" in="59"/>
  <blank length="531"/>
  <entry out="434" producer="slowmotion:57:1,12:1:0" in="88"/>
  <entry out="1409" producer="slowmotion:57:1,2:1:0" in="1247"/>
  <entry out="1633" producer="slowmotion:57:1,25:1:0" in="1505"/>
  <entry out="2590" producer="slowmotion:57:1,3:1:0" in="2454"/>
  <entry out="2628" producer="slowmotion:57:1,4:1:0" in="2406"/>
  <entry out="203" producer="slowmotion:58:1,5:1:0" in="33"/>
  <blank length="332"/>
  <entry out="192" producer="slowmotion:61:1,6:1:0" in="6">
   <filter id="filter39">
    <property name="version">0,1</property>
    <property name="mlt_service">frei0r.scale0tilt</property>
    <property name="kdenlive_id">frei0r.scale0tilt</property>
    <property name="tag">frei0r.scale0tilt</property>
    <property name="kdenlive_ix">2</property>
    <property name="Clip left">0,317188</property>
    <property name="Clip right">0</property>
    <property name="Clip top">0</property>
    <property name="Clip bottom">0</property>
    <property name="Scale X">0,5</property>
    <property name="Scale Y">0,5</property>
    <property name="Tilt X">0,5</property>
    <property name="Tilt Y">0,5</property>
    <property name="kdenlive_info"/>
   </filter>
  </entry>
  <blank length="26"/>
  <entry out="105" producer="slowmotion:62:1,5:1:0" in="73">
   <filter id="filter40">
    <property name="version">0,1</property>
    <property name="mlt_service">frei0r.scale0tilt</property>
    <property name="kdenlive_id">frei0r.scale0tilt</property>
    <property name="tag">frei0r.scale0tilt</property>
    <property name="kdenlive_ix">2</property>
    <property name="Clip left">0,478906</property>
    <property name="Clip right">0</property>
    <property name="Clip top">0</property>
    <property name="Clip bottom">0</property>
    <property name="Scale X">0,5</property>
    <property name="Scale Y">0,5</property>
    <property name="Tilt X">0,5</property>
    <property name="Tilt Y">0,5</property>
    <property name="kdenlive_info"/>
   </filter>
  </entry>
  <blank length="641"/>
  <entry out="316" producer="63_playlist0" in="23"/>
  <blank length="1054"/>
  <entry out="16" producer="67" in="0">
   <filter id="filter41" out="16">
    <property name="background">colour:0x00000000</property>
    <property name="mlt_service">affine</property>
    <property name="kdenlive_id">pan_zoom</property>
    <property name="tag">affine</property>
    <property name="kdenlive_ix">1</property>
    <property name="kdenlive:sync_in_out">1</property>
    <property name="kdenlive_info"/>
    <property name="transition.geometry">548/350:154x87:100</property>
    <property name="transition.distort">0</property>
   </filter>
  </entry>
  <blank length="17"/>
  <entry out="16" producer="67" in="0">
   <filter id="filter42" out="16">
    <property name="background">colour:0x00000000</property>
    <property name="mlt_service">affine</property>
    <property name="kdenlive_id">pan_zoom</property>
    <property name="tag">affine</property>
    <property name="kdenlive_ix">1</property>
    <property name="kdenlive:sync_in_out">1</property>
    <property name="kdenlive_info"/>
    <property name="transition.geometry">548/350:154x87:100</property>
    <property name="transition.distort">0</property>
   </filter>
  </entry>
  <blank length="38"/>
  <entry out="16" producer="67" in="0">
   <filter id="filter43" out="16">
    <property name="background">colour:0x00000000</property>
    <property name="mlt_service">affine</property>
    <property name="kdenlive_id">pan_zoom</property>
    <property name="tag">affine</property>
    <property name="kdenlive_ix">1</property>
    <property name="kdenlive:sync_in_out">1</property>
    <property name="kdenlive_info"/>
    <property name="transition.geometry">548/350:154x87:100</property>
    <property name="transition.distort">0</property>
   </filter>
  </entry>
  <blank length="17"/>
  <entry out="16" producer="67" in="0">
   <filter id="filter44" out="16">
    <property name="background">colour:0x00000000</property>
    <property name="mlt_service">affine</property>
    <property name="kdenlive_id">pan_zoom</property>
    <property name="tag">affine</property>
    <property name="kdenlive_ix">1</property>
    <property name="kdenlive:sync_in_out">1</property>
    <property name="kdenlive_info"/>
    <property name="transition.geometry">548/350:154x87:100</property>
    <property name="transition.distort">0</property>
   </filter>
  </entry>
  <blank length="17"/>
  <entry out="16" producer="67" in="0">
   <filter id="filter45" out="16">
    <property name="background">colour:0x00000000</property>
    <property name="mlt_service">affine</property>
    <property name="kdenlive_id">pan_zoom</property>
    <property name="tag">affine</property>
    <property name="kdenlive_ix">1</property>
    <property name="kdenlive:sync_in_out">1</property>
    <property name="kdenlive_info"/>
    <property name="transition.geometry">548/350:154x87:100</property>
    <property name="transition.distort">0</property>
   </filter>
  </entry>
  <blank length="17"/>
  <entry out="16" producer="67" in="0">
   <filter id="filter46" out="16">
    <property name="background">colour:0x00000000</property>
    <property name="mlt_service">affine</property>
    <property name="kdenlive_id">pan_zoom</property>
    <property name="tag">affine</property>
    <property name="kdenlive_ix">1</property>
    <property name="transition.geometry">548/350:154x87:100</property>
    <property name="transition.distort">0</property>
    <property name="kdenlive:sync_in_out">1</property>
    <property name="kdenlive_info"/>
   </filter>
  </entry>
  <blank length="17"/>
  <entry out="16" producer="67" in="0">
   <filter id="filter47" out="16">
    <property name="background">colour:0x00000000</property>
    <property name="mlt_service">affine</property>
    <property name="kdenlive_id">pan_zoom</property>
    <property name="tag">affine</property>
    <property name="kdenlive_ix">1</property>
    <property name="kdenlive:sync_in_out">1</property>
    <property name="kdenlive_info">1/-1/</property>
    <property name="transition.geometry">548/350:154x87:100</property>
    <property name="transition.distort">0</property>
   </filter>
  </entry>
  <entry out="16" producer="66_playlist0" in="0">
   <filter id="filter48">
    <property name="version">0,1</property>
    <property name="mlt_service">frei0r.scale0tilt</property>
    <property name="kdenlive_id">frei0r.scale0tilt</property>
    <property name="tag">frei0r.scale0tilt</property>
    <property name="kdenlive_ix">1</property>
    <property name="Clip left">0,117188</property>
    <property name="Clip right">0,117188</property>
    <property name="Clip top">0</property>
    <property name="Clip bottom">0</property>
    <property name="Scale X">0,5</property>
    <property name="Scale Y">0,5</property>
    <property name="Tilt X">0,5</property>
    <property name="Tilt Y">0,5</property>
    <property name="kdenlive_info">1/-1/</property>
   </filter>
   <filter id="filter49" out="16">
    <property name="background">colour:0x00000000</property>
    <property name="mlt_service">affine</property>
    <property name="kdenlive_id">pan_zoom</property>
    <property name="tag">affine</property>
    <property name="kdenlive_info">1/-1/</property>
    <property name="kdenlive_ix">2</property>
    <property name="transition.geometry">548/350:154x87:100</property>
    <property name="transition.distort">0</property>
    <property name="kdenlive:sync_in_out">1</property>
   </filter>
  </entry>
  <entry out="314" producer="66_playlist0" in="17"/>
  <entry out="353" producer="66_playlist0" in="315">
   <filter id="filter50">
    <property name="version">0,1</property>
    <property name="mlt_service">frei0r.scale0tilt</property>
    <property name="kdenlive_id">frei0r.scale0tilt</property>
    <property name="tag">frei0r.scale0tilt</property>
    <property name="kdenlive_info">1/-1/</property>
    <property name="kdenlive_ix">1</property>
    <property name="Clip left">0,117188</property>
    <property name="Clip right">0,117188</property>
    <property name="Clip top">0</property>
    <property name="Clip bottom">0</property>
    <property name="Scale X">0,5</property>
    <property name="Scale Y">0,5</property>
    <property name="Tilt X">0,5</property>
    <property name="Tilt Y">0,5</property>
   </filter>
   <filter id="filter51" out="357" in="315">
    <property name="background">colour:0x00000000</property>
    <property name="mlt_service">affine</property>
    <property name="kdenlive_id">pan_zoom</property>
    <property name="tag">affine</property>
    <property name="kdenlive_info">1/-1/</property>
    <property name="kdenlive_ix">2</property>
    <property name="transition.geometry">625/105:283x159:100</property>
    <property name="transition.distort">0</property>
    <property name="kdenlive:sync_in_out">1</property>
    <property name="disable"/>
   </filter>
  </entry>
  <entry out="1153" producer="66_playlist0" in="354"/>
  <entry out="1236" producer="66_playlist0" in="1154">
   <filter id="filter52">
    <property name="version">0,1</property>
    <property name="mlt_service">frei0r.scale0tilt</property>
    <property name="kdenlive_id">frei0r.scale0tilt</property>
    <property name="tag">frei0r.scale0tilt</property>
    <property name="kdenlive_info">1/-1/</property>
    <property name="kdenlive_ix">1</property>
    <property name="disable"/>
    <property name="Clip left">0,117188</property>
    <property name="Clip right">0,117188</property>
    <property name="Clip top">0</property>
    <property name="Clip bottom">0</property>
    <property name="Scale X">0,5</property>
    <property name="Scale Y">0,5</property>
    <property name="Tilt X">0,5</property>
    <property name="Tilt Y">0,5</property>
   </filter>
   <filter id="filter53" out="1236" in="1154">
    <property name="background">colour:0x00000000</property>
    <property name="mlt_service">affine</property>
    <property name="kdenlive_id">pan_zoom</property>
    <property name="tag">affine</property>
    <property name="kdenlive_info">1/-1/</property>
    <property name="kdenlive_ix">2</property>
    <property name="disable"/>
    <property name="transition.geometry">625/105:283x159:100</property>
    <property name="transition.distort">0</property>
    <property name="kdenlive:sync_in_out">1</property>
   </filter>
  </entry>
  <blank length="171"/>
  <entry out="512" producer="69_playlist0" in="199"/>
  <blank length="733"/>
  <entry out="340" producer="75_playlist0" in="15">
   <filter id="filter55" out="55" in="15">
    <property name="start">0</property>
    <property name="mlt_service">brightness</property>
    <property name="kdenlive_id">fade_from_black</property>
    <property name="tag">brightness</property>
    <property name="kdenlive_ix">1</property>
    <property name="end">1</property>
    <property name="kdenlive_info"/>
    <property name="disable"/>
   </filter>
  </entry>
  <entry out="176" producer="76_playlist0" in="65"/>
  <entry out="2917" producer="75_playlist0" in="2692"/>
  <blank length="77"/>
  <entry out="776" producer="78_playlist0" in="0">
   <filter id="filter56" out="776" in="734">
    <property name="start">1</property>
    <property name="mlt_service">brightness</property>
    <property name="kdenlive_id">fade_to_black</property>
    <property name="tag">brightness</property>
    <property name="kdenlive_ix">1</property>
    <property name="end">0</property>
   </filter>
  </entry>
  <blank length="2357"/>
  <entry out="239" producer="83" in="0">
   <filter id="filter57">
    <property name="background">colour:0x00000000</property>
    <property name="mlt_service">affine</property>
    <property name="kdenlive_id">affinerotate</property>
    <property name="tag">affine</property>
    <property name="kdenlive_ix">1</property>
    <property name="transition.rotate_x">0=107,6</property>
    <property name="transition.rotate_y">0=0</property>
    <property name="transition.rotate_z">0=0</property>
    <property name="transition.ox">0=0</property>
    <property name="transition.oy">0=0</property>
    <property name="transition.keyed">1</property>
    <property name="transition.always_active">1</property>
    <property name="kdenlive_info">1/-1/</property>
   </filter>
   <filter id="filter58" out="239">
    <property name="background">colour:0x00000000</property>
    <property name="mlt_service">affine</property>
    <property name="kdenlive_id">pan_zoom</property>
    <property name="tag">affine</property>
    <property name="kdenlive_ix">2</property>
    <property name="transition.geometry">0=568/89:640x360:100;27=535/12:640x360:100;75=590/-16:640x360:100;99=554/-52:640x360:100;168=599/-96:640x360:100;210=596/-85:640x360:100;239=568/103:640x360:100</property>
    <property name="transition.distort">0</property>
    <property name="kdenlive:sync_in_out">1</property>
    <property name="kdenlive_info"/>
   </filter>
   <filter id="filter59" out="239" in="203">
    <property name="start">1</property>
    <property name="mlt_service">brightness</property>
    <property name="kdenlive_id">fade_to_black</property>
    <property name="tag">brightness</property>
    <property name="kdenlive_ix">3</property>
    <property name="end">0</property>
   </filter>
  </entry>
 </playlist>
 <producer id="25_playlist4" title="Anonymous Submission" out="621" in="0">
  <property name="length">00:00:24:22</property>
  <property name="eof">pause</property>
  <property name="resource">/home/nicolas/.cache/kdenlive/proxy/f2ef34bb1a7b911cbaed51721c49ad7f.mpg</property>
  <property name="meta.media.nb_streams">2</property>
  <property name="meta.media.0.stream.type">video</property>
  <property name="meta.media.0.stream.frame_rate">25</property>
  <property name="meta.media.0.stream.sample_aspect_ratio">0</property>
  <property name="meta.media.0.codec.width">640</property>
  <property name="meta.media.0.codec.height">360</property>
  <property name="meta.media.0.codec.rotate">0</property>
  <property name="meta.media.0.codec.frame_rate">25</property>
  <property name="meta.media.0.codec.pix_fmt">yuv420p</property>
  <property name="meta.media.0.codec.sample_aspect_ratio">1</property>
  <property name="meta.media.0.codec.colorspace">601</property>
  <property name="meta.media.0.codec.name">mpeg2video</property>
  <property name="meta.media.0.codec.long_name">MPEG-2 video</property>
  <property name="meta.media.0.codec.bit_rate">0</property>
  <property name="meta.media.1.stream.type">audio</property>
  <property name="meta.media.1.codec.sample_fmt">s16p</property>
  <property name="meta.media.1.codec.sample_rate">48000</property>
  <property name="meta.media.1.codec.channels">2</property>
  <property name="meta.media.1.codec.name">mp2</property>
  <property name="meta.media.1.codec.long_name">MP2 (MPEG audio layer 2)</property>
  <property name="meta.media.1.codec.bit_rate">128000</property>
  <property name="seekable">1</property>
  <property name="meta.media.sample_aspect_num">1</property>
  <property name="meta.media.sample_aspect_den">1</property>
  <property name="aspect_ratio">1</property>
  <property name="audio_index">1</property>
  <property name="video_index">0</property>
  <property name="mute_on_pause">1</property>
  <property name="mlt_service">avformat</property>
  <property name="kdenlive:file_size">14228664</property>
  <property name="kdenlive:file_hash">f2ef34bb1a7b911cbaed51721c49ad7f</property>
  <property name="kdenlive:proxy">/home/nicolas/.cache/kdenlive/proxy/f2ef34bb1a7b911cbaed51721c49ad7f.mpg</property>
  <property name="proxy_out">621</property>
  <property name="kdenlive:originalurl">télé achat/crème anti-âge/render creme anti age.mp4</property>
  <property name="global_feed">1</property>
  <property name="kdenlive:meta.media.nb_streams">2</property>
  <property name="kdenlive:meta.media.0.stream.type">video</property>
  <property name="kdenlive:meta.media.0.stream.frame_rate">25</property>
  <property name="kdenlive:meta.media.0.stream.sample_aspect_ratio">1</property>
  <property name="kdenlive:meta.media.0.codec.width">1280</property>
  <property name="kdenlive:meta.media.0.codec.height">720</property>
  <property name="kdenlive:meta.media.0.codec.rotate">0</property>
  <property name="kdenlive:meta.media.0.codec.frame_rate">25</property>
  <property name="kdenlive:meta.media.0.codec.pix_fmt">yuv420p</property>
  <property name="kdenlive:meta.media.0.codec.sample_aspect_ratio">1</property>
  <property name="kdenlive:meta.media.0.codec.colorspace">709</property>
  <property name="kdenlive:meta.media.0.codec.color_trc">1</property>
  <property name="kdenlive:meta.media.0.codec.name">h264</property>
  <property name="kdenlive:meta.media.0.codec.long_name">H.264 / AVC / MPEG-4 AVC / MPEG-4 part 10</property>
  <property name="kdenlive:meta.media.0.codec.bit_rate">4573761</property>
  <property name="kdenlive:meta.attr.0.stream.handler_name.markup">VideoHandler</property>
  <property name="kdenlive:meta.media.1.stream.type">audio</property>
  <property name="kdenlive:meta.media.1.codec.sample_fmt">fltp</property>
  <property name="kdenlive:meta.media.1.codec.sample_rate">48000</property>
  <property name="kdenlive:meta.media.1.codec.channels">2</property>
  <property name="kdenlive:meta.media.1.codec.name">aac</property>
  <property name="kdenlive:meta.media.1.codec.long_name">AAC (Advanced Audio Coding)</property>
  <property name="kdenlive:meta.media.1.codec.bit_rate">2277</property>
  <property name="kdenlive:meta.attr.1.stream.handler_name.markup">SoundHandler</property>
  <property name="kdenlive:meta.attr.major_brand.markup">isom</property>
  <property name="kdenlive:meta.attr.minor_version.markup">512</property>
  <property name="kdenlive:meta.attr.compatible_brands.markup">isomiso2avc1mp41</property>
  <property name="kdenlive:meta.attr.encoder.markup">Lavf57.56.101</property>
  <property name="kdenlive:meta.media.sample_aspect_num">1</property>
  <property name="kdenlive:meta.media.sample_aspect_den">1</property>
  <property name="kdenlive:meta.media.frame_rate_num">25</property>
  <property name="kdenlive:meta.media.frame_rate_den">1</property>
  <property name="kdenlive:meta.media.colorspace">709</property>
  <property name="kdenlive:meta.media.color_trc">1</property>
  <property name="kdenlive:meta.media.width">1280</property>
  <property name="kdenlive:meta.media.height">720</property>
  <property name="kdenlive:meta.media.top_field_first">0</property>
  <property name="kdenlive:meta.media.progressive">1</property>
  <property name="xml">was here</property>
  <property name="meta.media.frame_rate_num">25</property>
  <property name="meta.media.frame_rate_den">1</property>
  <property name="meta.media.colorspace">601</property>
  <property name="meta.media.color_trc">2</property>
  <property name="meta.media.width">640</property>
  <property name="meta.media.height">360</property>
  <property name="meta.media.top_field_first">0</property>
  <property name="meta.media.progressive">1</property>
 </producer>
 <producer id="31_playlist4" title="Anonymous Submission" out="1259" in="0">
  <property name="length">00:00:50:10</property>
  <property name="eof">pause</property>
  <property name="resource">/home/nicolas/.cache/kdenlive/proxy/d9d1c87be01f2292e724d1b5a69e375e.mpg</property>
  <property name="meta.media.nb_streams">2</property>
  <property name="meta.media.0.stream.type">video</property>
  <property name="meta.media.0.stream.frame_rate">25</property>
  <property name="meta.media.0.stream.sample_aspect_ratio">0</property>
  <property name="meta.media.0.codec.width">640</property>
  <property name="meta.media.0.codec.height">360</property>
  <property name="meta.media.0.codec.rotate">0</property>
  <property name="meta.media.0.codec.frame_rate">25</property>
  <property name="meta.media.0.codec.pix_fmt">yuv420p</property>
  <property name="meta.media.0.codec.sample_aspect_ratio">1</property>
  <property name="meta.media.0.codec.colorspace">601</property>
  <property name="meta.media.0.codec.name">mpeg2video</property>
  <property name="meta.media.0.codec.long_name">MPEG-2 video</property>
  <property name="meta.media.0.codec.bit_rate">0</property>
  <property name="meta.media.1.stream.type">audio</property>
  <property name="meta.media.1.codec.sample_fmt">s16p</property>
  <property name="meta.media.1.codec.sample_rate">24000</property>
  <property name="meta.media.1.codec.channels">1</property>
  <property name="meta.media.1.codec.name">mp2</property>
  <property name="meta.media.1.codec.long_name">MP2 (MPEG audio layer 2)</property>
  <property name="meta.media.1.codec.bit_rate">128000</property>
  <property name="seekable">1</property>
  <property name="meta.media.sample_aspect_num">1</property>
  <property name="meta.media.sample_aspect_den">1</property>
  <property name="aspect_ratio">1</property>
  <property name="audio_index">1</property>
  <property name="video_index">0</property>
  <property name="mute_on_pause">1</property>
  <property name="mlt_service">avformat</property>
  <property name="kdenlive:folderid">-1</property>
  <property name="kdenlive:file_size">68857890</property>
  <property name="kdenlive:file_hash">d9d1c87be01f2292e724d1b5a69e375e</property>
  <property name="kdenlive:proxy">/home/nicolas/.cache/kdenlive/proxy/d9d1c87be01f2292e724d1b5a69e375e.mpg</property>
  <property name="proxy_out">1259</property>
  <property name="kdenlive:originalurl">3DSC_0164.MOV</property>
  <property name="global_feed">1</property>
  <property name="kdenlive:meta.media.nb_streams">2</property>
  <property name="kdenlive:meta.media.0.stream.type">video</property>
  <property name="kdenlive:meta.media.0.stream.frame_rate">25</property>
  <property name="kdenlive:meta.media.0.stream.sample_aspect_ratio">0</property>
  <property name="kdenlive:meta.media.0.codec.width">1280</property>
  <property name="kdenlive:meta.media.0.codec.height">720</property>
  <property name="kdenlive:meta.media.0.codec.rotate">0</property>
  <property name="kdenlive:meta.media.0.codec.frame_rate">25</property>
  <property name="kdenlive:meta.media.0.codec.pix_fmt">yuvj420p</property>
  <property name="kdenlive:meta.media.0.codec.sample_aspect_ratio">1</property>
  <property name="kdenlive:meta.media.0.codec.colorspace">601</property>
  <property name="kdenlive:meta.media.0.codec.color_trc">4</property>
  <property name="kdenlive:meta.media.0.codec.name">h264</property>
  <property name="kdenlive:meta.media.0.codec.long_name">H.264 / AVC / MPEG-4 AVC / MPEG-4 part 10</property>
  <property name="kdenlive:meta.media.0.codec.bit_rate">10525961</property>
  <property name="kdenlive:meta.attr.0.stream.creation_time.markup">2017-08-20T18:52:54.000000Z</property>
  <property name="kdenlive:meta.attr.0.stream.language.markup">eng</property>
  <property name="kdenlive:meta.media.1.stream.type">audio</property>
  <property name="kdenlive:meta.media.1.codec.sample_fmt">s16</property>
  <property name="kdenlive:meta.media.1.codec.sample_rate">24000</property>
  <property name="kdenlive:meta.media.1.codec.channels">1</property>
  <property name="kdenlive:meta.media.1.codec.name">pcm_s16le</property>
  <property name="kdenlive:meta.media.1.codec.long_name">PCM signed 16-bit little-endian</property>
  <property name="kdenlive:meta.media.1.codec.bit_rate">384000</property>
  <property name="kdenlive:meta.attr.1.stream.creation_time.markup">2017-08-20T18:52:54.000000Z</property>
  <property name="kdenlive:meta.attr.1.stream.language.markup">eng</property>
  <property name="kdenlive:meta.attr.major_brand.markup">qt  </property>
  <property name="kdenlive:meta.attr.minor_version.markup">537331968</property>
  <property name="kdenlive:meta.attr.compatible_brands.markup">qt  niko</property>
  <property name="kdenlive:meta.attr.creation_time.markup">2017-08-20T18:52:54.000000Z</property>
  <property name="kdenlive:meta.media.sample_aspect_num">1</property>
  <property name="kdenlive:meta.media.sample_aspect_den">1</property>
  <property name="kdenlive:meta.media.frame_rate_num">25</property>
  <property name="kdenlive:meta.media.frame_rate_den">1</property>
  <property name="kdenlive:meta.media.colorspace">601</property>
  <property name="kdenlive:meta.media.color_trc">4</property>
  <property name="kdenlive:meta.media.width">1280</property>
  <property name="kdenlive:meta.media.height">720</property>
  <property name="kdenlive:meta.media.top_field_first">0</property>
  <property name="kdenlive:meta.media.progressive">1</property>
  <property name="xml">was here</property>
  <property name="meta.media.frame_rate_num">25</property>
  <property name="meta.media.frame_rate_den">1</property>
  <property name="meta.media.colorspace">601</property>
  <property name="meta.media.color_trc">2</property>
  <property name="meta.media.width">640</property>
  <property name="meta.media.height">360</property>
  <property name="meta.media.top_field_first">0</property>
  <property name="meta.media.progressive">1</property>
 </producer>
 <producer id="34_playlist4" title="Anonymous Submission" out="335" in="0">
  <property name="length">00:00:13:11</property>
  <property name="eof">pause</property>
  <property name="resource">/home/nicolas/.cache/kdenlive/proxy/6adbde65cd9ae1a4aa01ac6a0c8fbdb6.mpg</property>
  <property name="meta.media.nb_streams">2</property>
  <property name="meta.media.0.stream.type">video</property>
  <property name="meta.media.0.stream.frame_rate">25</property>
  <property name="meta.media.0.stream.sample_aspect_ratio">0</property>
  <property name="meta.media.0.codec.width">640</property>
  <property name="meta.media.0.codec.height">360</property>
  <property name="meta.media.0.codec.rotate">0</property>
  <property name="meta.media.0.codec.frame_rate">25</property>
  <property name="meta.media.0.codec.pix_fmt">yuv420p</property>
  <property name="meta.media.0.codec.sample_aspect_ratio">1</property>
  <property name="meta.media.0.codec.colorspace">601</property>
  <property name="meta.media.0.codec.name">mpeg2video</property>
  <property name="meta.media.0.codec.long_name">MPEG-2 video</property>
  <property name="meta.media.0.codec.bit_rate">0</property>
  <property name="meta.media.1.stream.type">audio</property>
  <property name="meta.media.1.codec.sample_fmt">s16p</property>
  <property name="meta.media.1.codec.sample_rate">24000</property>
  <property name="meta.media.1.codec.channels">1</property>
  <property name="meta.media.1.codec.name">mp2</property>
  <property name="meta.media.1.codec.long_name">MP2 (MPEG audio layer 2)</property>
  <property name="meta.media.1.codec.bit_rate">128000</property>
  <property name="seekable">1</property>
  <property name="meta.media.sample_aspect_num">1</property>
  <property name="meta.media.sample_aspect_den">1</property>
  <property name="aspect_ratio">1</property>
  <property name="audio_index">1</property>
  <property name="video_index">0</property>
  <property name="mute_on_pause">1</property>
  <property name="mlt_service">avformat</property>
  <property name="kdenlive:file_size">18291465</property>
  <property name="kdenlive:file_hash">6adbde65cd9ae1a4aa01ac6a0c8fbdb6</property>
  <property name="kdenlive:proxy">/home/nicolas/.cache/kdenlive/proxy/6adbde65cd9ae1a4aa01ac6a0c8fbdb6.mpg</property>
  <property name="proxy_out">335</property>
  <property name="kdenlive:originalurl">3DSC_0157.MOV</property>
  <property name="global_feed">1</property>
  <property name="kdenlive:meta.media.nb_streams">2</property>
  <property name="kdenlive:meta.media.0.stream.type">video</property>
  <property name="kdenlive:meta.media.0.stream.frame_rate">25</property>
  <property name="kdenlive:meta.media.0.stream.sample_aspect_ratio">0</property>
  <property name="kdenlive:meta.media.0.codec.width">1280</property>
  <property name="kdenlive:meta.media.0.codec.height">720</property>
  <property name="kdenlive:meta.media.0.codec.rotate">0</property>
  <property name="kdenlive:meta.media.0.codec.frame_rate">25</property>
  <property name="kdenlive:meta.media.0.codec.pix_fmt">yuvj420p</property>
  <property name="kdenlive:meta.media.0.codec.sample_aspect_ratio">1</property>
  <property name="kdenlive:meta.media.0.codec.colorspace">601</property>
  <property name="kdenlive:meta.media.0.codec.color_trc">4</property>
  <property name="kdenlive:meta.media.0.codec.name">h264</property>
  <property name="kdenlive:meta.media.0.codec.long_name">H.264 / AVC / MPEG-4 AVC / MPEG-4 part 10</property>
  <property name="kdenlive:meta.media.0.codec.bit_rate">10433407</property>
  <property name="kdenlive:meta.attr.0.stream.creation_time.markup">2017-08-20T18:11:59.000000Z</property>
  <property name="kdenlive:meta.attr.0.stream.language.markup">eng</property>
  <property name="kdenlive:meta.media.1.stream.type">audio</property>
  <property name="kdenlive:meta.media.1.codec.sample_fmt">s16</property>
  <property name="kdenlive:meta.media.1.codec.sample_rate">24000</property>
  <property name="kdenlive:meta.media.1.codec.channels">1</property>
  <property name="kdenlive:meta.media.1.codec.name">pcm_s16le</property>
  <property name="kdenlive:meta.media.1.codec.long_name">PCM signed 16-bit little-endian</property>
  <property name="kdenlive:meta.media.1.codec.bit_rate">384000</property>
  <property name="kdenlive:meta.attr.1.stream.creation_time.markup">2017-08-20T18:11:59.000000Z</property>
  <property name="kdenlive:meta.attr.1.stream.language.markup">eng</property>
  <property name="kdenlive:meta.attr.major_brand.markup">qt  </property>
  <property name="kdenlive:meta.attr.minor_version.markup">537331968</property>
  <property name="kdenlive:meta.attr.compatible_brands.markup">qt  niko</property>
  <property name="kdenlive:meta.attr.creation_time.markup">2017-08-20T18:11:59.000000Z</property>
  <property name="kdenlive:meta.media.sample_aspect_num">1</property>
  <property name="kdenlive:meta.media.sample_aspect_den">1</property>
  <property name="kdenlive:meta.media.frame_rate_num">25</property>
  <property name="kdenlive:meta.media.frame_rate_den">1</property>
  <property name="kdenlive:meta.media.colorspace">601</property>
  <property name="kdenlive:meta.media.color_trc">4</property>
  <property name="kdenlive:meta.media.width">1280</property>
  <property name="kdenlive:meta.media.height">720</property>
  <property name="kdenlive:meta.media.top_field_first">0</property>
  <property name="kdenlive:meta.media.progressive">1</property>
  <property name="xml">was here</property>
  <property name="meta.media.frame_rate_num">25</property>
  <property name="meta.media.frame_rate_den">1</property>
  <property name="meta.media.colorspace">601</property>
  <property name="meta.media.color_trc">2</property>
  <property name="meta.media.width">640</property>
  <property name="meta.media.height">360</property>
  <property name="meta.media.top_field_first">0</property>
  <property name="meta.media.progressive">1</property>
 </producer>
 <producer id="103_playlist4" title="Anonymous Submission" out="5426" in="0">
  <property name="length">00:03:37:02</property>
  <property name="eof">pause</property>
  <property name="resource">/home/nicolas/.cache/kdenlive/proxy/59e99529a671d6fcb37e784c79032e90.mpg</property>
  <property name="meta.media.nb_streams">2</property>
  <property name="meta.media.0.stream.type">video</property>
  <property name="meta.media.0.stream.frame_rate">25</property>
  <property name="meta.media.0.stream.sample_aspect_ratio">0</property>
  <property name="meta.media.0.codec.width">640</property>
  <property name="meta.media.0.codec.height">360</property>
  <property name="meta.media.0.codec.rotate">0</property>
  <property name="meta.media.0.codec.frame_rate">25</property>
  <property name="meta.media.0.codec.pix_fmt">yuv420p</property>
  <property name="meta.media.0.codec.sample_aspect_ratio">1</property>
  <property name="meta.media.0.codec.colorspace">601</property>
  <property name="meta.media.0.codec.name">mpeg2video</property>
  <property name="meta.media.0.codec.long_name">MPEG-2 video</property>
  <property name="meta.media.0.codec.bit_rate">0</property>
  <property name="meta.media.1.stream.type">audio</property>
  <property name="meta.media.1.codec.sample_fmt">s16p</property>
  <property name="meta.media.1.codec.sample_rate">24000</property>
  <property name="meta.media.1.codec.channels">1</property>
  <property name="meta.media.1.codec.name">mp2</property>
  <property name="meta.media.1.codec.long_name">MP2 (MPEG audio layer 2)</property>
  <property name="meta.media.1.codec.bit_rate">128000</property>
  <property name="seekable">1</property>
  <property name="meta.media.sample_aspect_num">1</property>
  <property name="meta.media.sample_aspect_den">1</property>
  <property name="aspect_ratio">1</property>
  <property name="audio_index">1</property>
  <property name="video_index">0</property>
  <property name="mute_on_pause">1</property>
  <property name="mlt_service">avformat</property>
  <property name="kdenlive:folderid">2</property>
  <property name="kdenlive:file_size">286521782</property>
  <property name="kdenlive:file_hash">59e99529a671d6fcb37e784c79032e90</property>
  <property name="kdenlive:proxy">/home/nicolas/.cache/kdenlive/proxy/59e99529a671d6fcb37e784c79032e90.mpg</property>
  <property name="proxy_out">5426</property>
  <property name="kdenlive:originalurl">SdB_Raspoutine/DSC_0018.MOV</property>
  <property name="global_feed">1</property>
  <property name="kdenlive:meta.media.nb_streams">2</property>
  <property name="kdenlive:meta.media.0.stream.type">video</property>
  <property name="kdenlive:meta.media.0.stream.frame_rate">25</property>
  <property name="kdenlive:meta.media.0.stream.sample_aspect_ratio">0</property>
  <property name="kdenlive:meta.media.0.codec.width">1280</property>
  <property name="kdenlive:meta.media.0.codec.height">720</property>
  <property name="kdenlive:meta.media.0.codec.rotate">0</property>
  <property name="kdenlive:meta.media.0.codec.frame_rate">25</property>
  <property name="kdenlive:meta.media.0.codec.pix_fmt">yuvj420p</property>
  <property name="kdenlive:meta.media.0.codec.sample_aspect_ratio">1</property>
  <property name="kdenlive:meta.media.0.codec.colorspace">601</property>
  <property name="kdenlive:meta.media.0.codec.color_trc">4</property>
  <property name="kdenlive:meta.media.0.codec.name">h264</property>
  <property name="kdenlive:meta.media.0.codec.long_name">H.264 / AVC / MPEG-4 AVC / MPEG-4 part 10</property>
  <property name="kdenlive:meta.media.0.codec.bit_rate">10169070</property>
  <property name="kdenlive:meta.attr.0.stream.creation_time.markup">2017-10-19T12:21:51.000000Z</property>
  <property name="kdenlive:meta.attr.0.stream.language.markup">eng</property>
  <property name="kdenlive:meta.media.1.stream.type">audio</property>
  <property name="kdenlive:meta.media.1.codec.sample_fmt">s16</property>
  <property name="kdenlive:meta.media.1.codec.sample_rate">24000</property>
  <property name="kdenlive:meta.media.1.codec.channels">1</property>
  <property name="kdenlive:meta.media.1.codec.name">pcm_s16le</property>
  <property name="kdenlive:meta.media.1.codec.long_name">PCM signed 16-bit little-endian</property>
  <property name="kdenlive:meta.media.1.codec.bit_rate">384000</property>
  <property name="kdenlive:meta.attr.1.stream.creation_time.markup">2017-10-19T12:21:51.000000Z</property>
  <property name="kdenlive:meta.attr.1.stream.language.markup">eng</property>
  <property name="kdenlive:meta.attr.major_brand.markup">qt  </property>
  <property name="kdenlive:meta.attr.minor_version.markup">537331968</property>
  <property name="kdenlive:meta.attr.compatible_brands.markup">qt  niko</property>
  <property name="kdenlive:meta.attr.creation_time.markup">2017-10-19T12:21:51.000000Z</property>
  <property name="kdenlive:meta.media.sample_aspect_num">1</property>
  <property name="kdenlive:meta.media.sample_aspect_den">1</property>
  <property name="kdenlive:meta.media.frame_rate_num">25</property>
  <property name="kdenlive:meta.media.frame_rate_den">1</property>
  <property name="kdenlive:meta.media.colorspace">601</property>
  <property name="kdenlive:meta.media.color_trc">4</property>
  <property name="kdenlive:meta.media.width">1280</property>
  <property name="kdenlive:meta.media.height">720</property>
  <property name="kdenlive:meta.media.top_field_first">0</property>
  <property name="kdenlive:meta.media.progressive">1</property>
  <property name="xml">was here</property>
  <property name="meta.media.frame_rate_num">25</property>
  <property name="meta.media.frame_rate_den">1</property>
  <property name="meta.media.colorspace">601</property>
  <property name="meta.media.color_trc">2</property>
  <property name="meta.media.width">640</property>
  <property name="meta.media.height">360</property>
  <property name="meta.media.top_field_first">0</property>
  <property name="meta.media.progressive">1</property>
 </producer>
 <producer id="slowmotion:103:1,2:1:0" out="4522" in="0">
  <property name="length">4523</property>
  <property name="eof">pause</property>
  <property name="resource">1,2:/home/nicolas/.cache/kdenlive/proxy/59e99529a671d6fcb37e784c79032e90.mpg</property>
  <property name="aspect_ratio">1</property>
  <property name="meta.media.nb_streams">2</property>
  <property name="meta.media.0.stream.type">video</property>
  <property name="meta.media.0.stream.frame_rate">25</property>
  <property name="meta.media.0.stream.sample_aspect_ratio">0</property>
  <property name="meta.media.0.codec.width">640</property>
  <property name="meta.media.0.codec.height">360</property>
  <property name="meta.media.0.codec.rotate">0</property>
  <property name="meta.media.0.codec.frame_rate">25</property>
  <property name="meta.media.0.codec.pix_fmt">yuv420p</property>
  <property name="meta.media.0.codec.sample_aspect_ratio">1</property>
  <property name="meta.media.0.codec.colorspace">601</property>
  <property name="meta.media.0.codec.name">mpeg2video</property>
  <property name="meta.media.0.codec.long_name">MPEG-2 video</property>
  <property name="meta.media.0.codec.bit_rate">0</property>
  <property name="meta.media.1.stream.type">audio</property>
  <property name="meta.media.1.codec.sample_fmt">s16p</property>
  <property name="meta.media.1.codec.sample_rate">24000</property>
  <property name="meta.media.1.codec.channels">1</property>
  <property name="meta.media.1.codec.name">mp2</property>
  <property name="meta.media.1.codec.long_name">MP2 (MPEG audio layer 2)</property>
  <property name="meta.media.1.codec.bit_rate">128000</property>
  <property name="seekable">1</property>
  <property name="meta.media.sample_aspect_num">1</property>
  <property name="meta.media.sample_aspect_den">1</property>
  <property name="audio_index">1</property>
  <property name="video_index">0</property>
  <property name="mute_on_pause">1</property>
  <property name="warp_speed">1,2</property>
  <property name="warp_resource">/home/nicolas/.cache/kdenlive/proxy/59e99529a671d6fcb37e784c79032e90.mpg</property>
  <property name="mlt_service">timewarp</property>
  <property name="kdenlive:proxy">/home/nicolas/.cache/kdenlive/proxy/59e99529a671d6fcb37e784c79032e90.mpg</property>
  <property name="kdenlive:originalurl">SdB_Raspoutine/DSC_0018.MOV</property>
  <property name="meta.media.frame_rate_num">25</property>
  <property name="meta.media.frame_rate_den">1</property>
  <property name="meta.media.colorspace">601</property>
  <property name="meta.media.color_trc">2</property>
  <property name="meta.media.width">640</property>
  <property name="meta.media.height">360</property>
  <property name="meta.media.top_field_first">0</property>
  <property name="meta.media.progressive">1</property>
 </producer>
 <producer id="41_playlist4" title="Anonymous Submission" out="1591" in="0">
  <property name="length">00:01:03:17</property>
  <property name="eof">pause</property>
  <property name="resource">/home/nicolas/.cache/kdenlive/proxy/54a87cee0810c3bc8bb73d4efc2b7bac.mpg</property>
  <property name="meta.media.nb_streams">2</property>
  <property name="meta.media.0.stream.type">video</property>
  <property name="meta.media.0.stream.frame_rate">29,97</property>
  <property name="meta.media.0.stream.sample_aspect_ratio">0</property>
  <property name="meta.media.0.codec.width">640</property>
  <property name="meta.media.0.codec.height">360</property>
  <property name="meta.media.0.codec.rotate">0</property>
  <property name="meta.media.0.codec.frame_rate">29,97</property>
  <property name="meta.media.0.codec.pix_fmt">yuv420p</property>
  <property name="meta.media.0.codec.sample_aspect_ratio">1</property>
  <property name="meta.media.0.codec.colorspace">601</property>
  <property name="meta.media.0.codec.name">mpeg2video</property>
  <property name="meta.media.0.codec.long_name">MPEG-2 video</property>
  <property name="meta.media.0.codec.bit_rate">0</property>
  <property name="meta.media.1.stream.type">audio</property>
  <property name="meta.media.1.codec.sample_fmt">s16p</property>
  <property name="meta.media.1.codec.sample_rate">48000</property>
  <property name="meta.media.1.codec.channels">2</property>
  <property name="meta.media.1.codec.name">mp2</property>
  <property name="meta.media.1.codec.long_name">MP2 (MPEG audio layer 2)</property>
  <property name="meta.media.1.codec.bit_rate">128000</property>
  <property name="seekable">1</property>
  <property name="meta.media.sample_aspect_num">1</property>
  <property name="meta.media.sample_aspect_den">1</property>
  <property name="aspect_ratio">1</property>
  <property name="audio_index">1</property>
  <property name="video_index">0</property>
  <property name="mute_on_pause">1</property>
  <property name="mlt_service">avformat</property>
  <property name="kdenlive:file_size">25429568</property>
  <property name="kdenlive:file_hash">54a87cee0810c3bc8bb73d4efc2b7bac</property>
  <property name="kdenlive:proxy">/home/nicolas/.cache/kdenlive/proxy/54a87cee0810c3bc8bb73d4efc2b7bac.mpg</property>
  <property name="proxy_out">1591</property>
  <property name="kdenlive:originalurl">télé achat/chaussons chauffants/thé.mp4</property>
  <property name="global_feed">1</property>
  <property name="kdenlive:meta.media.nb_streams">2</property>
  <property name="kdenlive:meta.media.0.stream.type">audio</property>
  <property name="kdenlive:meta.media.0.codec.sample_fmt">fltp</property>
  <property name="kdenlive:meta.media.0.codec.sample_rate">48000</property>
  <property name="kdenlive:meta.media.0.codec.channels">2</property>
  <property name="kdenlive:meta.media.0.codec.name">aac</property>
  <property name="kdenlive:meta.media.0.codec.long_name">AAC (Advanced Audio Coding)</property>
  <property name="kdenlive:meta.media.0.codec.bit_rate">128005</property>
  <property name="kdenlive:meta.attr.0.stream.creation_time.markup">2014-02-22T11:25:05.000000Z</property>
  <property name="kdenlive:meta.attr.0.stream.language.markup">eng</property>
  <property name="kdenlive:meta.attr.0.stream.handler_name.markup">Sound Media Handler</property>
  <property name="kdenlive:meta.media.1.stream.type">video</property>
  <property name="kdenlive:meta.media.1.stream.frame_rate">29,97</property>
  <property name="kdenlive:meta.media.1.stream.sample_aspect_ratio">0</property>
  <property name="kdenlive:meta.media.1.codec.width">1280</property>
  <property name="kdenlive:meta.media.1.codec.height">720</property>
  <property name="kdenlive:meta.media.1.codec.rotate">0</property>
  <property name="kdenlive:meta.media.1.codec.frame_rate">29,97</property>
  <property name="kdenlive:meta.media.1.codec.pix_fmt">yuv420p</property>
  <property name="kdenlive:meta.media.1.codec.sample_aspect_ratio">1</property>
  <property name="kdenlive:meta.media.1.codec.colorspace">709</property>
  <property name="kdenlive:meta.media.1.codec.name">h264</property>
  <property name="kdenlive:meta.media.1.codec.long_name">H.264 / AVC / MPEG-4 AVC / MPEG-4 part 10</property>
  <property name="kdenlive:meta.media.1.codec.bit_rate">3060922</property>
  <property name="kdenlive:meta.attr.1.stream.creation_time.markup">2014-02-22T11:25:05.000000Z</property>
  <property name="kdenlive:meta.attr.1.stream.language.markup">eng</property>
  <property name="kdenlive:meta.attr.1.stream.handler_name.markup">Video Media Handler</property>
  <property name="kdenlive:meta.attr.1.stream.encoder.markup">AVC Coding</property>
  <property name="kdenlive:meta.attr.major_brand.markup">mp42</property>
  <property name="kdenlive:meta.attr.minor_version.markup">19529854</property>
  <property name="kdenlive:meta.attr.compatible_brands.markup">mp42isom</property>
  <property name="kdenlive:meta.attr.creation_time.markup">2014-02-22T11:25:05.000000Z</property>
  <property name="kdenlive:meta.media.sample_aspect_num">1</property>
  <property name="kdenlive:meta.media.sample_aspect_den">1</property>
  <property name="kdenlive:meta.media.frame_rate_num">30000</property>
  <property name="kdenlive:meta.media.frame_rate_den">1001</property>
  <property name="kdenlive:meta.media.colorspace">709</property>
  <property name="kdenlive:meta.media.color_trc">2</property>
  <property name="kdenlive:meta.media.width">1280</property>
  <property name="kdenlive:meta.media.height">720</property>
  <property name="kdenlive:meta.media.top_field_first">0</property>
  <property name="kdenlive:meta.media.progressive">1</property>
  <property name="xml">was here</property>
  <property name="meta.media.frame_rate_num">30000</property>
  <property name="meta.media.frame_rate_den">1001</property>
  <property name="meta.media.colorspace">601</property>
  <property name="meta.media.color_trc">2</property>
  <property name="meta.media.width">640</property>
  <property name="meta.media.height">360</property>
  <property name="meta.media.top_field_first">0</property>
  <property name="meta.media.progressive">1</property>
 </producer>
 <producer id="46_playlist4" title="Anonymous Submission" out="569" in="0">
  <property name="length">00:00:22:20</property>
  <property name="eof">pause</property>
  <property name="resource">/home/nicolas/.cache/kdenlive/proxy/bec6b78515a8010ecf69f1eb99b9fe47.mpg</property>
  <property name="meta.media.nb_streams">2</property>
  <property name="meta.media.0.stream.type">video</property>
  <property name="meta.media.0.stream.frame_rate">25</property>
  <property name="meta.media.0.stream.sample_aspect_ratio">0</property>
  <property name="meta.media.0.codec.width">640</property>
  <property name="meta.media.0.codec.height">360</property>
  <property name="meta.media.0.codec.rotate">0</property>
  <property name="meta.media.0.codec.frame_rate">25</property>
  <property name="meta.media.0.codec.pix_fmt">yuv420p</property>
  <property name="meta.media.0.codec.sample_aspect_ratio">1</property>
  <property name="meta.media.0.codec.colorspace">601</property>
  <property name="meta.media.0.codec.name">mpeg2video</property>
  <property name="meta.media.0.codec.long_name">MPEG-2 video</property>
  <property name="meta.media.0.codec.bit_rate">0</property>
  <property name="meta.media.1.stream.type">audio</property>
  <property name="meta.media.1.codec.sample_fmt">s16p</property>
  <property name="meta.media.1.codec.sample_rate">24000</property>
  <property name="meta.media.1.codec.channels">1</property>
  <property name="meta.media.1.codec.name">mp2</property>
  <property name="meta.media.1.codec.long_name">MP2 (MPEG audio layer 2)</property>
  <property name="meta.media.1.codec.bit_rate">128000</property>
  <property name="seekable">1</property>
  <property name="meta.media.sample_aspect_num">1</property>
  <property name="meta.media.sample_aspect_den">1</property>
  <property name="aspect_ratio">1</property>
  <property name="audio_index">1</property>
  <property name="video_index">0</property>
  <property name="mute_on_pause">1</property>
  <property name="mlt_service">avformat</property>
  <property name="kdenlive:file_size">31753256</property>
  <property name="kdenlive:file_hash">bec6b78515a8010ecf69f1eb99b9fe47</property>
  <property name="kdenlive:proxy">/home/nicolas/.cache/kdenlive/proxy/bec6b78515a8010ecf69f1eb99b9fe47.mpg</property>
  <property name="proxy_out">569</property>
  <property name="kdenlive:originalurl">3DSC_0176.MOV</property>
  <property name="global_feed">1</property>
  <property name="kdenlive:meta.media.nb_streams">2</property>
  <property name="kdenlive:meta.media.0.stream.type">video</property>
  <property name="kdenlive:meta.media.0.stream.frame_rate">25</property>
  <property name="kdenlive:meta.media.0.stream.sample_aspect_ratio">0</property>
  <property name="kdenlive:meta.media.0.codec.width">1280</property>
  <property name="kdenlive:meta.media.0.codec.height">720</property>
  <property name="kdenlive:meta.media.0.codec.rotate">0</property>
  <property name="kdenlive:meta.media.0.codec.frame_rate">25</property>
  <property name="kdenlive:meta.media.0.codec.pix_fmt">yuvj420p</property>
  <property name="kdenlive:meta.media.0.codec.sample_aspect_ratio">1</property>
  <property name="kdenlive:meta.media.0.codec.colorspace">601</property>
  <property name="kdenlive:meta.media.0.codec.color_trc">4</property>
  <property name="kdenlive:meta.media.0.codec.name">h264</property>
  <property name="kdenlive:meta.media.0.codec.long_name">H.264 / AVC / MPEG-4 AVC / MPEG-4 part 10</property>
  <property name="kdenlive:meta.media.0.codec.bit_rate">10716844</property>
  <property name="kdenlive:meta.attr.0.stream.creation_time.markup">2017-08-20T19:09:57.000000Z</property>
  <property name="kdenlive:meta.attr.0.stream.language.markup">eng</property>
  <property name="kdenlive:meta.media.1.stream.type">audio</property>
  <property name="kdenlive:meta.media.1.codec.sample_fmt">s16</property>
  <property name="kdenlive:meta.media.1.codec.sample_rate">24000</property>
  <property name="kdenlive:meta.media.1.codec.channels">1</property>
  <property name="kdenlive:meta.media.1.codec.name">pcm_s16le</property>
  <property name="kdenlive:meta.media.1.codec.long_name">PCM signed 16-bit little-endian</property>
  <property name="kdenlive:meta.media.1.codec.bit_rate">384000</property>
  <property name="kdenlive:meta.attr.1.stream.creation_time.markup">2017-08-20T19:09:57.000000Z</property>
  <property name="kdenlive:meta.attr.1.stream.language.markup">eng</property>
  <property name="kdenlive:meta.attr.major_brand.markup">qt  </property>
  <property name="kdenlive:meta.attr.minor_version.markup">537331968</property>
  <property name="kdenlive:meta.attr.compatible_brands.markup">qt  niko</property>
  <property name="kdenlive:meta.attr.creation_time.markup">2017-08-20T19:09:57.000000Z</property>
  <property name="kdenlive:meta.media.sample_aspect_num">1</property>
  <property name="kdenlive:meta.media.sample_aspect_den">1</property>
  <property name="kdenlive:meta.media.frame_rate_num">25</property>
  <property name="kdenlive:meta.media.frame_rate_den">1</property>
  <property name="kdenlive:meta.media.colorspace">601</property>
  <property name="kdenlive:meta.media.color_trc">4</property>
  <property name="kdenlive:meta.media.width">1280</property>
  <property name="kdenlive:meta.media.height">720</property>
  <property name="kdenlive:meta.media.top_field_first">0</property>
  <property name="kdenlive:meta.media.progressive">1</property>
  <property name="xml">was here</property>
  <property name="meta.media.frame_rate_num">25</property>
  <property name="meta.media.frame_rate_den">1</property>
  <property name="meta.media.colorspace">601</property>
  <property name="meta.media.color_trc">2</property>
  <property name="meta.media.width">640</property>
  <property name="meta.media.height">360</property>
  <property name="meta.media.top_field_first">0</property>
  <property name="meta.media.progressive">1</property>
 </producer>
 <producer id="slowmotion:59:1,8:1:0" out="238" in="0">
  <property name="length">239</property>
  <property name="eof">pause</property>
  <property name="resource">1,8:/home/nicolas/.cache/kdenlive/proxy/cdde12156f6f25c9a8f63c310fa2ad2a.mpg</property>
  <property name="aspect_ratio">1</property>
  <property name="meta.media.nb_streams">2</property>
  <property name="meta.media.0.stream.type">video</property>
  <property name="meta.media.0.stream.frame_rate">25</property>
  <property name="meta.media.0.stream.sample_aspect_ratio">0</property>
  <property name="meta.media.0.codec.width">640</property>
  <property name="meta.media.0.codec.height">360</property>
  <property name="meta.media.0.codec.rotate">0</property>
  <property name="meta.media.0.codec.frame_rate">25</property>
  <property name="meta.media.0.codec.pix_fmt">yuv420p</property>
  <property name="meta.media.0.codec.sample_aspect_ratio">1</property>
  <property name="meta.media.0.codec.colorspace">601</property>
  <property name="meta.media.0.codec.name">mpeg2video</property>
  <property name="meta.media.0.codec.long_name">MPEG-2 video</property>
  <property name="meta.media.0.codec.bit_rate">0</property>
  <property name="meta.media.1.stream.type">audio</property>
  <property name="meta.media.1.codec.sample_fmt">s16p</property>
  <property name="meta.media.1.codec.sample_rate">24000</property>
  <property name="meta.media.1.codec.channels">1</property>
  <property name="meta.media.1.codec.name">mp2</property>
  <property name="meta.media.1.codec.long_name">MP2 (MPEG audio layer 2)</property>
  <property name="meta.media.1.codec.bit_rate">128000</property>
  <property name="seekable">1</property>
  <property name="meta.media.sample_aspect_num">1</property>
  <property name="meta.media.sample_aspect_den">1</property>
  <property name="audio_index">1</property>
  <property name="video_index">0</property>
  <property name="mute_on_pause">1</property>
  <property name="warp_speed">1,8</property>
  <property name="warp_resource">/home/nicolas/.cache/kdenlive/proxy/cdde12156f6f25c9a8f63c310fa2ad2a.mpg</property>
  <property name="mlt_service">timewarp</property>
  <property name="kdenlive:proxy">/home/nicolas/.cache/kdenlive/proxy/cdde12156f6f25c9a8f63c310fa2ad2a.mpg</property>
  <property name="kdenlive:originalurl">3DSC_0023.MOV</property>
  <property name="meta.media.frame_rate_num">25</property>
  <property name="meta.media.frame_rate_den">1</property>
  <property name="meta.media.colorspace">601</property>
  <property name="meta.media.color_trc">2</property>
  <property name="meta.media.width">640</property>
  <property name="meta.media.height">360</property>
  <property name="meta.media.top_field_first">0</property>
  <property name="meta.media.progressive">1</property>
 </producer>
 <producer id="slowmotion:65:1,5:1:0" out="3807" in="0">
  <property name="length">3808</property>
  <property name="eof">pause</property>
  <property name="resource">1,5:/home/nicolas/.cache/kdenlive/proxy/c03151f36a8930ad255607e55b34e6b8.mpg</property>
  <property name="aspect_ratio">1</property>
  <property name="meta.media.nb_streams">2</property>
  <property name="meta.media.0.stream.type">video</property>
  <property name="meta.media.0.stream.frame_rate">25</property>
  <property name="meta.media.0.stream.sample_aspect_ratio">0</property>
  <property name="meta.media.0.codec.width">640</property>
  <property name="meta.media.0.codec.height">360</property>
  <property name="meta.media.0.codec.rotate">0</property>
  <property name="meta.media.0.codec.frame_rate">25</property>
  <property name="meta.media.0.codec.pix_fmt">yuv420p</property>
  <property name="meta.media.0.codec.sample_aspect_ratio">1</property>
  <property name="meta.media.0.codec.colorspace">601</property>
  <property name="meta.media.0.codec.name">mpeg2video</property>
  <property name="meta.media.0.codec.long_name">MPEG-2 video</property>
  <property name="meta.media.0.codec.bit_rate">0</property>
  <property name="meta.media.1.stream.type">audio</property>
  <property name="meta.media.1.codec.sample_fmt">s16p</property>
  <property name="meta.media.1.codec.sample_rate">24000</property>
  <property name="meta.media.1.codec.channels">1</property>
  <property name="meta.media.1.codec.name">mp2</property>
  <property name="meta.media.1.codec.long_name">MP2 (MPEG audio layer 2)</property>
  <property name="meta.media.1.codec.bit_rate">128000</property>
  <property name="seekable">1</property>
  <property name="meta.media.sample_aspect_num">1</property>
  <property name="meta.media.sample_aspect_den">1</property>
  <property name="audio_index">1</property>
  <property name="video_index">0</property>
  <property name="mute_on_pause">1</property>
  <property name="warp_speed">1,5</property>
  <property name="warp_resource">/home/nicolas/.cache/kdenlive/proxy/c03151f36a8930ad255607e55b34e6b8.mpg</property>
  <property name="mlt_service">timewarp</property>
  <property name="kdenlive:proxy">/home/nicolas/.cache/kdenlive/proxy/c03151f36a8930ad255607e55b34e6b8.mpg</property>
  <property name="kdenlive:originalurl">3DSC_0041.MOV</property>
  <property name="meta.media.frame_rate_num">25</property>
  <property name="meta.media.frame_rate_den">1</property>
  <property name="meta.media.colorspace">601</property>
  <property name="meta.media.color_trc">2</property>
  <property name="meta.media.width">640</property>
  <property name="meta.media.height">360</property>
  <property name="meta.media.top_field_first">0</property>
  <property name="meta.media.progressive">1</property>
 </producer>
 <producer id="slowmotion:65:1,3:1:0" out="4393" in="0">
  <property name="length">4394</property>
  <property name="eof">pause</property>
  <property name="resource">1,3:/home/nicolas/.cache/kdenlive/proxy/c03151f36a8930ad255607e55b34e6b8.mpg</property>
  <property name="aspect_ratio">1</property>
  <property name="meta.media.nb_streams">2</property>
  <property name="meta.media.0.stream.type">video</property>
  <property name="meta.media.0.stream.frame_rate">25</property>
  <property name="meta.media.0.stream.sample_aspect_ratio">0</property>
  <property name="meta.media.0.codec.width">640</property>
  <property name="meta.media.0.codec.height">360</property>
  <property name="meta.media.0.codec.rotate">0</property>
  <property name="meta.media.0.codec.frame_rate">25</property>
  <property name="meta.media.0.codec.pix_fmt">yuv420p</property>
  <property name="meta.media.0.codec.sample_aspect_ratio">1</property>
  <property name="meta.media.0.codec.colorspace">601</property>
  <property name="meta.media.0.codec.name">mpeg2video</property>
  <property name="meta.media.0.codec.long_name">MPEG-2 video</property>
  <property name="meta.media.0.codec.bit_rate">0</property>
  <property name="meta.media.1.stream.type">audio</property>
  <property name="meta.media.1.codec.sample_fmt">s16p</property>
  <property name="meta.media.1.codec.sample_rate">24000</property>
  <property name="meta.media.1.codec.channels">1</property>
  <property name="meta.media.1.codec.name">mp2</property>
  <property name="meta.media.1.codec.long_name">MP2 (MPEG audio layer 2)</property>
  <property name="meta.media.1.codec.bit_rate">128000</property>
  <property name="seekable">1</property>
  <property name="meta.media.sample_aspect_num">1</property>
  <property name="meta.media.sample_aspect_den">1</property>
  <property name="audio_index">1</property>
  <property name="video_index">0</property>
  <property name="mute_on_pause">1</property>
  <property name="warp_speed">1,3</property>
  <property name="warp_resource">/home/nicolas/.cache/kdenlive/proxy/c03151f36a8930ad255607e55b34e6b8.mpg</property>
  <property name="mlt_service">timewarp</property>
  <property name="kdenlive:proxy">/home/nicolas/.cache/kdenlive/proxy/c03151f36a8930ad255607e55b34e6b8.mpg</property>
  <property name="kdenlive:originalurl">3DSC_0041.MOV</property>
  <property name="meta.media.frame_rate_num">25</property>
  <property name="meta.media.frame_rate_den">1</property>
  <property name="meta.media.colorspace">601</property>
  <property name="meta.media.color_trc">2</property>
  <property name="meta.media.width">640</property>
  <property name="meta.media.height">360</property>
  <property name="meta.media.top_field_first">0</property>
  <property name="meta.media.progressive">1</property>
 </producer>
 <producer id="slowmotion:65:1,4:1:0" out="4079" in="0">
  <property name="length">4080</property>
  <property name="eof">pause</property>
  <property name="resource">1,4:/home/nicolas/.cache/kdenlive/proxy/c03151f36a8930ad255607e55b34e6b8.mpg</property>
  <property name="aspect_ratio">1</property>
  <property name="meta.media.nb_streams">2</property>
  <property name="meta.media.0.stream.type">video</property>
  <property name="meta.media.0.stream.frame_rate">25</property>
  <property name="meta.media.0.stream.sample_aspect_ratio">0</property>
  <property name="meta.media.0.codec.width">640</property>
  <property name="meta.media.0.codec.height">360</property>
  <property name="meta.media.0.codec.rotate">0</property>
  <property name="meta.media.0.codec.frame_rate">25</property>
  <property name="meta.media.0.codec.pix_fmt">yuv420p</property>
  <property name="meta.media.0.codec.sample_aspect_ratio">1</property>
  <property name="meta.media.0.codec.colorspace">601</property>
  <property name="meta.media.0.codec.name">mpeg2video</property>
  <property name="meta.media.0.codec.long_name">MPEG-2 video</property>
  <property name="meta.media.0.codec.bit_rate">0</property>
  <property name="meta.media.1.stream.type">audio</property>
  <property name="meta.media.1.codec.sample_fmt">s16p</property>
  <property name="meta.media.1.codec.sample_rate">24000</property>
  <property name="meta.media.1.codec.channels">1</property>
  <property name="meta.media.1.codec.name">mp2</property>
  <property name="meta.media.1.codec.long_name">MP2 (MPEG audio layer 2)</property>
  <property name="meta.media.1.codec.bit_rate">128000</property>
  <property name="seekable">1</property>
  <property name="meta.media.sample_aspect_num">1</property>
  <property name="meta.media.sample_aspect_den">1</property>
  <property name="audio_index">1</property>
  <property name="video_index">0</property>
  <property name="mute_on_pause">1</property>
  <property name="warp_speed">1,4</property>
  <property name="warp_resource">/home/nicolas/.cache/kdenlive/proxy/c03151f36a8930ad255607e55b34e6b8.mpg</property>
  <property name="mlt_service">timewarp</property>
  <property name="kdenlive:proxy">/home/nicolas/.cache/kdenlive/proxy/c03151f36a8930ad255607e55b34e6b8.mpg</property>
  <property name="kdenlive:originalurl">3DSC_0041.MOV</property>
  <property name="meta.media.frame_rate_num">25</property>
  <property name="meta.media.frame_rate_den">1</property>
  <property name="meta.media.colorspace">601</property>
  <property name="meta.media.color_trc">2</property>
  <property name="meta.media.width">640</property>
  <property name="meta.media.height">360</property>
  <property name="meta.media.top_field_first">0</property>
  <property name="meta.media.progressive">1</property>
 </producer>
 <producer id="77_playlist4" title="Anonymous Submission" out="365" in="0">
  <property name="length">00:00:14:16</property>
  <property name="eof">pause</property>
  <property name="resource">/home/nicolas/.cache/kdenlive/proxy/a820721e6ea2ec2ea4a26fb0f04ea9d3.mpg</property>
  <property name="meta.media.nb_streams">2</property>
  <property name="meta.media.0.stream.type">video</property>
  <property name="meta.media.0.stream.frame_rate">25</property>
  <property name="meta.media.0.stream.sample_aspect_ratio">0</property>
  <property name="meta.media.0.codec.width">640</property>
  <property name="meta.media.0.codec.height">360</property>
  <property name="meta.media.0.codec.rotate">0</property>
  <property name="meta.media.0.codec.frame_rate">25</property>
  <property name="meta.media.0.codec.pix_fmt">yuv420p</property>
  <property name="meta.media.0.codec.sample_aspect_ratio">1</property>
  <property name="meta.media.0.codec.colorspace">601</property>
  <property name="meta.media.0.codec.name">mpeg2video</property>
  <property name="meta.media.0.codec.long_name">MPEG-2 video</property>
  <property name="meta.media.0.codec.bit_rate">0</property>
  <property name="meta.media.1.stream.type">audio</property>
  <property name="meta.media.1.codec.sample_fmt">s16p</property>
  <property name="meta.media.1.codec.sample_rate">24000</property>
  <property name="meta.media.1.codec.channels">1</property>
  <property name="meta.media.1.codec.name">mp2</property>
  <property name="meta.media.1.codec.long_name">MP2 (MPEG audio layer 2)</property>
  <property name="meta.media.1.codec.bit_rate">128000</property>
  <property name="seekable">1</property>
  <property name="meta.media.sample_aspect_num">1</property>
  <property name="meta.media.sample_aspect_den">1</property>
  <property name="aspect_ratio">1</property>
  <property name="audio_index">1</property>
  <property name="video_index">0</property>
  <property name="mute_on_pause">1</property>
  <property name="mlt_service">avformat</property>
  <property name="kdenlive:file_size">20049587</property>
  <property name="kdenlive:file_hash">a820721e6ea2ec2ea4a26fb0f04ea9d3</property>
  <property name="kdenlive:proxy">/home/nicolas/.cache/kdenlive/proxy/a820721e6ea2ec2ea4a26fb0f04ea9d3.mpg</property>
  <property name="proxy_out">365</property>
  <property name="kdenlive:originalurl">3DSC_0094.MOV</property>
  <property name="global_feed">1</property>
  <property name="kdenlive:meta.media.nb_streams">2</property>
  <property name="kdenlive:meta.media.0.stream.type">video</property>
  <property name="kdenlive:meta.media.0.stream.frame_rate">25</property>
  <property name="kdenlive:meta.media.0.stream.sample_aspect_ratio">0</property>
  <property name="kdenlive:meta.media.0.codec.width">1280</property>
  <property name="kdenlive:meta.media.0.codec.height">720</property>
  <property name="kdenlive:meta.media.0.codec.rotate">0</property>
  <property name="kdenlive:meta.media.0.codec.frame_rate">25</property>
  <property name="kdenlive:meta.media.0.codec.pix_fmt">yuvj420p</property>
  <property name="kdenlive:meta.media.0.codec.sample_aspect_ratio">1</property>
  <property name="kdenlive:meta.media.0.codec.colorspace">601</property>
  <property name="kdenlive:meta.media.0.codec.color_trc">4</property>
  <property name="kdenlive:meta.media.0.codec.name">h264</property>
  <property name="kdenlive:meta.media.0.codec.long_name">H.264 / AVC / MPEG-4 AVC / MPEG-4 part 10</property>
  <property name="kdenlive:meta.media.0.codec.bit_rate">10509475</property>
  <property name="kdenlive:meta.attr.0.stream.creation_time.markup">2017-08-20T15:06:11.000000Z</property>
  <property name="kdenlive:meta.attr.0.stream.language.markup">eng</property>
  <property name="kdenlive:meta.media.1.stream.type">audio</property>
  <property name="kdenlive:meta.media.1.codec.sample_fmt">s16</property>
  <property name="kdenlive:meta.media.1.codec.sample_rate">24000</property>
  <property name="kdenlive:meta.media.1.codec.channels">1</property>
  <property name="kdenlive:meta.media.1.codec.name">pcm_s16le</property>
  <property name="kdenlive:meta.media.1.codec.long_name">PCM signed 16-bit little-endian</property>
  <property name="kdenlive:meta.media.1.codec.bit_rate">384000</property>
  <property name="kdenlive:meta.attr.1.stream.creation_time.markup">2017-08-20T15:06:11.000000Z</property>
  <property name="kdenlive:meta.attr.1.stream.language.markup">eng</property>
  <property name="kdenlive:meta.attr.major_brand.markup">qt  </property>
  <property name="kdenlive:meta.attr.minor_version.markup">537331968</property>
  <property name="kdenlive:meta.attr.compatible_brands.markup">qt  niko</property>
  <property name="kdenlive:meta.attr.creation_time.markup">2017-08-20T15:06:11.000000Z</property>
  <property name="kdenlive:meta.media.sample_aspect_num">1</property>
  <property name="kdenlive:meta.media.sample_aspect_den">1</property>
  <property name="kdenlive:meta.media.frame_rate_num">25</property>
  <property name="kdenlive:meta.media.frame_rate_den">1</property>
  <property name="kdenlive:meta.media.colorspace">601</property>
  <property name="kdenlive:meta.media.color_trc">4</property>
  <property name="kdenlive:meta.media.width">1280</property>
  <property name="kdenlive:meta.media.height">720</property>
  <property name="kdenlive:meta.media.top_field_first">0</property>
  <property name="kdenlive:meta.media.progressive">1</property>
  <property name="xml">was here</property>
  <property name="meta.media.frame_rate_num">25</property>
  <property name="meta.media.frame_rate_den">1</property>
  <property name="meta.media.colorspace">601</property>
  <property name="meta.media.color_trc">2</property>
  <property name="meta.media.width">640</property>
  <property name="meta.media.height">360</property>
  <property name="meta.media.top_field_first">0</property>
  <property name="meta.media.progressive">1</property>
 </producer>
 <producer id="81_playlist4" title="Anonymous Submission" out="566" in="0">
  <property name="length">00:00:22:17</property>
  <property name="eof">pause</property>
  <property name="resource">/home/nicolas/.cache/kdenlive/proxy/be8a141e46e33e525c609c7c9f0b0aed.mpg</property>
  <property name="meta.media.nb_streams">2</property>
  <property name="meta.media.0.stream.type">video</property>
  <property name="meta.media.0.stream.frame_rate">25</property>
  <property name="meta.media.0.stream.sample_aspect_ratio">0</property>
  <property name="meta.media.0.codec.width">640</property>
  <property name="meta.media.0.codec.height">360</property>
  <property name="meta.media.0.codec.rotate">0</property>
  <property name="meta.media.0.codec.frame_rate">25</property>
  <property name="meta.media.0.codec.pix_fmt">yuv420p</property>
  <property name="meta.media.0.codec.sample_aspect_ratio">1</property>
  <property name="meta.media.0.codec.colorspace">601</property>
  <property name="meta.media.0.codec.name">mpeg2video</property>
  <property name="meta.media.0.codec.long_name">MPEG-2 video</property>
  <property name="meta.media.0.codec.bit_rate">0</property>
  <property name="meta.media.1.stream.type">audio</property>
  <property name="meta.media.1.codec.sample_fmt">s16p</property>
  <property name="meta.media.1.codec.sample_rate">24000</property>
  <property name="meta.media.1.codec.channels">1</property>
  <property name="meta.media.1.codec.name">mp2</property>
  <property name="meta.media.1.codec.long_name">MP2 (MPEG audio layer 2)</property>
  <property name="meta.media.1.codec.bit_rate">128000</property>
  <property name="seekable">1</property>
  <property name="meta.media.sample_aspect_num">1</property>
  <property name="meta.media.sample_aspect_den">1</property>
  <property name="aspect_ratio">1</property>
  <property name="audio_index">1</property>
  <property name="video_index">0</property>
  <property name="mute_on_pause">1</property>
  <property name="mlt_service">avformat</property>
  <property name="kdenlive:file_size">30334660</property>
  <property name="kdenlive:file_hash">be8a141e46e33e525c609c7c9f0b0aed</property>
  <property name="kdenlive:proxy">/home/nicolas/.cache/kdenlive/proxy/be8a141e46e33e525c609c7c9f0b0aed.mpg</property>
  <property name="proxy_out">566</property>
  <property name="kdenlive:originalurl">3DSC_0179.MOV</property>
  <property name="global_feed">1</property>
  <property name="kdenlive:meta.media.nb_streams">2</property>
  <property name="kdenlive:meta.media.0.stream.type">video</property>
  <property name="kdenlive:meta.media.0.stream.frame_rate">25</property>
  <property name="kdenlive:meta.media.0.stream.sample_aspect_ratio">0</property>
  <property name="kdenlive:meta.media.0.codec.width">1280</property>
  <property name="kdenlive:meta.media.0.codec.height">720</property>
  <property name="kdenlive:meta.media.0.codec.rotate">0</property>
  <property name="kdenlive:meta.media.0.codec.frame_rate">25</property>
  <property name="kdenlive:meta.media.0.codec.pix_fmt">yuvj420p</property>
  <property name="kdenlive:meta.media.0.codec.sample_aspect_ratio">1</property>
  <property name="kdenlive:meta.media.0.codec.colorspace">601</property>
  <property name="kdenlive:meta.media.0.codec.color_trc">4</property>
  <property name="kdenlive:meta.media.0.codec.name">h264</property>
  <property name="kdenlive:meta.media.0.codec.long_name">H.264 / AVC / MPEG-4 AVC / MPEG-4 part 10</property>
  <property name="kdenlive:meta.media.0.codec.bit_rate">10273750</property>
  <property name="kdenlive:meta.attr.0.stream.creation_time.markup">2017-08-20T19:40:06.000000Z</property>
  <property name="kdenlive:meta.attr.0.stream.language.markup">eng</property>
  <property name="kdenlive:meta.media.1.stream.type">audio</property>
  <property name="kdenlive:meta.media.1.codec.sample_fmt">s16</property>
  <property name="kdenlive:meta.media.1.codec.sample_rate">24000</property>
  <property name="kdenlive:meta.media.1.codec.channels">1</property>
  <property name="kdenlive:meta.media.1.codec.name">pcm_s16le</property>
  <property name="kdenlive:meta.media.1.codec.long_name">PCM signed 16-bit little-endian</property>
  <property name="kdenlive:meta.media.1.codec.bit_rate">384000</property>
  <property name="kdenlive:meta.attr.1.stream.creation_time.markup">2017-08-20T19:40:06.000000Z</property>
  <property name="kdenlive:meta.attr.1.stream.language.markup">eng</property>
  <property name="kdenlive:meta.attr.major_brand.markup">qt  </property>
  <property name="kdenlive:meta.attr.minor_version.markup">537331968</property>
  <property name="kdenlive:meta.attr.compatible_brands.markup">qt  niko</property>
  <property name="kdenlive:meta.attr.creation_time.markup">2017-08-20T19:40:06.000000Z</property>
  <property name="kdenlive:meta.media.sample_aspect_num">1</property>
  <property name="kdenlive:meta.media.sample_aspect_den">1</property>
  <property name="kdenlive:meta.media.frame_rate_num">25</property>
  <property name="kdenlive:meta.media.frame_rate_den">1</property>
  <property name="kdenlive:meta.media.colorspace">601</property>
  <property name="kdenlive:meta.media.color_trc">4</property>
  <property name="kdenlive:meta.media.width">1280</property>
  <property name="kdenlive:meta.media.height">720</property>
  <property name="kdenlive:meta.media.top_field_first">0</property>
  <property name="kdenlive:meta.media.progressive">1</property>
  <property name="xml">was here</property>
  <property name="meta.media.frame_rate_num">25</property>
  <property name="meta.media.frame_rate_den">1</property>
  <property name="meta.media.colorspace">601</property>
  <property name="meta.media.color_trc">2</property>
  <property name="meta.media.width">640</property>
  <property name="meta.media.height">360</property>
  <property name="meta.media.top_field_first">0</property>
  <property name="meta.media.progressive">1</property>
 </producer>
 <producer id="80_playlist4" title="Anonymous Submission" out="2891" in="0">
  <property name="length">00:01:55:17</property>
  <property name="eof">pause</property>
  <property name="resource">/home/nicolas/.cache/kdenlive/proxy/df00b0da10e63cc73c57ff545066cf47.mpg</property>
  <property name="meta.media.nb_streams">2</property>
  <property name="meta.media.0.stream.type">video</property>
  <property name="meta.media.0.stream.frame_rate">25</property>
  <property name="meta.media.0.stream.sample_aspect_ratio">0</property>
  <property name="meta.media.0.codec.width">640</property>
  <property name="meta.media.0.codec.height">360</property>
  <property name="meta.media.0.codec.rotate">0</property>
  <property name="meta.media.0.codec.frame_rate">25</property>
  <property name="meta.media.0.codec.pix_fmt">yuv420p</property>
  <property name="meta.media.0.codec.sample_aspect_ratio">1</property>
  <property name="meta.media.0.codec.colorspace">601</property>
  <property name="meta.media.0.codec.name">mpeg2video</property>
  <property name="meta.media.0.codec.long_name">MPEG-2 video</property>
  <property name="meta.media.0.codec.bit_rate">0</property>
  <property name="meta.media.1.stream.type">audio</property>
  <property name="meta.media.1.codec.sample_fmt">s16p</property>
  <property name="meta.media.1.codec.sample_rate">24000</property>
  <property name="meta.media.1.codec.channels">1</property>
  <property name="meta.media.1.codec.name">mp2</property>
  <property name="meta.media.1.codec.long_name">MP2 (MPEG audio layer 2)</property>
  <property name="meta.media.1.codec.bit_rate">128000</property>
  <property name="seekable">1</property>
  <property name="meta.media.sample_aspect_num">1</property>
  <property name="meta.media.sample_aspect_den">1</property>
  <property name="aspect_ratio">1</property>
  <property name="audio_index">1</property>
  <property name="video_index">0</property>
  <property name="mute_on_pause">1</property>
  <property name="mlt_service">avformat</property>
  <property name="kdenlive:file_size">154005800</property>
  <property name="kdenlive:file_hash">df00b0da10e63cc73c57ff545066cf47</property>
  <property name="kdenlive:proxy">/home/nicolas/.cache/kdenlive/proxy/df00b0da10e63cc73c57ff545066cf47.mpg</property>
  <property name="proxy_out">2891</property>
  <property name="kdenlive:originalurl">3DSC_0180.MOV</property>
  <property name="global_feed">1</property>
  <property name="kdenlive:meta.media.nb_streams">2</property>
  <property name="kdenlive:meta.media.0.stream.type">video</property>
  <property name="kdenlive:meta.media.0.stream.frame_rate">25</property>
  <property name="kdenlive:meta.media.0.stream.sample_aspect_ratio">0</property>
  <property name="kdenlive:meta.media.0.codec.width">1280</property>
  <property name="kdenlive:meta.media.0.codec.height">720</property>
  <property name="kdenlive:meta.media.0.codec.rotate">0</property>
  <property name="kdenlive:meta.media.0.codec.frame_rate">25</property>
  <property name="kdenlive:meta.media.0.codec.pix_fmt">yuvj420p</property>
  <property name="kdenlive:meta.media.0.codec.sample_aspect_ratio">1</property>
  <property name="kdenlive:meta.media.0.codec.colorspace">601</property>
  <property name="kdenlive:meta.media.0.codec.color_trc">4</property>
  <property name="kdenlive:meta.media.0.codec.name">h264</property>
  <property name="kdenlive:meta.media.0.codec.long_name">H.264 / AVC / MPEG-4 AVC / MPEG-4 part 10</property>
  <property name="kdenlive:meta.media.0.codec.bit_rate">10256473</property>
  <property name="kdenlive:meta.attr.0.stream.creation_time.markup">2017-08-20T19:40:39.000000Z</property>
  <property name="kdenlive:meta.attr.0.stream.language.markup">eng</property>
  <property name="kdenlive:meta.media.1.stream.type">audio</property>
  <property name="kdenlive:meta.media.1.codec.sample_fmt">s16</property>
  <property name="kdenlive:meta.media.1.codec.sample_rate">24000</property>
  <property name="kdenlive:meta.media.1.codec.channels">1</property>
  <property name="kdenlive:meta.media.1.codec.name">pcm_s16le</property>
  <property name="kdenlive:meta.media.1.codec.long_name">PCM signed 16-bit little-endian</property>
  <property name="kdenlive:meta.media.1.codec.bit_rate">384000</property>
  <property name="kdenlive:meta.attr.1.stream.creation_time.markup">2017-08-20T19:40:39.000000Z</property>
  <property name="kdenlive:meta.attr.1.stream.language.markup">eng</property>
  <property name="kdenlive:meta.attr.major_brand.markup">qt  </property>
  <property name="kdenlive:meta.attr.minor_version.markup">537331968</property>
  <property name="kdenlive:meta.attr.compatible_brands.markup">qt  niko</property>
  <property name="kdenlive:meta.attr.creation_time.markup">2017-08-20T19:40:39.000000Z</property>
  <property name="kdenlive:meta.media.sample_aspect_num">1</property>
  <property name="kdenlive:meta.media.sample_aspect_den">1</property>
  <property name="kdenlive:meta.media.frame_rate_num">25</property>
  <property name="kdenlive:meta.media.frame_rate_den">1</property>
  <property name="kdenlive:meta.media.colorspace">601</property>
  <property name="kdenlive:meta.media.color_trc">4</property>
  <property name="kdenlive:meta.media.width">1280</property>
  <property name="kdenlive:meta.media.height">720</property>
  <property name="kdenlive:meta.media.top_field_first">0</property>
  <property name="kdenlive:meta.media.progressive">1</property>
  <property name="xml">was here</property>
  <property name="meta.media.frame_rate_num">25</property>
  <property name="meta.media.frame_rate_den">1</property>
  <property name="meta.media.colorspace">601</property>
  <property name="meta.media.color_trc">2</property>
  <property name="meta.media.width">640</property>
  <property name="meta.media.height">360</property>
  <property name="meta.media.top_field_first">0</property>
  <property name="meta.media.progressive">1</property>
 </producer>
 <producer id="40_playlist4" title="Anonymous Submission" out="318" in="0">
  <property name="length">00:00:12:19</property>
  <property name="eof">pause</property>
  <property name="resource">télé achat/chaussons chauffants/Smoke FX Bluescreen.mp4</property>
  <property name="audio_index">1</property>
  <property name="video_index">0</property>
  <property name="mute_on_pause">1</property>
  <property name="mlt_service">avformat-novalidate</property>
  <property name="seekable">1</property>
  <property name="aspect_ratio">1</property>
  <property name="kdenlive:file_size">553545</property>
  <property name="kdenlive:file_hash">ca6747c0f3a40c3bf39259b4eeaf8ee0</property>
  <property name="global_feed">1</property>
  <property name="xml">was here</property>
  <property name="meta.media.nb_streams">2</property>
  <property name="meta.media.0.stream.type">video</property>
  <property name="meta.media.0.stream.frame_rate">29,97</property>
  <property name="meta.media.0.stream.sample_aspect_ratio">0</property>
  <property name="meta.media.0.codec.width">640</property>
  <property name="meta.media.0.codec.height">360</property>
  <property name="meta.media.0.codec.rotate">0</property>
  <property name="meta.media.0.codec.frame_rate">29,97</property>
  <property name="meta.media.0.codec.pix_fmt">yuv420p</property>
  <property name="meta.media.0.codec.sample_aspect_ratio">1</property>
  <property name="meta.media.0.codec.colorspace">601</property>
  <property name="meta.media.0.codec.name">h264</property>
  <property name="meta.media.0.codec.long_name">H.264 / AVC / MPEG-4 AVC / MPEG-4 part 10</property>
  <property name="meta.media.0.codec.bit_rate">248053</property>
  <property name="meta.attr.0.stream.handler_name.markup">VideoHandler</property>
  <property name="meta.media.1.stream.type">audio</property>
  <property name="meta.media.1.codec.sample_fmt">fltp</property>
  <property name="meta.media.1.codec.sample_rate">44100</property>
  <property name="meta.media.1.codec.channels">2</property>
  <property name="meta.media.1.codec.name">aac</property>
  <property name="meta.media.1.codec.long_name">AAC (Advanced Audio Coding)</property>
  <property name="meta.media.1.codec.bit_rate">95999</property>
  <property name="meta.attr.1.stream.creation_time.markup">2014-03-05T12:40:27.000000Z</property>
  <property name="meta.attr.1.stream.handler_name.markup">IsoMedia File Produced by Google, 5-11-2011</property>
  <property name="meta.attr.major_brand.markup">mp42</property>
  <property name="meta.attr.minor_version.markup">0</property>
  <property name="meta.attr.compatible_brands.markup">isommp42</property>
  <property name="meta.attr.creation_time.markup">2014-03-05T12:40:27.000000Z</property>
  <property name="meta.media.sample_aspect_num">1</property>
  <property name="meta.media.sample_aspect_den">1</property>
  <property name="meta.media.frame_rate_num">30000</property>
  <property name="meta.media.frame_rate_den">1001</property>
  <property name="meta.media.colorspace">601</property>
  <property name="meta.media.color_trc">2</property>
  <property name="meta.media.width">640</property>
  <property name="meta.media.height">360</property>
  <property name="meta.media.top_field_first">0</property>
  <property name="meta.media.progressive">1</property>
 </producer>
 <playlist id="playlist4">
  <property name="kdenlive:track_name">Video 2</property>
  <property name="kdenlive:locked_track">0</property>
  <blank length="1469"/>
  <entry out="124" producer="10" in="0"/>
  <blank length="52"/>
  <entry out="124" producer="9" in="0"/>
  <entry out="73" producer="13" in="0"/>
  <entry out="65" producer="11" in="0"/>
  <blank length="802"/>
  <entry out="90" producer="14" in="0"/>
  <blank length="300"/>
  <entry out="65" producer="17" in="0"/>
  <blank length="2218"/>
  <entry out="24" producer="24" in="0">
   <filter id="filter60" out="24">
    <property name="background">colour:0x00000000</property>
    <property name="mlt_service">affine</property>
    <property name="kdenlive_id">pan_zoom</property>
    <property name="tag">affine</property>
    <property name="kdenlive_ix">1</property>
    <property name="kdenlive:sync_in_out">1</property>
    <property name="kdenlive_info"/>
    <property name="transition.geometry">549/350:154x86:100</property>
    <property name="transition.distort">0</property>
   </filter>
  </entry>
  <blank length="25"/>
  <entry out="24" producer="24" in="0">
   <filter id="filter61" out="24">
    <property name="background">colour:0x00000000</property>
    <property name="mlt_service">affine</property>
    <property name="kdenlive_id">pan_zoom</property>
    <property name="tag">affine</property>
    <property name="kdenlive_ix">1</property>
    <property name="kdenlive:sync_in_out">1</property>
    <property name="kdenlive_info"/>
    <property name="transition.geometry">549/350:154x86:100</property>
    <property name="transition.distort">0</property>
   </filter>
  </entry>
  <blank length="40"/>
  <entry out="24" producer="24" in="0">
   <filter id="filter62" out="24">
    <property name="background">colour:0x00000000</property>
    <property name="mlt_service">affine</property>
    <property name="kdenlive_id">pan_zoom</property>
    <property name="tag">affine</property>
    <property name="kdenlive_ix">1</property>
    <property name="kdenlive:sync_in_out">1</property>
    <property name="kdenlive_info">1/-1/</property>
    <property name="transition.geometry">549/350:154x86:100</property>
    <property name="transition.distort">0</property>
    <property name="disable"/>
   </filter>
  </entry>
  <blank length="16"/>
  <entry out="24" producer="24" in="0">
   <filter id="filter63" out="24">
    <property name="background">colour:0x00000000</property>
    <property name="mlt_service">affine</property>
    <property name="kdenlive_id">pan_zoom</property>
    <property name="tag">affine</property>
    <property name="kdenlive_ix">1</property>
    <property name="transition.geometry">549/350:154x86:100</property>
    <property name="transition.distort">0</property>
    <property name="kdenlive:sync_in_out">1</property>
    <property name="kdenlive_info"/>
   </filter>
  </entry>
  <blank length="19"/>
  <entry out="24" producer="24" in="0">
   <filter id="filter64" out="24">
    <property name="background">colour:0x00000000</property>
    <property name="mlt_service">affine</property>
    <property name="kdenlive_id">pan_zoom</property>
    <property name="tag">affine</property>
    <property name="kdenlive_ix">1</property>
    <property name="kdenlive:sync_in_out">1</property>
    <property name="kdenlive_info"/>
    <property name="transition.geometry">549/350:154x86:100</property>
    <property name="transition.distort">0</property>
   </filter>
  </entry>
  <blank length="25"/>
  <entry out="24" producer="24" in="0">
   <filter id="filter65" out="24">
    <property name="background">colour:0x00000000</property>
    <property name="mlt_service">affine</property>
    <property name="kdenlive_id">pan_zoom</property>
    <property name="tag">affine</property>
    <property name="kdenlive_ix">1</property>
    <property name="kdenlive:sync_in_out">1</property>
    <property name="kdenlive_info"/>
    <property name="transition.geometry">549/350:154x86:100</property>
    <property name="transition.distort">0</property>
   </filter>
  </entry>
  <blank length="24"/>
  <entry out="67" producer="25_playlist4" in="0">
   <filter id="filter66" out="67">
    <property name="background">colour:0x00000000</property>
    <property name="mlt_service">affine</property>
    <property name="kdenlive_id">pan_zoom</property>
    <property name="tag">affine</property>
    <property name="kdenlive_ix">1</property>
    <property name="transition.geometry">562/360:128x72:100</property>
    <property name="transition.distort">0</property>
    <property name="kdenlive:sync_in_out">1</property>
    <property name="kdenlive_info"/>
   </filter>
  </entry>
  <entry out="456" producer="25_playlist4" in="0"/>
  <entry out="618" producer="25_playlist4" in="434">
   <filter id="filter67" out="618" in="434">
    <property name="background">colour:0x00000000</property>
    <property name="mlt_service">affine</property>
    <property name="kdenlive_id">pan_zoom</property>
    <property name="tag">affine</property>
    <property name="kdenlive_ix">1</property>
    <property name="transition.geometry">833/284:256x144:100</property>
    <property name="transition.distort">0</property>
    <property name="kdenlive:sync_in_out">1</property>
    <property name="kdenlive_info">1/-1/</property>
    <property name="disable"/>
   </filter>
   <filter id="filter68">
    <property name="version">0,1</property>
    <property name="mlt_service">frei0r.scale0tilt</property>
    <property name="kdenlive_id">frei0r.scale0tilt</property>
    <property name="tag">frei0r.scale0tilt</property>
    <property name="kdenlive_ix">2</property>
    <property name="Clip left">0,682813</property>
    <property name="Clip right">0,1875</property>
    <property name="Clip top">0</property>
    <property name="Clip bottom">0</property>
    <property name="Scale X">0,5</property>
    <property name="Scale Y">0,5</property>
    <property name="Tilt X">0,5</property>
    <property name="Tilt Y">0,5</property>
    <property name="kdenlive_info">1/-1/</property>
    <property name="disable"/>
   </filter>
   <filter id="filter69">
    <property name="background">colour:0x00000000</property>
    <property name="mlt_service">affine</property>
    <property name="kdenlive_id">affinerotate</property>
    <property name="tag">affine</property>
    <property name="kdenlive_ix">3</property>
    <property name="transition.rotate_x">434=9,1</property>
    <property name="transition.rotate_y">434=0</property>
    <property name="transition.rotate_z">434=-12,7</property>
    <property name="transition.ox">434=0</property>
    <property name="transition.oy">434=0</property>
    <property name="transition.keyed">1</property>
    <property name="transition.always_active">1</property>
    <property name="kdenlive_info">0/-1/</property>
    <property name="disable"/>
   </filter>
  </entry>
  <entry out="621" producer="25_playlist4" in="619">
   <filter id="filter70" out="621" in="619">
    <property name="background">colour:0x00000000</property>
    <property name="mlt_service">affine</property>
    <property name="kdenlive_id">pan_zoom</property>
    <property name="tag">affine</property>
    <property name="kdenlive_ix">1</property>
    <property name="transition.geometry">833/284:256x144:100</property>
    <property name="transition.distort">0</property>
    <property name="kdenlive:sync_in_out">1</property>
    <property name="kdenlive_info">1/-1/</property>
    <property name="disable"/>
   </filter>
   <filter id="filter71">
    <property name="version">0,1</property>
    <property name="mlt_service">frei0r.scale0tilt</property>
    <property name="kdenlive_id">frei0r.scale0tilt</property>
    <property name="tag">frei0r.scale0tilt</property>
    <property name="kdenlive_ix">2</property>
    <property name="Clip left">0,682813</property>
    <property name="Clip right">0,1875</property>
    <property name="Clip top">0</property>
    <property name="Clip bottom">0</property>
    <property name="Scale X">0,5</property>
    <property name="Scale Y">0,5</property>
    <property name="Tilt X">0,5</property>
    <property name="Tilt Y">0,5</property>
    <property name="kdenlive_info">1/-1/</property>
    <property name="disable"/>
   </filter>
   <filter id="filter72">
    <property name="background">colour:0x00000000</property>
    <property name="mlt_service">affine</property>
    <property name="kdenlive_id">affinerotate</property>
    <property name="tag">affine</property>
    <property name="kdenlive_ix">3</property>
    <property name="transition.rotate_x">434=9,1</property>
    <property name="transition.rotate_y">434=0</property>
    <property name="transition.rotate_z">434=-12,7</property>
    <property name="transition.ox">434=0</property>
    <property name="transition.oy">434=0</property>
    <property name="transition.keyed">1</property>
    <property name="transition.always_active">1</property>
    <property name="kdenlive_info">0/-1/</property>
    <property name="disable"/>
   </filter>
  </entry>
  <entry out="621" producer="25_playlist4" in="619">
   <filter id="filter73">
    <property name="background">colour:0x00000000</property>
    <property name="mlt_service">affine</property>
    <property name="kdenlive_id">pan_zoom</property>
    <property name="tag">affine</property>
    <property name="kdenlive_ix">1</property>
    <property name="kdenlive_info">1/-1/</property>
    <property name="disable"/>
    <property name="transition.geometry">833/284:256x144:100</property>
    <property name="transition.distort">0</property>
   </filter>
   <filter id="filter74">
    <property name="version">0,1</property>
    <property name="mlt_service">frei0r.scale0tilt</property>
    <property name="kdenlive_id">frei0r.scale0tilt</property>
    <property name="tag">frei0r.scale0tilt</property>
    <property name="kdenlive_ix">2</property>
    <property name="kdenlive_info">1/-1/</property>
    <property name="disable"/>
    <property name="Clip left">0,682813</property>
    <property name="Clip right">0,1875</property>
    <property name="Clip top">0</property>
    <property name="Clip bottom">0</property>
    <property name="Scale X">0,5</property>
    <property name="Scale Y">0,5</property>
    <property name="Tilt X">0,5</property>
    <property name="Tilt Y">0,5</property>
   </filter>
   <filter id="filter75">
    <property name="background">colour:0x00000000</property>
    <property name="mlt_service">affine</property>
    <property name="kdenlive_id">affinerotate</property>
    <property name="tag">affine</property>
    <property name="kdenlive_ix">3</property>
    <property name="kdenlive_info">0/-1/</property>
    <property name="disable"/>
    <property name="transition.rotate_x">434=9,1</property>
    <property name="transition.rotate_y">434=0</property>
    <property name="transition.rotate_z">434=-12,6</property>
    <property name="transition.ox">434=0</property>
    <property name="transition.oy">434=0</property>
    <property name="transition.keyed">1</property>
    <property name="transition.always_active">1</property>
   </filter>
  </entry>
  <entry out="621" producer="25_playlist4" in="619">
   <filter id="filter76">
    <property name="background">colour:0x00000000</property>
    <property name="mlt_service">affine</property>
    <property name="kdenlive_id">pan_zoom</property>
    <property name="tag">affine</property>
    <property name="kdenlive_ix">1</property>
    <property name="kdenlive_info">1/-1/</property>
    <property name="disable"/>
    <property name="transition.geometry">833/284:256x144:100</property>
    <property name="transition.distort">0</property>
   </filter>
   <filter id="filter77">
    <property name="version">0,1</property>
    <property name="mlt_service">frei0r.scale0tilt</property>
    <property name="kdenlive_id">frei0r.scale0tilt</property>
    <property name="tag">frei0r.scale0tilt</property>
    <property name="kdenlive_ix">2</property>
    <property name="kdenlive_info">1/-1/</property>
    <property name="disable"/>
    <property name="Clip left">0,682813</property>
    <property name="Clip right">0,1875</property>
    <property name="Clip top">0</property>
    <property name="Clip bottom">0</property>
    <property name="Scale X">0,5</property>
    <property name="Scale Y">0,5</property>
    <property name="Tilt X">0,5</property>
    <property name="Tilt Y">0,5</property>
   </filter>
   <filter id="filter78">
    <property name="background">colour:0x00000000</property>
    <property name="mlt_service">affine</property>
    <property name="kdenlive_id">affinerotate</property>
    <property name="tag">affine</property>
    <property name="kdenlive_ix">3</property>
    <property name="kdenlive_info">0/-1/</property>
    <property name="disable"/>
    <property name="transition.rotate_x">434=9,1</property>
    <property name="transition.rotate_y">434=0</property>
    <property name="transition.rotate_z">434=-12,6</property>
    <property name="transition.ox">434=0</property>
    <property name="transition.oy">434=0</property>
    <property name="transition.keyed">1</property>
    <property name="transition.always_active">1</property>
   </filter>
  </entry>
  <entry out="621" producer="25_playlist4" in="619">
   <filter id="filter79">
    <property name="background">colour:0x00000000</property>
    <property name="mlt_service">affine</property>
    <property name="kdenlive_id">pan_zoom</property>
    <property name="tag">affine</property>
    <property name="kdenlive_ix">1</property>
    <property name="kdenlive_info">1/-1/</property>
    <property name="disable"/>
    <property name="transition.geometry">833/284:256x144:100</property>
    <property name="transition.distort">0</property>
   </filter>
   <filter id="filter80">
    <property name="version">0,1</property>
    <property name="mlt_service">frei0r.scale0tilt</property>
    <property name="kdenlive_id">frei0r.scale0tilt</property>
    <property name="tag">frei0r.scale0tilt</property>
    <property name="kdenlive_ix">2</property>
    <property name="kdenlive_info">1/-1/</property>
    <property name="disable"/>
    <property name="Clip left">0,682813</property>
    <property name="Clip right">0,1875</property>
    <property name="Clip top">0</property>
    <property name="Clip bottom">0</property>
    <property name="Scale X">0,5</property>
    <property name="Scale Y">0,5</property>
    <property name="Tilt X">0,5</property>
    <property name="Tilt Y">0,5</property>
   </filter>
   <filter id="filter81">
    <property name="background">colour:0x00000000</property>
    <property name="mlt_service">affine</property>
    <property name="kdenlive_id">affinerotate</property>
    <property name="tag">affine</property>
    <property name="kdenlive_ix">3</property>
    <property name="kdenlive_info">0/-1/</property>
    <property name="disable"/>
    <property name="transition.rotate_x">434=9,1</property>
    <property name="transition.rotate_y">434=0</property>
    <property name="transition.rotate_z">434=-12,6</property>
    <property name="transition.ox">434=0</property>
    <property name="transition.oy">434=0</property>
    <property name="transition.keyed">1</property>
    <property name="transition.always_active">1</property>
   </filter>
  </entry>
  <entry out="621" producer="25_playlist4" in="619">
   <filter id="filter82">
    <property name="background">colour:0x00000000</property>
    <property name="mlt_service">affine</property>
    <property name="kdenlive_id">pan_zoom</property>
    <property name="tag">affine</property>
    <property name="kdenlive_ix">1</property>
    <property name="kdenlive_info">1/-1/</property>
    <property name="disable"/>
    <property name="transition.geometry">833/284:256x144:100</property>
    <property name="transition.distort">0</property>
   </filter>
   <filter id="filter83">
    <property name="version">0,1</property>
    <property name="mlt_service">frei0r.scale0tilt</property>
    <property name="kdenlive_id">frei0r.scale0tilt</property>
    <property name="tag">frei0r.scale0tilt</property>
    <property name="kdenlive_ix">2</property>
    <property name="kdenlive_info">1/-1/</property>
    <property name="disable"/>
    <property name="Clip left">0,682813</property>
    <property name="Clip right">0,1875</property>
    <property name="Clip top">0</property>
    <property name="Clip bottom">0</property>
    <property name="Scale X">0,5</property>
    <property name="Scale Y">0,5</property>
    <property name="Tilt X">0,5</property>
    <property name="Tilt Y">0,5</property>
   </filter>
   <filter id="filter84">
    <property name="background">colour:0x00000000</property>
    <property name="mlt_service">affine</property>
    <property name="kdenlive_id">affinerotate</property>
    <property name="tag">affine</property>
    <property name="kdenlive_ix">3</property>
    <property name="kdenlive_info">0/-1/</property>
    <property name="disable"/>
    <property name="transition.rotate_x">434=9,1</property>
    <property name="transition.rotate_y">434=0</property>
    <property name="transition.rotate_z">434=-12,6</property>
    <property name="transition.ox">434=0</property>
    <property name="transition.oy">434=0</property>
    <property name="transition.keyed">1</property>
    <property name="transition.always_active">1</property>
   </filter>
  </entry>
  <entry out="621" producer="25_playlist4" in="619">
   <filter id="filter85">
    <property name="background">colour:0x00000000</property>
    <property name="mlt_service">affine</property>
    <property name="kdenlive_id">pan_zoom</property>
    <property name="tag">affine</property>
    <property name="kdenlive_ix">1</property>
    <property name="kdenlive_info">1/-1/</property>
    <property name="disable"/>
    <property name="transition.geometry">833/284:256x144:100</property>
    <property name="transition.distort">0</property>
   </filter>
   <filter id="filter86">
    <property name="version">0,1</property>
    <property name="mlt_service">frei0r.scale0tilt</property>
    <property name="kdenlive_id">frei0r.scale0tilt</property>
    <property name="tag">frei0r.scale0tilt</property>
    <property name="kdenlive_ix">2</property>
    <property name="kdenlive_info">1/-1/</property>
    <property name="disable"/>
    <property name="Clip left">0,682813</property>
    <property name="Clip right">0,1875</property>
    <property name="Clip top">0</property>
    <property name="Clip bottom">0</property>
    <property name="Scale X">0,5</property>
    <property name="Scale Y">0,5</property>
    <property name="Tilt X">0,5</property>
    <property name="Tilt Y">0,5</property>
   </filter>
   <filter id="filter87">
    <property name="background">colour:0x00000000</property>
    <property name="mlt_service">affine</property>
    <property name="kdenlive_id">affinerotate</property>
    <property name="tag">affine</property>
    <property name="kdenlive_ix">3</property>
    <property name="kdenlive_info">0/-1/</property>
    <property name="disable"/>
    <property name="transition.rotate_x">434=9,1</property>
    <property name="transition.rotate_y">434=0</property>
    <property name="transition.rotate_z">434=-12,6</property>
    <property name="transition.ox">434=0</property>
    <property name="transition.oy">434=0</property>
    <property name="transition.keyed">1</property>
    <property name="transition.always_active">1</property>
   </filter>
  </entry>
  <entry out="621" producer="25_playlist4" in="619">
   <filter id="filter88">
    <property name="background">colour:0x00000000</property>
    <property name="mlt_service">affine</property>
    <property name="kdenlive_id">pan_zoom</property>
    <property name="tag">affine</property>
    <property name="kdenlive_ix">1</property>
    <property name="kdenlive_info">1/-1/</property>
    <property name="disable"/>
    <property name="transition.geometry">833/284:256x144:100</property>
    <property name="transition.distort">0</property>
   </filter>
   <filter id="filter89">
    <property name="version">0,1</property>
    <property name="mlt_service">frei0r.scale0tilt</property>
    <property name="kdenlive_id">frei0r.scale0tilt</property>
    <property name="tag">frei0r.scale0tilt</property>
    <property name="kdenlive_ix">2</property>
    <property name="kdenlive_info">1/-1/</property>
    <property name="disable"/>
    <property name="Clip left">0,682813</property>
    <property name="Clip right">0,1875</property>
    <property name="Clip top">0</property>
    <property name="Clip bottom">0</property>
    <property name="Scale X">0,5</property>
    <property name="Scale Y">0,5</property>
    <property name="Tilt X">0,5</property>
    <property name="Tilt Y">0,5</property>
   </filter>
   <filter id="filter90">
    <property name="background">colour:0x00000000</property>
    <property name="mlt_service">affine</property>
    <property name="kdenlive_id">affinerotate</property>
    <property name="tag">affine</property>
    <property name="kdenlive_ix">3</property>
    <property name="kdenlive_info">0/-1/</property>
    <property name="disable"/>
    <property name="transition.rotate_x">434=9,1</property>
    <property name="transition.rotate_y">434=0</property>
    <property name="transition.rotate_z">434=-12,6</property>
    <property name="transition.ox">434=0</property>
    <property name="transition.oy">434=0</property>
    <property name="transition.keyed">1</property>
    <property name="transition.always_active">1</property>
   </filter>
  </entry>
  <entry out="621" producer="25_playlist4" in="619">
   <filter id="filter91">
    <property name="background">colour:0x00000000</property>
    <property name="mlt_service">affine</property>
    <property name="kdenlive_id">pan_zoom</property>
    <property name="tag">affine</property>
    <property name="kdenlive_ix">1</property>
    <property name="kdenlive_info">1/-1/</property>
    <property name="disable"/>
    <property name="transition.geometry">833/284:256x144:100</property>
    <property name="transition.distort">0</property>
   </filter>
   <filter id="filter92">
    <property name="version">0,1</property>
    <property name="mlt_service">frei0r.scale0tilt</property>
    <property name="kdenlive_id">frei0r.scale0tilt</property>
    <property name="tag">frei0r.scale0tilt</property>
    <property name="kdenlive_ix">2</property>
    <property name="kdenlive_info">1/-1/</property>
    <property name="disable"/>
    <property name="Clip left">0,682813</property>
    <property name="Clip right">0,1875</property>
    <property name="Clip top">0</property>
    <property name="Clip bottom">0</property>
    <property name="Scale X">0,5</property>
    <property name="Scale Y">0,5</property>
    <property name="Tilt X">0,5</property>
    <property name="Tilt Y">0,5</property>
   </filter>
   <filter id="filter93">
    <property name="background">colour:0x00000000</property>
    <property name="mlt_service">affine</property>
    <property name="kdenlive_id">affinerotate</property>
    <property name="tag">affine</property>
    <property name="kdenlive_ix">3</property>
    <property name="kdenlive_info">0/-1/</property>
    <property name="disable"/>
    <property name="transition.rotate_x">434=9,1</property>
    <property name="transition.rotate_y">434=0</property>
    <property name="transition.rotate_z">434=-12,6</property>
    <property name="transition.ox">434=0</property>
    <property name="transition.oy">434=0</property>
    <property name="transition.keyed">1</property>
    <property name="transition.always_active">1</property>
   </filter>
  </entry>
  <entry out="621" producer="25_playlist4" in="619">
   <filter id="filter94">
    <property name="background">colour:0x00000000</property>
    <property name="mlt_service">affine</property>
    <property name="kdenlive_id">pan_zoom</property>
    <property name="tag">affine</property>
    <property name="kdenlive_ix">1</property>
    <property name="kdenlive_info">1/-1/</property>
    <property name="disable"/>
    <property name="transition.geometry">833/284:256x144:100</property>
    <property name="transition.distort">0</property>
   </filter>
   <filter id="filter95">
    <property name="version">0,1</property>
    <property name="mlt_service">frei0r.scale0tilt</property>
    <property name="kdenlive_id">frei0r.scale0tilt</property>
    <property name="tag">frei0r.scale0tilt</property>
    <property name="kdenlive_ix">2</property>
    <property name="kdenlive_info">1/-1/</property>
    <property name="disable"/>
    <property name="Clip left">0,682813</property>
    <property name="Clip right">0,1875</property>
    <property name="Clip top">0</property>
    <property name="Clip bottom">0</property>
    <property name="Scale X">0,5</property>
    <property name="Scale Y">0,5</property>
    <property name="Tilt X">0,5</property>
    <property name="Tilt Y">0,5</property>
   </filter>
   <filter id="filter96">
    <property name="background">colour:0x00000000</property>
    <property name="mlt_service">affine</property>
    <property name="kdenlive_id">affinerotate</property>
    <property name="tag">affine</property>
    <property name="kdenlive_ix">3</property>
    <property name="kdenlive_info">0/-1/</property>
    <property name="disable"/>
    <property name="transition.rotate_x">434=9,1</property>
    <property name="transition.rotate_y">434=0</property>
    <property name="transition.rotate_z">434=-12,6</property>
    <property name="transition.ox">434=0</property>
    <property name="transition.oy">434=0</property>
    <property name="transition.keyed">1</property>
    <property name="transition.always_active">1</property>
   </filter>
  </entry>
  <entry out="621" producer="25_playlist4" in="619">
   <filter id="filter97">
    <property name="background">colour:0x00000000</property>
    <property name="mlt_service">affine</property>
    <property name="kdenlive_id">pan_zoom</property>
    <property name="tag">affine</property>
    <property name="kdenlive_ix">1</property>
    <property name="kdenlive_info">1/-1/</property>
    <property name="disable"/>
    <property name="transition.geometry">833/284:256x144:100</property>
    <property name="transition.distort">0</property>
   </filter>
   <filter id="filter98">
    <property name="version">0,1</property>
    <property name="mlt_service">frei0r.scale0tilt</property>
    <property name="kdenlive_id">frei0r.scale0tilt</property>
    <property name="tag">frei0r.scale0tilt</property>
    <property name="kdenlive_ix">2</property>
    <property name="kdenlive_info">1/-1/</property>
    <property name="disable"/>
    <property name="Clip left">0,682813</property>
    <property name="Clip right">0,1875</property>
    <property name="Clip top">0</property>
    <property name="Clip bottom">0</property>
    <property name="Scale X">0,5</property>
    <property name="Scale Y">0,5</property>
    <property name="Tilt X">0,5</property>
    <property name="Tilt Y">0,5</property>
   </filter>
   <filter id="filter99">
    <property name="background">colour:0x00000000</property>
    <property name="mlt_service">affine</property>
    <property name="kdenlive_id">affinerotate</property>
    <property name="tag">affine</property>
    <property name="kdenlive_ix">3</property>
    <property name="kdenlive_info">0/-1/</property>
    <property name="disable"/>
    <property name="transition.rotate_x">434=9,1</property>
    <property name="transition.rotate_y">434=0</property>
    <property name="transition.rotate_z">434=-12,6</property>
    <property name="transition.ox">434=0</property>
    <property name="transition.oy">434=0</property>
    <property name="transition.keyed">1</property>
    <property name="transition.always_active">1</property>
   </filter>
  </entry>
  <blank length="15"/>
  <entry out="50" producer="73" in="15">
   <filter id="filter100" out="50" in="1">
    <property name="background">colour:0x00000000</property>
    <property name="mlt_service">affine</property>
    <property name="kdenlive_id">pan_zoom</property>
    <property name="tag">affine</property>
    <property name="kdenlive_ix">1</property>
    <property name="transition.geometry">0=-2825/-1580:6912x3888:100;24=-1406/-856:4208x2367:100;35=-755,733/-524,31:2969,24x1670,2:100</property>
    <property name="transition.distort">0</property>
    <property name="kdenlive:sync_in_out">1</property>
    <property name="kdenlive_info"/>
    <property name="disable"/>
   </filter>
  </entry>
  <blank length="3337"/>
  <entry out="72" producer="11" in="0"/>
  <blank length="1047"/>
  <entry out="325" producer="31_playlist4" in="74">
   <filter id="filter101" out="585" in="74">
    <property name="background">colour:0x00000000</property>
    <property name="mlt_service">affine</property>
    <property name="kdenlive_id">pan_zoom</property>
    <property name="tag">affine</property>
    <property name="kdenlive_info"/>
    <property name="kdenlive_ix">1</property>
    <property name="disable"/>
    <property name="transition.geometry">160/0:1280x720:100</property>
    <property name="transition.distort">0</property>
    <property name="kdenlive:sync_in_out">1</property>
   </filter>
  </entry>
  <blank length="125"/>
  <entry out="1179" producer="31_playlist4" in="326">
   <filter id="filter102">
    <property name="background">colour:0x00000000</property>
    <property name="mlt_service">affine</property>
    <property name="kdenlive_id">pan_zoom</property>
    <property name="tag">affine</property>
    <property name="kdenlive_ix">1</property>
    <property name="kdenlive_info"/>
    <property name="disable">0</property>
    <property name="transition.geometry">160/0:1280x720:100</property>
    <property name="transition.distort">0</property>
   </filter>
  </entry>
  <entry out="1202" producer="31_playlist4" in="1180">
   <filter id="filter103" out="1202" in="1180">
    <property name="background">colour:0x00000000</property>
    <property name="mlt_service">affine</property>
    <property name="kdenlive_id">pan_zoom</property>
    <property name="tag">affine</property>
    <property name="kdenlive_ix">1</property>
    <property name="transition.geometry">0=160/0:1280x720:100;22=0/0:1280x720:100</property>
    <property name="transition.distort">0</property>
    <property name="kdenlive:sync_in_out">1</property>
    <property name="kdenlive_info"/>
   </filter>
  </entry>
  <entry out="22" producer="34_playlist4" in="0">
   <filter id="filter104" out="22">
    <property name="background">colour:0x00000000</property>
    <property name="mlt_service">affine</property>
    <property name="kdenlive_id">pan_zoom</property>
    <property name="tag">affine</property>
    <property name="kdenlive_ix">1</property>
    <property name="transition.geometry">0=0/0:1280x720:100;22=-160/0:1280x720:100</property>
    <property name="transition.distort">0</property>
    <property name="kdenlive:sync_in_out">1</property>
    <property name="kdenlive_info"/>
   </filter>
  </entry>
  <entry out="335" producer="34_playlist4" in="23">
   <filter id="filter105" out="335" in="23">
    <property name="background">colour:0x00000000</property>
    <property name="mlt_service">affine</property>
    <property name="kdenlive_id">pan_zoom</property>
    <property name="tag">affine</property>
    <property name="kdenlive_ix">1</property>
    <property name="transition.geometry">-160/0:1280x720:100</property>
    <property name="transition.distort">0</property>
    <property name="kdenlive:sync_in_out">1</property>
    <property name="kdenlive_info"/>
    <property name="disable"/>
   </filter>
   <filter id="filter106" out="335" in="276">
    <property name="start">1</property>
    <property name="mlt_service">brightness</property>
    <property name="kdenlive_id">fade_to_black</property>
    <property name="tag">brightness</property>
    <property name="kdenlive_ix">2</property>
    <property name="end">0</property>
   </filter>
  </entry>
  <blank length="35"/>
  <entry out="606" producer="103_playlist4" in="135">
   <filter id="filter37" out="300" in="135">
    <property name="start">0</property>
    <property name="mlt_service">brightness</property>
    <property name="kdenlive_id">fade_from_black</property>
    <property name="tag">brightness</property>
    <property name="kdenlive_ix">1</property>
    <property name="end">1</property>
    <property name="kdenlive_info"/>
   </filter>
  </entry>
  <entry out="2076" producer="103_playlist4" in="872"/>
  <entry out="3113" producer="103_playlist4" in="2368"/>
  <entry out="4598" producer="103_playlist4" in="3412"/>
  <entry out="4060" producer="slowmotion:103:1,2:1:0" in="3833">
   <filter id="oldfilm">
    <property name="delta">30</property>
    <property name="every">30</property>
    <property name="brightnessdelta_up">0</property>
    <property name="brightnessdelta_down">0</property>
    <property name="brightnessdelta_every">0</property>
    <property name="unevendevelop_up">0</property>
    <property name="unevendevelop_down">0</property>
    <property name="unevendevelop_duration">0</property>
    <property name="mlt_service">oldfilm</property>
    <property name="kdenlive_id">oldfilm</property>
    <property name="tag">oldfilm</property>
    <property name="kdenlive_ix">2</property>
    <property name="kdenlive_info">1/-1/</property>
    <property name="disable">0</property>
   </filter>
   <filter id="filter54" out="4060" in="3833">
    <property name="background">colour:0x00000000</property>
    <property name="mlt_service">affine</property>
    <property name="kdenlive_id">pan_zoom</property>
    <property name="tag">affine</property>
    <property name="kdenlive_ix">3</property>
    <property name="transition.geometry">0=0/0:1280x720:100;9=0/0:1280x720:100;11=-127/-72:1536x864:100;14=0/0:1280x720:100;55=0/0:1280x720:100;56=-192/-107:1664x936:100;60=0/0:1280x720:100;93=0/0:1280x720:100;97=-187/-107:1664x936:100;104=0/0:1280x720:100;166=0/0:1280x720:100;169=-142/-64:1536x864:100;172=0/0:1280x720:100</property>
    <property name="transition.distort">0</property>
    <property name="kdenlive:sync_in_out">1</property>
    <property name="kdenlive_info"/>
   </filter>
  </entry>
  <entry out="5426" producer="103_playlist4" in="4872"/>
  <blank length="3998"/>
  <entry out="55" producer="41_playlist4" in="10"/>
  <blank length="2396"/>
  <entry out="293" producer="46_playlist4" in="226"/>
  <blank length="133"/>
  <entry out="362" producer="46_playlist4" in="294"/>
  <blank length="69"/>
  <entry out="478" producer="46_playlist4" in="353"/>
  <blank length="4254"/>
  <entry out="167" producer="slowmotion:59:1,8:1:0" in="0">
   <filter id="filter107">
    <property name="version">0,1</property>
    <property name="mlt_service">frei0r.scale0tilt</property>
    <property name="kdenlive_id">frei0r.scale0tilt</property>
    <property name="tag">frei0r.scale0tilt</property>
    <property name="kdenlive_ix">1</property>
    <property name="Clip left">0</property>
    <property name="Clip right">0</property>
    <property name="Clip top">0,7125</property>
    <property name="Clip bottom">0</property>
    <property name="Scale X">0,5</property>
    <property name="Scale Y">0,5</property>
    <property name="Tilt X">0,5</property>
    <property name="Tilt Y">0,5</property>
    <property name="kdenlive_info"/>
   </filter>
  </entry>
  <blank length="515"/>
  <entry out="1864" producer="slowmotion:62:1,8:1:0" in="1762">
   <filter id="filter108">
    <property name="version">0,1</property>
    <property name="mlt_service">frei0r.scale0tilt</property>
    <property name="kdenlive_id">frei0r.scale0tilt</property>
    <property name="tag">frei0r.scale0tilt</property>
    <property name="kdenlive_ix">2</property>
    <property name="Clip left">0</property>
    <property name="Clip right">0</property>
    <property name="Clip top">0</property>
    <property name="Clip bottom">0,376389</property>
    <property name="Scale X">0,5</property>
    <property name="Scale Y">0,5</property>
    <property name="Tilt X">0,5</property>
    <property name="Tilt Y">0,5</property>
    <property name="kdenlive_info">0/-1/</property>
   </filter>
  </entry>
  <blank length="1206"/>
  <entry out="345" producer="slowmotion:65:1,5:1:0" in="20"/>
  <entry out="3054" producer="slowmotion:65:1,3:1:0" in="2822"/>
  <entry out="4056" producer="slowmotion:65:1,4:1:0" in="3740"/>
  <blank length="3351"/>
  <entry out="286" producer="77_playlist4" in="210"/>
  <blank length="822"/>
  <entry out="138" producer="81_playlist4" in="0">
   <filter id="filter109" out="113">
    <property name="start">0</property>
    <property name="mlt_service">brightness</property>
    <property name="kdenlive_id">fade_from_black</property>
    <property name="tag">brightness</property>
    <property name="kdenlive_ix">1</property>
    <property name="end">1</property>
   </filter>
  </entry>
  <entry out="455" producer="80_playlist4" in="220"/>
  <entry out="138" producer="81_playlist4" in="0"/>
  <entry out="455" producer="80_playlist4" in="220"/>
  <entry out="928" producer="80_playlist4" in="677"/>
  <entry out="2750" producer="80_playlist4" in="2263"/>
  <blank length="822"/>
  <entry out="318" producer="40_playlist4" in="0">
   <filter id="greyscale">
    <property name="mlt_service">greyscale</property>
    <property name="kdenlive_id">greyscale</property>
    <property name="tag">greyscale</property>
    <property name="kdenlive_ix">1</property>
   </filter>
   <filter id="filter110" out="102">
    <property name="start">0</property>
    <property name="mlt_service">brightness</property>
    <property name="kdenlive_id">fade_from_black</property>
    <property name="tag">brightness</property>
    <property name="kdenlive_ix">2</property>
    <property name="end">1</property>
   </filter>
  </entry>
  <entry out="206" producer="40_playlist4" in="0">
   <filter id="filter111">
    <property name="mlt_service">greyscale</property>
    <property name="kdenlive_id">greyscale</property>
    <property name="tag">greyscale</property>
    <property name="kdenlive_ix">1</property>
    <property name="kdenlive_info"/>
   </filter>
   <filter id="filter112" out="206" in="146">
    <property name="start">1</property>
    <property name="mlt_service">brightness</property>
    <property name="kdenlive_id">fade_to_black</property>
    <property name="tag">brightness</property>
    <property name="kdenlive_ix">2</property>
    <property name="end">0</property>
   </filter>
  </entry>
 </playlist>
 <playlist id="playlist5">
  <property name="kdenlive:track_name">Video 3</property>
  <entry out="51518" producer="3" in="0"/>
 </playlist>
 <tractor id="maintractor" title="Anonymous Submission" global_feed="1" out="51519" in="0">
  <track producer="black_track"/>
  <track producer="playlist3" hide="audio"/>
  <track producer="playlist0" hide="audio"/>
  <track producer="playlist4" hide="audio"/>
  <track producer="playlist5" hide="audio"/>
  <transition id="transition0">
   <property name="a_track">0</property>
   <property name="b_track">1</property>
   <property name="mlt_service">mix</property>
   <property name="always_active">1</property>
   <property name="combine">1</property>
   <property name="internal_added">237</property>
  </transition>
  <transition id="transition1">
   <property name="a_track">0</property>
   <property name="b_track">2</property>
   <property name="mlt_service">mix</property>
   <property name="always_active">1</property>
   <property name="combine">1</property>
   <property name="internal_added">237</property>
  </transition>
  <transition id="transition2">
   <property name="a_track">0</property>
   <property name="b_track">3</property>
   <property name="mlt_service">mix</property>
   <property name="always_active">1</property>
   <property name="combine">1</property>
   <property name="internal_added">237</property>
  </transition>
  <transition id="transition3">
   <property name="a_track">0</property>
   <property name="b_track">4</property>
   <property name="mlt_service">mix</property>
   <property name="always_active">1</property>
   <property name="combine">1</property>
   <property name="internal_added">237</property>
  </transition>
  <transition id="transition4" out="1844" in="1771">
   <property name="a_track">2</property>
   <property name="b_track">3</property>
   <property name="distort">0</property>
   <property name="geometry">0/0:100%x100%:100%</property>
   <property name="fill">1</property>
   <property name="mlt_service">affine</property>
   <property name="automatic">1</property>
   <property name="force_track">0</property>
   <property name="keyed">1</property>
   <property name="rotate_x">0</property>
   <property name="rotate_y">0</property>
   <property name="rotate_z">0</property>
   <property name="shear_x">0</property>
   <property name="shear_y">0</property>
   <property name="shear_z">0</property>
  </transition>
  <transition id="transition5" out="6427" in="6427">
   <property name="a_track">2</property>
   <property name="b_track">3</property>
   <property name="distort">0</property>
   <property name="geometry">0/0:100%x100%:100%</property>
   <property name="fill">1</property>
   <property name="mlt_service">affine</property>
   <property name="automatic">1</property>
   <property name="force_track">0</property>
   <property name="keyed">1</property>
   <property name="rotate_x">0</property>
   <property name="rotate_y">0</property>
   <property name="rotate_z">0</property>
   <property name="shear_x">0</property>
   <property name="shear_y">0</property>
   <property name="shear_z">0</property>
  </transition>
  <transition id="transition6" out="20880" in="20838">
   <property name="a_track">1</property>
   <property name="b_track">2</property>
   <property name="start">0/0:100%x100%</property>
   <property name="factory">loader</property>
   <property name="aligned">1</property>
   <property name="progressive">1</property>
   <property name="mlt_service">composite</property>
   <property name="automatic">1</property>
   <property name="kdenlive_id">composite</property>
   <property name="force_track">0</property>
   <property name="deinterlace">0</property>
   <property name="distort">0</property>
   <property name="fill">1</property>
   <property name="geometry">0=0/0:1280x720:0;42=0/0:1280x720:100</property>
   <property name="halign">centre</property>
   <property name="luma_invert">0</property>
   <property name="operator">over</property>
   <property name="softness">0</property>
   <property name="valign">middle</property>
   <property name="luma"/>
  </transition>
  <transition id="transition7" out="21140" in="21098">
   <property name="a_track">1</property>
   <property name="b_track">2</property>
   <property name="start">0/0:100%x100%</property>
   <property name="factory">loader</property>
   <property name="aligned">1</property>
   <property name="progressive">1</property>
   <property name="mlt_service">composite</property>
   <property name="automatic">1</property>
   <property name="kdenlive_id">composite</property>
   <property name="force_track">0</property>
   <property name="deinterlace">0</property>
   <property name="distort">0</property>
   <property name="fill">1</property>
   <property name="geometry">0=0/0:1280x720:100;42=0/0:1280x720:0</property>
   <property name="halign">centre</property>
   <property name="luma_invert">0</property>
   <property name="operator">over</property>
   <property name="softness">0</property>
   <property name="valign">middle</property>
   <property name="luma"/>
  </transition>
  <transition id="transition8" out="6529" in="6486">
   <property name="a_track">1</property>
   <property name="b_track">2</property>
   <property name="version">0,2</property>
   <property name="mlt_service">frei0r.addition</property>
   <property name="automatic">1</property>
   <property name="force_track">1</property>
  </transition>
  <transition id="transition9" out="37783" in="37541">
   <property name="a_track">1</property>
   <property name="b_track">2</property>
   <property name="version">0,2</property>
   <property name="mlt_service">frei0r.addition_alpha</property>
   <property name="automatic">1</property>
   <property name="force_track">0</property>
  </transition>
  <transition id="transition10" out="6477" in="6442">
   <property name="a_track">1</property>
   <property name="b_track">3</property>
   <property name="distort">0</property>
   <property name="geometry">0/0:100%x100%:100%</property>
   <property name="fill">1</property>
   <property name="mlt_service">affine</property>
   <property name="automatic">1</property>
   <property name="force_track">1</property>
   <property name="keyed">1</property>
   <property name="rotate_x">0</property>
   <property name="rotate_y">0</property>
   <property name="rotate_z">0</property>
   <property name="shear_x">0</property>
   <property name="shear_y">0</property>
   <property name="shear_z">0</property>
  </transition>
  <transition id="transition11" out="21366" in="21323">
   <property name="a_track">1</property>
   <property name="b_track">3</property>
   <property name="version">0,2</property>
   <property name="mlt_service">frei0r.addition</property>
   <property name="automatic">1</property>
   <property name="force_track">1</property>
  </transition>
  <transition id="transition12" out="32606" in="32563">
   <property name="a_track">1</property>
   <property name="b_track">3</property>
   <property name="version">0,2</property>
   <property name="mlt_service">frei0r.addition</property>
   <property name="automatic">1</property>
   <property name="force_track">1</property>
  </transition>
  <transition id="transition13" out="38067" in="37541">
   <property name="a_track">1</property>
   <property name="b_track">3</property>
   <property name="version">0,2</property>
   <property name="mlt_service">frei0r.addition</property>
   <property name="automatic">1</property>
   <property name="force_track">1</property>
  </transition>
  <transition id="transition14">
   <property name="a_track">0</property>
   <property name="b_track">1</property>
   <property name="compositing">0</property>
   <property name="distort">0</property>
   <property name="mlt_service">qtblend</property>
   <property name="always_active">1</property>
   <property name="internal_added">237</property>
  </transition>
  <transition id="transition15">
   <property name="a_track">0</property>
   <property name="b_track">2</property>
   <property name="compositing">0</property>
   <property name="distort">0</property>
   <property name="mlt_service">qtblend</property>
   <property name="always_active">1</property>
   <property name="internal_added">237</property>
  </transition>
  <transition id="transition16">
   <property name="a_track">0</property>
   <property name="b_track">3</property>
   <property name="compositing">0</property>
   <property name="distort">0</property>
   <property name="mlt_service">qtblend</property>
   <property name="always_active">1</property>
   <property name="internal_added">237</property>
  </transition>
  <transition id="transition17">
   <property name="a_track">0</property>
   <property name="b_track">4</property>
   <property name="compositing">0</property>
   <property name="distort">0</property>
   <property name="mlt_service">qtblend</property>
   <property name="always_active">1</property>
   <property name="internal_added">237</property>
  </transition>
 </tractor>
</mlt>
