<?xml version='1.0' encoding='utf-8'?>
<mlt title="Anonymous Submission" version="6.4.1" root="/home/nicolas/Documents/Projets Musique/Barons Freaks/COURTS METRAGES - MAIN/RENDER_GLOBAL" producer="main bin" LC_NUMERIC="fr_FR.UTF-8">
 <profile width="1280" frame_rate_den="1" height="720" display_aspect_num="16" display_aspect_den="9" frame_rate_num="25" colorspace="709" sample_aspect_den="1" description="HD 720p 25 fps" progressive="1" sample_aspect_num="1"/>
 <producer id="1" out="41335" in="0">
  <property name="length">41336</property>
  <property name="eof">pause</property>
  <property name="resource">/home/nicolas/Documents/Projets Musique/Barons Freaks/COURTS METRAGES - MAIN/COURTS METRAGES/Crop4tiers2.png</property>
  <property name="ttl">25</property>
  <property name="aspect_ratio">1</property>
  <property name="progressive">1</property>
  <property name="seekable">1</property>
  <property name="loop">1</property>
  <property name="meta.media.width">1280</property>
  <property name="meta.media.height">720</property>
  <property name="mlt_service">pixbuf</property>
  <property name="kdenlive:duration">125</property>
  <property name="kdenlive:file_size">12458</property>
  <property name="kdenlive:file_hash">c5469d8d3c8d79a067c6c0541da25e27</property>
 </producer>
 <producer id="2" title="Anonymous Submission" out="11967" in="0">
  <property name="length">00:07:58:18</property>
  <property name="eof">pause</property>
  <property name="resource">/home/nicolas/Documents/Projets Musique/Barons Freaks/COURTS METRAGES - MAIN/COURTS METRAGES/EpisodeI/RENDER/bonne_maison.mp4</property>
  <property name="audio_index">-1</property>
  <property name="video_index">0</property>
  <property name="mute_on_pause">1</property>
  <property name="mlt_service">avformat-novalidate</property>
  <property name="meta.media.nb_streams">1</property>
  <property name="meta.media.0.stream.type">video</property>
  <property name="meta.media.0.stream.frame_rate">25</property>
  <property name="meta.media.0.stream.sample_aspect_ratio">1</property>
  <property name="meta.media.0.codec.width">1280</property>
  <property name="meta.media.0.codec.height">720</property>
  <property name="meta.media.0.codec.rotate">0</property>
  <property name="meta.media.0.codec.frame_rate">25</property>
  <property name="meta.media.0.codec.pix_fmt">yuv420p</property>
  <property name="meta.media.0.codec.sample_aspect_ratio">1</property>
  <property name="meta.media.0.codec.colorspace">709</property>
  <property name="meta.media.0.codec.color_trc">1</property>
  <property name="meta.media.0.codec.name">h264</property>
  <property name="meta.media.0.codec.long_name">H.264 / AVC / MPEG-4 AVC / MPEG-4 part 10</property>
  <property name="meta.media.0.codec.bit_rate">6819927</property>
  <property name="meta.attr.0.stream.handler_name.markup">VideoHandler</property>
  <property name="meta.attr.major_brand.markup">isom</property>
  <property name="meta.attr.minor_version.markup">512</property>
  <property name="meta.attr.compatible_brands.markup">isomiso2avc1mp41</property>
  <property name="meta.attr.encoder.markup">Lavf57.56.101</property>
  <property name="seekable">1</property>
  <property name="meta.media.sample_aspect_num">1</property>
  <property name="meta.media.sample_aspect_den">1</property>
  <property name="aspect_ratio">1</property>
  <property name="meta.media.frame_rate_num">25</property>
  <property name="meta.media.frame_rate_den">1</property>
  <property name="meta.media.colorspace">709</property>
  <property name="meta.media.color_trc">1</property>
  <property name="meta.media.width">1280</property>
  <property name="meta.media.height">720</property>
  <property name="meta.media.top_field_first">0</property>
  <property name="meta.media.progressive">1</property>
  <property name="kdenlive:file_size">408254232</property>
  <property name="kdenlive:file_hash">d9ea402053e744a635d07e9e81688e3b</property>
  <property name="global_feed">1</property>
 </producer>
 <producer id="4" title="Anonymous Submission" out="1859" in="0">
  <property name="length">00:01:14:10</property>
  <property name="eof">pause</property>
  <property name="resource">/home/nicolas/Documents/Projets Musique/Barons Freaks/COURTS METRAGES - MAIN/COURTS METRAGES/EpisodeI/RENDER/render EpisodeI-intro.mp4</property>
  <property name="audio_index">1</property>
  <property name="video_index">0</property>
  <property name="mute_on_pause">1</property>
  <property name="mlt_service">avformat-novalidate</property>
  <property name="meta.media.nb_streams">2</property>
  <property name="meta.media.0.stream.type">video</property>
  <property name="meta.media.0.stream.frame_rate">25</property>
  <property name="meta.media.0.stream.sample_aspect_ratio">1</property>
  <property name="meta.media.0.codec.width">1280</property>
  <property name="meta.media.0.codec.height">720</property>
  <property name="meta.media.0.codec.rotate">0</property>
  <property name="meta.media.0.codec.frame_rate">25</property>
  <property name="meta.media.0.codec.pix_fmt">yuv420p</property>
  <property name="meta.media.0.codec.sample_aspect_ratio">1</property>
  <property name="meta.media.0.codec.colorspace">709</property>
  <property name="meta.media.0.codec.color_trc">1</property>
  <property name="meta.media.0.codec.name">h264</property>
  <property name="meta.media.0.codec.long_name">H.264 / AVC / MPEG-4 AVC / MPEG-4 part 10</property>
  <property name="meta.media.0.codec.bit_rate">7164423</property>
  <property name="meta.attr.0.stream.handler_name.markup">VideoHandler</property>
  <property name="meta.media.1.stream.type">audio</property>
  <property name="meta.media.1.codec.sample_fmt">fltp</property>
  <property name="meta.media.1.codec.sample_rate">48000</property>
  <property name="meta.media.1.codec.channels">2</property>
  <property name="meta.media.1.codec.name">aac</property>
  <property name="meta.media.1.codec.long_name">AAC (Advanced Audio Coding)</property>
  <property name="meta.media.1.codec.bit_rate">2275</property>
  <property name="meta.attr.1.stream.handler_name.markup">SoundHandler</property>
  <property name="meta.attr.major_brand.markup">isom</property>
  <property name="meta.attr.minor_version.markup">512</property>
  <property name="meta.attr.compatible_brands.markup">isomiso2avc1mp41</property>
  <property name="meta.attr.encoder.markup">Lavf57.56.101</property>
  <property name="seekable">1</property>
  <property name="meta.media.sample_aspect_num">1</property>
  <property name="meta.media.sample_aspect_den">1</property>
  <property name="aspect_ratio">1</property>
  <property name="meta.media.frame_rate_num">25</property>
  <property name="meta.media.frame_rate_den">1</property>
  <property name="meta.media.colorspace">709</property>
  <property name="meta.media.color_trc">1</property>
  <property name="meta.media.width">1280</property>
  <property name="meta.media.height">720</property>
  <property name="meta.media.top_field_first">0</property>
  <property name="meta.media.progressive">1</property>
  <property name="kdenlive:file_size">66672447</property>
  <property name="kdenlive:file_hash">d65e0c856614deb7283582559af38ce4</property>
  <property name="global_feed">1</property>
 </producer>
 <producer id="5" title="Anonymous Submission" out="2892" in="0">
  <property name="length">00:01:55:18</property>
  <property name="eof">pause</property>
  <property name="resource">/home/nicolas/Documents/Projets Musique/Barons Freaks/COURTS METRAGES - MAIN/COURTS METRAGES/EpisodeI/RENDER/render EpisodeI-MaisonEcroulee.mp4</property>
  <property name="audio_index">1</property>
  <property name="video_index">0</property>
  <property name="mute_on_pause">1</property>
  <property name="mlt_service">avformat-novalidate</property>
  <property name="meta.media.nb_streams">2</property>
  <property name="meta.media.0.stream.type">video</property>
  <property name="meta.media.0.stream.frame_rate">25</property>
  <property name="meta.media.0.stream.sample_aspect_ratio">1</property>
  <property name="meta.media.0.codec.width">1280</property>
  <property name="meta.media.0.codec.height">720</property>
  <property name="meta.media.0.codec.rotate">0</property>
  <property name="meta.media.0.codec.frame_rate">25</property>
  <property name="meta.media.0.codec.pix_fmt">yuv420p</property>
  <property name="meta.media.0.codec.sample_aspect_ratio">1</property>
  <property name="meta.media.0.codec.colorspace">709</property>
  <property name="meta.media.0.codec.color_trc">1</property>
  <property name="meta.media.0.codec.name">h264</property>
  <property name="meta.media.0.codec.long_name">H.264 / AVC / MPEG-4 AVC / MPEG-4 part 10</property>
  <property name="meta.media.0.codec.bit_rate">7198493</property>
  <property name="meta.attr.0.stream.handler_name.markup">VideoHandler</property>
  <property name="meta.media.1.stream.type">audio</property>
  <property name="meta.media.1.codec.sample_fmt">fltp</property>
  <property name="meta.media.1.codec.sample_rate">48000</property>
  <property name="meta.media.1.codec.channels">2</property>
  <property name="meta.media.1.codec.name">aac</property>
  <property name="meta.media.1.codec.long_name">AAC (Advanced Audio Coding)</property>
  <property name="meta.media.1.codec.bit_rate">2275</property>
  <property name="meta.attr.1.stream.handler_name.markup">SoundHandler</property>
  <property name="meta.attr.major_brand.markup">isom</property>
  <property name="meta.attr.minor_version.markup">512</property>
  <property name="meta.attr.compatible_brands.markup">isomiso2avc1mp41</property>
  <property name="meta.attr.encoder.markup">Lavf57.56.101</property>
  <property name="seekable">1</property>
  <property name="meta.media.sample_aspect_num">1</property>
  <property name="meta.media.sample_aspect_den">1</property>
  <property name="aspect_ratio">1</property>
  <property name="meta.media.frame_rate_num">25</property>
  <property name="meta.media.frame_rate_den">1</property>
  <property name="meta.media.colorspace">709</property>
  <property name="meta.media.color_trc">1</property>
  <property name="meta.media.width">1280</property>
  <property name="meta.media.height">720</property>
  <property name="meta.media.top_field_first">0</property>
  <property name="meta.media.progressive">1</property>
  <property name="kdenlive:file_size">104212540</property>
  <property name="kdenlive:file_hash">192140e4f7128b4f148380186fc2e1b8</property>
  <property name="global_feed">1</property>
 </producer>
 <producer id="6" out="124" in="0">
  <property name="length">125</property>
  <property name="eof">pause</property>
  <property name="resource">/home/nicolas/Documents/Projets Musique/Barons Freaks/COURTS METRAGES - MAIN/COURTS METRAGES/EpisodeI/Amazing-Castle-Images-.jpg</property>
  <property name="ttl">25</property>
  <property name="aspect_ratio">1</property>
  <property name="progressive">1</property>
  <property name="seekable">1</property>
  <property name="loop">1</property>
  <property name="meta.media.width">1440</property>
  <property name="meta.media.height">900</property>
  <property name="mlt_service">pixbuf</property>
  <property name="kdenlive:duration">125</property>
  <property name="kdenlive:file_size">415103</property>
  <property name="kdenlive:file_hash">079e33c8b22ee99ecc4ac3d5ad3ba7b5</property>
 </producer>
 <producer id="7" title="Anonymous Submission" out="4267" in="0">
  <property name="length">00:02:50:18</property>
  <property name="eof">pause</property>
  <property name="resource">/home/nicolas/Documents/Projets Musique/Barons Freaks/COURTS METRAGES - MAIN/COURTS METRAGES/EpisodeI/RENDER/render EpisodeI-chateau_et_peniche.mp4</property>
  <property name="audio_index">-1</property>
  <property name="video_index">0</property>
  <property name="mute_on_pause">1</property>
  <property name="mlt_service">avformat-novalidate</property>
  <property name="meta.media.nb_streams">1</property>
  <property name="meta.media.0.stream.type">video</property>
  <property name="meta.media.0.stream.frame_rate">25</property>
  <property name="meta.media.0.stream.sample_aspect_ratio">1</property>
  <property name="meta.media.0.codec.width">1280</property>
  <property name="meta.media.0.codec.height">720</property>
  <property name="meta.media.0.codec.rotate">0</property>
  <property name="meta.media.0.codec.frame_rate">25</property>
  <property name="meta.media.0.codec.pix_fmt">yuv420p</property>
  <property name="meta.media.0.codec.sample_aspect_ratio">1</property>
  <property name="meta.media.0.codec.colorspace">709</property>
  <property name="meta.media.0.codec.color_trc">1</property>
  <property name="meta.media.0.codec.name">h264</property>
  <property name="meta.media.0.codec.long_name">H.264 / AVC / MPEG-4 AVC / MPEG-4 part 10</property>
  <property name="meta.media.0.codec.bit_rate">6499371</property>
  <property name="meta.attr.0.stream.handler_name.markup">VideoHandler</property>
  <property name="meta.attr.major_brand.markup">isom</property>
  <property name="meta.attr.minor_version.markup">512</property>
  <property name="meta.attr.compatible_brands.markup">isomiso2avc1mp41</property>
  <property name="meta.attr.encoder.markup">Lavf57.56.101</property>
  <property name="seekable">1</property>
  <property name="meta.media.sample_aspect_num">1</property>
  <property name="meta.media.sample_aspect_den">1</property>
  <property name="aspect_ratio">1</property>
  <property name="meta.media.frame_rate_num">25</property>
  <property name="meta.media.frame_rate_den">1</property>
  <property name="meta.media.colorspace">709</property>
  <property name="meta.media.color_trc">1</property>
  <property name="meta.media.width">1280</property>
  <property name="meta.media.height">720</property>
  <property name="meta.media.top_field_first">0</property>
  <property name="meta.media.progressive">1</property>
  <property name="kdenlive:file_size">138747603</property>
  <property name="kdenlive:file_hash">d5b5b9ec6af46141ada7db83d535d5a8</property>
  <property name="global_feed">1</property>
 </producer>
 <producer id="8" title="Anonymous Submission" out="4502" in="0">
  <property name="length">00:03:00:03</property>
  <property name="eof">pause</property>
  <property name="resource">/home/nicolas/Documents/Projets Musique/Barons Freaks/COURTS METRAGES - MAIN/COURTS METRAGES/EpisodeI/RENDER/render EpisodeI-moderne.mp4</property>
  <property name="audio_index">1</property>
  <property name="video_index">0</property>
  <property name="mute_on_pause">1</property>
  <property name="mlt_service">avformat-novalidate</property>
  <property name="meta.media.nb_streams">2</property>
  <property name="meta.media.0.stream.type">video</property>
  <property name="meta.media.0.stream.frame_rate">25</property>
  <property name="meta.media.0.stream.sample_aspect_ratio">1</property>
  <property name="meta.media.0.codec.width">1280</property>
  <property name="meta.media.0.codec.height">720</property>
  <property name="meta.media.0.codec.rotate">0</property>
  <property name="meta.media.0.codec.frame_rate">25</property>
  <property name="meta.media.0.codec.pix_fmt">yuv420p</property>
  <property name="meta.media.0.codec.sample_aspect_ratio">1</property>
  <property name="meta.media.0.codec.colorspace">709</property>
  <property name="meta.media.0.codec.color_trc">1</property>
  <property name="meta.media.0.codec.name">h264</property>
  <property name="meta.media.0.codec.long_name">H.264 / AVC / MPEG-4 AVC / MPEG-4 part 10</property>
  <property name="meta.media.0.codec.bit_rate">4961438</property>
  <property name="meta.attr.0.stream.handler_name.markup">VideoHandler</property>
  <property name="meta.media.1.stream.type">audio</property>
  <property name="meta.media.1.codec.sample_fmt">fltp</property>
  <property name="meta.media.1.codec.sample_rate">48000</property>
  <property name="meta.media.1.codec.channels">2</property>
  <property name="meta.media.1.codec.name">aac</property>
  <property name="meta.media.1.codec.long_name">AAC (Advanced Audio Coding)</property>
  <property name="meta.media.1.codec.bit_rate">2274</property>
  <property name="meta.attr.1.stream.handler_name.markup">SoundHandler</property>
  <property name="meta.attr.major_brand.markup">isom</property>
  <property name="meta.attr.minor_version.markup">512</property>
  <property name="meta.attr.compatible_brands.markup">isomiso2avc1mp41</property>
  <property name="meta.attr.encoder.markup">Lavf57.56.101</property>
  <property name="seekable">1</property>
  <property name="meta.media.sample_aspect_num">1</property>
  <property name="meta.media.sample_aspect_den">1</property>
  <property name="aspect_ratio">1</property>
  <property name="meta.media.frame_rate_num">25</property>
  <property name="meta.media.frame_rate_den">1</property>
  <property name="meta.media.colorspace">709</property>
  <property name="meta.media.color_trc">1</property>
  <property name="meta.media.width">1280</property>
  <property name="meta.media.height">720</property>
  <property name="meta.media.top_field_first">0</property>
  <property name="meta.media.progressive">1</property>
  <property name="kdenlive:file_size">111871101</property>
  <property name="kdenlive:file_hash">d7c45b96878b890104efe59487ef9739</property>
  <property name="global_feed">1</property>
 </producer>
 <producer id="9" title="Anonymous Submission" out="24369" in="0">
  <property name="length">00:16:14:20</property>
  <property name="eof">pause</property>
  <property name="resource">/home/nicolas/Documents/Projets Musique/Barons Freaks/COURTS METRAGES - MAIN/COURTS METRAGES/EpisodeII/2017-11-16_EpisodeII.mp4</property>
  <property name="audio_index">1</property>
  <property name="video_index">0</property>
  <property name="mute_on_pause">1</property>
  <property name="mlt_service">avformat-novalidate</property>
  <property name="meta.media.nb_streams">2</property>
  <property name="meta.media.0.stream.type">video</property>
  <property name="meta.media.0.stream.frame_rate">25</property>
  <property name="meta.media.0.stream.sample_aspect_ratio">1</property>
  <property name="meta.media.0.codec.width">1280</property>
  <property name="meta.media.0.codec.height">720</property>
  <property name="meta.media.0.codec.rotate">0</property>
  <property name="meta.media.0.codec.frame_rate">25</property>
  <property name="meta.media.0.codec.pix_fmt">yuv420p</property>
  <property name="meta.media.0.codec.sample_aspect_ratio">1</property>
  <property name="meta.media.0.codec.colorspace">709</property>
  <property name="meta.media.0.codec.color_trc">1</property>
  <property name="meta.media.0.codec.name">h264</property>
  <property name="meta.media.0.codec.long_name">H.264 / AVC / MPEG-4 AVC / MPEG-4 part 10</property>
  <property name="meta.media.0.codec.bit_rate">1218153</property>
  <property name="meta.attr.0.stream.handler_name.markup">VideoHandler</property>
  <property name="meta.media.1.stream.type">audio</property>
  <property name="meta.media.1.codec.sample_fmt">fltp</property>
  <property name="meta.media.1.codec.sample_rate">48000</property>
  <property name="meta.media.1.codec.channels">2</property>
  <property name="meta.media.1.codec.name">aac</property>
  <property name="meta.media.1.codec.long_name">AAC (Advanced Audio Coding)</property>
  <property name="meta.media.1.codec.bit_rate">69909</property>
  <property name="meta.attr.1.stream.handler_name.markup">SoundHandler</property>
  <property name="meta.attr.major_brand.markup">isom</property>
  <property name="meta.attr.minor_version.markup">512</property>
  <property name="meta.attr.compatible_brands.markup">isomiso2avc1mp41</property>
  <property name="meta.attr.encoder.markup">Lavf57.56.101</property>
  <property name="seekable">1</property>
  <property name="meta.media.sample_aspect_num">1</property>
  <property name="meta.media.sample_aspect_den">1</property>
  <property name="aspect_ratio">1</property>
  <property name="kdenlive:folderid">-1</property>
  <property name="meta.media.frame_rate_num">25</property>
  <property name="meta.media.frame_rate_den">1</property>
  <property name="meta.media.colorspace">709</property>
  <property name="meta.media.color_trc">1</property>
  <property name="meta.media.width">1280</property>
  <property name="meta.media.height">720</property>
  <property name="meta.media.top_field_first">0</property>
  <property name="meta.media.progressive">1</property>
  <property name="kdenlive:file_size">157685441</property>
  <property name="kdenlive:file_hash">17cb0ec3093e261c7822d825059cfce3</property>
  <property name="global_feed">1</property>
 </producer>
 <producer id="12" title="Anonymous Submission" out="23214" in="0">
  <property name="length">00:15:28:15</property>
  <property name="eof">pause</property>
  <property name="resource">render finaux/EpisodeIV_MASTER-2017-12-07.mp4</property>
  <property name="audio_index">-1</property>
  <property name="video_index">0</property>
  <property name="mute_on_pause">1</property>
  <property name="mlt_service">avformat-novalidate</property>
  <property name="meta.media.nb_streams">1</property>
  <property name="meta.media.0.stream.type">video</property>
  <property name="meta.media.0.stream.frame_rate">25</property>
  <property name="meta.media.0.stream.sample_aspect_ratio">1</property>
  <property name="meta.media.0.codec.width">1280</property>
  <property name="meta.media.0.codec.height">720</property>
  <property name="meta.media.0.codec.rotate">0</property>
  <property name="meta.media.0.codec.frame_rate">25</property>
  <property name="meta.media.0.codec.pix_fmt">yuv420p</property>
  <property name="meta.media.0.codec.sample_aspect_ratio">1</property>
  <property name="meta.media.0.codec.colorspace">709</property>
  <property name="meta.media.0.codec.color_trc">1</property>
  <property name="meta.media.0.codec.name">h264</property>
  <property name="meta.media.0.codec.long_name">H.264 / AVC / MPEG-4 AVC / MPEG-4 part 10</property>
  <property name="meta.media.0.codec.bit_rate">201846</property>
  <property name="meta.attr.0.stream.handler_name.markup">VideoHandler</property>
  <property name="meta.attr.major_brand.markup">isom</property>
  <property name="meta.attr.minor_version.markup">512</property>
  <property name="meta.attr.compatible_brands.markup">isomiso2avc1mp41</property>
  <property name="meta.attr.encoder.markup">Lavf57.56.101</property>
  <property name="seekable">1</property>
  <property name="meta.media.sample_aspect_num">1</property>
  <property name="meta.media.sample_aspect_den">1</property>
  <property name="aspect_ratio">1</property>
  <property name="meta.media.frame_rate_num">25</property>
  <property name="meta.media.frame_rate_den">1</property>
  <property name="meta.media.colorspace">709</property>
  <property name="meta.media.color_trc">1</property>
  <property name="meta.media.width">1280</property>
  <property name="meta.media.height">720</property>
  <property name="meta.media.top_field_first">0</property>
  <property name="meta.media.progressive">1</property>
  <property name="kdenlive:file_size">23707967</property>
  <property name="kdenlive:file_hash">cd5c91fc40624668eca180edb0875f76</property>
  <property name="global_feed">1</property>
 </producer>
 <producer id="13" title="Anonymous Submission" out="3559" in="0">
  <property name="length">00:02:22:10</property>
  <property name="eof">pause</property>
  <property name="resource">render finaux/2017-12-07_Episode0.mp4</property>
  <property name="audio_index">-1</property>
  <property name="video_index">0</property>
  <property name="mute_on_pause">1</property>
  <property name="mlt_service">avformat-novalidate</property>
  <property name="meta.media.nb_streams">1</property>
  <property name="meta.media.0.stream.type">video</property>
  <property name="meta.media.0.stream.frame_rate">25</property>
  <property name="meta.media.0.stream.sample_aspect_ratio">1</property>
  <property name="meta.media.0.codec.width">1280</property>
  <property name="meta.media.0.codec.height">720</property>
  <property name="meta.media.0.codec.rotate">0</property>
  <property name="meta.media.0.codec.frame_rate">25</property>
  <property name="meta.media.0.codec.pix_fmt">yuv420p</property>
  <property name="meta.media.0.codec.sample_aspect_ratio">1</property>
  <property name="meta.media.0.codec.colorspace">709</property>
  <property name="meta.media.0.codec.color_trc">1</property>
  <property name="meta.media.0.codec.name">h264</property>
  <property name="meta.media.0.codec.long_name">H.264 / AVC / MPEG-4 AVC / MPEG-4 part 10</property>
  <property name="meta.media.0.codec.bit_rate">4011365</property>
  <property name="meta.attr.0.stream.handler_name.markup">VideoHandler</property>
  <property name="meta.attr.major_brand.markup">isom</property>
  <property name="meta.attr.minor_version.markup">512</property>
  <property name="meta.attr.compatible_brands.markup">isomiso2avc1mp41</property>
  <property name="meta.attr.encoder.markup">Lavf57.56.101</property>
  <property name="seekable">1</property>
  <property name="meta.media.sample_aspect_num">1</property>
  <property name="meta.media.sample_aspect_den">1</property>
  <property name="aspect_ratio">1</property>
  <property name="meta.media.frame_rate_num">25</property>
  <property name="meta.media.frame_rate_den">1</property>
  <property name="meta.media.colorspace">709</property>
  <property name="meta.media.color_trc">1</property>
  <property name="meta.media.width">1280</property>
  <property name="meta.media.height">720</property>
  <property name="meta.media.top_field_first">0</property>
  <property name="meta.media.progressive">1</property>
  <property name="kdenlive:file_size">71446562</property>
  <property name="kdenlive:file_hash">a8eb71471e0316d5a13587422b406972</property>
  <property name="global_feed">1</property>
 </producer>
 <producer id="14" title="Anonymous Submission" out="3096" in="0">
  <property name="length">00:02:03:22</property>
  <property name="eof">pause</property>
  <property name="resource">render finaux/Episode6_MASTER-2017-11-28.mp4</property>
  <property name="audio_index">-1</property>
  <property name="video_index">0</property>
  <property name="mute_on_pause">1</property>
  <property name="mlt_service">avformat-novalidate</property>
  <property name="meta.media.nb_streams">1</property>
  <property name="meta.media.0.stream.type">video</property>
  <property name="meta.media.0.stream.frame_rate">25</property>
  <property name="meta.media.0.stream.sample_aspect_ratio">1</property>
  <property name="meta.media.0.codec.width">1280</property>
  <property name="meta.media.0.codec.height">720</property>
  <property name="meta.media.0.codec.rotate">0</property>
  <property name="meta.media.0.codec.frame_rate">25</property>
  <property name="meta.media.0.codec.pix_fmt">yuv420p</property>
  <property name="meta.media.0.codec.sample_aspect_ratio">1</property>
  <property name="meta.media.0.codec.colorspace">709</property>
  <property name="meta.media.0.codec.color_trc">1</property>
  <property name="meta.media.0.codec.name">h264</property>
  <property name="meta.media.0.codec.long_name">H.264 / AVC / MPEG-4 AVC / MPEG-4 part 10</property>
  <property name="meta.media.0.codec.bit_rate">4982342</property>
  <property name="meta.attr.0.stream.handler_name.markup">VideoHandler</property>
  <property name="meta.attr.major_brand.markup">isom</property>
  <property name="meta.attr.minor_version.markup">512</property>
  <property name="meta.attr.compatible_brands.markup">isomiso2avc1mp41</property>
  <property name="meta.attr.encoder.markup">Lavf57.56.101</property>
  <property name="seekable">1</property>
  <property name="meta.media.sample_aspect_num">1</property>
  <property name="meta.media.sample_aspect_den">1</property>
  <property name="aspect_ratio">1</property>
  <property name="meta.media.frame_rate_num">25</property>
  <property name="meta.media.frame_rate_den">1</property>
  <property name="meta.media.colorspace">709</property>
  <property name="meta.media.color_trc">1</property>
  <property name="meta.media.width">1280</property>
  <property name="meta.media.height">720</property>
  <property name="meta.media.top_field_first">0</property>
  <property name="meta.media.progressive">1</property>
  <property name="kdenlive:file_size">77190563</property>
  <property name="kdenlive:file_hash">fee70033ec885526a323f955b4aba9a5</property>
  <property name="global_feed">1</property>
 </producer>
 <producer id="15" title="Anonymous Submission" out="19316" in="0">
  <property name="length">00:12:52:17</property>
  <property name="eof">pause</property>
  <property name="resource">EpisodeI_MASTER-2017-12-19.mp4</property>
  <property name="audio_index">-1</property>
  <property name="video_index">0</property>
  <property name="mute_on_pause">1</property>
  <property name="mlt_service">avformat-novalidate</property>
  <property name="meta.media.nb_streams">1</property>
  <property name="meta.media.0.stream.type">video</property>
  <property name="meta.media.0.stream.frame_rate">25</property>
  <property name="meta.media.0.stream.sample_aspect_ratio">1</property>
  <property name="meta.media.0.codec.width">1280</property>
  <property name="meta.media.0.codec.height">720</property>
  <property name="meta.media.0.codec.rotate">0</property>
  <property name="meta.media.0.codec.frame_rate">25</property>
  <property name="meta.media.0.codec.pix_fmt">yuv420p</property>
  <property name="meta.media.0.codec.sample_aspect_ratio">1</property>
  <property name="meta.media.0.codec.colorspace">709</property>
  <property name="meta.media.0.codec.color_trc">1</property>
  <property name="meta.media.0.codec.name">h264</property>
  <property name="meta.media.0.codec.long_name">H.264 / AVC / MPEG-4 AVC / MPEG-4 part 10</property>
  <property name="meta.media.0.codec.bit_rate">5712338</property>
  <property name="meta.attr.0.stream.handler_name.markup">VideoHandler</property>
  <property name="meta.attr.major_brand.markup">isom</property>
  <property name="meta.attr.minor_version.markup">512</property>
  <property name="meta.attr.compatible_brands.markup">isomiso2avc1mp41</property>
  <property name="meta.attr.encoder.markup">Lavf57.56.101</property>
  <property name="seekable">1</property>
  <property name="meta.media.sample_aspect_num">1</property>
  <property name="meta.media.sample_aspect_den">1</property>
  <property name="aspect_ratio">1</property>
  <property name="meta.media.frame_rate_num">25</property>
  <property name="meta.media.frame_rate_den">1</property>
  <property name="meta.media.colorspace">709</property>
  <property name="meta.media.color_trc">1</property>
  <property name="meta.media.width">1280</property>
  <property name="meta.media.height">720</property>
  <property name="meta.media.top_field_first">0</property>
  <property name="meta.media.progressive">1</property>
  <property name="kdenlive:file_size">551965313</property>
  <property name="kdenlive:file_hash">d960e3e5ad29973a9f0ab598958490a6</property>
  <property name="global_feed">1</property>
 </producer>
 <producer id="16" title="Anonymous Submission" out="32434" in="0">
  <property name="length">00:21:37:10</property>
  <property name="eof">pause</property>
  <property name="resource">EpisodeV_MASTER-2017-12-07.mp4</property>
  <property name="meta.media.nb_streams">1</property>
  <property name="meta.media.0.stream.type">video</property>
  <property name="meta.media.0.stream.frame_rate">25</property>
  <property name="meta.media.0.stream.sample_aspect_ratio">1</property>
  <property name="meta.media.0.codec.width">1280</property>
  <property name="meta.media.0.codec.height">720</property>
  <property name="meta.media.0.codec.rotate">0</property>
  <property name="meta.media.0.codec.frame_rate">25</property>
  <property name="meta.media.0.codec.pix_fmt">yuv420p</property>
  <property name="meta.media.0.codec.sample_aspect_ratio">1</property>
  <property name="meta.media.0.codec.colorspace">709</property>
  <property name="meta.media.0.codec.color_trc">1</property>
  <property name="meta.media.0.codec.name">h264</property>
  <property name="meta.media.0.codec.long_name">H.264 / AVC / MPEG-4 AVC / MPEG-4 part 10</property>
  <property name="meta.media.0.codec.bit_rate">534426</property>
  <property name="meta.attr.0.stream.handler_name.markup">VideoHandler</property>
  <property name="meta.attr.major_brand.markup">isom</property>
  <property name="meta.attr.minor_version.markup">512</property>
  <property name="meta.attr.compatible_brands.markup">isomiso2avc1mp41</property>
  <property name="meta.attr.encoder.markup">Lavf57.56.101</property>
  <property name="seekable">1</property>
  <property name="meta.media.sample_aspect_num">1</property>
  <property name="meta.media.sample_aspect_den">1</property>
  <property name="aspect_ratio">1</property>
  <property name="audio_index">-1</property>
  <property name="video_index">0</property>
  <property name="mute_on_pause">1</property>
  <property name="mlt_service">avformat-novalidate</property>
  <property name="meta.media.frame_rate_num">25</property>
  <property name="meta.media.frame_rate_den">1</property>
  <property name="meta.media.colorspace">709</property>
  <property name="meta.media.color_trc">1</property>
  <property name="meta.media.width">1280</property>
  <property name="meta.media.height">720</property>
  <property name="meta.media.top_field_first">0</property>
  <property name="meta.media.progressive">1</property>
  <property name="kdenlive:file_size">87059178</property>
  <property name="kdenlive:file_hash">3ffa890643bae021ac3f1c1ed16a6c6a</property>
  <property name="global_feed">1</property>
 </producer>
 <producer id="17" out="124" in="0">
  <property name="length">125</property>
  <property name="eof">pause</property>
  <property name="resource">/home/nicolas/Documents/Projets Musique/Barons Freaks/COURTS METRAGES - MAIN/COURTS METRAGES/EpisodeV/diaphramme coeur.png</property>
  <property name="ttl">25</property>
  <property name="aspect_ratio">1</property>
  <property name="progressive">1</property>
  <property name="seekable">1</property>
  <property name="loop">1</property>
  <property name="meta.media.width">3564</property>
  <property name="meta.media.height">3310</property>
  <property name="mlt_service">pixbuf</property>
  <property name="kdenlive:duration">125</property>
  <property name="kdenlive:file_size">70202</property>
  <property name="kdenlive:file_hash">b1e8d7ad0c1ec4092dd8b4ef367b2dc9</property>
 </producer>
 <playlist id="main bin">
  <property name="kdenlive:docproperties.audiotargettrack">-1</property>
  <property name="kdenlive:docproperties.decimalPoint">,</property>
  <property name="kdenlive:docproperties.dirtypreviewchunks"/>
  <property name="kdenlive:docproperties.disablepreview">0</property>
  <property name="kdenlive:docproperties.documentid">1498825962618</property>
  <property name="kdenlive:docproperties.enableproxy">0</property>
  <property name="kdenlive:docproperties.generateimageproxy">1</property>
  <property name="kdenlive:docproperties.generateproxy">1</property>
  <property name="kdenlive:docproperties.kdenliveversion">16.12.2</property>
  <property name="kdenlive:docproperties.position">21110</property>
  <property name="kdenlive:docproperties.previewchunks"/>
  <property name="kdenlive:docproperties.previewextension"/>
  <property name="kdenlive:docproperties.previewparameters"/>
  <property name="kdenlive:docproperties.profile">atsc_720p_25</property>
  <property name="kdenlive:docproperties.proxyextension">mpg</property>
  <property name="kdenlive:docproperties.proxyimageminsize">2000</property>
  <property name="kdenlive:docproperties.proxyminsize">1000</property>
  <property name="kdenlive:docproperties.proxyparams">-vf scale=640:-1 -g 5 -qscale 6 -ab 128k -vcodec mpeg2video -acodec mp2</property>
  <property name="kdenlive:docproperties.version">0.95</property>
  <property name="kdenlive:docproperties.verticalzoom">0</property>
  <property name="kdenlive:docproperties.videotargettrack">2</property>
  <property name="kdenlive:docproperties.zonein">0</property>
  <property name="kdenlive:docproperties.zoneout">100</property>
  <property name="kdenlive:docproperties.zoom">13</property>
  <property name="kdenlive:documentnotes"/>
  <property name="kdenlive:clipgroups"/>
  <property name="kdenlive:docproperties.renderaudioquality">192</property>
  <property name="kdenlive:docproperties.rendercategory">Generic (HD for web, mobile devices...)</property>
  <property name="kdenlive:docproperties.renderendguide">-1</property>
  <property name="kdenlive:docproperties.renderexportaudio">1</property>
  <property name="kdenlive:docproperties.renderguide">0</property>
  <property name="kdenlive:docproperties.renderplay">0</property>
  <property name="kdenlive:docproperties.renderprofile">MP4 - the dominating format (H264/AAC)</property>
  <property name="kdenlive:docproperties.renderquality">15</property>
  <property name="kdenlive:docproperties.renderratio">1</property>
  <property name="kdenlive:docproperties.renderrescale">0</property>
  <property name="kdenlive:docproperties.renderrescaleheight">180</property>
  <property name="kdenlive:docproperties.renderrescalewidth">320</property>
  <property name="kdenlive:docproperties.renderscanning">0</property>
  <property name="kdenlive:docproperties.renderspeed">2</property>
  <property name="kdenlive:docproperties.renderstartguide">-1</property>
  <property name="kdenlive:docproperties.rendertcoverlay">0</property>
  <property name="kdenlive:docproperties.rendertctype">0</property>
  <property name="kdenlive:docproperties.rendertwopass">0</property>
  <property name="kdenlive:docproperties.renderurl">/home/nicolas/render finaux/final_final/Episode5_MASTER-2018-01-08.mp4</property>
  <property name="kdenlive:docproperties.renderzone">0</property>
  <property name="xml_retain">1</property>
  <entry out="124" producer="1" in="0"/>
  <entry out="11967" producer="2" in="0"/>
  <entry out="1859" producer="4" in="0"/>
  <entry out="2892" producer="5" in="0"/>
  <entry out="124" producer="6" in="0"/>
  <entry out="4267" producer="7" in="0"/>
  <entry out="4502" producer="8" in="0"/>
  <entry out="24369" producer="9" in="0"/>
  <entry out="23214" producer="12" in="0"/>
  <entry out="3559" producer="13" in="0"/>
  <entry out="3096" producer="14" in="0"/>
  <entry out="19316" producer="15" in="0"/>
  <entry out="32434" producer="16" in="0"/>
  <entry out="124" producer="17" in="0"/>
 </playlist>
 <producer id="black" out="54169" in="0">
  <property name="length">54170</property>
  <property name="eof">pause</property>
  <property name="resource">black</property>
  <property name="aspect_ratio">0</property>
  <property name="mlt_service">colour</property>
  <property name="set.test_audio">0</property>
 </producer>
 <playlist id="black_track">
  <entry out="32435" producer="black" in="0"/>
 </playlist>
 <playlist id="playlist0">
  <property name="kdenlive:track_name">Video 3</property>
  <filter id="frei0r.scale0tilt">
   <property name="version">0,1</property>
   <property name="mlt_service">frei0r.scale0tilt</property>
   <property name="kdenlive_id">frei0r.scale0tilt</property>
   <property name="tag">frei0r.scale0tilt</property>
   <property name="kdenlive_ix">1</property>
   <property name="kdenlive_info">0/-1/</property>
   <property name="disable"/>
   <property name="Clip left">0</property>
   <property name="Clip right">0</property>
   <property name="Clip top">0,00694444</property>
   <property name="Clip bottom">0,00694444</property>
   <property name="Scale X">0,5</property>
   <property name="Scale Y">0,5</property>
   <property name="Tilt X">0,5</property>
   <property name="Tilt Y">0,5</property>
  </filter>
  <filter id="greyscale">
   <property name="mlt_service">greyscale</property>
   <property name="kdenlive_id">greyscale</property>
   <property name="tag">greyscale</property>
   <property name="kdenlive_ix">2</property>
   <property name="kdenlive_info"/>
   <property name="disable">0</property>
  </filter>
  <filter id="oldfilm">
   <property name="delta">5</property>
   <property name="every">5</property>
   <property name="brightnessdelta_up">10</property>
   <property name="brightnessdelta_down">20</property>
   <property name="brightnessdelta_every">15</property>
   <property name="unevendevelop_up">30</property>
   <property name="unevendevelop_down">20</property>
   <property name="unevendevelop_duration">20</property>
   <property name="mlt_service">oldfilm</property>
   <property name="kdenlive_id">oldfilm</property>
   <property name="tag">oldfilm</property>
   <property name="kdenlive_ix">3</property>
   <property name="kdenlive_info">0/-1/</property>
   <property name="disable">0</property>
  </filter>
 </playlist>
 <producer id="16_playlist1" title="Anonymous Submission" out="32434" in="0">
  <property name="length">00:21:37:10</property>
  <property name="eof">pause</property>
  <property name="resource">EpisodeV_MASTER-2017-12-07.mp4</property>
  <property name="audio_index">-1</property>
  <property name="video_index">0</property>
  <property name="mute_on_pause">1</property>
  <property name="mlt_service">avformat-novalidate</property>
  <property name="seekable">1</property>
  <property name="aspect_ratio">1</property>
  <property name="kdenlive:file_size">87059178</property>
  <property name="kdenlive:file_hash">3ffa890643bae021ac3f1c1ed16a6c6a</property>
  <property name="global_feed">1</property>
  <property name="xml">was here</property>
  <property name="meta.media.nb_streams">1</property>
  <property name="meta.media.0.stream.type">video</property>
  <property name="meta.media.0.stream.frame_rate">25</property>
  <property name="meta.media.0.stream.sample_aspect_ratio">1</property>
  <property name="meta.media.0.codec.width">1280</property>
  <property name="meta.media.0.codec.height">720</property>
  <property name="meta.media.0.codec.rotate">0</property>
  <property name="meta.media.0.codec.frame_rate">25</property>
  <property name="meta.media.0.codec.pix_fmt">yuv420p</property>
  <property name="meta.media.0.codec.sample_aspect_ratio">1</property>
  <property name="meta.media.0.codec.colorspace">709</property>
  <property name="meta.media.0.codec.color_trc">1</property>
  <property name="meta.media.0.codec.name">h264</property>
  <property name="meta.media.0.codec.long_name">H.264 / AVC / MPEG-4 AVC / MPEG-4 part 10</property>
  <property name="meta.media.0.codec.bit_rate">534426</property>
  <property name="meta.attr.0.stream.handler_name.markup">VideoHandler</property>
  <property name="meta.attr.major_brand.markup">isom</property>
  <property name="meta.attr.minor_version.markup">512</property>
  <property name="meta.attr.compatible_brands.markup">isomiso2avc1mp41</property>
  <property name="meta.attr.encoder.markup">Lavf57.56.101</property>
  <property name="meta.media.sample_aspect_num">1</property>
  <property name="meta.media.sample_aspect_den">1</property>
  <property name="meta.media.frame_rate_num">25</property>
  <property name="meta.media.frame_rate_den">1</property>
  <property name="meta.media.colorspace">709</property>
  <property name="meta.media.color_trc">1</property>
  <property name="meta.media.width">1280</property>
  <property name="meta.media.height">720</property>
  <property name="meta.media.top_field_first">0</property>
  <property name="meta.media.progressive">1</property>
 </producer>
 <playlist id="playlist1">
  <property name="kdenlive:track_name">Video 1</property>
  <entry out="5968" producer="16_playlist1" in="0"/>
  <entry out="6078" producer="16_playlist1" in="5969">
   <filter id="frei0r.brightness">
    <property name="version">0,2</property>
    <property name="mlt_service">frei0r.brightness</property>
    <property name="kdenlive_id">frei0r.brightness</property>
    <property name="tag">frei0r.brightness</property>
    <property name="kdenlive_ix">1</property>
    <property name="Brightness">0,3</property>
    <property name="kdenlive_info"/>
   </filter>
  </entry>
  <entry out="6151" producer="16_playlist1" in="6079"/>
  <entry out="6957" producer="16_playlist1" in="6152">
   <filter id="filter0">
    <property name="version">0,2</property>
    <property name="mlt_service">frei0r.brightness</property>
    <property name="kdenlive_id">frei0r.brightness</property>
    <property name="tag">frei0r.brightness</property>
    <property name="kdenlive_info"/>
    <property name="kdenlive_ix">1</property>
    <property name="disable"/>
    <property name="Brightness">0,3</property>
   </filter>
  </entry>
  <entry out="7082" producer="16_playlist1" in="6958"/>
  <entry out="7256" producer="16_playlist1" in="7083">
   <filter id="filter1">
    <property name="version">0,2</property>
    <property name="mlt_service">frei0r.brightness</property>
    <property name="kdenlive_id">frei0r.brightness</property>
    <property name="tag">frei0r.brightness</property>
    <property name="kdenlive_info"/>
    <property name="kdenlive_ix">1</property>
    <property name="disable"/>
    <property name="Brightness">0,3</property>
   </filter>
  </entry>
  <entry out="7339" producer="16_playlist1" in="7257"/>
  <entry out="7853" producer="16_playlist1" in="7340">
   <filter id="filter2">
    <property name="version">0,2</property>
    <property name="mlt_service">frei0r.brightness</property>
    <property name="kdenlive_id">frei0r.brightness</property>
    <property name="tag">frei0r.brightness</property>
    <property name="kdenlive_info"/>
    <property name="kdenlive_ix">1</property>
    <property name="disable"/>
    <property name="Brightness">0,3</property>
   </filter>
  </entry>
  <entry out="7924" producer="16_playlist1" in="7854"/>
  <entry out="8254" producer="16_playlist1" in="7925">
   <filter id="filter3">
    <property name="version">0,2</property>
    <property name="mlt_service">frei0r.brightness</property>
    <property name="kdenlive_id">frei0r.brightness</property>
    <property name="tag">frei0r.brightness</property>
    <property name="kdenlive_info"/>
    <property name="kdenlive_ix">1</property>
    <property name="disable"/>
    <property name="Brightness">0,3</property>
   </filter>
  </entry>
  <entry out="15803" producer="16_playlist1" in="8255"/>
  <entry out="16357" producer="16_playlist1" in="15804">
   <filter id="filter4">
    <property name="version">0,2</property>
    <property name="mlt_service">frei0r.brightness</property>
    <property name="kdenlive_id">frei0r.brightness</property>
    <property name="tag">frei0r.brightness</property>
    <property name="kdenlive_info"/>
    <property name="kdenlive_ix">1</property>
    <property name="disable"/>
    <property name="Brightness">0,3</property>
   </filter>
  </entry>
  <entry out="16513" producer="16_playlist1" in="16358"/>
  <entry out="17269" producer="16_playlist1" in="16514">
   <filter id="filter5">
    <property name="version">0,2</property>
    <property name="mlt_service">frei0r.brightness</property>
    <property name="kdenlive_id">frei0r.brightness</property>
    <property name="tag">frei0r.brightness</property>
    <property name="kdenlive_info"/>
    <property name="kdenlive_ix">1</property>
    <property name="disable"/>
    <property name="Brightness">0,3</property>
   </filter>
  </entry>
  <entry out="17571" producer="16_playlist1" in="17270"/>
  <entry out="17738" producer="16_playlist1" in="17573">
   <filter id="filter6">
    <property name="version">0,2</property>
    <property name="mlt_service">frei0r.brightness</property>
    <property name="kdenlive_id">frei0r.brightness</property>
    <property name="tag">frei0r.brightness</property>
    <property name="kdenlive_info"/>
    <property name="kdenlive_ix">1</property>
    <property name="disable"/>
    <property name="Brightness">0,3</property>
   </filter>
  </entry>
  <entry out="32434" producer="16_playlist1" in="17739"/>
  <filter id="filter7">
   <property name="version">0,1</property>
   <property name="mlt_service">frei0r.scale0tilt</property>
   <property name="kdenlive_id">frei0r.scale0tilt</property>
   <property name="tag">frei0r.scale0tilt</property>
   <property name="kdenlive_ix">1</property>
   <property name="kdenlive_info">0/-1/</property>
   <property name="Clip left">0</property>
   <property name="Clip right">0</property>
   <property name="Clip top">0,00694444</property>
   <property name="Clip bottom">0,00694444</property>
   <property name="Scale X">0,5</property>
   <property name="Scale Y">0,5</property>
   <property name="Tilt X">0,5</property>
   <property name="Tilt Y">0,5</property>
  </filter>
  <filter id="filter8">
   <property name="mlt_service">greyscale</property>
   <property name="kdenlive_id">greyscale</property>
   <property name="tag">greyscale</property>
   <property name="kdenlive_ix">2</property>
   <property name="kdenlive_info"/>
   <property name="disable">0</property>
  </filter>
  <filter id="filter9">
   <property name="delta">5</property>
   <property name="every">5</property>
   <property name="brightnessdelta_up">10</property>
   <property name="brightnessdelta_down">20</property>
   <property name="brightnessdelta_every">15</property>
   <property name="unevendevelop_up">30</property>
   <property name="unevendevelop_down">20</property>
   <property name="unevendevelop_duration">20</property>
   <property name="mlt_service">oldfilm</property>
   <property name="kdenlive_id">oldfilm</property>
   <property name="tag">oldfilm</property>
   <property name="kdenlive_ix">3</property>
   <property name="kdenlive_info">0/-1/</property>
   <property name="disable">0</property>
  </filter>
 </playlist>
 <playlist id="playlist3">
  <property name="kdenlive:track_name">Video 4</property>
  <blank length="11239"/>
  <entry out="8" producer="17" in="0">
   <filter id="qtblend">
    <property name="mlt_service">qtblend</property>
    <property name="kdenlive_id">qtblend</property>
    <property name="tag">qtblend</property>
    <property name="kdenlive_ix">1</property>
    <property name="rect">0=274 254 76 43 0,28</property>
    <property name="rotation">0=0</property>
    <property name="compositing">0</property>
    <property name="distort">0</property>
    <property name="kdenlive_info"/>
   </filter>
  </entry>
  <blank length="27"/>
  <entry out="8" producer="17" in="0">
   <filter id="filter10">
    <property name="mlt_service">qtblend</property>
    <property name="kdenlive_id">qtblend</property>
    <property name="tag">qtblend</property>
    <property name="kdenlive_ix">1</property>
    <property name="kdenlive_info"/>
    <property name="rect">0=274 254 76 43 0,28</property>
    <property name="rotation">0=0</property>
    <property name="compositing">0</property>
    <property name="distort">0</property>
   </filter>
  </entry>
  <blank length="27"/>
  <entry out="8" producer="17" in="0">
   <filter id="filter11">
    <property name="mlt_service">qtblend</property>
    <property name="kdenlive_id">qtblend</property>
    <property name="tag">qtblend</property>
    <property name="kdenlive_ix">1</property>
    <property name="kdenlive_info"/>
    <property name="rect">0=274 254 76 43 0,28</property>
    <property name="rotation">0=0</property>
    <property name="compositing">0</property>
    <property name="distort">0</property>
   </filter>
  </entry>
  <blank length="27"/>
  <entry out="8" producer="17" in="0">
   <filter id="filter12">
    <property name="mlt_service">qtblend</property>
    <property name="kdenlive_id">qtblend</property>
    <property name="tag">qtblend</property>
    <property name="kdenlive_ix">1</property>
    <property name="kdenlive_info"/>
    <property name="rect">0=274 254 76 43 0,28</property>
    <property name="rotation">0=0</property>
    <property name="compositing">0</property>
    <property name="distort">0</property>
   </filter>
  </entry>
  <blank length="25"/>
  <entry out="8" producer="17" in="0">
   <filter id="filter13">
    <property name="mlt_service">qtblend</property>
    <property name="kdenlive_id">qtblend</property>
    <property name="tag">qtblend</property>
    <property name="kdenlive_ix">1</property>
    <property name="kdenlive_info"/>
    <property name="rect">0=274 254 76 43 0,28</property>
    <property name="rotation">0=0</property>
    <property name="compositing">0</property>
    <property name="distort">0</property>
   </filter>
  </entry>
  <blank length="27"/>
  <entry out="8" producer="17" in="0">
   <filter id="filter14">
    <property name="mlt_service">qtblend</property>
    <property name="kdenlive_id">qtblend</property>
    <property name="tag">qtblend</property>
    <property name="kdenlive_ix">1</property>
    <property name="kdenlive_info"/>
    <property name="rect">0=274 254 76 43 0,28</property>
    <property name="rotation">0=0</property>
    <property name="compositing">0</property>
    <property name="distort">0</property>
   </filter>
  </entry>
  <blank length="87"/>
  <entry out="8" producer="17" in="0">
   <filter id="filter15">
    <property name="mlt_service">qtblend</property>
    <property name="kdenlive_id">qtblend</property>
    <property name="tag">qtblend</property>
    <property name="kdenlive_ix">1</property>
    <property name="kdenlive_info"/>
    <property name="rect">0=274 254 76 43 0,28</property>
    <property name="rotation">0=0</property>
    <property name="compositing">0</property>
    <property name="distort">0</property>
   </filter>
  </entry>
  <blank length="27"/>
  <entry out="8" producer="17" in="0">
   <filter id="filter16">
    <property name="mlt_service">qtblend</property>
    <property name="kdenlive_id">qtblend</property>
    <property name="tag">qtblend</property>
    <property name="kdenlive_ix">1</property>
    <property name="kdenlive_info"/>
    <property name="rect">0=274 254 76 43 0,28</property>
    <property name="rotation">0=0</property>
    <property name="compositing">0</property>
    <property name="distort">0</property>
   </filter>
  </entry>
  <blank length="27"/>
  <entry out="8" producer="17" in="0">
   <filter id="filter17">
    <property name="mlt_service">qtblend</property>
    <property name="kdenlive_id">qtblend</property>
    <property name="tag">qtblend</property>
    <property name="kdenlive_ix">1</property>
    <property name="kdenlive_info"/>
    <property name="rect">0=274 254 76 43 0,28</property>
    <property name="rotation">0=0</property>
    <property name="compositing">0</property>
    <property name="distort">0</property>
   </filter>
  </entry>
  <blank length="27"/>
  <entry out="8" producer="17" in="0">
   <filter id="filter18">
    <property name="mlt_service">qtblend</property>
    <property name="kdenlive_id">qtblend</property>
    <property name="tag">qtblend</property>
    <property name="kdenlive_ix">1</property>
    <property name="kdenlive_info"/>
    <property name="rect">0=274 254 76 43 0,28</property>
    <property name="rotation">0=0</property>
    <property name="compositing">0</property>
    <property name="distort">0</property>
   </filter>
  </entry>
  <blank length="27"/>
  <entry out="8" producer="17" in="0">
   <filter id="filter19">
    <property name="mlt_service">qtblend</property>
    <property name="kdenlive_id">qtblend</property>
    <property name="tag">qtblend</property>
    <property name="kdenlive_ix">1</property>
    <property name="kdenlive_info"/>
    <property name="rect">0=274 254 76 43 0,28</property>
    <property name="rotation">0=0</property>
    <property name="compositing">0</property>
    <property name="distort">0</property>
   </filter>
  </entry>
  <blank length="27"/>
  <entry out="8" producer="17" in="0">
   <filter id="filter20">
    <property name="mlt_service">qtblend</property>
    <property name="kdenlive_id">qtblend</property>
    <property name="tag">qtblend</property>
    <property name="kdenlive_ix">1</property>
    <property name="kdenlive_info"/>
    <property name="rect">0=274 254 76 43 0,28</property>
    <property name="rotation">0=0</property>
    <property name="compositing">0</property>
    <property name="distort">0</property>
   </filter>
  </entry>
  <blank length="27"/>
  <entry out="8" producer="17" in="0">
   <filter id="filter21">
    <property name="mlt_service">qtblend</property>
    <property name="kdenlive_id">qtblend</property>
    <property name="tag">qtblend</property>
    <property name="kdenlive_ix">1</property>
    <property name="kdenlive_info"/>
    <property name="rect">0=274 254 76 43 0,28</property>
    <property name="rotation">0=0</property>
    <property name="compositing">0</property>
    <property name="distort">0</property>
   </filter>
  </entry>
 </playlist>
 <playlist id="playlist2">
  <property name="kdenlive:track_name">Video 2</property>
  <property name="kdenlive:locked_track">0</property>
  <entry out="32434" producer="1" in="0">
   <filter id="filter22">
    <property name="version">0,1</property>
    <property name="mlt_service">frei0r.scale0tilt</property>
    <property name="kdenlive_id">frei0r.scale0tilt</property>
    <property name="tag">frei0r.scale0tilt</property>
    <property name="kdenlive_ix">1</property>
    <property name="Clip left">0</property>
    <property name="Clip right">0</property>
    <property name="Clip top">0</property>
    <property name="Clip bottom">0</property>
    <property name="Scale X">0,5</property>
    <property name="Scale Y">0,55</property>
    <property name="Tilt X">0,5</property>
    <property name="Tilt Y">0,5</property>
    <property name="kdenlive_info"/>
   </filter>
  </entry>
 </playlist>
 <tractor id="maintractor" title="Anonymous Submission" global_feed="1" out="32435" in="0">
  <track producer="black_track"/>
  <track producer="playlist0" hide="video"/>
  <track producer="playlist1"/>
  <track producer="playlist3"/>
  <track producer="playlist2"/>
  <transition id="transition0">
   <property name="a_track">0</property>
   <property name="b_track">1</property>
   <property name="mlt_service">mix</property>
   <property name="always_active">1</property>
   <property name="combine">1</property>
   <property name="internal_added">237</property>
  </transition>
  <transition id="transition1">
   <property name="a_track">0</property>
   <property name="b_track">2</property>
   <property name="mlt_service">mix</property>
   <property name="always_active">1</property>
   <property name="combine">1</property>
   <property name="internal_added">237</property>
  </transition>
  <transition id="transition2">
   <property name="a_track">0</property>
   <property name="b_track">3</property>
   <property name="mlt_service">mix</property>
   <property name="always_active">1</property>
   <property name="combine">1</property>
   <property name="internal_added">237</property>
  </transition>
  <transition id="transition3">
   <property name="a_track">0</property>
   <property name="b_track">4</property>
   <property name="mlt_service">mix</property>
   <property name="always_active">1</property>
   <property name="combine">1</property>
   <property name="internal_added">237</property>
  </transition>
  <transition id="transition4" out="11858" in="11239">
   <property name="a_track">2</property>
   <property name="b_track">3</property>
   <property name="start">0/0:100%x100%</property>
   <property name="factory">loader</property>
   <property name="aligned">1</property>
   <property name="progressive">1</property>
   <property name="mlt_service">composite</property>
   <property name="automatic">1</property>
   <property name="kdenlive_id">composite</property>
   <property name="force_track">1</property>
   <property name="deinterlace">0</property>
   <property name="distort">0</property>
   <property name="fill">1</property>
   <property name="geometry">0%/0%:100%x100%:100</property>
   <property name="halign">centre</property>
   <property name="luma_invert">0</property>
   <property name="operator">over</property>
   <property name="softness">0</property>
   <property name="valign">middle</property>
   <property name="luma"/>
  </transition>
  <transition id="transition5">
   <property name="a_track">0</property>
   <property name="b_track">1</property>
   <property name="compositing">0</property>
   <property name="distort">0</property>
   <property name="mlt_service">qtblend</property>
   <property name="always_active">1</property>
   <property name="internal_added">237</property>
  </transition>
  <transition id="transition6">
   <property name="a_track">0</property>
   <property name="b_track">2</property>
   <property name="compositing">0</property>
   <property name="distort">0</property>
   <property name="mlt_service">qtblend</property>
   <property name="always_active">1</property>
   <property name="internal_added">237</property>
  </transition>
  <transition id="transition7">
   <property name="a_track">0</property>
   <property name="b_track">3</property>
   <property name="compositing">0</property>
   <property name="distort">0</property>
   <property name="mlt_service">qtblend</property>
   <property name="always_active">1</property>
   <property name="internal_added">237</property>
  </transition>
  <transition id="transition8">
   <property name="a_track">0</property>
   <property name="b_track">4</property>
   <property name="compositing">0</property>
   <property name="distort">0</property>
   <property name="mlt_service">qtblend</property>
   <property name="always_active">1</property>
   <property name="internal_added">237</property>
  </transition>
 </tractor>
</mlt>
